<svg width="16" height="15" fill="none" xmlns="http://www.w3.org/2000/svg"><path fill-rule="evenodd" clip-rule="evenodd" d="M5.585 14.067c2.344 0 4.35-1.303 5.179-3.15.01-.022-3.326.867-3.22.553.048-.14 2.093-.888 3.583-1.759.856-.5 1.25-1.561 1.25-1.561s-1.443.7-2.172.878c-1.47.358-2.763.32-2.763.282 0-.08 2.148-.489 5.134-2.308 1.404-.856 1.786-2.33 1.786-2.33s-1.544.92-2.478 1.223c-2.213.72-4.234.937-4.234.84 0-.209 1.778-.697 3.663-1.61.98-.476 1.829-1.096 2.812-1.786C15.735 2.21 16 .2 16 .2s-1.587 1.024-2.362 1.364C10.442 2.967 7.62 3.702 5.585 3.862 2.513 4.102 0 6.245 0 9.028c0 2.783 2.5 5.039 5.585 5.039z" fill="#A6BBE8"/></svg>