<svg width="20" height="16" fill="none" xmlns="http://www.w3.org/2000/svg"><path fill-rule="evenodd" clip-rule="evenodd" d="M15.442 7.436a.007.007 0 01-.001-.005L16.714.006c0-.004.004-.006.007-.006h.403c.003 0 .006.002.007.005L20 9.088c0 .003 0 .006-.003.008l-2.115 1.651a.007.007 0 01-.01-.001l-2.43-3.31zM0 12.358c0 .003.002.006.005.007l4.36 1.425h.006l9.746-6.729a.007.007 0 00.003-.005L15.165.044a.007.007 0 00-.007-.008H6.526c-.002 0-.004 0-.006.002L.002 7.902A.007.007 0 000 7.907v4.451zm6.182 1.796l4.763 1.56h.006l5.672-4.069a.007.007 0 00.001-.01l-2.126-3.163a.007.007 0 00-.01-.002l-8.306 5.684z" fill="#8BCEC1"/></svg>