<svg width="16" height="19" fill="none" xmlns="http://www.w3.org/2000/svg"><path fill-rule="evenodd" clip-rule="evenodd" d="M8.743 9.16c.122-.074.226-.23.31-.403 1.098.449 1.87 1.51 1.87 2.747 0 1.644-1.363 2.976-3.043 2.976-.69 0-1.326-.225-1.836-.603a7.133 7.133 0 01-.418-.218c-.175-.096-.29-.16-.362-.15-.21.03-.148.222-.093.398.037.119.073.23.018.275-.056.048-.24-.127-.455-.332-.292-.278-.642-.612-.807-.512-.13.08-.004.295.151.558l.012.019c.065.111.141.224.21.328.14.21.254.379.198.407-.069.035-.547-.287-.95-.735-.155-.173-.305-.36-.445-.534-.306-.38-.561-.698-.704-.66-.172.045-.042.4.15.742.089.16.194.322.285.463.142.22.25.386.21.406-.052.028-.515-.424-.83-.994-.187-.338-.344-.712-.471-1.014-.138-.328-.24-.573-.308-.597-.235-.086-.235.393-.14 1.084.011.09.03.185.052.281.914 2.956 3.72 5.108 7.04 5.108 4.061 0 7.353-3.22 7.353-7.192 0-3.78-2.982-6.88-6.77-7.17.004-.178.097-.53.097-.53s.669-1.62.704-1.965l.008-.075C9.821.895 9.9.2 9.301.2c-.32 0-.468.237-.638.509a3.263 3.263 0 01-.216.316c-.593.74-1.59 1.666-2.155 2.158C5.097 4.225 3.924 5.081 3.24 5.58c-.31.227-.52.38-.586.443C2.164 6.501.41 9.667.41 9.667s-.567 1.016-.366 1.222c.202.206.689.159.689.159s6.537-1.5 7.122-1.618a9.24 9.24 0 01.354-.064c.232-.039.274-.046.535-.205zM4.122 7.234c-.351.334-.933 1.13-.933 1.13s1.081.067 1.677-.5c.596-.566.46-1.53.46-1.53s-.854.567-1.204.9z" fill="#ACB9C1"/></svg>