<svg width="16" height="16" fill="none" xmlns="http://www.w3.org/2000/svg"><path fill-rule="evenodd" clip-rule="evenodd" d="M3.21 12.687l2.567-.744 2.216 4.053c.003.005.01.005.014 0l2.216-4.053 2.567.744a.008.008 0 00.01-.01l-.745-2.515 3.941-2.155a.008.008 0 000-.014L12.022 5.82l.777-2.625a.008.008 0 00-.01-.01l-2.626.762L8.007.004a.008.008 0 00-.014 0L5.837 3.947 3.21 3.185a.008.008 0 00-.01.01l.778 2.625L.004 7.993a.008.008 0 000 .014l3.941 2.155-.744 2.516a.008.008 0 00.01.01zm1.992-4.66l1.818.995.994 1.818c.003.005.01.005.014 0l.994-1.818 1.818-.994a.008.008 0 000-.014L9.022 7.02l-.994-1.818a.008.008 0 00-.014 0L7.02 7.02l-1.818.994a.008.008 0 000 .014z" fill="#ACB9C1"/></svg>