<svg width="14" height="19" fill="none" xmlns="http://www.w3.org/2000/svg"><path fill-rule="evenodd" clip-rule="evenodd" d="M10.334 14.1c.223-.813-.209-2.484-.209-2.484s-.313 1.361-.802 1.865c-.418.43-.93.727-1.662.805a1.782 1.782 0 001.012-1.6c0-.985-.813-1.784-1.815-1.784-1.003 0-1.815.799-1.815 1.784 0 .269.06.524.169.753-.627-.5-.726-1.3-.726-1.3s-.7 2.906 1.23 4.273c1.928 1.367 5.707.192 5.707.192s-5.408 3.805-9.415-.336c-3.451-3.567-.9-8.263-.9-8.263s-.11.435-.11.941.274.89.274.89.818-1.723 1.454-2.425c.603-.663 1.358-1.201 2.01-1.666.502-.358.943-.672 1.207-.967C7.393 3.155 6.504.2 6.504.2S8.14 1.642 8.597 3.505c.174.71.062 1.517-.038 2.24-.163 1.172-.294 2.12.88 2.058 1.898-.099.249-3.025.249-3.025s4.305 2.263 3.983 6.22c-.322 3.957-4.705 4.857-4.705 4.857s1.146-.941 1.368-1.755z" fill="#ACB9C1"/></svg>