<svg width="16" height="16" fill="none" xmlns="http://www.w3.org/2000/svg"><path fill-rule="evenodd" clip-rule="evenodd" d="M13.37 12.295C14.984 11.003 16 9.137 16 7.061 16 3.16 12.418 0 8 0S0 3.161 0 7.06c0 2.002.943 3.808 2.458 5.093a3.68 3.68 0 00-.142 1.023c0 1.56.942 2.824 2.105 2.824.756 0 1.418-.534 1.79-1.336C6.58 15.466 7.245 16 8 16c.689 0 1.3-.444 1.684-1.13.384.686.996 1.13 1.684 1.13 1.163 0 2.106-1.264 2.106-2.824 0-.308-.037-.604-.105-.88zm-.738-5.094c0 1.98-2.121 3.585-4.737 3.585S3.158 9.18 3.158 7.2s2.12-3.585 4.737-3.585c2.616 0 4.737 1.605 4.737 3.585z" fill="#ACB9C1"/></svg>