<svg width="154" height="195" fill="none" xmlns="http://www.w3.org/2000/svg"><path d="M107.26 40.23c8.006 4.937 14.66 11.052 19.961 18.347 5.788 7.971 9.374 16.634 10.759 25.988-22.163.66-44.137.495-65.923-.495C28.502 82.073 7.7 76.948 9.65 68.694c2.281-9.606 11.64-18.528 28.078-26.766 8.21-4.12 16.193-7.28 23.948-9.48 6.355-2.405 13.66-2.885 21.919-1.439 8.132 1.415 16.02 4.489 23.665 9.221z" fill="#6F4E25"/><path d="M78.71 30.278l5.946.637c-5.002 1.792-9.713 4.45-14.133 7.97-3.319 2.658-6.756 6.07-10.31 10.236-1.59-1.808-3.54-3.829-5.852-6.061l-6.205-5.848c9.658-3.962 17.515-6.25 23.57-6.863a41.381 41.381 0 016.984-.07zM128.99 61.148c4.75 7.294 7.747 15.1 8.989 23.417-5.143.157-11.6.26-19.371.307 4.357-6.682 7.818-14.59 10.382-23.724z" fill="#4A311C"/><path d="M60.968 29.5c1.337 3.836 2.084 6.548 2.241 8.136l-9.839 26.79-30.861-3.16c-.692-.645-2.477-3.38-5.356-8.207-3.036-5.094-4.664-8.293-4.884-9.598-.44-2.437 6.544-7.216 20.952-14.338 4.829-2.39 9.784-4.206 14.864-5.448 3.492-.849 6.253-1.297 8.282-1.344 1.384-.031 2.918 2.358 4.6 7.17z" fill="#6F4E25"/><path d="M60.968 29.5c1.337 3.836 2.084 6.548 2.241 8.136l-6.842 18.606c-2.659-3.773-7.425-9.48-14.298-17.12-5.962-6.635-8.911-9.968-8.848-10 4.829-2.389 9.784-4.205 14.864-5.447 3.492-.849 6.253-1.297 8.282-1.344 1.384-.031 2.918 2.358 4.6 7.17z" fill="#4A311C"/><path d="M128.022 46.031c4.735 3.868 8.597 7.523 11.585 10.966 3.178 3.648 4.507 6.084 3.988 7.31-.472 1.117-2.926 3.664-7.362 7.641-4.074 3.664-6.567 5.755-7.479 6.273L95.557 57.823l6.394-15.777c.393-1.148 1.195-2.65 2.406-4.504 1.573-2.421 2.824-3.514 3.752-3.278 1.604.408 4.066 1.509 7.385 3.301a80.024 80.024 0 0112.528 8.466z" fill="#6F4E25"/><path d="M139.962 57.422c2.925 3.427 4.136 5.722 3.633 6.886-.236.55-1.305 1.792-3.209 3.726l-5.214 5.046-5.356-1.155c-2.501-.487-4.908-.731-7.22-.731 1.746-2.72 3.358-7.326 4.837-13.82 1.211-5.376 1.785-8.843 1.722-10.4 4.468 3.758 8.07 7.24 10.807 10.448z" fill="#4A311C"/><path d="M55.187 30.773a25.001 25.001 0 012.194 5.26l.732 2.075c.55 1.698.951 3.348 1.203 4.952.77 5.14-.102 8.86-2.619 11.154-2.533 2.296-7.96 3.962-16.28 5-4.168.535-8.085.833-11.75.896-1.494-1.65-3.476-4.433-5.946-8.348-2.705-4.276-3.987-6.894-3.846-7.853.142-1.07 5.112-3.93 14.912-8.584 9.815-4.654 16.06-7.106 18.734-7.358.708-.078 1.596.857 2.666 2.806zM109.619 40.678c1.463.535 6.387 4.182 14.77 10.942 8.573 6.902 12.82 10.817 12.741 11.744-.078.912-1.879 3.113-5.403 6.604-3.256 3.222-5.741 5.423-7.456 6.603l-22.626-21.908c1.164-3.286 2.312-6.108 3.444-8.467 1.935-4.056 3.445-5.895 4.53-5.518z" fill="#0D131A"/><path d="M110.822 50.37c4.2-.235 8.203 1.486 12.01 5.165a22.474 22.474 0 013.68 4.599c.913 1.525 1.416 2.79 1.511 3.797.22 2.28-.197 4.26-1.251 5.942-1.306 2.107-3.484 3.443-6.536 4.01l-14.51-7.123-2.69-9.338c.33-1.604.928-2.964 1.793-4.08 1.416-1.824 3.414-2.814 5.993-2.971z" fill="#DCDBD6"/><path d="M128.023 63.93c.22 2.28-.197 4.261-1.251 5.943-1.305 2.107-3.484 3.443-6.535 4.01l-4.908-2.406 4.294-18.395 4.106 4.387c2.752 3.144 4.184 5.298 4.294 6.461z" fill="#B4B4B0"/><path d="M110.799 67.538c-2.58-1.886-4.082-4.11-4.507-6.673-.377-2.421.323-4.395 2.1-5.92 1.243-1.069 2.532-1.69 3.869-1.862l12.128 10.682c.346 2.044-.283 3.719-1.888 5.023-1.478 1.18-3.201 1.675-5.167 1.486-2.155-.204-4.333-1.116-6.535-2.736z" fill="#DCDBD6"/><path d="M124.389 63.765c.346 2.044-.283 3.719-1.887 5.023-1.479 1.18-3.201 1.675-5.167 1.486l-1.793-.377.825-7.735.472-4.622 7.55 6.225z" fill="#B4B4B0"/><path d="M152.868 39.475a16.826 16.826 0 01-2.03 6.179c-1.006 1.824-2.217 3.278-3.633 4.363-2.407 1.84-6.024 4.339-10.853 7.499-4.452 2.909-7.59 4.866-9.415 5.872-1.62.912-3.476 1.281-5.568 1.108-2.076-.157-4.2-.825-6.37-2.004-2.029-1.1-3.437-2.861-4.224-5.283-.692-2.153-.739-4.134-.141-5.942.597-1.808 2.249-5.723 4.955-11.744 2.799-6.273 4.593-9.952 5.379-11.037 1.227-1.73 2.902-3.223 5.026-4.48a20.945 20.945 0 016.936-2.547c5.773-1.022 10.594.29 14.464 3.938 4.294 4.04 6.118 8.733 5.474 14.078z" fill="#DCDBD6"/><path d="M132.128 53.39c4.216 1.037 8.266.62 12.151-1.25-2.768 1.964-6.04 4.165-9.815 6.602l-7.527 4.646c-1.62.912-3.476 1.281-5.568 1.108-2.076-.157-4.2-.825-6.37-2.004-.095-.047 1.455-1.926 4.648-5.636l5.12-5.943.566-.566c.236-.079.574.078 1.015.472 1.148 1.037 3.075 1.894 5.78 2.57z" fill="#B4B4B0"/><path d="M38.459 38.084c4.766-2.09 9.665-2.217 14.699-.377l2.808 13.253-20.881 9.999c-2.957-1.32-4.837-3.23-5.64-5.73-.566-1.809-.566-3.97 0-6.486 1.102-4.936 4.106-8.49 9.014-10.659z" fill="#DCDBD6"/><path d="M41.054 37.164c4.074-1.1 8.108-.92 12.104.543l2.807 13.253a134.658 134.658 0 01-10.57-2.099c-7.393-1.745-11.978-3.49-13.755-5.235 2.186-3.191 5.324-5.345 9.414-6.462z" fill="#B4B4B0"/><path d="M50.704 42.919c1.085 1.949 1.133 4.142.142 6.579-1.054 2.563-2.847 4.426-5.38 5.589-2.123.959-4.302 1.29-6.536.99-2.076-.267-3.893-1.399-5.45-3.395-1.667-2.139-2.076-4.23-1.227-6.273l15.525-6.273c1.164.44 2.14 1.367 2.926 2.782z" fill="#DCDBD6"/><path d="M47.779 40.136c1.164.44 2.139 1.367 2.925 2.782 1.086 1.95 1.133 4.143.142 6.58-1.054 2.578-2.847 4.434-5.38 5.565l-3.444-4.527-1.628-2.005 7.385-8.395z" fill="#B4B4B0"/><path d="M47.826 45.984c-1.306 2.123-3.122 3.506-5.45 4.15-2.58.708-4.94.928-7.079.661-2.218-.299-4.042-1.1-5.474-2.405-1.919-1.745-4.412-4.182-7.479-7.311-3.775-3.836-6.646-6.949-8.612-9.339-1.211-1.477-2.155-3.364-2.831-5.66a21.293 21.293 0 01-.826-7.499C10.5 12.31 13.41 7.6 18.805 4.456 23.823 1.516 28.99 1.02 34.306 2.97c5.065 1.855 8.848 5.337 11.35 10.447.676 1.383 1.517 5.471 2.524 12.263 1.022 6.854 1.486 11.673 1.392 14.456-.079 2.138-.66 4.087-1.746 5.848z" fill="#DCDBD6"/><path d="M48.793 30.066c.582 4.716.842 8.073.779 10.07-.079 2.138-.661 4.087-1.746 5.848-1.306 2.123-3.123 3.506-5.45 4.15l-.968.425c-.236.095-.409.047-.519-.141-3.697-6.603-5.844-10.565-6.441-11.886-.425-.927-.637-1.462-.637-1.603-.016-.284.26-.504.825-.66 3.917-1.196 7.032-3.397 9.344-6.604 2.438-3.412 3.413-7.24 2.926-11.485.692 3.49 1.32 7.453 1.887 11.886z" fill="#B4B4B0"/><path d="M85.317 166.373c1.085-.205 2.28.605 3.586 2.429 1.306 1.776 2.03 3.56 2.171 5.353-.708.896-3.122 1.037-7.243.424-3.949-.613-6.198-1.258-6.748-1.934-.44-.566.448-1.682 2.666-3.348 2.186-1.667 4.042-2.642 5.568-2.924z" fill="#DBDCDC"/><path d="M92.419 45.371c2.752 1.95 6.016 5.133 9.791 9.55 3.304 3.853 6.111 6.88 8.424 9.08 3.57 3.412 6.96 5.92 10.169 7.523 8.651 4.323 14.652 8.498 18.002 12.522 4.2 5.063 4.908 10.487 2.124 16.272L10.216 98.29c-.96-.472-2.045-1.494-3.256-3.066-1.274-1.666-2.375-3.553-3.303-5.66-2.344-5.392-2.737-10.132-1.18-14.22 1.337-3.506 4.02-6.705 8.046-9.598 4.514-3.223 9.556-5.11 15.124-5.66l5.238-.424c1.903-.173 3.515-.44 4.837-.802 3.492-.959 6.984-3.144 10.476-6.556 4.781-4.685 9.587-8.05 14.416-10.093 4.907-2.091 10.122-2.948 15.643-2.57 6.008.424 11.396 2.334 16.162 5.73z" fill="#EEEEEF"/><path d="M2.477 75.344l.378-.872C3.485 82.757 6.937 88.7 13.213 92.3c2.737 1.572 6.26 2.893 10.57 3.962 3.24.802 7.731 1.62 13.472 2.453l-27.039-.425c-.96-.472-2.045-1.494-3.256-3.066-1.274-1.666-2.375-3.553-3.303-5.66-2.344-5.392-2.737-10.132-1.18-14.22zM76.257 39.64c6.009.425 11.396 2.335 16.162 5.731 2.753 1.95 6.017 5.133 9.792 9.55a156.817 156.817 0 005.733 6.345c2.816 2.971 5.151 5.196 7.008 6.673-5.348 1.541-10.437 5.597-15.266 12.169C95.77 85.422 92.34 91.891 89.4 99.516l-11.892-.188c-.377-10.974-4.129-21.012-11.254-30.115-3.177-4.056-6.685-7.381-10.523-9.975-3.854-2.626-7.645-4.245-11.373-4.858 4.106-4.355 9.234-7.971 15.384-10.848C66 40.607 71.507 39.31 76.257 39.64zM129.58 76.406c5.568 3.521 9.335 7.074 11.302 10.659 2.28 4.15 2.296 8.568.047 13.253l-12.788-4.67c1.667-1.367 2.98-3.19 3.94-5.47 1.903-4.575 1.069-9.166-2.501-13.772z" fill="#C8C9CA"/><path d="M95.699 87.112c-6.198 3.176-13.465 4.426-21.802 3.75-8.336-.66-15.304-3.05-20.904-7.17-5.6-4.119-8.195-8.764-7.786-13.937.409-5.156 3.712-9.33 9.91-12.522 6.181-3.176 13.44-4.433 21.777-3.773 8.337.676 15.305 3.073 20.904 7.192 5.6 4.12 8.196 8.765 7.787 13.938-.409 5.172-3.705 9.346-9.886 12.522z" fill="#0D131A"/><path d="M83.453 163.472c1.494-1.619 3.79-2.665 6.89-3.137 3.098-.487 9.359.472 18.781 2.877a258.046 258.046 0 0113.189 3.75c.566 1.792-.079 3.844-1.935 6.155-1.746 2.185-4.035 3.978-6.866 5.377-4.042 1.996-8.533 2.885-13.472 2.665-5.144-.22-9.721-1.62-13.732-4.198-2.092-1.352-3.492-3.419-4.2-6.202-.582-2.343-.566-4.009.047-5 .126-.707.559-1.47 1.298-2.287z" fill="#3396CD"/><path d="M83.453 163.472c1.495-1.619 3.791-2.665 6.89-3.137.77-.125 1.871-.149 3.303-.07 2.218 1.745 4.074 3.985 5.568 6.721-4.373-1.007-7.959-.952-10.759.165-2.39.974-4.302 2.79-5.733 5.447a12.29 12.29 0 01-.968-4.15c-.063-1.274.071-2.17.401-2.689.126-.707.559-1.47 1.298-2.287zM106.434 180.616c-3.335.582-6.37.668-9.107.26 4.561-3.097 5.253-7.602 2.076-13.513l11.254-.495c4.31-.142 8.062-.15 11.255-.024l.401.118c.566 1.792-.079 3.844-1.935 6.155-1.746 2.185-4.034 3.978-6.866 5.377-1.871.912-4.231 1.619-7.078 2.122z" fill="#2880AE"/><path d="M11.49 137.909c-3.082-4.748-4.844-10.99-5.285-18.725-.283-4.685-.133-8.71.449-12.074l10.428 2.382 3.563 29.666-9.154-1.249z" fill="#C8C9CA"/><path d="M128.683 138.852c1.888 4.37 2.454 9.126 1.699 14.267-.771 5.188-2.186 9.001-4.247 11.438-1.085 1.289-2.745 2.413-4.978 3.372-3.634 1.572-7.496 2.358-11.585 2.358-7.409.016-14.023-2.696-19.843-8.136 2.155-4.135 4.648-8.513 7.48-13.135 5.662-9.245 10.2-15.093 13.613-17.546 3.429-2.452 6.63-3.183 9.603-2.193 1.495.488 2.643 1.219 3.445 2.193 2.155 2.5 3.759 4.961 4.813 7.382z" fill="#3396CD"/><path d="M123.87 131.47c2.155 2.5 3.76 4.961 4.814 7.382 1.887 4.37 2.453 9.126 1.698 14.267-.786 5.314-2.005 9.009-3.657 11.084-.676.849-1.533 1.58-2.572 2.193l-2.996 1.533c-2.281 1.116-4.507 1.879-6.677 2.287l-7.833.26c2.029-1.289 2.957-2.838 2.784-4.646-.158-1.651-1.156-3.144-2.997-4.481-1.872-1.352-4.066-2.13-6.583-2.334-2.815-.22-5.474.369-7.975 1.768 3.823-6.87 6.914-12.27 9.273-16.201 4.341-7.216 7.566-11.587 9.674-13.112 3.429-2.452 6.63-3.183 9.603-2.193 1.494.488 2.642 1.219 3.444 2.193z" fill="#2880AE"/><path d="M87.464 176.725c1.667-1.273 3.673-1.816 6.017-1.627 2.862.22 5.529 1.564 7.998 4.033.944.943.071 2.436-2.619 4.48-2.485 1.887-4.263 2.862-5.332 2.924-.755.048-1.998-1.265-3.728-3.938-1.762-2.72-2.54-4.677-2.336-5.872z" fill="white"/><path d="M101.479 179.131c.771.77.016 2.138-2.265 4.103-1.888 1.635-3.799 2.932-5.733 3.891 1.116-1.431 2.029-3.215 2.736-5.353.677-2.123.976-4.033.897-5.731 1.526.676 2.981 1.706 4.365 3.09z" fill="#DBDCDC"/><path d="M108.652 176.301c3.555-1.305 6.701-1.447 9.438-.425 1.541.582 2.981 2.775 4.318 6.58.55 1.588.865 2.94.943 4.056.079 1.226-.165 1.894-.731 2.004-2.092.425-5.631-.526-10.617-2.853-5.144-2.374-7.81-4.489-7.999-6.344-.031-.298.393-.747 1.274-1.344.944-.645 2.069-1.203 3.374-1.674z" fill="white"/><path d="M118.09 175.876c1.321.503 2.626 2.335 3.916 5.495 1.243 3.097 1.644 5.275 1.204 6.532-.928-2.468-2.218-4.897-3.87-7.287-1.809-2.594-3.563-4.386-5.261-5.377 1.494-.031 2.831.181 4.011.637z" fill="#DBDCDC"/><path d="M92.348 81.193c4.357-1.714 7.605-3.876 9.745-6.485 1.164-1.415 2.792-1.793 4.884-1.132 1.919.613 3.326 1.713 4.223 3.301.724 1.305 1.164 3.404 1.321 6.297.11 2.264.048 4.41-.188 6.438-.126 1.037.393 8.804 1.557 23.299.912 14.7.692 23.535-.661 26.507-1.95 4.26-4.719 8.434-8.305 12.522-3.728 4.245-7.283 7.169-10.665 8.773-5.6 2.641-11.2 4.488-16.799 5.542-8.934 1.682-17.428 1.281-25.482-1.203-4.75-1.116-9.728-3.239-14.935-6.367-10.413-6.258-16.783-14.386-19.111-24.385-2.312-9.999.094-23.118 7.22-39.359 3.57-8.128 7.369-15.258 11.396-21.389.125-.943 1.006-2.311 2.642-4.103 1.81-1.997 3.32-2.909 4.53-2.736 1.117.142 2.698 1.219 4.743 3.23l5.71 5.826c2.013 1.902 5.08 3.679 9.201 5.33 4.987 1.996 9.784 2.955 14.393 2.876 5.19-.078 10.051-1.006 14.581-2.782z" fill="#F0E9A5"/><path d="M39.497 69.095a5.505 5.505 0 011.746-.448l2.406.189c-1.463 1.32-2.556 2.75-3.28 4.292-.629 1.383-1.038 3.026-1.226 4.928a27.875 27.875 0 01-2.454-5.023c.204-.487.558-1.092 1.062-1.816a18.982 18.982 0 011.746-2.122zM29.753 133.216c-3.57-.425-7.55-.268-11.939.471-.582-2.735-.802-5.73-.66-8.985 1.95.849 3.979 1.352 6.087 1.51 2.076.157 4.129-.04 6.158-.59.031 2.531.15 5.062.354 7.594zM87.724 85.461c-.048-.393-.402-.833-1.062-1.32a8.324 8.324 0 00-1.581-.897c3.728-.707 7.11-1.823 10.145-3.348 2.973-1.51 5.262-3.239 6.866-5.188 1.164-1.415 2.792-1.793 4.884-1.132 1.919.613 3.327 1.713 4.224 3.301.723 1.305 1.164 3.404 1.321 6.297.11 2.264.047 4.41-.189 6.438-.125 1.037.394 8.804 1.558 23.299.912 14.7.692 23.535-.661 26.507-1.951 4.26-4.719 8.434-8.305 12.522-3.728 4.245-7.283 7.169-10.665 8.773-5.961 2.814-11.718 4.779-17.27 5.895-9.234 1.824-17.57 1.305-25.01-1.556-2.25-.535-4.924-1.478-8.023-2.83 2.438-.597 4.554-2.02 6.347-4.268.708-.897 1.66-2.492 2.855-4.788 8.053-2.059 15.006-6.894 20.857-14.503.142-.173.26-.534.354-1.085l.094-.754c.598.015.952-.063 1.062-.236 4.876-7.012 8.392-15.313 10.547-24.903.063-.252.023-.637-.118-1.156l-.212-.731c.534-.236.817-.432.849-.589 1.573-8.113 1.95-16.029 1.133-23.748z" fill="#C9C48B"/><path d="M20.126 187.55c-6.245.11-10.838-2.312-13.779-7.264-3.46-5.833-4.035-14.55-1.722-26.153l47.353-5.07c1.51 4.575 1.565 10.793.166 18.654-1.385 7.735-3.367 12.766-5.946 15.092-2.407 2.186-6.512 3.601-12.316 4.245l-13.756.496z" fill="#3396CD"/><path d="M33.882 187.054l-13.756.496c6.166-5.409 6.221-11.462.165-18.159l31.687-20.328c1.51 4.575 1.565 10.793.165 18.654-1.384 7.735-3.366 12.766-5.945 15.092-2.407 2.186-6.512 3.601-12.316 4.245z" fill="#2880AE"/><path d="M51.035 183.375c.314 3.475-.024 5.527-1.015 6.156-1.022.66-2.941.668-5.757.023-2.878-.66-5.12-1.659-6.724-2.995-.456-.377-.55-1.14-.283-2.287.283-1.227.873-2.39 1.77-3.491 2.453-2.987 5.811-3.969 10.074-2.947.975.235 1.62 2.083 1.935 5.541zM7.432 182.196c.315-1.729 1.699-2.775 4.153-3.136 1.667-.267 4.648-.236 8.942.094 3.712.283 7.078 1.101 10.098 2.453 3.178 1.43 4.72 2.932 4.625 4.504-.094 1.651-3.115 3.419-9.06 5.306-5.993 1.918-11.208 2.743-15.643 2.476-1.589-.094-2.65-1.485-3.186-4.174-.456-2.327-.432-4.834.071-7.523z" fill="white"/><path d="M51.035 183.375c.314 3.475-.024 5.527-1.015 6.156-1.022.66-2.941.668-5.757.023-2.878-.66-5.12-1.659-6.724-2.995-.456-.377-.55-1.14-.283-2.287.283-1.227.873-2.39 1.77-3.491 2.453-2.987 5.811-3.969 10.074-2.947.975.235 1.62 2.083 1.935 5.541zM26.685 180.215c2.532.692 4.577 1.549 6.134 2.571 1.683 1.1 2.494 2.209 2.43 3.325-.078 1.588-2.925 3.309-8.54 5.165-5.616 1.855-10.689 2.743-15.219 2.664 4.121-1.163 7.731-2.955 10.83-5.376 3.65-2.862 5.104-5.644 4.365-8.349z" fill="#DBDCDC"/><path d="M25.765 130.032l5.545-.472c6.606.22 11.836 2.492 15.69 6.816 3.334 3.757 5.12 8.293 5.356 13.607.188 3.946-1.306 8.026-4.483 12.239-3.272 4.355-7.212 7.271-11.821 8.749-1.825.582-4.797.723-8.919.425a83.558 83.558 0 01-9.886-1.368c-5.615-1.116-9.398-4.332-11.348-9.645-1.196-3.286-1.652-7.319-1.369-12.098.267-4.166 1.848-7.963 4.743-11.391 3.932-4.685 9.43-6.972 16.492-6.862z" fill="#3396CD"/><path d="M27.134 171.396a83.555 83.555 0 01-9.886-1.368c-4.011-.786-7.102-2.681-9.273-5.684 2.737 1.588 5.702 2.327 8.895 2.217 3.807-.141 7.354-1.541 10.641-4.198 4.703-3.788 7.951-8.387 9.745-13.795 2.328-7.028 1.006-13.316-3.964-18.866 5.977.629 10.704 3.042 14.18 7.24 3.036 3.678 4.664 8.025 4.884 13.041.189 3.946-1.306 8.026-4.483 12.239-3.272 4.355-7.212 7.271-11.82 8.749-1.825.582-4.798.723-8.92.425z" fill="#2880AE"/><path d="M5.427 87.088c.393-3.05 1.541-5.887 3.445-8.513 1.966-2.704 4.498-4.842 7.597-6.414 3.319-1.698 6.984-2.563 10.995-2.594 5.93-.063 9.603 2.468 11.018 7.593.52 1.855.677 3.876.472 6.06-.173 1.84-.527 3.294-1.061 4.364a82.233 82.233 0 01-13.496 8.49c-9.454 4.7-15.313 4.676-17.578-.072-1.321-2.798-1.785-5.77-1.392-8.914z" fill="#3396CD"/><path d="M23.877 69.85l3.587-.283c5.93-.063 9.603 2.468 11.018 7.593.52 1.855.677 3.876.472 6.06-.173 1.84-.527 3.294-1.062 4.364-1.887 1.367-4.137 2.625-6.748 3.773-5.253 2.28-9.728 2.853-13.425 1.721 4.342-4.307 7.228-8.702 8.66-13.182 1.557-4.89.723-8.238-2.502-10.046z" fill="#2880AE"/><path d="M16.398 85.72c5.002-2.515 9.43-3.38 13.284-2.594 4.53.928 7.605 3.263 9.225 7.004a10.89 10.89 0 01.92 4.811c-.063 1.604-.464 3.003-1.203 4.198l-27.18 12.098c-3.76-1.572-5.891-4.253-6.395-8.042-.424-3.113.228-6.296 1.959-9.55 1.573-2.925 4.703-5.566 9.39-7.924z" fill="#3396CD"/><path d="M26.662 82.89l3.02.236c4.53.928 7.605 3.263 9.225 7.004a10.89 10.89 0 01.92 4.811c-.063 1.604-.464 3.003-1.203 4.198l-12.694 4.528c.346-.299.881-1.069 1.605-2.311a22.43 22.43 0 002.218-5.118c1.51-5.314.48-9.763-3.091-13.347z" fill="#2880AE"/><path d="M14.464 127.627l-2.832-6.651 10.358 3.608-1.038 3.349c-.897 2.296-1.84 3.593-2.831 3.891-.991.299-2.21-1.1-3.657-4.197z" fill="white"/><path d="M18.545 123.382l3.445 1.202-1.038 3.349c-.897 2.295-1.84 3.592-2.832 3.891-.031.016.087-.912.354-2.783.315-2.295.338-4.181.07-5.659z" fill="#DBDCDC"/><path d="M44.428 121.047c-.016 1.509-.15 2.861-.401 4.056-.236 1.164-.495 1.793-.779 1.887-.487.157-1.974-.566-4.459-2.17-2.344-1.509-3.641-2.452-3.893-2.83l7.008-9.598c1.683 1.761 2.524 4.646 2.524 8.655z" fill="white"/><path d="M38.223 117.439l3.68-5.047c1.448 1.525 2.345 3.687 2.69 6.486.347 2.939-.03 5.754-1.132 8.442-.189-1.745-.818-3.585-1.887-5.518-.976-1.777-2.093-3.231-3.35-4.363z" fill="#DBDCDC"/><path d="M34.188 122.061c.22 1.163-.078 3.365-.896 6.603-.897 3.459-1.794 5.11-2.69 4.952-1.133-.204-2.485-1.163-4.058-2.877-1.794-1.933-3.201-4.174-4.224-6.721l11.868-1.957z" fill="white"/><path d="M34.188 122.061c.22 1.163-.079 3.365-.897 6.603-.896 3.459-1.793 5.11-2.69 4.952l-.283-2.759c-.236-2.499-.849-5.117-1.84-7.853l5.71-.943z" fill="#DBDCDC"/><path d="M39.686 100.719c1.651 1.384 2.705 2.861 3.161 4.434.976 3.301.229 7.074-2.24 11.319-2.628 4.512-6.065 7.287-10.312 8.325-4.766 1.163-9.35.974-13.755-.566-4.719-1.667-7.338-4.363-7.857-8.089-.535-3.789-.008-7.169 1.58-10.141 1.48-2.767 3.784-5.023 6.914-6.768 5.3-2.955 10.782-3.545 16.445-1.768 2.36.754 4.38 1.84 6.064 3.254z" fill="#3396CD"/><path d="M42.847 105.153c.975 3.301.228 7.074-2.241 11.319-2.627 4.512-6.064 7.287-10.31 8.325l-1.063.236c3.681-3.522 5.742-8.081 6.182-13.678.456-5.739-.99-10.573-4.341-14.504 2.941.52 5.52 1.58 7.739 3.184 2.139 1.557 3.484 3.262 4.034 5.118z" fill="#2880AE"/><path d="M132.529 88.055c4.074 2.201 6.811 5.911 8.211 11.131 1.18 4.402 1.156 8.081-.071 11.037-.991 2.421-2.973 4.685-5.946 6.791-2.217 1.573-7.038-1.084-14.463-7.97-2.328-2.154-4.766-4.599-7.314-7.335l-3.162-3.466c-.393-2.343.307-4.709 2.1-7.099 1.919-2.578 4.436-4.15 7.55-4.716 5.018-.912 9.383-.37 13.095 1.627z" fill="#3396CD"/><path d="M131.609 87.937a23.883 23.883 0 015.474 4.599c1.825 2.107 3.044 4.323 3.657 6.65 1.18 4.402 1.156 8.081-.071 11.037-.991 2.421-2.973 4.685-5.945 6.791-1.086.771-2.989-1.194-5.71-5.895l-3.752-7.264 1.652-.589c1.29-.566 2.391-1.329 3.303-2.288 2.91-3.05 3.374-7.397 1.392-13.04z" fill="#2880AE"/><path d="M126.702 99.964c3.287 2.94 5.544 6.501 6.771 10.683 1.18 3.978 1.203 7.264.071 9.858-1.306 3.018-4.106 4.983-8.4 5.895-3.806.834-8.234-1.776-13.283-7.829-1.573-1.887-3.115-4.009-4.625-6.367l-1.793-2.948c-.661-2.154-.393-4.567.802-7.24 1.542-3.443 4.302-5.479 8.282-6.108 4.325-.692 8.384.66 12.175 4.056z" fill="#3396CD"/><path d="M120.308 116.448c1.982-.613 3.735-1.76 5.261-3.443 3.052-3.364 3.437-7.711 1.156-13.04 1.589 1.43 2.989 3.12 4.2 5.07 1.133 1.839 1.982 3.71 2.548 5.612 1.18 3.978 1.204 7.264.071 9.858-1.306 3.018-4.105 4.983-8.4 5.895-1.179.252-2.335-1.328-3.468-4.74l-1.368-5.212z" fill="#2880AE"/><path d="M101.809 125.74l-2.17.566c-1.59.346-2.722.44-3.398.283-.755-.157-.41-1.777 1.038-4.858 1.4-2.971 2.572-4.874 3.516-5.707l1.014 9.716z" fill="white"/><path d="M96.241 126.589l1.888-1.368c1.541-1.132 2.634-2.232 3.279-3.301l.401 3.82-2.17.566c-1.589.346-2.721.44-3.398.283zM111.153 137.531l-5.002.613c-.582 0-.598-.833-.047-2.499.503-1.588 1.022-2.657 1.557-3.208l11.066 2.854c-2.03.943-4.554 1.69-7.574 2.24z" fill="#DBDCDC"/><path d="M101.951 125.528l6.418 7.593a27.148 27.148 0 01-6.04 1.274c-2.108.204-3.303.086-3.587-.354-.613-.896-.267-2.586 1.038-5.07l2.171-3.443z" fill="white"/><path d="M98.813 134.112a24.019 24.019 0 006.842-4.198l2.714 3.207a28.248 28.248 0 01-5.875 1.25c-2.045.204-3.272.118-3.681-.259z" fill="#DBDCDC"/><path d="M124.365 118.288c1.621 3.474 2.258 6.642 1.912 9.504-.378 3.05-1.841 5.235-4.389 6.556-2.973 1.54-5.497 2.201-7.574 1.98-2.674-.283-5.694-1.949-9.06-4.999-3.586-3.239-5.3-7.295-5.144-12.169.063-1.902.409-3.671 1.039-5.306.597-1.509 1.297-2.578 2.1-3.207 3.381-2.657 7.188-3.231 11.419-1.721 4.263 1.509 7.495 4.63 9.697 9.362z" fill="#3396CD"/><path d="M124.366 118.288c1.62 3.474 2.257 6.642 1.911 9.504-.378 3.05-1.841 5.235-4.389 6.556-2.973 1.54-5.497 2.201-7.574 1.98-2.674-.283-5.694-1.949-9.06-4.999l-.778-.755c2.296 1.29 4.64 1.856 7.031 1.698 2.249-.157 4.325-.927 6.229-2.311 1.871-1.352 3.35-3.121 4.435-5.306 1.133-2.264 1.699-4.708 1.699-7.334l.496.967z" fill="#2880AE"/><path d="M92.088 79.542c-5.143 2.107-11.136 2.822-17.978 2.146a36.525 36.525 0 01-11.278-2.995c-4.389-1.95-7.787-4.512-10.193-7.688-1.699-2.217-2.25-4.803-1.652-7.758.598-3.066 2.187-4.937 4.766-5.613 2.218-.582 10.256-.267 24.114.943l20.149 1.981c2.879 9.339.236 15.667-7.928 18.984z" fill="#F0E9A5"/><path d="M95.44 61.383c1.745-.503 3.271-.778 4.577-.825 2.878 9.339.235 15.667-7.928 18.984-5.144 2.107-11.137 2.822-17.979 2.146a37.332 37.332 0 01-9.792-2.382l5.545.826c2.14.172 4.231.031 6.276-.425 4.609-1.022 8.03-2.712 10.264-5.07 2.5-2.641 2.681-5.4.542-8.278 2.187-2.31 5.018-3.97 8.494-4.975z" fill="#C9C48B"/><path d="M79.725 37.424c1.196-1.43 3.736-1.51 7.621-.236 3.115 1.022 5.34 2.083 6.677 3.184 2.281-.236 4.389-.19 6.324.141 1.698.283 2.831.7 3.397 1.25.504.487.409 1.942-.283 4.363-.676 2.358-1.581 4.504-2.713 6.438.818 2.012 1.258 4.323 1.321 6.933.063 2.736-.346 4.56-1.227 5.471l-2.383-1.627c-1.1-.566-2.241-.81-3.421-.731.692 1.918.511 3.254-.543 4.009-.723.519-1.966.778-3.728.778-.928 0-2.98-.542-6.158-1.627-3.523-1.21-6.032-1.926-7.526-2.146l-7.692-.354-7.88.189c-4.405.015-5.577-1.785-3.516-5.4-2.25-.22-3.98.267-5.19 1.462-.74.723-1.165 1.47-1.275 2.24-.566-1.981-.653-4.269-.26-6.863.41-2.782 1.259-4.89 2.549-6.32a31.176 31.176 0 01-1.369-5.4c-.613-3.852-.22-6.391 1.18-7.617.44-.393 1.683-.401 3.728-.024 2.14.409 4.042 1.053 5.71 1.934 2.752-1.336 6.024-2.052 9.815-2.146 3.917-.079 6.197.62 6.842 2.099z" fill="#3396CD"/><path d="M54.196 41.834c-.692-3.9-.88-5.99-.566-6.273.44-.393 1.683-.401 3.728-.024 2.139.409 4.042 1.053 5.71 1.934.456-.22 1.746-.59 3.87-1.108-4.012 1.792-7.614 5.093-10.807 9.904-.614.912-1.258-.566-1.935-4.433zM75.053 35.466c1.605-.031 2.722.095 3.35.378.535.251.976.778 1.322 1.58 1.195-1.43 3.736-1.51 7.62-.236 3.115 1.022 5.341 2.083 6.678 3.184 2.28-.236 4.389-.19 6.323.141 1.699.283 2.832.7 3.398 1.25.503.487.409 1.942-.283 4.363-.677 2.358-1.581 4.504-2.714 6.438.818 2.012 1.259 4.323 1.322 6.933.063 2.736-.346 4.56-1.227 5.471l-2.383-1.627c-1.101-.566-2.242-.81-3.421-.731.692 1.918.51 3.254-.543 4.009-.724.519-1.966.778-3.728.778-.912 0-2.847-.55-5.804-1.65-3.256-1.211-5.64-1.934-7.15-2.17.331-1.148.418-2.264.26-3.349l-.354-1.297.685-.07 1.109.164c.849.44 1.565-.22 2.147-1.98.566-1.714.574-2.87.023-3.467-.66-.723-1.8-1.258-3.42-1.604-1.983-.424-3.745-.22-5.286.613-.802.44-1.227.535-1.274.283-.032-.173.173-.644.613-1.415 1.353-2.342 2.069-3.875 2.147-4.598.913.676 2.037 1.1 3.374 1.273 1.542.205 2.792-.055 3.752-.778-.236 1.305-.189 2.012.141 2.122.252.095.834-.196 1.746-.872 3.005-2.185 5.443-3.427 7.315-3.726 1.07-.173 1.274-.81.613-1.91-.63-1.054-1.722-2.044-3.28-2.972-1.714-1.037-3.318-1.556-4.813-1.556-1.809 0-3.146.794-4.01 2.382-.11-1.305-.457-2.374-1.039-3.208-.692-.959-1.762-1.674-3.209-2.146z" fill="#2880AE"/><path d="M60.708 47.328c.425-.691.842-1.25 1.25-1.674 1.715.645 3.58 1.792 5.593 3.443l2.5 2.288-.613.849-5.096-.566c-2.785-.268-4.491-.291-5.12-.071.125-1.43.621-2.854 1.486-4.269zM95.816 54.096l-6.205.071-5.073.189-.306-.778-.166-.283 2.95-2.311c2.312-1.588 4.372-2.492 6.181-2.712l1.11 1.816c.77 1.462 1.273 2.798 1.51 4.008z" fill="white"/><path d="M129.368 28.769c2.563-1.84 5.434-2.539 8.611-2.099 3.194.456 5.773 1.902 7.739 4.34 1.967 2.436 2.745 5.164 2.336 8.182-.409 3.019-1.887 5.44-4.436 7.264-2.563 1.84-5.442 2.539-8.635 2.099-3.177-.44-5.749-1.88-7.715-4.316-1.967-2.453-2.745-5.188-2.336-8.207.409-3.018 1.887-5.44 4.436-7.263zM38.129 12.285c2.202 2.515 3.146 5.385 2.83 8.607-.298 3.24-1.753 5.888-4.364 7.948-2.627 2.075-5.647 2.955-9.06 2.641-3.413-.314-6.221-1.73-8.423-4.245s-3.154-5.392-2.855-8.631c.299-3.239 1.761-5.888 4.388-7.947 2.627-2.06 5.647-2.932 9.06-2.618 3.414.315 6.221 1.73 8.424 4.245zM69.367 50.866a3.334 3.334 0 01-.99 1.32l-2.219-.448-2.218-.306a3.623 3.623 0 01-.424-1.722c0-.393.126-.849.377-1.368.22-.456.48-.84.779-1.155.692.141 1.502.637 2.43 1.486l2.265 2.193zM91.735 52.116c0 .817-.299 1.54-.897 2.17l-4.671-.048c-.378-.283-.622-.582-.732-.896-.11-.267-.165-.676-.165-1.226l1.793-1.227c1.322-.786 2.352-1.273 3.091-1.462a3.26 3.26 0 011.156 1.109c.283.487.425 1.014.425 1.58zM17.72 54.545l.707.896a88.126 88.126 0 00-4.671 5.707c-1.636 2.185-2.604 3.71-2.902 4.575l-.803-.283c.378-1.132 1.322-2.807 2.832-5.023 1.683-2.484 3.295-4.442 4.836-5.872zM104.664 37.66c-.487.456-.802.786-.944.99-7.188-3.93-14.447-6.39-21.777-7.381-7.267-.99-13.976-.464-20.126 1.58l.07-.967c6.308-2.421 13.324-3.074 21.047-1.958 7.377 1.085 14.62 3.664 21.73 7.736zM135.785 72.373c.913 2.421 1.817 6.092 2.714 11.013l-1.44-1.533c-.534-2.751-1.337-5.573-2.406-8.466l1.132-1.014z" fill="#0D131A"/><path d="M17.72 36.362l.778 1.345c-4.074 2.657-6.009 4.551-5.804 5.683.22 1.258 1.8 4.363 4.742 9.315 2.8 4.7 4.538 7.366 5.214 7.995l-1.297.165c-.74-.692-2.51-3.325-5.309-7.9-2.989-4.89-4.6-8.003-4.837-9.34-.283-1.65 1.888-4.071 6.512-7.263zM47.92 24.147v-1.368c4.373-.865 7.353-1.313 8.942-1.344 1.667-.031 3.295 2.633 4.884 7.994a69.743 69.743 0 011.911 8.16l-.873.094c-.157-1.588-.904-4.284-2.241-8.089-1.62-4.575-3.012-6.854-4.176-6.838-2.06.031-4.877.495-8.447 1.39z" fill="#0D131A"/><path d="M18.498 43.791c.063-.55 1.25-1.517 3.563-2.9l.519.707c-1.998 1.179-3.075 1.957-3.233 2.334v.071c0 .96 1.259 3.443 3.775 7.452 2.423 3.852 4.397 6.62 5.923 8.301l-.637.59c-1.448-1.572-3.422-4.331-5.923-8.277-2.8-4.434-4.129-7.193-3.987-8.278zM54.55 30.396c-.85-1.415-1.494-2.099-1.935-2.051-.802.062-2.194.432-4.176 1.108v-.825c1.982-.708 3.35-1.093 4.105-1.156.897-.094 1.927.912 3.091 3.019a27.817 27.817 0 012.124 5.023l-1.062-.448c-.582-1.73-1.298-3.286-2.147-4.67zM116.603 37.377l-.236.59-.378.518c-3.822-2.17-6.48-3.435-7.974-3.797-.614-.141-1.526.621-2.737 2.288a28.217 28.217 0 00-2.525 4.268l-.826-.236 2.407-4.881c1.227-2.091 2.312-3.019 3.256-2.783.613.157 1.754.597 3.421 1.32 1.777.802 3.641 1.706 5.592 2.713zM139.395 55.653c1.794 2.107 3.146 3.938 4.059 5.495 1.038 1.792 1.4 3.065 1.085 3.82-.409.96-2.344 2.909-5.804 5.849-1.888 1.603-4.562 3.765-8.022 6.485l-.779-.543c2.375-1.918 4.923-4.127 7.645-6.626 3.35-3.113 5.222-5.118 5.615-6.014.252-.566-.071-1.564-.967-2.995-.865-1.368-2.179-3.01-3.941-4.929l1.109-.542z" fill="#0D131A"/><path d="M137.507 62.893c-.078.849-1.407 2.617-3.987 5.306a94.734 94.734 0 01-6.819 6.438l-.896-.377c2.17-1.808 4.451-3.947 6.842-6.415 2.564-2.672 3.893-4.347 3.987-5.023-.11-.472-1.281-1.69-3.515-3.655l.873-.425c2.391 2.186 3.563 3.57 3.515 4.15zM114.055 43.036l-.26.85c-2.438-1.762-3.901-2.72-4.388-2.878l-.472.071c-.944.456-2.187 2.272-3.728 5.448-1.148 2.374-2.218 4.968-3.209 7.782l-.826-.283a87.972 87.972 0 012.879-7.122c1.777-3.82 3.279-6.03 4.506-6.627l1.156-.094c.425.157 1.872 1.108 4.342 2.853zM103.06 55.77c.519-1.493 1.298-2.719 2.336-3.678 1.416-1.305 3.209-2.02 5.379-2.146l-.424.92c-1.951.204-3.524.935-4.719 2.193-.881.943-1.534 2.138-1.958 3.585l-.614-.873zM128.448 63.907c.141 1.51-.008 2.948-.449 4.315-.708 2.201-2.107 3.844-4.2 4.93l-.613-.661c1.935-.944 3.248-2.382 3.94-4.316.456-1.289.614-2.688.472-4.197l-.189-.826.755-.471c.158.44.252.849.284 1.226zM106.646 59.874l-.849-.967c-.283-1.493.149-2.814 1.298-3.961.959-.96 2.084-1.55 3.374-1.77v.944c-1.495.55-2.564 1.502-3.209 2.854a6.138 6.138 0 00-.614 2.9zM124.908 64.308c.126 2.028-.315 3.56-1.321 4.598-.472.52-1.149.928-2.029 1.227l-2.478.542-.755-.825a6.65 6.65 0 002.454-.566c.802-.33 1.471-.779 2.006-1.345.912-1.006 1.329-2.17 1.25-3.49l.873-.141z" fill="#0D131A"/><path d="M152.75 32c.833 2.185 1.203 4.292 1.109 6.32-.126 2.468-.677 4.724-1.652 6.768-1.054 2.233-2.588 4.127-4.601 5.683-2.265 1.761-5.922 4.214-10.971 7.358l-9.485 5.66c-1.746.975-3.681 1.423-5.804 1.344-2.265-.078-4.475-.739-6.63-1.98-2.029-1.18-3.461-3.09-4.295-5.731-.739-2.374-.802-4.473-.188-6.297.66-1.965 2.28-5.927 4.86-11.885 2.737-6.336 4.483-10.039 5.238-11.108 1.431-2.216 3.311-4 5.639-5.353 2.297-1.352 4.845-2.162 7.645-2.429 2.516-.252 5.112.063 7.786.943 2.627.865 4.821 2.115 6.583 3.75 2.155 1.98 3.743 4.3 4.766 6.957zm-1.912 12.758a16.174 16.174 0 001.676-6.415 14.759 14.759 0 00-.85-5.848c-.896-2.484-2.422-4.74-4.577-6.768-1.62-1.525-3.696-2.657-6.229-3.396-2.501-.723-4.978-.935-7.432-.637-2.784.346-5.199 1.219-7.244 2.618-1.683 1.148-3.271 2.775-4.766 4.881-.786 1.101-2.579 4.67-5.379 10.707-2.737 5.927-4.396 9.763-4.978 11.508-.551 1.667-.512 3.53.117 5.59.74 2.357 2.077 4.063 4.012 5.117 2.123 1.147 4.191 1.8 6.205 1.957 2.013.157 3.791-.197 5.332-1.061 1.793-.99 4.908-2.932 9.343-5.825 4.829-3.176 8.455-5.684 10.877-7.523 1.589-1.21 2.887-2.846 3.893-4.905z" fill="#0D131A"/><path d="M129.32 29.217a10.148 10.148 0 00-2.713 3.019 9.896 9.896 0 00-1.298 3.773 10.05 10.05 0 00.236 3.985c.362 1.305.96 2.516 1.794 3.632a11.325 11.325 0 003.35 2.948 11.44 11.44 0 004.318 1.462l4.53-.236a11.364 11.364 0 004.011-1.957 10.531 10.531 0 002.713-3.019 10.196 10.196 0 001.321-3.773c.394-2.893-.361-5.518-2.265-7.877-1.887-2.342-4.365-3.726-7.432-4.15a11.817 11.817 0 00-4.53.26 10.789 10.789 0 00-4.035 1.933zm-3.444 2.57a11.354 11.354 0 012.925-3.277 12.343 12.343 0 014.318-2.076 12.734 12.734 0 014.884-.283c3.303.456 5.977 1.958 8.022 4.505 2.045 2.547 2.847 5.384 2.407 8.513a11.178 11.178 0 01-1.416 4.103 11.532 11.532 0 01-2.925 3.255 12.104 12.104 0 01-4.342 2.098 12.323 12.323 0 01-4.86.26 12.397 12.397 0 01-4.625-1.557 12.075 12.075 0 01-3.61-3.183 11.357 11.357 0 01-1.934-3.939 10.507 10.507 0 01-.284-4.315 10.95 10.95 0 011.44-4.103zM32.348 59.874c-2.957-1.776-4.373-4.276-4.247-7.499.031-1.006.22-2.036.566-3.09l.52-1.39.683.943c-.471 2.122-.55 3.946-.235 5.47.456 2.17 1.714 3.923 3.775 5.26l-1.062.306zM52.52 37.023v.92a24.345 24.345 0 00-2.948-.731l-.048-.897 2.997.708zM50.586 43.65c-.299-.676-.747-1.329-1.345-1.958l.165-1.014a7.107 7.107 0 011.982 2.618c.535 1.242.708 2.578.52 4.009-.661.77-1.141 1.195-1.44 1.273.55-2.2.59-3.844.118-4.928zM32.537 52.21a9.729 9.729 0 01-.873-2.146l.495.07.472.119c.11.346.29.754.543 1.226a9.475 9.475 0 002.571 2.806c1.086.77 2.163 1.227 3.233 1.368.975.126 1.958.118 2.95-.024l-1.086.826c-.598.377-1.038.542-1.322.495-3.067-.409-5.395-1.989-6.983-4.74z" fill="#0D131A"/><path d="M41.762 6.649c2.36 2.295 3.948 4.622 4.766 6.98.598 1.777 1.345 5.943 2.241 12.499.913 6.76 1.322 11.437 1.227 14.031-.079 2.327-.708 4.442-1.887 6.344-1.353 2.201-3.194 3.624-5.522 4.268-2.674.74-5.159.92-7.455.543-2.25-.377-4.114-1.242-5.592-2.594-2.328-2.107-4.963-4.622-7.904-7.547-3.901-3.883-6.78-6.98-8.636-9.291-1.698-2.091-2.839-4.34-3.42-6.745-.614-2.53-.638-5.36-.072-8.49a20.044 20.044 0 012.407-6.579c1.573-2.704 3.696-4.842 6.37-6.414 2.281-1.32 4.884-2.138 7.81-2.453 2.847-.314 5.529-.094 8.046.66 2.627.787 5.167 2.382 7.62 4.788zm3.798 7.83c-.802-2.548-2.43-4.914-4.884-7.1-2.312-2.074-4.813-3.52-7.503-4.338-2.39-.724-4.79-.928-7.196-.614-2.407.3-4.727 1.101-6.96 2.406-2.564 1.493-4.57 3.42-6.017 5.777-1.1 1.793-1.84 3.766-2.218 5.92-.519 2.877-.409 5.777.33 8.702.661 2.562 1.644 4.637 2.95 6.225 1.935 2.343 4.743 5.4 8.423 9.174 3.115 3.176 5.655 5.66 7.621 7.452 1.353 1.226 3.075 1.98 5.167 2.264 2.092.283 4.42.07 6.984-.637 2.14-.581 3.838-1.855 5.096-3.82 1.117-1.73 1.707-3.655 1.77-5.778l.024-.613c0-3.129-.41-7.491-1.227-13.088-.787-5.487-1.573-9.465-2.36-11.933z" fill="#0D131A"/><path d="M38.388 11.908c2.28 2.61 3.264 5.589 2.95 8.937a11.499 11.499 0 01-1.322 4.434 11.897 11.897 0 01-2.973 3.608 12.975 12.975 0 01-4.46 2.429 13.122 13.122 0 01-5.143.495c-3.523-.33-6.425-1.792-8.706-4.386-2.281-2.61-3.272-5.59-2.973-8.938.157-1.572.605-3.05 1.345-4.433a11.864 11.864 0 012.95-3.632 12.905 12.905 0 014.482-2.406 13.801 13.801 0 015.144-.495c3.523.315 6.425 1.777 8.706 4.387zm2.076 8.867c.299-3.113-.613-5.88-2.737-8.301-2.123-2.422-4.829-3.781-8.116-4.08a12.635 12.635 0 00-4.814.448 11.874 11.874 0 00-4.176 2.264 11.476 11.476 0 00-2.76 3.348 10.9 10.9 0 00-1.227 4.104c-.283 3.113.637 5.88 2.76 8.3 2.124 2.422 4.83 3.782 8.117 4.08 1.652.158 3.248 0 4.79-.471a12.323 12.323 0 004.2-2.24 11.152 11.152 0 002.736-3.35 10.517 10.517 0 001.227-4.102zM81.424 167.976l-.024.684c-1.934 1.258-3.193 2.343-3.775 3.254l-.188.448c.173.205.786.464 1.84.779 1.07.314 2.289.597 3.657.849l.755 1.297c-4.64-.739-7.18-1.392-7.62-1.958-.221-.251-.252-.581-.095-.99.189-.535.88-1.344 2.076-2.429 1.164-1.053 2.305-1.926 3.421-2.618l-.047.684zM52.757 46.102l.448 1.132c-2.06 1.54-4.113 3.31-6.158 5.306-3.162 3.097-6.355 5.204-9.58 6.32-2.044.723-4.993 1.227-8.847 1.51l-2.926.235c-5.395.52-10.287 2.421-14.675 5.707-3.917 2.909-6.544 6.132-7.88 9.67-.929 2.467-1.118 5.227-.567 8.276.472 2.61 1.44 5.212 2.902 7.806.126.802.346 1.777.66 2.925-2.202-3.035-3.696-5.928-4.482-8.679-1.101-3.789-.983-7.507.354-11.154 1.541-4.23 4.365-7.72 8.47-10.47 4.215-2.83 9.257-4.529 15.124-5.095l2.95-.236c3.727-.283 6.495-.746 8.304-1.39 2.942-1.039 5.938-3.043 8.99-6.014 2.296-2.249 4.6-4.198 6.913-5.849zM110.516 64.614c-2.375-2.248-5.277-5.369-8.706-9.362l-.307-.377-.519-2.146 1.604 1.863c3.382 3.946 6.245 7.027 8.589 9.244 3.444 3.27 6.732 5.683 9.862 7.24 8.809 4.402 14.825 8.38 18.05 11.933 4.781 5.266 5.544 11.107 2.288 17.521l-.637-1.179c2.234-5.518 1.149-10.761-3.256-15.73-3.397-3.82-9.036-7.703-16.917-11.649-3.193-1.588-6.543-4.04-10.051-7.358z" fill="#0D131A"/><path d="M86.497 176.654l.99.59c.064.519.213 1.045.449 1.58a23.965 23.965 0 01-2.501-1.391c-2.186-1.4-3.586-3.443-4.2-6.132-.503-2.232-.417-3.891.26-4.976l.967-.377c-.55.88-.558 2.437-.023 4.669.644 2.704 1.997 4.717 4.058 6.037zM105.325 181.442l-4.105.212.613-1.226 2.572-.165.92 1.179zM123.068 166.844c.629 1.431.496 3.011-.401 4.74-.802 1.509-2.115 3.003-3.94 4.481l-1.227-.59c1.652-1.352 2.886-2.759 3.704-4.221.881-1.572 1.133-2.963.755-4.174l1.109-.236zM6.111 107.157l.897 1.014c-.394 3.49-.449 7.208-.166 11.155.488 6.288 1.849 11.602 4.082 15.941l-.967 1.014c-2.816-4.59-4.38-10.203-4.695-16.838a51.52 51.52 0 01.849-12.286z" fill="#0D131A"/><path d="M124.838 131.801c2.17 2.594 3.806 5.188 4.907 7.782 1.872 4.402 2.446 9.056 1.723 13.961-.755 5.141-2.265 8.937-4.53 11.39-1.117 1.211-2.903 2.335-5.356 3.372l-.213.095c-4.121 1.76-8.273 2.641-12.458 2.641-7.204-.032-13.66-2.712-19.37-8.042l1.344-.707c5.112 4.433 11.105 6.792 17.979 7.074 4.688.189 8.722-.448 12.104-1.91l.212-.094c2.045-.865 3.618-1.973 4.719-3.325 1.935-2.374 3.264-6.037 3.988-10.99 1.132-7.687-.771-14.503-5.71-20.446l.661-.801zM88.903 183.328c-1.667-2.767-2.343-4.74-2.029-5.919.205-.755 1.015-1.486 2.43-2.193 1.636-.818 3.382-1.132 5.238-.943 2.674.267 4.782 1.289 6.324 3.065 1.289 1.478 1.753 2.712 1.392 3.703-.441 1.163-1.864 2.547-4.27 4.15-2.219 1.462-3.752 2.225-4.602 2.288-1.274.094-2.768-1.289-4.483-4.151zm-.566-5.99c-.362.283-.094 1.313.802 3.09.85 1.729 1.778 3.168 2.784 4.315.787.896 1.314 1.344 1.581 1.344.63-.031 1.943-.707 3.94-2.028 2.187-1.462 3.469-2.696 3.846-3.702.221-.598-.259-1.399-1.439-2.406-1.321-1.132-2.957-1.91-4.907-2.334-2.281-.488-4.484.086-6.607 1.721zM103.579 179.791c.047-.786.582-1.604 1.605-2.453 1.022-.833 2.288-1.517 3.798-2.051 3.697-1.305 6.866-1.219 9.509.259 1.29.708 2.619 2.586 3.987 5.636 1.353 2.972 1.959 5.267 1.817 6.886-.079.959-.44 1.51-1.085 1.651-1.495.299-4.177-.291-8.046-1.769-3.838-1.462-6.913-3.05-9.225-4.763-1.636-1.227-2.423-2.358-2.36-3.396zm5.026-3.467c-1.18.472-2.155 1.061-2.926 1.769-.723.645-1.085 1.226-1.085 1.745 0 1.336 2.493 3.144 7.479 5.424 4.986 2.28 8.47 3.223 10.452 2.83.205-.032.331-.322.378-.873.126-1.525-.393-3.608-1.557-6.249-1.18-2.72-2.313-4.284-3.398-4.693-3.177-1.195-6.292-1.179-9.343.047zM92.253 81.688c-4.514 1.73-9.343 2.633-14.487 2.712-4.703.079-9.602-.912-14.699-2.971-4.137-1.683-7.204-3.467-9.202-5.354l-3.444-3.49c-1.636-1.73-2.855-2.94-3.657-3.631-1.275-1.101-2.305-1.706-3.091-1.816-.645-.095-1.479.243-2.501 1.014-.96.739-1.927 1.863-2.902 3.372-.85 1.32-1.306 2.232-1.369 2.736l-.778-.779c.078-.676.527-1.658 1.344-2.947.897-1.431 1.84-2.532 2.832-3.302a5.21 5.21 0 011.864-.873l1.628-.094c.928.126 2.052.755 3.374 1.887.802.676 2.1 1.957 3.893 3.844l3.397 3.443c1.967 1.84 4.955 3.568 8.966 5.188 4.97 2.012 9.753 2.979 14.345 2.9 5.002-.078 9.706-.959 14.11-2.64 4.404-1.667 7.7-3.821 9.886-6.462a5.19 5.19 0 011.793-1.415 4.452 4.452 0 012.312-.448c1.164.11 2.281.503 3.351 1.179 1.101.692 1.927 1.533 2.477 2.523.692 1.21 1.133 3.254 1.321 6.132a44.74 44.74 0 01-.094 6.815l-.708.872c-.283.299-.401.236-.354-.188l.024-.33c.252-2.076.314-4.237.189-6.486-.142-2.75-.559-4.748-1.251-5.99-.488-.864-1.235-1.619-2.241-2.263-.991-.645-1.982-1.007-2.973-1.085-1.322-.142-2.383.267-3.185 1.226-2.234 2.751-5.624 4.992-10.17 6.721z" fill="#0D131A"/><path d="M52.993 165.924l-.095-.778-.141-.778c8.038 2.751 16.775 3.136 26.213 1.156 5.6-1.164 10.633-2.901 15.1-5.212 3.839-1.981 7.566-5.118 11.184-9.41 1.841-1.635 3.689-4.032 5.545-7.192 1.793-3.082 2.658-5.236 2.595-6.462l.944-.283c.236 1.635-.566 4.056-2.407 7.264-1.761 3.081-3.61 5.447-5.544 7.098-1.793 3.129-4.758 6.013-8.895 8.655-3.996 2.562-8.58 4.598-13.756 6.107-5.316 1.557-10.586 2.351-15.808 2.382-5.6.047-10.578-.801-14.935-2.547zM98.554 79.943l6.347-4.81c1.84-1.101 3.444-1.196 4.813-.284l.189.637c-1.227-.818-2.627-.755-4.2.188l-6.96 5.236c-2.99 2.2-6.984 3.883-11.986 5.046-5.459 1.258-10.523 1.478-15.195.66-5.836-1.021-11.105-3.16-15.808-6.414-2.722-1.87-5.64-4.504-8.754-7.9l-1.227-1.486c-1.164-1.226-2.414-1.87-3.751-1.933-.975-.063-1.943.18-2.902.73l.566-.825c1.117-.44 2.053-.636 2.808-.59 1.195.08 2.328.677 3.397 1.793l1.25 1.533c3.052 3.333 5.962 5.95 8.73 7.853 4.704 3.223 9.942 5.33 15.714 6.32 4.452.77 9.312.582 14.582-.566 5.159-1.132 9.288-2.861 12.387-5.188z" fill="#0D131A"/><path d="M59.6 157.081c3.994.896 8.297 1.454 12.905 1.674 12.694.614 23.13-1.43 31.31-6.131l.377.637-2.217 1.179c-8.243 4.292-18.428 6.037-30.555 5.235-4.436-.283-8.541-.88-12.316-1.792-3.335-.802-5.427-1.572-6.276-2.311l.188-.826c.866.755 3.06 1.533 6.583 2.335z" fill="#0D131A"/><path d="M73.166 158.048c-4.766-.299-9.202-.943-13.307-1.934-3.65-.88-5.93-1.721-6.842-2.523l.471-.566c.74.644 3.044 1.368 6.914 2.169 4.435.912 9.115 1.494 14.038 1.746 13.874.676 24.436-1.541 31.687-6.651l-1.038 1.887c-8.242 4.748-18.883 6.705-31.923 5.872zM42.281 126.872c3.004 2.39 6.803 4.536 11.396 6.438 4.986 2.075 10.271 3.569 15.855 4.481 13.56 2.248 26.033.825 37.421-4.269l-.354.495-.307.519c-11.923 5.314-25.017 6.525-39.284 3.632-5.773-1.164-11.16-2.932-16.162-5.306-4.625-2.185-8.25-4.544-10.877-7.075l1.156.613 1.156.472z" fill="#0D131A"/><path d="M52.002 131.093c-3.87-1.745-6.772-3.419-8.707-5.023l.472-.566c1.825 1.509 4.64 3.082 8.447 4.717 4.514 1.949 9.367 3.49 14.558 4.622 11.986 2.578 22.941 2.35 32.867-.684l1.132.401c-5.898 2.091-12.127 3.136-18.687 3.136-4.781 0-9.854-.574-15.218-1.721a73.885 73.885 0 01-14.864-4.882zM38.553 99.587l.496-.519c2.406 2.201 5.654 4.324 9.744 6.367a64.06 64.06 0 0015.053 5.259c12.82 2.783 26.568 1.093 41.243-5.07v.873c-7.786 3.317-14.959 5.384-21.518 6.202-6.59.833-13.307.511-20.15-.967a60.126 60.126 0 01-15.1-5.518c-3.932-2.06-7.188-4.269-9.768-6.627z" fill="#0D131A"/><path d="M39.45 97.04l.519-.495c1.982 2.044 5.01 4.088 9.084 6.131 4.829 2.437 9.996 4.245 15.501 5.424 14.754 3.192 28.47 1.313 41.148-5.636l-.094 1.014c-7.55 3.962-15.454 6.265-23.712 6.91-6.323.487-12.623-.008-18.9-1.486-5.41-1.273-10.452-3.199-15.123-5.778-3.665-2.028-6.473-4.056-8.423-6.084zM4.105 154.015l1.015.213c-1.196 6.037-1.597 11.335-1.204 15.894.41 4.559 1.613 8.23 3.61 11.013l-.566.967c-2.47-2.798-3.972-6.556-4.506-11.272-.567-4.953-.016-10.558 1.651-16.815zM34.471 187.502l.449-1.084 1.108-.354c.488-.22.85-.354 1.086-.401l.566.637.614.589-3.823.613zM52.285 152.86c.314-.708.519-1.478.613-2.311 1.085 4.197 1.298 9.103.637 14.715-.613 5.298-1.816 9.81-3.61 13.536l-1.18-.99c1.432-3.349 2.494-7.366 3.186-12.051.723-4.905.841-9.205.354-12.899z" fill="#0D131A"/><path d="M37.255 186.889c-.456-.377-.731-.92-.825-1.627-.11-.818.063-1.682.519-2.594.96-1.902 2.454-3.38 4.483-4.434 2.375-1.226 4.962-1.501 7.762-.825.535.126 1.038.755 1.51 1.887.346.849.606 1.768.779 2.759.299 1.792.417 3.364.354 4.716-.063 1.808-.44 2.932-1.133 3.373-1.132.723-3.248.707-6.347-.048-3.067-.754-5.434-1.823-7.102-3.207zm4.86-8.041c-1.682.849-2.956 2.13-3.822 3.844-.487.99-.73 1.87-.73 2.641 0 .456.086.754.259.896 1.51 1.273 3.68 2.185 6.512 2.735 2.705.535 4.538.496 5.497-.117.44-.283.716-1.101.826-2.453.094-1.336.008-2.854-.26-4.551-.188-1.117-.432-2.013-.731-2.689-.252-.55-.48-.849-.684-.896-2.58-.613-4.868-.417-6.866.59zM6.63 182.243c.362-1.98 1.974-3.238 4.837-3.773 2.045-.377 5.096-.408 9.154-.094 3.807.299 7.315 1.234 10.523 2.806 3.367 1.651 4.995 3.357 4.884 5.118-.015.55-.377 1.139-1.085 1.768-1.84 1.651-5.348 3.2-10.523 4.646-5.38 1.494-9.996 2.122-13.85 1.887-.456-.032-.928-.189-1.415-.472-.535-.299-.92-.652-1.157-1.061-.833-1.415-1.368-3.113-1.604-5.094a19.597 19.597 0 01.236-5.731zm5.073-2.782c-2.281.346-3.563 1.281-3.846 2.806a16.797 16.797 0 00-.095 5.471c.284 1.855.818 3.278 1.605 4.269.472.581 1.014.896 1.628.943 3.775.22 8.156-.299 13.142-1.557 4.892-1.242 8.187-2.625 9.886-4.15.519-.456.786-.841.802-1.156.079-1.352-1.368-2.704-4.341-4.056-2.973-1.352-6.3-2.169-9.98-2.452-4.248-.315-7.181-.354-8.801-.118zM20.008 130.079c1.746-.346 3.665-.534 5.757-.566l-.024 1.014c-2.343.047-4.538.354-6.582.92l.85-1.368z" fill="#0D131A"/><path d="M16.492 131.046l.92.99c-4.073 1.541-7.25 4.19-9.532 7.948-1.73 2.814-2.674 5.589-2.83 8.324-.331 5.204.259 9.52 1.769 12.947 1.997 4.512 5.513 7.271 10.546 8.278a84.13 84.13 0 009.438 1.32c4.231.346 7.267.22 9.107-.377 4.562-1.478 8.416-4.363 11.562-8.655 2.941-4.04 4.333-7.939 4.176-11.697-.22-5.046-1.825-9.37-4.813-12.97-3.398-4.103-8.022-6.43-13.874-6.981l.071-1.014c6.402.566 11.435 3.003 15.1 7.311 3.178 3.757 4.884 8.301 5.12 13.631.173 3.961-1.321 8.128-4.483 12.498-3.35 4.654-7.408 7.751-12.174 9.292-1.904.613-5.167.699-9.792.259a97.211 97.211 0 01-10.075-1.485c-4.75-.944-8.266-3.223-10.546-6.839-2.328-3.711-3.296-8.71-2.902-14.999.188-3.066 1.14-6.092 2.854-9.079 2.407-4.182 5.86-7.083 10.358-8.702zM27.464 69.048c2.344-.016 4.404.4 6.181 1.25 1.762.864 3.154 2.106 4.177 3.726 1.368 2.216 2.037 4.795 2.005 7.735-.031 2.594-.527 4.614-1.486 6.06l-.897-.448c.708-1.446 1.062-3.34 1.062-5.683 0-2.783-.606-5.133-1.817-7.051-.896-1.447-2.186-2.531-3.87-3.255-1.635-.707-3.554-1.053-5.756-1.037-4.074.031-7.74.92-10.995 2.665-3.256 1.745-5.852 4.22-7.786 7.428-1.322 2.185-2.132 4.473-2.43 6.863-.3 2.374-.064 4.638.707 6.791a4.465 4.465 0 00-.708 1.014C4.845 92.67 4.42 90.17 4.577 87.607c.158-2.72.952-5.274 2.383-7.664 2.014-3.333 4.876-5.974 8.589-7.924 3.665-1.934 7.636-2.924 11.915-2.971z" fill="#0D131A"/><path d="M6.276 93.432c1.589-2.987 4.711-5.668 9.367-8.042 5.112-2.61 9.823-3.53 14.133-2.759 2.28.409 4.302 1.274 6.064 2.594 1.746 1.305 3.035 2.901 3.87 4.788.675 1.54.935 3.183.778 4.928-.142 1.651-.622 3.145-1.44 4.481l-.873-.542c.708-1.148 1.086-2.5 1.133-4.057a10.374 10.374 0 00-.873-4.504 10.654 10.654 0 00-3.421-4.315c-1.51-1.148-3.319-1.942-5.427-2.382-3.822-.77-8.187.094-13.095 2.594-4.53 2.31-7.542 4.866-9.036 7.664a17.68 17.68 0 00-1.817 5.33c-.362 2.216-.228 4.205.401 5.966a8.96 8.96 0 002.808 3.962c-.205.236-.346.55-.425.943-.896-.692-1.612-1.336-2.147-1.934-.676-.77-1.164-1.58-1.463-2.429-.629-1.76-.81-3.733-.542-5.919.251-2.217.92-4.339 2.005-6.367zM15.289 130.48c-.582-1.053-1.557-3.286-2.926-6.697l-.802-1.934c.33.377.779.692 1.345.943l.26.66c2.249 5.597 3.853 8.246 4.813 7.948.676-.205 1.36-1.022 2.052-2.453.504-1.053.944-2.279 1.322-3.679l1.085.024c-.44 1.604-.944 3.026-1.51 4.268-.897 1.981-1.801 3.105-2.713 3.373-.897.283-1.872-.535-2.926-2.453zM42.234 113.501c.141-.739.275-1.219.4-1.439 1.558 2.06 2.376 4.693 2.455 7.9.047 2.044-.197 4.159-.732 6.344-.267 1.085-.598 1.674-.99 1.769-.913.314-3.776-1.549-8.59-5.589l.968-.614c.975.802 2.265 1.738 3.87 2.807 1.871 1.273 3.02 1.902 3.444 1.886.142-.125.3-.542.472-1.25.205-.848.339-1.855.401-3.018l.048-1.25c0-3.27-.582-5.786-1.746-7.546zM33.763 123.358l1.203-.542c-.063 1.588-.424 3.608-1.085 6.06-.724 2.736-1.463 4.481-2.218 5.236-.362.361-.74.511-1.132.448-1.086-.205-2.415-1.179-3.988-2.924-1.573-1.777-2.91-3.805-4.01-6.085l1.108.26c1.023 1.996 2.257 3.718 3.705 5.164 1.32 1.305 2.43 2.044 3.326 2.217.095.016.22-.055.378-.212.598-.613 1.187-2.044 1.77-4.292.518-2.013.833-3.789.943-5.33z" fill="#0D131A"/><path d="M40.464 100.577c1.479 1.447 2.438 2.925 2.879 4.434.456 1.588.487 3.419.094 5.495-.409 2.091-1.188 4.134-2.336 6.131-1.29 2.233-2.87 4.103-4.742 5.613-1.856 1.509-3.838 2.523-5.946 3.042-3.177.786-6.355.998-9.532.637-3.256-.378-5.977-1.305-8.164-2.783a10.821 10.821 0 01-3.114-3.207c-.834-1.29-1.337-2.594-1.51-3.915-.535-3.757-.055-7.13 1.439-10.117 1.479-3.018 3.885-5.455 7.22-7.31 2.926-1.62 5.97-2.57 9.13-2.854 3.241-.267 6.332.197 9.273 1.391a16.45 16.45 0 015.31 3.443zm-.495 15.801c1.117-1.934 1.895-3.891 2.335-5.872.457-2.044.472-3.781.048-5.212-.393-1.321-1.25-2.594-2.572-3.82-1.321-1.227-2.934-2.225-4.837-2.995a19.692 19.692 0 00-8.824-1.415c-3.052.204-5.946 1.069-8.683 2.594-3.162 1.761-5.45 4.056-6.866 6.886-1.415 2.83-1.88 6.005-1.392 9.527.33 2.374 1.652 4.347 3.964 5.919 2.108 1.431 4.577 2.351 7.409 2.759 2.862.409 5.78.252 8.753-.471 2.092-.519 4.058-1.431 5.899-2.736 1.997-1.43 3.586-3.152 4.766-5.164zM112.545 89.47c2.579-2.31 5.89-3.632 9.933-3.962 4.231-.346 8.038.55 11.42 2.689 3.869 2.437 6.464 6.131 7.786 11.084 1.148 4.26.951 8.12-.59 11.578-1.337 2.972-3.382 5.173-6.135 6.604l-.472-.897c2.265-1.179 3.988-2.963 5.168-5.353 1.62-3.223 1.84-7.027.66-11.414-1.211-4.528-3.5-7.986-6.866-10.376-2.957-2.107-6.315-3.12-10.075-3.042-3.586.063-6.63 1.061-9.131 2.995-2.658 2.06-4.003 4.677-4.034 7.853 0 .22-.307.59-.92 1.108-.567-3.443.519-6.398 3.256-8.867z" fill="#0D131A"/><path d="M134.299 110.435c.645 2.185.904 4.292.778 6.32-.11 1.934-.566 3.608-1.368 5.023a9.533 9.533 0 01-2.831 3.137c-1.306.911-2.808 1.47-4.507 1.674v-1.061c3.067-1.022 5.175-2.571 6.323-4.646 1.448-2.531 1.542-5.896.284-10.093-1.164-3.994-3.312-7.429-6.442-10.306-3.68-3.396-7.652-4.756-11.915-4.08-3.272.52-5.686 2.044-7.243 4.575-.834 1.337-1.361 2.854-1.581 4.552-.189 1.446-.142 2.641.141 3.584l-.967.283c-.362-1.147-.511-2.429-.448-3.844.078-1.949.582-3.671 1.51-5.164.818-1.32 1.997-2.421 3.539-3.302 1.447-.833 3.075-1.391 4.884-1.674 4.562-.723 8.84.684 12.835 4.221 3.445 3.034 5.781 6.635 7.008 10.801zM100.63 114.986l.401 1.297c-1.29 1.164-2.517 3.066-3.68 5.707-1.102 2.516-1.448 3.931-1.039 4.245l2.997-.165 2.406-.66.213.684-2.643.707c-1.825.425-3.099.558-3.822.401-.3-.047-.496-.244-.59-.589-.22-.912.495-2.933 2.147-6.061 1.557-2.956 2.76-4.811 3.61-5.566zM114.409 136.446l1.109.142 1.085.141c-2.8.818-5.23 1.4-7.29 1.745-2.187.346-3.453.331-3.799-.047-.299-.33-.26-1.147.118-2.452.33-1.164.739-2.17 1.227-3.019l.613.378c-.503.88-.896 1.776-1.179 2.688-.315.975-.362 1.564-.142 1.769l2.926-.142a56.928 56.928 0 005.332-1.203z" fill="#0D131A"/><path d="M101.243 125.881l.448.661c-.943 1.399-1.683 2.704-2.218 3.914-.723 1.636-.873 2.767-.448 3.396.205.252 1.101.323 2.69.213a27.873 27.873 0 005.285-.92c.094.22.307.409.637.566-2.045.597-4.011 1.022-5.898 1.273-2.25.283-3.54.173-3.87-.33-.897-1.32.228-4.245 3.374-8.773z" fill="#0D131A"/><path d="M113.394 108.006c2.439.645 4.641 1.824 6.607 3.537 2.045 1.761 3.657 3.939 4.837 6.533 1.793 3.93 2.398 7.491 1.816 10.682-.55 2.988-2.013 5.157-4.388 6.509-3.004 1.714-5.733 2.398-8.187 2.052-2.753-.393-5.836-2.138-9.249-5.235-1.683-1.525-2.989-3.404-3.917-5.637a17.59 17.59 0 01-1.321-6.768v-.636c.063-4.67 1.518-7.971 4.365-9.905 2.548-1.745 5.694-2.123 9.437-1.132zm5.97 4.316c-1.872-1.636-3.94-2.744-6.205-3.326-2.47-.628-4.963-.188-7.48 1.321-3.051 1.824-4.711 4.724-4.978 8.702-.11 1.776.133 3.553.731 5.33.818 2.452 2.242 4.598 4.271 6.438 3.366 3.05 6.347 4.708 8.942 4.975 1.903.205 4.239-.416 7.007-1.863 2.313-1.194 3.673-3.191 4.082-5.989.409-2.799-.196-5.935-1.816-9.41-1.164-2.468-2.682-4.528-4.554-6.178zM80.127 38.084l-.472 2.311c-.173.833-.315 1.219-.425 1.156-.267-.157-.267-1.164 0-3.019.11-.676 0-1.195-.33-1.556-.205-.236-.59-.464-1.156-.684-1.542-.566-4.05-.605-7.527-.118-3.193.456-5.568 1.077-7.125 1.863-.598.299-.952.393-1.062.283-.11-.126.078-.37.566-.731-1.085-.66-2.745-1.195-4.978-1.604l-3.752-.165c-.818.723-1.227 2.146-1.227 4.269 0 1.729.157 3.356.472 4.881.252 1.242.566 2.256.944 3.042.55-.393.857-.526.92-.4.063.125-.063.432-.377.92-.44.69-.952 1.752-1.534 3.183-.77 1.87-1.243 3.435-1.416 4.693-.157 1.053-.228 1.894-.212 2.523l.142 1.934-.213.66c-.11.283-.204.4-.283.354-.126-.299-.26-.818-.401-1.557-.173-.817-.26-1.454-.26-1.91 0-1.745.268-3.537.803-5.377.566-1.965 1.297-3.474 2.194-4.527a45.005 45.005 0 01-1.11-3.16c-.597-1.966-.896-3.695-.896-5.189 0-2.5.52-4.213 1.558-5.14.582-.504 1.958-.559 4.129-.166 2.312.41 4.302 1.148 5.969 2.217 2.234-1.038 4.845-1.73 7.833-2.075 3.052-.362 5.435-.22 7.15.424.66.236 1.25.716 1.769 1.439 1.195-1.352 3.696-1.392 7.503-.118 3.004 1.006 5.27 2.09 6.795 3.254l6.37.189c1.731.299 2.903.739 3.516 1.32.252.252.378.724.378 1.416 0 1.163-.315 2.664-.944 4.504-.598 1.776-1.314 3.388-2.147 4.834 1.195 3.113 1.565 6.25 1.109 9.41-.331 2.216-.755 3.584-1.274 4.103-.205.22-.464.189-.779-.094-.315-.284-.362-.669-.142-1.156.394-.817.692-2.24.897-4.268.252-2.626.094-4.992-.472-7.099-.409.189-.621.15-.637-.118-.016-.251.102-.51.354-.778.283-.33.897-1.721 1.84-4.174 1.007-2.641 1.51-4.378 1.51-5.212 0-.424-.07-.707-.212-.849-.425-.424-1.644-.739-3.657-.943-2.03-.22-3.956-.228-5.78-.023-.551.062-1 0-1.346-.19-.377-.204-.204-.416.52-.636-.19-.204-.913-.566-2.171-1.085a34.434 34.434 0 00-4.27-1.485c-4.028-1.117-6.245-.975-6.654.424z" fill="#0D131A"/><path d="M60.166 39.711L56.272 44.9a51.882 51.882 0 01-.637-2.971c-.377-2.028-.416-3.168-.118-3.42.535-.455 2.085-.055 4.648 1.203z" fill="#0D131A"/><path d="M55.683 38.697c-.079.079-.118.275-.118.59 0 .943.275 2.617.826 5.023l3.397-4.48c-2.312-1.133-3.68-1.51-4.105-1.133zm4.6.802c.347.22.37.417.072.59-.19.125-.787.849-1.794 2.17l-1.887 2.523c-.236.33-.41.455-.52.377l-.117-.212C55.03 41 54.802 38.79 55.353 38.32c.629-.55 2.272-.157 4.93 1.179zM100.748 43.178c0 .519-.425 2.114-1.274 4.787l-3.775-4.787 2.855-.377c1.447-.095 2.178.031 2.194.377z" fill="#0D131A"/><path d="M96.028 42.8c2.627-.424 4.216-.432 4.767-.023l.212.4c0 .394-.173 1.243-.519 2.548-.346 1.289-.606 2.06-.779 2.31-.141.221-.275.307-.4.26l-.378-.354c-1.856-2.625-2.918-4.064-3.186-4.315-.487-.456-.393-.731.283-.825zm4.46.402l-1.793-.166-2.548.307 3.208 4.08c.755-2.406 1.133-3.813 1.133-4.221zM74.416 45.843c.047-.425.126-.558.236-.401.11.157.158.495.142 1.014-.032.817-.22 1.73-.566 2.735-.346 1.07-.708 1.714-1.086 1.934-.361.22-.574.252-.637.094-.063-.141.024-.377.26-.707.22-.33.542-1.085.967-2.264.41-1.179.637-1.98.684-2.405zM81.188 47.47c-.047-.786.008-1.242.165-1.368.158-.126.284.228.378 1.061.189 1.73.511 3.097.967 4.104.268.581.378.959.33 1.132-.062.172-.306.07-.73-.307-.394-.346-.677-1.022-.85-2.028l-.26-2.594zM74.275 51.715c.99-.393 1.864-.566 2.619-.52 1.919.127 3.453.748 4.6 1.864.378.361.528.605.449.731-.063.11-.252.04-.566-.212-.3-.252-.881-.52-1.746-.802-.944-.315-1.801-.503-2.572-.566l-2.194.118c-.66.11-1.22.26-1.675.448l-.708.189c-.095-.032-.04-.142.165-.33.267-.268.81-.574 1.628-.92zM67.173 56.455c-.488-.22-.747-.495-.779-.826-.031-.346.26-.518.873-.518.63 0 1.345.416 2.148 1.25.723.738 1.203 1.438 1.439 2.098.173.52.15.786-.071.802-.189 0-.385-.157-.59-.472-.582-.911-1.589-1.69-3.02-2.334zM77.271 58.153c1.856.251 3.32.912 4.389 1.98.393.394.582.692.566.897-.016.188-.252.118-.708-.212-1.368-1.054-3.004-1.643-4.907-1.77-1.778-.125-3.422.15-4.932.826l-.755.047c-.047-.172.15-.393.59-.66 1.778-1.022 3.697-1.391 5.757-1.108zM82.462 59.78c.44-.645 1.125-1.218 2.053-1.722 1.022-.55 1.88-.746 2.572-.59.189.048.322.26.4.638.064.393-.046.59-.33.59-.503 0-1.14.117-1.91.353-1.023.299-1.778.715-2.266 1.25-.314.346-.526.424-.637.236-.125-.19-.086-.44.118-.755zM69.462 52.092l.283-.613-2.714-2.405c-1.808-1.447-3.476-2.469-5.002-3.066-.44.519-.849 1.108-1.226 1.768-.614 1.101-1 2.225-1.157 3.373l4.86.26 3.28.47 1.676.213zm-9.344-4.599c.173-.314.637-.864 1.392-1.65-.534-.268-.849-.535-.943-.802-.095-.299.353-.275 1.344.07 1.605.567 3.28 1.526 5.026 2.878 1.494 1.163 2.548 2.193 3.162 3.089.33.503.44.762.33.778l-.283-.118-.26.448.213.236c.015.157-.276.212-.873.165l-4.695-.448-5.215-.26c-.897.064-1.353 0-1.368-.188-.032-.189.338-.37 1.109-.542.141-1.51.495-2.728 1.061-3.656zM93.174 47.989c1.148-.189 1.722-.15 1.722.118-.015.251-.393.432-1.132.542.503.33.975.943 1.415 1.84.551 1.069.803 2.138.755 3.207.567.094.858.236.874.424.015.173-.307.26-.968.26l-5.71.07-5.52.189c-.457.063-.646.008-.567-.165l.26-.26c-.158-.204-.26-.4-.307-.59l-.425.024c-.094-.078 0-.267.283-.566.85-.88 2.116-1.823 3.799-2.83 2.076-1.241 3.916-1.996 5.52-2.263zm2.17 5.73c-.11-.864-.416-1.808-.92-2.83-.424-.88-.873-1.572-1.345-2.075-1.588.236-3.39.967-5.403 2.193-1.29.786-2.375 1.572-3.256 2.358l.307.684 5.757-.259 4.86-.07z" fill="#0D131A"/><path d="M64.578 47.022l.424.33c-.818.566-1.227 1.352-1.227 2.358 0 .755.244 1.392.732 1.91l-.755-.118a3.501 3.501 0 01-.496-1.792c0-1.116.44-2.012 1.322-2.688zM69.155 50.654l.401.424c-.204.456-.48.833-.826 1.132l-.613-.165a2.63 2.63 0 001.038-1.392zM85.53 52.116c0 .927.377 1.674 1.132 2.24l-.708.047c-.566-.582-.873-1.297-.92-2.146l.543-.519-.047.378zM91.994 52.116c0 .801-.267 1.517-.802 2.146h-.731c.566-.472.849-1.195.849-2.17 0-1.195-.48-2.036-1.44-2.523l.614-.236c.456.314.818.707 1.085 1.179a3.22 3.22 0 01.425 1.604zM88.55 51.974c0 .456-.071.833-.213 1.132-.142.314-.322.472-.543.472-.204 0-.377-.158-.519-.472-.141-.314-.212-.692-.212-1.132 0-.44.07-.81.212-1.108.142-.315.315-.472.52-.472.204 0 .385.157.542.472.142.298.212.668.212 1.108zM68.164 50.135c0 .393-.079.739-.236 1.037-.141.283-.322.425-.543.425-.204 0-.385-.142-.542-.425-.142-.283-.213-.628-.213-1.037 0-.409.071-.755.213-1.038.157-.283.338-.424.542-.424.22 0 .401.141.543.424.157.283.236.629.236 1.038z" fill="#0D131A"/><path d="M90.626 51.007c0 .503-.236.755-.708.755a.67.67 0 01-.496-.189c-.141-.141-.212-.33-.212-.566 0-.236.07-.424.212-.566a.581.581 0 01.472-.236c.205 0 .378.08.52.236.14.142.212.33.212.566zM66.3 49.05a.746.746 0 01-.236.542.735.735 0 01-.543.213.735.735 0 01-.542-.213.745.745 0 01-.236-.542c0-.204.078-.377.236-.519a.746.746 0 01.542-.236c.205 0 .386.079.543.236a.672.672 0 01.236.519z" fill="white"/><path d="M94.637 61.973c-.11-.519-.071-.762.118-.731.188.047.432.385.731 1.014l.33 1.368.118 1.25c-.063 1.273-.519 2.154-1.368 2.641-.724.393-1.848.566-3.374.519-.928-.032-1.966-.252-3.114-.66l-3.422-1.321a56.647 56.647 0 00-4.223-1.226L76.493 64l-5.191-.354-5.592.071-4.46.212c-2.201.016-3.664-.573-4.388-1.768a2.91 2.91 0 01-.354-1.439c0-.471.102-.974.307-1.509.267-.676.63-1.187 1.085-1.533.456-.361.724-.51.803-.448.047.063-.048.26-.284.59-.251.361-.456.935-.613 1.721-.173.896-.142 1.54.094 1.934.645 1.085 1.849 1.62 3.61 1.603l4.176-.07 5.923-.118 5.52.377c1.967.283 4.436.936 7.41 1.958l3.538 1.226c1.212.377 2.108.566 2.69.566a6.904 6.904 0 002.242-.307c.786-.251 1.352-.62 1.698-1.108.394-.566.37-1.777-.07-3.632z" fill="#0D131A"/><path d="M95.274 62.233c4.31.078 6.48 1.941 6.512 5.589 0 1.352-.299 2.814-.897 4.386-.519 1.352-1.117 2.437-1.793 3.254-2.422 2.956-6.45 4.968-12.08 6.037-4.263.802-8.58.983-12.954.543-8.242-.818-14.589-3.239-19.04-7.264-4.247-3.82-5.702-8.018-4.365-12.593.44-1.525 1.219-2.672 2.336-3.443 1.305-.912 2.98-1.265 5.025-1.06.158.282-.015.47-.519.565-1.148-.079-2.233.252-3.256.99-1.022.74-1.8 1.77-2.336 3.09-.66 1.635-.676 3.435-.047 5.4.66 2.028 1.911 3.946 3.752 5.754 4.388 4.292 10.657 6.84 18.804 7.641l3.068.165 6.559-.306c6.59-.77 11.262-2.846 14.015-6.226.912-1.117 1.58-2.508 2.005-4.174.394-1.557.488-2.932.284-4.127-.158-.99-.669-1.8-1.534-2.43-.85-.612-1.92-.974-3.209-1.084l-.165-.307-.165-.4z" fill="#0D131A"/></svg>