<svg width="209" height="265" fill="none" xmlns="http://www.w3.org/2000/svg"><g clip-path="url(#clip0_2621_785)"><path d="M63.499 54.577c-10.849 6.689-19.864 14.975-27.047 24.86-7.843 10.8-12.703 22.538-14.578 35.214 30.03.894 59.805.671 89.324-.672 59.018-2.705 87.205-9.65 84.562-20.834-3.091-13.016-15.772-25.105-38.045-36.268-11.126-5.581-21.942-9.863-32.45-12.845-8.61-3.26-18.51-3.91-29.7-1.95C84.545 44 73.857 48.165 63.499 54.578z" fill="#6F4E25"/><path d="M102.183 41.092l-8.056.863c6.778 2.428 13.161 6.028 19.15 10.8 4.497 3.6 9.154 8.223 13.971 13.868 2.153-2.45 4.796-5.187 7.929-8.212l8.408-7.925c-13.087-5.368-23.733-8.467-31.938-9.298a56.073 56.073 0 00-9.464-.096zM34.054 82.92c-6.437 9.884-10.497 20.461-12.18 31.73 6.969.213 15.718.352 26.247.416-5.904-9.054-10.593-19.77-14.067-32.146z" fill="#4A311C"/><path d="M126.224 40.038c-1.812 5.198-2.824 8.872-3.037 11.024l13.332 36.3 41.817-4.282c.937-.873 3.357-4.58 7.257-11.12 4.113-6.902 6.319-11.237 6.618-13.005.597-3.302-8.867-9.779-28.39-19.429-6.543-3.238-13.257-5.698-20.141-7.381-4.732-1.15-8.472-1.758-11.222-1.822-1.875-.042-3.953 3.196-6.234 9.715z" fill="#6F4E25"/><path d="M126.225 40.038c-1.812 5.198-2.824 8.872-3.037 11.024l9.271 25.212c3.602-5.113 10.06-12.846 19.374-23.2 8.078-8.989 12.074-13.505 11.989-13.548-6.543-3.238-13.257-5.698-20.141-7.381-4.732-1.15-8.472-1.758-11.222-1.822-1.876-.042-3.954 3.196-6.234 9.715z" fill="#4A311C"/><path d="M35.364 62.437c-6.415 5.24-11.647 10.194-15.697 14.86-4.305 4.941-6.106 8.243-5.403 9.905.64 1.512 3.964 4.963 9.975 10.353 5.52 4.964 8.898 7.797 10.134 8.5l44.983-27.64-8.664-21.378c-.533-1.555-1.62-3.59-3.261-6.103-2.132-3.28-3.826-4.761-5.084-4.442-2.174.554-5.51 2.045-10.006 4.474-5.947 3.238-11.606 7.062-16.977 11.471z" fill="#6F4E25"/><path d="M19.188 77.871c-3.965 4.644-5.606 7.755-4.924 9.33.32.747 1.77 2.43 4.348 5.05l7.066 6.838 7.257-1.566c3.389-.66 6.65-.99 9.783-.99-2.366-3.686-4.55-9.928-6.554-18.726-1.641-7.285-2.42-11.982-2.334-14.091-6.053 5.09-10.934 9.81-14.642 14.155z" fill="#4A311C"/><path d="M134.058 41.763a33.847 33.847 0 00-2.973 7.126l-.991 2.812c-.746 2.3-1.29 4.537-1.631 6.71-1.044 6.966.139 12.004 3.549 15.115 3.431 3.11 10.784 5.368 22.059 6.774 5.648.724 10.955 1.129 15.921 1.214 2.025-2.237 4.711-6.007 8.057-11.312 3.666-5.794 5.403-9.341 5.211-10.64-.192-1.449-6.927-5.326-20.205-11.632-13.3-6.305-21.761-9.629-25.385-9.97-.959-.106-2.163 1.161-3.612 3.803zM60.302 55.184c-1.982.724-8.653 5.666-20.013 14.826-11.616 9.352-17.37 14.657-17.264 15.914.107 1.235 2.547 4.218 7.321 8.947 4.412 4.367 7.78 7.349 10.103 8.947l30.66-29.685c-1.578-4.453-3.134-8.276-4.668-11.472-2.622-5.496-4.668-7.989-6.139-7.477z" fill="#0D131A"/><path d="M58.67 68.317c-5.69-.32-11.114 2.013-16.272 6.998-1.983 1.917-3.645 3.994-4.988 6.231-1.236 2.066-1.918 3.781-2.046 5.145-.298 3.088.267 5.773 1.695 8.052 1.769 2.855 4.72 4.665 8.855 5.432l19.662-9.65 3.645-12.654c-.448-2.173-1.258-4.015-2.43-5.528-1.918-2.47-4.625-3.813-8.12-4.026z" fill="#DCDBD6"/><path d="M35.365 86.69c-.298 3.09.267 5.774 1.695 8.053 1.769 2.855 4.72 4.665 8.856 5.432l6.65-3.259-5.82-24.924-5.562 5.943c-3.73 4.26-5.67 7.18-5.819 8.756z" fill="#B4B4B0"/><path d="M58.704 91.58c3.495-2.557 5.53-5.571 6.106-9.043.511-3.281-.437-5.955-2.845-8.02-1.684-1.45-3.432-2.291-5.244-2.525L40.29 86.467c-.47 2.77.383 5.038 2.557 6.806 2.004 1.598 4.338 2.269 7.002 2.013 2.92-.277 5.872-1.512 8.856-3.706z" fill="#DCDBD6"/><path d="M40.288 86.467c-.468 2.77.384 5.038 2.558 6.806 2.004 1.598 4.337 2.269 7.002 2.013l2.43-.51-1.12-10.482-.639-6.263-10.23 8.436z" fill="#B4B4B0"/><path d="M1.7 53.554a22.8 22.8 0 002.75 8.372c1.364 2.471 3.005 4.442 4.923 5.912 3.261 2.492 8.163 5.88 14.707 10.161 6.031 3.941 10.283 6.593 12.756 7.957 2.195 1.235 4.71 1.736 7.545 1.501 2.813-.212 5.69-1.118 8.632-2.716 2.75-1.49 4.657-3.877 5.722-7.157.938-2.919 1.002-5.603.192-8.053-.81-2.45-3.048-7.754-6.713-15.913-3.794-8.5-6.224-13.485-7.29-14.955-1.662-2.343-3.932-4.367-6.81-6.07a28.382 28.382 0 00-9.399-3.452c-7.822-1.385-14.354.394-19.597 5.336C3.299 39.952.827 46.311 1.7 53.554z" fill="#DCDBD6"/><path d="M29.802 72.407c-5.712 1.406-11.2.842-16.465-1.693 3.751 2.662 8.184 5.645 13.3 8.947l10.198 6.295c2.195 1.235 4.71 1.736 7.545 1.502 2.813-.213 5.69-1.119 8.632-2.716.128-.064-1.971-2.61-6.298-7.638l-6.938-8.052-.767-.767c-.32-.106-.778.107-1.375.64-1.556 1.405-4.166 2.566-7.832 3.482z" fill="#B4B4B0"/><path d="M156.725 51.669c-6.458-2.833-13.098-3.004-19.918-.511l-3.804 17.958 28.293 13.548c4.007-1.79 6.554-4.377 7.641-7.764.768-2.45.768-5.38 0-8.788-1.492-6.689-5.563-11.503-12.212-14.443z" fill="#DCDBD6"/><path d="M153.207 50.422c-5.52-1.49-10.987-1.246-16.401.735l-3.804 17.959c4.539-.703 9.314-1.651 14.322-2.844 10.018-2.365 16.23-4.73 18.639-7.094-2.963-4.325-7.215-7.243-12.756-8.755z" fill="#B4B4B0"/><path d="M140.131 58.22c-1.47 2.641-1.534 5.613-.191 8.915 1.428 3.472 3.857 5.996 7.289 7.573 2.877 1.3 5.829 1.747 8.856 1.342 2.813-.362 5.275-1.896 7.385-4.601 2.259-2.898 2.813-5.73 1.662-8.5l-21.036-8.5c-1.577.596-2.899 1.853-3.965 3.77z" fill="#DCDBD6"/><path d="M144.097 54.449c-1.577.596-2.899 1.853-3.965 3.77-1.47 2.642-1.534 5.614-.191 8.916 1.428 3.493 3.857 6.007 7.289 7.541l4.668-6.135 2.206-2.716-10.007-11.376z" fill="#B4B4B0"/><path d="M144.032 62.373c1.769 2.876 4.23 4.751 7.385 5.624 3.495.959 6.692 1.257 9.591.895 3.005-.405 5.477-1.491 7.417-3.26 2.6-2.364 5.978-5.666 10.135-9.905 5.115-5.198 9.005-9.416 11.669-12.654 1.641-2.002 2.92-4.559 3.836-7.669a28.828 28.828 0 001.119-10.161c-.575-8.5-4.518-14.88-11.829-19.14-6.799-3.985-13.8-4.656-21.004-2.014-6.863 2.514-11.989 7.232-15.378 14.156-.917 1.874-2.057 7.413-3.421 16.616-1.385 9.288-2.014 15.817-1.886 19.588.106 2.897.895 5.538 2.366 7.924z" fill="#DCDBD6"/><path d="M142.721 40.804c-.788 6.391-1.14 10.94-1.055 13.645.107 2.897.896 5.539 2.366 7.925 1.769 2.875 4.231 4.75 7.385 5.623l1.311.576c.32.127.554.064.703-.192 5.009-8.947 7.918-14.316 8.728-16.105.576-1.257.864-1.981.864-2.173.021-.383-.352-.682-1.119-.895-5.307-1.619-9.528-4.601-12.661-8.947-3.303-4.623-4.625-9.81-3.964-15.562-.938 4.73-1.79 10.098-2.558 16.105z" fill="#B4B4B0"/><path d="M93.231 225.5c-1.47-.277-3.09.82-4.86 3.291-1.768 2.407-2.749 4.825-2.94 7.254.959 1.214 4.23 1.406 9.814.575 5.35-.831 8.398-1.705 9.144-2.621.597-.766-.608-2.279-3.613-4.537-2.962-2.258-5.477-3.579-7.545-3.962z" fill="#DBDCDC"/><path d="M83.607 61.543c-3.73 2.641-8.152 6.955-13.268 12.941-4.475 5.22-8.28 9.32-11.413 12.303-4.838 4.622-9.431 8.02-13.78 10.193-11.722 5.858-19.853 11.514-24.393 16.968-5.69 6.859-6.65 14.209-2.877 22.048l177.115-2.748c1.301-.639 2.771-2.024 4.412-4.154 1.727-2.258 3.219-4.815 4.476-7.669 3.176-7.307 3.709-13.73 1.599-19.268-1.812-4.751-5.446-9.086-10.902-13.006-6.117-4.367-12.948-6.923-20.493-7.669l-7.097-.575c-2.579-.234-4.764-.596-6.554-1.087-4.732-1.299-9.464-4.26-14.195-8.883-6.479-6.348-12.991-10.907-19.534-13.676-6.65-2.833-13.715-3.994-21.196-3.483-8.142.575-15.442 3.163-21.9 7.765z" fill="#EEEEEF"/><path d="M205.478 102.156l-.512-1.182c-.852 11.227-5.531 19.279-14.035 24.157-3.708 2.131-8.483 3.92-14.322 5.369-4.391 1.086-10.476 2.194-18.255 3.323l36.637-.575c1.301-.639 2.771-2.024 4.412-4.154 1.727-2.258 3.219-4.815 4.476-7.669 3.176-7.307 3.709-13.73 1.599-19.269zM105.509 53.778c-8.142.575-15.442 3.163-21.9 7.765-3.73 2.641-8.152 6.955-13.268 12.941a212.447 212.447 0 01-7.768 8.596c-3.816 4.026-6.98 7.04-9.496 9.043 7.247 2.087 14.142 7.584 20.685 16.488 5.307 7.201 9.954 15.967 13.94 26.298l16.112-.255c.512-14.87 5.595-28.471 15.25-40.806 4.305-5.496 9.058-10.001 14.259-13.516 5.222-3.558 10.358-5.752 15.409-6.583-5.562-5.9-12.511-10.8-20.844-14.699-8.483-3.962-15.943-5.72-22.379-5.272zM33.254 103.594c-7.545 4.772-12.65 9.587-15.314 14.444-3.09 5.624-3.112 11.61-.064 17.958l17.328-6.327c-2.26-1.853-4.039-4.324-5.339-7.413-2.579-6.199-1.45-12.42 3.389-18.662z" fill="#C8C9CA"/><path d="M79.164 118.102c8.397 4.303 18.244 5.996 29.54 5.08 11.296-.894 20.738-4.132 28.326-9.714 7.588-5.581 11.104-11.876 10.55-18.885-.554-6.987-5.03-12.643-13.427-16.967-8.377-4.303-18.213-6.008-29.509-5.113-11.296.916-20.738 4.165-28.326 9.746-7.587 5.581-11.104 11.876-10.55 18.885.554 7.009 5.02 12.664 13.396 16.968z" fill="#0D131A"/><path d="M95.757 221.569c-2.025-2.194-5.136-3.611-9.335-4.25-4.199-.66-12.682.639-25.449 3.899-6.372 1.64-12.33 3.334-17.87 5.08-.768 2.429.106 5.209 2.62 8.341 2.366 2.961 5.468 5.389 9.304 7.285 5.477 2.706 11.563 3.909 18.255 3.611 6.97-.298 13.172-2.194 18.607-5.688 2.834-1.832 4.731-4.633 5.69-8.404.789-3.174.768-5.432-.064-6.774-.17-.959-.756-1.992-1.758-3.1z" fill="#3396CD"/><path d="M95.756 221.569c-2.025-2.194-5.137-3.61-9.335-4.25-1.045-.17-2.537-.202-4.476-.095-3.006 2.364-5.52 5.4-7.545 9.106 5.925-1.363 10.784-1.288 14.578.224 3.24 1.321 5.83 3.781 7.769 7.382a16.66 16.66 0 001.31-5.624c.086-1.726-.095-2.94-.543-3.643-.17-.959-.757-1.992-1.758-3.1zM64.618 244.8c4.518.788 8.632.905 12.34.351-6.18-4.196-7.119-10.3-2.813-18.309l-15.25-.671c-5.84-.192-10.923-.203-15.25-.032l-.544.159c-.767 2.429.107 5.209 2.622 8.34 2.366 2.962 5.467 5.39 9.303 7.286 2.537 1.236 5.734 2.194 9.592 2.876z" fill="#2880AE"/><path d="M193.267 186.931c4.177-6.434 6.564-14.891 7.161-25.372.384-6.348.181-11.801-.608-16.36l-14.13 3.227-4.828 40.198 12.405-1.693z" fill="#C8C9CA"/><path d="M34.47 188.209c-2.558 5.922-3.325 12.366-2.302 19.332 1.044 7.03 2.963 12.196 5.755 15.498 1.47 1.747 3.719 3.27 6.745 4.57 4.924 2.13 10.156 3.195 15.698 3.195 10.039.021 19-3.653 26.887-11.024-2.92-5.603-6.298-11.536-10.135-17.799-7.672-12.526-13.821-20.45-18.446-23.774-4.647-3.323-8.984-4.313-13.012-2.971-2.025.66-3.581 1.651-4.668 2.971-2.92 3.387-5.094 6.721-6.522 10.002z" fill="#3396CD"/><path d="M40.991 178.207c-2.92 3.387-5.094 6.721-6.522 10.002-2.558 5.922-3.325 12.366-2.302 19.332 1.066 7.201 2.718 12.207 4.956 15.019.916 1.15 2.078 2.141 3.484 2.972l4.06 2.077c3.091 1.512 6.107 2.545 9.048 3.099l10.614.352c-2.75-1.747-4.007-3.846-3.772-6.295.213-2.237 1.566-4.261 4.06-6.072 2.536-1.832 5.51-2.886 8.92-3.163 3.815-.298 7.417.5 10.806 2.396-5.18-9.309-9.368-16.626-12.565-21.952-5.882-9.778-10.251-15.7-13.107-17.767-4.647-3.323-8.984-4.313-13.012-2.971-2.025.66-3.581 1.651-4.668 2.971z" fill="#2880AE"/><path d="M90.322 239.528c-2.26-1.726-4.977-2.461-8.152-2.205-3.88.298-7.492 2.119-10.838 5.464-1.28 1.278-.096 3.302 3.548 6.071 3.368 2.556 5.776 3.877 7.226 3.962 1.023.064 2.707-1.714 5.051-5.336 2.387-3.685 3.442-6.337 3.165-7.956z" fill="white"/><path d="M71.331 242.787c-1.044 1.044-.021 2.897 3.07 5.56 2.557 2.215 5.146 3.973 7.768 5.272-1.513-1.938-2.75-4.356-3.709-7.253-.916-2.876-1.321-5.464-1.214-7.765-2.068.916-4.04 2.311-5.915 4.186z" fill="#DBDCDC"/><path d="M61.612 238.952c-4.817-1.768-9.08-1.96-12.788-.575-2.09.788-4.04 3.76-5.85 8.915-.747 2.152-1.173 3.984-1.28 5.496-.106 1.662.224 2.567.991 2.717 2.835.575 7.63-.714 14.387-3.867 6.97-3.217 10.582-6.082 10.838-8.596.043-.404-.533-1.012-1.727-1.821-1.278-.873-2.802-1.63-4.571-2.269z" fill="white"/><path d="M48.824 238.377c-1.79.682-3.56 3.164-5.307 7.445-1.684 4.197-2.228 7.148-1.63 8.852 1.257-3.345 3.005-6.636 5.242-9.874 2.452-3.515 4.828-5.944 7.13-7.286-2.025-.042-3.837.245-5.435.863z" fill="#DBDCDC"/><path d="M83.705 110.081C77.8 107.759 73.4 104.83 70.5 101.294c-1.577-1.918-3.783-2.429-6.618-1.534-2.6.831-4.508 2.322-5.723 4.474-.98 1.768-1.577 4.612-1.79 8.531-.149 3.068-.064 5.976.256 8.724.17 1.406-.533 11.929-2.11 31.571-1.236 19.918-.938 31.89.895 35.916 2.643 5.773 6.394 11.429 11.254 16.968 5.05 5.751 9.868 9.714 14.45 11.887 7.588 3.579 15.175 6.082 22.763 7.509 12.106 2.279 23.615 1.736 34.528-1.63 6.437-1.512 13.182-4.388 20.237-8.627 14.11-8.479 22.742-19.492 25.896-33.041 3.133-13.549-.128-31.326-9.783-53.332-4.838-11.013-9.985-20.674-15.442-28.982-.17-1.278-1.364-3.131-3.58-5.56-2.451-2.706-4.497-3.941-6.138-3.707-1.514.192-3.656 1.651-6.427 4.378l-7.736 7.893c-2.728 2.577-6.885 4.985-12.469 7.221-6.756 2.706-13.257 4.005-19.502 3.899-7.033-.107-13.619-1.364-19.757-3.771z" fill="#F0E9A5"/><path d="M155.318 93.689a7.47 7.47 0 00-2.366-.607l-3.261.255c1.982 1.79 3.463 3.728 4.444 5.816.852 1.874 1.406 4.101 1.662 6.678 1.386-2.258 2.494-4.527 3.325-6.806-.277-.66-.757-1.48-1.439-2.46a25.693 25.693 0 00-2.365-2.876zM168.521 180.572c4.838-.575 10.23-.362 16.177.639.789-3.706 1.087-7.765.895-12.174a25.235 25.235 0 01-8.248 2.045 24.58 24.58 0 01-8.344-.799c-.043 3.43-.203 6.859-.48 10.289zM89.97 115.865c.064-.533.543-1.129 1.438-1.79.682-.49 1.396-.894 2.142-1.214-5.051-.959-9.633-2.471-13.747-4.537-4.028-2.046-7.13-4.389-9.303-7.03-1.578-1.918-3.784-2.429-6.618-1.534-2.6.831-4.508 2.322-5.723 4.473-.98 1.769-1.577 4.612-1.79 8.532-.15 3.068-.064 5.976.255 8.724.171 1.406-.532 11.929-2.11 31.57-1.236 19.918-.937 31.891.896 35.917 2.643 5.773 6.394 11.429 11.253 16.968 5.052 5.751 9.868 9.714 14.45 11.887 8.079 3.813 15.88 6.476 23.403 7.988 12.511 2.471 23.807 1.768 33.889-2.109 3.047-.724 6.671-2.002 10.869-3.834-3.303-.81-6.17-2.738-8.6-5.784-.959-1.214-2.248-3.377-3.868-6.487-10.913-2.79-20.333-9.341-28.262-19.652-.192-.234-.351-.724-.479-1.47l-.128-1.022c-.81.021-1.29-.085-1.439-.32-6.607-9.501-11.37-20.749-14.29-33.743-.086-.341-.032-.863.16-1.566l.287-.991c-.725-.319-1.108-.585-1.15-.798-2.132-10.993-2.644-21.719-1.535-32.178z" fill="#C9C48B"/><path d="M181.564 254.195c8.462.149 14.685-3.132 18.671-9.842 4.689-7.904 5.467-19.716 2.334-35.437l-64.165-6.871c-2.046 6.2-2.12 14.625-.223 25.276 1.875 10.481 4.561 17.298 8.056 20.451 3.261 2.961 8.824 4.878 16.689 5.752l18.638.671z" fill="#3396CD"/><path d="M162.927 253.524l18.638.671c-8.354-7.328-8.429-15.53-.223-24.605l-42.936-27.545c-2.047 6.2-2.121 14.625-.224 25.276 1.875 10.481 4.561 17.298 8.056 20.451 3.261 2.961 8.824 4.878 16.689 5.752z" fill="#2880AE"/><path d="M139.684 248.539c-.426 4.708.032 7.488 1.375 8.34 1.385.894 3.986.905 7.801.032 3.9-.895 6.937-2.248 9.111-4.058.618-.512.746-1.545.384-3.1-.384-1.662-1.183-3.238-2.398-4.729-3.325-4.048-7.875-5.379-13.651-3.995-1.322.32-2.196 2.823-2.622 7.51zM198.766 246.941c-.426-2.343-2.302-3.76-5.627-4.25-2.259-.362-6.298-.32-12.116.128-5.03.383-9.592 1.491-13.684 3.323-4.305 1.939-6.394 3.973-6.266 6.103.128 2.237 4.22 4.634 12.277 7.19 8.12 2.599 15.186 3.717 21.196 3.355 2.153-.128 3.591-2.013 4.316-5.656.618-3.152.586-6.55-.096-10.193z" fill="white"/><path d="M139.684 248.539c-.426 4.708.032 7.488 1.375 8.34 1.385.894 3.986.905 7.801.032 3.9-.895 6.937-2.248 9.111-4.058.618-.512.746-1.545.384-3.1-.384-1.662-1.183-3.238-2.398-4.729-3.325-4.048-7.875-5.379-13.651-3.995-1.322.32-2.196 2.823-2.622 7.51zM172.677 244.257c-3.432.937-6.202 2.098-8.313 3.483-2.28 1.491-3.378 2.993-3.292 4.505.106 2.152 3.964 4.485 11.573 6.998 7.609 2.514 14.482 3.718 20.621 3.611-5.585-1.576-10.476-4.005-14.675-7.285-4.944-3.878-6.916-7.648-5.914-11.312z" fill="#DBDCDC"/><path d="M173.924 176.258l-7.513-.639c-8.952.299-16.038 3.377-21.26 9.235-4.519 5.091-6.938 11.237-7.257 18.438-.256 5.347 1.769 10.875 6.074 16.584 4.433 5.901 9.772 9.852 16.017 11.855 2.473.788 6.501.98 12.085.575 4.433-.341 8.898-.959 13.395-1.853 7.609-1.513 12.735-5.869 15.378-13.07 1.62-4.452 2.238-9.916 1.854-16.392-.362-5.645-2.504-10.79-6.426-15.434-5.328-6.348-12.777-9.448-22.347-9.299z" fill="#3396CD"/><path d="M172.069 232.306c4.434-.341 8.899-.959 13.396-1.853 5.435-1.066 9.623-3.633 12.564-7.701-3.708 2.151-7.726 3.152-12.052 3.003-5.158-.191-9.965-2.087-14.419-5.688-6.373-5.134-10.774-11.365-13.204-18.693-3.154-9.522-1.364-18.043 5.371-25.563-8.099.852-14.504 4.122-19.214 9.81-4.113 4.985-6.319 10.875-6.618 17.671-.256 5.347 1.769 10.875 6.075 16.584 4.433 5.901 9.772 9.852 16.017 11.855 2.472.788 6.5.98 12.084.575z" fill="#2880AE"/><path d="M201.483 118.07c-.533-4.133-2.089-7.978-4.668-11.536-2.664-3.664-6.096-6.561-10.294-8.691-4.498-2.301-9.464-3.473-14.899-3.515-8.035-.085-13.011 3.344-14.93 10.289-.703 2.514-.916 5.251-.639 8.212.234 2.493.714 4.463 1.439 5.912 5.797 4.473 11.893 8.308 18.287 11.503 12.809 6.37 20.748 6.338 23.817-.096 1.791-3.792 2.42-7.818 1.887-12.078z" fill="#3396CD"/><path d="M176.482 94.711l-4.86-.383c-8.035-.085-13.011 3.344-14.93 10.289-.703 2.514-.916 5.251-.639 8.212.234 2.493.714 4.463 1.439 5.912 2.557 1.853 5.605 3.557 9.143 5.112 7.119 3.089 13.182 3.867 18.191 2.333-5.882-5.837-9.793-11.791-11.733-17.862-2.11-6.626-.98-11.163 3.389-13.613z" fill="#2880AE"/><path d="M186.616 116.216c-6.777-3.408-12.777-4.58-17.999-3.515-6.138 1.257-10.305 4.421-12.5 9.491-.917 2.109-1.332 4.282-1.247 6.518.085 2.173.629 4.069 1.63 5.688l36.83 16.393c5.094-2.131 7.982-5.763 8.664-10.897.575-4.218-.309-8.531-2.654-12.941-2.131-3.962-6.372-7.541-12.724-10.737z" fill="#3396CD"/><path d="M172.709 112.382l-4.092.319c-6.138 1.257-10.305 4.421-12.5 9.491-.917 2.109-1.333 4.282-1.247 6.518.085 2.173.628 4.069 1.63 5.688l17.2 6.135c-.469-.404-1.193-1.448-2.174-3.131-1.321-2.258-2.323-4.569-3.005-6.934-2.046-7.2-.65-13.229 4.188-18.086z" fill="#2880AE"/><path d="M189.238 172.999l3.836-9.011-14.035 4.889 1.407 4.537c1.215 3.111 2.494 4.868 3.836 5.273 1.343.404 2.995-1.491 4.956-5.688z" fill="white"/><path d="M183.707 167.247l-4.668 1.63 1.407 4.537c1.215 3.11 2.494 4.868 3.836 5.273.043.021-.117-1.236-.479-3.771-.426-3.11-.458-5.666-.096-7.669z" fill="#DBDCDC"/><path d="M148.636 164.084c.021 2.045.202 3.877.543 5.496.32 1.576.672 2.428 1.055 2.556.661.213 2.675-.767 6.043-2.94 3.175-2.045 4.934-3.323 5.275-3.834l-9.495-13.006c-2.281 2.386-3.421 6.295-3.421 11.728z" fill="white"/><path d="M157.043 159.195l-4.987-6.839c-1.961 2.067-3.176 4.996-3.645 8.788-.469 3.983.043 7.797 1.535 11.439.255-2.364 1.108-4.857 2.557-7.477 1.322-2.407 2.835-4.378 4.54-5.911z" fill="#DBDCDC"/><path d="M162.512 165.458c-.299 1.576.106 4.559 1.215 8.947 1.214 4.687 2.429 6.923 3.644 6.71 1.535-.277 3.368-1.576 5.499-3.898 2.43-2.62 4.337-5.656 5.723-9.107l-16.081-2.652z" fill="white"/><path d="M162.511 165.458c-.298 1.576.107 4.559 1.215 8.947 1.215 4.687 2.43 6.923 3.645 6.71l.383-3.738c.32-3.387 1.151-6.934 2.494-10.641l-7.737-1.278z" fill="#DBDCDC"/><path d="M155.061 136.539c-2.238 1.875-3.666 3.877-4.284 6.008-1.321 4.473-.309 9.586 3.037 15.338 3.56 6.113 8.217 9.873 13.971 11.279 6.458 1.577 12.671 1.321 18.639-.767 6.394-2.258 9.943-5.911 10.646-10.96.725-5.134.011-9.714-2.142-13.74-2.003-3.749-5.126-6.806-9.367-9.171-7.183-4.005-14.611-4.804-22.284-2.397-3.197 1.023-5.935 2.493-8.216 4.41z" fill="#3396CD"/><path d="M150.778 142.547c-1.322 4.473-.309 9.586 3.037 15.338 3.559 6.114 8.216 9.873 13.971 11.279l1.439.32c-4.988-4.772-7.78-10.95-8.377-18.533-.618-7.776 1.343-14.327 5.883-19.652-3.986.703-7.481 2.141-10.486 4.314-2.899 2.109-4.721 4.42-5.467 6.934z" fill="#2880AE"/><path d="M29.259 119.38c-5.52 2.982-9.23 8.01-11.126 15.082-1.599 5.965-1.567 10.95.096 14.955 1.343 3.28 4.028 6.348 8.056 9.203 3.006 2.13 9.538-1.47 19.598-10.801 3.154-2.918 6.458-6.231 9.91-9.938l4.285-4.697c.533-3.174-.416-6.38-2.845-9.618-2.6-3.494-6.01-5.624-10.23-6.391-6.8-1.236-12.714-.501-17.744 2.205z" fill="#3396CD"/><path d="M30.506 119.22c-2.835 1.747-5.308 3.824-7.418 6.231-2.472 2.855-4.124 5.858-4.955 9.011-1.598 5.965-1.567 10.95.096 14.955 1.343 3.28 4.028 6.348 8.056 9.203 1.471 1.043 4.05-1.619 7.737-7.989l5.084-9.842-2.239-.799c-1.747-.767-3.24-1.8-4.475-3.099-3.943-4.133-4.572-10.023-1.887-17.671z" fill="#2880AE"/><path d="M37.155 135.517c-4.454 3.983-7.513 8.808-9.175 14.475-1.599 5.39-1.63 9.842-.096 13.357 1.769 4.09 5.563 6.753 11.381 7.988 5.158 1.129 11.158-2.407 18-10.608 2.131-2.557 4.22-5.433 6.266-8.628l2.43-3.994c.895-2.919.532-6.189-1.087-9.81-2.09-4.666-5.83-7.424-11.222-8.276-5.861-.938-11.36.894-16.497 5.496z" fill="#3396CD"/><path d="M45.82 157.853c-2.686-.831-5.063-2.386-7.13-4.666-4.135-4.558-4.657-10.449-1.567-17.67-2.152 1.938-4.05 4.228-5.69 6.87-1.535 2.492-2.686 5.027-3.453 7.605-1.599 5.39-1.63 9.842-.096 13.357 1.769 4.09 5.563 6.753 11.381 7.988 1.599.341 3.166-1.8 4.7-6.422l1.854-7.062z" fill="#2880AE"/><path d="M70.884 170.443l2.941.766c2.153.469 3.688.597 4.604.384 1.023-.213.554-2.407-1.407-6.583-1.897-4.026-3.485-6.603-4.763-7.733l-1.375 13.166z" fill="white"/><path d="M78.43 171.593l-2.558-1.853c-2.089-1.534-3.57-3.025-4.444-4.474l-.543 5.177 2.941.766c2.153.469 3.687.597 4.604.384zM58.223 186.42l6.778.83c.788 0 .81-1.129.063-3.387-.682-2.151-1.385-3.6-2.11-4.346l-14.994 3.867c2.75 1.278 6.17 2.29 10.263 3.036z" fill="#DBDCDC"/><path d="M70.692 170.155l-8.696 10.289a36.73 36.73 0 008.184 1.726c2.856.277 4.476.117 4.86-.48.831-1.214.362-3.504-1.407-6.87l-2.941-4.665z" fill="white"/><path d="M74.944 181.786a32.554 32.554 0 01-9.271-5.687l-3.677 4.345a38.235 38.235 0 007.961 1.694c2.77.277 4.433.16 4.987-.352z" fill="#DBDCDC"/><path d="M40.32 160.345c-2.196 4.708-3.06 9-2.59 12.877.511 4.133 2.494 7.094 5.946 8.884 4.029 2.087 7.45 2.982 10.263 2.684 3.623-.384 7.715-2.642 12.276-6.774 4.86-4.389 7.183-9.885 6.97-16.489-.085-2.577-.554-4.974-1.407-7.189-.81-2.046-1.758-3.494-2.845-4.346-4.583-3.6-9.74-4.378-15.474-2.333-5.776 2.045-10.156 6.274-13.14 12.686z" fill="#3396CD"/><path d="M40.32 160.345c-2.196 4.708-3.059 9.001-2.59 12.878.512 4.132 2.494 7.094 5.947 8.883 4.028 2.088 7.449 2.982 10.262 2.684 3.623-.383 7.715-2.641 12.277-6.774l1.055-1.023c-3.112 1.747-6.288 2.514-9.528 2.301-3.047-.213-5.86-1.257-8.44-3.132-2.536-1.832-4.54-4.228-6.01-7.189-1.535-3.068-2.302-6.38-2.302-9.938l-.671 1.31z" fill="#2880AE"/><path d="M84.056 107.844c6.97 2.855 15.09 3.824 24.361 2.908a49.473 49.473 0 0015.282-4.058c5.947-2.642 10.55-6.114 13.811-10.417 2.302-3.004 3.048-6.508 2.238-10.513-.81-4.154-2.962-6.69-6.458-7.605-3.005-.788-13.896-.362-32.673 1.278l-27.303 2.684c-3.9 12.654-.32 21.228 10.742 25.723z" fill="#F0E9A5"/><path d="M79.516 83.24c-2.366-.682-4.433-1.055-6.203-1.119-3.9 12.654-.32 21.228 10.743 25.723 6.97 2.855 15.09 3.824 24.361 2.908 4.625-.49 9.047-1.566 13.268-3.227l-7.513 1.118a28.335 28.335 0 01-8.505-.575c-6.244-1.385-10.88-3.675-13.907-6.87-3.389-3.579-3.634-7.318-.735-11.216-2.963-3.132-6.799-5.379-11.51-6.742z" fill="#C9C48B"/><path d="M100.808 50.774c-1.62-1.938-5.062-2.045-10.327-.32-4.22 1.385-7.236 2.823-9.047 4.314-3.09-.32-5.947-.255-8.568.192-2.302.384-3.837.948-4.604 1.694-.682.66-.554 2.63.384 5.911.916 3.196 2.142 6.103 3.676 8.724-1.108 2.727-1.705 5.858-1.79 9.394-.085 3.707.469 6.178 1.662 7.414l3.23-2.205c1.491-.767 3.036-1.097 4.635-.99-.938 2.598-.693 4.409.735 5.431.98.703 2.665 1.055 5.052 1.055 1.257 0 4.038-.735 8.344-2.205 4.774-1.64 8.174-2.61 10.198-2.908l10.423-.48 10.678.257c5.968.02 7.555-2.418 4.763-7.318 3.048-.298 5.393.362 7.034 1.981 1.002.98 1.577 1.992 1.726 3.036.767-2.684.885-5.784.352-9.299-.554-3.77-1.705-6.625-3.453-8.564.81-2.279 1.428-4.718 1.854-7.317.832-5.22.299-8.66-1.598-10.321-.597-.533-2.281-.544-5.051-.032-2.899.554-5.478 1.427-7.737 2.62-3.73-1.81-8.163-2.78-13.3-2.908-5.307-.106-8.397.842-9.271 2.844z" fill="#3396CD"/><path d="M135.4 56.75c.938-5.283 1.194-8.117.767-8.5-.596-.533-2.28-.544-5.051-.032-2.899.554-5.478 1.427-7.737 2.62-.618-.298-2.366-.799-5.243-1.502 5.435 2.429 10.316 6.902 14.643 13.42.831 1.236 1.705-.766 2.621-6.006zM107.139 48.122c-2.174-.043-3.688.128-4.54.511-.725.341-1.322 1.055-1.791 2.141-1.62-1.938-5.062-2.045-10.326-.32-4.22 1.385-7.236 2.823-9.047 4.315-3.091-.32-5.947-.256-8.569.191-2.301.384-3.836.948-4.603 1.694-.682.66-.554 2.63.383 5.911.917 3.196 2.142 6.103 3.677 8.724-1.108 2.727-1.705 5.858-1.79 9.394-.086 3.707.468 6.178 1.662 7.414l3.23-2.205c1.491-.767 3.036-1.097 4.635-.99-.938 2.598-.693 4.409.735 5.431.98.704 2.664 1.055 5.051 1.055 1.236 0 3.858-.746 7.865-2.237 4.412-1.64 7.641-2.62 9.687-2.94-.448-1.555-.565-3.067-.352-4.537l.48-1.758-.927-.095-1.503.223c-1.15.597-2.12-.298-2.91-2.684-.766-2.322-.777-3.888-.031-4.697.895-.98 2.44-1.704 4.636-2.173 2.685-.575 5.072-.298 7.161.83 1.087.597 1.662.725 1.726.384.043-.234-.234-.873-.831-1.917-1.833-3.174-2.803-5.251-2.909-6.231-1.236.916-2.76 1.491-4.572 1.725-2.089.277-3.783-.074-5.083-1.054.32 1.768.256 2.727-.192 2.876-.341.128-1.13-.266-2.366-1.182-4.07-2.962-7.374-4.645-9.91-5.05-1.45-.234-1.727-1.096-.832-2.588.853-1.427 2.334-2.769 4.444-4.026 2.323-1.406 4.497-2.109 6.522-2.109 2.451 0 4.263 1.076 5.435 3.228.149-1.768.618-3.217 1.407-4.346.937-1.3 2.387-2.269 4.348-2.908z" fill="#2880AE"/><path d="M126.577 64.195c-.576-.938-1.141-1.694-1.695-2.269-2.323.873-4.849 2.428-7.577 4.665l-3.389 3.1.832 1.15 6.905-.767c3.773-.362 6.085-.394 6.938-.096-.171-1.938-.842-3.866-2.014-5.783zM79.004 73.366l8.408.096 6.873.255.416-1.054.224-.384-3.996-3.131c-3.134-2.152-5.926-3.377-8.377-3.675l-1.502 2.46c-1.045 1.982-1.727 3.792-2.046 5.433z" fill="white"/><path d="M33.542 39.047c-3.474-2.492-7.364-3.44-11.67-2.844-4.326.618-7.821 2.578-10.486 5.88-2.664 3.302-3.719 6.998-3.165 11.088.554 4.09 2.558 7.37 6.01 9.842 3.475 2.492 7.375 3.44 11.702 2.843 4.305-.596 7.79-2.545 10.454-5.847 2.664-3.323 3.72-7.03 3.165-11.12-.554-4.09-2.557-7.37-6.01-9.842zM157.172 16.71c-2.984 3.41-4.263 7.297-3.837 11.664.405 4.389 2.377 7.978 5.915 10.769 3.559 2.812 7.651 4.005 12.276 3.579 4.626-.426 8.43-2.344 11.414-5.752 2.984-3.409 4.273-7.307 3.868-11.695-.405-4.389-2.387-7.978-5.946-10.769-3.56-2.79-7.652-3.973-12.277-3.547-4.625.426-8.429 2.344-11.413 5.752zM114.843 68.988c.277.682.725 1.278 1.343 1.79l3.005-.608 3.005-.415a4.905 4.905 0 00.575-2.333c0-.532-.17-1.15-.511-1.853a6.092 6.092 0 00-1.055-1.566c-.938.192-2.035.863-3.293 2.013l-3.069 2.972zM84.535 70.682c0 1.107.405 2.087 1.215 2.94l6.33-.064c.512-.384.842-.789.991-1.215.15-.362.224-.916.224-1.661l-2.43-1.662c-1.79-1.065-3.186-1.725-4.188-1.981a4.418 4.418 0 00-1.567 1.502 4.19 4.19 0 00-.575 2.14zM184.825 73.973l-.959 1.214a119.318 119.318 0 016.33 7.733c2.217 2.961 3.528 5.028 3.933 6.2l1.087-.384c-.512-1.534-1.791-3.803-3.837-6.806-2.28-3.366-4.465-6.019-6.554-7.957zM67.016 51.094c.66.617 1.087 1.065 1.279 1.342 9.74-5.326 19.576-8.66 29.509-10.002 9.846-1.342 18.937-.628 27.27 2.141l-.096-1.31c-8.546-3.28-18.052-4.165-28.517-2.652-9.996 1.47-19.811 4.963-29.445 10.48zM24.846 98.13c-1.236 3.281-2.461 8.255-3.676 14.923l1.95-2.077c.725-3.728 1.811-7.552 3.26-11.472l-1.534-1.374z" fill="#0D131A"/><path d="M184.826 49.336l-1.055 1.822c5.52 3.6 8.141 6.167 7.864 7.7-.298 1.705-2.44 5.912-6.426 12.623-3.794 6.37-6.149 9.98-7.065 10.832l1.758.224c1.002-.938 3.4-4.506 7.194-10.705 4.049-6.625 6.234-10.843 6.553-12.654.384-2.237-2.557-5.517-8.823-9.842zM143.903 32.784v-1.853c-5.925-1.172-9.964-1.78-12.116-1.822-2.26-.042-4.466 3.569-6.618 10.833a94.625 94.625 0 00-2.59 11.056l1.183.128c.213-2.152 1.226-5.805 3.037-10.96 2.196-6.2 4.082-9.289 5.659-9.267 2.792.042 6.607.67 11.445 1.885z" fill="#0D131A"/><path d="M183.771 59.402c-.085-.746-1.694-2.056-4.827-3.93l-.704.958c2.707 1.598 4.167 2.652 4.38 3.163v.096c0 1.3-1.705 4.666-5.115 10.098-3.282 5.22-5.957 8.968-8.024 11.248l.863.799c1.961-2.13 4.635-5.87 8.024-11.216 3.794-6.008 5.595-9.746 5.403-11.216zM134.921 41.252c1.151-1.918 2.025-2.844 2.621-2.78 1.087.085 2.974.586 5.659 1.502v-1.119c-2.685-.958-4.54-1.48-5.563-1.566-1.215-.127-2.611 1.236-4.188 4.09a37.722 37.722 0 00-2.877 6.807l1.439-.607c.788-2.344 1.758-4.453 2.909-6.327zM50.84 50.71l.319.8.511.702c5.18-2.94 8.782-4.655 10.806-5.145.831-.191 2.068.842 3.709 3.1 1.3 1.81 2.44 3.739 3.42 5.784l1.12-.32-3.261-6.614c-1.663-2.834-3.133-4.09-4.412-3.77-.831.212-2.377.809-4.636 1.788a160.849 160.849 0 00-7.577 3.675zM19.955 75.475c-2.43 2.854-4.262 5.336-5.499 7.445-1.406 2.429-1.896 4.154-1.47 5.177.554 1.3 3.175 3.94 7.864 7.924 2.558 2.173 6.181 5.102 10.87 8.788l1.055-.735c-3.218-2.599-6.67-5.592-10.358-8.98-4.54-4.217-7.076-6.933-7.609-8.148-.34-.767.096-2.12 1.31-4.058 1.173-1.853 2.953-4.08 5.34-6.678l-1.503-.735z" fill="#0D131A"/><path d="M22.513 85.285c.106 1.15 1.907 3.547 5.403 7.19a128.568 128.568 0 009.24 8.723l1.214-.512c-2.941-2.45-6.032-5.347-9.271-8.691-3.474-3.621-5.275-5.89-5.403-6.806.149-.64 1.737-2.29 4.763-4.953l-1.183-.575c-3.24 2.96-4.827 4.835-4.763 5.624zM54.291 58.38l.352 1.15c3.304-2.386 5.286-3.686 5.946-3.899l.64.096c1.279.618 2.962 3.078 5.051 7.382 1.556 3.216 3.005 6.731 4.348 10.544l1.12-.383c-1.258-3.515-2.559-6.732-3.901-9.65-2.409-5.177-4.444-8.17-6.107-8.98l-1.566-.127c-.576.213-2.536 1.502-5.883 3.866zM69.19 75.634c-.704-2.023-1.759-3.685-3.166-4.984-1.918-1.769-4.348-2.738-7.289-2.908l.576 1.246c2.642.277 4.774 1.267 6.394 2.972 1.193 1.278 2.078 2.897 2.653 4.857l.831-1.183zM34.79 86.659c-.192 2.045.01 3.994.607 5.847.96 2.983 2.856 5.209 5.69 6.679l.832-.895c-2.622-1.278-4.401-3.227-5.34-5.848-.617-1.746-.83-3.642-.639-5.687l.256-1.119-1.023-.639a6.605 6.605 0 00-.383 1.662zM64.329 81.195l1.15-1.31c.385-2.024-.202-3.814-1.757-5.369-1.3-1.3-2.825-2.098-4.572-2.397v1.279c2.025.745 3.474 2.034 4.348 3.866a8.32 8.32 0 01.831 3.93zM39.584 87.202c-.17 2.748.426 4.825 1.79 6.23.64.704 1.556 1.258 2.75 1.662l3.357.735 1.023-1.118a9.017 9.017 0 01-3.325-.767c-1.087-.447-1.993-1.054-2.718-1.821-1.236-1.364-1.8-2.94-1.694-4.73l-1.183-.191z" fill="#0D131A"/><path d="M1.86 43.425C.73 46.385.23 49.24.358 51.989c.17 3.344.916 6.401 2.238 9.17 1.428 3.025 3.506 5.592 6.234 7.701 3.069 2.386 8.024 5.71 14.866 9.97l12.852 7.669c2.366 1.32 4.987 1.928 7.865 1.821 3.069-.106 6.063-1 8.983-2.684 2.75-1.597 4.69-4.186 5.819-7.765 1.002-3.216 1.087-6.06.256-8.531-.895-2.663-3.09-8.032-6.586-16.105-3.709-8.585-6.075-13.602-7.098-15.05-1.94-3.004-4.486-5.422-7.64-7.254-3.112-1.832-6.565-2.93-10.359-3.292-3.41-.34-6.927.086-10.55 1.279-3.56 1.171-6.533 2.865-8.92 5.08-2.92 2.684-5.072 5.827-6.458 9.427zm2.59 17.287c-1.364-2.77-2.12-5.667-2.27-8.692a20.01 20.01 0 011.15-7.924c1.216-3.366 3.283-6.423 6.203-9.171 2.195-2.066 5.009-3.6 8.44-4.601 3.39-.98 6.746-1.268 10.07-.863 3.773.468 7.045 1.65 9.816 3.547 2.28 1.555 4.433 3.76 6.458 6.614 1.066 1.491 3.495 6.327 7.289 14.507 3.709 8.032 5.957 13.23 6.746 15.594.746 2.258.692 4.782-.16 7.573-1.002 3.196-2.813 5.507-5.435 6.934-2.877 1.555-5.68 2.44-8.408 2.652-2.728.213-5.137-.266-7.225-1.438-2.43-1.342-6.65-3.972-12.66-7.892-6.544-4.303-11.457-7.701-14.739-10.194-2.153-1.64-3.911-3.855-5.275-6.646z" fill="#0D131A"/><path d="M33.606 39.654a13.742 13.742 0 013.677 4.09 13.404 13.404 0 011.758 5.113c.256 1.81.15 3.61-.32 5.4a14.753 14.753 0 01-2.43 4.921 15.351 15.351 0 01-4.54 3.994 15.499 15.499 0 01-5.85 1.982l-6.138-.32a15.386 15.386 0 01-5.435-2.652 14.276 14.276 0 01-3.676-4.09 13.831 13.831 0 01-1.79-5.113c-.534-3.92.49-7.477 3.068-10.673 2.558-3.174 5.915-5.048 10.071-5.624 2.11-.277 4.156-.16 6.138.352a14.604 14.604 0 015.467 2.62zm4.668 3.483c-1.002-1.704-2.323-3.185-3.965-4.441a16.719 16.719 0 00-5.85-2.813 17.255 17.255 0 00-6.618-.383c-4.476.618-8.099 2.652-10.87 6.103-2.77 3.451-3.858 7.297-3.26 11.536a15.15 15.15 0 001.917 5.56 15.62 15.62 0 003.965 4.41 16.398 16.398 0 005.882 2.843 16.7 16.7 0 006.586.352 16.795 16.795 0 006.266-2.11 16.349 16.349 0 004.892-4.313 15.396 15.396 0 002.621-5.336c.533-1.918.661-3.867.384-5.848a14.824 14.824 0 00-1.95-5.56zM165.004 81.195c4.007-2.408 5.926-5.795 5.755-10.162-.043-1.363-.298-2.759-.767-4.186l-.704-1.885-.927 1.278c.64 2.876.746 5.347.32 7.413-.618 2.94-2.323 5.315-5.115 7.126l1.438.416zM137.669 50.23v1.247c1.45-.447 2.782-.777 3.997-.99l.063-1.215-4.06.959zM140.291 59.21c.405-.916 1.012-1.8 1.822-2.652l-.224-1.374c-1.193 1.001-2.088 2.183-2.685 3.547-.725 1.683-.959 3.493-.703 5.432.895 1.044 1.545 1.619 1.95 1.725-.746-2.982-.799-5.208-.16-6.678zM164.749 70.81c.49-.874.884-1.843 1.183-2.909l-.672.096-.639.16c-.149.469-.394 1.023-.735 1.662-.874 1.47-2.036 2.737-3.485 3.802-1.471 1.044-2.931 1.662-4.38 1.854a14.77 14.77 0 01-3.996-.032l1.47 1.118c.81.511 1.407.735 1.791.671 4.156-.554 7.31-2.695 9.463-6.423z" fill="#0D131A"/><path d="M152.248 9.074c-3.197 3.11-5.35 6.263-6.458 9.458-.81 2.408-1.822 8.053-3.037 16.936-1.236 9.16-1.79 15.498-1.663 19.013.107 3.153.96 6.018 2.558 8.596 1.833 2.982 4.327 4.91 7.481 5.783 3.623 1.001 6.991 1.246 10.103.735 3.048-.511 5.573-1.683 7.577-3.515 3.154-2.854 6.724-6.263 10.71-10.225 5.285-5.262 9.186-9.459 11.701-12.59 2.302-2.833 3.847-5.88 4.636-9.139.831-3.43.863-7.264.095-11.503a27.14 27.14 0 00-3.261-8.916c-2.131-3.664-5.008-6.561-8.631-8.691-3.091-1.79-6.618-2.897-10.583-3.324-3.857-.426-7.491-.127-10.902.895-3.559 1.065-7.001 3.228-10.326 6.487zm-5.147 10.609c1.087-3.451 3.293-6.657 6.618-9.618 3.133-2.812 6.522-4.772 10.166-5.88 3.24-.98 6.49-1.257 9.751-.83 3.261.404 6.405 1.49 9.431 3.258 3.475 2.024 6.192 4.634 8.153 7.83 1.492 2.428 2.494 5.101 3.005 8.02.703 3.898.554 7.828-.448 11.79-.895 3.473-2.227 6.285-3.996 8.437-2.621 3.174-6.426 7.317-11.413 12.43-4.22 4.303-7.662 7.669-10.327 10.097-1.833 1.662-4.166 2.685-7.001 3.068s-5.989.096-9.463-.863c-2.899-.788-5.201-2.513-6.906-5.176-1.513-2.344-2.312-4.953-2.398-7.83l-.032-.83c0-4.24.555-10.15 1.663-17.734 1.066-7.435 2.131-12.825 3.197-16.17z" fill="#0D131A"/><path d="M156.82 16.2c-3.091 3.536-4.423 7.573-3.996 12.11.191 2.13.788 4.133 1.79 6.008a16.12 16.12 0 004.028 4.889 17.59 17.59 0 006.043 3.29c2.238.683 4.561.906 6.969.672 4.774-.447 8.707-2.428 11.797-5.944 3.091-3.536 4.433-7.573 4.028-12.11a15.996 15.996 0 00-1.822-6.007c-.98-1.875-2.312-3.516-3.996-4.921a17.491 17.491 0 00-6.075-3.26 18.695 18.695 0 00-6.969-.67c-4.774.425-8.707 2.406-11.797 5.943zm-2.813 12.014c-.405-4.217.831-7.967 3.708-11.247 2.877-3.281 6.543-5.124 10.998-5.528 2.259-.214 4.433-.011 6.522.607a16.089 16.089 0 015.659 3.067 15.567 15.567 0 013.74 4.538 14.764 14.764 0 011.663 5.56c.383 4.218-.864 7.967-3.741 11.248-2.877 3.28-6.543 5.123-10.998 5.528-2.238.213-4.401 0-6.49-.64a16.699 16.699 0 01-5.69-3.035c-1.556-1.3-2.793-2.812-3.709-4.538a14.236 14.236 0 01-1.662-5.56zM98.506 227.673l.032.926c2.622 1.704 4.327 3.174 5.115 4.41l.256.607c-.234.277-1.066.628-2.494 1.054-1.449.427-3.1.81-4.955 1.151l-1.023 1.757c6.287-1.001 9.73-1.885 10.326-2.652.299-.341.341-.788.128-1.342-.256-.724-1.193-1.821-2.813-3.291-1.577-1.428-3.123-2.61-4.636-3.547l.064.927zM137.35 62.533l-.607 1.534c2.792 2.088 5.573 4.484 8.344 7.19 4.284 4.197 8.611 7.051 12.98 8.563 2.771.98 6.767 1.662 11.989 2.046l3.964.32c7.311.702 13.939 3.28 19.886 7.732 5.307 3.941 8.866 8.308 10.678 13.101 1.257 3.345 1.513 7.083.767 11.216-.64 3.536-1.95 7.062-3.932 10.577-.171 1.086-.469 2.407-.896 3.962 2.984-4.111 5.009-8.031 6.075-11.759 1.492-5.134 1.332-10.172-.48-15.114-2.089-5.73-5.914-10.46-11.477-14.188-5.712-3.834-12.543-6.135-20.493-6.902l-3.996-.32c-5.052-.383-8.803-1.011-11.254-1.885-3.986-1.406-8.046-4.122-12.181-8.148-3.111-3.046-6.234-5.688-9.367-7.925zM59.087 87.617c3.218-3.046 7.15-7.275 11.797-12.686l.416-.51.703-2.909-2.174 2.525c-4.582 5.347-8.461 9.522-11.637 12.526-4.668 4.43-9.122 7.7-13.364 9.81-11.935 5.965-20.088 11.354-24.457 16.169-6.48 7.136-7.513 15.05-3.101 23.742l.863-1.598c-3.026-7.477-1.556-14.582 4.412-21.314 4.604-5.176 12.244-10.438 22.923-15.785 4.326-2.151 8.866-5.475 13.619-9.97z" fill="#0D131A"/><path d="M91.633 239.432l-1.342.799a7.557 7.557 0 01-.608 2.141 32.419 32.419 0 003.389-1.886c2.963-1.896 4.86-4.665 5.69-8.308.683-3.025.566-5.272-.351-6.742l-1.31-.511c.745 1.193.756 3.301.031 6.326-.874 3.665-2.707 6.391-5.499 8.181zM66.12 245.918l5.564.288-.832-1.662-3.484-.223-1.247 1.597zM42.079 226.139c-.852 1.938-.671 4.079.544 6.423 1.087 2.045 2.866 4.068 5.339 6.071l1.662-.799c-2.238-1.832-3.911-3.739-5.02-5.72-1.193-2.13-1.534-4.015-1.022-5.656l-1.503-.319zM200.555 145.263l-1.215 1.374c.533 4.729.607 9.767.224 15.114-.661 8.521-2.505 15.721-5.531 21.601l1.311 1.374c3.815-6.22 5.936-13.825 6.362-22.815.277-5.667-.107-11.216-1.151-16.648z" fill="#0D131A"/><path d="M39.68 178.655c-2.941 3.515-5.158 7.03-6.65 10.545-2.536 5.964-3.314 12.27-2.333 18.917 1.023 6.966 3.069 12.11 6.138 15.433 1.513 1.641 3.932 3.164 7.257 4.57l.288.128c5.584 2.386 11.21 3.579 16.88 3.579 9.762-.043 18.511-3.675 26.248-10.897l-1.822-.958c-6.927 6.007-15.048 9.202-24.362 9.586-6.351.255-11.818-.607-16.4-2.588l-.288-.128c-2.771-1.172-4.902-2.674-6.394-4.506-2.622-3.217-4.423-8.18-5.403-14.89-1.535-10.418 1.044-19.652 7.736-27.705l-.895-1.086zM88.372 248.475c2.259-3.75 3.175-6.423 2.75-8.021-.278-1.022-1.376-2.013-3.294-2.972-2.216-1.107-4.582-1.533-7.097-1.278-3.623.362-6.48 1.747-8.568 4.154-1.748 2.003-2.377 3.675-1.886 5.017.596 1.576 2.525 3.451 5.786 5.624 3.005 1.981 5.084 3.014 6.234 3.1 1.727.127 3.752-1.747 6.075-5.624zm.767-8.117c.49.384.128 1.779-1.087 4.186-1.15 2.344-2.408 4.293-3.773 5.848-1.065 1.214-1.78 1.821-2.141 1.821-.853-.042-2.633-.958-5.34-2.748-2.962-1.981-4.7-3.653-5.21-5.017-.299-.809.351-1.896 1.95-3.259 1.79-1.534 4.007-2.588 6.65-3.163 3.09-.661 6.074.117 8.951 2.332zM68.486 243.682c-.064-1.065-.79-2.173-2.175-3.324-1.385-1.129-3.1-2.055-5.147-2.78-5.008-1.768-9.303-1.651-12.884.352-1.747.959-3.548 3.504-5.403 7.637-1.833 4.026-2.653 7.136-2.461 9.331.106 1.299.596 2.045 1.47 2.236 2.025.405 5.659-.394 10.902-2.396 5.2-1.981 9.367-4.133 12.5-6.455 2.217-1.662 3.283-3.195 3.198-4.601zm-6.81-4.698c1.598.639 2.92 1.438 3.964 2.397.98.873 1.47 1.662 1.47 2.365 0 1.81-3.377 4.26-10.134 7.349-6.756 3.089-11.477 4.367-14.163 3.835-.277-.043-.447-.437-.511-1.183-.17-2.066.533-4.889 2.11-8.468 1.598-3.685 3.133-5.805 4.604-6.359 4.305-1.619 8.525-1.597 12.66.064zM83.832 110.752c6.117 2.343 12.66 3.568 19.63 3.675 6.373.106 13.012-1.236 19.918-4.026 5.605-2.28 9.761-4.698 12.468-7.254l4.668-4.73c2.216-2.343 3.868-3.983 4.955-4.92 1.726-1.491 3.122-2.311 4.188-2.46.874-.128 2.004.33 3.389 1.373 1.3 1.002 2.611 2.525 3.932 4.57 1.151 1.79 1.769 3.025 1.855 3.707l1.055-1.055c-.107-.916-.714-2.247-1.823-3.994-1.215-1.939-2.493-3.43-3.836-4.474a7.064 7.064 0 00-2.526-1.182l-2.206-.128c-1.257.17-2.781 1.023-4.571 2.556-1.087.916-2.846 2.653-5.276 5.209l-4.603 4.665c-2.664 2.493-6.714 4.836-12.149 7.03-6.735 2.727-13.214 4.037-19.438 3.931-6.778-.107-13.15-1.3-19.118-3.579-5.968-2.258-10.433-5.177-13.396-8.756a7.034 7.034 0 00-2.43-1.917c-1.022-.49-2.067-.692-3.133-.607-1.577.149-3.09.682-4.54 1.598-1.491.937-2.61 2.077-3.356 3.419-.938 1.64-1.535 4.409-1.79 8.308a60.62 60.62 0 00.127 9.235l.96 1.182c.383.405.543.319.48-.256l-.033-.447c-.34-2.812-.426-5.741-.256-8.788.192-3.728.757-6.433 1.695-8.116.66-1.172 1.673-2.194 3.037-3.068 1.343-.873 2.685-1.363 4.028-1.47 1.79-.191 3.23.363 4.316 1.662 3.027 3.728 7.62 6.764 13.78 9.107z" fill="#0D131A"/><path d="M137.03 224.892l.128-1.054.192-1.055c-10.892 3.728-22.731 4.25-35.519 1.566-7.588-1.576-14.408-3.93-20.461-7.062-5.2-2.684-10.252-6.934-15.154-12.749-2.494-2.216-4.998-5.465-7.513-9.746-2.43-4.176-3.602-7.094-3.517-8.756l-1.279-.383c-.32 2.215.768 5.496 3.261 9.842 2.387 4.175 4.892 7.381 7.513 9.618 2.43 4.239 6.448 8.148 12.053 11.727 5.414 3.472 11.627 6.231 18.639 8.276 7.204 2.109 14.344 3.185 21.42 3.228 7.587.063 14.333-1.087 20.237-3.452zM75.295 108.387l-8.6-6.518c-2.494-1.491-4.668-1.619-6.522-.384l-.256.863c1.663-1.108 3.56-1.022 5.691.256l9.431 7.094c4.05 2.982 9.463 5.261 16.241 6.838 7.396 1.704 14.259 2.002 20.589.894 7.907-1.384 15.047-4.281 21.42-8.691 3.687-2.535 7.641-6.103 11.861-10.705l1.663-2.013c1.577-1.662 3.271-2.535 5.083-2.62 1.321-.085 2.632.245 3.932.99l-.767-1.118c-1.513-.596-2.782-.863-3.805-.799-1.619.107-3.154.916-4.603 2.429l-1.695 2.077c-4.135 4.516-8.078 8.063-11.829 10.641-6.373 4.367-13.47 7.221-21.292 8.563-6.032 1.044-12.618.788-19.758-.767-6.99-1.533-12.585-3.877-16.784-7.03z" fill="#0D131A"/><path d="M128.078 212.91c-5.413 1.214-11.242 1.97-17.487 2.268-17.2.831-31.342-1.938-42.425-8.308l-.511.863 3.005 1.598c11.168 5.816 24.969 8.18 41.401 7.094 6.011-.384 11.574-1.193 16.689-2.429 4.518-1.086 7.353-2.13 8.504-3.131l-.256-1.119c-1.172 1.023-4.145 2.077-8.92 3.164z" fill="#0D131A"/><path d="M109.696 214.22c6.458-.405 12.469-1.278 18.032-2.621 4.944-1.192 8.035-2.332 9.271-3.419l-.639-.767c-1.002.874-4.125 1.854-9.368 2.94-6.01 1.236-12.351 2.024-19.022 2.365-18.799.916-33.11-2.088-42.936-9.011l1.407 2.556c11.168 6.434 25.587 9.086 43.255 7.957zM151.545 171.976c-4.071 3.239-9.218 6.146-15.442 8.724-6.756 2.812-13.918 4.836-21.484 6.071-18.372 3.047-35.274 1.119-50.705-5.783l.48.671.415.703c16.156 7.2 33.9 8.84 53.231 4.921 7.822-1.577 15.122-3.973 21.899-7.19 6.267-2.961 11.179-6.157 14.739-9.586l-1.567.83-1.566.639z" fill="#0D131A"/><path d="M138.373 177.696c5.243-2.365 9.175-4.633 11.797-6.806l-.639-.767c-2.473 2.045-6.288 4.175-11.446 6.391-6.117 2.641-12.692 4.729-19.725 6.263-16.241 3.493-31.086 3.185-44.535-.927l-1.535.543c7.993 2.834 16.433 4.25 25.32 4.25 6.48 0 13.354-.777 20.622-2.332a100.071 100.071 0 0020.141-6.615zM156.596 135.005l-.672-.703c-3.261 2.983-7.662 5.859-13.203 8.628a86.82 86.82 0 01-20.397 7.126c-17.371 3.77-35.999 1.48-55.885-6.87v1.182c10.55 4.495 20.27 7.296 29.157 8.404 8.931 1.129 18.032.692 27.303-1.31 7.097-1.555 13.918-4.048 20.461-7.477 5.328-2.791 9.74-5.784 13.236-8.98z" fill="#0D131A"/><path d="M155.381 131.554l-.703-.671c-2.686 2.77-6.789 5.539-12.309 8.308-6.543 3.302-13.545 5.752-21.005 7.35-19.992 4.324-38.577 1.779-55.756-7.637l.128 1.374c10.23 5.368 20.94 8.489 32.13 9.362 8.568.661 17.104-.01 25.609-2.013 7.331-1.725 14.162-4.335 20.492-7.829 4.967-2.748 8.771-5.496 11.414-8.244zM203.272 208.756l-1.375.287c1.62 8.18 2.164 15.36 1.631 21.537-.554 6.178-2.185 11.152-4.892 14.923l.768 1.31c3.346-3.792 5.381-8.883 6.106-15.274.767-6.71.021-14.305-2.238-22.783zM162.127 254.131l-.607-1.47-1.503-.48c-.661-.298-1.151-.479-1.471-.543l-.767.863-.831.799 5.179.831zM137.99 207.19a10.582 10.582 0 01-.832-3.132c-1.47 5.688-1.758 12.335-.863 19.94.831 7.179 2.462 13.293 4.892 18.341l1.598-1.342c-1.939-4.537-3.378-9.98-4.316-16.328-.98-6.647-1.14-12.473-.479-17.479z" fill="#0D131A"/><path d="M158.354 253.3c.618-.511.991-1.246 1.119-2.205.149-1.108-.085-2.279-.703-3.515-1.3-2.578-3.325-4.58-6.075-6.007-3.218-1.662-6.724-2.035-10.518-1.119-.725.171-1.407 1.023-2.046 2.557a18.11 18.11 0 00-1.055 3.738c-.405 2.429-.565 4.559-.48 6.391.086 2.45.597 3.973 1.535 4.57 1.535.98 4.401.958 8.6-.064 4.156-1.023 7.364-2.471 9.623-4.346zm-6.586-10.896c2.281 1.15 4.007 2.886 5.179 5.208.661 1.342.992 2.535.992 3.579 0 .618-.118 1.022-.352 1.214-2.046 1.726-4.988 2.961-8.824 3.707-3.666.724-6.149.671-7.449-.16-.597-.383-.97-1.491-1.119-3.323-.128-1.811-.011-3.867.352-6.167.255-1.513.586-2.727.991-3.643.341-.746.65-1.15.927-1.214 3.495-.831 6.596-.565 9.303.799zM199.852 247.005c-.491-2.684-2.675-4.389-6.554-5.113-2.771-.511-6.906-.554-12.405-.128-5.158.405-9.911 1.673-14.259 3.803-4.561 2.237-6.767 4.548-6.617 6.934.021.746.511 1.544 1.47 2.397 2.494 2.236 7.247 4.335 14.259 6.295 7.289 2.023 13.545 2.875 18.766 2.556.619-.043 1.258-.256 1.919-.639.724-.405 1.247-.884 1.566-1.438 1.13-1.917 1.855-4.218 2.174-6.902.277-2.535.171-5.124-.319-7.765zm-6.874-3.771c3.09.469 4.827 1.736 5.211 3.803.448 2.45.49 4.921.128 7.413-.384 2.514-1.108 4.442-2.174 5.784-.639.788-1.375 1.214-2.206 1.278-5.115.298-11.051-.405-17.807-2.109-6.629-1.683-11.094-3.557-13.396-5.624-.703-.618-1.066-1.14-1.087-1.566-.107-1.832 1.854-3.664 5.883-5.496 4.028-1.832 8.536-2.94 13.523-3.323 5.755-.426 9.73-.479 11.925-.16zM181.725 176.322c-2.366-.469-4.966-.724-7.801-.767l.032 1.374c3.176.064 6.149.48 8.92 1.246l-1.151-1.853z" fill="#0D131A"/><path d="M186.488 177.632l-1.247 1.342c5.52 2.088 9.826 5.678 12.916 10.769 2.345 3.813 3.623 7.573 3.837 11.28.447 7.051-.352 12.899-2.398 17.543-2.707 6.114-7.471 9.852-14.291 11.216-4.177.83-8.44 1.427-12.788 1.789-5.733.469-9.847.298-12.341-.511-6.18-2.003-11.402-5.912-15.665-11.727-3.986-5.475-5.872-10.758-5.659-15.85.299-6.838 2.473-12.696 6.522-17.574 4.604-5.561 10.87-8.713 18.799-9.459l-.096-1.374c-8.675.767-15.495 4.069-20.461 9.906-4.305 5.091-6.618 11.248-6.938 18.469-.234 5.369 1.791 11.014 6.075 16.936 4.539 6.306 10.038 10.502 16.496 12.59 2.579.831 7.002.948 13.268.352a131.85 131.85 0 0013.651-2.014c6.437-1.278 11.201-4.367 14.291-9.266 3.154-5.028 4.465-11.802 3.932-20.323-.255-4.154-1.545-8.255-3.868-12.303-3.261-5.666-7.939-9.596-14.035-11.791zM171.622 93.625c-3.175-.022-5.967.543-8.376 1.693-2.387 1.172-4.273 2.855-5.659 5.049-1.854 3.004-2.76 6.497-2.717 10.481.043 3.515.714 6.252 2.014 8.212l1.215-.607c-.959-1.96-1.439-4.527-1.439-7.701 0-3.77.821-6.955 2.462-9.554 1.215-1.96 2.963-3.43 5.243-4.41 2.217-.958 4.817-1.427 7.801-1.406 5.52.043 10.486 1.246 14.898 3.611 4.412 2.365 7.929 5.72 10.55 10.066 1.791 2.961 2.888 6.06 3.293 9.298.405 3.217.085 6.285-.959 9.203.362.384.682.842.959 1.374 1.364-3.302 1.94-6.689 1.727-10.161-.214-3.686-1.29-7.147-3.229-10.385-2.729-4.517-6.608-8.095-11.638-10.737-4.966-2.62-10.347-3.962-16.145-4.026z" fill="#0D131A"/><path d="M200.331 126.665c-2.152-4.047-6.383-7.679-12.692-10.896-6.927-3.536-13.31-4.782-19.15-3.739-3.09.554-5.829 1.726-8.216 3.515-2.366 1.769-4.114 3.931-5.244 6.487-.916 2.088-1.268 4.314-1.055 6.679.192 2.236.842 4.26 1.951 6.071l1.183-.735c-.96-1.555-1.471-3.387-1.535-5.496a14.05 14.05 0 011.183-6.104c1.023-2.343 2.568-4.292 4.636-5.847 2.046-1.555 4.497-2.631 7.353-3.227 5.179-1.044 11.093.127 17.743 3.514 6.139 3.132 10.22 6.594 12.245 10.386a23.96 23.96 0 012.462 7.221c.49 3.004.309 5.699-.544 8.085-.767 2.13-2.035 3.919-3.804 5.368.277.319.469.746.575 1.278 1.215-.937 2.185-1.811 2.909-2.62.917-1.044 1.578-2.141 1.983-3.291.852-2.386 1.097-5.06.735-8.021-.341-3.004-1.247-5.879-2.718-8.628zM188.12 176.865c.788-1.427 2.11-4.452 3.964-9.075l1.087-2.62c-.448.511-1.055.937-1.822 1.278l-.352.895c-3.048 7.584-5.222 11.173-6.522 10.768-.916-.276-1.844-1.384-2.781-3.323-.682-1.427-1.279-3.089-1.791-4.985l-1.47.032c.596 2.173 1.278 4.101 2.046 5.784 1.215 2.684 2.44 4.207 3.676 4.569 1.215.384 2.537-.724 3.965-3.323zM151.609 153.858c-.192-1.001-.373-1.651-.543-1.949-2.11 2.791-3.219 6.359-3.325 10.705-.064 2.769.266 5.634.991 8.596.362 1.469.81 2.268 1.343 2.396 1.236.426 5.115-2.098 11.637-7.573l-1.311-.831c-1.321 1.087-3.069 2.354-5.243 3.803-2.536 1.725-4.092 2.577-4.668 2.556-.191-.17-.405-.735-.639-1.694-.277-1.15-.458-2.513-.544-4.09l-.063-1.693c0-4.431.788-7.84 2.365-10.226zM163.086 167.215l-1.631-.735c.086 2.152.576 4.889 1.471 8.212.98 3.707 1.982 6.072 3.005 7.094.49.49 1.002.693 1.535.607 1.47-.277 3.271-1.597 5.403-3.962 2.131-2.407 3.943-5.155 5.435-8.244l-1.503.351c-1.385 2.706-3.058 5.039-5.019 6.998-1.791 1.769-3.293 2.77-4.508 3.004-.128.021-.298-.074-.512-.288-.809-.83-1.609-2.769-2.397-5.815-.704-2.727-1.13-5.134-1.279-7.222z" fill="#0D131A"/><path d="M154.007 136.348c-2.004 1.959-3.304 3.962-3.901 6.007-.618 2.152-.661 4.633-.128 7.445.554 2.834 1.609 5.603 3.165 8.308 1.748 3.025 3.89 5.56 6.426 7.605 2.515 2.046 5.201 3.42 8.057 4.123 4.305 1.065 8.611 1.352 12.916.862 4.412-.511 8.099-1.768 11.062-3.77 1.683-1.129 3.09-2.578 4.22-4.346 1.129-1.747 1.811-3.515 2.046-5.304.724-5.092.074-9.661-1.95-13.709-2.004-4.09-5.265-7.392-9.783-9.906-3.965-2.194-8.089-3.483-12.373-3.866-4.39-.362-8.579.266-12.564 1.885-2.728 1.108-5.126 2.663-7.193 4.666zm.671 21.409c-1.513-2.62-2.568-5.273-3.165-7.957-.618-2.769-.64-5.123-.064-7.062.533-1.789 1.694-3.515 3.485-5.176 1.79-1.662 3.975-3.015 6.554-4.058a26.68 26.68 0 0111.956-1.918c4.135.277 8.057 1.449 11.766 3.515 4.284 2.386 7.385 5.496 9.303 9.331 1.918 3.834 2.547 8.138 1.886 12.909-.447 3.217-2.238 5.891-5.371 8.021-2.856 1.938-6.202 3.185-10.039 3.739-3.879.553-7.832.34-11.861-.639-2.834-.703-5.498-1.939-7.992-3.707-2.707-1.939-4.86-4.271-6.458-6.998zM56.338 121.297c-3.495-3.132-7.982-4.921-13.46-5.368-5.733-.469-10.89.745-15.473 3.642-5.243 3.302-8.76 8.309-10.55 15.019-1.556 5.773-1.29 11.003.8 15.689 1.81 4.027 4.581 7.009 8.311 8.948l.64-1.215c-3.07-1.597-5.403-4.015-7.002-7.253-2.195-4.367-2.493-9.523-.895-15.466 1.641-6.135 4.742-10.822 9.303-14.06 4.007-2.854 8.558-4.229 13.652-4.122 4.86.085 8.983 1.438 12.372 4.058 3.602 2.791 5.425 6.338 5.467 10.641 0 .298.416.799 1.247 1.502.767-4.666-.703-8.67-4.412-12.015z" fill="#0D131A"/><path d="M26.86 149.704c-.874 2.961-1.225 5.816-1.055 8.564.15 2.62.767 4.889 1.854 6.806.98 1.726 2.26 3.142 3.837 4.25 1.769 1.236 3.804 1.992 6.106 2.269v-1.438c-4.156-1.385-7.012-3.483-8.568-6.295-1.96-3.43-2.089-7.989-.383-13.676 1.577-5.411 4.486-10.066 8.727-13.964 4.988-4.602 10.37-6.444 16.145-5.528 4.434.703 7.705 2.769 9.815 6.199 1.13 1.81 1.844 3.866 2.142 6.167.256 1.96.192 3.579-.192 4.857l1.311.383c.49-1.555.693-3.291.608-5.208-.107-2.642-.789-4.974-2.046-6.998-1.109-1.79-2.707-3.281-4.796-4.474-1.96-1.129-4.167-1.885-6.618-2.269-6.18-.979-11.978.927-17.392 5.72-4.667 4.112-7.832 8.99-9.495 14.635zM72.483 155.871l-.544 1.758c1.748 1.576 3.41 4.154 4.987 7.733 1.492 3.408 1.961 5.326 1.407 5.752l-4.06-.224-3.261-.895-.288.927 3.58.958c2.473.576 4.2.757 5.18.544.405-.064.671-.33.8-.799.298-1.236-.672-3.973-2.91-8.212-2.11-4.005-3.74-6.519-4.891-7.542zM53.812 184.95l-1.503.191-1.47.192c3.793 1.108 7.086 1.896 9.878 2.365 2.963.468 4.678.447 5.147-.064.405-.448.352-1.555-.16-3.323-.447-1.577-1.001-2.94-1.662-4.091l-.831.512a18.209 18.209 0 011.598 3.643c.427 1.32.49 2.119.192 2.396l-3.964-.192c-2.238-.383-4.646-.926-7.225-1.629z" fill="#0D131A"/><path d="M71.651 170.634l-.607.895c1.278 1.896 2.28 3.664 3.005 5.304.98 2.216 1.183 3.75.607 4.602-.277.341-1.492.436-3.644.287a37.62 37.62 0 01-7.162-1.246c-.128.298-.415.554-.863.767 2.77.81 5.435 1.385 7.993 1.726 3.047.383 4.795.234 5.243-.448 1.215-1.789-.31-5.752-4.572-11.887z" fill="#0D131A"/><path d="M55.187 146.413c-3.304.874-6.287 2.471-8.952 4.793-2.77 2.386-4.955 5.337-6.553 8.852-2.43 5.325-3.25 10.15-2.462 14.475.746 4.047 2.728 6.987 5.946 8.819 4.071 2.322 7.769 3.249 11.094 2.78 3.73-.532 7.907-2.897 12.532-7.094 2.28-2.066 4.05-4.612 5.307-7.637 1.194-2.897 1.79-5.954 1.79-9.171v-.862c-.085-6.327-2.056-10.801-5.914-13.421-3.453-2.365-7.715-2.876-12.788-1.534zm-8.088 5.848c2.536-2.216 5.339-3.718 8.408-4.506 3.346-.852 6.724-.255 10.134 1.79 4.135 2.471 6.384 6.401 6.746 11.791.15 2.407-.181 4.814-.991 7.221-1.108 3.324-3.037 6.231-5.787 8.724-4.56 4.133-8.6 6.38-12.116 6.742-2.58.277-5.744-.564-9.495-2.524-3.134-1.619-4.977-4.325-5.531-8.117-.555-3.791.266-8.041 2.461-12.749 1.578-3.345 3.634-6.135 6.17-8.372zM100.264 51.669l.639 3.131c.235 1.13.427 1.651.576 1.566.362-.213.362-1.576 0-4.09-.149-.916 0-1.62.448-2.11.277-.319.799-.627 1.566-.926 2.089-.767 5.488-.82 10.199-.16 4.326.618 7.545 1.46 9.655 2.525.81.405 1.289.532 1.438.383.149-.17-.106-.5-.767-.99 1.471-.895 3.719-1.62 6.746-2.173l5.083-.224c1.108.98 1.662 2.908 1.662 5.784 0 2.343-.213 4.548-.639 6.614-.341 1.683-.767 3.057-1.279 4.122-.746-.532-1.161-.713-1.247-.543-.085.17.086.586.512 1.246.597.938 1.289 2.376 2.078 4.314 1.044 2.535 1.684 4.655 1.918 6.36.213 1.426.309 2.566.288 3.418l-.192 2.62.288.895c.149.384.277.543.383.48.171-.405.352-1.108.544-2.11.234-1.107.352-1.97.352-2.588 0-2.364-.363-4.793-1.087-7.285-.768-2.663-1.759-4.708-2.974-6.135a60.588 60.588 0 001.503-4.282c.81-2.663 1.215-5.007 1.215-7.03 0-3.387-.703-5.71-2.11-6.966-.789-.682-2.654-.757-5.595-.224-3.133.554-5.829 1.555-8.088 3.004-3.027-1.406-6.565-2.344-10.615-2.812-4.134-.49-7.363-.298-9.687.575-.895.32-1.694.97-2.397 1.95-1.62-1.833-5.009-1.886-10.167-.16-4.07 1.363-7.14 2.833-9.207 4.41l-8.632.255c-2.345.404-3.933 1-4.764 1.79-.34.34-.511.98-.511 1.916 0 1.577.426 3.611 1.278 6.104.81 2.407 1.78 4.59 2.91 6.55-1.62 4.218-2.121 8.468-1.503 12.75.448 3.004 1.023 4.857 1.727 5.56.277.298.628.256 1.054-.128.427-.383.49-.905.192-1.566-.532-1.107-.937-3.035-1.215-5.783-.34-3.558-.127-6.764.64-9.618.554.255.842.202.863-.16.021-.341-.138-.693-.48-1.055-.383-.447-1.214-2.332-2.493-5.656-1.364-3.578-2.046-5.932-2.046-7.061 0-.576.096-.96.288-1.15.575-.576 2.227-1.002 4.955-1.279 2.75-.298 5.36-.309 7.833-.032.746.085 1.353 0 1.822-.256.511-.277.277-.564-.703-.862.255-.277 1.236-.767 2.94-1.47a46.64 46.64 0 015.788-2.013c5.456-1.513 8.46-1.321 9.015.575z" fill="#0D131A"/><path d="M127.31 53.874l5.276 7.03c.319-1.3.607-2.642.863-4.027.511-2.748.565-4.292.16-4.633-.725-.618-2.824-.075-6.299 1.63z" fill="#0D131A"/><path d="M133.386 52.5c.107.106.16.373.16.799 0 1.278-.373 3.547-1.119 6.806l-4.604-6.072c3.134-1.533 4.988-2.045 5.563-1.533zm-6.234 1.086c-.469.298-.501.565-.096.799.256.17 1.066 1.15 2.43 2.94l2.558 3.419c.319.447.554.618.703.511l.16-.287c1.364-5.347 1.673-8.34.927-8.98-.853-.745-3.08-.213-6.682 1.598zM72.322 58.57c0 .704.576 2.866 1.727 6.488l5.115-6.487-3.868-.511c-1.961-.128-2.952.042-2.974.51z" fill="#0D131A"/><path d="M78.717 58.06c-3.56-.575-5.712-.586-6.458-.032l-.288.543c0 .533.234 1.683.703 3.451.47 1.747.821 2.79 1.055 3.132.192.298.373.415.544.351l.511-.48c2.515-3.557 3.954-5.506 4.316-5.847.661-.618.533-.99-.383-1.118zm-6.043.543l2.43-.224 3.453.416-4.348 5.528c-1.023-3.26-1.535-5.166-1.535-5.72zM108.001 62.182c-.064-.575-.171-.756-.32-.543-.149.213-.213.67-.192 1.374.043 1.107.299 2.343.767 3.706.469 1.449.96 2.322 1.471 2.62.49.299.778.341.863.128.086-.191-.032-.51-.351-.958-.299-.448-.736-1.47-1.311-3.068-.554-1.598-.863-2.684-.927-3.26zM98.826 64.387c.064-1.066-.01-1.683-.223-1.854-.213-.17-.384.31-.512 1.438-.256 2.343-.692 4.197-1.31 5.56-.363.788-.512 1.3-.448 1.534.085.234.415.096.99-.415.534-.469.917-1.385 1.152-2.748l.352-3.515zM108.193 70.138c-1.342-.532-2.525-.767-3.548-.703-2.601.17-4.679 1.012-6.235 2.525-.511.49-.714.82-.607.99.085.15.341.053.767-.287.405-.341 1.194-.703 2.366-1.087 1.279-.426 2.44-.681 3.485-.767l2.973.16c.895.15 1.652.352 2.27.607l.959.256c.128-.043.053-.192-.224-.447-.362-.363-1.097-.778-2.206-1.247zM117.816 76.561c.661-.298 1.012-.67 1.055-1.118.043-.469-.352-.703-1.183-.703-.853 0-1.822.564-2.909 1.693-.981 1.002-1.631 1.95-1.95 2.844-.235.703-.203 1.066.095 1.087.256 0 .523-.213.8-.64.788-1.235 2.152-2.29 4.092-3.163zM104.133 78.862c-2.515.34-4.497 1.236-5.947 2.684-.532.533-.788.937-.767 1.214.022.256.341.16.96-.287 1.854-1.427 4.07-2.226 6.649-2.397 2.408-.17 4.636.203 6.682 1.119l1.023.064c.064-.235-.203-.533-.799-.895-2.409-1.385-5.009-1.886-7.801-1.502zM97.1 81.067c-.597-.874-1.524-1.651-2.781-2.333-1.386-.745-2.547-1.012-3.485-.799-.256.064-.437.352-.544.863-.085.533.064.799.448.799.682 0 1.545.16 2.59.48 1.385.404 2.408.969 3.069 1.693.426.468.714.575.863.32.17-.256.117-.597-.16-1.023zM114.715 70.65l-.383-.831 3.676-3.26c2.451-1.96 4.711-3.344 6.778-4.154a15.78 15.78 0 011.662 2.397c.832 1.491 1.354 3.014 1.567 4.57l-6.586.35-4.444.64-2.27.288zm12.661-6.232c-.235-.426-.864-1.171-1.887-2.236.725-.363 1.151-.725 1.279-1.087.128-.405-.479-.373-1.822.096-2.174.767-4.444 2.066-6.81 3.898-2.025 1.577-3.453 2.972-4.284 4.186-.447.682-.597 1.034-.447 1.055l.383-.16.352.607-.288.32c-.021.213.373.287 1.183.224l6.362-.608 7.066-.351c1.214.085 1.833 0 1.854-.256.042-.255-.458-.5-1.503-.735-.192-2.045-.671-3.696-1.438-4.953zM82.585 65.09c-1.556-.256-2.334-.203-2.334.16.021.34.533.585 1.534.734-.682.448-1.321 1.279-1.918 2.493-.746 1.448-1.087 2.897-1.023 4.346-.767.127-1.161.32-1.183.575-.021.234.416.351 1.311.351l7.737.096 7.48.256c.619.085.875.01.768-.224l-.351-.351c.213-.277.351-.544.415-.8l.576.033c.128-.107 0-.362-.384-.767-1.151-1.193-2.867-2.471-5.147-3.835-2.814-1.683-5.307-2.705-7.481-3.067zm-2.942 7.765c.15-1.172.565-2.45 1.247-3.835.576-1.193 1.183-2.13 1.823-2.812 2.152.32 4.593 1.31 7.32 2.972 1.748 1.065 3.22 2.13 4.413 3.195l-.416.927-7.8-.352-6.587-.095z" fill="#0D131A"/><path d="M121.333 63.78l-.576.447c1.109.767 1.663 1.832 1.663 3.195 0 1.023-.331 1.886-.991 2.588l1.023-.16a4.75 4.75 0 00.671-2.428c0-1.512-.597-2.727-1.79-3.643zM115.13 68.7l-.543.576a4.33 4.33 0 001.119 1.533l.831-.223a3.564 3.564 0 01-1.407-1.886zM92.944 70.682c0 1.257-.512 2.268-1.535 3.035l.96.064c.767-.788 1.182-1.757 1.246-2.908l-.735-.703.064.512zM84.183 70.682c0 1.086.363 2.055 1.087 2.907h.991c-.767-.639-1.15-1.619-1.15-2.94 0-1.618.65-2.758 1.95-3.418l-.832-.32a4.79 4.79 0 00-1.47 1.598 4.363 4.363 0 00-.576 2.173zM88.851 70.49c0 .618.096 1.129.288 1.534.192.426.437.639.735.639.277 0 .512-.213.704-.64.191-.425.287-.937.287-1.533 0-.597-.096-1.097-.287-1.502-.192-.426-.427-.64-.704-.64-.277 0-.522.214-.735.64-.192.405-.288.905-.288 1.502zM116.474 67.997c0 .533.106 1.002.319 1.406.192.384.437.576.736.576.277 0 .522-.192.735-.576.192-.383.288-.852.288-1.406 0-.553-.096-1.022-.288-1.406-.213-.383-.458-.575-.735-.575-.299 0-.544.192-.736.575-.213.384-.319.853-.319 1.406z" fill="#0D131A"/><path d="M86.039 69.18c0 .681.32 1.022.959 1.022.277 0 .5-.085.671-.255.192-.192.288-.448.288-.767 0-.32-.096-.576-.288-.767a.787.787 0 00-.64-.32.91.91 0 00-.702.32c-.192.192-.288.447-.288.767zM118.999 66.528c0 .276.107.521.32.734a.996.996 0 00.735.288.997.997 0 00.736-.287 1.01 1.01 0 00.319-.736.91.91 0 00-.319-.703 1.012 1.012 0 00-.736-.319 1.01 1.01 0 00-.735.32.91.91 0 00-.32.703z" fill="white"/><path d="M80.603 84.038c.149-.703.096-1.033-.16-.99-.256.064-.586.522-.991 1.374l-.448 1.853-.16 1.694c.086 1.725.704 2.918 1.855 3.579.98.532 2.504.766 4.571.703 1.258-.043 2.665-.341 4.22-.895l4.636-1.79a76.747 76.747 0 015.723-1.661l5.339-1.118 7.033-.48 7.577.096 6.043.288c2.983.02 4.966-.778 5.946-2.397.32-.575.48-1.225.48-1.95 0-.638-.139-1.32-.416-2.044-.362-.916-.853-1.609-1.471-2.077-.618-.49-.98-.693-1.087-.607-.064.085.064.351.384.799.341.49.618 1.267.831 2.332.235 1.214.192 2.088-.128 2.62-.873 1.47-2.504 2.195-4.891 2.173l-5.659-.096-8.024-.16-7.481.512c-2.665.383-6.01 1.267-10.04 2.652L89.49 90.11c-1.64.511-2.856.767-3.644.767-1.087.02-2.1-.118-3.037-.416-1.066-.34-1.833-.841-2.302-1.502-.533-.767-.501-2.407.096-4.92z" fill="#0D131A"/><path d="M79.74 84.39c-5.84.106-8.781 2.63-8.824 7.573 0 1.832.405 3.813 1.215 5.944.704 1.832 1.513 3.302 2.43 4.409 3.282 4.005 8.739 6.732 16.369 8.181a61.261 61.261 0 0017.551.734c11.169-1.107 19.769-4.388 25.801-9.841 5.754-5.177 7.726-10.865 5.914-17.064-.597-2.066-1.652-3.621-3.165-4.665-1.769-1.236-4.039-1.715-6.81-1.438-.213.383.022.639.704.767 1.556-.107 3.026.34 4.412 1.342 1.385 1.001 2.44 2.396 3.165 4.186.895 2.215.916 4.654.064 7.317-.896 2.748-2.59 5.347-5.084 7.797-5.946 5.816-14.44 9.267-25.48 10.353l-4.156.224-8.888-.415c-8.93-1.044-15.26-3.856-18.99-8.436-1.237-1.513-2.142-3.398-2.718-5.656-.533-2.11-.66-3.973-.383-5.592.213-1.342.905-2.44 2.078-3.291 1.15-.831 2.6-1.321 4.348-1.47l.223-.416.224-.543z" fill="#0D131A"/></g><defs><clipPath id="clip0_2621_785"><path fill="white" transform="matrix(-1 0 0 1 208.835 .065)" d="M0 0h208.67v264.225H0z"/></clipPath></defs></svg>