<svg width="203" height="201" fill="none" xmlns="http://www.w3.org/2000/svg"><path d="M135.789 43.176l-108.09 83.232c-1.114.123-2.77-.154-4.966-.831-2.754-.862-5.369-2.139-7.844-3.832-7.054-4.801-11.324-11.694-12.81-20.681-1.453-8.617-.123-17.865 3.992-27.744 1.362-3.262 3.032-6.632 5.013-10.11l3.62-6.047c2.939-5.2 5.368-10.34 7.286-15.418 3.187-8.494 4.053-14.773 2.599-18.835l1.485.185c1.114.215 2.011.615 2.692 1.2-.093-.985-.356-2.139-.79-3.462-.896-2.708-2.18-4.986-3.851-6.832l5.012-.693c4.239.03 8.54 1.231 12.902 3.6l-.325-2.538c-.123-1.724.047-2.678.511-2.862.712-.277 1.733.4 3.063 2.03.031-1.353.325-2.892.882-4.615 1.083-3.386 2.908-5.94 5.476-7.663L54.2 5.922c2.382 3.355 5.29 5.678 8.725 6.97 3.001 1.17 9.808 2.063 20.42 2.678 10.273.616 17.513 1.877 21.721 3.785l4.455.37c3.62.461 6.962 1.308 10.025 2.539 9.87 3.97 15.285 10.94 16.244 20.912z" fill="#68AE28"/><path d="M5.282 110.112c-6.992-13.11-5.321-28.175 5.013-45.194-5.23 13.757-3.466 24.76 5.29 33.007 3.806 3.57 8.602 6.186 14.388 7.848 5.662 1.6 11.664 2.123 18.007 1.569l-21.627 19.435c-3.156-.277-6.668-1.8-10.536-4.57a35.785 35.785 0 01-10.535-12.095z" fill="#56931F"/><path d="M178.208 37.082c2.753 1.2 5.151 5.278 7.193 12.233 1.826 6.31 2.445 10.772 1.857 13.388 3.651 4.216 7.209 12.448 10.674 24.697 3.93 13.726 4.595 23.712 1.996 29.96-.835 2-3.28 4.724-7.333 8.171-4.208 3.631-8.369 6.432-12.484 8.401l2.088 3.37c1.671 2.955 3.171 6.14 4.502 9.556 4.239 11.018 6.002 22.435 5.291 34.253-.217 3.755-3.342 6.832-9.375 9.233-5.91 2.308-12.206 3.077-18.889 2.308-2.259-.308-5.245-2.939-8.958-7.894-4.238-5.755-6.76-11.726-7.564-17.911-5.663 3.262-10.443 5.462-14.341 6.601l-1.207 2.031a26.435 26.435 0 01-3.713 4.616c-4.486 4.555-9.792 7.094-15.919 7.617-6.095.524-10.829.047-14.201-1.431-1.052-.461-1.919-1-2.6-1.615l-.65-.785-37.081 1.246-3.806 3.324c-3.403 2.247-7.333 3.431-11.788 3.555-6.095.184-10.891-.37-14.387-1.662-4.394-1.662-7.519-4.694-9.375-9.094-2.692-6.34-4.115-13.603-4.27-21.79-.217-10.648 2.181-19.357 7.194-26.128 4.826-6.524 11.123-13.172 18.889-19.942 2.166-1.878 8.06-6.648 17.682-14.31 4.92-3.879 9.298-7.633 13.134-11.265 3.899-3.693 6.266-6.34 7.101-7.94a234.202 234.202 0 013.527-18.65c2.94-12.618 5.786-19.358 8.54-20.22 2.754-.83 6.807.047 12.159 2.632 2.661 1.323 5.044 2.708 7.148 4.155l3.156-1.108c2.784-.831 5.832-1.539 9.142-2.124 10.582-1.815 21.813-1.923 33.695-.323 1.794-1.908 5.754-3.754 11.881-5.54 5.909-1.723 9.607-2.261 11.092-1.615z" fill="#7CBEB3"/><path d="M186.608 55.455l.929 7.248-4.781-7.063c.495-2.062.712-4.847.65-8.356l-.278-4.616c1.423 3.047 2.583 7.309 3.48 12.787zM80.328 63.626c2.507-11.448 4.966-18.065 7.38-19.85a168.84 168.84 0 00-.604 19.711c.124 3.817.526 9.633 1.207 17.45.402 4.647-.078 8.771-1.439 12.372-1.207 3.139-2.784 5.278-4.734 6.416-1.918 1.108-3.496.862-4.734-.738-1.33-1.754-1.779-4.77-1.346-9.048.867-8.525 2.29-17.296 4.27-26.313zM164.099 180.973c2.383 4.431 5.229 7.201 8.54 8.309l-1.764 3.508c-4.672.924-8.802-.292-12.392-3.647-4.3-4.093-8.106-11.525-11.417-22.296-5.352 3.231-11.293 5.647-17.821 7.247-6.436 1.601-14.171 2.57-23.206 2.908-1.423.462-2.459 1.447-3.109 2.955-.65 1.446-.665 2.754-.046 3.924l-2.599 3.047-5.57-3.37c.155-1.047 1.021-4.17 2.6-9.371 1.546-4.986 2.52-9.31 2.923-12.972 1.176-10.956-1.887-20.866-9.19-29.729 6.498 6.493 17.884 10.571 34.159 12.233 17.389 1.754 32.163.184 44.322-4.709-3.898 2.493-6.683 6.371-8.354 11.633-1.485 4.74-1.934 9.987-1.346 15.742.588 5.54 2.011 10.402 4.27 14.588zM13.404 154.475c1.33 10.802 7.271 17.742 17.822 20.82 4.053 1.169 8.323 1.6 12.81 1.292 4.083-.277 7.44-1.077 10.07-2.4l3.388 11.356c-2.413 2.339-5.662 4.17-9.746 5.493-8.168 2.647-16.383 1.493-24.644-3.462-3.991-2.4-6.853-8.494-8.586-18.281a89.366 89.366 0 01-1.114-10.017c-.155-2.831-.155-4.432 0-4.801z" fill="#68A198"/><path d="M112.769 79.23c1.207-.216 2.491-.016 3.852.6-4.672 3.57-7.116 9.047-7.333 16.433-.216 6.74 1.331 13.065 4.641 18.973-6.497-.707-11.076-2.185-13.737-4.431-.774-.677-1.099-2.57-.975-5.678.124-3.232.696-6.617 1.717-10.156 2.661-9.418 6.606-14.665 11.835-15.742z" fill="white"/><path d="M128.828 96.817c1.454 3.878 2.351 7.371 2.692 10.479.371 3.324 0 5.54-1.114 6.648-.743.738-2.738 1.246-5.987 1.523-3.311.246-6.807.17-10.489-.231-3.311-5.908-4.858-12.233-4.641-18.973.217-7.386 2.661-12.864 7.333-16.434 4.61 2.124 8.679 7.787 12.206 16.988zM183.174 76.92c3.868 3.14 6.173 7.833 6.915 14.08.464 3.91.279 9.403-.557 16.481-1.361.523-2.676.877-3.944 1.062-1.3.215-2.275.215-2.924 0-1.826-.585-2.739-5.232-2.739-13.942-.03-8.894 1.052-14.787 3.249-17.68z" fill="#D60040"/><path d="M183.174 76.92c.557-.769 1.145-1.215 1.764-1.338 3.001-.646 5.91 3 8.725 10.94 2.754 7.88 3.295 13.511 1.624 16.896-.773 1.601-2.691 2.955-5.754 4.063.835-7.079 1.021-12.572.556-16.48-.742-6.248-3.047-10.941-6.915-14.08z" fill="white"/><path d="M155.93 72.212c-.897.339-3.233-.6-7.008-2.816-3.96-2.277-5.863-4.14-5.708-5.586.216-1.908 3.419-4.539 9.607-7.894 6.281-3.385 10.458-4.631 12.531-3.739 1.33.554.634 3.816-2.089 9.787-2.754 6.001-5.198 9.417-7.333 10.248zM135.279 76.182c-.093-.4.371-1.154 1.392-2.262 1.052-1.138 1.996-1.815 2.831-2.03l1.021 1.43c.866 1.447 1.733 3.478 2.599 6.094l-.603 1.43c-.588 1.047-1.315 1.77-2.182 2.17l-2.227-2.123c-1.547-1.693-2.491-3.262-2.831-4.709zM171.154 86.246c.959 5.447 1.036 8.494.232 9.14-.712.585-2.878.354-6.498-.692-3.651-1.047-5.724-2.062-6.219-3.047.155-2.278 1.331-5.124 3.528-8.54 2.258-3.416 4.084-5.124 5.476-5.124 1.361 0 2.522 2.754 3.481 8.263zM173.938 166.523c-.124-1.754.959-4.262 3.249-7.524 2.228-3.201 3.837-4.74 4.827-4.616 1.485.153 2.506 3.246 3.063 9.278.526 6.063.046 9.341-1.439 9.833-1.64.554-3.604.246-5.894-.923-2.63-1.385-3.899-3.401-3.806-6.048zM26.817 140.58l7.658.323c3.434.677 5.415 1.431 5.94 2.262.867 1.385.294 4.309-1.717 8.771-1.98 4.432-3.65 6.709-5.012 6.832-1.176.092-3.558-1.077-7.147-3.508-3.62-2.432-5.415-4.124-5.384-5.078.031-1.231.634-2.985 1.81-5.263 1.3-2.554 2.584-4.001 3.852-4.339zM70.953 101.018c.805 1.385-.495 5.232-3.898 11.541-3.404 6.309-6.018 9.663-7.843 10.063-1.671.4-4.394-.323-8.169-2.169-3.558-1.693-5.925-3.247-7.1-4.663-.372-.461-.124-1.816.742-4.062l1.392-3.278 6.22-4.893c4.207-3.293 6.559-5.001 7.054-5.124l5.801.508c3.404.584 5.337 1.277 5.801 2.077z" fill="#006359"/><path d="M118.06 84.492c.99 0 1.856.969 2.599 2.908.742 2.062 1.098 4.631 1.067 7.709-.062 2.924-.464 5.232-1.206 6.925-.681 1.538-1.516 2.308-2.507 2.308-.928 0-1.732-.831-2.413-2.493-.742-1.754-1.145-3.97-1.207-6.648-.123-3.231.217-5.862 1.021-7.893.712-1.878 1.594-2.817 2.646-2.817zM180.992 85.507l.929-4.154c.371-.493.727-.724 1.067-.693.557.03 1.083.631 1.578 1.8.712 1.57 1.098 3.786 1.16 6.648.031 2.708-.216 4.816-.742 6.324-.495 1.355-1.114 2.032-1.857 2.032-.464 0-.928-.339-1.392-1.016-.495-.739-.835-1.708-1.021-2.908-.371-2.124-.278-4.801.278-8.033z" fill="white"/><path d="M161.222 46.361a110.949 110.949 0 00-25.758-1.893c-9.344.37-17.93 1.878-25.758 4.524-.278.093-.665-.215-1.16-.923-.526-.708-.65-1.123-.371-1.246 8.88-2.986 18.502-4.586 28.867-4.801 9.097-.216 17.404.63 24.923 2.539 3.836.984 5.662 1.708 5.476 2.17l-6.219-.37zM186.284 59.24c6.281 9.048 10.86 19.543 13.737 31.484 2.507 10.402 3.125 18.45 1.857 24.143-1.393 6.309-8.323 12.772-20.792 19.389-12.376 6.586-24.335 10.232-35.876 10.94-12.345.739-23.963-.277-34.854-3.047-10.89-2.769-17.914-6.509-21.07-11.217-1.021-1.539-1.346-2.478-.975-2.816.402-.339 1.315.261 2.738 1.8 4.177 4.555 11.618 8.033 22.324 10.433 10.179 2.278 20.807 3.078 31.884 2.401 11.572-.708 23.252-4.324 35.04-10.849 11.324-6.278 17.605-12.218 18.843-17.819 1.299-5.816.758-13.664-1.625-23.543-2.661-11.048-6.915-20.989-12.763-29.821-2.413-3.663-3.357-5.694-2.831-6.094.495-.4 1.949 1.139 4.363 4.616zM78.75 80.383c-2.042 3.816-6.173 8.356-12.392 13.618-3.713 3.108-9.962 8.033-18.75 14.772-8.013 6.34-14.201 11.926-18.564 16.758-6.002 6.647-9.994 13.187-11.974 19.619-2.382 7.725-2.506 16.403-.37 26.036 1.98 9.079 4.795 14.68 8.446 16.803 3.93 2.278 9.22 3.278 15.872 3.001 6.869-.277 11.618-1.877 14.248-4.801 4.053-4.524 5.631-11.848 4.734-21.974-.928-10.34-4.084-18.588-9.468-24.743-2.104-2.431-3-3.909-2.691-4.432.309-.523 1.624.447 3.944 2.909 6.776 7.232 10.551 16.08 11.325 26.543.711 9.941-1.377 17.635-6.266 23.082-2.94 3.293-8.23 5.139-15.872 5.54-7.395.4-13.258-.662-17.59-3.186-4.393-2.554-7.611-8.586-9.653-18.096-2.073-9.786-1.872-18.834.603-27.144 1.887-6.278 5.616-12.571 11.185-18.88 4.053-4.617 9.917-10.018 17.59-16.204l19.028-15.326C69.004 88.4 74.125 83 77.497 78.075c.155-.216.433.046.835.785.434.77.573 1.277.418 1.523z" fill="#0D131A"/><path d="M90.12 39.621c1.919-.616 5.152 0 9.7 1.846 4.58 1.878 8.339 4.17 11.278 6.879 2.321 2.154 3.218 3.37 2.692 3.647-.495.307-1.918-.447-4.27-2.262-3.032-2.278-6.544-4.201-10.535-5.77-3.898-1.57-6.513-2.124-7.843-1.663-2.166.708-4.672 6.17-7.519 16.388-3.001 10.803-4.95 22.128-5.848 33.976-.247 3.416-.68 4.986-1.3 4.71-.649-.278-.912-1.894-.788-4.848.402-10.248 1.95-20.974 4.641-32.176 3.063-12.68 6.327-19.588 9.793-20.727zM153.75 43.591c2.691-2.031 6.822-3.97 12.391-5.816 6.281-2.093 10.644-2.586 13.088-1.478 2.413 1.077 4.61 4.694 6.59 10.849 1.826 5.724 2.847 11.479 3.063 17.265 0 .277-.386-.016-1.16-.878-.804-.861-1.206-1.446-1.206-1.754-.186-4.678-1.269-9.602-3.249-14.772-1.888-4.924-3.636-7.755-5.245-8.494-1.516-.677-4.981-.246-10.396 1.293-5.476 1.538-9.375 3.185-11.695 4.94-.217.184-.696.091-1.439-.278-.711-.4-.959-.692-.742-.877z" fill="#0D131A"/><path d="M155.466 70.92c1.517-.031 3.636-2.909 6.359-8.633 2.691-5.632 3.697-8.617 3.016-8.956-1.516-.769-5.275.354-11.277 3.37-6.034 3.016-9.066 5.34-9.097 6.971-.031 1.016 1.3 2.447 3.991 4.293 2.754 1.847 5.09 2.831 7.008 2.955zm-3.712-15.465c6.59-3.54 11.293-5.047 14.108-4.524.96.185 1.238 1.446.836 3.785-.371 2.155-1.207 4.678-2.506 7.571-3.249 7.202-6.158 10.74-8.726 10.618-2.042-.124-4.764-1.293-8.168-3.509-3.558-2.308-5.337-4.262-5.337-5.863 0-1.877 3.264-4.57 9.793-8.078zM142.193 79.69c.093-.246-.247-1.384-1.021-3.415-.773-2.063-1.33-3.109-1.671-3.14-.278-.03-.897.385-1.856 1.247-.959.861-1.439 1.508-1.439 1.939.031.4.681 1.446 1.95 3.139 1.268 1.63 2.011 2.446 2.227 2.446.186 0 .511-.307.975-.923l.835-1.292zm.093-4.847c.959 2.278 1.454 3.832 1.485 4.663.031.677-.464 1.6-1.485 2.77-1.052 1.2-1.841 1.677-2.367 1.43-.619-.276-1.686-1.415-3.202-3.415-1.64-2.124-2.398-3.586-2.274-4.386.123-.83.851-1.877 2.181-3.139 1.33-1.2 2.336-1.785 3.017-1.754.711.061 1.593 1.339 2.645 3.831zM167.348 79.322c-.96-.062-2.538 1.738-4.734 5.4-2.135 3.632-3.079 5.802-2.831 6.51.247.646 1.995 1.43 5.244 2.354 3.28.923 5.152 1.17 5.616.739.711-.678.572-3.34-.418-7.987-.99-4.616-1.949-6.955-2.877-7.016zm-6.312 3.877c2.691-4.616 4.811-6.847 6.358-6.693 1.949.184 3.512 3.385 4.687 9.602 1.145 6.185 1.052 9.601-.278 10.248-1.145.585-3.667.23-7.565-1.062-3.837-1.262-5.941-2.339-6.312-3.231-.588-1.324.449-4.278 3.11-8.864zM102.048 88.508c3.62-7.294 7.503-10.71 11.65-10.248 5.847.677 10.875 5.585 15.083 14.726 1.764 3.877 2.924 7.709 3.481 11.494.588 3.94.387 7.079-.604 9.418-.526 1.292-2.506 2.154-5.94 2.585-3.156.369-6.823.338-10.999-.093-4.208-.43-7.797-1.184-10.768-2.262-3.279-1.138-5.058-2.446-5.337-3.923-1.392-7.017-.247-14.25 3.434-21.697zm21.813.646c-3.248-5.478-6.714-8.417-10.396-8.817-1.454-.154-3.032.646-4.733 2.4-2.568 2.647-4.641 6.463-6.219 11.449-1.671 5.416-2.166 10.602-1.486 15.557.248 1.908 4.874 3.354 13.877 4.339 9.004 1.016 13.892.631 14.666-1.154.804-1.939.665-5.324-.418-10.156-1.145-5.047-2.908-9.586-5.291-13.618zM192.225 85.461c-2.321-5.724-4.657-8.586-7.008-8.586-2.073 0-3.342 4.878-3.806 14.633-.464 9.695.124 15.019 1.764 15.973 1.083.615 3.125.277 6.126-1.016 3.001-1.292 4.625-2.508 4.873-3.647 1.207-5.447.557-11.233-1.949-17.357zm-12.995 5.263c.526-10.649 2.521-15.973 5.987-15.973 3.001 0 5.909 3.185 8.725 9.556 2.939 6.709 3.759 12.972 2.46 18.788-.464 1.97-2.754 3.724-6.869 5.263-3.991 1.508-6.529 1.8-7.611.877-1.021-.831-1.78-3.108-2.275-6.832-.495-3.57-.634-7.463-.417-11.68zM58.84 97.556l8.122.507c3.156.554 4.966 1.278 5.43 2.17.836 1.693-.68 6.032-4.548 13.018-3.867 7.048-6.822 10.571-8.864 10.571-1.95 0-5.136-.969-9.56-2.908-4.673-2.031-7.009-3.693-7.009-4.985 0-.739.34-1.847 1.021-3.324l2.228-4.34c.155-.246.572-.4 1.253-.461.712-.031.99.077.835.323-.835 1.539-1.5 3.031-1.995 4.478-.434 1.262-.65 2.169-.65 2.723.124.831 2.12 2.109 5.987 3.832 3.775 1.693 6.39 2.554 7.843 2.585 1.362-.431 3.59-3.57 6.683-9.417 3.094-5.848 4.425-9.417 3.992-10.71-.248-.523-1.578-1.016-3.992-1.477l-7.193-.508c-.31.03-.387-.308-.232-1.016.154-.677.371-1.03.65-1.061zM27.235 141.411c-.96.461-2.058 1.738-3.296 3.831-1.237 2.062-1.81 3.493-1.717 4.293.124.831 1.764 2.355 4.92 4.57 3.156 2.216 5.198 3.263 6.126 3.14.928-.124 2.367-2.247 4.316-6.371 1.95-4.124 2.676-6.447 2.181-6.971-.557-.554-2.583-1.2-6.08-1.938-3.558-.739-5.708-.924-6.45-.554zm-5.152 2.631c1.454-2.401 2.83-3.939 4.13-4.616l8.03.369c4.455.831 7.054 1.831 7.796 3.001.681 1.077-.092 4.093-2.32 9.047-2.228 4.925-4.053 7.648-5.477 8.171-1.082.431-3.635-.754-7.657-3.554-4.084-2.832-6.235-5.047-6.451-6.648-.155-1.385.495-3.308 1.949-5.77zM174.96 166.431v.046c.062 2.555 1.315 4.417 3.759 5.586 2.197 1.047 3.682 1.216 4.455.508.805-.739 1.083-3.539.836-8.402-.248-4.955-.975-7.709-2.182-8.263-.649-.277-1.964 1.108-3.944 4.155-1.95 3.046-2.924 5.17-2.924 6.37zm1.346-7.94c2.382-3.785 4.223-5.663 5.522-5.632 2.104.031 3.419 3.37 3.945 10.018.526 6.524.093 10.294-1.299 11.31-1.145.861-3.233.707-6.266-.462-3.465-1.354-5.244-3.616-5.337-6.786-.031-1.908 1.114-4.724 3.435-8.448z" fill="#0D131A"/><path d="M196.679 112.697c-.031 1.201-.201 2.185-.511 2.955l-.928 1.523c-1.516 1.785-5.136 4.032-10.86 6.74-5.91 2.801-11.03 4.632-15.362 5.493-7.89 1.601-20.003 1.739-36.339.416-16.337-1.293-26.656-3.232-30.956-5.817-.712-.461-1.362-1.215-1.95-2.262a10.333 10.333 0 01-1.16-2.954c-.464-1.939-.495-3.031-.093-3.278.403-.246 1.037.647 1.903 2.678.526 1.2 1.083 2.123 1.671 2.77l1.856 1.384c3.466 1.878 12.732 3.54 27.8 4.986 16.306 1.57 28.589 1.523 36.85-.138 3.713-.77 8.122-2.262 13.227-4.478 4.734-2.062 8.277-3.94 10.628-5.632.867-.646 1.501-1.308 1.903-1.985.433-.708.712-1.57.836-2.585.216-1.847.526-2.709.928-2.585.402.153.588 1.077.557 2.769zM126.32 74.797c1.083.985 2.135 2.185 3.156 3.601 1.083 1.477 1.857 2.816 2.321 4.016.681 1.724.712 2.693.093 2.909-.65.184-1.377-.493-2.182-2.032a32.543 32.543 0 00-4.873-7.109c-1.794-2.062-2.506-3.262-2.135-3.6.403-.339 1.609.4 3.62 2.215zM178.626 75.12c-.588 1.693-.959 3.509-1.114 5.448-.124 1.692-.51 2.523-1.16 2.493-.65 0-.928-.831-.836-2.493.093-2.031.619-4.032 1.578-6.001.867-1.755 1.501-2.585 1.903-2.493.371.123.248 1.139-.371 3.047z" fill="#0D131A"/><path d="M158.251 123.5c-.68-.339-1.222-.77-1.624-1.293-.402-.492-.542-.846-.418-1.062l1.439.046c.897.185 1.562.477 1.996.877.557.554.665 1.031.324 1.432-.34.4-.912.4-1.717 0zM174.078 121.191c-.65.801-1.238 1.078-1.764.831-.526-.246-.557-.754-.093-1.523.341-.554.882-1.046 1.625-1.477.68-.431 1.114-.57 1.299-.416.124.123.093.446-.093.97l-.974 1.615zM118.292 80.06c.278.092.402.538.371 1.339-.031.8-.17 1.123-.418.969-1.578-.985-3.063-.23-4.455 2.262-1.299 2.277-2.197 5.432-2.692 9.464-.526 4.154-.464 8.032.186 11.633.773 4.093 2.212 7.016 4.316 8.771.248.184.093.461-.464.831-.557.338-.959.415-1.207.23-2.537-1.877-4.285-4.985-5.244-9.325-.836-3.908-.928-8.094-.279-12.556.65-4.4 1.841-7.91 3.574-10.525 1.887-2.8 3.991-3.832 6.312-3.093zM182.385 77.29c1.083-.83 2.336-.477 3.76 1.062 1.423 1.508 2.645 3.754 3.666 6.74 2.537 7.478 2.645 14.834.325 22.066-.093.277-.449.477-1.068.6-.618.092-.897 0-.835-.277 1.887-5.847 1.949-12.48.186-19.896-.712-2.986-1.594-5.34-2.646-7.063-1.052-1.755-2.011-2.4-2.877-1.94-.248.155-.449.016-.604-.415-.154-.4-.123-.692.093-.877zM178.95 134.625c-.155-.246.17-.616.975-1.108.773-.523 1.222-.662 1.346-.415 8.787 14.125 12.701 30.606 11.741 49.44-.092 1.754-1.438 3.57-4.037 5.448-2.475 1.784-5.539 3.277-9.19 4.477-8.849 2.893-15.501 2.786-19.956-.323-2.939-2.062-5.987-6.001-9.143-11.818-3.032-5.57-4.579-9.802-4.641-12.694 0-.277.433-.585 1.299-.924l1.254-.138c.061 2.862 1.5 6.909 4.316 12.141 3.001 5.57 6.018 9.417 9.05 11.541 3.867 2.677 9.7 2.754 17.497.23 3.155-1.015 5.816-2.277 7.982-3.785 2.259-1.539 3.419-2.955 3.481-4.247.897-17.604-3.094-33.545-11.974-47.825z" fill="#0D131A"/><path d="M153.007 163.892c-8.013 6.248-17.574 10.479-28.682 12.695-10.303 2.031-19.508 1.924-27.614-.323-.278-.092-.325-.569-.14-1.431.156-.831.372-1.216.65-1.154 7.952 2.216 16.848 2.354 26.687.415 9.993-1.969 19.059-5.709 27.196-11.217 3.094-2.093 4.812-2.924 5.152-2.493.309.4-.774 1.569-3.249 3.508z" fill="#0D131A"/><path d="M131.334 173.217c.154-.246.866-.461 2.135-.646l1.67.138a40.838 40.838 0 01-8.957 10.295c-4.084 3.354-8.091 5.278-12.02 5.77l-13.923-.415c-3.651-.893-5.802-2.247-6.452-4.063-.092-.277.14-.738.697-1.385.526-.677.835-.877.928-.6.619 1.724 2.521 3.016 5.708 3.878 3.466.954 7.72 1.123 12.763.508 2.94-.369 6.049-1.831 9.329-4.386a33.66 33.66 0 008.122-9.094zM23.336 22.033c.247-.185.85-.185 1.81 0a7.629 7.629 0 013.898 1.985c.248.184.263.477.046.877-.185.37-.402.462-.65.277-.649-.554-1.283-.923-1.902-1.108l-.882-.046.186 1.477.278 2.77c.093 4.185-1.284 9.663-4.13 16.434-2.228 5.386-5.09 10.956-8.586 16.711C2.389 79.598-.04 95.294 6.117 108.496c2.32 4.986 5.647 9.064 9.979 12.234 3.836 2.769 7.518 4.277 11.045 4.524.279.03.232.384-.139 1.061-.34.708-.665 1.047-.975 1.016-4.115-.277-8.23-1.893-12.345-4.847-4.579-3.324-8.06-7.632-10.442-12.926-6.188-13.726-3.512-30.083 8.029-49.071 5.445-8.987 9.143-16.373 11.092-22.159 2.073-6.124 2.413-11.094 1.021-14.91-.278-.708-.294-1.17-.046-1.385z" fill="#0D131A"/><path d="M47.376 20.417c.217.216.217.554 0 1.016-.217.492-.433.63-.65.415-2.32-2.4-5.337-4.324-9.05-5.77-3.496-1.323-6.637-1.908-9.421-1.754-1.3.092-1.996.261-2.089.507-.093.216.217.878.929 1.986 3.372 5.293 3.465 13.11.278 23.45-1.733 5.54-4.44 12.434-8.122 20.681-5.445 14.25-5.879 26.96-1.3 38.131 1.888 4.617 4.502 8.525 7.844 11.726 3.094 2.985 6.436 5.001 10.025 6.047.247.062.062.369-.557.923-.619.524-1.068.754-1.346.693-9.499-2.77-16.012-9.818-19.539-21.143-3.682-11.725-2.785-24.22 2.692-37.485l4.084-9.186c1.95-4.493 3.419-8.417 4.409-11.772 3.032-10.094 2.676-17.526-1.067-22.296-1.269-1.631-1.857-2.678-1.764-3.14.093-.523 1.021-.892 2.785-1.107 3.31-.431 7.023.077 11.138 1.523 4.363 1.539 7.936 3.724 10.721 6.555z" fill="#0D131A"/><path d="M44.128 11.508l1.718 1.385c.185.215.139.661-.14 1.338-.278.646-.51.862-.696.646l-.974-1.154c-.557-.554-.975-.769-1.254-.646-.247.123-.34.523-.278 1.2l.418 2.632c.062.246-.186.369-.743.369-.557-.03-.85-.185-.882-.462l-.464-2.862c-.124-1.57.124-2.6.743-3.093.526-.4 1.377-.184 2.552.647z" fill="#0D131A"/><path d="M115.321 24.526c6.652 5.324 10.149 11.756 10.489 19.296.031.308-.371.538-1.207.692-.835.185-1.253.123-1.253-.184-.309-6.894-3.434-12.85-9.375-17.865-7.147-6.032-17.14-9.28-29.981-9.74-10.984-.401-18.843-1.617-23.577-3.648-3.836-1.63-6.605-4.385-8.307-8.263-.371-.831-.68-1.277-.928-1.339-.279-.092-.727.216-1.346.923-2.073 2.278-3.295 5.063-3.667 8.356-.371 3.385.34 6.017 2.135 7.894 3.62 3.693 6.482 8.048 8.586 13.064 1.3 3.108 2.878 8.294 4.734 15.557 2.259 8.833 4.75 15.403 7.472 19.712 2.197 3.477 5.415 6.617 9.653 9.417.186.092.062.539-.37 1.339-.403.77-.728 1.077-.975.923-5.446-3.57-9.36-7.355-11.742-11.356-2.197-3.693-4.316-9.694-6.359-18.004-2.196-9.017-3.836-14.88-4.919-17.588-1.67-4.278-4.192-8.155-7.565-11.633-2.413-2.493-3.187-6.17-2.32-11.033.835-4.586 2.521-7.863 5.058-9.833 1.145-.892 1.95-1.292 2.414-1.2.464.092.912.739 1.346 1.939 1.856 4.8 4.517 7.97 7.982 9.51 3.899 1.692 11.48 2.754 22.741 3.185 13.243.461 23.67 3.754 31.281 9.879z" fill="#0D131A"/><path d="M128.873 26.834c5.91 5.047 8.462 10.51 7.658 16.388-.031.277-.495.4-1.392.37-.898-.032-1.331-.186-1.3-.462.681-5.048-1.33-9.787-6.033-14.219-5.415-5.078-12.949-7.97-22.602-8.678-.31-.031-1.207-.4-2.692-1.108-1.516-.739-2.135-1.108-1.856-1.108 11.943 0 21.348 2.939 28.217 8.817z" fill="#0D131A"/><path d="M55.591 145.796c1.67-6.493 4.007-11.356 7.008-14.587l34.39 9.971c3.001 11.387 3.295 22.235.882 32.545-1.454 6.124-3.728 11.587-6.822 16.388-1.671 2.616-5.075 4.339-10.21 5.17-5.415.893-10.629.354-15.641-1.615-3.651-1.416-6.513-4.878-8.586-10.387-1.918-5.017-2.955-11.033-3.11-18.05-.154-6.863.542-13.341 2.089-19.435z" fill="#7CBEB3"/><path d="M62.97 158.491c.186-1.877 2.46-4.416 6.823-7.617 4.363-3.2 7.132-4.354 8.308-3.462 1.206.893 1.438 5.755.696 14.588-.743 8.832-1.872 13.31-3.388 13.433-.898.062-3.218-2.4-6.962-7.386-3.775-5.047-5.6-8.232-5.476-9.556z" fill="#006359"/><path d="M54.71 147.735c.155 13.203 3.14 24.205 8.957 33.007 5.57 8.525 12.531 13.218 20.885 14.08-3.403.861-7.085 1.138-11.046.831-7.92-.616-13.258-3.878-16.011-9.787-2.754-5.878-4.038-14.003-3.852-24.374l1.067-13.757z" fill="#68A198"/><path d="M60.604 136.287c-4.022 6.863-5.848 16.695-5.477 29.498.403 13.326 3.218 21.897 8.447 25.713 3.558 2.585 8.323 3.616 14.294 3.093 5.756-.523 9.561-2.093 11.418-4.709 4.207-5.94 6.961-13.11 8.26-21.512 1.176-7.571 1.022-14.772-.464-21.604-.742-3.416-.835-5.247-.278-5.494.557-.246 1.3 1.293 2.228 4.617 1.918 6.924 2.305 14.418 1.16 22.481-1.238 8.771-4.069 16.296-8.493 22.574-2.29 3.231-7.024 5.124-14.202 5.678-7.023.523-12.314-.508-15.872-3.093-2.568-1.877-4.688-5.201-6.358-9.971-1.61-4.555-2.584-9.787-2.924-15.696-.836-13.418 1.3-24.266 6.404-32.545 1.795-2.923 3.032-4.324 3.713-4.201.712.093.093 1.816-1.856 5.171z" fill="#0D131A"/><path d="M64.084 158.03c-.062 1.077 1.532 4.093 4.78 9.048 3.311 5.047 5.43 7.509 6.359 7.386 1.02-.154 1.856-4.324 2.506-12.511.65-8.217.495-12.664-.464-13.341-.897-.615-3.31.539-7.24 3.463-3.899 2.923-5.879 4.908-5.94 5.955zm-2.135-.462c.093-2.247 2.677-5.078 7.75-8.494 4.982-3.324 7.968-4.524 8.958-3.601 1.64 1.57 2.104 6.909 1.392 16.019-.742 9.109-2.057 14.203-3.944 15.28-1.3.769-4.007-1.662-8.122-7.294-4.115-5.601-6.127-9.571-6.034-11.91z" fill="#0D131A"/><path d="M26.956 190.205c-.155-.461.433-1.246 1.763-2.354 1.362-1.108 2.383-1.616 3.063-1.523 1.238.154 2.089 1.492 2.553 4.016.433 2.339.464 3.678.093 4.016-.433.4-1.64.154-3.62-.739-2.135-.954-3.419-2.092-3.852-3.416zM40.786 193.668c-2.166-.985-3.248-1.97-3.248-2.955 0-.862.634-1.908 1.902-3.139 1.238-1.231 2.182-1.693 2.832-1.385 1.02.493 1.856 1.939 2.506 4.339.619 2.309.65 3.647.093 4.017-.588.4-1.95.107-4.085-.877zM48.073 190.852c-.217-1.601.371-3.078 1.764-4.432l2.18-1.57c1.146.493 2.043 1.97 2.693 4.432.588 2.216.727 3.508.417 3.878l-3.666-.093c-2.166-.523-3.295-1.261-3.388-2.215zM66.312 194.729c-.062-.8.216-1.662.835-2.585.743-1.108 1.686-1.646 2.831-1.616 1.145.031 2.027.462 2.646 1.293.495.769.711 1.708.65 2.816-.063 1.015-.418 2.154-1.068 3.416-.619 1.262-1.114 1.893-1.485 1.893-.403 0-1.207-.662-2.414-1.985-1.268-1.385-1.933-2.462-1.995-3.232zM75.548 195.745c-.093-1.508.325-2.755 1.253-3.739.743-.831 1.486-1.247 2.228-1.247.557 0 1.207.416 1.95 1.247.742.861 1.206 1.723 1.392 2.585.123.554-.016 1.508-.418 2.862-.402 1.446-.882 2.308-1.439 2.585-.557.308-1.485-.031-2.784-1.016-1.393-1.015-2.12-2.108-2.182-3.277zM84.69 195.468c-.866-.923-.788-2.324.233-4.201 1.02-1.877 2.026-2.677 3.016-2.4.929.307 1.826 1.6 2.692 3.877.805 2.185 1.006 3.586.604 4.201-.372.554-1.33.677-2.878.369-1.578-.338-2.8-.954-3.666-1.846zM100.47 187.066c-.124-.646.479-1.446 1.81-2.4 1.299-.924 2.243-1.262 2.831-1.016 1.021.462 1.686 1.754 1.996 3.878.309 2.062.185 3.216-.372 3.462-.557.246-1.655-.046-3.295-.877-1.763-.923-2.754-1.939-2.97-3.047zM113.048 190.205c-1.888-.646-2.986-1.385-3.295-2.216-.279-.707.201-1.723 1.438-3.046 1.238-1.293 2.135-1.816 2.692-1.57 1.083.462 1.841 1.647 2.274 3.555.371 1.662.402 2.8.093 3.416l-3.202-.139zM118.106 186.374c-.371-.739.155-1.801 1.578-3.186 1.393-1.354 2.398-1.908 3.017-1.661.712.307 1.408 1.431 2.089 3.369.649 1.909.819 3.078.51 3.509l-3.527-.092c-2.042-.493-3.264-1.139-3.667-1.939zM170.736 193.483c-.433-.431-.093-1.539 1.021-3.324 1.114-1.816 2.058-2.708 2.831-2.677 1.021.061 2.166 1.169 3.435 3.323 1.206 2.032 1.67 3.232 1.392 3.601-.34.431-1.655.569-3.945.416-2.382-.154-3.96-.601-4.734-1.339zM180.854 190.944c-.434-.462-.155-1.616.835-3.462.959-1.847 1.794-2.739 2.506-2.678.681.062 1.64 1.139 2.878 3.232 1.175 2.062 1.655 3.323 1.438 3.785-.278.462-1.408.631-3.388.508-2.104-.123-3.527-.585-4.269-1.385zM188.604 186.697c-.495-.616-.34-1.785.464-3.509.774-1.662 1.393-2.462 1.857-2.4.804.092 1.794 1.108 2.97 3.047 1.145 1.908 1.578 3.108 1.299 3.6-.216.523-1.191.723-2.923.6-1.826-.123-3.048-.569-3.667-1.338z" fill="white"/><path d="M28.952 187.574l2.042 2.539c1.361 1.877 2.12 3.339 2.274 4.385l-3.248-1.661c-2.135-1.201-3.14-2.062-3.017-2.586.124-.523.495-1.123 1.114-1.8l.835-.877zM39.394 187.759l1.764 2.169c1.238 1.724 2.057 3.278 2.46 4.663-3.806-1.324-5.755-2.632-5.848-3.924-.062-.8.186-1.523.743-2.17l.881-.738zM53.967 193.483c-1.98-.431-3.404-.862-4.27-1.293-.99-.461-1.547-1.031-1.671-1.708-.124-.585 0-1.262.371-2.031l.604-.969c.835.4 1.856 1.384 3.063 2.954 1.02 1.354 1.655 2.37 1.903 3.047zM68.169 191.498l.464 2.816c.402 2.123.897 3.785 1.485 4.985l-1.764-1.523c-1.145-1.262-1.686-2.554-1.624-3.878.062-.923.294-1.6.696-2.031.31-.338.557-.461.743-.369zM76.522 192.975l1.764 2.862 2.32 4.247a12.261 12.261 0 01-2.599-1.2c-1.732-1.046-2.537-2.17-2.413-3.37.124-1.169.31-1.939.557-2.308l.371-.231zM84.922 191.313l2.181 2.078c1.547 1.569 2.491 2.877 2.832 3.923l-2.878-.923c-1.918-.738-2.846-1.462-2.785-2.17l.372-2.077.278-.831zM102.002 184.989c.278.184.866.877 1.763 2.077 1.114 1.508 1.733 2.724 1.857 3.647l-3.342-1.57c-.866-.523-1.315-1.184-1.346-1.985-.031-.584.139-1.123.511-1.615l.557-.554zM110.68 185.266l1.532 1.062c1.176 1.077 2.197 2.492 3.063 4.247l-2.506-.693c-1.702-.615-2.645-1.323-2.831-2.123-.186-.8-.124-1.447.186-1.939l.556-.554zM119.406 183.419l1.903 1.385c1.361 1.2 2.289 2.447 2.785 3.739l-2.646-.369c-1.856-.462-2.955-1.154-3.295-2.077-.186-.431-.108-.97.232-1.616.309-.615.65-.969 1.021-1.062zM171.942 189.928c2.599 1.231 4.688 2.77 6.266 4.617l-3.481.046c-2.321-.123-3.527-.585-3.62-1.385-.093-.8.015-1.585.325-2.355l.51-.923zM181.642 187.943c.526.154 1.408.616 2.646 1.385 1.671 1.016 2.707 1.985 3.109 2.908l-3.248-.138c-2.197-.246-3.311-.723-3.342-1.431a3.739 3.739 0 01.371-1.985l.464-.739zM188.975 183.419l2.042 1.247c1.516 1.046 2.568 2.154 3.156 3.323l-2.413-.184c-1.671-.246-2.707-.662-3.11-1.247-.402-.584-.464-1.292-.185-2.123l.51-1.016z" fill="#DBDCDC"/><path d="M169.854 193.76c-.247-.893.248-2.324 1.485-4.293 1.238-2.001 2.306-3.016 3.203-3.047.897-.031 2.15 1.139 3.759 3.508 1.578 2.308 2.259 3.878 2.042 4.709-.185.739-1.918.969-5.198.692-3.28-.277-5.043-.8-5.291-1.569zm3.017-3.601c-.773 1.231-1.083 2.124-.928 2.678.309.43 1.408.784 3.295 1.061 1.825.277 2.816.262 2.97-.046.155-.338-.263-1.323-1.253-2.954-1.052-1.662-1.872-2.508-2.46-2.539-.34-.031-.881.569-1.624 1.8zM187.536 191.452c.186-.277-.216-1.262-1.207-2.955-.959-1.692-1.686-2.585-2.181-2.677-.371-.031-.897.615-1.578 1.939-.711 1.323-1.005 2.246-.882 2.77.093.461 1.068.8 2.924 1.015l2.924-.092zm-3.156-7.709c.99.123 2.166 1.492 3.527 4.108 1.3 2.493 1.81 4.032 1.532 4.616-.279.616-1.748.801-4.409.554-2.723-.277-4.363-.8-4.92-1.569-.495-.677-.17-2.139.975-4.386 1.145-2.339 2.243-3.447 3.295-3.323zM189.671 183.696c-.464 1.047-.557 1.908-.279 2.585.124.37.944.662 2.46.878l2.46-.139c.185-.308-.14-1.2-.975-2.677-.835-1.57-1.562-2.339-2.181-2.309-.526.062-1.021.616-1.485 1.662zm-1.021-1.154c.959-1.754 1.779-2.631 2.459-2.631 1.145 0 2.352 1.277 3.62 3.831 1.238 2.462 1.671 4.001 1.3 4.617l-4.131.138c-2.537-.308-3.914-.738-4.13-1.292-.464-1.201-.17-2.755.882-4.663zM80.514 192.652c-.526-.616-1.037-.893-1.532-.831-.712.031-1.346.477-1.903 1.339-.557.831-.789 1.631-.696 2.4.093.708.696 1.508 1.81 2.401 1.083.831 1.81 1.169 2.181 1.015.248-.092.51-.538.79-1.338.37-.924.494-1.785.37-2.586-.092-.954-.433-1.754-1.02-2.4zm-4.827-.6c1.052-1.539 2.197-2.262 3.434-2.17.898.062 1.702.523 2.414 1.385.711.862 1.16 1.923 1.346 3.185.216 1.231.123 2.57-.279 4.016-.402 1.416-.897 2.232-1.485 2.447-.743.277-1.934-.123-3.574-1.2-1.763-1.2-2.769-2.508-3.016-3.924-.186-1.077.2-2.324 1.16-3.739zM71.65 192.56c-.403-.554-.852-.862-1.347-.924-.588-.061-1.206.185-1.856.739-.68.554-1.021 1.154-1.021 1.8.03.801.48 1.755 1.346 2.862.773 1.047 1.346 1.57 1.717 1.57.34-.031.711-.477 1.114-1.339.433-.861.665-1.723.696-2.585.03-.8-.186-1.508-.65-2.123zm-4.781-1.524c1.145-1.015 2.336-1.446 3.573-1.292 1.021.123 1.903.677 2.646 1.662a5.003 5.003 0 01.974 3.277c-.03.985-.417 2.247-1.16 3.786-.804 1.6-1.5 2.431-2.088 2.492-.681.093-1.748-.692-3.203-2.354-1.547-1.723-2.351-3.185-2.413-4.385-.062-1.139.495-2.201 1.67-3.186zM89.517 191.636c-.711-.985-1.361-1.477-1.949-1.477-.588-.061-1.176.369-1.763 1.293-.62.954-.851 1.846-.697 2.677.155.739 1.021 1.385 2.6 1.939 1.515.492 2.397.631 2.645.415.216-.184.263-.831.139-1.938-.124-1.201-.449-2.17-.975-2.909zm-1.624-3.508c1.516.215 2.707 1.8 3.574 4.755.804 2.769.959 4.431.464 4.985l-4.363-.277c-2.599-.708-4.007-1.631-4.223-2.769-.248-1.262.108-2.709 1.067-4.34 1.052-1.754 2.212-2.539 3.48-2.354zM55.545 188.913c.774 2.954.85 4.616.232 4.985-.804.462-2.382.37-4.734-.277-2.444-.677-3.805-1.492-4.084-2.446-.371-1.139.062-2.601 1.3-4.386 1.268-1.846 2.537-2.723 3.805-2.631 1.485.092 2.646 1.677 3.481 4.755zm-6.637 1.523c.093.646.944 1.231 2.553 1.754 1.547.493 2.49.585 2.831.277.247-.215.108-1.246-.418-3.093-.557-1.969-1.206-3.016-1.949-3.139-.619-.092-1.3.323-2.042 1.247-.835.984-1.16 1.969-.975 2.954zM38.651 190.713c0 .708.851 1.447 2.553 2.216 1.67.739 2.63.939 2.877.6.279-.338.202-1.339-.232-3-.464-1.785-1.067-2.755-1.81-2.909-.711-.154-1.454.169-2.227.97-.712.738-1.099 1.415-1.16 2.031v.092zm-.046-3.647c1.33-1.231 2.506-1.754 3.527-1.569 1.547.277 2.661 1.892 3.342 4.847.65 2.8.665 4.462.046 4.986-.588.553-2.228.246-4.92-.924-2.815-1.169-4.16-2.493-4.037-3.97.093-1.046.773-2.17 2.042-3.37zM119.034 185.727c.093.616.991 1.201 2.692 1.755 1.64.523 2.568.646 2.785.369.216-.277.077-1.231-.418-2.862-.526-1.724-1.098-2.616-1.717-2.678-.526-.061-1.238.339-2.135 1.201-.897.892-1.299 1.631-1.207 2.215zm.047-3.093c1.609-1.538 2.877-2.154 3.806-1.846 1.175.431 2.134 1.893 2.877 4.385.712 2.37.835 3.77.371 4.201-.464.4-1.98.262-4.548-.415-2.63-.708-4.1-1.493-4.409-2.355-.371-1.077.263-2.4 1.903-3.97zM113.141 189.42c1.361.462 2.15.585 2.367.37.216-.216.17-1.093-.14-2.632-.34-1.631-.82-2.523-1.438-2.677-.619-.154-1.346.185-2.182 1.016-.835.861-1.175 1.615-1.021 2.262.186.646.99 1.2 2.414 1.661zm1.16-6.647c1.021.246 1.872 1.585 2.553 4.016.618 2.37.68 3.924.185 4.663-.309.461-1.686.261-4.13-.6-2.537-.893-3.899-1.832-4.085-2.816-.216-.985.372-2.17 1.764-3.555 1.423-1.416 2.661-1.985 3.713-1.708zM103.765 189.328c1.362.739 2.181 1.016 2.46.831.247-.154.278-1.046.093-2.677-.217-1.724-.65-2.693-1.3-2.909-.619-.215-1.361 0-2.227.647-.836.615-1.238 1.231-1.207 1.846.031.739.758 1.493 2.181 2.262zm1.764-6.463c1.299.277 2.073 1.801 2.32 4.57.217 2.616.062 4.109-.464 4.478-.588.37-2.042-.061-4.362-1.292-2.352-1.293-3.574-2.416-3.667-3.37-.093-.893.573-1.908 1.996-3.047 1.516-1.169 2.908-1.616 4.177-1.339zM30.622 192.236c1.64.831 2.584 1.093 2.831.785.279-.308.232-1.277-.139-2.908-.402-1.693-.882-2.616-1.439-2.77-.65-.215-1.438.031-2.366.739-.929.708-1.393 1.4-1.393 2.077.031.523.867 1.216 2.506 2.077zm1.671-6.97c1.33.277 2.274 1.892 2.831 4.847.526 2.831.51 4.416-.046 4.755-.96.646-2.692.307-5.198-1.016-2.476-1.292-3.76-2.447-3.852-3.462-.124-1.17.603-2.385 2.181-3.647 1.547-1.231 2.908-1.723 4.084-1.477z" fill="#0D131A"/></svg>