<svg width="153" height="177" fill="none" xmlns="http://www.w3.org/2000/svg"><path d="M139.905 115.797c-.526 8.996-3.608 16.547-9.245 22.651-4.965 5.375-11.377 9.157-19.234 11.348-7.273 2.044-14.43 2.41-21.468 1.095-7.098-1.314-12.385-4.031-15.86-8.149.613-1.431 1.27-3.491 1.97-6.178 1.023-3.914 1.447-6.995 1.271-9.244 3.418 3.709 7.653 6.557 12.706 8.543 5.345 2.103 10.734 2.877 16.167 2.322 13.29-1.343 23.309-9.668 30.056-24.973l.789 1.314c.759.847 1.709 1.271 2.848 1.271z" fill="#EF8200"/><path d="M74.097 142.873c7.74 6.952 17.19 9.888 28.347 8.807 10.194-.993 19.527-4.966 27.997-11.917-8.616 10.018-19.57 15.174-32.86 15.466-5.287.087-10.267-.657-14.94-2.235-4.382-1.519-7.653-3.476-9.814-5.871l1.27-4.25z" fill="#DDD583"/><path d="M75.412 138.58c6.017 6.396 14.546 9.522 25.587 9.376 10.427-.146 20.066-3.053 28.916-8.719-7.302 7.302-16.474 11.421-27.514 12.355-11.392.964-20.826-1.942-28.304-8.719l1.315-4.293z" fill="#CF7100"/><path d="M62.093 38.73c-.351 1.869-1.344 5.403-2.98 10.602-1.49 4.761-2.264 7.55-2.322 8.369-.087 1.139.205 3.87.876 8.193.526 3.534 1.037 6.557 1.534 9.07 2.512 13.172 5.33 22.27 8.456 27.295 3.71 5.929 6.221 10.53 7.536 13.801 2.424 6.046 3.037 11.552 1.84 16.518l-3.374 11.785c-.876 2.863-1.343 5.229-1.402 7.098l2.541 5.433c1.52 3.856 1.913 6.411 1.183 7.667-1.022 1.694-2.263 3.082-3.724 4.163-1.782 1.314-3.753 2.073-5.915 2.278-2.54.234-5.228-.175-8.061-1.227-3.067-1.11-4.615-2.439-4.645-3.987l.132-6.922c-.03-3.33-.38-5.74-1.052-7.23l-2.76-2.891c-1.928-2.279-3.096-4.221-3.505-5.827l-6.616-1.183-2.059 1.533c-1.431 1.198-2.22 2.249-2.366 3.155l1.446 2.891c.905 2.103 1.168 3.505.789 4.206-.526.964-2.892 2.206-7.098 3.725-4.557 1.635-8.441 2.453-11.654 2.453-3.506 0-6.777-1.022-9.815-3.067-3.067-2.044-3.592-3.622-1.577-4.732l5.477-3.067c-2.366-1.548-4.016-3.753-4.951-6.615-1.811-5.696.92-11.772 8.193-18.227-1.46-2.395-2.541-6.44-3.242-12.136-.847-6.543-.716-12.633.394-18.27l-2.716 2.891c-1.373 1.344-2.41 1.914-3.111 1.71-.497-.147-.89-.906-1.183-2.28l-.263-2.058c-3.067 1.022-4.717 1.139-4.95.35-.264-.905-.278-1.782-.045-2.629.41-1.46 1.534-3.169 3.374-5.126 1.14-2.57 2.731-5.447 4.776-8.63 4.089-6.31 8.426-10.94 13.012-13.89-1.957-.38-3.52-1.066-4.688-2.059-2.074-1.723-4.644-4.776-7.71-9.157-4.265-6.017-6.354-10.997-6.266-14.94.029-1.986.89-4.206 2.585-6.66 1.519-2.278 2.716-3.476 3.592-3.593l4.688-11.873c-.204-.38-.335-.832-.394-1.358-.146-1.023.102-1.884.745-2.585 2.687-2.921 5.316-5.083 7.886-6.485C28.663 1.942 35.614.89 43.56 2.058c5.755.818 10.647 4.922 14.678 12.311 4.206 7.74 5.491 15.86 3.855 24.36z" fill="#EF8200"/><path d="M3.733 91.656c1.898-1.402 3.403-2.162 4.513-2.279.876-.087 1.226.176 1.051.789-.204.584-.861 1.095-1.971 1.534l-2.63.306-.963-.35zM7.413 98.447c2.22-3.505 4.396-6.456 6.528-8.85l-.306 3.636c-3.447 3.563-5.52 5.301-6.222 5.214zM28.575 63.046c4.147-.73 7.419-1.665 9.814-2.804l2.497-.044c.146.672-.292 1.68-1.314 3.023-2.658 3.593-5.52 5.374-8.588 5.345-2.336-.03-4.118-.467-5.345-1.314-1.022-.701-1.884-1.855-2.585-3.462l5.52-.744zM47.24 144.933c-3.36-5.609-4.148-11.085-2.366-16.43-.322 3.3.993 6.192 3.943 8.675 2.716 2.249 6.163 3.68 10.34 4.293 4.206.643 7.915.219 11.128-1.27 3.36-1.548 5.462-4.017 6.31-7.405l-.92 4.163-1.666 6.615c-.409 1.169-.788 2.673-1.139 4.513-.38 1.869-.555 3.082-.526 3.637.059.788 1.067 3.475 3.024 8.061-1.753-3.096-5.58-4.513-11.48-4.25-5.958.263-9.42 2.133-10.383 5.608 0-5.374-.22-8.514-.657-9.419-2.045-1.724-3.914-3.987-5.608-6.791zM19.243 141.734c1.81-1.139 2.819-2.731 3.023-4.775.205-1.987-.409-4.046-1.84-6.178 2.833 3.593 6.835 6.44 12.005 8.543 2.862 1.14 5.433 1.87 7.71 2.191-1.11.438-2.234 1.402-3.373 2.892l-1.402 2.059c.701.935 1.242 2.074 1.621 3.417.35 1.256.497 2.381.438 3.374-.058.876-1.168 1.767-3.33 2.673-1.343.584-4.132 1.533-8.368 2.848l-5.608.92-3.373-.132c3.008-.788 4.089-2.161 3.242-4.118-.76-1.811-3.023-3.87-6.791-6.178-1.957-1.197-3.49-3.271-4.6-6.221L7.5 138.974c1.519 2.132 3.461 3.417 5.827 3.856 2.162.408 4.133.043 5.915-1.096z" fill="#CF7100"/><path d="M32.518 70.23c2.483 3.243 4.805 7.215 6.966 11.918 5.93 12.735 8.486 25.719 7.668 38.95l-2.322 7.01c-1.169 5.492-.774 10.238 1.183 14.24-4.674-.176-9.552-1.402-14.634-3.681-10.136-4.585-16.138-12.165-18.007-22.739-1.49-8.354-1.11-17.788 1.139-28.303 1.285-5.871 2.98-11.465 5.082-16.78.701-.848 1.563-1.71 2.585-2.586 2.045-1.694 3.856-2.512 5.433-2.453 1.052.029 2.687 1.504 4.907 4.425z" fill="#FFF697"/><path d="M31.598 68.522l-3.9-.219c-1.05-.292-2.015-.876-2.89-1.752l1.095-.439 2.234.044c1.052.41 2.205 1.198 3.461 2.366zM29.188 126.838c6.222 1.285 11.596.876 16.124-1.227-.614.438-1.008 2.483-1.183 6.134-.205 4.44.423 8.003 1.884 10.69-4.615.292-9.698-.993-15.247-3.855-8.646-4.44-14.386-11.772-17.22-21.995 3.302 5.375 8.515 8.792 15.642 10.253z" fill="#DDD583"/><path d="M8.334 41.49l2.059 1.796c1.694 1.314 3.373 2.307 5.038 2.98l2.147.525c-2.161.642-4.016 1.68-5.564 3.11-1.548-2.57-2.775-5.374-3.68-8.412z" fill="#922F00"/><path d="M17.578 46.79l13.976 1.36c6.017.379 9.8.481 11.348.306-1.052 2.19-4.118 4.498-9.2 6.922-5.609 2.717-10.384 3.666-14.328 2.848-.613-.146-1.577-.92-2.891-2.322-1.607-1.665-3.097-3.666-4.47-6.002 1.549-1.432 3.403-2.468 5.565-3.111z" fill="#ED8599"/><path d="M12.276 49.99c-.204-.322.628-.965 2.498-1.929l2.848-1.314 16.21 1.358 9.07.35c-1.08 1.52-2.731 2.995-4.951 4.426-1.08.73-2.074 1.3-2.98 1.709-2.22-1.957-5.797-3.462-10.734-4.513-5.024-1.08-9.01-1.11-11.96-.088z" fill="#CE7486"/><path d="M44.085 21.773c-1.431 3.067-2.351 6.222-2.76 9.464-.468 3.534-.263 6.806.613 9.814-1.636-.087-2.526-.292-2.672-.613-.76-1.986-.672-5.053.262-9.2.994-4.44 2.512-7.595 4.557-9.465z" fill="white"/><path d="M47.809 20.284c2.658.233 4.03 3.3 4.118 9.2.088 4.85-.292 8.281-1.139 10.297-.234.555-1.373.949-3.417 1.183a33.538 33.538 0 01-5.433.087c-.877-3.008-1.08-6.28-.614-9.814.41-3.242 1.33-6.397 2.76-9.463 1.169-1.11 2.41-1.607 3.725-1.49zM9.867 27.425a57.053 57.053 0 012.103-7.01c1.694-4.586 3.286-6.572 4.775-5.958 1.373.584 1.3 3.914-.219 9.99-1.548 6.075-2.92 8.922-4.118 8.543-.847-.292-1.519-1.3-2.015-3.024l-.526-2.54z" fill="#0D131A"/><path d="M6.537 40c.321.73 1.577 1.738 3.768 3.023-1.14 1.051-1.942 1.504-2.41 1.358-.438-.146-.89-1.606-1.358-4.381zM12.189 50.164l1.052-.262 1.226.131c.175.292.015 1.168-.482 2.629l-1.796-2.498zM27.436 57.744l.307-1.402c.263-.934.555-1.431.876-1.49.526-.058 1.125.497 1.796 1.665l-2.979 1.227zM28.443 47.799l5.346.394c-1.578 1.898-2.673 2.848-3.286 2.848-.643 0-1.33-1.081-2.06-3.242zM15.694 157.332c.35-.497.978-1.008 1.884-1.534l1.227-.657c.964.175 1.738.906 2.322 2.191l.57 1.928c-.935.876-2.673 1.518-5.214 1.927l-3.944.132c-.175-.176-.014-.541.482-1.096l.745-.832-4.644.657-2.585-.263c-.175-.175.044-.599.657-1.27l.964-.92-3.461.306c-2.366.088-3.607-.131-3.724-.657-.146-.496.832-1.533 2.935-3.111 2.162-1.606 3.578-2.176 4.25-1.708.73.467 1.3 1.533 1.709 3.198l.964-.964c.76-.642 1.504-.935 2.234-.876.73.058 1.388.672 1.972 1.84l.657 1.709z" fill="white"/><path d="M129.74 75.708l.482 1.84c.087.876-.015 1.65-.307 2.322-.205.526-.234 1.11-.088 1.752.146.701.468 1.344.964 1.928l.351-1.446 2.848 2.848-.044 2.41.832 1.49c.321.555.511 1.504.57 2.847l2.409 1.49-1.664 2.804c-.322.526-.497 1.373-.526 2.541a9.094 9.094 0 00.044 1.578l3.899-2.366.088.876v1.358c-.322 1.753-.263 2.877.175 3.374.993 1.168 1.592 2.103 1.796 2.804.263.905.102 1.957-.482 3.154a9.36 9.36 0 00-.964 3.944c0 1.197.19 1.986.57 2.366l-1.972-.132c-.759-.35-1.533-1.066-2.322-2.147-.701-1.022-1.957-1.767-3.768-2.234l-3.417-.614c-.73-.146-1.534-.847-2.41-2.103-.964-1.373-1.343-2.643-1.139-3.811.146-.906.599-2.118 1.358-3.637.643-1.373.964-2.249.964-2.629-.029-.38-.35-1.139-.964-2.278-.613-1.08-.92-1.84-.92-2.278 0-.41.307-1.359.92-2.848.614-1.431.891-2.308.833-2.629l-.57-1.665c-.321-.818-.482-1.46-.482-1.928 0-.467.234-1.11.701-1.927l.745-1.534c.058-.789-.073-1.825-.394-3.11-.468-1.987.043-3.696 1.533-5.127l.044 1.052c.029.788.131 1.343.307 1.665z" fill="#EFE908"/><path d="M143.366 77.329c.876.672 1.344 1.533 1.402 2.585.088 1.781-.073 3.753-.482 5.915l1.49-1.271c1.081-.818 1.752-1.14 2.015-.964.438.321.249 2.965-.569 7.93l.788-.613c.555-.38.891-.482 1.008-.307.175.263.073 2.527-.307 6.791l3.549-5.827-.044 1.752c-.029 1.257-.014 2.016.044 2.279l.088 1.884-.394 2.322c-.672 1.869-.906 3.052-.701 3.549.116.321.087.759-.088 1.314-.205.643-.526 1.154-.964 1.534l-1.972 1.665c-.847.788-1.329 1.431-1.445 1.927l-.701 1.446-1.753 1.402-3.68 2.936c-.351-.409-.526-1.198-.526-2.366a9.036 9.036 0 01.964-3.9c.584-1.197.745-2.249.482-3.154-.205-.701-.803-1.636-1.797-2.804-.438-.497-.496-1.621-.175-3.374v-1.358l-.087-.876-3.9 2.366a9.194 9.194 0 01-.044-1.578c.03-1.168.205-2.015.526-2.54l1.665-2.805-2.41-1.49c-.058-1.343-.248-2.292-.569-2.847l-.833-1.49.044-2.41-2.804-2.804c1.168-1.84 1.782-3.052 1.84-3.636l-.131-2.585c-.059-1.402.204-2.527.788-3.374.555-.818 1.607-2.015 3.155-3.593l2.41-2.497c.292-.438.598-1.344.92-2.716.35-1.548.482-2.76.394-3.637l1.095 2.41c.731 1.87 1.008 3.476.833 4.82l-1.095 4.862c-.439 1.782-.468 2.936-.088 3.462l2.059 1.665z" fill="#E50020"/><path d="M9.385 154.352l.394 1.402-1.84 1.841-3.856.219-2.804-.219c.38-.468 1.84-1.154 4.382-2.06a90.231 90.231 0 013.724-1.183zM6.931 160.223c3.242-2.336 5.93-3.782 8.062-4.337l.394 1.446-1.577 2.103-6.879.788zM12.846 161.669a74.21 74.21 0 013.11-2.015c2.25-1.402 3.842-2.235 4.777-2.498l.525.964c.292.731.292 1.271 0 1.621-.467.614-1.884 1.096-4.25 1.446l-4.162.482z" fill="#DBDCDC"/><path d="M130.966 82.192l.482-.745c.351.76 1.227 1.738 2.629 2.936.351.292.482.89.394 1.796-.087.906-.029 1.446.176 1.621.467.409.759.862.876 1.358l.088 1.578c0 .7.554 1.226 1.664 1.577 1.432.438 1.49 1.416.176 2.935-.526.555-.906 1.256-1.139 2.103-.176.701-.22 1.315-.132 1.84l2.497-1.49c.731-.583 1.14-.86 1.227-.832.146.03.248.512.307 1.446l-.263 2.717c-.117 1.022.073 1.781.57 2.278.963.964 1.533 1.899 1.708 2.804.263 1.139-.043 2.468-.92 3.987-.263.497-.438 1.139-.526 1.928a9.613 9.613 0 00.132 3.023c.058.38-.088.657-.438.832-.38.176-.57.146-.57-.087l-.438-2.585c-.117-.993.132-2.162.745-3.505.526-1.169.759-2.133.701-2.892-.088-.905-.526-1.752-1.314-2.541-.731-.73-1.008-1.548-.833-2.454.263-1.343.307-2.336.132-2.979l-1.884 1.227c-.877.526-1.432.715-1.665.569-.176-.146-.263-.76-.263-1.84-.059-1.84.394-3.315 1.358-4.425.321-.35.424-.642.307-.876-.117-.234-.555-.57-1.315-1.008-.35-.204-.569-.438-.657-.7l-.088-1.009c0-.847-.35-1.65-1.051-2.41-.321-.32-.438-.876-.351-1.664l-.087-1.709-1.096-1.314-1.139-1.49z" fill="#EFE908"/><path d="M48.334 21.467c.672.117 1.183.745 1.534 1.884.321 1.168.38 2.57.175 4.206-.263 1.957-.803 3.446-1.621 4.469-.672.818-1.314 1.168-1.928 1.051-.7-.175-1.227-.949-1.577-2.322-.292-1.285-.336-2.643-.132-4.075.293-1.752.804-3.11 1.534-4.074.642-.876 1.314-1.256 2.015-1.14zM16.57 15.29c.234.028.38.627.439 1.795a14.59 14.59 0 01-.263 3.243c-.38 1.752-.833 3.081-1.358 3.987-.468.788-.906 1.139-1.315 1.051-.35-.087-.57-.54-.657-1.358-.117-1.022.058-2.395.526-4.118.409-1.49.876-2.659 1.402-3.506.467-.759.876-1.124 1.226-1.095z" fill="white"/><path d="M41.062 32.289c.642-1.11 1.343-1.71 2.103-1.797-.263 2.103-.205 3.812.175 5.126.409 1.315 1.125 2.045 2.147 2.191.788.117 1.592-.233 2.41-1.051.964-.935 1.65-2.308 2.059-4.119.847 1.08 1.3 2.497 1.358 4.25L50.35 40c-1.256.702-2.994 1.096-5.214 1.184l-2.979-.132c-.7-1.46-1.095-3.359-1.183-5.695l.088-3.067zM15.387 25.235c.322.584.482 1.168.482 1.752l-.964 2.936c-.788 1.928-1.562 2.906-2.322 2.935-.789.03-1.446-.672-1.971-2.103l-.745-2.892c-.088-.408.014-1.24.306-2.497l.439-1.752.525-.526 1.14-.657c-.526 1.635-.73 3.081-.614 4.337.117 1.11.453 1.753 1.008 1.928.467.175.964-.044 1.49-.657.584-.672.993-1.607 1.226-2.804z" fill="#007F78"/><path d="M39.966.918c10.311 1.023 17.336 7.025 21.075 18.008 1.548 4.585 2.263 9.507 2.147 14.765-.088 5.111-.935 9.77-2.542 13.976-1.314 3.447-2.117 5.637-2.41 6.572-.846 2.541-1.328 4.63-1.445 6.265-.205 3.155-.555 4.703-1.052 4.645-.467-.059-.57-1.65-.306-4.776.262-3.68 1.445-8.047 3.548-13.1 1.548-3.739 2.38-8.047 2.498-12.925.117-4.995-.555-9.727-2.016-14.196-3.505-10.836-10.047-16.736-19.628-17.7-4.264-.41-8.617.204-13.056 1.84-4.47 1.665-8.004 3.972-10.603 6.922-.672.76-1.11 1.46-1.315 2.104-.233.73-.19 1.518.132 2.365.058.176-.088.336-.438.482l-.614-.043c-.76-2.162-.336-4.133 1.27-5.915 2.805-3.155 6.5-5.594 11.086-7.317C30.912 1.137 35.468.48 39.967.918z" fill="#0D131A"/><path d="M49.912 39.386c1.256-3.213 1.665-6.98 1.227-11.303-.438-4.47-1.563-6.806-3.374-7.01-1.986-.234-3.914 1.518-5.783 5.257-2.016 4.06-2.746 8.587-2.19 13.582.32.526 1.985.716 4.994.57 3.038-.146 4.746-.511 5.126-1.096zm-11.304.877c-.788-4.645-.175-9.274 1.84-13.89 2.074-4.702 4.557-6.907 7.449-6.615 3.066.292 4.6 3.461 4.6 9.508 0 5.14-.584 8.748-1.753 10.821-.496.906-2.6 1.417-6.309 1.534-3.71.117-5.652-.336-5.827-1.358zM16.308 15.026c-.877 0-2.074 1.65-3.593 4.951-1.519 3.33-2.278 5.959-2.278 7.886v.044c0 1.052.277 2.074.832 3.067.497.935.906 1.358 1.227 1.27 1.197-.32 2.41-3.27 3.636-8.85 1.227-5.578 1.286-8.368.176-8.368zm-4.382 4.119c1.753-3.797 3.272-5.608 4.557-5.433 1.928.233 2.205 3.52.832 9.858-1.343 6.309-2.92 9.624-4.732 9.945-.642.117-1.329-.525-2.059-1.927-.7-1.344-1.066-2.6-1.095-3.768-.03-2.162.803-5.053 2.497-8.675zM12.32 39.255c-.262-.672-.233-1.125.088-1.358.321-.205.628.044.92.745l.22 1.314c.028.526-.03.832-.176.92-.234.146-.584-.394-1.052-1.621zM23.756 41.577c.73-.321 1.139-.263 1.226.175.088.41-.233.804-.963 1.183-1.023.497-1.607.672-1.753.526-.088-.117.03-.409.35-.876.351-.468.73-.803 1.14-1.008z" fill="#0D131A"/><path d="M9.78 26.55c.145-.118.262.043.35.481.087.438.058.716-.088.832-3.417 3.126-5.301 6.076-5.652 8.85-.467 3.477 1.344 8.442 5.433 14.897 4.06 6.426 7.667 10.092 10.822 10.997 1.402.38 3.52.38 6.353 0 2.804-.408 5.696-1.11 8.675-2.103 2.015-.671 3.067-.817 3.154-.438.117.35-.847.906-2.891 1.665a41.586 41.586 0 01-9.332 2.322c-2.834.322-4.937.292-6.31-.087-3.33-.935-7.156-4.718-11.479-11.348-4.469-6.806-6.455-12.239-5.958-16.299.233-1.606.978-3.286 2.234-5.038 1.227-1.782 2.79-3.36 4.688-4.732zM44.61 18.356c-.964.73-1.65 1.314-2.059 1.752-.496.555-.935 1.242-1.314 2.06-.41.964-.818 1.402-1.227 1.314-.409-.117-.424-.686-.044-1.709.672-1.723 1.899-3.067 3.68-4.03.877-.438 1.417-.57 1.621-.395.176.205-.043.54-.657 1.008zM18.016 12.792c-.263-.614-.292-.979-.088-1.096.205-.116.497.088.876.614.994 1.256 1.402 2.935 1.227 5.038-.087.993-.35 1.46-.788 1.402-.439-.029-.614-.525-.526-1.49.117-1.664-.117-3.154-.701-4.468z" fill="#0D131A"/><path d="M4.697 36.495c.205-1.11.41-1.665.614-1.665.233.029.336.613.306 1.752 0 .935.263 1.71.789 2.322.935 1.052 2.468 2.381 4.6 3.987 2.103 1.578 3.593 2.527 4.47 2.848 1.401.497 5.666 1.023 12.793 1.578l13.275.613c.76-.03 1.358-.16 1.797-.394l1.402-1.227c.671-.701 1.08-.95 1.226-.745.176.175.015.672-.482 1.49-.409.671-.89 1.168-1.445 1.49-.585.32-1.33.496-2.235.525l-13.013-.613c-7.477-.526-12.063-1.096-13.757-1.709-.964-.321-2.629-1.373-4.995-3.154-2.365-1.782-3.914-3.14-4.644-4.075-.263-.35-.467-.818-.613-1.402-.146-.614-.175-1.154-.088-1.621z" fill="#0D131A"/><path d="M9.078 43.768l.701.044c1.14 3.154 2.863 6.221 5.17 9.2 2.133 2.746 3.841 4.294 5.127 4.645 2.628.7 6.309.102 11.04-1.797 4.907-1.986 8.705-4.542 11.392-7.667l.832-.044c.41.088.555.19.438.307-2.687 3.417-6.688 6.25-12.004 8.5-5.141 2.161-9.157 2.847-12.049 2.059-1.519-.41-3.432-2.103-5.74-5.083-2.424-3.096-4.25-6.323-5.476-9.682-.03-.176.16-.336.57-.482z" fill="#0D131A"/><path d="M6.143 40.219c0-.175.204-.263.613-.263.38 0 .57.088.57.263 0 .35.102 1.022.306 2.015.205 1.081.38 1.636.526 1.665.175.03.453-.102.832-.394l.745-.789.833.833-1.446 1.007-1.227.395c-.321-.117-.7-.789-1.139-2.016-.409-1.168-.613-2.074-.613-2.716zM33.745 48.061c.321.205.438.38.35.526L32.3 50.471c-.876.672-1.519 1.008-1.928 1.008-.35 0-.817-.41-1.402-1.227-.613-.818-1.007-1.548-1.183-2.19-.029-.176.146-.307.526-.395.409-.087.628-.044.657.131l.701 1.71c.35.642.6.963.745.963.234.03.687-.263 1.358-.876l1.359-1.621.613.087zM12.101 50.252c-.146-.263-.13-.424.044-.482l1.359-.263c.671-.029 1.095.044 1.27.22.175.175.19.671.044 1.489-.117.789-.277 1.344-.482 1.665-.146.204-.424.044-.832-.482l.57-1.402.087-.745c-.146-.146-.672-.044-1.577.307-.176.058-.336-.044-.482-.307zM28.444 54.414c.233-.058.584.132 1.051.57l1.314 1.446c.117.146.044.306-.219.482-.233.146-.409.146-.525 0-.701-1.11-1.183-1.636-1.446-1.578-.146.03-.292.336-.438.92l-.176 1.403c0 .175-.16.262-.482.262-.32 0-.482-.102-.482-.306 0-.468.146-1.081.439-1.84.35-.848.671-1.3.963-1.359zM21.652 63.44c.147-.088.322.102.526.57l.132.788c-3.535 2.541-6.455 5.287-8.763 8.237-2.22 2.833-5.038 7.346-8.456 13.538-1.577 1.753-2.629 3.389-3.154 4.907-.439 1.198-.453 1.943-.044 2.235.555.438 2 .277 4.337-.482l.614-.044.087.833c0 2.073.307 3.198.92 3.373.438.117 1.212-.365 2.322-1.446a18.292 18.292 0 002.98-3.549c.175.117.292.322.35.614l-.087.788c-.497.994-1.388 2.089-2.673 3.286-1.46 1.344-2.527 1.9-3.198 1.665-1.169-.32-1.738-1.752-1.71-4.293-1.167.467-2.277.715-3.329.745-.993.029-1.65-.132-1.971-.482-.468-.497-.497-1.446-.088-2.848.526-1.811 1.738-3.812 3.636-6.003 3.243-6.221 6.266-11.04 9.07-14.458 2.336-2.892 5.17-5.55 8.5-7.974z" fill="#0D131A"/><path d="M5.441 88.676c-.934 1.373-1.256 2.22-.964 2.541.293.263 1.213.132 2.76-.394.877-.38 1.373-.438 1.49-.175.088.292-.292.628-1.139 1.008-2.103.964-3.549 1.226-4.337.788-.906-.526-.438-1.986 1.402-4.381.613-.789 1.037-1.095 1.27-.92.263.146.103.657-.482 1.533zM21.828 63.528l.7.087c.38.234.527.424.439.57-7.857 17.876-10.968 33.62-9.332 47.23 2.132 18.022 12.925 28.245 32.378 30.67.175.029.321.263.438.701.146.467.117.686-.088.657-20.738-2.337-32.217-12.823-34.437-31.458-1.636-13.903 1.665-30.056 9.902-48.457z" fill="#0D131A"/><path d="M18.104 72.904c1.11-2.396 2.468-4.28 4.074-5.652 1.577-1.344 3.184-2.016 4.82-2.016 2.19 0 4.658 1.972 7.404 5.915 2.6 3.71 5.039 8.544 7.317 14.502 5.287 13.874 7.214 25.704 5.783 35.489l-.745 1.227-.657.657c1.49-10.661-.496-22.944-5.958-36.847-2.191-5.608-4.528-10.252-7.01-13.933-2.512-3.71-4.557-5.564-6.134-5.564-1.14 0-2.469.614-3.987 1.84-1.84 1.49-3.345 3.505-4.513 6.046-.088.176-.19-.014-.307-.57-.146-.583-.175-.948-.087-1.094zM55.783 60.022c-.03-.204.16-.92.57-2.146.437-1.198.671-1.71.7-1.534 1.782 12.735 3.476 22.213 5.083 28.435 2.132 8.441 5.038 15.627 8.718 21.556 5.988 9.639 8.223 18.606 6.704 26.901-.321 1.695-1.227 4.908-2.717 9.639-1.226 3.827-1.883 6.981-1.971 9.464-.088 2.337-.365 3.447-.833 3.33-.438-.117-.598-1.373-.482-3.768.176-2.746.833-6.061 1.972-9.946 1.344-4.498 2.147-7.594 2.41-9.288 1.168-7.624-1.183-16.372-7.054-26.244-3.651-6.134-6.397-12.998-8.237-20.593-.438-1.752-2.06-10.354-4.863-25.806z" fill="#0D131A"/><path d="M52.365 151.154c.526.263.818.482.877.657.788 2.016 1.153 4.966 1.095 8.851-.03 3.621.16 5.739.57 6.352.7 1.052 2.073 1.884 4.118 2.498 2.044.613 4.191.847 6.44.701 5.754-.351 9.114-2.702 10.077-7.054.234-1.081-.306-3.169-1.62-6.265-1.403-3.33-2.118-5.156-2.147-5.477-.03-.175.102-.526.394-1.052.263-.525.409-.686.438-.482.088 1.023.92 3.228 2.497 6.616 1.402 3.067 2.001 5.346 1.797 6.835-.672 4.79-4.309 7.448-10.91 7.974-2.629.205-5.14-.029-7.536-.701-2.395-.672-4.016-1.606-4.863-2.804-.672-.993-.89-3.505-.657-7.536.233-4.177-.175-7.258-1.227-9.244l.657.131z" fill="#0D131A"/><path d="M47.152 119.696c1.08-1.957 1.782-2.833 2.103-2.629.292.234-.059 1.373-1.052 3.418-2.745 5.696-3.68 11.216-2.804 16.561.877 5.375 3.564 10.179 8.062 14.415 1.606 1.519 2.278 2.439 2.015 2.76-.233.321-1.168-.248-2.804-1.709-4.965-4.381-7.974-9.288-9.025-14.721-1.11-5.783.058-11.815 3.505-18.095zM15.825 123.376c.146-.087.365.103.657.57.263.438.322.716.175.832-2.132 1.519-4.074 3.812-5.827 6.879-1.869 3.213-2.716 6.003-2.54 8.369.145 1.84.963 3.68 2.453 5.52a14.622 14.622 0 005.301 4.206c1.811.876 2.629 1.46 2.454 1.753-.146.321-1.213.073-3.199-.745a15.028 15.028 0 01-5.958-4.469c-1.636-1.986-2.527-4.046-2.673-6.178-.234-3.008.745-6.28 2.936-9.814 1.84-2.979 3.914-5.287 6.221-6.923zM34.797 146.992c-.117-.146.014-.351.394-.614.35-.262.584-.321.701-.175.993 1.402 1.694 2.79 2.103 4.162.41 1.432.438 2.6.088 3.505-.35.994-2.235 2.162-5.652 3.506-3.651 1.46-7.288 2.365-10.91 2.716-.204.029-.321-.175-.35-.613-.059-.439.014-.672.219-.701a35.951 35.951 0 0010.12-2.498c2.892-1.197 4.601-2.293 5.127-3.286.263-.526.234-1.343-.088-2.453-.35-1.198-.934-2.381-1.752-3.549z" fill="#0D131A"/><path d="M12.627 148.35c.175-.058.409.117.7.526.293.409.351.628.176.657-.789.292-1.782.759-2.98 1.402-1.197.672-2.117 1.256-2.76 1.753l-.832-.132c-.409-.204-.54-.365-.394-.482.76-.613 1.723-1.3 2.891-2.059 1.315-.818 2.38-1.373 3.199-1.665zM34.928 148.744c-.614 1.402-1.067 2.045-1.359 1.928-.292-.117-.233-.905.175-2.366.468-1.577 1.315-3.067 2.542-4.469 1.168-1.431 2.263-2.263 3.286-2.497.175-.029.496.117.964.438.467.321.613.497.438.526-.76.175-1.767.891-3.023 2.147-1.373 1.402-2.38 2.833-3.023 4.293z" fill="#0D131A"/><path d="M9.56 153.038c.438.73.73 1.563.877 2.497.029.176-.146.293-.526.351-.38.029-.599-.044-.657-.219l-.658-1.753c-.38-.584-.686-.876-.92-.876-.876-.029-2.059.526-3.548 1.665-1.46 1.081-2.133 1.811-2.016 2.191.117.292.862.423 2.235.394l3.68-.394c.175-.03.307.146.394.525.088.38.044.585-.131.614l-5.871.306c-1.315-.146-2.001-.394-2.06-.744-.116-.76.848-1.943 2.892-3.549 2.016-1.607 3.535-2.395 4.557-2.366.642.029 1.227.482 1.752 1.358z" fill="#0D131A"/><path d="M14.862 157.507a4.711 4.711 0 00-.57-2.103c-.409-.672-.832-.979-1.27-.92-.79.117-1.958.905-3.506 2.366-1.519 1.402-2.22 2.263-2.103 2.585.088.263.964.263 2.63 0l3.899-.833c.175-.058.262.103.262.482 0 .409-.087.628-.263.657-1.43.468-3.066.775-4.907.921-1.898.146-2.95.014-3.154-.395-.292-.613.482-1.884 2.322-3.812 1.84-1.986 3.388-3.066 4.644-3.242.789-.117 1.49.263 2.103 1.139.643.877.979 1.928 1.008 3.155 0 .175-.175.263-.526.263-.38 0-.57-.088-.57-.263z" fill="#0D131A"/><path d="M11.838 161.932c-.321-.526.438-1.84 2.279-3.943 1.869-2.132 3.359-3.242 4.468-3.33.818-.087 1.665.526 2.542 1.84.876 1.256 1.197 2.308.963 3.155-.204.789-1.927 1.46-5.17 2.015l-5.082.263zm1.49-.92l3.593-.394c2.336-.497 3.578-.964 3.724-1.402.175-.497.029-1.169-.438-2.016-.468-.847-.964-1.256-1.49-1.226-.73.058-1.855.861-3.374 2.409-1.46 1.461-2.132 2.337-2.015 2.629zM135.523 113.08c.059-.175.292-.175.701 0 .409.176.584.351.526.526-3.213 7.624-7.594 13.641-13.144 18.051-4.995 3.943-10.603 6.338-16.824 7.186-5.755.788-11.363.175-16.825-1.841-5.403-1.986-9.828-5.024-13.275-9.113-.117-.146-.073-.555.131-1.227.234-.671.41-.934.526-.788 3.739 4.44 8.325 7.653 13.758 9.639 5.345 1.986 10.821 2.526 16.429 1.621 5.842-.964 11.129-3.374 15.861-7.229 5.17-4.206 9.215-9.815 12.136-16.825z" fill="#0D131A"/><path d="M139.379 115.841c.029-.176.263-.234.701-.176.438.059.643.176.614.351-1.227 10.135-4.82 18.562-10.778 25.28-5.2 5.842-11.786 9.99-19.76 12.443-7.156 2.162-14.327 2.687-21.513 1.577-6.98-1.08-12.326-3.461-16.035-7.141-.117-.117-.059-.468.175-1.052.234-.584.409-.818.526-.701 3.476 3.476 8.587 5.798 15.334 6.967 6.981 1.226 13.933.876 20.856-1.052 7.769-2.161 14.195-6.046 19.277-11.654 5.842-6.455 9.376-14.736 10.603-24.842z" fill="#0D131A"/><path d="M138.415 123.727l-.131 2.191c-2.804 7.623-7.288 13.713-13.451 18.27-5.404 4.031-11.683 6.601-18.84 7.711-6.513 1.022-12.778.715-18.795-.92-5.93-1.577-10.37-4.104-13.32-7.58-.117-.146-.058-.453.175-.92.234-.438.41-.584.526-.438 2.921 3.417 7.332 5.929 13.232 7.536 6.017 1.606 12.268 1.884 18.752.832 7.127-1.139 13.363-3.768 18.708-7.886 6.076-4.703 10.457-10.968 13.144-18.796zM147.397 85.829V84.47c-.088-.175-.395-.058-.921.35-1.431 1.198-2.249 1.71-2.453 1.534-.175-.146-.175-1.066 0-2.76.35-3.622-.409-5.871-2.278-6.747-.789-.35-1.213-.891-1.271-1.621-.058-.555.117-1.782.526-3.68.467-2.25.701-3.944.701-5.083 0-1.198-.234-2.716-.701-4.557-.234 1.607-.511 2.834-.833 3.68-.321.848-.759 1.505-1.314 1.972-2.162 1.87-3.651 3.462-4.469 4.776-.701 1.14-1.008 2.322-.92 3.549.117 1.168.102 2.06-.044 2.672l-.789 1.71-.744 1.182c-.234.438-.395.993-.482 1.665-.146.993-.307 1.504-.482 1.534-.146.029-.497-.38-1.052-1.227-.584-.847-.657-2.176-.219-3.987.234-.877.161-1.826-.219-2.848-.38-.993-.467-1.797-.263-2.41-.409.38-.715 1.066-.92 2.06-.204 1.08-.131 2.015.219 2.803.321.701.38 1.578.175 2.63l-.525 1.576c-.38.73-.57 1.388-.57 1.972l.351 1.577c.35 1.11.423 1.957.219 2.541-.847 2.016-1.271 3.418-1.271 4.207 0 .642.307 1.43.92 2.365.614.906.891 1.739.833 2.498l-.745 2.322-.876 1.709a6.045 6.045 0 00-.439 2.059c-.058 1.197.278 2.366 1.008 3.505.73 1.227 1.621 1.957 2.673 2.191l4.118 1.183a7.769 7.769 0 012.936 2.103c.876.934 1.635 1.445 2.278 1.533.701.117 1.46-.248 2.278-1.095.789-.847 1.651-1.504 2.585-1.972.701-.321 1.271-1.051 1.709-2.19.438-1.169.876-1.87 1.314-2.104 1.139-.642 1.957-1.241 2.454-1.796.701-.788.993-1.709.876-2.76-.087-.643.059-1.636.438-2.979.38-1.344.541-2.337.482-2.98V94.68c.088-.935.219-1.68.395-2.235l-1.052 2.06-1.358 2.453c-.672 1.314-1.139 1.957-1.402 1.928-.263 0-.336-.672-.219-2.016l.35-2.716.219-2.629c-.876.701-1.446.993-1.708.876-.234-.116-.307-.628-.219-1.533l.701-5.038zm-4.689-21.162l.22 2.847c-.03.79-.395 2.498-1.096 5.127-.467 1.665-.321 2.672.438 3.023 1.578.7 2.542 1.825 2.892 3.373.351 1.344.263 3.257-.263 5.74 1.87-1.87 2.994-2.424 3.374-1.665.438.789.248 3.345-.57 7.667.906-.76 1.475-.92 1.709-.482.321.555.263 2.162-.175 4.82l1.358-1.928.876-1.709c.467-1.197.789-1.81.964-1.84.234 0 .365.687.394 2.06l-.175 2.453c-.058 1.11.015 2.015.219 2.716.263.818.117 1.943-.438 3.374-.584 1.46-.774 2.512-.57 3.155.38 1.314-.073 2.468-1.358 3.461-1.781 1.343-2.818 2.337-3.11 2.979l-.789 1.753c-.438.73-.935 1.212-1.49 1.446-1.11.467-1.957 1.022-2.541 1.664-1.402 1.432-2.483 2.103-3.242 2.016-.643-.059-1.65-.847-3.023-2.366-1.665-1.869-3.929-2.979-6.791-3.33-1.169-.146-2.206-.876-3.111-2.191-.847-1.226-1.314-2.497-1.402-3.811-.088-.906.292-2.162 1.139-3.768.847-1.578 1.256-2.57 1.227-2.98-.029-.525-.234-1.007-.614-1.445l-.876-1.096c-.584-1.11-.248-3.257 1.008-6.44.35-.818.336-1.607-.044-2.366-.438-.906-.657-1.636-.657-2.19.029-.497.277-1.198.745-2.104l.613-1.49c.117-.613.088-1.329-.088-2.146-.321-1.432-.306-2.673.044-3.725.205-.555.672-1.387 1.402-2.497.438-.672.716-.993.833-.964.146.03.233.453.263 1.27l-.044 1.228c.029.73.204 1.504.526 2.322.35.934.321 2.044-.088 3.33-.263.759-.219 1.577.131 2.453l1.402-2.716c.38-.672.555-1.359.526-2.06l-.175-1.884c0-2.22.613-3.987 1.84-5.301.73-.818 2.132-2.074 4.206-3.768.818-.993 1.329-2.643 1.534-4.95.233-2.075.438-3.126.613-3.155.234-.059.745.993 1.533 3.154.293.789.526 1.767.701 2.936zM44.085 21.686l.832-.132c.38.03.512.117.395.263-1.899 2.074-3.067 5.375-3.505 9.902-.41 4.177-.088 7.244.964 9.2.087.176-.044.322-.395.439l-.657-.088c-1.227-2.366-1.592-5.71-1.095-10.033.496-4.381 1.65-7.565 3.461-9.551zM18.148 46.484c.204 0 .51.146.92.438.409.292.525.438.35.438-1.197.088-2.483.424-3.855 1.008-1.227.555-2.293 1.198-3.199 1.928-.117.117-.277.03-.482-.263-.204-.292-.248-.497-.131-.613 2.161-1.782 4.293-2.76 6.397-2.936z" fill="#0D131A"/><path d="M54.688 167.935c.175-.614.555-1.169 1.139-1.665.7-.555 1.387-.731 2.059-.526.905.292 1.592.92 2.06 1.884.408.847.525 1.577.35 2.191-.292.993-1.037 2.249-2.235 3.767-1.168 1.432-1.942 2.162-2.322 2.191-.467.029-.832-1.037-1.095-3.198-.263-2.132-.248-3.681.044-4.644zM63.582 169.512c-.117-.847-.044-1.592.22-2.235.32-.788.89-1.27 1.708-1.445 1.577-.293 2.687.306 3.33 1.796.38.905.467 2.483.263 4.732-.205 2.22-.511 3.417-.92 3.592-.41.176-1.183-.394-2.323-1.708-1.255-1.461-2.015-3.038-2.278-4.732zM71.994 168.592c.204-1.899.788-3.301 1.752-4.206.906-.847 1.68-.906 2.323-.176.584.672 1.124 2.366 1.62 5.083.526 2.658.629 4.06.307 4.206-.38.175-1.49-.497-3.33-2.016-1.84-1.518-2.73-2.482-2.672-2.891z" fill="white"/><path d="M48.16 64.01l9.945 15.465c-1.285 4.586-4.118 9.172-8.5 13.758-1.547 1.606-3.899 3.666-7.053 6.178l-3.593 3.154c-1.49 1.227-2.483 1.753-2.98 1.577-.437-.116-.817-1.007-1.138-2.672l-.35-2.454-2.235 1.402c-1.578.847-2.57 1.066-2.98.657-.38-.379-.453-1.285-.219-2.716l.438-2.015c-2.161 0-3.227-.336-3.198-1.008.03-.467.584-1.154 1.665-2.06 1.343-1.138 2.264-2.073 2.76-2.803 1.198-5.813 4.47-11.961 9.814-18.446 2.658-3.242 5.2-5.915 7.624-8.017z" fill="#EF8200"/><path d="M36.198 104.055c1.665-3.096 2.921-5.156 3.768-6.178l8.325-7.58c4.469-4.001 7.58-7.506 9.332-10.515-.35 3.009-2.264 6.718-5.74 11.129-3.213 4.089-6.09 6.776-8.63 8.061-3.74 3.009-6.09 4.703-7.055 5.083z" fill="#CF7100"/><path d="M59.288 166.664c1.11 1.665 1.081 3.578-.087 5.74-.993 1.84-2.016 2.92-3.067 3.242l2.234-4.864c.672-1.84.979-3.213.92-4.118zM64.37 166.62l1.096 4.25c.468 1.694 1.008 3.228 1.621 4.6-.526.117-1.212-.525-2.059-1.927-.876-1.432-1.373-2.775-1.49-4.031-.087-1.081.03-1.884.35-2.41l.483-.482zM72.695 166.357l2.278 3.023c1.548 2.133 2.366 3.549 2.453 4.25l-2.585-1.884c-1.723-1.431-2.585-2.512-2.585-3.242s.073-1.3.22-1.709l.219-.438z" fill="#DBDCDC"/><path d="M57.623 166.445c-1.11-.088-1.84.336-2.19 1.27-.351.877-.424 2.308-.22 4.294.146 1.87.365 2.863.657 2.979.293.117.935-.511 1.928-1.883.993-1.403 1.578-2.542 1.753-3.418.117-.701-.015-1.387-.395-2.059-.38-.701-.89-1.095-1.533-1.183zm.263-1.095c.964.233 1.723.832 2.278 1.796.497.847.701 1.738.614 2.673-.117.876-.877 2.219-2.279 4.03-1.402 1.811-2.366 2.688-2.892 2.629-.642-.029-1.124-1.329-1.445-3.899-.292-2.541-.249-4.323.131-5.345.234-.614.716-1.125 1.446-1.534.76-.409 1.475-.526 2.147-.35zM68.138 167.716a2.077 2.077 0 00-1.008-1.052 2.016 2.016 0 00-1.358-.219c-.409.088-.774.336-1.095.745-.38.467-.555.993-.526 1.577.03 1.402.599 2.906 1.709 4.513.993 1.431 1.65 2.088 1.971 1.971.292-.087.526-1.08.701-2.979.234-2.045.103-3.563-.394-4.556zm-.526-2.191c.672.35 1.183.891 1.534 1.621.496 1.081.613 2.906.35 5.477-.263 2.512-.672 3.841-1.227 3.987-.76.204-1.854-.731-3.286-2.804-1.46-2.103-2.161-3.812-2.103-5.127a4.307 4.307 0 01.745-2.146c.497-.731 1.14-1.169 1.928-1.315a2.959 2.959 0 012.06.307zM72.826 168.373c.03.671.774 1.592 2.235 2.76 1.372 1.139 2.146 1.65 2.322 1.533.233-.204.116-1.475-.35-3.811-.498-2.483-1.096-3.944-1.797-4.382-.672-.058-1.256.38-1.753 1.315-.496.847-.715 1.708-.657 2.585zm-1.227.087c-.087-1.139.292-2.322 1.14-3.549.876-1.314 1.796-1.884 2.76-1.708 1.051.233 1.913 2.088 2.585 5.564.671 3.417.715 5.272.131 5.564-.38.205-1.548-.496-3.505-2.103-2.015-1.665-3.052-2.921-3.11-3.768zM45.355 65.63c1.52-1.168 2.395-1.664 2.63-1.49.262.205-.293.965-1.666 2.28a61.464 61.464 0 00-8.938 10.865c-2.891 4.44-4.878 8.719-5.958 12.837-.205.701-.657 1.446-1.359 2.235l-1.927 1.752c-.701.584-.935.993-.701 1.227.233.234.978.35 2.234.35.175 0 .248.205.22.614-.03.409-.132.613-.308.613-1.635 0-2.818-.233-3.548-.7-.993-.673-.658-1.695 1.007-3.068l2.147-1.84c.497-.496.803-1.008.92-1.533 1.227-4.557 3.184-8.997 5.871-13.32 2.804-4.527 5.93-8.134 9.376-10.822z" fill="#0D131A"/><path d="M56.046 82.192c.818-2.045 1.358-2.994 1.62-2.848.293.146.089 1.3-.612 3.461-1.052 3.33-2.82 6.5-5.302 9.508-2.307 2.833-4.878 5.111-7.711 6.835-.555.35-1.899 1.489-4.03 3.417-2.075 1.694-3.535 2.41-4.382 2.147-.468-.146-.877-.701-1.227-1.665a8.104 8.104 0 01-.482-3.023c-1.14.818-2.249 1.344-3.33 1.577l-1.884-.087c-.38-.322-.496-1.052-.35-2.191.146-1.11.496-2.205 1.051-3.286.789-1.519 1.344-2.22 1.665-2.103.322.088.132.95-.57 2.585-.846 1.986-1.066 3.184-.657 3.593l1.622-.263a12.91 12.91 0 002.54-1.27c.41-.264.672-.366.79-.307.145.029.233.277.262.744.175 2.571.555 3.943 1.14 4.119.496.146 1.562-.482 3.198-1.884l4.118-3.374c2.308-1.431 4.644-3.593 7.01-6.484 2.454-3.009 4.294-6.076 5.52-9.201z" fill="#0D131A"/></svg>