<svg width="223" height="219" fill="none" xmlns="http://www.w3.org/2000/svg"><path d="M156.954 84.464l-.4-.278.523 1.111c.164.33.533.72 1.107 1.172l.86.772-.03-.864c-.041-.411-.728-1.05-2.06-1.913zm18.142-9.348c.246-.946.727-2.108 1.445-3.486l1.045-1.882c.246-.37.585-.494 1.015-.37.41.144.595.442.554.895l-.308 4.257c-.184 3.003-.225 5.039-.123 6.108.062.515.195.905.4 1.173l.892.679 1.291.77c.595.412 1.035.854 1.322 1.327.738 1.173 1.23 2.983 1.476 5.43.246 2.263.195 3.95-.154 5.06-.123.39-.143.73-.061 1.018.061.267.246.576.553.925l.708.401.615.463.246 1.08c-.021.267-.164.555-.431.864l-.676.925c-.246.453-.369.864-.369 1.234l.184 1.265c.082.679.051 1.214-.092 1.605-.185.575-.564.874-1.138.894-.656-.061-1.107-.061-1.353 0-.492.144-.871.329-1.137.556-.39.411-.646.956-.769 1.635-.144.658-.123 1.193.061 1.604l.585.185.707.185.953.216c.369.185.584.494.646.926l-.461.647-.861 1.049-1.138 1.204c-.492.555-.605.946-.338 1.172.184.144.533-.154 1.045-.895.738-1.069 1.322-1.81 1.753-2.221 1.271-1.234 2.613-2.088 4.028-2.561 1.701-.658 2.552-.915 2.552-.771l-.461.617-.492.586c1.353-.658 3.239-1.439 5.658-2.344l1.445-.247c.738-.103 1.117-.103 1.138 0 .041.185-.236.493-.831.925l-1.168.802-7.903 6.202c-.82.658-1.629 1.614-2.429 2.869-.676 1.007-1.127 1.861-1.353 2.56-.143.473-.399.833-.768 1.08l-1.107.648-.585.432.031.185c.144.617.123 1.429-.061 2.437l-.646.679-.707.586c4.817 7.918 7.943 15.775 9.378 23.57 2.173 11.682.215 22.028-5.873 31.036-7.728 11.415-17.045 18.573-27.951 21.473-4.654 1.234-9.983 1.83-15.99 1.789l-17.466-1.265c-9.921-1.131-19.146-4.885-27.674-11.261a62.356 62.356 0 01-7.472-6.602l-2.86-3.208.523-2.561 49.937-13.482.861 3.641 1.414-1.296c.103-.35.103-.689 0-1.018-.102-.288-.235-.504-.399-.648l7.011 3.486c4.673 2.304 9.491 2.695 14.452 1.173 5.986-1.831 11.09-6.294 15.313-13.39 2.788-4.689 3.936-10.16 3.444-16.412-.369-4.752-1.589-9.492-3.659-14.223-1.517.062-2.378.206-2.583.432-.595.679-1.158 1.09-1.691 1.234-1.128.35-2.553-.062-4.275-1.234l-.123-.092c-.553-.371-.789-1.152-.707-2.345l-.092-.926-.277-.678c-.164-.185-.42-.35-.769-.494l-1.26-.524-1.261.123-1.507.648c-1.168.699-1.886 1.08-2.152 1.141-.902.227-1.63-.401-2.183-1.882l-.677-2.622-.154-.463-.707-1.511c-.225-.576-.164-1.142.185-1.697.205-.35.42-1.203.645-2.561.226-1.357.328-2.406.308-3.147l-.031-1.265c0-.596.123-1.162.369-1.696.144-.309.42-.751.83-1.327l1.015-1.635.308-1.203-.154-1.08c-.205-.802-.287-1.501-.246-2.098l.092-1.512c.041-.596.154-1.12.338-1.573.082-.206.359-.71.831-1.512.328-.576.481-.987.461-1.234-.041-.411-.4-1.573-1.076-3.486-.677-1.81-1.077-3.105-1.2-3.887a17.347 17.347 0 01-.184-2.622l.031-1.265c.02-.227.133-.422.338-.587l-2.737-2.406a.784.784 0 01-.277-.524.75.75 0 01.154-.617c.103-.165.267-.278.492-.34l.584.093c1.907.967 3.127 1.511 3.66 1.635l1.629-.03.738-.124c1.087-.165 2.265.39 3.536 1.666l.246.277-.399-3.332c-.062-.884.256-2.272.953-4.164a54.79 54.79 0 011.968-4.381c.328-.659.594-1.954.799-3.888l.246-4.01c0-.453.216-.72.646-.802.431-.103.748.04.953.432l.4 1.049c.267.822.4 1.604.4 2.344 0 .535.143 1.502.43 2.9L169.1 66.2a.928.928 0 01.153-.617.846.846 0 01.554-.37c.225-.02.441.03.646.154a.77.77 0 01.338.525l.276 1.234c.246.905.513 1.666.8 2.283.266.596.389 1.295.369 2.098l-.246 2.067-.215 1.388c-.041.658.522 1.758 1.691 3.301l.738.987.338.586.092-1.295c.103-1.543.257-2.684.462-3.425z" fill="#0D131A"/><path d="M173.619 92.27l.554-.31c.143.063.143.381 0 .957-.205.844-.298 1.851-.277 3.024.02 1.09.133 2.015.338 2.776.185.638.482 1.224.892 1.759.348.493.533.966.553 1.419a14.273 14.273 0 01-.246 3.023c0 .206.072.35.216.432.123.083.317.011.584-.216.266-.329.502-.781.707-1.357.103-.309.113-.679.031-1.111-.041-.535.041-1.008.246-1.419l.492-1.018c.184-.37.369-.525.553-.463l.093.525-.154 1.573.369.555.154.926c-.041.329-.328 1.111-.861 2.345l-.708 2.067c-.225.699-.317 1.223-.276 1.573.102.967.297 1.45.584 1.45l.246-.401.246-.833.984-1.882c.205-.35.594-.812 1.168-1.388a5.255 5.255 0 00-.676 2.56c0 .391.102.844.307 1.358.144.329.554.565 1.23.709.656.103 1.005.299 1.046.587.041.329-.185.699-.677 1.11l-1.168 1.018c-.308.391-.472.792-.492 1.204-.041.473.123.833.492 1.079.41.288 1.004-.113 1.783-1.203l1.753-2.375c.656-.556 2.07-1.358 4.243-2.407l-1.968 1.697c-.287.247-.563.607-.83 1.08l-.307.648 1.23-.833a54.472 54.472 0 012.613-1.605c1.23-.658 3.26-1.511 6.089-2.56l-8.087 5.831c-.964.761-1.897 1.696-2.799 2.807-.84 1.07-1.373 1.944-1.598 2.622-.185.515-.615 1.049-1.292 1.605l-1.414 1.079c-.185.206-.236.504-.154.895l.031 1.543c-.082.349-.287.668-.615.956l-4.551-4.936-1.968-1.759-1.077-.771 2.245 3.054-1.722.185-.4.525-1.26-2.314.123 1.049c.184.946.502 2.077.953 3.394l-1.322.123-.8.247-.522-.031c-.595-.514-.913-.874-.954-1.08-.02-.123.021-.247.123-.37l.216-.278c.246-.473.328-1.131.246-1.974-.082-.843-.298-1.481-.646-1.913-.328-.432-.933-.915-1.814-1.45-.943-.555-1.692-.833-2.245-.833-.205 0-.533.113-.984.34l-1.076.493c-.39.103-.718-.072-.984-.524-.451-.864-.8-1.841-1.046-2.931-.246-1.152-.236-1.861.031-2.129.307-.308 1.209-.802 2.706-1.481l1.568-.894c.451-.309.728-.628.83-.957.246-.678-.02-1.501-.799-2.468-1.025-1.254-1.251-2.458-.677-3.609.246-.535.841-.977 1.784-1.327.574-.226 1.168-.668 1.783-1.327l.954-1.758.799-2.437c.205-.74.4-1.111.584-1.111.123 0 .205.288.246.864.041.76 0 1.511-.123 2.252l-.246 1.48c-.041.289-.02.474.062.556a.545.545 0 00.523.154 2.477 2.477 0 001.414-.956c.43-.617.748-1.563.953-2.838a7.068 7.068 0 011.076-2.746l.769-.926z" fill="#EFE908"/><path d="M175.895 75.332c.246-.905.728-2.026 1.445-3.363l.984-1.758-.307 4.257c-.205 3.044-.246 5.132-.123 6.263.102 1.008.553 1.78 1.353 2.314 1.086.72 1.814 1.368 2.183 1.944.697 1.11 1.23 2.807 1.599 5.09.369 2.221.41 3.805.123 4.751-.226.74-.092 1.46.4 2.16l1.137 1.542c.185.39.216.679.093.864a4.81 4.81 0 00-.646.987c-.185.391-.277.885-.277 1.481 0 .72-.102 1.357-.307 1.913-.205.637-.667 1.069-1.384 1.296-.923.287-1.527.575-1.814.863l-.492.648c-.656.7-1.22 1.594-1.692 2.684l-.369 1.173-.276.555c-.123.041-.246-.072-.369-.339l-.308-1.111c-.061-.432-.01-.946.154-1.543l.584-1.758.646-1.604.369-1.234-.031-.741-.246-.339a1.332 1.332 0 01-.246-.741l.154-1.141c.061-.329.051-.504-.031-.525-.184-.04-.441.319-.768 1.08-.308.658-.431 1.193-.369 1.604v1.08c-.451 1.275-.913 1.872-1.384 1.79-.349-.062-.431-.453-.246-1.173l.154-2.159c0-.576-.144-1.07-.431-1.481-.451-.597-.738-1.11-.861-1.543-.451-1.583-.635-3.095-.553-4.535.02-.473.143-1.08.369-1.82.287-.967 0-.936-.861.093a7.17 7.17 0 00-1.292 2.776c-.369 1.728-.789 2.88-1.261 3.455-.143.165-.369.33-.676.494-.349.185-.636.267-.861.247l-.369-.247-.092-.34.43-3.239c.062-.925 0-1.388-.184-1.388-.103 0-.216.195-.339.586l-.43 1.388c-.492 1.564-.902 2.54-1.23 2.931l-1.169 1.08-1.168.71c-.369.144-.646.288-.83.432-.246.205-.451.514-.615.925-.308.699-.338 1.388-.092 2.067l.861 1.419.707 1.203c.143.371.154.761.031 1.173-.082.226-.369.535-.861.925l-2.061 1.173c-.943.349-1.67.771-2.183 1.265-.512.534-.195 2.169.953 4.905.205.411.492.566.861.463l.984-.463c.513-.247.954-.37 1.323-.37.41 0 1.106.308 2.09.925.923.556 1.528.998 1.815 1.327.287.308.492.894.615 1.758.123.802.123 1.409 0 1.821l-.431.771c-.123.205-.102.38.062.524l.615.586c.205.186.42.258.645.216l.831-.277 1.199-.124.676 1.821-.307-.062c-.472-.103-1.066.226-1.784.987l-1.599 1.45c-.635.165-1.865-.36-3.689-1.573-.328-.227-.482-.525-.462-.895.041-.596 0-1.059-.123-1.388-.184-.535-.553-.946-1.107-1.234-.717-.268-1.291-.525-1.722-.772l-2.337.124-2.214.894c-.512.124-1.055-.226-1.629-1.048a9.29 9.29 0 01-1.077-2.222l-.461-1.635c-.082-.514.031-1.018.338-1.512.287-.473.451-1.614.492-3.424l-.061-3.826c0-.678.236-1.357.707-2.036l1.415-2.252a3.664 3.664 0 00.307-2.375c-.225-1.173-.328-1.944-.307-2.314.041-.555.358-1.584.953-3.085.553-1.378.799-2.345.738-2.9-.041-.556-.4-1.759-1.076-3.61-.697-1.954-1.097-3.219-1.2-3.794a13.933 13.933 0 01-.153-2.53l.03-1.173.154.587c.164.493.4 1.007.707 1.542.246.453.667.926 1.261 1.42.656.534 1.128 1.017 1.415 1.45.287.431.481.956.584 1.573.287-1.728.379-3.014.277-3.857-.062-.555-.472-1.13-1.23-1.727l-1.907-1.265c-.41-.288-1.189-.946-2.337-1.975l-1.63-1.45 1.507.74c1.087.535 1.866.865 2.337.988l1.384.093 1.291-.247c.841-.124 1.794.35 2.86 1.419.205.206.359.627.461 1.265.123.678.39 1.306.8 1.882.758 1.028 1.189 1.83 1.291 2.406-.758-4.936-1.189-8.021-1.291-9.255-.062-.823.277-2.16 1.015-4.011a40.763 40.763 0 011.844-4.103c.41-.823.718-2.437.923-4.844l.184-3.393.369.894c.246.74.369 1.44.369 2.098 0 .555.123 1.481.369 2.777l.462 2.9c.102 1.131.194 1.604.276 1.419.287-.37.574-.987.861-1.851.287-.843.236-2.5-.153-4.967l.307 1.265.83 2.437c.287.638.369 1.47.246 2.499l-.369 2.622c-.061.7.236 1.553.892 2.56l1.661 2.284c.574.843.902 1.79.984 2.838.389-.658.676-1.419.861-2.283l.184-2.16c.041-1.069.164-2.005.369-2.807z" fill="#E50020"/><path d="M94.717 190.53a68.414 68.414 0 01-7.472-6.294l-2.614-2.776 23.923-6.448a45.434 45.434 0 008.61 11.445c5.473 5.266 11.746 8.598 18.818 9.996 13.428 2.633 26.178-.308 38.253-8.823 2.521-1.79 4.878-4.011 7.072-6.664-7.564 10.88-16.615 17.647-27.152 20.3-4.448 1.131-9.553 1.656-15.313 1.573l-16.574-1.265c-9.696-1.11-18.88-4.792-27.551-11.044z" fill="#DDD583"/><path d="M111.075 174.395l10.855-2.962c2.788 5.08 7.052 9.163 12.791 12.248 5.884 3.147 12.372 4.72 19.465 4.72 6.17 0 11.931-1.213 17.281-3.64 5.186-2.365 9.368-5.584 12.546-9.657-2.645 4.813-6.119 8.68-10.424 11.6-11.87 8.042-24.344 10.778-37.422 8.207-6.745-1.337-12.546-4.505-17.404-9.502-2.706-2.798-5.269-6.469-7.688-11.014z" fill="#D18200"/><path d="M171.683 121.208l-.43-2.438 1.26 1.111 1.107 1.573 3.721 5.029c3.218 4.607 5.883 9.996 7.995 16.166 2.029 5.923 3.044 11.055 3.044 15.395 0 6.047-1.455 11.733-4.366 17.06-3.178 4.073-7.36 7.291-12.546 9.657-5.35 2.427-11.111 3.64-17.281 3.64-7.093 0-13.581-1.573-19.465-4.72-5.739-3.085-10.003-7.168-12.791-12.248l12.638-3.424.676.647c1.148.782 3.444 2.016 6.888 3.703 4.981 2.447 10.209 2.848 15.682 1.203 6.601-1.975 12.156-6.736 16.666-14.284 2.911-4.875 4.018-10.654 3.321-17.338-.512-4.813-1.896-9.821-4.151-15.025-1.127-2.591-2.091-4.566-2.89-5.923l-.308-1.45 1.23 1.666z" fill="#F29600"/><path d="M116.856 183.28c-1.968-2.365-3.895-5.327-5.781-8.885l23.462-6.356.092.155c.185.205.625.514 1.322.925.41 1.81.615 3.641.615 5.492a24.56 24.56 0 01-2.06 9.934 24.584 24.584 0 01-5.627 8.021c-4.571-2.077-8.579-5.173-12.023-9.286z" fill="#D18200"/><path d="M90.628 187.352a26.03 26.03 0 01-2.768-6.756l20.695-5.584c1.66 3.188 3.751 6.18 6.273 8.977 3.751 4.237 8.015 7.477 12.791 9.718a24.843 24.843 0 01-7.134 4.134 24.367 24.367 0 01-8.394 1.543c-7.667-2.447-14.821-6.458-21.463-12.032z" fill="#DDD583"/><path d="M62 28.624l-8.949 9.934c-.369.514-.553 1.964-.553 4.35 0 2.673.266 5.46.8 8.36.327 1.892 1.065 4.33 2.213 7.312 1.169 3.085 2.173 5.142 3.014 6.17l4.55 5.152 4.213 4.782c.636.926 1.087 2.458 1.353 4.597.574 3.764 1.046 6.19 1.415 7.28a27.588 27.588 0 001.906 4.29c.554.986 1.384 2.313 2.49 3.979a46.417 46.417 0 005.197 6.324l1.353-.555 1.63-.093c.554.186.943.7 1.169 1.543l.4 2.098 1.937 1.296c.39.267.635.658.737 1.172.062.473-.05.905-.338 1.296l-4.49 5.831-2.828 7.188c-.226.596-.656.946-1.291 1.049-.287.062-.708-.041-1.261-.309l-1.107-.74c-2.173-2.633-4.408-5.019-6.704-7.158-3.444-3.188-6.19-4.977-8.24-5.368-1.497-.288-3.034-.164-4.613.371-.471.185-1.701.771-3.69 1.758-1.23.617-2.122.998-2.675 1.142-.922.246-1.742.185-2.46-.186-.594-.308-.933-.833-1.015-1.573l.062-1.419.154-.679c.184-1.193-.103-2.499-.861-3.918-.492-.864-1.446-1.738-2.86-2.622-2.091-1.337-4.438-2.006-7.042-2.006-6.006 0-12.34 2.51-19.003 7.528-3.792 2.838-7.072 5.934-9.84 9.286-.102.864-.102 1.923 0 3.178l.185 2.005c0 1.029-.246 1.934-.738 2.715-.513.802-1.128 1.203-1.845 1.203-.677 0-1.281-.257-1.814-.771-.677-.638-1.066-1.563-1.169-2.777l-.03-.185c-.431-4.895-.708-8.761-.83-11.6-.083-1.912-.083-3.064 0-3.455.368-2.53 1.188-6.53 2.46-12.001 1.188-5.142 2.264-9.4 3.228-12.772.84-2.962 2.193-6.983 4.059-12.063 1.742-4.751 2.88-7.6 3.413-8.546.697-1.254 3.485-4.73 8.364-10.427 4.817-5.615 7.83-8.916 9.04-9.904 1.005-.822 2.604-1.727 4.797-2.715l1.968-.894c.84-.391 1.353-.658 1.538-.802l7.625-5.924 7.872-6.016c1.538-1.11 3.003-1.779 4.397-2.005 1.456-.226 2.542.072 3.26.895.533.617.779 1.419.738 2.406-.062 1.11-.492 2.108-1.292 2.993z" fill="#0D131A"/><path d="M30.88 54.076c4.49-3.826 7.114-5.903 7.872-6.232 1.025-.144 2.46.02 4.305.494 1.866.493 2.973 1.018 3.321 1.573.226.432 1.527 4.401 3.905 11.908l1.692 5.06c.43 1.131 3.433 4.134 9.01 9.008.717.638 1.64 2.89 2.767 6.757l.738 2.468 1.445 5.584 1.968 8.114c.43 1.666.82 2.612 1.168 2.838 1.374.946 2.932 2.417 4.674 4.412.328.391 1.025 1.892 2.091 4.504l2.89 7.312-1.076 2.437c-1.68-1.872-3.628-3.805-5.842-5.8-4.428-3.97-7.974-6.201-10.64-6.695-2.541-.473-5.33-.02-8.363 1.358l-2.83 1.326c-.88.35-1.537.412-1.967.185-.226-.123-.38-.545-.461-1.264l-.062-1.019c.144-.329.215-.781.215-1.357 0-1.131-.338-2.324-1.014-3.579-.574-1.09-1.722-2.108-3.444-3.054-2.255-1.255-4.828-1.882-7.718-1.882-5.822 0-11.829 2.108-18.02 6.325-3.833 2.612-7.4 5.758-10.7 9.44.225-8.309.471-12.968.738-13.975.881-3.6 2.767-9.513 5.658-17.74 3.854-10.921 6.939-17.852 9.255-20.793.984-1.234 3.793-3.805 8.426-7.713z" fill="#008086"/><path d="M60.4 27.822c-5.166 5.512-8.251 8.895-9.256 10.15-.656.843-.871 2.838-.646 5.985.144 2.098.472 4.535.984 7.311.328 1.872 1.159 4.402 2.491 7.59 1.353 3.208 2.522 5.42 3.505 6.633l8.426 9.872c.574.761 1.076 2.448 1.507 5.06.532 3.208.942 5.224 1.23 6.046a45.444 45.444 0 001.63 4.165l2.06 4.01c.758 1.42 2.029 3.21 3.812 5.369 1.66 1.995 2.655 3.054 2.983 3.178l1.107-.34c.533-.267.953-.349 1.26-.247.575.186.954 1.039 1.139 2.561l2.552 1.697-4.613 6.047-.645 1.604c-2.48-5.615-4.08-8.823-4.797-9.626-2.194-2.529-3.998-4.267-5.412-5.213-.39-.453-1.384-3.826-2.983-10.12l-1.476-5.676-.738-2.437-1.138-3.61c-.45-1.09-.973-1.902-1.568-2.437l-4.735-4.628c-2.296-2.365-3.547-3.825-3.752-4.38l-1.69-4.998c-2.707-8.145-4.183-12.403-4.429-12.773-.533-.884-1.916-1.604-4.151-2.16-2.03-.493-3.66-.647-4.89-.462-.758.123-3.617 2.365-8.578 6.725-4.797 4.196-7.636 6.86-8.518 7.99-2.521 3.21-5.72 10.634-9.594 22.275a317.063 317.063 0 00-5.104 16.69c-.328 1.358-.605 6.736-.83 16.136l-.277 5.46c0 .473-.092.885-.277 1.234-.184.329-.39.494-.615.494-.287 0-.492-.082-.615-.247-.225-.247-.369-.72-.43-1.419l-.4-6.294-.338-6.016c.02-2.18.615-6.077 1.783-11.692 1.025-5.018 2.02-9.132 2.983-12.34 1.435-4.813 3.157-9.965 5.166-15.457 1.68-4.525 2.747-7.198 3.198-8.021.635-1.152 3.249-4.453 7.84-9.903 4.613-5.492 7.483-8.69 8.61-9.595.944-.76 2.81-1.769 5.597-3.023a76.031 76.031 0 013.905-1.666l13.622-11.26c1.128-.947 2.255-1.595 3.383-1.945 1.168-.35 1.937-.267 2.306.247.738 1.07.543 2.222-.584 3.456z" fill="#F29600"/><path d="M45.702 57.346c-.472-.226-1.169-.442-2.091-.648l-2.276-.34c-1.435.988-4.038 3.096-7.81 6.325-3.977 3.394-6.355 5.584-7.134 6.572-2.152 2.735-5.135 9.46-8.948 20.176-2.91 8.104-4.828 13.955-5.75 17.554l-.185 2.592a72.685 72.685 0 00-4.704 4.72c.225-8.309.471-12.968.738-13.975.881-3.6 2.767-9.513 5.658-17.74 3.854-10.921 6.939-17.852 9.255-20.793.984-1.234 3.793-3.805 8.426-7.713 4.489-3.826 7.113-5.903 7.871-6.232 1.025-.144 2.46.02 4.305.494 1.866.493 2.973 1.018 3.321 1.573.226.432 1.527 4.401 3.905 11.908l1.692 5.06c.43 1.131 3.433 4.134 9.01 9.008.717.638 1.64 2.89 2.767 6.757l.738 2.468 1.445 5.584 1.968 8.114c.43 1.666.82 2.612 1.168 2.838 1.374.946 2.932 2.417 4.674 4.412.328.391 1.025 1.892 2.091 4.504l2.89 7.312-1.076 2.437-2.675-2.777c-.902-2.262-1.486-3.589-1.753-3.979-1.599-1.851-2.941-3.127-4.028-3.826-.717-.494-1.27-1.265-1.66-2.314-.287-.74-.749-2.447-1.384-5.121l-1.26-5.214-1.415-5.399-.769-2.591c-.492-1.687-.974-3.754-1.445-6.201l-.554-3.147-8.579-7.404c-1.455-1.337-2.398-2.643-2.829-3.918l-3.597-11.076z" fill="#00666C"/><path d="M218.76 82.737c.697 1.789 1.568 6.118 2.613 12.988 1.005 6.581 1.507 10.931 1.507 13.05v.678l-.092 13.482c-.267 2.53-1.333 3.774-3.198 3.733-.82-.02-1.404-.401-1.753-1.141-.328-.699-.492-1.851-.492-3.455 0-1.008-.102-1.934-.307-2.777a357.792 357.792 0 00-12.977-12.186c-6.149-5.471-10.27-8.66-12.361-9.564-2.521-1.09-5.647-1.563-9.378-1.42-3.055.145-5.228.536-6.519 1.173-.595.288-2.05 1.81-4.367 4.566l-2.675 2.931c-.615.596-1.189.925-1.722.987l-1.168-.154-1.815-.771c-3.115-1.358-5.391-2.232-6.826-2.623-3.341-.884-6.17-.853-8.487.093-3.28 1.337-6.939 3.393-10.977 6.17-3.075 2.119-5.135 3.702-6.181 4.751-.348.391-1.404 2.314-3.167 5.769l-5.289 10.459c-.266.493-.861.761-1.783.802-.656 0-1.169-.278-1.538-.833l-13.929-23.509c-.328-.534-.349-1.079-.062-1.635.308-.576.769-.884 1.384-.925l5.934-.154c.861-2.53 1.599-4.032 2.214-4.505.349-.246 1.015-.452 1.999-.617l2.86.062 4.92-3.27 7.472-5.43c4.079-3.126 7.564-6.51 10.455-10.15.512-1.213 1.342-3.939 2.49-8.175a326.616 326.616 0 003.414-13.883 187.441 187.441 0 002.459-13.297c.595-4.052.861-6.644.8-7.775-.041-.617-.646-1.84-1.814-3.67-1.271-2.017-2.983-4.382-5.135-7.097-.861-1.07-1.425-2.2-1.692-3.393-.328-1.44-.123-2.695.615-3.764.554-.802 1.241-1.275 2.061-1.42.902-.143 1.896.042 2.982.556a9.979 9.979 0 012.552 1.728l5.013 4.843 4.797 4.659c.164.144.881.34 2.152.586l2.521.524c.595.186 2.983 1.358 7.165 3.517l6.826 3.394a33.118 33.118 0 006.15 1.327l2.46.339c.943.165 1.538.37 1.784.617 1.435 1.358 4.305 5.77 8.61 13.235l8.978 15.888c1.845 3.188 4.121 6.49 6.827 9.904l3.69 4.782z" fill="#0D131A"/><path d="M211.502 76.751l2.891 3.918 2.367 3.61c.677 1.707 1.579 5.749 2.706 12.124 1.128 6.315 1.692 10.438 1.692 12.372v6.756l-.093 6.849c-.082.72-.215 1.244-.399 1.573-.246.432-.605.638-1.077.617-.307-.02-.533-.432-.676-1.234a10.183 10.183 0 01-.154-1.851l-.061-2.745-2.091-22.738v-.123c-2.03-7.528-6.263-16.958-12.7-28.29-5.842-10.264-10.506-17.133-13.991-20.609-.963-.987-5.279-2.766-12.945-5.337-7.093-2.407-10.865-3.61-11.316-3.61-1.271-.102-2.563.175-3.875.833-1.312.679-2.316 1.584-3.013 2.715-.697 1.11-2.562 7.445-5.596 19.004-.902 3.517-1.876 8.731-2.922 15.642-.594 3.908-.984 6.047-1.168 6.417-.328.617-2.891 2.653-7.687 6.108l-3.506 2.592c-.697.576-1.435 1.491-2.214 2.746-.41.637-.994 1.676-1.753 3.115l-.676 1.265c-.103.124-.646.299-1.63.525-1.927.473-3.485.915-4.674 1.326-1.558.535-3.597 3.065-6.119 7.59-1.681 3.023-3.444 6.684-5.289 10.983l-8.21-13.821 7.103-.556.708-2.005c.533-1.378.984-2.201 1.353-2.468.512-.35 1.373-.514 2.583-.494l1.629.124 5.812-3.95 7.103-4.874c.84-.637 2.839-2.488 5.996-5.553 3.137-3.064 4.787-4.772 4.951-5.121 1.045-2.263 2.982-9.605 5.811-22.028 2.911-12.834 4.254-20.392 4.029-22.675-.082-.803-1.23-2.756-3.444-5.862l-4.182-5.492a6.314 6.314 0 01-1.23-2.56c-.267-1.029-.226-1.851.123-2.468.348-.597 1.045-.69 2.091-.278.922.35 1.865.967 2.829 1.851l4.981 5.09 4.582 4.66 2.613.431 3.598.771c.841.288 5.207 2.335 13.099 6.14l5.351 1.511c2.726.7 4.202 1.152 4.428 1.358 1.947 1.871 6.129 8.299 12.545 19.282l9.717 16.844z" fill="#F29600"/><path d="M215.562 96.25l1.906 21.286a414.165 414.165 0 00-12.269-11.168c-6.334-5.512-10.639-8.761-12.915-9.749-2.767-1.193-6.109-1.655-10.024-1.388-3.116.206-5.453.7-7.011 1.48-.676.33-2.111 1.708-4.305 4.135-2.029 2.221-3.433 3.404-4.212 3.548-.472.103-1.394-.124-2.768-.679l-4.274-1.728c-4.305-1.522-8.046-1.635-11.224-.339-3.526 1.46-7.369 3.445-11.531 5.954-3.505 2.119-5.698 3.6-6.58 4.443-.533.535-2.204 3.445-5.012 8.731l-4.059 7.774-4.213-6.787c2.993-7.466 4.654-11.569 4.982-12.31 1.968-4.401 3.556-6.807 4.766-7.219.861-.308 2.562-.73 5.104-1.265l1.538-.401.922-.678.8-1.45 1.414-3.27c.677-1.46 1.292-2.428 1.845-2.9l1.568-.988 2.214-1.388 5.504-4.073c1.497-1.172 2.368-2.015 2.614-2.53l.554-2.19.738-4.658 1.045-7.343c.472-3.126.974-5.707 1.507-7.743l3.29-12.588c.984-3.66 1.589-5.676 1.814-6.046.554-.864 1.517-1.553 2.891-2.067 1.25-.494 2.419-.69 3.505-.587 1.025.165 4.756 1.358 11.193 3.58 7.031 2.405 10.936 4 11.715 4.781 3.567 3.6 8.262 10.304 14.084 20.115 6.621 11.147 10.916 20.382 12.884 27.704z" fill="#008086"/><path d="M212.456 112.878l-.83-9.225c-1.927-7.095-6.119-16.073-12.577-26.933-5.658-9.481-10.168-15.94-13.53-19.374-1.004-.7-4.53-2.088-10.577-4.165-5.412-1.85-9.01-3.003-10.793-3.455-.615-.02-1.292.113-2.03.4-.738.268-1.24.556-1.507.865-.307.822-1.578 5.512-3.812 14.068l-.984 3.856c-.656 2.489-1.323 6.222-1.999 11.199l-.492 3.579-.892 5.275c-.205 1.11-.441 1.913-.707 2.407-.369.76-1.189 1.676-2.46 2.745l-6.519 4.937-2.614 1.635-1.014.617c-7.339 6.622-11.46 10.088-12.362 10.396-1.148.947-3.433 5.811-6.857 14.593v.031l-2.829-4.566c2.993-7.466 4.654-11.569 4.982-12.31 1.968-4.401 3.556-6.807 4.766-7.219.861-.308 2.562-.73 5.104-1.265l1.538-.401.922-.678.8-1.45 1.414-3.27c.677-1.46 1.292-2.428 1.845-2.9l1.568-.988 2.214-1.388 5.504-4.073c1.497-1.172 2.368-2.015 2.614-2.53l.554-2.19.738-4.658 1.045-7.343c.472-3.126.974-5.707 1.507-7.743l3.29-12.588c.984-3.66 1.589-5.676 1.814-6.046.554-.864 1.517-1.553 2.891-2.067 1.25-.494 2.419-.69 3.505-.587 1.025.165 4.756 1.358 11.193 3.58 7.031 2.405 10.936 4 11.715 4.781 3.567 3.6 8.262 10.304 14.084 20.115 6.621 11.147 10.916 20.382 12.884 27.704l1.906 21.287-5.012-4.658z" fill="#00666C"/><path d="M25.008 119.202l-.615-.123-1.076-.771c-.718-.823-1.025-1.841-.923-3.055.062-.822.81-2.169 2.245-4.041 1.189-1.563 2.08-2.592 2.675-3.085l.246-.216-1.23-3.363-.184-.37c-.287-.597-.451-1.121-.492-1.573-.041-.576.071-1.224.338-1.944.492-1.214 1.332-2.067 2.521-2.56.82-.33 1.989-.474 3.506-.433l2.367.278c.697.288 1.835 1.553 3.414 3.795l.522.216.677.185 2.275-1.08c1.046-.782 1.815-1.265 2.307-1.45.655-.247 1.393-.257 2.213-.03 1.128.287 2.092 1.367 2.891 3.238.697 1.666.943 2.983.738 3.949-.082.432-.359 1.142-.83 2.129l-1.384 2.715-.338.617.092.71c4.12 3.722 6.806 5.419 8.056 5.09l2.399-.586a32.04 32.04 0 004.612-1.543c2.399-1.008 4.449-2.015 6.15-3.023.492-1.296.902-2.191 1.23-2.684.84-1.193 2.07-2.139 3.69-2.838 1.373-.597 3.608-.926 6.703-.988 1.825-.041 3.444-.01 4.859.093l2.275.216-7.872 16.968-1.168-.216-5.32-1.728-3.505 1.759-4.92 2.375-2.091 1.111-1.783 1.08c-1.948 1.028-3.486 1.594-4.613 1.697-2.583.185-5.71-.823-9.379-3.024-2.275-1.378-4.612-3.106-7.01-5.183-.759.432-1.446.658-2.06.679-.862.041-1.805-.237-2.83-.833-.594-.329-1.25-.967-1.968-1.913l-1.383-2.067-.738 1.512-.523.555-4.766-.247z" fill="#0D131A"/><path d="M25.07 117.598c-.247 0-.483-.093-.708-.278-.471-.37-.676-.987-.615-1.851.041-.617.267-1.254.677-1.913l1.568-2.005 1.968-1.882 1.23-1.11c.225-.35-.246-1.893-1.415-4.628-.533-1.234-.8-2.057-.8-2.468-.02-.967.646-1.728 2-2.283l2.828-.154 2.06.339 1.292 1.481 1.353 1.82c.41.576 1.138.905 2.183.987l2.921-1.419c.697-.535 1.302-.853 1.815-.956l1.722.154c.635.165 1.25.967 1.844 2.406.554 1.358.77 2.335.646 2.931-.082.453-.42 1.275-1.015 2.468l-1.168 2.314c-.287.576-.246 1.337.123 2.283l3.905 3.116c2.89 2.016 5.064 2.828 6.52 2.437l2.859-.987 4.305-1.666 6.334-2.684c.103-.555.38-1.193.83-1.913.923-1.439 2.317-2.56 4.182-3.362 1.25-.535 3.3-.813 6.15-.833l3.874.123-6.395 13.821-4.52-2.375c-4.223 2.2-7.585 3.815-10.086 4.843-.902.391-2.45 1.152-4.643 2.283-1.435.761-2.491 1.162-3.168 1.203-2.337.186-5.278-.802-8.825-2.961-2.173-1.337-4.387-2.982-6.642-4.936-.082-.062.02-.35.308-.864l.461-.771-1.63 1.141c-.287.329-.697.576-1.23.74-1.045.35-2.193.175-3.444-.524-1.066-.617-1.957-1.501-2.675-2.653l-.738-1.543-2.183 2.345-4.059-.216z" fill="#F29600"/><path d="M45.087 107.325l-2.49 1.511c-1.395.679-2.358 1.029-2.891 1.049-.328 0-.605-.092-.83-.277-.39-.412-.441-1.461-.154-3.147.266-1.563.584-2.653.953-3.27a4.284 4.284 0 011.999-1.666l2.367-.093c.718.268 1.24.761 1.569 1.481.287.617.369 1.285.246 2.005l-.062.432c-.123.926-.359 1.584-.707 1.975z" fill="#0D131A"/><path d="M43.95 101.679l-2.183.123a3.994 3.994 0 00-1.845 1.543c-.349.555-.656 1.594-.923 3.116-.266 1.625-.236 2.602.093 2.931.143.144.338.216.584.216.492-.021 1.424-.36 2.798-1.018 1.332-.659 2.132-1.142 2.398-1.45.328-.371.544-.977.646-1.821l.062-.431c.102-.679.03-1.307-.216-1.882a2.433 2.433 0 00-1.414-1.327zm-4.52 1.357a4.41 4.41 0 012.152-1.758l2.552-.123c.677.267 1.2.709 1.569 1.326a3.57 3.57 0 01.492 1.851l-.123 1.08c-.123.967-.38 1.666-.77 2.098-.307.37-1.168.895-2.582 1.573-1.456.7-2.46 1.059-3.014 1.08-.41.021-.748-.103-1.014-.37-.472-.473-.554-1.604-.246-3.394.266-1.583.594-2.704.984-3.363z" fill="#0D131A"/><path d="M43.519 105.72c-.37.453-1.743 1.543-4.12 3.271-.185-.186-.195-.977-.031-2.376.184-1.419.43-2.417.738-2.992a3.377 3.377 0 011.476-1.358c.656-.329 1.26-.391 1.814-.185.594.206 1.004.617 1.23 1.234-.062.576-.195 1.059-.4 1.45l-.707.956z" fill="white"/><path d="M44.257 106.615c-.226.288-1.035.792-2.43 1.512-1.455.74-2.265 1.028-2.429.864 2.378-1.728 3.752-2.818 4.12-3.271l.708-.956c.205-.391.338-.874.4-1.45.143.391.195.812.154 1.265l-.154 1.172-.37.864z" fill="#DBDCDC"/><path d="M24.608 115.13c.41-.35.994-.597 1.753-.74.8-.144 1.496.02 2.09.493.41.329.698.741.862 1.234l1.599 2.53c.225.247.635.473 1.23.679l.953.277-.43.895c-.452.926-1.764 1.327-3.936 1.203l-2.491-.339a3.772 3.772 0 01-2.06-1.543 3.955 3.955 0 01-.646-1.758c-.082-.638-.01-1.193.215-1.666l.092-.154c.205-.473.462-.844.77-1.111z" fill="#0D131A"/><path d="M24.7 115.253c-.267.226-.513.566-.738 1.018l-.093.185c-.205.453-.276.988-.215 1.605a3.92 3.92 0 00.615 1.696c.513.72 1.179 1.204 1.999 1.45l2.46.34c2.132.123 3.392-.247 3.782-1.111l.4-.74-.8-.247c-.656-.226-1.096-.463-1.322-.71-.287-.329-.81-1.151-1.568-2.468l-.03-.031-.093-.154a2.513 2.513 0 00-.83-1.172c-.533-.411-1.169-.545-1.907-.401-.717.144-1.27.391-1.66.74zm-.646 4.659a4.005 4.005 0 01-.707-2.283c0-.494.092-.926.276-1.296l.093-.154c.246-.514.512-.895.8-1.142.43-.391 1.034-.658 1.813-.802.78-.144 1.456 0 2.03.432.43.309.758.73.984 1.265l1.66 2.622c.205.247.605.453 1.2.617l.922.309.092.062.031.061-.461.957c-.472.966-1.825 1.388-4.06 1.264l-2.52-.339a4.064 4.064 0 01-2.153-1.573z" fill="#0D131A"/><path d="M24.546 116.765l.492-.771c.307-.288.769-.483 1.384-.586.635-.124 1.137.041 1.506.493.205.206.339.432.4.679l.677 1.142 1.045 1.542c.328.37.861.669 1.599.895-3.69.535-6.058-.597-7.103-3.394z" fill="white"/><path d="M24.823 119.387a2.966 2.966 0 01-.492-1.326c-.04-.453.01-.833.154-1.142l.061-.154c1.046 2.797 3.413 3.928 7.103 3.394-.061.144-.246.277-.553.401l-2.49.277-2.153-.246a2.983 2.983 0 01-1.63-1.204z" fill="#DBDCDC"/><path d="M31.68 101.37c.636.72.902 1.553.8 2.499-.062.844-.318 1.44-.769 1.79l-1.322 1.234-1.322 1.481c-.247.39-.39 1.038-.431 1.943l-.215.802-.892-.031c-.533-.164-1.045-.483-1.537-.956-.984-.967-1.476-2.273-1.476-3.918 0-1.563.666-3.25 1.998-5.06.164-.226.503-.442 1.015-.647a4.72 4.72 0 011.322-.278c1.148-.062 2.091.319 2.83 1.141z" fill="#0D131A"/><path d="M26.268 101c.205-.288.594-.534 1.168-.74l1.384-.309c1.27-.061 2.296.35 3.075 1.234.656.761.953 1.666.892 2.715-.103.905-.4 1.574-.892 2.006l-1.292 1.172c-.697.699-1.127 1.183-1.291 1.45-.226.329-.359.946-.4 1.851l-.215.802-.092.154-1.076.031h-.062c-.512-.103-1.066-.452-1.66-1.049-1.046-1.008-1.569-2.375-1.569-4.103 0-1.584.677-3.322 2.03-5.214zm3.936 5.708l1.322-1.265c.39-.288.615-.823.676-1.604l.031-.247c0-.741-.256-1.419-.769-2.036-.635-.72-1.506-1.07-2.613-1.049l-1.2.277-.922.556c-1.291 1.768-1.937 3.393-1.937 4.874 0 1.522.44 2.736 1.322 3.641.471.493.963.812 1.476.956l.615.031.154-.556c0-.884.153-1.573.46-2.067.185-.288.647-.791 1.385-1.511z" fill="#0D131A"/><path d="M30.45 104.579l-1.875 1.697c-.82 1.049-1.015 2.293-.585 3.733v.154c-.39-.123-.789-.381-1.199-.771-.8-.802-1.2-1.903-1.2-3.301 0-.823.216-1.728.646-2.715a9.363 9.363 0 011.108-1.913c.266-.329.84-.494 1.722-.494.983.021 1.711.309 2.183.864l.307.401c-.205 1.029-.574 1.81-1.107 2.345z" fill="white"/><path d="M31.403 104.887c-1.476 1.111-2.43 1.985-2.86 2.623-.287.473-.471 1.306-.553 2.499-.43-1.44-.236-2.684.584-3.733l1.876-1.697c.533-.535.902-1.316 1.107-2.345.287.514.38 1.07.277 1.666-.082.494-.226.823-.43.987z" fill="#DBDCDC"/><path d="M31.311 111.922c0-1.399.523-2.664 1.569-3.795 1.066-1.131 2.275-1.717 3.628-1.759-1.537 2.016-2.152 3.713-1.845 5.091.205.925 1.035 1.707 2.49 2.345 1.21.534 2.4.822 3.568.863l-1.353 1.543a2.81 2.81 0 01-1.876.679c-1.496 0-2.88-.473-4.151-1.42-1.353-1.028-2.03-2.211-2.03-3.547z" fill="#D18200"/><path d="M35.832 107.325c.984-1.564 1.558-2.263 1.722-2.098l-1.261 2.19c-.84 1.625-1.158 2.921-.953 3.887.184.741.922 1.43 2.214 2.067 1.21.597 2.326.895 3.351.895.718 0 1.487-.175 2.306-.524l1.015-.463c-.922.925-2.05 1.388-3.382 1.388-1.148 0-2.358-.277-3.629-.833-1.496-.637-2.347-1.429-2.552-2.375-.246-1.09.144-2.468 1.169-4.134zM70.086 139.718l1.692-.802 19.925 45.721-2.49.309c-1.497.185-2.778.442-3.844.771-.472.165-1.353.73-2.645 1.697l-1.998 1.327c.615.863 1.096 2.077 1.445 3.64.328 1.46.41 2.458.246 2.992a4.16 4.16 0 01-1.138 1.882c-.512.494-1.076.833-1.691 1.018-2.317.494-4.161 1.029-5.535 1.605-.882.349-2.204 1.11-3.967 2.283l-2.552 1.82-1.015.987c-.512.35-1.137.586-1.875.71-.615.103-1.64-.072-3.075-.525l-2.276.525-2.429.617c-1.086.37-2.03.74-2.829 1.11l-1.2.587c-.614.287-1.065.401-1.352.339-.43-.103-.595-.545-.492-1.327.102-.74.38-1.614.83-2.622l.646-1.296-5.596.278c-.698.123-1.364.308-2 .555l-1.352.586-1.138.093c-.205-.123-.277-.339-.215-.648.082-.658.287-1.368.615-2.129.635-1.542 1.64-2.951 3.013-4.226l-2.398-.062c-1.148.021-2.07.185-2.768.494-1.045.493-1.353.041-.922-1.358.348-1.131 1.404-2.386 3.167-3.764.984-.74 2.05-1.388 3.198-1.943.964-.473 1.773-.782 2.43-.926l.307-.061.707-.062 3.813-2.407a20.532 20.532 0 003.106-2.684l1.414-1.727.308-1.419-1.815-1.358c-.963-.761-1.722-1.512-2.275-2.252-2.132-2.879-3.362-5.409-3.69-7.589-.594-4.093.79-9.019 4.151-14.778 2.255-3.887 5.812-7.877 10.67-11.97 3.895-2.962 5.525-4.299 4.89-4.011z" fill="#0D131A"/><path d="M65.843 144.747a28.41 28.41 0 013.567-2.561l1.415-.771 18.142 41.68c-1.579.185-2.962.463-4.151.833-.636.205-1.446.73-2.43 1.573-1.107.946-1.957 1.563-2.552 1.851-.348.185-.892.525-1.63 1.018l-.983.679.86.123c.595.083.995.185 1.2.309.246.164.502.699.768 1.604l.554 2.561c-.41.658-1.332 1.285-2.767 1.882-1.025.411-2.112.75-3.26 1.018a26.045 26.045 0 00-3.444 1.08c-1.455.534-2.573 1.069-3.352 1.604l-2.306 1.45c-.738.411-1.394.648-1.968.709l-1.537 2.314c-1.804-.596-3.864-1.491-6.18-2.684-2.481-1.296-4.378-2.499-5.69-3.609-1.496-1.255-2.357-2.438-2.582-3.548l.123-1.296 6.949-4.35a18.814 18.814 0 003.32-2.962c.78-.884 1.272-1.573 1.477-2.067l.123-.864 1.2.371 3.258.246-1.69-.37-1.323-.493c-.328-.103-.748-.309-1.26-.617l-.708-.463c-.697-.453-1.701-1.563-3.013-3.332a15 15 0 01-2.983-7.25c-.595-4.257.461-8.865 3.167-13.821 2.604-4.751 5.832-8.7 9.686-11.847z" fill="#F29600"/><path d="M77.835 195.528c1.435-.597 2.358-1.224 2.768-1.882.102.864.123 1.388.061 1.573-.246.638-.717 1.152-1.414 1.543l-1.722.648-3.69 1.141c-.43.082-1.507.648-3.229 1.697l-3.167 1.974-1.26 1.08a3.862 3.862 0 01-1.907.864c-.41.062-1.179-.092-2.306-.463l1.537-2.314c.574-.061 1.23-.298 1.968-.709l2.306-1.45c.78-.535 1.897-1.07 3.352-1.604a26.039 26.039 0 013.444-1.08 22.467 22.467 0 003.26-1.018z" fill="#D18200"/><path d="M61.26 183.897c-.41-.268-.584-.442-.522-.525l.615.185 1.291.432 1.691.155.954.123-.923.247-1.691-.062a4.043 4.043 0 01-1.415-.555z" fill="#0D131A"/><path d="M70.731 180.102c-2.357-3.476-3.536-7.353-3.536-11.631 0-3.352.749-6.499 2.245-9.44 1.456-2.838 3.444-5.183 5.965-7.034l13.56 31.098c-1.578.185-2.961.463-4.15.833-.636.205-1.445.73-2.43 1.573-1.107.946-1.957 1.563-2.552 1.851l-.03.031c-3.731-1.44-6.755-3.867-9.072-7.281z" fill="#D18200"/><path d="M49.393 191.178c.287-.083.533.041.738.37.225.35.379.874.461 1.573.102 1.008 0 2.201-.307 3.579h-6.612c-.697.041-1.527.226-2.49.555l-1.23.494c-.082-.247-.01-.607.215-1.08.43-.925 1.373-1.933 2.829-3.023.984-.741 2.275-1.347 3.874-1.82l2.522-.648z" fill="white"/><path d="M46.44 195.404c2.276-.164 3.506-.483 3.69-.956h.031l-.215 1.82-6.303.031c-.656.021-1.394.165-2.214.432 1.291-.72 2.962-1.162 5.012-1.327z" fill="#DBDCDC"/><path d="M48.9 190.869l.368-.092.83.123c.492.329.8 1.059.923 2.19v1.389l-.861-.031v-1.265c-.082-.823-.256-1.347-.523-1.573-.369-.247-1.28-.093-2.736.462-1.435.535-2.655 1.173-3.66 1.913-1.537 1.152-2.47 2.18-2.798 3.085l.984-.339.615.709-1.937.71h-.338c-.144-.062-.226-.154-.246-.278-.062-.411.02-.853.246-1.326.45-1.008 1.445-2.088 2.982-3.24 1.353-1.007 3.403-1.82 6.15-2.437z" fill="#0D131A"/><path d="M43.673 197.132l-1.63.309-.614-.71c.82-.267 1.558-.411 2.214-.432l6.303-.031.215-1.82.861.031-.307 2.314c-.062.226-.205.339-.43.339h-6.612z" fill="#0D131A"/><path d="M49.054 200.772c-2.296.617-4.11 1.481-5.443 2.592l.523.185-1.414.617c-.041-.411.061-.936.307-1.573.451-1.296 1.343-2.54 2.675-3.733.923-.802 2.225-1.728 3.906-2.777l2.644-1.542c.307-.186.83.072 1.568.771.82.74 1.364 1.573 1.63 2.499l.154.586-1.261 1.018c-.554.329-1.056.535-1.507.617l-3.782.74z" fill="white"/><path d="M47.178 202.531c-.594.103-1.609.442-3.044 1.018l-.523-.185c1.333-1.111 3.147-1.975 5.443-2.592l3.782-.74c.451-.082.953-.288 1.507-.617l1.26-1.018c.267 1.213.318 2.365.154 3.455l-8.579.679z" fill="#DBDCDC"/><path d="M43.273 203.333l.339-.031c1.68-.699 2.85-1.1 3.505-1.203l8.241-.648c.123-1.275.02-2.447-.307-3.517-.226-.781-.677-1.512-1.354-2.19-.574-.556-.994-.833-1.26-.833l-.154.092c-2.952 1.666-5.053 3.055-6.304 4.165-1.373 1.214-2.255 2.489-2.644 3.826l-.062.339zm1.323.494c-1.066.432-1.63.678-1.691.74l-.4-.031-.216-.339c-.02-.473.093-1.059.339-1.759.471-1.357 1.404-2.653 2.798-3.887 1.312-1.193 3.454-2.622 6.426-4.288l.185-.093c.205-.123.502-.123.892 0 .492.206 1.035.648 1.63 1.327.676.74 1.158 1.522 1.445 2.345.39 1.11.543 2.108.46 2.992l-.276 1.08c-.04.206-.174.329-.4.37l-8.517.648c-.574.082-1.466.38-2.675.895z" fill="#0D131A"/><path d="M58.248 198.613c.246-.206.913-.041 1.999.493 1.148.556 1.947 1.162 2.398 1.821l.123.216-.522-.278c0 .74-.37 1.285-1.107 1.635l-3.66 1.543c-2.234 1.007-3.74 1.892-4.52 2.653l.277.247-1.107.493c-.164-.267-.215-.648-.154-1.141.082-.988.636-2.006 1.66-3.055 2.4-2.529 3.937-4.072 4.613-4.627z" fill="white"/><path d="M63.383 203.456l-6.027 1.944c-1.004.329-2.378.843-4.12 1.543l-.277-.247c.779-.761 2.286-1.646 4.52-2.653l3.66-1.543c.737-.35 1.106-.895 1.106-1.635l.523.278c.533.884.738 1.655.615 2.313z" fill="#DBDCDC"/><path d="M62.276 201.173c-.37-.555-1.046-1.09-2.03-1.604-.86-.452-1.455-.658-1.783-.617l-4.55 4.597c-.944.967-1.456 1.892-1.538 2.777-.041.349.133.452.522.308l4.305-1.635 3.506-1.08 2.121-.802c.205-.494.02-1.141-.553-1.944zm-4.305-2.9c.164-.123.43-.174.8-.154.614.082 1.352.37 2.213.864.923.535 1.59 1.1 2 1.697.553.822.86 1.583.922 2.283.061.473 0 .822-.185 1.049-.061.103-.287.185-.676.247l-2.091.493-3.475 1.049a57.826 57.826 0 00-3.628 1.357l-1.538.648c-.225.103-.41.052-.553-.154-.185-.35-.257-.802-.216-1.357.062-1.09.656-2.211 1.784-3.363 2.583-2.674 4.13-4.227 4.643-4.659zM104.987 56.544c.431.103.779.329 1.046.679.266.35.389.75.369 1.203l-.369 9.965c-.185 7.013-.164 11.6.061 13.76.287 2.59 1.107 6.005 2.46 10.242 1.456 4.525 3.024 8.309 4.705 11.353.861 1.542 2.716 4.525 5.566 8.947l7.349 11.723c2.706 4.545 4.592 8.165 5.658 10.86 2.562 6.52 4.376 11.888 5.442 16.104 1.948 7.61 2.532 14.325 1.753 20.146-.861 6.334-3.485 11.291-7.872 14.87-4.305 3.537-10.014 5.471-17.127 5.8-8.528.391-16.277-.895-23.247-3.857-9.163-3.866-16.44-10.427-21.832-19.683-4.96-8.535-6.303-18.119-4.028-28.753 1.66-7.754 5.31-16.166 10.947-25.236 5.002-8.083 8.035-19.21 9.102-33.38.328-4.649-.195-10.644-1.569-17.987l-2.183-9.749c-.04-.267.123-.545.492-.833l.953-.678c.492-.473 1.077-.628 1.753-.463l20.571 4.967z" fill="#0D131A"/><path d="M72.64 171.032c7.216 6.047 14.872 9.841 22.97 11.384 8.117 1.543 15.159.504 21.124-3.116 1.189 3.414 2.665 5.862 4.428 7.343.82.719 1.886 1.378 3.198 1.974-3.013 1.255-6.457 1.975-10.332 2.16-7.564.329-14.462-.679-20.694-3.024-8.487-3.208-15.385-8.782-20.694-16.721z" fill="#DDD583"/><path d="M67.75 136.201c1.844-5.265 4.191-9.471 7.04-12.618 3.957-4.36 8.61-6.345 13.961-5.954 6.416.494 12.115 5.45 17.097 14.87 4.448 8.412 6.959 17.287 7.533 26.625.533 8.638 1.651 15.363 3.352 20.176-5.965 3.62-13.007 4.659-21.125 3.116-8.097-1.543-15.754-5.337-22.97-11.384l-1.722-2.746c-5.432-9.317-6.488-20.012-3.167-32.085z" fill="#FFF697"/><path d="M114.796 119.974c0-2.407.748-4.608 2.245-6.603 5.453 8.474 9.163 14.634 11.131 18.48h-.123c-3.67 0-6.796-1.162-9.379-3.486-2.583-2.303-3.874-5.101-3.874-8.391z" fill="#D18200"/><path d="M104.526 58.395l-.031 1.45-.123 11.908c0 4.093.072 7.21.216 9.348l.092 1.05c.307 2.96 1.097 6.591 2.368 10.89 1.394 4.73 2.921 8.597 4.581 11.6l9.225 14.715c4.756 7.528 7.831 13.061 9.225 16.598 2.583 6.582 4.418 12.022 5.504 16.321 1.804 7.178 2.337 13.512 1.599 19.004-.533 3.969-1.804 7.383-3.813 10.242-1.906 2.736-4.438 4.885-7.595 6.448-1.619-.617-2.921-1.347-3.905-2.19-1.968-1.687-3.485-4.597-4.551-8.731-.984-3.928-1.702-9.554-2.153-16.876-.266-4.483-1.025-9.234-2.275-14.253-1.332-5.347-2.983-9.944-4.951-13.79-2.152-4.217-4.653-7.734-7.502-10.551-3.65-3.6-7.442-5.543-11.378-5.831-6.867-.514-12.832 3.147-17.896 10.983 1.62-3.641 3.567-7.302 5.843-10.983 5.206-8.35 8.333-19.55 9.378-33.597.184-2.756 0-6.489-.553-11.199-.595-4.956-1.384-9.029-2.368-12.217l.523-5.183v-.123l20.54 4.967z" fill="#F29600"/><path d="M104.525 58.395l-.031 1.45-.123 11.908c0 4.093.072 7.21.216 9.348l.092 1.05.615 3.948c-3.731 1.008-7.37.267-10.916-2.221-2.952-2.078-5.689-5.265-8.21-9.564-.513-6.19-1.415-11.384-2.706-15.58l.523-5.183v-.123l20.54 4.967z" fill="#D18200"/><path d="M138.596 145.025c3.177 3.64 5.812 7.568 7.903 11.785 2.788 5.573 4.182 11.486 4.182 17.739 0 3.229-.749 6.715-2.245 10.458-.738 1.893-1.486 3.487-2.245 4.782a18.24 18.24 0 00-.246 2.993c2.727 2.098 4.52 3.702 5.381 4.813l1.415 1.727 1.045 1.234c.943.556 1.558 1.152 1.845 1.79.267.637.379 1.398.338 2.283l1.938 3.548c.717 1.604 1.004 3.136.861 4.596-.082.782-.267 1.419-.554 1.913-.369.823-.758 1.255-1.168 1.296l-.677-.494-.4-.524c-1.025-1.07-1.742-1.707-2.152-1.913l-1.968-.74-2.368-.833-2.275.123v1.419c-.041 1.111-.195 2.036-.461 2.777-.308.884-.697 1.645-1.169 2.283-.471.658-.851.946-1.138.864-.143-.021-.461-.422-.953-1.204a8.502 8.502 0 00-1.291-1.604l-2.522-1.666-2.49-1.388-1.323-.463-1.906.031c-.328 1.316-.994 2.838-1.999 4.566-.533 1.028-.922 1.532-1.168 1.512-.144-.021-.4-.278-.769-.772l-.492-.709c-.677-1.111-1.22-1.882-1.63-2.314l-1.845-1.635-2.152-1.882-1.415-.494-.984-.74a2.536 2.536 0 01-.738-1.111c-.102-.308-.174-.74-.215-1.296-.164-3.496 1.046-7.363 3.629-11.599l-.185-2.407c-2.87-1.419-5.596-3.723-8.179-6.911-2.173-2.673-3.547-6.108-4.121-10.304l-.246-5.522c.123-3.353 1.333-6.684 3.629-9.996 1.353-1.974 2.87-3.671 4.551-5.09l13.007-16.135-.492-3.055 1.476 2.993 4.981 5.276zM142.439 91.344l.123-.679c.143-1.357.676-2.437 1.599-3.24l.184-.153c.574-.576 1.312-1.008 2.214-1.296 1.251-.412 2.358-.33 3.321.246 1.21.7 2.163 1.882 2.86 3.548.758 1.83.758 3.322 0 4.474l-.861 1.635c-.349.72-.543 1.203-.584 1.45.061.247.328.668.799 1.265l1.107 1.296 2.798-.525c1.148-.082 1.978.267 2.491 1.049.266.411.492 1.717.676 3.918.185 2.221.154 3.579-.092 4.072-.164.329-.441.638-.83.926l-1.445.956-1.261.494c-.553.185-.881.35-.984.494-.676.74-1.671 2.211-2.983 4.411-.328.556-.902.987-1.722 1.296l-1.906.432c-1.558 6.293-2.952 10.777-4.182 13.451-.963 2.118-2.091 3.599-3.382 4.442-1.148.741-2.563 1.132-4.244 1.173-1.496.041-2.675-.175-3.536-.648-.267-.144-1.507-1.388-3.721-3.733l-3.905-4.042-2.122-1.542-2.214-1.45c-.84-.576-1.845-1.131-3.013-1.666l-1.507-.617-1.168-.093-1.322.247-.708.216 1.353-.956c-1.23-.165-1.855-.35-1.875-.556-.021-.123.133-.205.461-.246h.523l-9.164-14.192c-.697.329-1.096.329-1.199 0-.061-.205-.051-.38.031-.524l.4-.432c.225-.185 1.137-.72 2.736-1.604 1.456-.782 3.126-1.368 5.012-1.759 2.05-.411 3.619-.422 4.705-.031 1.968.72 3.352 1.738 4.151 3.054.759 1.296 1.148 3.23 1.169 5.8l1.568.864c.676.391 1.199.782 1.568 1.173l.523.586 2.675 3.023c1.271 1.419 2.224 2.355 2.86 2.808.861.617 1.886.946 3.075.987l2.398-.185.523-3.486c.184-1.913.205-3.199.061-3.857l-1.783-1.511c-.923-.33-1.538-.628-1.845-.895-.615-.617-.892-1.615-.83-2.993l.03-1.481-.522-.462c-1.435-1.193-2.399-2.16-2.891-2.9-.758-1.111-.973-2.396-.645-3.857.307-1.337.84-2.17 1.599-2.499.594-.246.881-.35.861-.308l3.013-1.512a1.695 1.695 0 011.476.124l.953.863c.574.576.912.874 1.015.895l2.122.278 1.937-3.147c.861-1.501 1.353-2.458 1.476-2.87z" fill="#0D131A"/><path d="M144.13 91.683l.246-1.727c.123-.7.318-1.162.585-1.389l1.599-1.203c.963-.37 2.101-.195 3.413.525l1.107 2.067c.635 1.522.717 2.642.246 3.362-.308.453-.636 1.204-.984 2.252-.369 1.07-.523 1.77-.461 2.098.123.761.666 1.584 1.629 2.468l1.415 1.08 1.691-.493c1.209-.206 2.029.01 2.46.648.451.658.697 1.82.738 3.486.041 1.46-.041 2.385-.246 2.776l-1.753 1.265c-1.168.699-1.917 1.224-2.245 1.574l-1.968 2.344c-.861 1.07-1.363 1.748-1.506 2.036-.328.556-1.025.977-2.091 1.265l-1.507.247-.461 2.9a41.886 41.886 0 01-1.999 6.972c-1.004 2.592-1.804 4.34-2.398 5.245-.513.761-1.271 1.471-2.276 2.129-.881.576-1.988.915-3.321 1.018-1.23.103-2.132-.01-2.706-.339-.328-.165-1.055-.936-2.183-2.314-1.189-1.461-2.101-2.427-2.737-2.9l-3.136-2.561c-1.496-1.255-2.716-2.201-3.659-2.838-1.251-.864-3.588-1.574-7.011-2.129l-1.445-.185h-.554l-8.702-13.976 4.274-1.912c3.116-1.173 5.32-1.533 6.611-1.08 1.517.555 2.624 1.162 3.321 1.82.636.576 1.107 1.368 1.415 2.376.369 1.254.492 2.612.369 4.072l1.291.74c.964.597 1.702 1.173 2.214 1.728l2.706 2.931c1.353 1.378 2.44 2.365 3.26 2.962 1.783 1.275 3.802 1.82 6.057 1.635-.164.576-.604 1.09-1.322 1.542l-1.537 1.08-1.261.74c-.328.268-.502.648-.523 1.142-.02.555.205 1.409.677 2.561.471 1.131.789 1.666.953 1.604l-.338-1.08a6.748 6.748 0 01-.462-2.9c0-.206.134-.411.4-.617a63.1 63.1 0 011.199-.71l1.353-.771c.759-.493 1.446-1.234 2.061-2.221l.246-.555.43-1.605.769-3.548c.184-1.11.215-2.18.092-3.208l-.277-1.203c-1.332-1.296-2.214-2.036-2.644-2.221l-1.015-.525c-.348-.37-.523-1.018-.523-1.944l.031-1.604-.123-.679-1.722-1.295c-1.168-.802-1.937-1.461-2.306-1.975-.902-1.254-1.097-2.386-.584-3.393l1.014-1.142 3.998-1.326.861.77c.574.618 1.066.998 1.476 1.142l2.06.34 1.537-.155c.267-.144 1.005-1.254 2.214-3.332 1.23-2.077 1.886-3.372 1.968-3.887z" fill="#F29600"/><path d="M137.859 102.389c-.082.822-.523 1.357-1.322 1.604-.738.226-1.333.144-1.784-.247-.861-.74-1.609-1.244-2.245-1.512l-.984-.154-.738-.093c-.717-.123-1.219-.709-1.506-1.758a4.807 4.807 0 01-.062-2.16 4.21 4.21 0 011.292-2.19c.779-.7 1.722-.998 2.829-.895 1.004.103 1.681.401 2.029.895l.185.185c1.291 1.296 2.019 2.448 2.183 3.455.184 1.152.225 2.109.123 2.87z" fill="#0D131A"/><path d="M137.612 101.494l-.154-1.913c-.164-.905-.861-2.005-2.091-3.301l-.215-.216c-.328-.411-.943-.668-1.845-.771-.984-.124-1.855.144-2.614.802-.861.781-1.291 1.758-1.291 2.93l.153 1.111c.267.946.687 1.471 1.261 1.574l.738.092 1.076.155c.636.288 1.312.74 2.03 1.357.43.329.984.442 1.66.339.738-.123 1.148-.503 1.23-1.141l.062-1.018zm.399-2.005c.205 1.234.134 2.354-.215 3.362-.389 1.029-.758 1.635-1.107 1.82-.348.186-.82.011-1.414-.524-.595-.535-1.558-1.09-2.891-1.666l-1.66-.216c-.82-.123-1.394-.781-1.722-1.974a4.784 4.784 0 01-.062-2.283c.205-.905.667-1.677 1.384-2.314.82-.761 1.835-1.09 3.044-.987l1.353.37.861.617.185.185c1.312 1.316 2.06 2.52 2.244 3.61z" fill="#0D131A"/><path d="M133.369 95.786c.656.103 1.087.278 1.292.525l1.045 1.172c.615.761.974 1.43 1.076 2.006.226 1.398.216 2.529-.03 3.393l-.462.895-.215-.216c-.328-.926-1.168-1.882-2.521-2.869l-.861-.216c-.513-.082-.943-.237-1.292-.463l-1.322-1.388c.082-.905.441-1.625 1.076-2.16.615-.555 1.353-.781 2.214-.679z" fill="white"/><path d="M131 100.939c-.246-.042-.471-.288-.676-.741a3.393 3.393 0 01-.246-1.573l1.322 1.388c.348.226.779.381 1.291.463l.861.216c1.353.987 2.194 1.943 2.522 2.869-1.21-1.152-2.286-1.933-3.229-2.345l-.892-.185-.953-.092z" fill="#DBDCDC"/><path d="M149.02 86.254c1.045.473 1.722 1.275 2.029 2.406.205.72.236 1.501.092 2.345-.102.74-.276 1.264-.522 1.573-2.809 2.715-4.654 4.175-5.535 4.38-.41.063-.707-.02-.892-.246-.451-.555-.769-1.728-.953-3.517-.205-1.892-.092-3.28.338-4.165 1.251-2.9 3.065-3.825 5.443-2.776z" fill="#0D131A"/><path d="M148.805 86.716c-1.209-.534-2.234-.483-3.075.155-.615.452-1.179 1.244-1.691 2.375-.39.843-.523 2.19-.4 4.041.103 1.77.328 2.87.677 3.301l.461.062c.471-.103 1.466-.802 2.983-2.098l2.46-2.283.338-.863.154-1.42-.154-1.203c-.246-.966-.83-1.655-1.753-2.067zm-5.504 2.098c.512-1.522 1.302-2.55 2.368-3.085 1.045-.535 2.224-.514 3.536.062 1.271.555 2.06 1.614 2.368 3.177.287 1.481.03 2.725-.769 3.733-.779 1.111-1.896 2.222-3.352 3.332-1.537 1.193-2.593 1.677-3.167 1.45-.636-.247-1.087-1.337-1.353-3.27-.287-2.036-.164-3.836.369-5.399z" fill="#0D131A"/><path d="M144.346 89.092c.492-1.09 1.035-1.841 1.63-2.252l2.675-.093c.574.226 1.025.638 1.353 1.234-.082 1.172-.389 2.18-.922 3.023a34.838 34.838 0 01-4.49 5.492c-.328.041-.553-.956-.676-2.993-.123-2.077.02-3.547.43-4.411z" fill="white"/><path d="M147.482 94.244c-1.496 1.398-2.449 2.15-2.859 2.252h-.031a34.832 34.832 0 004.489-5.491c.533-.844.841-1.852.923-3.024.328.638.44 1.42.338 2.345-.082.7-.215 1.193-.4 1.48l-2.46 2.438z" fill="#DBDCDC"/><path d="M149.728 104.61l1.476-2.808a2.748 2.748 0 012.091-.987c.84 0 1.599.35 2.275 1.049.738.74 1.015 1.697.83 2.869-.184.926-.82 1.656-1.906 2.191l-2.368.833c-1.414.431-2.378.617-2.89.555l-.646-.062c-.164-.473.215-1.686 1.138-3.64z" fill="#0D131A"/><path d="M149.789 105.196c-.8 1.769-1.169 2.735-1.107 2.9l.953-.062 2.152-.37c.718-.185 1.589-.535 2.614-1.049 1.005-.514 1.579-1.162 1.722-1.943l.031-.618c0-.802-.256-1.46-.769-1.974-.656-.679-1.343-.997-2.06-.956-.779 0-1.404.277-1.876.833l-1.66 3.239zm-1.692 3.455c-.225-.205.021-1.223.738-3.054.738-1.892 1.456-3.229 2.153-4.011.635-.678 1.404-1.028 2.306-1.049.923 0 1.753.381 2.491 1.142.82.823 1.117 1.851.892 3.085a3.805 3.805 0 01-.738 1.666l-1.2 1.018c-.533.288-1.701.607-3.505.956l-3.137.247z" fill="#0D131A"/><path d="M155.724 103.252c-.554.844-1.343 1.656-2.368 2.438-1.271.925-2.737 1.666-4.397 2.221-.185-.021.215-.967 1.199-2.838.943-1.79 1.548-2.839 1.814-3.147.349-.37.759-.586 1.23-.648.677-.103 1.312.154 1.907.771.348.35.553.751.615 1.203z" fill="white"/><path d="M154.525 106.276l-2.706.956c-1.538.494-2.491.72-2.86.679 1.66-.555 3.126-1.296 4.397-2.221 1.025-.782 1.814-1.594 2.368-2.438.082.617-.041 1.265-.369 1.944-.267.555-.543.915-.83 1.08z" fill="#DBDCDC"/><path d="M144.223 105.288a11.913 11.913 0 00-1.661 1.697c-1.086 1.337-1.558 2.489-1.414 3.456.082.658.307 1.306.676 1.943-1.086-.267-1.988-.894-2.706-1.882-.717-1.008-1.076-2.149-1.076-3.424 0-1.502.471-2.787 1.414-3.857.923-1.069 2.05-1.604 3.383-1.604.82 0 1.589.226 2.306.679a5.232 5.232 0 011.722 1.758c-1.25.412-2.132.823-2.644 1.234z" fill="#D18200"/><path d="M144.223 105.288c.349-.267.953-.575 1.814-.925.841-.35 1.282-.483 1.323-.401l-1.077.617-1.629.925c-.554.432-1.159 1.162-1.815 2.191-.758 1.234-1.086 2.231-.984 2.992.185 1.337.954 2.602 2.307 3.795l1.906 1.45c-.102.267-.861-.175-2.275-1.327-1.538-1.254-2.419-2.642-2.645-4.164-.143-.967.328-2.119 1.415-3.456a11.908 11.908 0 011.66-1.697z" fill="#0D131A"/><path d="M130.571 137.188l.522 1.265c.431.967.872 1.748 1.323 2.345l3.966 4.011c2.563 2.9 4.951 6.581 7.165 11.044 2.46 4.936 3.997 9.492 4.612 13.667.451 3.188.38 6.428-.215 9.718a41.103 41.103 0 01-1.845 6.911l-1.23 3.394a13.945 13.945 0 00-.246 2.375c-.041.884.01 1.388.154 1.512l2.029 1.635c1.456 1.234 2.45 2.211 2.983 2.931l2.952 3.733.707.37c.513.288.81.545.892.771.287.699.246 1.604-.123 2.715-.451 1.296-1.23 2.242-2.337 2.838l-2.552 1.358c-.123-1.234-.349-1.759-.677-1.574-1.086.659-2.132.803-3.136.432v2.283l-4.336.432-2.183.093c-.861-1.975-1.568-2.725-2.122-2.252-.533.473-1.23.617-2.091.432-.758-.165-1.342-.494-1.752-.988l-.093 2.777c-2.931-.103-5.309-.411-7.133-.926l-.861-2.437c-.615-.329-1.148-.853-1.599-1.573a6.697 6.697 0 01-.892-2.437c.43-2.386 1.414-4.782 2.952-7.189.123-.226.164-1.131.123-2.715l1.23.247 2.798.124 1.445-.216-1.414-.247-2.583-.432-1.507-.432v-.031c-.471-.103-1.148-.452-2.029-1.049-1.784-1.213-3.701-3.085-5.751-5.615-2.111-2.612-3.474-5.604-4.089-8.977-.328-1.79-.441-4.145-.338-7.065.123-3.435 1.199-6.962 3.228-10.582l3.014-4.412 11.039-18.264z" fill="#F29600"/><path d="M148.651 208.207c.328-.185.554.34.677 1.574-1.005.493-2.276.874-3.813 1.141v-2.283c1.004.37 2.05.227 3.136-.432zM136.874 209.195c.554-.473 1.261.277 2.122 2.252-2.091.062-4.11.051-6.058-.031l.093-2.777c.41.494.994.823 1.752.988.861.185 1.558.041 2.091-.432zM122.452 204.042c.144.885.441 1.697.892 2.438.451.72.984 1.244 1.599 1.573l.861 2.437c-2.357-.617-3.567-1.532-3.628-2.745-.062-1.173.03-2.407.276-3.703z" fill="#D18200"/><path d="M149.359 207.776l-.123.061c.492-1.234 1.118-2.19 1.876-2.869.82-.72 1.415-1.172 1.784-1.357.41-.227.727-.196.953.092l1.353 2.129 1.568 2.9c.635 1.44.892 2.787.769 4.041-.062.638-.185 1.121-.369 1.45-.123-.863-.738-1.789-1.845-2.776-.902-.802-1.661-1.316-2.276-1.543a18.051 18.051 0 01-2.121-.833c-.984-.493-1.507-.925-1.569-1.295z" fill="white"/><path d="M148.928 209.688c-.267-.102-.164-.719.307-1.851l.123-.061c.062.37.584.802 1.568 1.295a18 18 0 002.122.833c.615.227 1.373.741 2.275 1.543 1.107.987 1.722 1.913 1.845 2.776-1.189-1.234-2.06-1.995-2.613-2.282l-2.952-1.204-2.675-1.049z" fill="#DBDCDC"/><path d="M142.347 204.351l1.999 2.777c1.189 1.851 1.783 3.321 1.783 4.411 0 1.954-.215 3.507-.645 4.659l-.646 1.111-.277-.402c.062-1.213-.584-2.437-1.937-3.671-.943-.884-1.866-1.512-2.768-1.882-1.414-.617-2.213-1.398-2.398-2.344.492-1.399 1.045-2.438 1.66-3.116.656-.7 1.343-1.193 2.061-1.481l1.168-.062z" fill="white"/><path d="M139.856 211.354c.902.371 1.824.998 2.767 1.882 1.353 1.234 1.999 2.458 1.937 3.672l-1.322-1.574c-.41-.391-1.486-1.121-3.229-2.19-1.66-1.029-2.634-1.584-2.921-1.666-.123-.021-.143-.278-.061-.772.061-.493.205-1.059.43-1.696.185.946.984 1.727 2.399 2.344z" fill="#DBDCDC"/><path d="M126.511 205.523c.451-.555.922-.997 1.414-1.326.574-.35.964-.401 1.169-.155l1.968 2.376c1.107 1.399 1.722 2.314 1.845 2.746.328 1.11.082 2.715-.738 4.813a18.867 18.867 0 01-1.353 2.807l-.185-.309v-.154c-.061-1.028-.43-2.015-1.107-2.962l-1.722-2.005-1.445-1.481-1.23-1.388c.492-1.46.953-2.447 1.384-2.962z" fill="white"/><path d="M127.803 211.354l1.722 2.006c.676.946 1.045 1.933 1.107 2.961v.154c-.779-1.172-1.343-1.943-1.691-2.313l-4.059-3.949c-.164-.124-.082-.7.246-1.728l1.23 1.388 1.445 1.481z" fill="#DBDCDC"/><path d="M149.605 207.436c-.451.967-.646 1.646-.584 2.036l.123.185.738.278 4.612 1.851c.513.288 1.343 1.018 2.491 2.191.184-.288.307-.772.369-1.45.123-1.173-.123-2.427-.738-3.764l-1.476-2.777-1.322-2.036c-.103-.144-.226-.216-.369-.216-.349-.041-1.097.432-2.245 1.419-.574.514-1.107 1.275-1.599 2.283zm-.123 3.579l-.769-.309c-.43-.144-.697-.483-.799-1.018-.103-.637.123-1.542.676-2.715.554-1.172 1.179-2.067 1.876-2.684l1.66-1.295c.533-.309 1.015-.443 1.446-.401.451.061.84.288 1.168.678l1.353 2.129 1.537 2.9c.718 1.563.995 3.054.831 4.473-.082.72-.246 1.306-.492 1.759l-.369.679-.431.277c-.184.041-.338-.02-.461-.185l-.523-.524c-1.148-1.152-1.896-1.81-2.244-1.975-.492-.288-1.979-.884-4.459-1.789zM137.212 211.323l.123.155c.307.102 1.24.637 2.798 1.604 1.64.987 2.655 1.666 3.044 2.036l1.507 1.882c.226-.185.431-.545.615-1.08.41-1.09.615-2.56.615-4.412 0-1.522-1.158-3.743-3.475-6.663l-.123-.185-.307-.124c-.308-.02-.687.093-1.138.34-.574.287-1.117.709-1.63 1.264-.553.597-1.055 1.522-1.506 2.777-.451 1.193-.626 1.995-.523 2.406zm-.246 1.234c-.41-.123-.687-.432-.83-.925-.185-.638-.021-1.666.492-3.085.533-1.399 1.127-2.458 1.783-3.178.574-.637 1.199-1.131 1.876-1.481.656-.349 1.25-.514 1.783-.493.492.041.882.236 1.169.586l.092.154c2.481 3.126 3.721 5.584 3.721 7.373 0 2.016-.236 3.641-.707 4.875-.267.699-.574 1.203-.923 1.512l-.492.401-.461.154-.4-.278-.338-.555a8.592 8.592 0 00-1.322-1.666c-.328-.309-1.261-.936-2.799-1.882-1.496-.925-2.378-1.429-2.644-1.512zM129.371 204.691l-.277-.34a.467.467 0 00-.338-.154c-.287 0-.635.164-1.045.494-.41.308-.769.668-1.077 1.079-.328.391-.707 1.152-1.137 2.283-.451 1.193-.595 1.923-.431 2.191l1.814 1.697 2.061 2.036c.43.473 1.025 1.306 1.783 2.499a18.453 18.453 0 001.599-3.487c.533-1.624.666-2.879.4-3.763-.164-.576-1.281-2.088-3.352-4.535zm-3.628.37c.266-.37.635-.751 1.107-1.142.697-.576 1.332-.864 1.906-.864.472 0 .871.186 1.199.556l.277.339c2.173 2.55 3.362 4.196 3.567 4.936.369 1.234.174 2.9-.584 4.998a21.631 21.631 0 01-1.507 3.178l-.461.802-.492.308-.461-.277-.523-.802-1.661-2.345-3.782-3.671c-.594-.514-.564-1.635.092-3.363.492-1.255.933-2.139 1.323-2.653zM129.125 195.867l-1.721-.37c-.595-.206-.872-.36-.831-.463l.769.093 1.568.216 2.522-.062c1.107-.062 1.66-.062 1.66 0l-1.568.37-2.399.216z" fill="#0D131A"/><path d="M100.775 1.783c1.476-.102 2.706.946 3.69 3.147.266.576.584 1.841.953 3.795l.769 4.319c.143.843.85 3.97 2.121 9.379.451 1.974 1.896 4.895 4.336 8.761l1.753 3.085.522 1.697c.082.658-.256 2.17-1.014 4.535.389 1.296.533 3.147.43 5.554l1.999 5.707 1.076 2.777 1.261 2.498c.164.268.461.412.892.432.369.042.727.391 1.076 1.05.676 1.295-.01 3.712-2.06 7.25l-3.26 4.935c.267 1.749-.553 2.9-2.46 3.456l-4.335.524c-.472.062-1.159.34-2.061.833-.82.432-1.763.648-2.829.648-1.271 0-2.747-.473-4.427-1.419-1.456-.782-2.348-1.44-2.676-1.974l-1.937-2.407-2.675-3.24-3.598-3.948-3.29-3.455a3.31 3.31 0 00-1.568-1.019l-.769-.123c-1.394-1.234-2.583-2.838-3.567-4.813-.779-1.583-1.168-2.704-1.168-3.362 0-.474.112-1.43.338-2.87.246-1.542.502-2.786.769-3.733.615-2.18.922-3.99.922-5.43 0-1.254-.543-3.434-1.63-6.54-.471-1.398-1.978-4.195-4.52-8.391l-2.675-3.301-3.136-3.672c-.656-.802-.954-1.81-.892-3.023.061-1.049.307-1.728.738-2.036.43-.309 1.158-.473 2.183-.494.963 0 1.722.113 2.276.34.471.185 1.404.956 2.798 2.313l4.09 4.104c3.382 3.393 6.293 5.933 8.732 7.62 1.025.72 2.47.874 4.336.463 1.496-.309 2.983-.895 4.459-1.759 1.045-.617 1.711-1.79 1.998-3.517.123-.781.185-2.262.185-4.442l-.339-5.8c-.204-2.777-.297-4.402-.276-4.875.04-.905.225-1.656.553-2.252.41-.823 1.046-1.265 1.907-1.327z" fill="#F29600"/><path d="M107.57 63.053l1.445.556 1.23.154 1.076-.03.584-.155.339.062c.061.164-.103.319-.492.463l-1.476.246c-.943 0-1.907-.246-2.891-.74-.246-.124-.666-.216-1.26-.278l-1.169-.03c-.246.04-.933.627-2.06 1.758-.41.411-.718.473-.923.185-.143-.185.052-.494.585-.926l1.291-.956c.718-.473 1.333-.71 1.845-.71.533 0 1.158.134 1.876.401zM107.632 67.99l-1.353-.37-1.076.308c-.451.062-.759-.02-.923-.247-.082-.123.072-.329.461-.617.39-.267.708-.411.954-.432.225-.02.615.103 1.168.37l1.015.587c.143.123.184.236.123.339l-.369.062zM118.577 62.437c.103.123.041.329-.184.617l-.554.616-1.045 1.605c-.164.288-.349.411-.554.37-.225-.062-.276-.206-.153-.432.143-.288.512-.843 1.107-1.666.143-.247.399-.504.768-.771.369-.288.574-.401.615-.34zM102.25 43.772l-.092-.34c0-.144.051-.236.154-.278l.523.247.399 1.111.4.555.215.494-.246.586c-.184.165-.338.226-.461.185-.143-.062-.215-.442-.215-1.141l-.277-.71-.4-.71zM103.142 46.672c.184.082.123.72-.185 1.912l-1.414 4.042-.8 1.08c-.451.452-.738.637-.86.555-.206-.144-.093-.545.338-1.203l.399-.525.4-.617.769-1.85.738-1.944c.307-1.05.512-1.533.615-1.45zM110.306 43.68l.154.493.031.863-.185 1.481c0 .988-.164 1.45-.492 1.389-.205-.041-.307-.196-.307-.463l.061-.679.339-1.388c.143-1.11.276-1.676.399-1.697zM96.254 67.126l.092 1.666c-.02.35.133.586.461.71.328.123.636-.01.923-.402l.369.556c-.472.596-.984.894-1.538.894-.369 0-.646-.442-.83-1.326-.184-.864-.246-1.923-.184-3.178l.707 1.08z" fill="#0D131A"/><path d="M96.684 69.625c-.369-.165-.512-.998-.43-2.5L97.73 69.1l-.615.494-.43.03zM113.874 42.26l.123.802c.123.967.133 1.995.03 3.085-.02.432-.235 1.018-.645 1.759-.513.905-1.118 1.522-1.815 1.85.041-1.233.246-2.426.615-3.578a24.1 24.1 0 011.692-3.918z" fill="white"/><path d="M161.473 45.19c.144-.061.359.032.646.278l.554.587c2.193 2.92 4.284 7.743 6.272 14.469 2.071 6.951 3.506 14.201 4.305 21.75.082.658.072 1.244-.03 1.758-.082.473-.216.72-.4.74-.369.042-.625-.76-.769-2.406-.676-6.828-2.029-13.718-4.059-20.67-1.886-6.479-3.915-11.548-6.088-15.21-.472-.781-.615-1.213-.431-1.295zM170.268 50.744c.143-.062.451.226.922.864l.769 1.172c4.797 13.287 6.601 25.946 5.412 37.978l-.123 1.542c-.103.864-.226 1.296-.369 1.296-.123 0-.257-.38-.4-1.141l-.185-1.42c.492-15.713-1.373-28.434-5.596-38.162-.574-1.296-.717-2.006-.43-2.129zM41.612 52.996l.4-.617c.185-.267.338-.38.461-.34.144.042.216.247.216.618l-.123.802c-1.19 3.29-2.091 7.795-2.706 13.513-.677 6.108-.81 11.754-.4 16.937v1.141c-.041.576-.133.864-.277.864-.143 0-.287-.288-.43-.864l-.185-1.11c-.635-5.348-.615-11.312.062-17.894.656-6.5 1.65-10.85 2.982-13.05zM37.369 60.184c.184-.617.38-.894.584-.833.144.02.236.185.277.494v.679a135.952 135.952 0 00-3.198 16.998c-.759 6.17-1.046 11.97-.861 17.4 0 1.193-.103 1.8-.308 1.82-.143 0-.246-.256-.307-.77l-.062-1.05c-.717-5.326-.666-11.168.154-17.523.697-5.553 1.937-11.291 3.72-17.215z" fill="#0D131A"/><path d="M88.629 43.37c.266-.123.563-.082.891.124l6.304 4.69.43.37c.37.226.636.565.8 1.018l.43.894.646 1.512-.123.432-1.353.062-3.843-.74-.339-.093-3.26-.864c-.84-.309-1.311-.669-1.414-1.08-.102-.473-.112-1.347-.03-2.622l.307-2.839c.082-.452.266-.74.553-.863z" fill="white"/><path d="M88.629 43.37c.266-.123.563-.082.891.124l6.304 4.69.43.37c.37.226.636.565.8 1.018l.43.894.646 1.512-.123.432-1.353.062-3.843-.74-.339-.093-3.26-.864c-.84-.309-1.311-.669-1.414-1.08-.102-.473-.112-1.347-.03-2.622l.307-2.839c.082-.452.266-.74.553-.863z" fill="white"/><path d="M91.95 45.222l.06.061 4.244 3.27c.37.227.636.566.8 1.019l.43.894.646 1.512-.123.432-1.353.062-3.567-.68c-.882-1.398-1.322-2.971-1.322-4.72 0-.637.061-1.254.184-1.85zM111.998 49.88l-.769.401.031-.555c.021-1.275.226-2.489.615-3.64l.892-2.314c.287.76.43 1.552.43 2.375 0 1.42-.399 2.664-1.199 3.733z" fill="#008086"/><path d="M111.936 48.708c-.184 0-.369-.124-.553-.37l.492-2.253c.225-.72.512-1.46.861-2.221.287.576.43 1.275.43 2.098 0 .76-.123 1.409-.369 1.944-.225.534-.512.802-.861.802z" fill="#00666C"/><path d="M112.368 48.03c-.144.575-.441.822-.892.74.041-.432.205-1.08.492-1.944.389.329.523.73.4 1.203z" fill="#0D131A"/><path d="M91.95 45.222l.06.061 4.244 3.27c.369.227.635.566.8 1.019l.676 1.419-2.767.185c-1.107-.206-2.03-.669-2.768-1.389a8.554 8.554 0 01-.43-2.714c0-.638.061-1.255.184-1.851z" fill="#00666C"/><path d="M93.332 51.577l-.738-.031c-.779-1.337-1.168-2.828-1.168-4.473 0-.576.072-1.265.215-2.067l.03-.031c.021.288.206.432.554.432l-.153 1.666c0 1.624.42 3.126 1.26 4.504zM95.054 50.99c-.348 0-.635-.123-.86-.37a1.311 1.311 0 01-.308-.863c0-.33.102-.617.307-.864.226-.226.482-.34.769-.34.266 0 .502.124.707.37.205.248.308.535.308.865l-.216.802-.707.4z" fill="#0D131A"/><path d="M93.856 49.356a.904.904 0 01-.738-.34 1.107 1.107 0 01-.246-.709c0-.309.092-.566.277-.772.205-.226.44-.339.707-.339.246 0 .472.123.677.37.184.227.277.494.277.803l-.277.679c-.205.205-.43.308-.677.308zM112.183 47.32l-.37-.278-.123-.555c0-.268.052-.484.154-.648.082-.185.195-.278.339-.278l.338.309.123.648-.123.555-.338.247z" fill="white"/><path d="M89.335 43.772c-.513-.309-.83-.134-.954.524l-.307 2.807c-.082 1.234-.072 2.067.03 2.5.103.41.83.801 2.184 1.172l2.614.617 3.812.771.892.093c.164-.021.236-.103.215-.247l-1.045-2.314c-.123-.309-.359-.607-.707-.895a120.017 120.017 0 00-3.075-2.437l-3.66-2.591zm-.646-1.08a42.776 42.776 0 014.305 2.838l3.075 2.56.738.648c.328.288.533.546.615.772l1.599 3.363.215.555c.04.206-.03.34-.215.401l-.246-.185-.154-.401c-.041-.103-.195-.206-.461-.309l-.77-.154c-.635 0-1.895-.206-3.781-.617l-4.797-1.172c-.451-.185-.82-.514-1.107-.988-.328-.514-.492-1.12-.492-1.82 0-.576.061-1.388.184-2.437l.154-1.635.062-.648-.062-.555c-.574-.617-.83-.977-.769-1.08.082-.103.718.185 1.907.864zM113.32 46.054c0 1.872-.584 3.373-1.752 4.505l-.462-.154c.533-.474.954-1.08 1.261-1.82a6.09 6.09 0 00.492-2.438c0-.761-.123-1.47-.369-2.129l.338-.586c.328.864.492 1.738.492 2.622z" fill="#0D131A"/><path d="M113.996 43.062l-.123-.802a24.006 24.006 0 00-1.691 3.918 13.096 13.096 0 00-.615 3.579c.697-.33 1.301-.946 1.814-1.851.41-.74.625-1.327.645-1.759.103-1.09.093-2.118-.03-3.085zm-9.563-37.083c-.779-2.51-1.897-3.764-3.352-3.764-.963 0-1.65.556-2.06 1.666-.308.864-.41 1.841-.308 2.931l.4 4.998.246 6.201c-.041 2.139-.338 3.712-.892 4.72-.41.72-1.168 1.42-2.275 2.098-.882.535-1.937.915-3.167 1.142l-2.83.185 1.2.524 1.445.771 1.138.895 1.476 1.265c.471.535.707.874.707 1.018-.02.165-.359.01-1.015-.463l-1.26-.833-.984-.74c-.533-.535-1.087-.874-1.66-1.018-.39-.062-.903-.268-1.538-.617a9.656 9.656 0 01-2.06-1.42c-2.706-2.241-5.136-4.39-7.288-6.447l-7.134-6.88c-.574-.535-1.435-.854-2.583-.956-1.148-.124-1.978.04-2.49.493-.472.412-.677 1.1-.616 2.067.062.864.267 1.533.615 2.006l2.89 3.424 3.23 4.103c4.079 6.54 6.119 11.446 6.119 14.716 0 1.502-.134 2.91-.4 4.227l-.707 2.653-.615 2.684c-.205 1.11-.308 1.913-.308 2.406 0 .597.144 1.306.43 2.13.308.945.749 1.83 1.323 2.652 1.312 1.934 2.132 3.044 2.46 3.332l.584.093c.349 0 .615.061.8.185l2.183 1.727c1.332 1.193 2.46 2.355 3.382 3.487l4.213 4.843c1.496 1.748 2.409 2.931 2.737 3.548.307.514 1.137 1.214 2.49 2.098 1.702 1.11 3.229 1.666 4.582 1.666.697 0 1.363-.134 1.999-.401l1.168-.586a7.866 7.866 0 013.106-.71c2.111-.103 3.454-.36 4.028-.771.369-.267.676-.771.922-1.512-.758.74-1.486 1.172-2.183 1.296-.943.206-2.162-.052-3.659-.771l-1.537-.525-1.815-.247-2.152.432c-1.066.206-1.948.196-2.644-.03-.759-.247-1.353-.597-1.784-1.05l-1.045-1.511c-.8-1.234-1.917-2.643-3.352-4.227-2.604-2.818-4.305-4.545-5.105-5.183-.328-.267-1.004-.576-2.029-.925l-1.906-.74c-.328-.206-.574-.577-.738-1.111-.103-.35-.216-.947-.339-1.79-.082-.596-.071-1.13.031-1.604.082-.39.185-.586.308-.586.184.041.287.329.307.864.226 1.85.451 2.972.677 3.362.143.247.655.504 1.537.772 1.046.329 1.773.648 2.183.956l3.229 2.746c1.558 1.46 2.726 2.674 3.505 3.64a44.253 44.253 0 013.106 4.474l1.138.77c.594.248 1.26.371 1.998.371l1.569-.216 1.629-.216 1.815.216 1.752.463c1.558.679 2.481 1.018 2.768 1.018.594 0 1.373-.504 2.337-1.512 1.168-1.213 2.347-2.9 3.536-5.06a29.842 29.842 0 001.691-3.609c.513-1.316.769-2.303.769-2.961 0-.535-.215-.936-.646-1.204l-1.384-1.018c-.451-.534-.973-1.511-1.568-2.93-.533-1.235-.922-2.314-1.168-3.24a50.032 50.032 0 00-1.292-4.01c-.41 1.213-.881 2.138-1.414 2.776l-.892.802c-.348.247-.523.504-.523.771l-.153.309-.277-.062c-.185-.37-.277-.822-.277-1.357l.277-2.006c.205-1.13.4-1.902.584-2.313l2.122-5.492c.533-1.604.799-2.982.799-4.134 0-.782-.154-1.501-.461-2.16-.246-.493-.656-1.1-1.23-1.82-.553-.678-1.199-1.666-1.937-2.961a32.781 32.781 0 01-2.06-4.196c-1.148-2.941-2.132-6.839-2.952-11.693-.738-4.154-1.23-6.622-1.476-7.404zm.738-1.45l1.66 7.805 1.661 7.62c.594 2.16 1.537 4.495 2.829 7.004l2.244 4.134c.923 1.707 1.456 2.91 1.599 3.61.164.781.226 1.47.185 2.066l-.369 1.636-.585 2.097.216 1.481c.143 1.255.174 2.56.092 3.918l2.337 6.633 1.107 2.56c.451.844.82 1.39 1.107 1.636l1.261.895c.574.452.861.987.861 1.604 0 1.255-.554 3.044-1.661 5.368-1.086 2.324-2.327 4.309-3.721 5.954-.082 1.07-.553 2.129-1.414 3.178-.451.514-1.332.884-2.644 1.11l-3.414.402c-.594.082-1.445.39-2.552.925-.943.473-1.824.71-2.644.71-1.025 0-2.266-.35-3.721-1.05-1.21-.596-2.111-1.172-2.706-1.727l-2.03-2.344-3.013-3.734-6.55-7.311c-.573-.597-1.22-.967-1.937-1.11l-1.076-.217-1.66-1.913-1.66-2.16-1.292-2.375c-.513-1.049-.769-1.81-.769-2.283 0-.658.38-2.53 1.138-5.615.676-2.9 1.014-5.234 1.014-7.003 0-1.193-.492-3.064-1.475-5.615-.861-2.262-1.815-4.319-2.86-6.17-.78-1.378-2.183-3.188-4.213-5.43l-3.598-3.949c-.8-1.007-1.148-2.19-1.045-3.547.082-1.234.482-2.14 1.2-2.715.655-.556 1.65-.854 2.982-.895 1.558-.062 2.829.38 3.813 1.327l5.535 5.522 5.166 5.152c2.05 1.83 3.495 2.931 4.335 3.301.533.247 1.425.35 2.675.309 1.292-.062 2.307-.257 3.045-.587 1.066-.452 1.855-.946 2.367-1.48.8-.864 1.2-2.016 1.2-3.456l.03-4.195-.123-3.672-.492-6.54c-.04-.946.226-1.892.8-2.838.635-1.05 1.445-1.646 2.429-1.79.984-.123 1.906.216 2.767 1.018a5.376 5.376 0 011.569 2.746z" fill="#0D131A"/></svg>