<svg width="199" height="206" fill="none" xmlns="http://www.w3.org/2000/svg"><path d="M112.251 46.467c.638 1.656.957 3.24.957 4.754l-.035.674c-.118.97-.414 1.561-.887 1.774-.426.166-.899.047-1.419-.355-1.183-.97-2.093-2.909-2.732-5.818-.615-2.767-.662-4.505-.142-5.215l.745-.035.816.354c1.088.686 1.987 1.975 2.697 3.867z" fill="#0D131A"/><path d="M111.47 52.605c-.757-.639-1.348-1.822-1.774-3.548a16.92 16.92 0 01-.532-4.186l.142-1.313c.875.71 1.608 1.869 2.199 3.477.521 1.49.781 2.885.781 4.186l-.036.568c-.047.615-.153.957-.319 1.029l-.461-.213z" fill="#3D62AC"/><path d="M111.15 48.631l.107 1.313c-.048.402-.142.627-.284.674-.166.047-.331-.095-.497-.426-.165-.33-.295-.745-.39-1.241l-.107-1.313c.048-.402.142-.627.284-.674.166-.024.331.118.497.426l.39 1.241zM194.944 143.459l1.064-.426c.378-.118.662-.012.851.319h.391c1.182 2.2 1.159 5.558-.071 10.075-1.088 4.021-2.389 6.871-3.903 8.55-.378.426-.745.568-1.099.426-.402-.142-.674-.769-.816-1.88-.071-.544-.154-2.034-.249-4.47l-.212-3.974c-.119-1.513.272-3.252 1.17-5.215.923-1.986 1.88-3.122 2.874-3.405z" fill="#0D131A"/><path d="M195.193 144.346c.284-.071.509.071.675.425.496.899.744 2.082.744 3.548 0 2.199-.508 4.754-1.525 7.663-.875 2.53-1.679 4.198-2.412 5.002l-.107.106c-.236-.378-.414-2.069-.532-5.073l-.213-4.47c0-1.348.39-2.838 1.171-4.47.78-1.632 1.514-2.542 2.199-2.731z" fill="#FFF3C2"/><path d="M195.868 144.771l.532 1.419-1.207 1.384c-1.135 1.774-1.915 6.173-2.341 13.197l-.284.319c-.236-.378-.414-2.069-.532-5.073l-.213-4.47c0-1.348.39-2.838 1.171-4.47.78-1.632 1.514-2.542 2.199-2.731.284-.071.509.071.675.425z" fill="#DBD2A9"/><path d="M147.762 94.324c.946 1.892 2.53 3.548 4.753 4.967 1.656 1.088 4.269 2.353 7.84 3.796l7.167 2.838c1.868.828 3.37 1.797 4.505 2.909 3.382 3.358 7.781 8.029 13.197 14.013 5.534 6.102 8.964 10.099 10.288 11.991 1.348 1.916 2.212 3.914 2.59 5.995.355 2.058.177 3.903-.532 5.535-.899 2.081-3.24 3.358-7.024 3.831l-13.268.39c-2.791-.662-4.825-2.613-6.102-5.853-2.507-6.457-5.062-12.488-7.663-18.093-3.95-8.491-6.835-13.292-8.656-14.403-2.484-1.49-5.393-2.862-8.727-4.115l-10.217-3.406c-1.869-.615-3.028-2.306-3.477-5.073-.355-2.247-.225-4.683.39-7.308.402-1.727 1.041-3.04 1.916-3.938.851-.852 1.868-1.254 3.051-1.206 4.351.165 7.674 2.542 9.969 7.13z" fill="#0D131A"/><path d="M159.894 104.258c2.814 1.159 4.837 2.022 6.066 2.589 2.058.994 3.477 1.892 4.257 2.697 3.714 3.689 8.148 8.301 13.304 13.835 5.7 6.102 9.176 10.028 10.43 11.778 1.23 1.727 2.022 3.489 2.377 5.286.331 1.774.189 3.37-.426 4.789-.946 2.129-2.779 3.382-5.499 3.761-6.078.757-10.359.674-12.842-.248-2.2-.828-3.891-2.756-5.073-5.783a286.436 286.436 0 00-6.421-14.794c-4.707-10.004-8.242-15.668-10.608-16.992-4.682-2.697-10.772-5.251-18.27-7.663-1.466-.497-2.507-1.904-3.122-4.222-.544-2.176-.555-4.41-.035-6.705.236-1.017.568-1.88.993-2.59.733-1.182 1.597-1.703 2.59-1.56 2.034.283 3.76 1.075 5.18 2.376.875.804 2.152 2.425 3.831 4.86l1.348 1.916c.78 1.112 2.33 2.259 4.647 3.441 1.348.71 3.773 1.786 7.273 3.229z" fill="#E73820"/><path d="M186.112 148.177c4.754-.733 8.171-2.176 10.252-4.328l-.461 1.383c-.946 2.129-2.779 3.382-5.499 3.761l-10.288.355c-2.317-.308-4.091-1.112-5.321-2.413 4.777 1.254 8.55 1.668 11.317 1.242zM137.615 88.435c1.537.213 2.862.698 3.973 1.455.946.615 1.916 1.549 2.909 2.802.142 4.92 1.266 9.827 3.371 14.723-3.028-1.277-6.587-2.578-10.679-3.902-1.466-.497-2.507-1.904-3.122-4.222-.544-2.176-.555-4.41-.035-6.705.236-1.017.568-1.88.993-2.59.733-1.182 1.597-1.703 2.59-1.56z" fill="#C82E19"/><path d="M192.001 141.117c.804 1.396 1.182 3.737 1.135 7.025-.047 3.807-.721 7.426-2.022 10.855l-1.135 2.2c-.544.827-.97 1.23-1.277 1.206-.308-.024-.722-.627-1.242-1.809l-2.058-5.96c-1.064-3.335-1.62-5.452-1.667-6.351-.024-.946.804-2.353 2.483-4.221 1.656-1.845 3.039-2.933 4.151-3.264.828-.237 1.372-.13 1.632.319z" fill="#0D131A"/><path d="M191.042 142.039c.662 1.159.887 3.856.674 8.089-.189 4.423-.792 7.485-1.809 9.188l-.781.994-.283.141-.391-.496-1.915-5.925c-.994-3.287-1.502-5.368-1.526-6.243-.047-.639.603-1.691 1.951-3.158 1.372-1.49 2.543-2.377 3.513-2.66l.567.07z" fill="#FFF3C2"/><path d="M185.011 147.787c-.024-.45.414-1.254 1.312-2.413.213 1.892.663 4.423 1.348 7.592.639 3.004 1.218 5.357 1.739 7.06l-.426.39-.142.036-.39-.497-1.916-5.924c-.993-3.288-1.502-5.369-1.525-6.244z" fill="#DBD2A9"/><path d="M178.484 138.563c1.111-.189 1.856.071 2.235.781.733 1.324.934 3.807.603 7.449-.426 4.494-1.727 8.444-3.902 11.849-.19.308-.462.367-.816.178-.734-.331-1.668-2.673-2.803-7.024-1.064-4.068-1.549-6.493-1.454-7.273.094-.71.851-1.797 2.27-3.264 1.514-1.584 2.803-2.483 3.867-2.696z" fill="#0D131A"/><path d="M179.761 140.514c.236.426.354 1.455.354 3.087a30.8 30.8 0 01-.745 6.74c-.614 2.791-1.513 4.931-2.696 6.421-.473-.686-1.123-2.696-1.951-6.031-.828-3.24-1.242-5.357-1.242-6.35l.036-.213c.071-.473.65-1.23 1.738-2.27 1.206-1.159 2.259-1.821 3.158-1.987.638-.095 1.088.106 1.348.603z" fill="#FFF3C2"/><path d="M173.517 144.168c.047-.378.544-1.064 1.49-2.058.331 2.484.721 4.932 1.171 7.344.544 3.004 1.017 4.955 1.419 5.854l-.923 1.454c-.473-.686-1.123-2.696-1.951-6.031-.828-3.24-1.242-5.357-1.242-6.35l.036-.213z" fill="#DBD2A9"/><path d="M137.118 187.91c.142-.828 1.029-1.845 2.661-3.051 1.537-1.159 2.566-1.703 3.086-1.632.544.095 2.129.863 4.754 2.306 2.862 1.585 4.423 2.72 4.683 3.406.118.26.094.485-.071.674-.45.544-2.59.721-6.421.532l-7.592-.852c-.521-.118-.863-.354-1.029-.709-.118-.237-.142-.461-.071-.674z" fill="#0D131A"/><path d="M138.006 188.123c.024-.52.733-1.301 2.128-2.342 1.301-.993 2.188-1.525 2.661-1.596.52.118 1.951.828 4.293 2.129 2.388 1.324 3.583 2.105 3.583 2.341l-4.967.319-7.272-.603c-.284-.047-.426-.13-.426-.248z" fill="#FFF3C2"/><path d="M138.432 188.371c-.284-.047-.426-.13-.426-.248.024-.568.792-1.395 2.306-2.483a140.86 140.86 0 0010.323 2.98l.036.035-4.967.319-7.272-.603z" fill="#DBD2A9"/><path d="M126.227 135.902l1.951-.248c.45-.024.722.095.816.355l3.158 8.762a28.053 28.053 0 004.683 7.415c4.02 4.541 6.385 8.112 7.095 10.714 1.206 4.304.13 9.637-3.229 15.999-.118.237-.035.556.249.958l1.206 1.348c1.845 1.845 2.944 3.146 3.299 3.902.355.781.402 1.526.142 2.235l-1.348 1.987c-1.443 1.798-4.198 3.087-8.266 3.867l-8.656.284-9.898-1.809c-6.622-1.349-10.217-2.425-10.785-3.229-.614-.875-.543-2.4.213-4.576.568-1.632 1.254-3.087 2.058-4.364.544-.851.875-1.596.993-2.235.119-.709.024-1.431-.284-2.164-.544-1.182-2.235-2.424-5.073-3.725-1.75-.78-5.132-2.046-10.146-3.796l.284-.638.461-1.206c.26-2.389 4.577-7.781 12.949-16.177 8.656-8.68 14.699-13.233 18.128-13.659z" fill="#0D131A"/><path d="M127.576 137.712c1.324 3.76 2.566 6.787 3.725 9.081 1.372 2.72 2.956 5.144 4.754 7.273 3.476 4.092 5.522 7.462 6.137 10.111.851 3.689-.012 8.431-2.59 14.226-.26.591-.189 1.229.213 1.915.213.379.698.958 1.455 1.739 1.04 1.04 1.691 1.856 1.951 2.447.615 1.325.473 2.531-.426 3.619-1.277 1.585-3.725 2.791-7.343 3.619-3.288.756-5.913.934-7.876.532l-11.955-2.484c-4.376-.993-6.741-1.785-7.096-2.377-.331-.544 0-2.388.994-5.534l1.632-5.321c0-.639-.13-1.289-.391-1.951-1.348-3.028-6.137-5.96-14.367-8.798.07-1.845 4.067-6.776 11.99-14.794 8.231-8.325 14.084-12.925 17.561-13.8.851-.213 1.395-.047 1.632.497z" fill="#E73820"/><path d="M125.944 137.215c.851-.213 1.395-.047 1.632.497 1.064 3.027 2.058 5.534 2.98 7.52 1.064 2.295 2.211 4.352 3.441 6.173-4.186 2.507-7.781 5.641-10.785 9.401-3.713 4.683-5.002 8.81-3.866 12.382.567 1.75.603 3.287.106 4.611-.355.97-1.112 2.046-2.27 3.229-1.325 1.348-1.94 2.53-1.845 3.547.071.994.828 1.798 2.27 2.413l4.506 1.525 3.299.745 2.767.568c.615.189 1.348.579 2.2 1.17l.957 1.384-3.76-.106-7.84-1.632-7.308-1.632-.674-.213h-.036c-1.892-.544-2.956-1.005-3.193-1.384-.331-.544 0-2.388.994-5.534l1.632-5.321c0-.639-.13-1.289-.391-1.951-1.348-3.028-6.137-5.96-14.367-8.798.07-1.845 4.067-6.776 11.99-14.794 8.231-8.325 14.084-12.925 17.561-13.8z" fill="#C82E19"/><path d="M136.551 189.116c.544-.993 1.537-2.105 2.98-3.334 1.561-1.301 2.637-1.81 3.228-1.526.497.237 1.786 1.289 3.867 3.157 2.412 2.176 3.772 3.749 4.08 4.719.118.378.059.638-.178.78-.638.402-2.66.438-6.066.107-3.595-.355-6.031-.923-7.308-1.703l-.532-.249c-.26-.141-.391-.307-.391-.496 0-.568.107-1.053.32-1.455z" fill="#0D131A"/><path d="M137.65 190.429c0-.237.166-.651.497-1.242.591-.922 1.372-1.845 2.341-2.767.923-.875 1.55-1.313 1.881-1.313.496.261 1.75 1.36 3.76 3.3 2.081 1.986 3.087 3.098 3.016 3.334l-4.896.142c-3.288-.236-5.487-.686-6.599-1.348v-.106z" fill="#FFF3C2"/><path d="M143.859 191.883c-3.075-.26-5.144-.709-6.209-1.348v-.106c0-.237.166-.651.497-1.242l.497-.674a91.986 91.986 0 0010.394 3.299c-.591.261-2.318.284-5.179.071z" fill="#DBD2A9"/><path d="M134.387 185.959c1.608.662 3.098 1.809 4.47 3.441 1.112 1.324 1.928 2.672 2.448 4.044l.319 1.206c0 .213-.094.355-.284.426-.804.355-3.24.177-7.308-.532-3.666-.639-5.889-1.123-6.669-1.455-.544-.26-.816-.52-.816-.78.024-.662.958-1.821 2.802-3.477 1.68-1.513 2.862-2.424 3.548-2.731l.993-.32.497.178z" fill="#0D131A"/><path d="M137.722 190.039l1.915 2.554c.45.757.58 1.194.391 1.313l-5.676-.462c-3.193-.544-5.286-.993-6.28-1.348.166-.473.934-1.407 2.306-2.802 1.372-1.372 2.306-2.141 2.803-2.306.402-.142 1.04.083 1.916.674.827.567 1.702 1.36 2.625 2.377z" fill="#FFF3C2"/><path d="M128.072 192.096c.071-.236.367-.662.887-1.277 5.511 1.348 9.153 2.105 10.927 2.271.213.449.26.721.142.816l-5.676-.462c-3.193-.544-5.286-.993-6.28-1.348z" fill="#DBD2A9"/><path d="M156.241 1.306c.354-.567 1.407-.768 3.157-.603 1.727.142 3.169.544 4.328 1.206 1.987 1.088 2.98 2.531 2.98 4.329 0 .71-.331 1.679-.993 2.909l-5.428 9.578-3.973 6.74c2.885 3.761 5.309 7.959 7.272 12.595 2.2 5.179 3.299 9.803 3.299 13.87 0 2.886-.969 5.76-2.909 8.621-1.797 2.65-5.013 6.114-9.649 10.395-10.454 9.673-15.68 18.093-15.68 25.259v.319c-.261 1.656-.379 3.618-.355 5.889l-.071 5.499c-.284 4.21-1.124 9.33-2.519 15.361-1.277 5.51-2.708 10.465-4.292 14.864-3.312 9.129-7.864 16.142-13.659 21.037-7.828 6.599-18.412 9.981-31.75 10.147l-26.182-.816c-6.622-1.088-14.439-4.056-23.45-8.905-20.67-11.116-31.479-25.909-32.425-44.38-.378-7.214.355-14.616 2.2-22.208 1.584-6.622 4.174-14.001 7.77-22.137l.212-.461.497.106c1.726.378 2.85.934 3.37 1.667l2.412-1.312-.461 1.454c-.922 3.075-1.194 7.344-.816 12.807.52 7.97 2.684 14.675 6.492 20.115 3.075 4.375 6.835 7.675 11.282 9.898 4.611 2.318 10.276 3.642 16.992 3.973 1.088.071 2.815-.698 5.18-2.306 1.726-1.159 4.068-2.992 7.024-5.499 5.369-4.517 12.937-9.554 22.705-15.112 1.513-.9 4.174-2.058 7.982-3.477 5.392-2.034 9.259-3.914 11.601-5.64 3.902-2.933 6.634-6.99 8.195-12.169-.332.284-.816.39-1.455.32-.686-.048-1.372-.273-2.058-.675-2.767-1.608-4.99-3.476-6.669-5.605-1.845-2.341-2.767-4.73-2.767-7.166 0-2.152.733-4.233 2.199-6.244 1.396-1.892 3.394-3.642 5.996-5.25-2.389-3.43-4.033-6.445-4.931-9.047-.734-2.128-.923-3.76-.568-4.895.615-2.01 2.152-3.524 4.612-4.541.757-.331 1.289-.662 1.596-.994l.568-1.17c.899-2.578 2.353-4.612 4.363-6.102 2.46-1.821 7.533-4.387 15.22-7.699 4.872-2.104 10.098-4.99 15.68-8.656 4.754-3.121 7.379-5.084 7.876-5.889z" fill="#0D131A"/><path d="M163.478 3.967c.828.733 1.241 1.573 1.241 2.519 0 .662-.189 1.336-.567 2.022l-5.676 10.11-3.3 5.535-2.093-2.058-.816.036c-.047.45.119.91.497 1.383.828.994 2.377 3.394 4.647 7.202 2.909 4.896 4.896 8.904 5.96 12.026 1.136 3.335 1.703 6.102 1.703 8.302 0 2.838-.887 5.652-2.661 8.443-1.773 2.838-4.824 6.256-9.152 10.253-4.116 3.807-7.498 7.627-10.146 11.458-3.808 5.464-5.712 10.466-5.712 15.007l.035.177c-.496 3.098-.91 7.154-1.241 12.168-.379 5.7-.863 10.087-1.455 13.162-.993 5.038-2.72 10.075-5.179 15.113l-1.1 2.341c-3.619 7.923-7.497 13.824-11.636 17.703-7.426 6.953-17.371 10.501-29.835 10.642-22.61.284-39.58-3.216-50.909-10.5l-.602-.391c-8.113-5.203-14.18-10.122-18.2-14.758-7.237-8.301-11.14-17.962-11.707-28.984l-.106-3.902c0-6.102.851-12.298 2.554-18.59 1.42-5.297 3.737-11.588 6.953-18.873 1.23 1.16 2.531 1.431 3.903.816-.875 4.163-1.313 7.628-1.313 10.395 0 4.21.438 8.218 1.313 12.026 1.111 4.825 2.873 8.952 5.286 12.381 3.074 4.376 7.722 7.923 13.942 10.643 6.078 2.649 11.66 3.678 16.744 3.086 1.396-.141 3.016-.804 4.86-1.986 1.632-1.017 3.808-2.673 6.528-4.967 3.784-3.193 6.977-5.771 9.579-7.734 4.399-3.263 8.928-6.231 13.587-8.904 1.537-.899 4.15-2.034 7.84-3.406 5.369-1.986 9.295-3.89 11.778-5.711 4.115-3.051 7.001-7.25 8.656-12.594.071-.166.048-.45-.071-.852l-.106-.887 1.029-1.277-1.348.852c-.781.496-1.833.496-3.158 0-2.176-.828-4.15-2.39-5.924-4.683-1.845-2.365-2.767-4.624-2.767-6.776 0-2.034.555-3.926 1.667-5.676 1.277-2.034 3.193-3.725 5.747-5.073 1.159-.639 1.798-1.124 1.916-1.455.094-.331-.083-.402-.532-.213l-1.242.32-1.49-2.306c-1.372-2.176-2.33-3.926-2.874-5.25-.922-2.224-1.147-4.08-.674-5.57.568-1.75 1.762-3.004 3.584-3.761.969-.402 1.667-.863 2.093-1.384.283-.33.532-.827.745-1.49.52-1.49 1.62-2.92 3.299-4.292 2.956-2.413 8.171-5.345 15.645-8.798 4.943-2.294 10.217-5.203 15.822-8.727 5.156-3.24 7.982-5.298 8.479-6.173l-.036.07 2.448.107c1.49.355 2.673.923 3.548 1.703z" fill="#E73820"/><path d="M164.718 6.486c0 .662-.189 1.336-.567 2.022l-5.676 10.11-3.3 5.535-2.093-2.058-.816.036c-.047.45.119.91.497 1.383.828.994 2.377 3.394 4.647 7.202 2.909 4.896 4.896 8.904 5.96 12.026 1.135 3.335 1.703 6.102 1.703 8.302 0 2.838-.887 5.652-2.661 8.443-1.773 2.838-4.824 6.256-9.152 10.253-4.116 3.807-7.498 7.627-10.147 11.458-3.807 5.464-5.711 10.466-5.711 15.007l.035.177-.142.922c-1.017-1.324-2.057-3.11-3.121-5.356l-2.59-5.428c-2.223-4.163-5.322-6.894-9.295-8.195.331-.213 1.277-.426 2.838-.639 1.679-.213 2.921-.508 3.725-.887l3.264-1.916c1.868-1.206 3.335-1.891 4.399-2.057l6.705-.426c3.571-.497 6.717-1.916 9.436-4.257 2.933-2.483 4.849-6.255 5.748-11.317.662-3.69.768-7.934.319-12.736-.213-2.341-2.022-6.917-5.428-13.729-2.909-5.818-3.926-9.188-3.051-10.11l5.925-7.096c2.885-3.878 4.86-7.249 5.924-10.11a7.053 7.053 0 011.384.922c.827.733 1.241 1.573 1.241 2.519z" fill="#C82E19"/><path d="M122.182 100.391c3.335-1.585 6.161-2.14 8.479-1.668 1.75.355 3.193 1.289 4.328 2.803 1.419 1.892 2.117 4.458 2.093 7.698-.047 3.193-.839 7.876-2.377 14.049-1.253 4.966-2.637 9.637-4.15 14.013l-.568 1.277c-3.406 8.159-7.261 14.32-11.565 18.483-7.734 7.544-18.211 11.399-31.432 11.565-22.823.284-39.993-3.276-51.51-10.678l-.604-.39c-8.23-5.298-14.391-10.3-18.483-15.007-7.355-8.467-11.329-18.329-11.92-29.587-.165-3.145.142-7.509.923-13.09a166.912 166.912 0 011.596-9.366l.922.177c-1.206 6.906-.39 14.285 2.448 22.137 2.838 7.829 7.107 14.486 12.807 19.973 5.392 5.203 11.01 8.786 16.851 10.749 6.22 2.129 12.807 2.448 19.76.958 10.217-2.176 20.127-6.941 29.73-14.296 6.361-4.872 12.723-11.057 19.085-18.554 4.541-5.345 9.07-9.094 13.587-11.246z" fill="#0D131A"/><path d="M135.096 104.045a10.756 10.756 0 011.242 5.853c-.166 2.294-.828 6.019-1.987 11.175-1.419 6.22-2.968 11.506-4.647 15.858l-.568 1.277c-3.358 8.018-7.131 14.06-11.317 18.128-7.592 7.403-17.868 11.187-30.828 11.353-22.658.236-39.663-3.276-51.015-10.537l-.603-.39c-8.112-5.203-14.19-10.134-18.235-14.793-7.26-8.325-11.175-18.022-11.742-29.091l-.036-1.632c0-3.145.402-7.438 1.207-12.877-.095 6.362 1.277 12.771 4.115 19.228 2.79 6.314 6.598 11.801 11.423 16.46 5.416 5.204 11.435 8.846 18.057 10.927 6.835 2.105 13.871 2.401 21.108.887 10.17-2.176 20.139-7.166 29.907-14.971 5.037-4.044 11.506-10.371 19.405-18.98 3.595-3.926 5.972-6.326 7.131-7.201 4.541-3.429 8.632-4.896 12.274-4.399 2.224.284 3.926 1.525 5.109 3.725z" fill="#FFF3C2"/><path d="M35.976 157.152l-.603-.39-6.74-4.541c-2.838-2.034-5.369-4.103-7.592-6.208 4.139 3.074 9.366 5.972 15.68 8.691 7.947 3.453 16.118 5.878 24.514 7.273 22.776 3.855 43.447-.236 62.012-12.275-7.804 11.802-19.89 17.797-36.256 17.987-22.657.236-39.662-3.276-51.015-10.537z" fill="#DBD2A9"/><path d="M144.355 68.746l-9.152-.39-8.515-.461c-.993.213-2.329.899-4.009 2.057a30.668 30.668 0 00-4.434 3.654c-.426.426-.39 1.053.106 1.88.45.757 1.006 1.278 1.668 1.562 1.111.496 2.649.626 4.612.39a18.493 18.493 0 005.073-1.348c.969-.426 1.454-.509 1.454-.249 0 .237-.378.533-1.135.887a20.812 20.812 0 01-6.102 1.81l-4.434-.213a5.337 5.337 0 01-2.413-2.27l-.532-1.455-1.561-.568c-.875-.355-.934-.45-.177-.284 1.017.213 1.975-.07 2.873-.851l3.406-3.228c1.916-1.609 3.737-2.555 5.463-2.838l9.295.496 8.195.497c1.585-.497 2.874-1.17 3.867-2.022.686-.568 1.111-.769 1.277-.603.142.142-.071.532-.639 1.17-1.158 1.278-2.554 2.07-4.186 2.377z" fill="#0D131A"/><path d="M126.511 77.509l.532-.178.638-.07 2.164 1.56c.497.332.722.556.675.675l-.781-.072c-.402-.141-.958-.425-1.667-.85l-1.561-1.065zM112.393 41.43c-.19-.379-.201-.674-.036-.887.166-.237.414-.142.745.284.97 1.135 1.466 2.53 1.49 4.186.024.828-.095 1.206-.355 1.135-.26-.07-.449-.414-.567-1.029-.142-.993-.568-2.223-1.277-3.69zM124.595 44.055c-.236-.639-.319-1.466-.248-2.483.071-1.278.378-2.354.922-3.229.899-1.348 1.159-1.159.781.568-.26.993-.438 2.672-.532 5.038-.048.78-.178 1.135-.391 1.064-.165-.071-.343-.39-.532-.958zM115.939 65.553c.237-.685.52-1.17.852-1.454.307-.284.626-.331.957-.142.355.19.343.473-.035.851-.307.308-.544.757-.71 1.348l-.39 1.242-.496.568c-.166.024-.308-.19-.426-.639-.118-.45-.036-1.04.248-1.774zM136.374 54.45c-2.909-.19-5.31-.817-7.202-1.88l-.993.106c-.142-.095-.154-.296-.036-.604l.248-.39c1.278-2.412 3.856-5.061 7.734-7.946 3.595-2.673 6.788-4.482 9.579-5.428 1.324-.473 2.022-.615 2.093-.426l-.674.816-1.065.852-.532.319c1.088 1.04 2.034 2.59 2.838 4.647.521 1.395.769 2.803.745 4.222-.047 1.395-.331 2.542-.851 3.44l.497.391c.142.308-.213.556-1.065.745-4.233.993-8.005 1.372-11.316 1.135z" fill="#0D131A"/><path d="M144.356 40.436c.378.166.804.592 1.277 1.278.544.78 1.017 1.714 1.419 2.802.638 1.632.958 3.17.958 4.612 0 1.206-.237 2.247-.71 3.122-3.76 1.088-7.414 1.49-10.962 1.206-2.72-.236-5.002-.804-6.847-1.703 1.325-1.916 3.891-4.269 7.699-7.06 3.571-2.625 5.959-4.044 7.166-4.257z" fill="white"/><path d="M139.85 42.033l.248-.142c1.278 1.182 2.164 2.909 2.661 5.18.568 2.459.426 4.682-.426 6.669l-.212.355h-.178l-8.833-.355h-.036l-.035-.036-2.306-.958c-.804-.33-1.36-.84-1.668-1.525l1.526-2.022.106-.106c1.443-1.514 4.234-3.678 8.373-6.493l.78-.567z" fill="#0D131A"/><path d="M139.922 42.742c1.537 2.153 2.306 4.553 2.306 7.202 0 1.159-.189 2.341-.568 3.547a32.41 32.41 0 01-6.031.142c-1.915-.142-3.299-.413-4.15-.816l-1.277-.567c-.426-.26-.568-.485-.426-.674.757-1.16 2.377-2.78 4.86-4.86 2.223-1.892 3.985-3.217 5.286-3.974z" fill="#3D62AC"/><path d="M136.268 44.516c1.395 1.443 1.88 3.287 1.454 5.534-.402 2.2-1.265 3.3-2.589 3.3-1.845 0-3.063-1.597-3.654-4.79l3.086-2.66 1.703-1.384zM44.278 14.326c-4.517 4.778-5.865 7.828-4.044 9.153l.567-.071.497-.568c.591-1.206 1.17-1.963 1.738-2.27l2.91-.142.39.213-.284.355c-.828.544-1.703 1.49-2.625 2.838l-2.342 3.973-.638 1.1c-1.608 2.909-2.176 4.753-1.703 5.534.331.615.851.65 1.56.106a4.007 4.007 0 001.313-1.738c.308-.851.556-1.253.745-1.206.166.024.249.45.249 1.277 0 2.507-.426 4.446-1.277 5.818-.78 1.277-2.259 2.519-4.435 3.725-.899.473-1.537 1.656-1.916 3.548-.094.52-.059.816.107.887.189.118.52-.083.993-.603.875-.923 1.608-1.573 2.2-1.952 1.088-.685 2.447-1.111 4.08-1.277.354 0 .496.071.425.213l-1.064 1.384a20.702 20.702 0 00-3.087 4.895c-.993 2.152-1.56 4.316-1.702 6.492-.45 6.41-2.27 10.69-5.464 12.843-1.49 1.017-4.032 1.655-7.627 1.915-1.537.119-2.673.438-3.406.958-1.182.852-2.424 1.16-3.725.923-.97-.213-1.738-.698-2.306-1.455-.307-.639-.875-1.43-1.703-2.377-1.064-1.253-2.956-2.578-5.676-3.973-1.773-.922-3.193-2.389-4.257-4.4-.946-1.773-1.525-3.76-1.738-5.96-.237-2.506.095-4.836.993-6.988A13.058 13.058 0 016 42.175c3.216-2.554 5.451-4.931 6.704-7.13.946-1.656 1.467-3.537 1.561-5.642.048-.685.13-1.064.249-1.135l.354.32c.97 1.418 1.455 3.334 1.455 5.747.426-1.538 1.159-3.24 2.2-5.109 2.08-3.713 4.659-6.256 7.733-7.627.45-.237.71-.32.78-.249.095.048-.035.284-.39.71-.827.97-1.549 2.282-2.163 3.938-.592 1.584-.745 2.495-.462 2.731l.32.249c.236.047.544-.13.922-.532 1.324-1.325 2.389-3.075 3.193-5.25.97-2.579 1.998-4.506 3.086-5.784 1.23-1.466 2.685-2.27 4.364-2.412l.567.071-.354.461c-.71.663-1.171 1.502-1.384 2.52-.166.874-.13 1.643.107 2.305.118.331.342.461.674.39.354-.047.626-.319.816-.816.993-2.53 2.27-4.576 3.83-6.137 1.514-1.514 4.353-3.63 8.515-6.35.828-.544 1.313-.793 1.455-.745.142.07-.036.556-.532 1.454-.568 1.017-1.798 2.495-3.69 4.435l-1.632 1.738z" fill="#0D131A"/><path d="M49.067 7.799c-.544.993-1.739 2.447-3.583 4.363l-1.668 1.703c-1.348 1.466-2.341 2.66-2.98 3.583-1.206 1.726-1.81 3.193-1.81 4.4 0 .78.25 1.454.746 2.021.307.331.591.485.851.461.284-.023.686-.402 1.207-1.135.473-.733.886-1.242 1.241-1.525.592-.497 1.29-.734 2.093-.71-.78.639-1.596 1.597-2.448 2.874l-2.2 3.654-.602 1.135c-1.514 2.814-2.27 4.836-2.27 6.066 0 .331.059.615.177.852.189.307.46.461.816.461.71 0 1.419-.343 2.128-1.029.52-.52.934-1.147 1.242-1.88a10.29 10.29 0 01-1.064 4.257c-.923 1.868-2.377 3.382-4.364 4.541-.757.426-1.407 1.218-1.951 2.377-.497 1.04-.745 1.975-.745 2.803v.07c.047.497.19.816.426.958l.887-.142 1.348-1.277c.71-.804 1.324-1.383 1.844-1.738.9-.591 1.987-.982 3.264-1.17l-.39.46c-1.537 1.75-2.637 3.193-3.3 4.328-1.11 1.94-1.75 3.986-1.915 6.138-.426 6.22-2.129 10.5-5.109 12.842-1.655 1.3-4.103 2.07-7.343 2.306-1.727.095-2.78.307-3.157.639-.97.804-1.963 1.123-2.98.957-.875-.118-1.561-.508-2.058-1.17l-2.732-3.229c-1.23-1.348-3.18-2.755-5.853-4.221-.994-.544-1.869-1.573-2.625-3.087-.78-1.56-1.266-3.299-1.455-5.215l-.07-1.596c0-2.081.401-3.997 1.205-5.747a11.466 11.466 0 013.406-4.435c3.098-2.46 5.203-4.836 6.315-7.13.733-1.514 1.159-3.418 1.277-5.712.544 1.206.816 2.684.816 4.435 0 1.206-.095 2.294-.284 3.263l-.071 1.1c.024.52.248.201.674-.958.378-1.726 1.04-3.63 1.987-5.711 1.915-4.116 4.351-7.155 7.308-9.118a16.234 16.234 0 00-1.597 3.122c-.402 1.064-.603 1.951-.603 2.66 0 .521.119.888.355 1.1.497.45 1.253.143 2.27-.922l1.703-2.377 1.561-3.015c1.136-2.247 2.034-3.843 2.696-4.79 1.088-1.537 2.224-2.494 3.406-2.873a5.393 5.393 0 00-1.064 3.264c0 .639.083 1.135.248 1.49.237.71.603 1.064 1.1 1.064.544.024 1.052-.461 1.525-1.454 1.207-2.72 2.614-4.884 4.222-6.492 1.064-1.065 3.086-2.602 6.066-4.612l1.88-1.277z" fill="#E50020"/><path d="M31.294 26.6c.709-.567 1.194-.792 1.454-.673.166.047.035.343-.39.887-1.135 1.679-1.774 2.968-1.916 3.866-.047.355.024 1.609.213 3.76.165 2.035-.225 3.939-1.17 5.713-.71 1.277-1.81 2.613-3.3 4.008-1.49 1.443-2.389 2.78-2.696 4.01-.355 1.37-.272 2.27.248 2.695.497.426.84.296 1.029-.39.426-1.466.958-2.649 1.596-3.547.544-.805 1.29-1.538 2.235-2.2.402-.26.639-.39.71-.39.118 0 .106.189-.036.567-1.3 3.477-1.62 5.44-.957 5.89.212.094.555-.072 1.028-.497.544-.473 1.03-1.076 1.455-1.81 1.182-1.915 1.774-3.583 1.774-5.002 0-1.088.2-1.194.603-.319.189.402.307 1.005.355 1.81a9.831 9.831 0 01-.249 2.802c-.544 2.081-2.259 4.683-5.144 7.805-2.105 2.27-3.063 4.139-2.873 5.605.141 1.04.567 1.584 1.277 1.632.59 0 1.241-.308 1.95-.923.852-.757 1.538-1.833 2.059-3.228.141-.402.271-.615.39-.639.118-.047.248.13.39.533.686 1.892.627 3.69-.177 5.392-.9 1.797-2.295 2.79-4.187 2.98-.733.07-1.513.32-2.341.745a8.893 8.893 0 00-2.164 1.454l-2.625 1.845a3.257 3.257 0 01-1.668.745L16.5 71.62c-.544-.142-1.194-.793-1.951-1.951l-.923-1.136-1.135-1.49-.993-2.022c-2.176-5.77-2.093-10.524.248-14.261.757-1.159 1.088-1.277.993-.355-.047.875.083 1.62.39 2.235.332.639.734.91 1.207.816.355-.07.662-.532.922-1.384.26-.898.39-1.963.39-3.192.024-2.957 1.148-5.7 3.37-8.23 1.75-1.987 3.158-3.063 4.222-3.23.402-.023.45.155.142.533-1.49 1.774-2.412 3.287-2.767 4.541-.307 1.04-.2 1.608.32 1.703.733.094 1.537-.426 2.412-1.561.922-1.206 2.01-3.205 3.264-5.996l1.135-2.625c.284-.828.45-1.679.497-2.554.094-1.797 1.111-3.418 3.05-4.86z" fill="#EFE908"/><path d="M47.045 134.128c.804-2.838 3.465-4.044 7.982-3.618 3.831.355 8.562 1.821 14.19 4.399 5.085 2.341 9.626 4.978 13.623 7.911 4.092 2.98 6.22 5.262 6.386 6.847.284 2.909-2.022 8.656-6.918 17.241-4.541 7.994-7.852 12.819-9.933 14.474 4.044 4.802 5.853 8.29 5.427 10.466-.165.875-.733 1.715-1.702 2.519l-3.087 2.199c-2.105 1.443-7.012 2.223-14.722 2.342-7.403.094-11.79-.343-13.162-1.313-2.412-1.726-3.748-2.791-4.009-3.193-1.23-1.75-1.076-4.115.462-7.095 2.317-4.541 3.594-8.195 3.83-10.962.19-2.554-.484-5.109-2.021-7.663-1.088-1.821-1.951-3.831-2.59-6.031-1.111-3.879-1.076-7.296.106-10.252l2.555-6.493 3.583-11.778z" fill="#E73820"/><path d="M76.952 165.631c5.463-7.213 8.254-14.178 8.372-20.895 2.46 2.081 3.76 3.725 3.902 4.931.284 2.909-2.022 8.656-6.918 17.241-4.54 7.994-7.852 12.819-9.933 14.474 3.193 3.785 4.99 6.705 5.393 8.763.33 1.632-.237 3.051-1.703 4.257-2.791-3.169-5.345-5.629-7.663-7.379-1.49-1.135-3.772-2.566-6.847-4.293-2.2-1.253-2.66-2.436-1.383-3.547.449-.379 2.294-1.313 5.534-2.803 3.193-1.49 6.941-5.073 11.246-10.749z" fill="#C82E19"/><path d="M46.442 133.987c.591-1.372 1.029-1.975 1.313-1.81.283.166.248.864-.107 2.093l-2.696 8.515-3.477 9.826c-1.159 2.886-1.159 6.256 0 10.111.615 2.081 1.431 3.962 2.448 5.641 1.656 2.743 2.353 5.499 2.093 8.266-.26 2.767-1.549 6.421-3.866 10.962-1.278 2.459-1.573 4.422-.887 5.889.402.851 1.454 1.821 3.157 2.909l1.064.709c1.23.875 5.452 1.277 12.665 1.206 7.592-.07 12.428-.827 14.51-2.27l.993-.674c1.183-.78 1.987-1.372 2.412-1.774.663-.638 1.041-1.312 1.136-2.022.165-1.017-.142-2.27-.923-3.76-.804-1.538-2.175-3.453-4.115-5.748-1.68.899-2.66 1.171-2.944.816-.213-.26-.213-.484 0-.674l1.632-1.312c2.98-2.413 6.61-6.942 10.89-13.588 5.062-7.852 7.344-13.705 6.848-17.56l1.241-.142.071 1.135c0 4.328-1.857 9.65-5.57 15.964-3.24 5.487-6.941 10.288-11.104 14.404 2.01 2.459 3.453 4.387 4.329 5.782 1.111 1.727 1.667 3.122 1.667 4.186l-.32 1.313c-.141.899-.685 1.667-1.631 2.306l-2.91 1.703-.993.674c-2.223 1.537-7.225 2.365-15.006 2.483-7.52.142-12.05-.343-13.587-1.454l-1.845-.603c-1.821-1.136-2.956-2.176-3.406-3.122-.851-1.727-.544-4.033.923-6.918 2.27-4.423 3.382-8.384 3.334-11.885-.023-2.79-.804-5.451-2.341-7.982-1.23-2.01-2.093-3.843-2.59-5.498-1.04-3.453-.946-6.717.284-9.792l7.308-18.305z" fill="#0D131A"/><path d="M49.316 189.116c1.206-.899 2.08-1.111 2.625-.638.757.591 1.525 1.596 2.306 3.015.97 1.703 1.513 3.323 1.632 4.86.118 1.348-.06 2.779-.532 4.293-.497 1.655-1.23 3.015-2.2 4.08-.213.26-.532.343-.958.248-.875-.166-2.258-1.384-4.15-3.654-1.68-2.034-2.709-3.512-3.087-4.435-.26-.685.13-1.951 1.17-3.796 1.041-1.844 2.106-3.169 3.194-3.973z" fill="#0D131A"/><path d="M51.48 189.932c.732.591 1.418 1.396 2.057 2.413.828 1.348 1.3 2.708 1.419 4.079v.603c0 2.058-.828 3.997-2.484 5.818-.449.095-1.584-.721-3.405-2.447-1.821-1.751-2.898-3.028-3.229-3.832-.165-.378.201-1.277 1.1-2.696.946-1.537 1.951-2.696 3.016-3.477.71-.52 1.218-.674 1.525-.461z" fill="#FFF3C2"/><path d="M51.906 200.717c.283 0 .71-.225 1.277-.674a7.946 7.946 0 001.667-1.774c-.284 1.608-1.076 3.134-2.377 4.576-.45.095-1.584-.721-3.405-2.447-1.822-1.751-2.898-3.028-3.229-3.832-.142-.307.154-1.088.887-2.341.852 2.01 1.904 3.677 3.157 5.002.947.993 1.62 1.49 2.023 1.49z" fill="#DBD2A9"/><path d="M64.464 189.01c.591-.355 1.49-.047 2.696.922a13.215 13.215 0 012.838 3.193c.899 1.443 1.561 3.642 1.987 6.599.402 2.814.39 4.387-.036 4.718-.378.331-1.028.402-1.95.213l-2.058-.603c-1.68-.592-3.453-1.573-5.322-2.945-1.703-1.23-2.672-2.152-2.909-2.767-.284-.662.142-2.199 1.277-4.612 1.183-2.507 2.342-4.08 3.477-4.718z" fill="#0D131A"/><path d="M66.911 191.458c.993.756 1.727 1.513 2.2 2.27.922 1.466 1.549 3.134 1.88 5.002.307 1.774.236 3.063-.213 3.867-.095.189-.331.296-.71.319-1.206.024-2.932-.626-5.18-1.951-2.08-1.182-3.334-2.117-3.76-2.802-.354-.544-.011-1.845 1.03-3.903 1.016-1.986 1.868-3.204 2.553-3.654.426-.236 1.16.047 2.2.852z" fill="#FFF3C2"/><path d="M61.944 194.686c1.774 2.152 3.465 3.808 5.073 4.966 1.727 1.23 3.099 1.703 4.116 1.419-.048.663-.166 1.171-.355 1.526-.095.189-.331.296-.71.319-1.206.024-2.932-.627-5.179-1.951-2.081-1.182-3.335-2.117-3.76-2.803-.332-.496-.06-1.655.816-3.476z" fill="#DBD2A9"/><path d="M76.384 187.413c1.207-.071 2.945 1.266 5.215 4.009 2.318 2.815 3.56 5.168 3.725 7.06.024.26-.153.402-.532.426l-.745-.036c-1.135.118-3.204-.142-6.208-.78-2.98-.615-4.624-1.124-4.931-1.526-.213-.284-.296-.922-.249-1.916.048-.946.201-1.844.462-2.696.307-1.088.685-2.022 1.135-2.802.662-1.112 1.371-1.691 2.128-1.739z" fill="#0D131A"/><path d="M76.632 188.655c.426.071 1.301.851 2.626 2.341 1.442 1.585 2.566 3.111 3.37 4.577.473.899.71 1.537.71 1.916l-.036.212c-.426.261-1.987.083-4.683-.532-2.649-.615-4.21-1.111-4.683-1.49l-.07-.638c0-1.254.26-2.543.78-3.867.52-1.325 1.182-2.164 1.986-2.519z" fill="#FFF3C2"/><path d="M74.22 192.486l.425-1.312c.52-1.325 1.183-2.164 1.987-2.519.426.071 1.3.851 2.625 2.341 1.443 1.585 2.566 3.111 3.37 4.577.474.899.71 1.537.71 1.916l-.035.212c-.52.284-2.26.06-5.215-.674-.166-.473-.603-1.111-1.313-1.915l-2.554-2.626z" fill="#DBD2A9"/><path d="M71.275 157.933c.071-.899 1.455-1.265 4.15-1.1 1.562.071 2.85.58 3.868 1.526 1.206 1.111 1.82 2.696 1.845 4.753.023 1.798.212 4.92.567 9.366l.639 5.747c.142 1.632.023 2.543-.355 2.732-.213.118-.556-.059-1.029-.532l-.958-.994c-1.773-1.655-3.677-4.552-5.711-8.691-2.389-4.896-3.43-8.869-3.122-11.92l.106-.887z" fill="#0D131A"/><path d="M75.355 157.755c1.064.024 2.01.332 2.838.923 1.325.922 1.999 2.4 2.022 4.434.024 2.555.213 5.7.568 9.437l.32 4.576-.178 1.207-.497-.355c-1.537-1.443-3.205-4.009-5.002-7.698-2.034-4.187-3.051-7.722-3.051-10.608l.071-1.064c.024-.189.296-.378.816-.568l2.093-.284z" fill="#FFF3C2"/><path d="M73.262 158.039l2.093-.284c1.064.024 2.01.332 2.838.923 1.325.922 1.999 2.4 2.022 4.434.024 2.555.213 5.7.568 9.437l.32 4.576-.107 1.065a86.046 86.046 0 00-1.313-7.237c-.615-2.72-1.159-4.494-1.632-5.322-.355-.591-1.04-1.218-2.058-1.88-.993-.662-2.128-1.242-3.405-1.738a13.47 13.47 0 01-.213-2.342l.071-1.064c.024-.189.296-.378.816-.568z" fill="#DBD2A9"/><path d="M109.945 100.391a581.275 581.275 0 00-10.182 6.279c-5.416 3.453-8.715 5.865-9.898 7.237-.52 2.176.568 7.817 3.264 16.922 2.862 9.626 4.293 14.699 4.293 15.219 0 3.572-1.171 7.226-3.512 10.962-3.406 5.393-8.16 7.308-14.262 5.747l-4.08-1.277c-1.702-.591-3.05-1.454-4.044-2.589-2.838-3.193-3.855-9.804-3.05-19.831.52-6.363 1.087-11.412 1.702-15.149.804-4.872 1.869-8.762 3.193-11.671 1.23-2.744 3.5-5.168 6.811-7.273 1.49-.946 4.092-2.247 7.805-3.902 1.868-.804 4.174-2.696 6.918-5.676 2.081-2.247 3.725-4.293 4.931-6.138.804-1.23 2.779-2.2 5.925-2.909l7.343-.248c1.679.497 1.999 2.755.958 6.776-1.017 3.926-2.389 6.433-4.115 7.521z" fill="#E73820"/><path d="M92.028 137.605l.248-9.756 3.406 11.353c1.135 3.807 1.715 6.09 1.738 6.846 0 2.838-.875 5.972-2.625 9.402-2.483 4.872-5.96 7.461-10.43 7.769 3.666-3.453 5.984-8.763 6.954-15.929.354-2.531.59-5.759.709-9.685z" fill="#C82E19"/><path d="M104.304 85.562c2.602-.686 5.558-.71 8.869-.071.899.165 1.301.414 1.206.745-.118.331-.757.437-1.915.32-2.507-.261-4.908-.06-7.202.602-2.389.686-4.103 1.703-5.144 3.051-2.341 3.028-4.21 5.262-5.605 6.705-2.176 2.27-4.27 3.843-6.28 4.718l-.85.391c-3.288 1.466-5.748 2.731-7.38 3.796-2.909 1.963-4.931 4.186-6.066 6.669-2.413 5.298-4.02 14.167-4.825 26.607a79.737 79.737 0 00-.213 5.499c0 6.22.946 10.631 2.838 13.232 1.112 1.514 3.098 2.72 5.96 3.619l2.093.709c4.044 1.017 7.486.426 10.324-1.773 2.223-1.727 3.973-4.317 5.25-7.77.946-2.601 1.42-4.789 1.42-6.563 0-.662-.864-3.867-2.59-9.614-3.62-11.825-5.263-19.381-4.932-22.669.19-1.703.485-2.424.887-2.164.213.142.402.45.568.923 1.253-1.419 4.422-3.737 9.507-6.954 4.187-2.672 7.131-4.434 8.834-5.286 1.041-.52 1.644-.697 1.809-.532.166.166-.225.698-1.171 1.597l-8.975 5.889c-5.369 3.382-8.633 5.699-9.791 6.953-.024 1.845.484 5.144 1.525 9.898.97 4.328 2.046 8.419 3.228 12.274l1.987 6.67c.615 2.105.922 3.441.922 4.009 0 1.774-.579 3.985-1.738 6.634-1.49 3.334-3.441 5.948-5.853 7.84-3.099 2.412-6.942 3.027-11.53 1.845l-3.477-.71c-3.287-1.017-5.487-2.495-6.598-4.434-1.892-3.359-2.543-9.52-1.951-18.483.473-7.072 1.028-12.63 1.667-16.674.733-4.683 1.703-8.349 2.909-10.998 1.206-2.648 3.465-5.025 6.776-7.13 1.608-1.041 4.304-2.389 8.088-4.045l.852-.354c2.554-1.277 4.895-3.3 7.024-6.067l3.796-5.427c1.443-1.68 3.358-2.839 5.747-3.477z" fill="#0D131A"/><path d="M94.583 148.354c1.3-2.105 2.33-2.992 3.087-2.66.898.378 1.702 1.241 2.412 2.589.591 1.136 1.04 2.46 1.348 3.974 1.301 6.669 1.384 11.6.248 14.793l-1.064 2.271c-.449.685-.804 1.005-1.064.957-.308-.047-.662-.579-1.065-1.596l-.993-2.59c-1.395-3.358-3.193-6.22-5.392-8.585l-.32-.177c-.59-.497-.46-1.869.39-4.115a25.183 25.183 0 012.413-4.861z" fill="#0D131A"/><path d="M92.668 156.124c0-.804.32-2.046.958-3.725.686-1.821 1.442-3.288 2.27-4.399.639-.828 1.088-1.171 1.348-1.029.592.26 1.147.922 1.668 1.987.52 1.111.946 2.518 1.277 4.221.544 2.767.769 5.605.674 8.514-.095 2.815-.414 4.494-.958 5.038l-.355.248c-.189-.023-.532-.662-1.028-1.915l-1.916-3.974a18.632 18.632 0 00-3.832-4.541c-.07-.071-.106-.212-.106-.425z" fill="#FFF3C2"/><path d="M97.28 150.128l1.206 4.044c.355 1.703.591 3.69.71 5.96.142 2.294.13 4.399-.036 6.315l-.638-1.384-1.916-3.973a18.632 18.632 0 00-3.832-4.541c-.07-.071-.106-.213-.106-.426 0-.804.32-2.045.958-3.724.686-1.822 1.442-3.288 2.27-4.399l.532-.568c.071.402.355 1.301.852 2.696z" fill="#DBD2A9"/><path d="M87.7 155.237c1.798 1.182 2.886 3.098 3.264 5.747l1.348 8.23 1.526 7.84c.284 1.916.177 2.957-.32 3.122-.898.308-3.299-1.963-7.201-6.811-3.737-4.636-5.901-7.758-6.492-9.366-1.821-4.872-2.046-8.112-.674-9.72.283-.355.756-.58 1.419-.674l1.809.035.78.107c1.94.26 3.453.756 4.541 1.49z" fill="#0D131A"/><path d="M91.39 169.392c.803 4.186 1.206 6.704 1.206 7.556l-.107.638c-.851-.331-2.838-2.436-5.96-6.314-3.169-3.95-5.05-6.729-5.64-8.337-.71-2.081-1.065-3.914-1.065-5.499 0-1.111.201-1.916.603-2.412.379-.45.97-.603 1.774-.461l.852.106c1.868.26 3.252.71 4.15 1.348 1.514 1.088 2.46 2.992 2.838 5.712l1.348 7.663z" fill="#FFF3C2"/><path d="M88.978 165.099c-.52-2.081-.567-4.494-.142-7.237.568 1.041.97 2.33 1.206 3.867l1.349 7.663c.804 4.186 1.206 6.705 1.206 7.556l-.107.639-.248-.142-1.81-6.847-1.454-5.499z" fill="#DBD2A9"/><path d="M138.289 43.878c.426.118.769.484 1.029 1.1.237.567.355 1.241.355 2.021 0 .828-.189 1.538-.568 2.129-.354.591-.792.887-1.312.887-.521 0-.97-.296-1.348-.887-.379-.591-.568-1.3-.568-2.129 0-.544.095-1.064.284-1.56l2.128-1.561z" fill="white"/></svg>