<svg width="181" height="209" fill="none" xmlns="http://www.w3.org/2000/svg"><path d="M15.772 136.62c.62 10.616 4.257 19.525 10.909 26.729 5.86 6.342 13.425 10.805 22.696 13.39 8.582 2.413 17.027 2.844 25.333 1.293 8.375-1.551 14.614-4.757 18.715-9.616-.724-1.689-1.499-4.119-2.326-7.29-1.207-4.619-1.706-8.255-1.5-10.909-4.032 4.377-9.03 7.738-14.992 10.082-6.308 2.481-12.667 3.395-19.078 2.74-15.682-1.586-27.504-11.409-35.466-29.469l-.93 1.551c-.896.999-2.016 1.499-3.36 1.499z" fill="#EF8200"/><path d="M93.425 168.571c-9.134 8.203-20.284 11.666-33.45 10.391-12.028-1.172-23.04-5.859-33.036-14.062 10.168 11.822 23.093 17.905 38.775 18.25 6.238.103 12.115-.776 17.63-2.637 5.17-1.792 9.03-4.101 11.58-6.928l-1.499-5.014z" fill="#DDD583"/><path d="M91.874 163.504c-7.1 7.548-17.164 11.236-30.192 11.064-12.305-.173-23.679-3.602-34.122-10.289 8.616 8.617 19.439 13.477 32.467 14.58 13.442 1.137 24.575-2.292 33.398-10.289l-1.55-5.066z" fill="#CF7100"/><path d="M107.591 45.681c.413 2.206 1.585 6.376 3.515 12.511 1.758 5.618 2.672 8.91 2.741 9.875.103 1.344-.242 4.567-1.034 9.668-.621 4.17-1.224 7.737-1.81 10.702-2.964 15.544-6.29 26.28-9.978 32.208-4.377 6.997-7.341 12.426-8.892 16.286-2.861 7.134-3.585 13.631-2.172 19.491l3.981 13.907c1.034 3.378 1.586 6.169 1.655 8.375l-2.999 6.411c-1.792 4.55-2.258 7.565-1.396 9.047 1.206 1.999 2.671 3.637 4.395 4.912 2.102 1.551 4.428 2.447 6.979 2.688 2.999.276 6.17-.207 9.513-1.447 3.619-1.31 5.445-2.878 5.48-4.705l-.155-8.169c.034-3.929.448-6.772 1.241-8.53l3.257-3.412c2.274-2.689 3.653-4.981 4.136-6.876l7.806-1.396 2.43 1.809c1.689 1.413 2.62 2.654 2.792 3.723l-1.706 3.412c-1.069 2.482-1.379 4.136-.931 4.963.621 1.137 3.412 2.602 8.376 4.395 5.376 1.93 9.96 2.895 13.752 2.895 4.136 0 7.996-1.207 11.58-3.619 3.619-2.413 4.24-4.274 1.862-5.584l-6.463-3.619c2.792-1.827 4.739-4.429 5.842-7.806 2.137-6.721-1.085-13.89-9.668-21.507 1.724-2.827 2.999-7.6 3.826-14.321 1-7.721.845-14.907-.465-21.559l3.205 3.412c1.62 1.586 2.844 2.258 3.671 2.016.586-.172 1.051-1.068 1.396-2.688l.31-2.43c3.619 1.206 5.566 1.344 5.842.414.31-1.069.328-2.103.052-3.102-.483-1.724-1.81-3.74-3.981-6.049-1.344-3.033-3.223-6.428-5.635-10.185-4.826-7.445-9.944-12.908-15.355-16.389 2.309-.448 4.153-1.258 5.532-2.43 2.447-2.033 5.48-5.635 9.099-10.805 5.032-7.1 7.496-12.977 7.393-17.63-.035-2.343-1.051-4.963-3.05-7.858-1.793-2.688-3.206-4.101-4.24-4.24l-5.532-14.01c.242-.448.397-.982.466-1.602.172-1.207-.121-2.223-.879-3.05-3.171-3.447-6.273-5.998-9.306-7.652-7.031-3.86-15.234-5.101-24.609-3.723-6.79.965-12.563 5.808-17.32 14.528-4.963 9.134-6.479 18.715-4.549 28.745z" fill="#EF8200"/><path d="M176.455 108.134c-2.24-1.655-4.015-2.551-5.325-2.689-1.034-.103-1.448.207-1.241.931.241.689 1.017 1.292 2.327 1.809l3.102.362 1.137-.413zM172.113 116.147c-2.62-4.136-5.187-7.617-7.703-10.443l.361 4.291c4.067 4.205 6.515 6.256 7.342 6.152zM147.142 74.374c-4.894-.862-8.754-1.965-11.581-3.31l-2.947-.05c-.172.792.345 1.981 1.551 3.567 3.137 4.239 6.515 6.341 10.134 6.307 2.757-.035 4.859-.552 6.307-1.551 1.206-.827 2.223-2.189 3.05-4.084l-6.514-.88zM125.118 171c3.963-6.617 4.894-13.08 2.791-19.387.38 3.895-1.171 7.307-4.653 10.237-3.205 2.653-7.272 4.342-12.201 5.066-4.963.758-9.34.259-13.131-1.499-3.964-1.827-6.446-4.739-7.445-8.737l1.085 4.911 1.965 7.807c.483 1.378.93 3.153 1.344 5.325.448 2.206.655 3.636.62 4.291-.068.93-1.257 4.101-3.567 9.513 2.068-3.654 6.584-5.325 13.546-5.015 7.031.31 11.115 2.516 12.253 6.617 0-6.342.258-10.047.775-11.115 2.413-2.034 4.619-4.705 6.618-8.014zM158.153 167.226c-2.137-1.344-3.326-3.222-3.567-5.635-.241-2.344.483-4.773 2.171-7.289-3.343 4.239-8.065 7.599-14.165 10.081-3.378 1.344-6.411 2.206-9.099 2.585 1.309.517 2.636 1.654 3.98 3.412l1.655 2.43c-.827 1.103-1.465 2.447-1.913 4.033-.414 1.482-.586 2.809-.517 3.98.069 1.034 1.379 2.086 3.929 3.154 1.586.689 4.877 1.81 9.875 3.361l6.617 1.085 3.981-.155c-3.55-.93-4.825-2.55-3.826-4.86.897-2.136 3.568-4.566 8.014-7.289 2.309-1.413 4.119-3.86 5.428-7.342l1.293-4.808c-1.792 2.516-4.084 4.033-6.876 4.55-2.551.482-4.877.052-6.98-1.293z" fill="#CF7100"/><path d="M142.489 82.852c-2.93 3.826-5.67 8.514-8.221 14.063-6.996 15.027-10.012 30.347-9.047 45.961l2.74 8.272c1.379 6.479.913 12.08-1.396 16.802 5.515-.207 11.271-1.654 17.268-4.343 11.96-5.411 19.042-14.355 21.248-26.832 1.758-9.857 1.31-20.99-1.344-33.398-1.516-6.928-3.515-13.528-5.997-19.8-.827-1-1.844-2.017-3.05-3.051-2.413-2-4.55-2.964-6.411-2.895-1.241.034-3.171 1.775-5.79 5.221z" fill="#FFF697"/><path d="M143.574 80.836l4.601-.258c1.241-.345 2.378-1.034 3.412-2.068l-1.292-.517-2.637.051c-1.241.483-2.602 1.413-4.084 2.792zM146.418 149.648c-7.342 1.517-13.683 1.034-19.026-1.447.724.517 1.189 2.929 1.396 7.238.241 5.239-.5 9.444-2.223 12.614 5.446.345 11.443-1.171 17.992-4.549 10.202-5.239 16.974-13.89 20.318-25.953-3.895 6.341-10.047 10.374-18.457 12.097z" fill="#DDD583"/><path d="M171.026 48.938l-2.43 2.12c-1.999 1.55-3.98 2.722-5.945 3.515l-2.533.62c2.55.758 4.739 1.982 6.566 3.67 1.826-3.032 3.274-6.341 4.342-9.925z" fill="#922F00"/><path d="M160.118 55.193l-16.492 1.603c-7.1.448-11.563.569-13.39.362 1.241 2.585 4.86 5.307 10.857 8.168 6.617 3.206 12.253 4.326 16.906 3.36.723-.172 1.861-1.085 3.412-2.74 1.895-1.964 3.653-4.325 5.273-7.082-1.827-1.69-4.015-2.913-6.566-3.67z" fill="#ED8599"/><path d="M166.374 58.967c.241-.379-.741-1.137-2.947-2.275l-3.36-1.55-19.129 1.602-10.702.414c1.275 1.792 3.223 3.532 5.842 5.221 1.275.862 2.447 1.534 3.516 2.017 2.619-2.31 6.841-4.085 12.666-5.325 5.928-1.276 10.633-1.31 14.114-.104z" fill="#CE7486"/><path d="M128.84 25.673c1.689 3.619 2.774 7.341 3.257 11.167.551 4.17.31 8.03-.724 11.58 1.93-.103 2.981-.344 3.154-.723.896-2.344.793-5.963-.31-10.857-1.172-5.24-2.964-8.962-5.377-11.167z" fill="white"/><path d="M124.445 23.915c-3.136.276-4.756 3.895-4.859 10.857-.104 5.721.344 9.771 1.344 12.15.276.654 1.62 1.12 4.032 1.395 2.068.207 4.205.241 6.411.103 1.034-3.55 1.276-7.41.724-11.58-.482-3.826-1.568-7.548-3.257-11.167-1.379-1.31-2.844-1.896-4.395-1.758zM169.217 32.342a67.424 67.424 0 00-2.481-8.272c-1.999-5.411-3.878-7.755-5.636-7.031-1.619.69-1.533 4.618.259 11.787 1.827 7.17 3.447 10.53 4.86 10.082.999-.345 1.792-1.534 2.378-3.568l.62-2.998z" fill="#0D131A"/><path d="M173.146 47.18c-.379.861-1.861 2.05-4.446 3.567 1.344 1.24 2.292 1.775 2.843 1.603.517-.173 1.052-1.896 1.603-5.17zM166.477 59.174l-1.241-.31-1.447.155c-.207.345-.018 1.379.568 3.102l2.12-2.947zM148.485 68.118l-.362-1.654c-.31-1.103-.654-1.69-1.034-1.758-.62-.07-1.326.586-2.119 1.964l3.515 1.448zM147.297 56.382l-6.307.465c1.861 2.24 3.153 3.361 3.877 3.361.758 0 1.568-1.275 2.43-3.826zM162.341 185.631c-.413-.586-1.154-1.189-2.223-1.809l-1.448-.776c-1.137.207-2.05 1.069-2.74 2.585l-.672 2.275c1.103 1.034 3.154 1.792 6.153 2.275l4.653.155c.206-.207.017-.638-.569-1.293l-.879-.982 5.48.776 3.05-.311c.207-.206-.051-.706-.775-1.499l-1.138-1.085 4.085.361c2.792.104 4.256-.155 4.394-.775.173-.586-.982-1.81-3.464-3.671-2.55-1.895-4.222-2.568-5.015-2.016-.861.551-1.533 1.809-2.016 3.774l-1.137-1.137c-.896-.759-1.775-1.103-2.637-1.034-.862.069-1.637.792-2.326 2.171l-.776 2.016z" fill="white"/><path d="M27.767 89.315l-.568 2.171c-.104 1.034.017 1.948.361 2.74.242.62.276 1.31.104 2.068-.173.828-.552 1.586-1.138 2.275l-.413-1.706-3.36 3.361.051 2.843-.982 1.758c-.38.655-.603 1.775-.672 3.36l-2.844 1.758 1.965 3.309c.379.62.586 1.62.62 2.998.035.69.017 1.31-.051 1.862l-4.602-2.792-.103 1.034v1.602c.379 2.068.31 3.395-.207 3.981-1.172 1.379-1.878 2.482-2.12 3.309-.31 1.069-.12 2.309.569 3.723a11.02 11.02 0 011.137 4.653c0 1.413-.224 2.343-.672 2.791l2.327-.155c.896-.413 1.81-1.258 2.74-2.533.827-1.206 2.31-2.085 4.446-2.637l4.033-.724c.861-.172 1.81-.999 2.843-2.481 1.137-1.62 1.586-3.119 1.344-4.498-.172-1.068-.706-2.499-1.602-4.291-.759-1.62-1.138-2.654-1.138-3.102.035-.448.414-1.344 1.138-2.688.723-1.276 1.085-2.172 1.085-2.689 0-.482-.362-1.603-1.085-3.36-.724-1.689-1.052-2.723-.983-3.102l.672-1.965c.38-.965.57-1.723.57-2.275 0-.551-.277-1.31-.828-2.275l-.879-1.809c-.069-.93.086-2.154.465-3.67.552-2.344-.051-4.36-1.81-6.05l-.05 1.241c-.035.93-.156 1.586-.363 1.965z" fill="#EFE908"/><path d="M11.688 91.228c-1.034.793-1.585 1.81-1.654 3.05-.104 2.103.086 4.43.568 6.98l-1.757-1.5c-1.276-.965-2.068-1.344-2.379-1.137-.517.38-.293 3.498.672 9.358l-.93-.724c-.655-.448-1.051-.569-1.19-.362-.206.31-.085 2.981.363 8.013l-4.188-6.876.052 2.068c.034 1.482.017 2.378-.052 2.689l-.103 2.223.465 2.74c.793 2.206 1.068 3.602.827 4.187-.138.38-.103.897.103 1.551.242.759.62 1.362 1.138 1.81l2.326 1.965c1 .93 1.569 1.688 1.706 2.274l.828 1.706 2.068 1.655 4.342 3.464c.414-.483.62-1.413.62-2.792a10.668 10.668 0 00-1.137-4.601c-.689-1.413-.878-2.654-.568-3.723.241-.827.947-1.93 2.12-3.309.516-.585.585-1.912.206-3.98v-1.603l.104-1.034 4.6 2.792a10.78 10.78 0 00.053-1.861c-.035-1.379-.242-2.379-.62-2.999l-1.965-3.309 2.843-1.758c.069-1.585.293-2.705.672-3.36l.982-1.758-.051-2.843 3.309-3.31c-1.38-2.17-2.103-3.6-2.172-4.29l.155-3.05c.07-1.655-.241-2.982-.93-3.981-.655-.965-1.896-2.379-3.723-4.24l-2.843-2.947c-.345-.517-.707-1.585-1.086-3.205-.413-1.827-.569-3.257-.465-4.291l-1.293 2.843c-.861 2.206-1.189 4.102-.982 5.687l1.293 5.739c.516 2.102.551 3.464.103 4.084l-2.43 1.965z" fill="#E50020"/><path d="M169.786 182.116l-.465 1.654 2.171 2.172 4.55.258 3.309-.258c-.448-.552-2.172-1.362-5.17-2.43a104.766 104.766 0 00-4.395-1.396zM172.681 189.044c-3.826-2.758-6.997-4.464-9.513-5.119l-.465 1.706 1.861 2.482 8.117.931zM165.702 190.75a86.098 86.098 0 00-3.671-2.378c-2.654-1.655-4.532-2.637-5.635-2.947l-.621 1.137c-.344.862-.344 1.499 0 1.913.552.724 2.223 1.292 5.015 1.706l4.912.569z" fill="#DBDCDC"/><path d="M26.32 96.966l-.569-.878c-.414.896-1.448 2.05-3.102 3.464-.414.344-.569 1.051-.465 2.119.103 1.069.034 1.706-.207 1.913-.551.483-.896 1.017-1.034 1.603l-.103 1.861c0 .827-.655 1.448-1.965 1.861-1.689.517-1.758 1.672-.207 3.464.62.655 1.069 1.482 1.345 2.482.206.827.258 1.551.155 2.171l-2.947-1.758c-.862-.689-1.345-1.017-1.448-.982-.172.034-.293.603-.362 1.706l.31 3.205c.138 1.207-.086 2.103-.672 2.689-1.137 1.137-1.81 2.24-2.016 3.309-.31 1.344.052 2.912 1.086 4.704.31.586.517 1.344.62 2.275a11.33 11.33 0 01-.155 3.567c-.069.448.103.776.517.983.448.206.672.172.672-.104l.517-3.05c.138-1.172-.155-2.551-.879-4.136-.62-1.379-.896-2.516-.827-3.412.103-1.069.62-2.068 1.551-2.999.862-.861 1.19-1.827.982-2.895-.31-1.585-.362-2.757-.155-3.516l2.223 1.448c1.034.62 1.69.844 1.965.672.207-.172.31-.896.31-2.171.069-2.172-.465-3.912-1.603-5.222-.379-.414-.5-.758-.361-1.034.137-.276.654-.672 1.55-1.189.414-.241.672-.517.776-.827l.103-1.189c0-1 .414-1.948 1.241-2.844.38-.379.517-1.034.414-1.964l.103-2.017 1.293-1.55 1.344-1.758z" fill="#EFE908"/><path d="M123.825 25.31c-.792.139-1.395.88-1.809 2.224-.379 1.379-.448 3.033-.207 4.963.31 2.31.948 4.067 1.913 5.273.793.965 1.551 1.379 2.275 1.241.827-.207 1.447-1.12 1.861-2.74.345-1.517.396-3.12.155-4.808-.345-2.068-.948-3.67-1.809-4.808-.759-1.034-1.551-1.482-2.379-1.344zM161.307 18.021c-.276.034-.448.741-.517 2.12a17.26 17.26 0 00.31 3.826c.448 2.068.983 3.636 1.603 4.704.551.93 1.068 1.344 1.551 1.241.414-.103.672-.638.775-1.603.138-1.206-.068-2.826-.62-4.86-.482-1.757-1.034-3.136-1.654-4.135-.552-.897-1.034-1.327-1.448-1.293z" fill="white"/><path d="M132.407 38.08c-.758-1.31-1.585-2.016-2.481-2.12.31 2.483.241 4.499-.207 6.05-.483 1.55-1.327 2.413-2.533 2.585-.931.138-1.879-.276-2.844-1.241-1.137-1.103-1.947-2.723-2.43-4.86-.999 1.276-1.533 2.947-1.602 5.015l1.137 3.67c1.482.828 3.533 1.293 6.152 1.397l3.516-.155c.827-1.724 1.292-3.964 1.396-6.721l-.104-3.62zM162.703 29.757c-.379.69-.569 1.379-.569 2.068l1.138 3.464c.93 2.275 1.844 3.43 2.74 3.464.93.034 1.706-.793 2.326-2.482l.879-3.412c.104-.483-.017-1.465-.362-2.947l-.517-2.068-.62-.62-1.344-.776c.62 1.93.861 3.636.723 5.119-.137 1.31-.534 2.068-1.189 2.274-.551.207-1.137-.051-1.757-.775-.69-.793-1.172-1.896-1.448-3.309z" fill="#007F78"/><path d="M133.7 1.064c-12.167 1.206-20.456 8.289-24.868 21.248-1.827 5.411-2.671 11.219-2.533 17.423.103 6.032 1.103 11.529 2.998 16.492 1.551 4.067 2.499 6.652 2.844 7.755 1 2.999 1.568 5.463 1.706 7.393.241 3.722.655 5.55 1.241 5.48.551-.069.672-1.947.362-5.635-.31-4.343-1.706-9.495-4.188-15.458-1.827-4.412-2.809-9.496-2.947-15.252-.138-5.893.655-11.477 2.378-16.75 4.136-12.787 11.857-19.75 23.162-20.887 5.032-.483 10.167.241 15.406 2.171 5.274 1.965 9.444 4.688 12.512 8.169.792.896 1.309 1.723 1.551 2.482.275.861.224 1.792-.155 2.791-.069.207.103.397.517.569l.723-.052c.896-2.55.397-4.877-1.499-6.98-3.309-3.721-7.669-6.6-13.08-8.633-5.446-2.068-10.822-2.843-16.13-2.326z" fill="#0D131A"/><path d="M121.964 46.456c-1.482-3.791-1.965-8.238-1.448-13.339.517-5.273 1.844-8.03 3.981-8.271 2.344-.276 4.619 1.792 6.824 6.203 2.379 4.791 3.24 10.134 2.585 16.027-.379.62-2.343.845-5.893.672-3.585-.172-5.601-.603-6.049-1.292zm13.338 1.034c.931-5.48.207-10.943-2.171-16.389-2.447-5.549-5.377-8.151-8.789-7.806-3.619.344-5.429 4.084-5.429 11.218 0 6.066.69 10.323 2.068 12.77.586 1.069 3.068 1.672 7.445 1.81 4.377.137 6.669-.397 6.876-1.603zM161.617 17.71c1.034 0 2.447 1.948 4.24 5.843 1.792 3.93 2.688 7.031 2.688 9.306v.052c0 1.24-.328 2.447-.982 3.619-.586 1.102-1.069 1.602-1.448 1.499-1.413-.38-2.843-3.86-4.291-10.443-1.448-6.583-1.517-9.875-.207-9.875zm5.17 4.86c-2.068-4.48-3.86-6.617-5.377-6.41-2.274.276-2.602 4.153-.982 11.632 1.586 7.445 3.447 11.357 5.584 11.736.758.138 1.568-.62 2.429-2.275.828-1.585 1.259-3.067 1.293-4.446.034-2.55-.948-5.963-2.947-10.236zM166.322 46.3c.31-.792.276-1.326-.104-1.602-.379-.241-.741.052-1.085.88l-.259 1.55c-.034.62.035.982.207 1.086.276.172.689-.465 1.241-1.913zM152.829 49.04c-.862-.378-1.345-.31-1.448.208-.103.482.276.948 1.137 1.396 1.207.586 1.896.792 2.068.62.104-.138-.034-.483-.413-1.034-.414-.551-.862-.948-1.344-1.19z" fill="#0D131A"/><path d="M169.321 31.308c-.173-.138-.31.052-.414.569-.103.517-.069.844.104.982 4.032 3.688 6.255 7.169 6.669 10.443.551 4.102-1.586 9.961-6.411 17.578-4.791 7.583-9.047 11.908-12.77 12.977-1.654.448-4.153.448-7.496 0-3.309-.483-6.721-1.31-10.237-2.482-2.378-.793-3.619-.965-3.722-.517-.138.414.999 1.069 3.412 1.965a49.073 49.073 0 0011.012 2.74c3.343.379 5.825.344 7.445-.103 3.929-1.103 8.444-5.567 13.545-13.39 5.273-8.031 7.617-14.442 7.031-19.233-.275-1.896-1.154-3.878-2.636-5.946-1.448-2.102-3.292-3.963-5.532-5.583zM128.22 21.64c1.137.862 1.947 1.551 2.43 2.068.585.655 1.102 1.465 1.551 2.43.482 1.137.965 1.654 1.447 1.551.483-.138.5-.81.052-2.016-.793-2.034-2.24-3.62-4.343-4.757-1.034-.517-1.672-.672-1.913-.465-.207.241.052.638.776 1.19zM159.602 15.074c.31-.724.344-1.154.103-1.292-.241-.138-.586.103-1.034.723-1.172 1.483-1.654 3.464-1.448 5.946.104 1.172.414 1.723.931 1.654.517-.034.724-.62.62-1.757-.138-1.965.138-3.723.828-5.274z" fill="#0D131A"/><path d="M175.317 43.044c-.241-1.31-.482-1.965-.723-1.965-.276.035-.397.724-.362 2.068 0 1.103-.311 2.017-.931 2.74-1.103 1.241-2.912 2.81-5.428 4.705-2.482 1.861-4.24 2.981-5.274 3.36-1.654.586-6.686 1.207-15.096 1.862l-15.665.723c-.896-.034-1.603-.19-2.12-.465l-1.654-1.448c-.793-.827-1.275-1.12-1.448-.878-.207.206-.017.792.569 1.757.482.793 1.051 1.38 1.706 1.758.689.38 1.568.586 2.637.62l15.355-.723c8.823-.62 14.234-1.293 16.233-2.017 1.138-.379 3.102-1.62 5.894-3.722 2.792-2.102 4.618-3.705 5.48-4.808.31-.413.552-.965.724-1.654.172-.724.207-1.362.103-1.913z" fill="#0D131A"/><path d="M170.148 51.626l-.827.052c-1.345 3.722-3.378 7.34-6.101 10.857-2.516 3.24-4.532 5.066-6.049 5.48-3.102.827-7.445.12-13.028-2.12-5.791-2.344-10.271-5.36-13.442-9.047l-.982-.052c-.483.103-.655.224-.517.362 3.17 4.032 7.892 7.376 14.165 10.03 6.066 2.55 10.806 3.36 14.218 2.43 1.792-.483 4.049-2.482 6.772-5.998 2.861-3.653 5.015-7.462 6.463-11.425.034-.207-.19-.397-.672-.57z" fill="#0D131A"/><path d="M173.612 47.438c0-.207-.241-.31-.724-.31-.448 0-.672.103-.672.31 0 .414-.121 1.207-.362 2.378-.241 1.276-.448 1.93-.62 1.965-.207.035-.535-.12-.983-.465l-.879-.93-.982.981 1.706 1.19 1.448.465c.379-.138.827-.93 1.344-2.378.483-1.379.724-2.447.724-3.206zM141.041 56.693c-.379.24-.517.448-.414.62l2.12 2.223c1.034.793 1.792 1.19 2.275 1.19.413 0 .965-.483 1.654-1.448.724-.965 1.189-1.827 1.396-2.585.034-.207-.172-.362-.62-.466-.483-.103-.741-.051-.776.155l-.827 2.017c-.414.758-.707 1.137-.879 1.137-.276.035-.81-.31-1.603-1.034l-1.602-1.913-.724.104zM166.58 59.277c.173-.31.155-.5-.051-.568l-1.603-.31c-.793-.035-1.293.051-1.499.258-.207.207-.224.793-.052 1.758.138.93.327 1.585.569 1.964.172.242.499.052.982-.568l-.672-1.655-.104-.879c.173-.172.793-.051 1.862.362.206.07.396-.051.568-.362zM147.297 64.189c-.276-.069-.69.155-1.241.672l-1.551 1.706c-.138.172-.052.362.258.569.276.172.483.172.621 0 .827-1.31 1.396-1.93 1.706-1.861.172.034.345.396.517 1.085l.207 1.655c0 .207.189.31.568.31.38 0 .569-.12.569-.362 0-.551-.172-1.275-.517-2.171-.413-1-.793-1.534-1.137-1.603zM155.31 74.839c-.172-.103-.379.12-.62.672l-.155.93c4.17 3 7.617 6.24 10.339 9.72 2.62 3.343 5.946 8.668 9.978 15.975 1.862 2.068 3.102 3.998 3.723 5.791.517 1.413.534 2.292.052 2.636-.655.517-2.361.328-5.119-.568l-.724-.052-.103.982c0 2.447-.362 3.774-1.086 3.981-.517.138-1.43-.431-2.74-1.706a21.584 21.584 0 01-3.515-4.188c-.207.138-.345.38-.414.724l.104.931c.585 1.172 1.637 2.464 3.153 3.877 1.724 1.586 2.982 2.241 3.774 1.965 1.379-.379 2.051-2.068 2.017-5.067 1.378.552 2.688.845 3.929.879 1.172.035 1.947-.155 2.326-.568.552-.586.586-1.707.104-3.361-.621-2.137-2.051-4.498-4.291-7.083-3.826-7.341-7.393-13.028-10.702-17.06-2.758-3.413-6.101-6.55-10.03-9.41z" fill="#0D131A"/><path d="M174.439 104.618c1.103 1.62 1.482 2.62 1.138 2.999-.345.31-1.431.155-3.257-.466-1.034-.448-1.62-.517-1.758-.206-.104.344.344.741 1.344 1.189 2.482 1.137 4.188 1.447 5.118.93 1.069-.62.517-2.343-1.654-5.17-.724-.93-1.224-1.292-1.499-1.085-.311.172-.121.775.568 1.809zM155.103 74.942l-.827.104c-.448.275-.62.5-.517.672 9.272 21.093 12.942 39.671 11.012 55.732-2.516 21.266-15.251 33.329-38.206 36.19-.207.034-.379.31-.517.827-.172.552-.138.81.103.776 24.472-2.758 38.017-15.131 40.636-37.121 1.931-16.406-1.964-35.466-11.684-57.18z" fill="#0D131A"/><path d="M159.498 86.006c-1.31-2.826-2.912-5.05-4.808-6.67-1.861-1.585-3.757-2.377-5.687-2.377-2.585 0-5.497 2.326-8.737 6.98-3.068 4.376-5.946 10.08-8.634 17.112-6.239 16.371-8.513 30.33-6.824 41.877l.878 1.447.776.776c-1.758-12.581.586-27.074 7.031-43.48 2.585-6.617 5.342-12.098 8.272-16.44 2.964-4.378 5.377-6.566 7.238-6.566 1.344 0 2.912.724 4.705 2.171 2.171 1.758 3.946 4.136 5.325 7.135.103.207.224-.017.362-.672.172-.69.206-1.12.103-1.293zM115.037 70.806c.034-.24-.19-1.085-.673-2.533-.516-1.413-.792-2.016-.827-1.81-2.102 15.028-4.101 26.212-5.997 33.554-2.516 9.96-5.945 18.439-10.288 25.436-7.066 11.374-9.702 21.955-7.91 31.743.379 2 1.447 5.791 3.205 11.374 1.448 4.516 2.223 8.238 2.327 11.168.103 2.757.43 4.067.982 3.929.517-.138.707-1.62.569-4.446-.207-3.24-.983-7.152-2.327-11.736-1.585-5.308-2.533-8.962-2.843-10.961-1.379-8.995 1.396-19.318 8.323-30.968 4.309-7.238 7.549-15.337 9.72-24.299.517-2.068 2.43-12.218 5.739-30.45z" fill="#0D131A"/><path d="M119.069 178.342c-.62.31-.965.569-1.034.775-.93 2.379-1.361 5.86-1.292 10.444.034 4.273-.19 6.772-.672 7.496-.828 1.241-2.447 2.223-4.86 2.947-2.413.724-4.946 1-7.6.827-6.79-.413-10.754-3.188-11.89-8.323-.277-1.276.361-3.74 1.912-7.394 1.654-3.929 2.499-6.083 2.533-6.462.035-.207-.12-.62-.465-1.241-.31-.62-.483-.81-.517-.568-.103 1.206-1.086 3.808-2.947 7.806-1.654 3.619-2.36 6.308-2.12 8.065.793 5.653 5.084 8.789 12.874 9.41 3.102.241 6.066-.035 8.892-.828 2.826-.792 4.739-1.895 5.739-3.308.792-1.172 1.051-4.136.775-8.893-.276-4.928.207-8.565 1.448-10.908l-.776.155z" fill="#0D131A"/><path d="M125.221 141.221c-1.275-2.309-2.103-3.343-2.482-3.102-.344.276.069 1.62 1.241 4.033 3.24 6.721 4.343 13.235 3.309 19.542-1.034 6.342-4.205 12.012-9.513 17.01-1.895 1.792-2.688 2.878-2.378 3.257.276.379 1.379-.293 3.309-2.017 5.859-5.169 9.409-10.96 10.65-17.371 1.31-6.824-.069-13.941-4.136-21.352zM162.187 145.564c-.173-.103-.431.121-.776.672-.31.517-.379.845-.207.983 2.516 1.792 4.808 4.498 6.876 8.117 2.206 3.791 3.206 7.082 2.999 9.874-.172 2.172-1.137 4.343-2.895 6.514a17.244 17.244 0 01-6.256 4.963c-2.137 1.034-3.102 1.724-2.895 2.068.172.38 1.43.087 3.774-.878a17.725 17.725 0 007.031-5.274c1.93-2.344 2.982-4.773 3.154-7.289.276-3.55-.879-7.411-3.464-11.581-2.171-3.516-4.619-6.239-7.341-8.169zM139.8 173.43c.138-.172-.017-.413-.466-.724-.413-.31-.689-.379-.827-.206-1.172 1.654-1.999 3.291-2.481 4.911-.483 1.689-.517 3.068-.104 4.136.414 1.172 2.637 2.551 6.67 4.136 4.308 1.723 8.599 2.792 12.873 3.205.241.035.379-.206.413-.723.069-.517-.017-.793-.258-.828a42.407 42.407 0 01-11.943-2.946c-3.412-1.414-5.428-2.706-6.049-3.878-.31-.62-.275-1.585.104-2.895.413-1.413 1.103-2.809 2.068-4.188z" fill="#0D131A"/><path d="M165.961 175.033c-.207-.069-.483.138-.828.62-.344.483-.413.741-.206.776.93.344 2.102.896 3.515 1.654 1.413.793 2.499 1.482 3.257 2.068l.983-.155c.482-.241.637-.431.465-.569-.896-.723-2.034-1.533-3.412-2.429-1.551-.966-2.809-1.62-3.774-1.965zM139.646 175.498c.724 1.655 1.258 2.413 1.602 2.275.345-.138.276-1.068-.206-2.792-.552-1.861-1.551-3.619-2.999-5.273-1.379-1.689-2.671-2.671-3.877-2.947-.207-.034-.586.138-1.138.517-.551.379-.724.586-.517.62.896.207 2.085 1.052 3.567 2.534 1.62 1.654 2.809 3.343 3.568 5.066z" fill="#0D131A"/><path d="M169.579 180.565c-.517.862-.862 1.844-1.034 2.947-.035.207.172.344.62.413.448.035.707-.051.776-.258l.775-2.068c.448-.689.81-1.034 1.086-1.034 1.034-.035 2.43.62 4.187 1.965 1.724 1.275 2.516 2.136 2.379 2.585-.138.344-1.017.499-2.637.465l-4.343-.465c-.207-.035-.362.172-.465.62-.104.448-.052.689.155.724l6.928.362c1.551-.173 2.361-.466 2.43-.879.137-.896-1-2.292-3.413-4.188-2.378-1.896-4.17-2.826-5.376-2.792-.759.035-1.448.569-2.068 1.603z" fill="#0D131A"/><path d="M163.323 185.838a5.556 5.556 0 01.673-2.481c.482-.793.982-1.155 1.499-1.086.93.138 2.309 1.068 4.136 2.792 1.792 1.654 2.619 2.671 2.481 3.05-.103.31-1.137.31-3.102 0l-4.601-.982c-.207-.069-.31.12-.31.568 0 .483.103.741.31.776 1.689.551 3.619.913 5.79 1.086 2.241.172 3.482.017 3.723-.466.345-.724-.569-2.223-2.74-4.498-2.172-2.343-3.998-3.619-5.48-3.825-.931-.138-1.758.31-2.482 1.344-.758 1.034-1.155 2.275-1.189 3.722 0 .207.207.31.62.31.448 0 .672-.103.672-.31z" fill="#0D131A"/><path d="M166.891 191.06c.379-.621-.517-2.172-2.688-4.653-2.206-2.516-3.964-3.826-5.274-3.929-.965-.104-1.964.62-2.998 2.171-1.034 1.482-1.413 2.723-1.138 3.722.242.931 2.275 1.724 6.101 2.379l5.997.31zm-1.758-1.086l-4.239-.465c-2.757-.586-4.222-1.138-4.395-1.655-.206-.585-.034-1.378.517-2.378.552-.999 1.138-1.482 1.758-1.447.862.069 2.189 1.016 3.981 2.843 1.723 1.724 2.516 2.757 2.378 3.102zM20.943 133.415c-.07-.207-.345-.207-.827 0-.483.207-.69.413-.62.62 3.79 8.996 8.96 16.096 15.51 21.3 5.893 4.653 12.51 7.48 19.852 8.479 6.79.931 13.407.207 19.852-2.171 6.377-2.344 11.598-5.928 15.666-10.754.137-.172.086-.655-.156-1.447-.275-.793-.482-1.103-.62-.931-4.412 5.239-9.823 9.03-16.234 11.374-6.307 2.344-12.77 2.981-19.387 1.913-6.893-1.138-13.132-3.981-18.715-8.531-6.1-4.963-10.875-11.58-14.321-19.852z" fill="#0D131A"/><path d="M16.393 136.672c-.035-.207-.31-.276-.828-.207-.516.069-.758.207-.723.414 1.447 11.96 5.687 21.903 12.718 29.83 6.135 6.894 13.907 11.788 23.316 14.683 8.445 2.551 16.906 3.171 25.385 1.861 8.237-1.275 14.545-4.084 18.922-8.427.138-.138.069-.551-.207-1.241-.275-.689-.482-.965-.62-.827-4.102 4.102-10.133 6.842-18.095 8.22-8.237 1.448-16.44 1.034-24.61-1.24-9.167-2.551-16.75-7.135-22.747-13.752-6.893-7.618-11.064-17.389-12.511-29.314z" fill="#0D131A"/><path d="M17.53 145.978l.155 2.585c3.309 8.996 8.6 16.182 15.872 21.559 6.376 4.756 13.786 7.789 22.23 9.099 7.687 1.206 15.08.844 22.18-1.086 6.996-1.861 12.235-4.843 15.716-8.944.138-.172.07-.534-.206-1.086-.276-.517-.483-.689-.62-.517-3.447 4.033-8.652 6.997-15.614 8.893-7.1 1.895-14.476 2.223-22.127.982-8.41-1.344-15.769-4.446-22.076-9.306-7.17-5.549-12.34-12.942-15.51-22.179zM6.932 101.257v-1.602c.104-.207.465-.07 1.086.413 1.689 1.413 2.654 2.017 2.895 1.81.207-.172.207-1.258 0-3.257-.414-4.274.483-6.928 2.688-7.962.931-.414 1.43-1.051 1.5-1.913.069-.655-.138-2.102-.62-4.343-.552-2.654-.828-4.653-.828-5.997 0-1.413.276-3.205.827-5.377.276 1.896.604 3.344.983 4.343.379 1 .896 1.775 1.55 2.327 2.551 2.206 4.309 4.084 5.274 5.635.827 1.344 1.189 2.74 1.086 4.188-.138 1.378-.121 2.43.051 3.153l.931 2.017.879 1.396c.276.517.465 1.171.568 1.964.173 1.172.362 1.775.57 1.81.172.034.585-.448 1.24-1.448.69-1 .776-2.568.259-4.705-.276-1.034-.19-2.154.258-3.36.448-1.172.551-2.12.31-2.844.483.448.845 1.258 1.086 2.43.241 1.275.155 2.378-.259 3.309-.379.827-.448 1.861-.206 3.102l.62 1.861c.448.862.672 1.637.672 2.327l-.413 1.861c-.414 1.31-.5 2.309-.259 2.998 1 2.379 1.5 4.033 1.5 4.964 0 .758-.363 1.688-1.086 2.791-.724 1.069-1.052 2.051-.983 2.947l.88 2.74 1.033 2.017c.31.758.483 1.568.517 2.43.07 1.413-.327 2.791-1.189 4.135-.862 1.448-1.913 2.31-3.154 2.585l-4.86 1.396a9.176 9.176 0 00-3.463 2.482c-1.034 1.103-1.93 1.706-2.689 1.809-.827.138-1.723-.293-2.688-1.292-.93-1-1.947-1.775-3.05-2.327-.827-.379-1.5-1.24-2.017-2.585-.517-1.378-1.034-2.205-1.55-2.481-1.345-.758-2.31-1.465-2.896-2.12-.827-.93-1.172-2.016-1.034-3.257.104-.758-.069-1.93-.517-3.515-.448-1.586-.637-2.758-.568-3.516v-2.895c-.104-1.103-.259-1.982-.466-2.637l1.241 2.43 1.603 2.895c.793 1.551 1.344 2.309 1.654 2.275.31 0 .397-.793.259-2.378l-.414-3.206-.258-3.102c1.034.828 1.706 1.172 2.016 1.034.276-.137.362-.741.258-1.809l-.827-5.946zm5.532-24.97l-.258 3.36c.034.93.465 2.947 1.292 6.049.552 1.964.38 3.154-.517 3.567-1.861.827-2.999 2.154-3.412 3.981-.414 1.585-.31 3.843.31 6.773-2.206-2.206-3.533-2.861-3.98-1.965-.518.93-.294 3.946.671 9.048-1.068-.897-1.74-1.086-2.016-.569-.38.655-.31 2.55.207 5.687l-1.603-2.275-1.034-2.016c-.551-1.413-.93-2.137-1.137-2.172-.276 0-.431.81-.466 2.43l.207 2.895c.07 1.31-.017 2.379-.258 3.206-.31.965-.138 2.292.517 3.981.689 1.723.913 2.964.672 3.722-.448 1.551.086 2.912 1.602 4.084 2.103 1.586 3.327 2.758 3.671 3.516l.93 2.068c.518.862 1.104 1.43 1.759 1.706 1.31.551 2.309 1.206 2.998 1.965 1.655 1.688 2.93 2.481 3.826 2.378.758-.069 1.947-1 3.567-2.792 1.965-2.206 4.636-3.516 8.014-3.929 1.378-.173 2.602-1.034 3.67-2.585 1-1.448 1.551-2.947 1.655-4.498.103-1.069-.345-2.551-1.344-4.446-1-1.861-1.483-3.033-1.448-3.516.034-.62.276-1.189.724-1.706l1.034-1.292c.689-1.31.293-3.843-1.19-7.6-.413-.965-.396-1.896.052-2.792.517-1.069.776-1.93.776-2.585-.035-.586-.328-1.413-.88-2.482l-.723-1.757c-.138-.724-.103-1.569.104-2.534.379-1.689.361-3.153-.052-4.394-.241-.655-.793-1.637-1.655-2.947-.517-.793-.844-1.172-.982-1.137-.172.034-.276.534-.31 1.499l.052 1.447c-.035.862-.242 1.776-.62 2.74-.414 1.103-.38 2.413.103 3.93.31.896.258 1.86-.155 2.895l-1.655-3.206c-.448-.792-.655-1.602-.62-2.43l.206-2.222c0-2.62-.723-4.705-2.17-6.256-.863-.965-2.517-2.447-4.964-4.446-.965-1.172-1.568-3.12-1.81-5.842-.275-2.447-.517-3.688-.723-3.723-.276-.069-.88 1.172-1.81 3.723-.345.93-.62 2.085-.827 3.464zM128.84 25.57l-.983-.156c-.448.034-.603.138-.465.31 2.24 2.447 3.619 6.342 4.136 11.684.483 4.93.104 8.548-1.137 10.857-.104.207.051.38.465.517l.776-.103c1.447-2.792 1.878-6.738 1.292-11.84-.586-5.17-1.947-8.926-4.084-11.27zM159.446 54.831c-.241 0-.603.173-1.086.517-.482.345-.62.517-.413.517 1.413.104 2.929.5 4.549 1.19 1.448.654 2.706 1.413 3.774 2.274.138.138.328.035.569-.31.241-.345.293-.586.155-.724-2.55-2.102-5.066-3.257-7.548-3.464z" fill="#0D131A"/><path d="M116.328 198.143c-.206-.724-.654-1.379-1.344-1.965-.827-.655-1.637-.862-2.43-.62-1.068.344-1.878 1.085-2.429 2.223-.483.999-.621 1.861-.414 2.585.345 1.172 1.223 2.654 2.637 4.446 1.378 1.689 2.292 2.551 2.74 2.585.551.034.982-1.224 1.292-3.774.31-2.516.293-4.343-.052-5.48zM105.833 200.004c.138-1 .052-1.878-.259-2.637-.379-.93-1.051-1.499-2.016-1.706-1.861-.344-3.171.362-3.93 2.12-.447 1.068-.55 2.93-.31 5.583.242 2.62.604 4.033 1.086 4.24.483.207 1.396-.466 2.74-2.017 1.483-1.723 2.379-3.584 2.689-5.583zM95.907 198.918c-.241-2.24-.93-3.894-2.068-4.963-1.069-.999-1.982-1.068-2.74-.207-.69.793-1.327 2.792-1.913 5.998-.62 3.136-.741 4.79-.362 4.963.448.207 1.758-.586 3.93-2.378 2.17-1.793 3.222-2.93 3.153-3.413z" fill="white"/><path d="M124.031 75.511l-11.736 18.25c1.517 5.411 4.86 10.823 10.03 16.234 1.827 1.895 4.601 4.325 8.324 7.289l4.239 3.723c1.758 1.447 2.93 2.068 3.516 1.861.517-.138.965-1.189 1.344-3.154l.414-2.895 2.636 1.655c1.861.999 3.033 1.258 3.516.775.448-.448.534-1.516.258-3.205l-.517-2.379c2.551 0 3.809-.396 3.774-1.189-.034-.551-.689-1.361-1.964-2.43-1.586-1.344-2.671-2.447-3.257-3.308-1.413-6.86-5.274-14.114-11.581-21.766-3.136-3.826-6.135-6.98-8.996-9.46z" fill="#EF8200"/><path d="M138.146 122.765c-1.965-3.654-3.447-6.084-4.446-7.29l-9.823-8.944c-5.273-4.722-8.944-8.858-11.012-12.408.413 3.55 2.671 7.927 6.773 13.132 3.791 4.825 7.186 7.996 10.184 9.513 4.412 3.55 7.187 5.549 8.324 5.997z" fill="#CF7100"/><path d="M110.9 196.643c-1.31 1.965-1.276 4.223.103 6.773 1.172 2.171 2.378 3.447 3.619 3.826l-2.637-5.739c-.792-2.171-1.154-3.791-1.085-4.86zM104.902 196.592l-1.292 5.015c-.552 1.999-1.189 3.808-1.913 5.428.62.138 1.43-.62 2.43-2.275 1.034-1.689 1.62-3.274 1.758-4.756.103-1.275-.035-2.223-.414-2.844l-.569-.568zM95.08 196.282l-2.688 3.567c-1.826 2.516-2.791 4.188-2.895 5.015l3.05-2.223c2.034-1.689 3.05-2.964 3.05-3.826 0-.862-.085-1.534-.258-2.016l-.258-.517z" fill="#DBDCDC"/><path d="M112.865 196.385c1.309-.103 2.171.396 2.585 1.499.413 1.034.5 2.723.258 5.067-.172 2.206-.431 3.378-.775 3.515-.345.138-1.103-.603-2.275-2.223-1.172-1.654-1.861-2.998-2.068-4.032-.138-.827.017-1.637.465-2.43.448-.827 1.052-1.293 1.81-1.396zm-.31-1.293c-1.138.276-2.034.983-2.689 2.12-.586 1-.827 2.051-.724 3.154.138 1.034 1.034 2.619 2.689 4.756 1.654 2.137 2.792 3.171 3.412 3.102.758-.034 1.327-1.568 1.706-4.601.345-2.999.293-5.101-.155-6.307-.276-.724-.844-1.327-1.706-1.81-.896-.482-1.741-.62-2.533-.414zM100.457 197.884a2.455 2.455 0 011.189-1.241 2.39 2.39 0 011.603-.258c.482.103.913.396 1.292.879.448.551.655 1.172.621 1.861-.035 1.654-.707 3.429-2.017 5.325-1.171 1.689-1.947 2.464-2.326 2.327-.345-.104-.62-1.276-.827-3.516-.276-2.413-.12-4.205.465-5.377zm.621-2.585c-.793.414-1.396 1.051-1.81 1.913-.586 1.275-.724 3.43-.414 6.463.31 2.964.793 4.532 1.448 4.704.896.242 2.189-.861 3.877-3.309 1.724-2.481 2.551-4.497 2.482-6.048a5.09 5.09 0 00-.879-2.534c-.586-.861-1.344-1.378-2.275-1.551a3.497 3.497 0 00-2.429.362zM94.925 198.66c-.034.792-.913 1.878-2.637 3.257-1.62 1.344-2.533 1.947-2.74 1.809-.275-.241-.138-1.74.414-4.498.586-2.929 1.292-4.653 2.12-5.17.792-.068 1.482.449 2.068 1.551.585 1 .844 2.017.775 3.051zm1.448.103c.103-1.344-.345-2.74-1.345-4.188-1.034-1.551-2.12-2.223-3.257-2.016-1.24.276-2.257 2.465-3.05 6.566-.793 4.033-.844 6.221-.155 6.566.448.241 1.827-.586 4.136-2.482 2.378-1.964 3.602-3.446 3.67-4.446zM127.341 77.424c-1.793-1.379-2.827-1.965-3.102-1.758-.311.242.344 1.138 1.964 2.689a72.539 72.539 0 0110.547 12.821c3.412 5.239 5.756 10.288 7.031 15.148.241.827.776 1.706 1.603 2.637l2.275 2.068c.827.689 1.102 1.172.827 1.447-.276.276-1.155.414-2.637.414-.207 0-.293.241-.258.724.034.482.155.724.361.724 1.931 0 3.326-.276 4.188-.828 1.172-.792.776-1.999-1.189-3.619l-2.533-2.171c-.586-.586-.948-1.189-1.086-1.809-1.448-5.377-3.757-10.616-6.928-15.717-3.308-5.343-6.996-9.6-11.063-12.77z" fill="#0D131A"/><path d="M114.726 96.966c-.965-2.412-1.603-3.532-1.913-3.36-.344.172-.103 1.534.724 4.084 1.241 3.929 3.326 7.669 6.256 11.219 2.723 3.343 5.756 6.032 9.099 8.065.655.414 2.24 1.758 4.756 4.033 2.447 1.999 4.171 2.843 5.17 2.533.552-.172 1.034-.827 1.448-1.964a9.594 9.594 0 00.569-3.568c1.344.965 2.653 1.586 3.929 1.861l2.223-.103c.448-.379.586-1.241.413-2.585-.172-1.31-.586-2.602-1.24-3.877-.931-1.793-1.586-2.62-1.965-2.482-.379.103-.155 1.12.672 3.05 1 2.344 1.258 3.757.776 4.24l-1.913-.311a15.195 15.195 0 01-2.999-1.499c-.482-.31-.793-.431-.93-.362-.173.035-.276.328-.311.879-.206 3.033-.655 4.653-1.344 4.86-.586.172-1.844-.569-3.774-2.223l-4.86-3.981c-2.723-1.689-5.48-4.239-8.272-7.652-2.895-3.55-5.066-7.169-6.514-10.856z" fill="#0D131A"/></svg>