<svg width="227" height="232" fill="none" xmlns="http://www.w3.org/2000/svg"><path d="M171.395 142.909c1.173-.391 1.998-.224 2.472.502l.88-2.177c2.04 2.93 2.878 9.53 2.515 19.799-.419 11.692-2.584 22.129-6.495 31.31-5.085 11.831-9.638 17.845-13.661 18.04l-1.927.21-8.339-.503c-4.302-.53-6.984-1.13-8.046-1.8l-10.098-15.361c-.056-1.368 1.829-4.744 5.657-10.13 3.38-4.8 7.472-10.06 12.277-15.78 5.029-6 9.68-11.135 13.954-15.404 5.028-5.051 8.632-7.953 10.811-8.706z" fill="#0D131A"/><path d="M136.74 201.593c4.079-5.079 9.568-9.348 16.468-12.808 7.263-3.628 13.2-4.814 17.809-3.558a74.448 74.448 0 01-2.891 8.832c-2.486 6.306-4.875 10.548-7.166 12.725-1.341 1.255-2.947 1.925-4.819 2.009l-.921.083-8.214-.627c-4.19-.642-6.746-1.242-7.668-1.8-.419-.251-1.187-1.647-2.305-4.186l-.293-.67h-.042v-.042l.042.042z" fill="#5DC1CF"/><path d="M172.903 144.081c1.369 1.981 1.983 6.976 1.844 14.985-.168 8.985-1.411 17.705-3.73 26.161-4.609-1.256-10.545-.07-17.809 3.558-6.9 3.46-12.403 7.729-16.51 12.808v-.042c-1.145-2.455-2.123-4.269-2.933-5.441-1.257-1.814-2.556-2.902-3.897-3.265v-.084c0-.977 1.453-3.558 4.358-7.744 3.157-4.604 7.194-9.878 12.11-15.822 5.392-6.502 10.336-12.013 14.834-16.534 4.47-4.492 7.78-7.269 9.931-8.329.978-.53 1.578-.614 1.802-.251z" fill="#50A8B4"/><path d="M171.981 156.345c1.118 1.311 1.676 2.372 1.676 3.181l-.042.335c-1.061 4.576-2.709 8.692-4.944 12.348-1.9 3.097-4.777 6.655-8.632 10.674-2.431 2.539-6.286 5.064-11.566 7.576-5.866 2.79-11.872 4.744-18.018 5.86l1.466 10.967c.587 5.413.88 9.446.88 12.097 0 .753-.223 1.562-.67 2.427-.279.977-.81 1.675-1.592 2.093-2.095 1.144-5.965 2.037-11.608 2.679-5.587.614-8.981.572-10.182-.125-4.861-2.875-10.197-8.651-16.007-17.329-5.922-8.819-9.82-16.939-11.691-24.362-2.822-1.116-5.81-2.651-8.968-4.604-3.073-1.898-5.475-3.67-7.207-5.316-.754 3.209-2.137 6.153-4.148 8.832-.978 1.312-1.9 2.316-2.766 3.014-1.145 1.395-5.224 2.037-12.236 1.925l-10.182-.628c-1.956-.335-3.422-.962-4.4-1.883-1.062-1.033-1.69-2.554-1.886-4.563a35.474 35.474 0 01.293-9.585l.713-5.149.46-3.725c.168-.893.154-2.205-.041-3.935l-.335-2.344c-1.034-7.953-1.243-13.841-.629-17.664.754-4.632 3.157-10.548 7.207-17.747 4.61-8.177 11.412-14.12 20.407-17.832a50.763 50.763 0 0116.72-3.767c4.386-.223 12.92 2.846 25.603 9.209 7.654 3.823 15.951 8.385 24.89 13.687 11.259 6.67 21.301 13.144 30.129 19.422 8.828 6.279 14.596 11.023 17.306 14.232z" fill="#0D131A"/><path d="M58.463 104.818c5.196-2.288 10.406-3.572 15.63-3.851 6.398-.335 24.584 9.348 54.559 29.049 15.001 9.879 29.346 19.813 43.034 29.803-1.229 4.074-2.793 7.73-4.693 10.967-2.29 3.879-5.252 7.534-8.883 10.967-4.079 3.823-9.806 7.018-17.181 9.585-5.307 1.87-8.841 2.804-10.601 2.804-.391 0-.685-.669-.88-2.009l-.419-3.641c-.084-1.144-.433-1.521-1.048-1.131-.587.391-.768 1.298-.545 2.721.699 3.74 1.509 9.237 2.431 16.492 1.089 8.735 1.466 13.716 1.131 14.943 0 .196-.321.475-.964.838-1.983 1.06-5.601 1.939-10.853 2.637l-9.26.376c-.866-.251-2.556-1.632-5.071-4.144-3.072-3.013-6.006-6.474-8.8-10.38-8.129-11.302-12.78-22.841-13.953-34.617-.251-2.567-.587-4.297-1.006-5.19-.447-.837-.754-.53-.922.921-.251 1.897-.07 5.386.545 10.464-5.922-2.26-12.11-6.613-18.563-13.059-9.554-9.516-14.904-20.204-16.05-32.063-.139-1.479-.348-2.512-.628-3.098-.279-.558-.517-.53-.712.084-.503 1.646-.28 5.162.67 10.548.699 3.795 1.844 7.297 3.437 10.506 2.989 5.916 7.78 12.027 14.372 18.334-.279 1.646-.866 3.418-1.76 5.316-.977 2.093-2.15 3.949-3.52 5.567-.53.698-1.732 1.312-3.603 1.842-3.716 1.088-8.94 1.269-15.672.544l-1.76-.335c-1.956-.335-3.422-1.005-4.4-2.009-.894-.921-1.425-2.205-1.592-3.851-.168-2.037-.028-4.451.419-7.241l.964-6.405c.279-2.427.349-4.395.21-5.902-.839-8.65-1.16-14.329-.965-17.036.531-7.311 2.975-14.622 7.334-21.933 4.665-7.897 11.188-13.702 19.568-17.413z" fill="#5DC1CF"/><path d="M68.353 168.191c4.386 2.009 8.325 3.265 11.817 3.767-.252 1.897-.07 5.386.545 10.464-4.498-1.73-9.526-5.009-15.086-9.836-8.017-6.949-13.632-14.776-16.845-23.483 4.274 8.679 10.797 15.041 19.57 19.088zM63.241 173.674c-.28 1.646-.866 3.418-1.76 5.316-.978 2.093-2.15 3.948-3.52 5.567l-1.843 1.214c-1.872.837-4.428 1.339-7.669 1.507 4.163-1.647 6.006-6 5.532-13.06-.42-5.86-2.235-12.39-5.448-19.589 2.961 6.195 7.864 12.543 14.708 19.045zM53.981 106.911c3.66-2.093 7.64-3.67 11.943-4.73 2.85-.67 5.573-1.074 8.171-1.214 6.397-.335 24.583 9.348 54.558 29.049 15.002 9.879 29.347 19.813 43.035 29.803-1.229 4.074-2.793 7.73-4.693 10.967-2.291 3.879-5.252 7.534-8.884 10.967-4.078 3.823-9.805 7.018-17.18 9.585-5.308 1.87-8.842 2.804-10.602 2.804-.391 0-.684-.669-.879-2.009l-.42-3.641c-.083-1.144-.433-1.521-1.047-1.13-.587.39-.768 1.297-.545 2.72.699 3.74 1.509 9.237 2.431 16.492 1.089 8.735 1.466 13.716 1.131 14.943 0 .196-.321.475-.964.838l-1.76.711c.14-7.953-.782-14.636-2.765-20.05-3.241-8.874-9.275-15.068-18.103-18.585-1.843-17.97-5.224-32.202-10.14-42.694-8.884-18.864-23.313-30.473-43.287-34.826z" fill="#50A8B4"/><path d="M39.398 182.632c.53.055 1.257.627 2.178 1.716.978 1.144 1.44 2.162 1.383 3.055-.056.949-.46 1.982-1.215 3.098-.754 1.116-1.383 1.674-1.886 1.674-.502 0-1.326-.725-2.472-2.176-1.145-1.424-1.718-2.4-1.718-2.93-.028-.503.475-1.368 1.509-2.596 1.033-1.255 1.773-1.869 2.22-1.841z" fill="#0D131A"/><path d="M41.367 185.52c.503.781.74 1.367.712 1.758 0 .418-.293 1.13-.88 2.135-.614.976-1.033 1.465-1.257 1.465-.279 0-.88-.475-1.801-1.424-.95-.976-1.397-1.688-1.341-2.134.028-.419.6-1.41 1.718-2.972.307-.447.572-.698.796-.754.195-.028.46.098.796.377l1.257 1.549z" fill="white"/><path d="M46.146 188.324c-.056-.446.391-1.409 1.341-2.888.978-1.535 1.718-2.33 2.221-2.386.53-.028 1.3.614 2.305 1.926 1.005 1.339 1.438 2.302 1.299 2.888l-.755 2.469c-.474 1.089-.991 1.786-1.55 2.093-.559.307-1.508-.195-2.85-1.507-1.256-1.228-1.927-2.093-2.01-2.595z" fill="#0D131A"/><path d="M49.708 184.264c.251-.084.754.377 1.508 1.381.755 1.033 1.174 1.842 1.257 2.428l-.67 1.842c-.475.976-.838 1.507-1.09 1.59-.279.084-.95-.335-2.01-1.255-1.035-.921-1.58-1.563-1.635-1.926-.028-.363.349-1.116 1.131-2.26.755-1.088 1.257-1.688 1.509-1.8z" fill="white"/><path d="M55.154 187.068c0-.641.265-1.534.796-2.678.67-1.396 1.425-2.289 2.263-2.679.894-.447 1.816.446 2.765 2.679.922 2.176 1.216 3.892.88 5.148-.167.698-1.34.586-3.52-.335-2.15-.949-3.212-1.66-3.184-2.135z" fill="#0D131A"/><path d="M58.13 182.673c.39-.139.963.754 1.717 2.679.755 1.87 1.09 2.93 1.006 3.182-.056.167-.782-.014-2.179-.545-1.453-.53-2.235-.962-2.346-1.297-.112-.391.055-1.116.502-2.177.475-1.06.908-1.674 1.3-1.842z" fill="white"/><path d="M109.21 225.703c.111-.809.544-1.66 1.299-2.553.754-.865 1.396-1.326 1.927-1.381.671-.028 1.411.376 2.221 1.214.726.781 1.187 1.548 1.383 2.302.112.446-.182 1.548-.88 3.306-.726 1.786-1.271 2.637-1.634 2.554-.475-.112-1.313-.921-2.515-2.428-1.257-1.535-1.857-2.539-1.801-3.014z" fill="#0D131A"/><path d="M110.466 225.954c.056-.558.265-1.144.629-1.758.391-.697.796-1.102 1.215-1.214.447-.139 1.033.196 1.76 1.005.67.726 1.019 1.298 1.047 1.716l-.628 2.093c-.419 1.005-.74 1.563-.964 1.674-.251.112-.824-.321-1.718-1.297-.922-1.033-1.369-1.772-1.341-2.219z" fill="white"/><path d="M121.697 220.555c.587-.056 1.509.335 2.766 1.172 1.369.893 2.039 1.702 2.011 2.427l-.545 3.475c-.363 1.534-.726 2.344-1.089 2.427-.643.168-1.802-.334-3.478-1.506-1.704-1.172-2.612-2.121-2.724-2.847-.056-.53.321-1.507 1.132-2.93.838-1.451 1.48-2.19 1.927-2.218z" fill="#0D131A"/><path d="M122.157 221.852c.252-.056.811.21 1.677.796.893.586 1.368 1.032 1.424 1.339l-.209 2.47c-.224 1.339-.433 2.065-.629 2.176-.251.14-1.061-.293-2.43-1.297-1.369-1.033-2.053-1.744-2.053-2.135 0-.391.307-1.047.921-1.967.615-.866 1.048-1.326 1.299-1.382z" fill="white"/><path d="M130.16 217.583c1.006-.391 2.235.711 3.688 3.307 1.453 2.595 1.872 4.339 1.257 5.232-.168.251-1.187.125-3.059-.377l-3.646-1.214-1.005-.711c-.14-.251-.14-.712 0-1.382.139-.753.517-1.688 1.131-2.804.643-1.2 1.187-1.884 1.634-2.051z" fill="#0D131A"/><path d="M130.664 218.797c.977.558 1.843 1.646 2.598 3.265.642 1.423.908 2.344.796 2.762-.084.251-.95.098-2.598-.46-1.62-.558-2.528-.949-2.724-1.172-.195-.251-.028-1.102.503-2.554.531-1.479 1.006-2.092 1.425-1.841z" fill="white"/><path d="M136.865 204.984c.056-.251.545-.6 1.467-1.047 1.006-.502 1.746-.642 2.221-.418.558.251 1.117.962 1.676 2.134.587 1.172.754 1.94.503 2.303l-1.97 1.883c-1.117.865-1.927 1.256-2.43 1.172-.503-.111-.908-1.018-1.215-2.721-.308-1.562-.391-2.664-.252-3.306z" fill="#0D131A"/><path d="M140.051 204.272c.279.056.629.502 1.048 1.339.391.838.516 1.382.377 1.633l-1.383 1.549c-.81.781-1.327 1.172-1.551 1.172-.195 0-.377-.67-.544-2.009l-.168-2.345c.028-.223.335-.516.922-.879.615-.362 1.048-.516 1.299-.46z" fill="white"/><path d="M147.468 206.825c.921-.809 1.676-1.255 2.262-1.339.615-.112 1.397.391 2.347 1.507.894 1.06 1.341 1.814 1.341 2.26 0 .391-.545 1.284-1.634 2.679-1.174 1.507-2.082 2.232-2.724 2.177-.67-.056-1.425-.921-2.263-2.596-.81-1.618-1.075-2.651-.796-3.097.223-.363.712-.893 1.467-1.591z" fill="#0D131A"/><path d="M149.856 206.365c.335.112.796.474 1.382 1.088.699.698 1.006 1.228.922 1.591l-1.466 2.428c-.922 1.2-1.495 1.786-1.718 1.758-.28 0-.699-.656-1.257-1.968-.587-1.311-.797-2.176-.629-2.595.168-.446.615-.963 1.341-1.549.726-.613 1.201-.865 1.425-.753z" fill="white"/><path d="M158.277 206.993c1.034-1.228 1.914-1.814 2.64-1.758.922.083 1.467 1.116 1.635 3.097.195 2.009-.224 3.586-1.258 4.73-.642.698-1.55.363-2.723-1.004-1.09-1.284-1.634-2.317-1.634-3.098 0-.223.446-.879 1.34-1.967z" fill="#0D131A"/><path d="M159.41 207.286c.727-.726 1.202-.991 1.425-.795.224.195.447.613.67 1.255l.294 1.591-.377 1.339c-.252.81-.503 1.326-.755 1.549-.251.223-.74-.195-1.466-1.256-.643-.948-1.006-1.632-1.09-2.051.252-.446.685-.99 1.299-1.632z" fill="white"/><path d="M69.443 48.31l9.68 5.483 23.089 25.199-33.188 5.567-13.158-5.023c-8.743-3.404-13.06-5.232-12.948-5.484.112-.195 1.816-1.158 5.113-2.888l8.213-4.52c-2.151.725-5.127 1.953-8.926 3.683l-5.028 2.219c-.308-.028-1.9-1.214-4.777-3.558-2.906-2.372-4.26-3.642-4.065-3.81l4.568-2.469c3.128-1.73 5.35-3.209 6.662-4.437-2.43.67-5.42 1.772-8.967 3.307l-4.735 2.01c-.335-.029-1.676-1.047-4.023-3.056-2.346-2.038-3.436-3.154-3.268-3.35.14-.167 1.34-.767 3.603-1.799l6.076-2.846-7.668 1.423-5.28.837c-.475-.028-1.215-.363-2.22-1.005-.979-.67-1.481-1.13-1.51-1.381-.027-.195.923-.767 2.85-1.716l4.693-2.302-5.573-.042c-2.346-.112-3.408-.377-3.184-.795.223-.391 1.327-1.298 3.31-2.721l3.059-2.093 2.179.46-1.509-.502c-.81-.307-1.103-.516-.88-.628l3.395-1.13c1.983-.614 3.072-.907 3.268-.879l6.244 3.516-2.054-2.386-1.55-2.009c-.196-.447 1.466-.795 4.986-1.047l5.7.21 3.226 5.525-.587-3.14c-.195-1.143-.237-1.771-.126-1.883l2.096.168c1.229.25 1.97.46 2.22.627.196.168 1.006 1.493 2.43 3.977l-1.172-3.014c-.447-1.116-.615-1.758-.503-1.925.111-.196 2.165.544 6.16 2.218 3.939 1.674 5.992 2.651 6.16 2.93l1.592 4.186-.42-1.925-.209-1.256c.084-.112 2.403 1.046 6.956 3.474z" fill="#0D131A"/><path d="M100.158 78.28l-31.009 5.19-23.76-9.543c8.046-4.353 12.795-7.102 14.248-8.246l1.718-1.34-2.137.42c-1.425.362-4.386 1.436-8.884 3.222-4.078 1.646-6.704 2.763-7.877 3.349l-7.124-5.944 5.615-3.14c2.85-1.757 4.917-3.306 6.202-4.646l1.425-1.38c.027-.14-.797.055-2.473.585l-8.297 2.93-6.662 2.595-5.573-4.855 5.657-2.721 5.74-2.888 1.593-.795c.698-.447.055-.503-1.928-.168L20.625 53.71l-1.886-1.214 7.962-4.186L28 47.808c.559-.363.028-.53-1.592-.503l-5.07.126-4.4-.042c1.145-1.172 2.877-2.372 5.196-3.6l7.5 1.968 2.137.837c1.09.307.74-.084-1.047-1.172-1.76-1.088-3.101-1.842-4.023-2.26l-2.137-.88 3.604-1.088 8.464 4.73c.224.056.168-.21-.167-.795-1.202-2.121-2.43-3.949-3.688-5.484l8.506-.293c1.62 3.21 2.99 5.68 4.107 7.41.614.92.978 1.227 1.09.92v-.712c-.671-3.571-1.076-5.915-1.216-7.032l2.64.628 5.74 9.795c.532.614.532-.028 0-1.925l-1.591-4.982-1.132-2.888 9.764 4.06 4.106 10.758.42-1.758-1.342-7.283c1.425.613 3.786 1.855 7.082 3.725 3.157 1.814 5.67 3.335 7.543 4.563l21.664 23.65z" fill="#00A63C"/><path d="M75.393 76.94l-3.645-7.952 16.049 7.283 37.964 14.148-.503.628a226.654 226.654 0 01-9.428 10.883c-6.509 7.06-11.23 11.19-14.163 12.39l-.21.083-.209-.083c-2.962-1.089-9.457-1.591-19.486-1.507H67.558c-.251-.391-.712-1.507-1.383-3.349l-1.969-5.776.754 9.209-.084 1.213c-.083.252-.293.419-.628.503-11.035 1.451-16.636 1.981-16.803 1.59-.112-.251-.154-1.646-.126-4.185l.126-5.819c-.643 1.563-1.062 3.851-1.258 6.865l-.25 4.395c-.169.279-3.074 1.214-8.717 2.805-5.643 1.562-8.52 2.26-8.632 2.092-.084-.167-.14-1.325-.168-3.474l.084-4.269-2.095 5.943c-.698 2.038-1.145 3.112-1.34 3.224l-6.831 1.423-6.495.879 2.263-4.395 3.478-6.572c-.922.614-3.911 3.237-8.968 7.869-4.665 4.27-7.095 6.377-7.29 6.321-.28-.084-.308-1.535-.085-4.353.196-2.763.391-4.284.587-4.563.28-.391 3.268-2.483 8.967-6.279-1.005.307-3.156 1.117-6.453 2.428-2.738 1.088-4.148 1.577-4.232 1.465-.112-.195.824-2.079 2.807-5.651 1.956-3.599 3.115-5.525 3.478-5.776.252-.195 1.607-.698 4.065-1.507l6.746-2.26-5.573.502-3.1.084c-.112-.279.852-1.87 2.89-4.772 2.152-3.097 3.702-4.814 4.652-5.148 1.173-.475 5.964-1.033 14.373-1.675-.698-.279-2.5-.795-5.405-1.549-2.347-.586-3.52-.976-3.52-1.172 0-.25 1.76-1.744 5.28-4.478 3.491-2.707 5.433-4.088 5.824-4.144l3.268.418 5.657 1.089-3.98-1.591c-1.425-.558-2.04-.865-1.844-.92l5.699-3.015c3.631-1.953 5.587-2.972 5.866-3.055.28-.112 1.634.265 4.065 1.13l6.998 2.47-3.814-1.926c-1.424-.698-1.955-1.144-1.592-1.34.447-.25 2.808-.767 7.082-1.548l6.956-1.088c.53.083 3.366 2.037 8.506 5.86z" fill="#0D131A"/><path d="M74.093 71.332l13.241 6.027 36.498 13.562c-3.436 4.158-6.76 7.953-9.973 11.385-5.727 6.084-9.889 9.698-12.487 10.842-3.185-1.089-9.247-1.675-18.186-1.758-5.14-.056-10.225.028-15.253.251L63.7 98.456c-.391-1.2-.699-1.786-.922-1.758-.252 0-.322.655-.21 1.967.615 5.776.964 10.715 1.048 14.818l-15.043 1.423c.419-6.335.419-10.493 0-12.474-.252-1.311-.978.405-2.18 5.149-1.173 4.576-1.773 7.506-1.801 8.79l-15.086 4.269-.041-1.632c0-1.2.097-2.609.293-4.228.223-1.674.335-3.181.335-4.521.028-1.925-.028-2.874-.168-2.846-.083.028-.405.879-.963 2.553l-4.735 12.767-10.309 1.8 5.364-10.548 1.215-1.382c.475-.697-.167-.502-1.927.587-1.956 1.227-3.94 2.692-5.95 4.395l-7.082 6.362-3.143 2.888c.056-1.367.21-3.39.46-6.069l11.566-7.786 1.257-.837c.503-.502-.07-.572-1.718-.209-3.24.697-7.18 1.953-11.816 3.767 1.173-2.288 2.807-4.995 4.902-8.12 7.627-2.763 12.446-4.451 14.457-5.065 1.564-.475 2.36-.796 2.388-.963l-2.64-.167-10.685.711c1.062-1.786 2.095-3.362 3.101-4.73 1.23-1.646 2.123-2.581 2.682-2.804l8.13-1.047 8.422-.711 1.885-.251c.112-.084-.46-.377-1.718-.88-4.218-1.757-7.319-2.888-9.302-3.39l5.112-3.893 4.106-2.846 5.741 1.13 7.627 1.382 2.472.167c.084-.112-.629-.53-2.137-1.256l-8.38-3.641 8.967-4.689 17.892 5.693c1.118.195.461-.377-1.97-1.716l-5.07-2.93-2.095-1.381 10.602-2.01 11.523 7.995-4.064-8.957z" fill="#00A63C"/><path d="M78.16 80.29l-4.065-8.958 13.241 6.027 36.498 13.562c-3.436 4.158-6.76 7.953-9.973 11.385-5.727 6.084-9.889 9.698-12.487 10.842-2.011-.698-5.182-1.186-9.512-1.465.307-5.47-.391-9.907-2.095-13.311-2.123-4.325-5.923-7.325-11.398-9 0-2.371-.74-4.827-2.22-7.367-1.09-1.813-2.836-4.06-5.239-6.739l7.25 5.023z" fill="#009233"/><path d="M222.096 56.389c3.213 1.646 4.847 2.58 4.903 2.804.056.167-1.537.851-4.777 2.051l-7.669 2.805 7.375-.042 3.688.334c.084.14-1.062 1.382-3.436 3.726l-3.981 3.683-5.154-.67-8.297-1.339 7.291 3.014c2.794 1.144 4.204 1.772 4.232 1.883l-5.447 4.521c-3.688 2.846-5.657 4.242-5.908 4.186l-5.909-3.725c-4.106-2.54-7.165-4.158-9.177-4.856 7.375 4.967 10.993 7.632 10.853 7.995-.083.251-2.081 1.228-5.992 2.93-3.827 1.646-5.908 2.484-6.243 2.511l-6.412-4.144c-4.609-2.985-8.045-4.841-10.308-5.567 1.62 1.368 4.079 3.81 7.375 7.325 3.269 3.489 4.833 5.33 4.693 5.526-.167.195-1.005.558-2.514 1.088l-2.682.712-2.933-2.721c-1.983-1.87-3.478-3.028-4.484-3.474l3.562 4.102c1.704 1.925 2.528 2.944 2.472 3.055-.111.224-1.368 1.117-3.771 2.68-2.486 1.618-3.841 2.371-4.065 2.26l-3.394-3.265c-2.346-2.205-4.274-3.628-5.782-4.27l3.855 4.981c2.123 2.54 3.129 3.851 3.017 3.935l-16.091 5.148-29.71-9.962 11.566-28.044.084-.084c1.536-1.535 5.433-4.046 11.691-7.535 6.09-3.376 9.274-4.925 9.554-4.646.195.196-.14 1.535-1.006 4.019l-1.928 5.608 2.975-6.697c.894-2.12 1.453-3.265 1.677-3.432.419-.28 2.737-1.019 6.956-2.218 4.246-1.2 6.383-1.675 6.411-1.424l-1.634 3.516c-1.313 2.512-2.151 4.27-2.515 5.274l3.73-5.692c1.369-2.065 2.165-3.167 2.388-3.307.308-.195 1.858-.488 4.652-.879l4.274-.419-3.269 7.493 4.065-4.646 2.682-2.888 5.07-.293c3.129-.112 4.749-.098 4.861.041.111.14-.084.991-.587 2.554l-1.467 3.809c4.638-3.851 7.669-6.125 9.094-6.823l.083-.042h.126c1.201 0 3.66.474 7.375 1.423 3.576.893 5.364 1.437 5.364 1.633l-2.054 2.595-3.436 3.935 5.154-2.805c2.068-1.116 3.241-1.688 3.52-1.716.364-.028 2.151.795 5.364 2.47z" fill="#0D131A"/><path d="M208.855 56.096c-1.62 2.009-2.723 3.25-3.31 3.725-.782.642-1.173 1.032-1.173 1.172.028.195.642.07 1.844-.377 1.676-.67 5.182-2.511 10.517-5.525l7.711 3.976-6.118 2.428c-3.381 1.312-5.587 2.093-6.621 2.344l-2.891.628c-.475.14-.084.251 1.173.335l13.283.418-5.405 5.107-6.831-.837-10.14-1.381c-2.012-.251-2.668-.168-1.97.25l1.677.712c8.855 3.628 13.367 5.567 13.534 5.819.112.167-1.355 1.367-4.4 3.6l-4.777 3.223c-10.475-5.693-16.468-8.61-17.976-8.749l-1.97-.125c-.083.083.475.446 1.677 1.088l6.872 4.52c3.268 2.289 4.916 3.572 4.944 3.852.028.195-1.424.948-4.358 2.26l-5.615 2.428c-8.548-6.195-14.722-9.544-18.521-10.046-2.458-.307-3.45-.307-2.975 0l2.43 1.088c.755.474 2.528 2.079 5.322 4.814 3.129 3.07 5.503 5.65 7.124 7.743-.922.251-1.942.656-3.059 1.214-.587-.642-1.942-1.716-4.065-3.223-2.151-1.535-3.729-2.553-4.735-3.055-.922-.447-1.369-.6-1.341-.46l.796 1.171 2.808 3.642 3.31 4.018-6.034 3.81-4.316-3.726c-2.403-1.898-4.288-3.168-5.657-3.81-.95-.446-1.439-.585-1.467-.418l.629 1.382c.335.697 1.243 2.064 2.724 4.102l3.729 4.688-14.247 4.562-28.327-9.502 11.063-26.83c1.983-1.926 8.227-5.54 18.73-10.842l-1.676 6.112-1.592 5.441c-.447 1.256-.629 1.995-.545 2.219.112.25.615-.405 1.509-1.968l3.855-7.576 2.766-6.111 10.35-2.972c-1.174 2.12-2.598 5.748-4.274 10.883-.587 1.702-.853 2.609-.797 2.72l1.718-2.302c1.453-2.316 4.149-6.264 8.088-11.845l7.081-1.005c-1.368 1.926-2.709 4.772-4.022 8.54-.419 1.227-.573 1.855-.461 1.883l1.341-1.34 8.338-9.334 8.423-.251-1.341 3.14-1.886 4.017-.754 1.884 1.551-1.214 5.196-4.227c2.682-2.177 4.553-3.544 5.615-4.102 1.48.055 5.07.906 10.769 2.553l-2.85 3.642z" fill="#00A63C"/><path d="M140.721 63.504c3.212 4.968 5.489 9.14 6.83 12.516 8.883.279 15.797 1.981 20.742 5.106 1.62 1.005 3.618 2.554 5.992 4.647l6.328 5.274-1.76.753c-.587-.642-1.942-1.716-4.065-3.223-2.151-1.535-3.729-2.553-4.735-3.055-.922-.447-1.369-.6-1.341-.46l.796 1.171 2.808 3.642 3.31 4.018-6.034 3.81-4.316-3.726c-2.403-1.898-4.288-3.167-5.657-3.81-.95-.446-1.439-.585-1.467-.418l.629 1.382c.335.697 1.243 2.064 2.724 4.102l3.729 4.688-14.247 4.562-28.327-9.502 11.063-26.83c.949-.893 3.282-2.442 6.998-4.647z" fill="#009233"/><path d="M95.675 96.028l-8.38-.168c-4.75-.111-6.943-.32-6.58-.627l8.046-6.154-12.906-4.06-1.76-.711 1.927-.335 19.653 1.046 17.893 10.716-11.817 3.516c-7.822 2.26-11.607 3.195-11.356 2.804l2.64-2.972 2.64-3.055z" fill="#0D131A"/><path d="M90.185 89.289l1.047-.628-1.047-.67c-.587-.279-2.459-.795-5.615-1.549l-4.484-1.172 7.543.252 7.752.544 15.504 9.292c-10.252 3.098-15.616 4.507-16.091 4.228-.224-.14.182-.865 1.215-2.177 1.062-1.367 1.537-2.149 1.425-2.344l-6.914-.502-6.914-.251c-.14-.084.768-.851 2.724-2.302l3.855-2.721z" fill="#00A63C"/><path d="M121.193 3.564c1.564-.614 2.458-.628 2.682-.042.084.28-.042.893-.377 1.842-.587 1.897-.894 3.46-.922 4.688l2.598-2.512c1.061-1.004 1.872-1.604 2.43-1.8l1.635-.083c.335.223.335.697 0 1.423-.727 1.563-1.132 3.656-1.216 6.279-.111 3.85.852 7.004 2.892 9.46l.419.544-.587.335a101.737 101.737 0 01-11.146 5.316l-4.652 1.674-.46.125-9.093-16.617 2.598-5.149c1.899-3.627 3.226-5.985 3.98-7.074.922-1.283 1.663-1.911 2.221-1.883.559.056.768.711.629 1.967-.224 2.623-.266 4.395-.126 5.316l2.766-1.842c1.341-.865 2.584-1.52 3.729-1.967z" fill="#0D131A"/><path d="M126.641 13.233c0 3.851.978 7.116 2.934 9.795-5.196 2.874-10.029 5.009-14.499 6.404l-8.339-15.194c4.107-7.674 6.174-11.148 6.202-10.423l-.042 2.512c0 1.227.084 2.037.252 2.427l.377.838 1.047-.796c.671-.586 2.04-1.423 4.107-2.511 2.123-1.116 3.157-1.507 3.101-1.172l-.461 2.679-.336 3.18c0 1.62.461 1.898 1.383.838.531-.614 1.537-1.535 3.017-2.763 1.481-1.227 2.137-1.688 1.97-1.381-.168.335-.321 1.06-.461 2.177-.168 1.2-.252 2.33-.252 3.39z" fill="#C94772"/><path d="M106.654 13.568c.642-.223 1.103-.126 1.382.293l2.263 3.098c1.397 2.483 2.095 5.078 2.095 7.785 0 2.288-.475 4.507-1.424 6.655-.671 1.535-1.453 4.298-2.347 8.288l-2.556 12.348c-2.095 10.772-3.743 18.334-4.945 22.687-1.983 7.2-3.967 11.316-5.95 12.348l-2.22.042-2.012-.92c-4.889-2.205-8.339-4.382-10.35-6.53-3.325-3.656-5.308-9.028-5.95-16.116-.643-7.171 3.855-17.315 13.492-30.43 3.632-4.968 7.32-9.404 11.063-13.311 3.575-3.712 6.062-5.79 7.459-6.237z" fill="#0D131A"/><path d="M107.532 39.185l-2.598 12.641c-1.983 10.102-3.548 17.343-4.693 21.724-1.983 7.423-3.855 11.58-5.615 12.474a1.247 1.247 0 01-1.173 0l-2.053-.921c-4.694-2.065-7.99-4.144-9.89-6.237-3.184-3.488-5.084-8.636-5.699-15.445l-.042-1.172c0-5.721 3.157-13.409 9.47-23.064 5.169-7.87 10.658-14.636 16.469-20.301 1.508-1.479 2.793-2.595 3.855-3.349l1.592-.92.042.041 2.095 2.847c1.313 2.26 1.97 4.646 1.97 7.157 0 2.065-.461 4.158-1.383 6.279-.698 1.563-1.481 4.311-2.347 8.246z" fill="#0D131A"/><path d="M141.852 34.246c12.431 17.608 11.509 34.03-2.766 49.266-3.771 4.047-8.506 6.92-14.205 8.623a38.526 38.526 0 01-14.373 1.549c-4.358-.363-8.842-1.451-13.451-3.265-3.883-1.507-6.314-2.805-7.291-3.893-7.599-3.181-13.689-7.744-18.27-13.687-3.911-5.08-6.16-10.283-6.747-15.613-.95-8.4 2.71-16.995 10.979-25.785 4.582-4.939 9.694-9.153 15.337-12.64 2.765-1.703 4.902-3.573 6.41-5.61 1.314-1.814 1.97-3.502 1.97-5.065l-.083-2.302c-.112-.53-.364-1.06-.755-1.59-.447-.614-.53-1.019-.251-1.214.307-.196.936-.07 1.886.377a8.217 8.217 0 013.394 2.846l1.76 3.181.67-2.553c.391-1.116.838-1.41 1.341-.88.894.95 1.872 4.577 2.933 10.884l.629-2.805c.139-.39.684.154 1.634 1.633 1.704 2.707 2.849 4.73 3.436 6.07.754-2.233 1.956-4.661 3.604-7.284.67-1.06 1.215-1.619 1.634-1.675.391-.027.559.433.503 1.382-.056 1.423.223 3.153.838 5.19.447-1.2 1.201-2.54 2.263-4.018 1.005-1.395 1.997-2.526 2.975-3.39.978-.866 1.899-1.34 2.765-1.424.866-.111 1.118.223.755 1.005l-1.006 2.428c-.307 1.032-.503 2.274-.587 3.725.95-1.312 1.76-2.274 2.431-2.888.475-.447 1.271-1.047 2.388-1.8 2.542-1.73 3.436-1.688 2.682.125-1.732 3.963-2.416 6.977-2.053 9.042.475 2.483 2.682 6.502 6.621 12.055z" fill="#0D131A"/><path d="M102.295 27.34c-5.615 5.19-9.428 8.775-11.44 10.757-8.296 8.12-12.36 16.882-12.193 26.286.084 4.912 1.09 9.195 3.017 12.85.866 1.563 2.235 3.391 4.106 5.484-12.487-8.176-18.772-17.231-18.856-27.166v-.167c0-7.367 3.422-14.943 10.266-22.729 4.86-5.525 10.085-9.934 15.672-13.227 4.917-2.902 7.682-6.223 8.297-9.962l.084-2.888c0-.698.111-.921.335-.67 1.089 1.228 1.983 2.442 2.682 3.642.279.446.586 1.255.922 2.427.195.698.363.851.502.46l.503-2.594c.224-1.117.447-1.563.671-1.34.642.642 1.382 2.847 2.221 6.614l.125 1.297c0 2.595-2.304 6.237-6.914 10.925z" fill="#E85382"/><path d="M102.84 32.739c-6.593 6.976-10.685 11.595-12.277 13.855-4.694 6.641-7.04 13.31-7.04 20.008 0 4.046 1.508 9.557 4.525 16.534-1.955-1.423-3.91-4.451-5.866-9.084-1.118-2.65-1.62-5.525-1.509-8.622a37.895 37.895 0 013.101-13.604 39.458 39.458 0 017.082-10.967c1.928-2.093 5.531-5.609 10.811-10.548 4.526-4.632 7.277-8.664 8.255-12.097.251 1.088.14 2.442-.335 4.06-.95 3.21-3.199 6.698-6.747 10.465z" fill="#C94772"/><path d="M137.745 82.591c-3.575 3.796-8.129 6.377-13.66 7.744-4.19 1.06-8.8 1.382-13.828.963a58.705 58.705 0 01-13.619-2.763c-3.548-1.2-5.559-2.134-6.034-2.804l.126.042-.796-1.465c-3.045-5.61-4.568-11.176-4.568-16.702 0-6.641 2.193-13.338 6.579-20.091 2.458-3.795 6.37-8.456 11.733-13.98 1.453-1.536 3.227-4.02 5.322-7.451 2.486-4.158 3.478-6.893 2.975-8.205.475.475 1.061 1.326 1.76 2.554.782 1.367 1.48 2.4 2.095 3.097.81.921 1.299 1.242 1.467.963l.125-1.8c.028-.753.405-1.814 1.132-3.181a25.257 25.257 0 012.221-3.684c.251 2.456.74 4.34 1.466 5.651l.713.88.377-1.173c.419-1.088 1.047-2.372 1.885-3.85 1.23-2.094 2.361-3.587 3.395-4.48l1.089-.753c-.335.781-.601 1.87-.796 3.265a22.16 22.16 0 00-.335 3.725c.028 1.033.139 1.521.335 1.465l.67-1.046c.28-.558 1.132-1.451 2.556-2.68 1.425-1.227 2.068-1.604 1.928-1.13-.531 2.122-.796 3.712-.796 4.773 0 1.702.503 3.6 1.508 5.692 1.034 2.093 2.864 4.981 5.49 8.665 2.29 3.209 4.078 6.753 5.363 10.632 1.341 4.074 2.012 8.204 2.012 12.39 0 4.409-.769 8.636-2.305 12.683-1.676 4.408-4.204 8.427-7.585 12.054z" fill="#E85382"/><path d="M85.786 82.717c-4.972-3.293-8.953-6.697-11.942-10.213 1.425.502 3.59 1.06 6.495 1.674a23.178 23.178 0 002.975 5.65l2.472 2.889zM146.714 49.608c.615 2.818.922 5.567.922 8.245 0 4.41-.768 8.637-2.305 12.683-1.676 4.41-4.204 8.428-7.584 12.055-3.576 3.796-8.129 6.377-13.661 7.744-4.19 1.06-8.799 1.382-13.828.963a58.703 58.703 0 01-13.618-2.763c-3.548-1.2-5.56-2.135-6.034-2.804l.125.042-.796-1.465c-1.592-2.958-2.752-5.819-3.478-8.581 12.71 3.516 24.974 2.972 36.791-1.633 12.599-4.939 20.421-13.101 23.466-24.486z" fill="#C94772"/><path d="M179.02 108.292c.643.447.615 3.53-.084 9.251-.754 6.111-1.997 12.487-3.729 19.129.614 3.069.559 7.325-.168 12.766-.754 5.526-1.927 10.172-3.52 13.939-1.508 3.6-3.771 6.823-6.788 9.669-2.486 2.372-6.453 5.33-11.901 8.874-5.559 3.6-13.255 5.539-23.088 5.818-11.035.307-20.854-1.855-29.458-6.488-11.314-6.083-18.13-14.064-20.45-23.942-1.312-1.786-1.787-3.642-1.424-5.567.28-1.396.978-2.721 2.095-3.977-.419-2.093-.07-5.26 1.048-9.502l1.76-5.734-1.048-1.884c-.698-1.451-.978-2.651-.838-3.6-.615-1.534-1.243-4.743-1.886-9.627-.698-5.274-.782-8.497-.251-9.669 1.23-.921 4.735-1.339 10.518-1.256l10.476.754c.782-.67 2.919-1.73 6.411-3.181 4.134-1.731 7.487-2.749 10.057-3.056 6.118-.726 11.663-.433 16.635.879 4.638 1.256 8.926 3.446 12.865 6.572 6.62-2.512 13.884-3.391 21.789-2.637 5.839.558 9.499 1.381 10.979 2.469z" fill="#5DC1CF"/><path d="M106.696 104.064c4.135-1.73 7.487-2.748 10.057-3.055 9.806-1.144 18.186.349 25.142 4.479-3.911 2.455-7.682 5.427-11.314 8.915-2.374 2.261-5.629 5.735-9.763 10.423-8.66-10.883-17.837-14.567-27.53-11.05a8.306 8.306 0 00-1.928-4.898c-1.174-1.423-2.515-2.204-4.023-2.344l7.836.209 5.112.503c.782-.67 2.919-1.73 6.411-3.182z" fill="#50A8B4"/><path d="M82.015 159.61c0-.223 1.061-.223 3.184 0 2.18.223 3.646.6 4.4 1.13l-.503 2.763-.838 2.595c-.363.976-.754 1.493-1.173 1.549-.698.083-1.69-.852-2.975-2.805-1.285-2.037-1.984-3.781-2.095-5.232z" fill="#0D131A"/><path d="M88.677 161.2l-.754 1.968c-.559 1.646-.964 2.483-1.215 2.511-.196 0-.517-.265-.964-.795l-1.592-2.219c-.838-1.395-1.258-2.399-1.258-3.013v-.126l2.389.251c1.313.391 2.444.865 3.394 1.423z" fill="white"/><path d="M179.02 108.292c.642.447.614 3.53-.084 9.251-.754 6.111-1.997 12.487-3.729 19.129.614 3.069.558 7.325-.168 12.766-.754 5.526-1.928 10.172-3.52 13.939-1.592 3.767-4.4 7.632-8.423 11.595-3.966 3.906-7.389 6.222-10.266 6.948 3.324-1.73 6.258-4.395 8.8-7.995 2.71-3.795 4.637-8.148 5.782-13.059 2.738-11.693.685-23.776-6.159-36.249-1.872-3.461-2.808-5.456-2.808-5.986 0-.307.782-1.005 2.347-2.093 4.078-2.874 8.255-5.12 12.529-6.739 3.408-1.312 5.308-1.814 5.699-1.507z" fill="#50A8B4"/><path d="M154.633 170.032l-1.425 1.591c-.531.586-.992.809-1.383.67-.307-.112-.698-.531-1.173-1.256l-2.598-4.311.503-.67 9.26-.754-3.184 4.73z" fill="#0D131A"/><path d="M149.354 166.768c2.989-.782 5.223-1.103 6.704-.963-2.319 3.516-3.618 5.218-3.897 5.106l-1.257-1.716-1.55-2.427z" fill="white"/><path d="M180.277 106.869c.754.558.824 3.963.21 10.213-.755 7.256-2.319 14.078-4.694 20.469 1.509 6.195 1.313 12.697-.586 19.505-1.9 6.837-5.015 12.139-9.345 15.906 2.961-5.553 5.099-10.171 6.411-13.854 1.509-4.27 2.333-8.372 2.473-12.307.056-2.065-.126-4.423-.545-7.074-.363-2.204-.698-3.669-1.006-4.395-.223-.558-.265-.921-.125-1.088.139-.167.391-.098.754.209l1.131 1.172c1.816-6.976 3.031-13.227 3.646-18.752.531-4.632.545-7.353.042-8.162-1.648-1.005-5.21-1.772-10.686-2.302-7.794-.754-14.959.111-21.496 2.595l-.335.083-.252-.167c-3.939-3.125-8.297-5.176-13.074-6.153-4.525-.921-9.805-.949-15.839-.084-3.743.558-7.766 1.884-12.068 3.977-2.933 1.423-5.49 2.93-7.668 4.52-1.286.921-2.04 1.298-2.263 1.131-.224-.112-.014-.531.628-1.256l2.18-2.093 1.34-1.172-9.89-.754c-5.251-.111-8.477.224-9.679 1.005-.503.474-.6 2.191-.293 5.149.363 3.46 1.215 7.45 2.556 11.971l.419-.377c-1.313-7.785-1.913-12.599-1.802-14.441.028-.474.252-.767.67-.879.81-.028 2.138 1.549 3.982 4.73 1.787 3.098 2.793 5.456 3.017 7.074l.46-.251 1.677-.251c.81 0 1.2.181 1.173.544-.056.363-.489.642-1.3.837-.865.223-2.178.837-3.938 1.842-2.011 1.144-3.436 2.204-4.274 3.181-.531.642-.573 1.995-.126 4.06l.838 2.888c-.978 2.093-1.592 5.065-1.844 8.916-.14 1.898-.181 3.6-.125 5.107-1.62 2.009-2.11 4.158-1.467 6.446.643 2.288 2.081 3.6 4.316 3.934 1.76.252 4.512 1.117 8.255 2.596 4.75 1.841 8.52 3.823 11.314 5.943l.126.084.042.084c.922 1.646 2.36 3.209 4.316 4.688 2.039 1.535 3.701 2.232 4.986 2.093 1.509-.14 4.763-1.34 9.764-3.6h.042c7.738-2.037 17.208-3.711 28.41-5.023l6.621-.837c.95-.084 1.886-.433 2.807-1.046l1.802-1.424c.503-.39.852-.488 1.048-.293.223.196.153.572-.21 1.131l-1.341 1.548c-.698.558-1.76 1.033-3.184 1.423l-2.095.293-3.856.419c-12.85 1.507-22.46 3.098-28.829 4.772-5.559 2.846-9.149 4.353-10.769 4.52-1.537.168-3.464-.725-5.783-2.678-2.067-1.703-3.618-3.461-4.651-5.275-2.682-1.981-6.216-3.767-10.602-5.357-3.212-1.172-5.754-1.898-7.626-2.177-1.285-.223-2.305-.572-3.06-1.046 2.683 8.706 9.192 15.836 19.528 21.389 7.794 4.186 16.077 6.237 24.849 6.153 8.213-.084 17.375-2.051 27.488-5.902 1.62-.614 2.584-.837 2.892-.67.307.168-.545.726-2.557 1.675-9.386 4.409-18.605 6.641-27.656 6.697-9.051.056-17.557-2.051-25.519-6.321-11.314-6.083-18.158-14.12-20.533-24.11-1.676-.893-2.514-2.497-2.514-4.813-.028-2.233.727-4.2 2.263-5.902-.084-5.191.614-9.628 2.095-13.311-.754-1.2-1.187-2.581-1.299-4.144-.14-1.535.084-2.721.67-3.558-1.787-4.827-2.835-9.418-3.142-13.771-.252-3.767.042-5.93.88-6.488 1.648-1.033 5.363-1.339 11.146-.921l10.56 1.256c1.257-.865 3.548-1.967 6.872-3.307 3.967-1.618 7.193-2.581 9.68-2.888 6.062-.726 11.481-.53 16.258.586 4.889 1.144 9.372 3.307 13.451 6.488 6.649-2.456 14.024-3.419 22.125-2.888 6.258.418 10.169 1.172 11.733 2.26z" fill="#0D131A"/><path d="M81.3 110.72v-.209c.671.669 1.677 2.358 3.018 5.064 1.425 2.847 2.29 5.051 2.598 6.614-1.201.363-2.472 1.102-3.813 2.218l-1.09-6.739c-.475-3.404-.712-5.72-.712-6.948z" fill="#431E37"/><path d="M85.994 131.314c.755.279 1.313.558 1.676.837 2.151 1.674 4.694 5.288 7.627 10.841 2.598 5.023 4.428 9.348 5.489 12.976l.545 2.177c.028.53-.098.781-.377.753l-.671-.46-.209-.419c-1.984.502-5.015-.307-9.093-2.428-3.297-1.674-6.034-3.446-8.213-5.316-.503-.167-.81-.46-.922-.879-.056-.251.014-.474.21-.669l.335-.21c-.56-3.181-.461-6.404.293-9.669.726-2.986 1.662-4.897 2.807-5.734l-1.09-1.13c-.195-.391-.195-.67 0-.838l1.593.168z" fill="#0D131A"/><path d="M83.313 145.671c0-2.735.433-5.427 1.299-8.078.754-2.289 1.424-3.586 2.01-3.893 1.342.418 3.479 3.39 6.412 8.916 2.877 5.385 4.93 10.171 6.16 14.357-1.788.139-4.428-.698-7.92-2.512-2.961-1.562-5.503-3.209-7.626-4.939-.224-1.395-.335-2.679-.335-3.851z" fill="white"/><path d="M90.562 137.551l.754-.042c1.732 2.735 3.492 6.055 5.28 9.962 1.788 3.935 3.045 7.227 3.771 9.878l.126.419-3.855-.419c-2.906-.502-5.169-1.339-6.789-2.511l-.126-.042-.083-.167c-1.285-3.516-1.942-6.446-1.97-8.79-.056-3.126.908-5.888 2.892-8.288z" fill="#0D131A"/><path d="M89.096 146.76c0-2.931.628-5.623 1.885-8.079 1.62 2.623 3.24 5.707 4.861 9.251 1.62 3.571 2.794 6.627 3.52 9.166-1.983.224-4.959-.753-8.925-2.93a21.06 21.06 0 01-1.341-7.408z" fill="#91308C"/><path d="M159.787 131.984c.81-.112 1.201.055 1.173.502-.028.419-.252.739-.671.963l-1.676.711c1.732 1.284 2.752 4.2 3.059 8.749.252 4.13-.084 7.297-1.005 9.501 1.173.056 1.704.279 1.592.67l-.712.628-2.221.544-25.478 5.316-.963.377c-.587.055-.783-.363-.587-1.256a28.816 28.816 0 014.023-9.837c1.871-2.985 4.539-6.069 8.003-9.25 4.693-4.27 9.848-6.809 15.463-7.618z" fill="#0D131A"/><path d="M144.952 141.988c2.291-2.093 4.595-3.851 6.914-5.274 2.123-1.284 3.911-2.079 5.364-2.386.838 1.004 1.494 2.86 1.969 5.567.447 2.428.671 4.981.671 7.66 0 2.4-.182 4.144-.545 5.232-2.961.419-10.308 2.009-22.041 4.772l-3.017.711c.279-2.26 1.354-4.813 3.226-7.66 1.872-2.874 4.358-5.748 7.459-8.622z" fill="white"/><path d="M150.318 136.421l.503-.335.168.586c2.625 5.692 3.128 11.762 1.508 18.208l-.084.293-.251.042-14.624 3.348-4.4 1.005v-.544c.139-3.544 2.165-7.688 6.076-12.432 3.324-4.018 7.025-7.409 11.104-10.171z" fill="#0D131A"/><path d="M150.315 137.509c1.257 4.744 1.886 8.762 1.886 12.055 0 1.758-.182 3.376-.545 4.855l-14.331 3.307-3.226.754c.307-3.321 2.262-7.144 5.866-11.469 3.073-3.684 6.523-6.851 10.35-9.502z" fill="#91308C"/><path d="M177.22 110.846l-.629.627-.335.21c.727 1.06.601 4.311-.377 9.753-.838 4.604-1.564 7.715-2.179 9.334l-.67 1.465-.461-.712c-.28-.697-1.495-2.218-3.646-4.562-2.458-2.623-4.679-4.605-6.663-5.944l-.921.628c-.364.251-.601.251-.713 0-.112-.279.084-.712.587-1.298.754-.893 2.821-2.623 6.202-5.19 3.743-2.874 6.229-4.437 7.458-4.688l2.389-.251c.195.083.181.293-.042.628z" fill="#0D131A"/><path d="M174.369 121.603c-.503 3.432-1.034 6.279-1.592 8.539-.922-1.535-2.137-3.167-3.646-4.897-1.816-2.121-3.618-3.81-5.405-5.065a54.372 54.372 0 015.531-4.772c2.374-1.814 4.316-2.944 5.824-3.391l.126 1.173c0 1.869-.279 4.674-.838 8.413z" fill="#431E37"/><path d="M100.201 136.337c-.447-.949-.559-1.535-.335-1.758.223-.223.628.181 1.215 1.214a30.13 30.13 0 012.221 4.562c.838 2.205 1.313 4.214 1.424 6.028.112 1.814.042 2.441-.209 1.883l-.88-2.846-1.509-4.479-1.927-4.604zM137.788 133.281c.586-.418.95-.53 1.089-.335.14.224-.014.531-.461.921-1.201 1.089-2.332 2.819-3.394 5.191-1.145 2.567-2.039 5.525-2.682 8.873-.195 1.117-.419 1.758-.67 1.926-.252.195-.349-.377-.293-1.716.335-7.2 2.472-12.153 6.411-14.86zM104.809 165.219l.921.042c.503.334.908.767 1.216 1.297l.67 1.591c.168.502.168.753 0 .753l-.754-.502-1.718-2.051c-.335-.447-.447-.823-.335-1.13zM115.118 169.404c.251-.865 1.243-1.688 2.975-2.469.503-.251.838-.209 1.005.125.196.335.07.656-.377.963l-2.849 1.842-1.006.419.252-.88zM93.705 143.118l1.509 3.014 1.424 3.097c-.111 1.284-.335 2.344-.67 3.181-.363.865-.768 1.298-1.215 1.298-.531 0-.992-.558-1.383-1.674-.363-1.145-.545-2.512-.545-4.102 0-2.093.293-3.698.88-4.814zM142.521 151.406c-.223 1.451-.642 2.665-1.257 3.641-.586.949-1.187 1.368-1.801 1.256-.587-.084-1.02-.67-1.299-1.758-.252-1.116-.266-2.4-.042-3.851.223-1.451.642-2.651 1.257-3.6.586-.976 1.187-1.409 1.802-1.297.614.111 1.047.711 1.299 1.8.251 1.088.265 2.358.041 3.809zM141.392 79.452c4.106-1.981 10.015-4.381 17.725-7.2 7.934-2.93 13.87-4.827 17.809-5.692l1.131.084c.056.223-.265.418-.964.586-3.547.893-9.595 3-18.144 6.32-8.101 3.154-14.401 5.79-18.898 7.911l1.341-2.009zM194.191 65.22c-6.314 1.48-15.351 4.312-27.112 8.498-13.353 4.743-23.647 9-30.883 12.766l.461-1.465c7.012-3.683 16.887-7.771 29.626-12.264 12.124-4.242 21.371-6.976 27.74-8.204.698-.112 1.076-.07 1.131.125.056.224-.265.405-.963.544z" fill="#0D131A"/><path d="M165.276 70.495c.419-2.763 1.104-5.344 2.054-7.744.139-.419.293-.6.461-.544.195.056.223.293.083.711-.642 1.982-1.201 4.437-1.676 7.367l-.922.21zM153.503 74.973c.587-3.013 1.201-5.595 1.844-7.743.139-.419.293-.586.461-.503.167.084.195.335.083.754-.502 1.87-.935 4.186-1.299 6.948l-1.089.544zM168.167 69.323c.196-1.48.461-2.791.796-3.935.084-.335.224-.475.419-.419.168.056.224.252.168.586l-.587 3.558-.796.21zM175.668 70.369l3.017 2.637c.251.223.307.405.167.544l-.586-.125-3.646-2.847 1.048-.209zM153.796 78.155l.88-.46c.978.641 2.221 1.632 3.729 2.971l3.394 3.432c.252.307.308.53.168.67-.168.14-.377.056-.628-.251l-3.73-3.349-3.813-3.013zM160.29 75.601l.964-.418a35.208 35.208 0 015.992 5.692c.279.307.335.517.168.628-.168.112-.391.014-.671-.293a51.007 51.007 0 00-6.453-5.609zM81.847 81.294l1.76 1.088c-5.084 1.088-11.44 2.61-19.066 4.563-9.023 2.344-15.141 4.144-18.354 5.4l-1.131.041c-.084-.195.21-.432.88-.711 3.548-1.451 9.47-3.363 17.767-5.735 7.43-2.093 13.479-3.641 18.144-4.646zM31.06 100.548l-1.09.084c-.084-.195.195-.432.838-.711 5.475-2.428 13.087-5.065 22.837-7.912 9.666-2.846 18.312-4.98 25.938-6.404l2.347.796c-7.459 1.45-16.538 3.67-27.237 6.655-10.504 2.93-18.382 5.428-23.634 7.492z" fill="#0D131A"/><path d="M54.693 82.508c-.363-.251-.489-.447-.377-.586l.712.125c2.067 1.368 4.107 3.084 6.118 5.149l-.88.377c-1.983-2.065-3.841-3.754-5.573-5.065zM64.247 86.108l-.796.292-2.514-2.553c-.335-.307-.447-.53-.335-.67.111-.139.349-.07.712.21l2.933 2.72zM38.182 97.493l.797-.293a28.868 28.868 0 00-.42 3.809c-.027.418-.14.642-.335.67-.167 0-.265-.21-.293-.628-.028-.921.056-2.107.251-3.558zM56.956 91.716a86.544 86.544 0 00-.126 4.94c.028 2.232.112 3.823.252 4.771.056.391-.014.6-.21.628-.195.056-.335-.111-.419-.502-.223-1.2-.39-2.804-.503-4.814-.083-2.065-.055-3.67.084-4.813l.922-.21zM53.185 92.763c-.391 2.93-.53 5.748-.419 8.455.028.419-.056.656-.251.712-.168.028-.28-.154-.336-.544-.307-2.623-.293-5.386.042-8.288l.964-.335z" fill="#0D131A"/><path d="M115.998 112.729c1.676-1.618 6.662-1.493 14.959.377 8.353 1.869 12.613 3.948 12.781 6.237.139 2.037-2.598 5.636-8.213 10.799-5.643 5.19-9.582 7.632-11.817 7.325-2.151-.307-4.344-4.158-6.579-11.553-2.207-7.367-2.584-11.762-1.131-13.185z" fill="#008982"/><path d="M115.58 119.175c-.531-3.488-.391-5.637.419-6.446.81-.781 2.807-1.088 5.992-.921 2.961.14 6.216.642 9.764 1.507-2.571 2.372-6.216 6.209-10.937 11.511-1.956-2.372-3.702-4.256-5.238-5.651z" fill="#00736D"/><path d="M115.118 136.462c.642 1.145.558 3.377-.252 6.698-.782 3.209-1.55 4.841-2.305 4.897-.558.056-1.55-1.214-2.975-3.809-1.452-2.679-2.039-4.493-1.76-5.442.28-.948 1.509-1.688 3.688-2.218l3.604-.126zM66.677 150.82l-3.77-.126c-.476-.279-1.202-1.172-2.18-2.679-1.033-1.646-1.508-2.776-1.425-3.39.084-.754.601-2.121 1.55-4.102.979-2.121 1.83-3.572 2.557-4.354.782-.809 2.444-1.381 4.986-1.716 2.487-.335 3.842-.223 4.065.335.391.949.391 3.446 0 7.493-.363 4.185-.88 6.599-1.55 7.241-.643.642-2.054 1.074-4.233 1.298zM59.68 130.351c-.084.586-.726 1.256-1.927 2.009-1.146.698-1.942 1.019-2.389.963-.475-.084-1.145-.921-2.011-2.511-.894-1.675-1.117-2.707-.67-3.098.53-.474 1.843-.335 3.938.419 2.151.781 3.171 1.521 3.06 2.218zM32.485 165.386l.042-4.186-.67-6.069c-.252-2.484-.392-4.66-.42-6.53 2.263-.642 3.73-.921 4.4-.837.447.056 1.467 1.493 3.06 4.311 1.592 2.847 2.388 4.716 2.388 5.609 0 .921-.6 2.512-1.802 4.772-1.201 2.233-2.081 3.46-2.64 3.684-.67.307-2.123.055-4.358-.754zM108.497 190.543c.559-.112 2.542 1.228 5.95 4.018 3.409 2.763 5.21 4.507 5.406 5.232.195.726-.098 2.163-.88 4.312-.754 2.148-1.355 3.334-1.802 3.558-.419.167-1.467.167-3.143 0l-3.059-.586c-.419-.224-1.145-1.061-2.179-2.512-1.033-1.479-1.648-2.553-1.843-3.223-.224-.725-.126-2.665.293-5.818.391-3.237.81-4.898 1.257-4.981zM106.234 209.839c.474-.167 1.578.14 3.31.921 1.76.781 2.696 1.451 2.807 2.009.112.558-.335 1.465-1.34 2.721-.95 1.228-1.649 1.897-2.096 2.009l-1.969-.251c-.894-.279-1.425-.628-1.592-1.047-.252-.669-.252-1.869 0-3.599.251-1.73.544-2.651.88-2.763zM160.708 196.445c-.251.502-1.48.893-3.687 1.172-2.207.279-3.381.153-3.52-.377-.14-.558.349-1.674 1.466-3.349 1.118-1.674 1.942-2.497 2.473-2.469.531.056 1.271.795 2.221 2.218.922 1.451 1.271 2.386 1.047 2.805zM168.124 194.059l-.126.334-3.352-.125c-.503-.502-.824-1.926-.964-4.27-.139-2.176-.084-3.697.168-4.562l.084-.335c2.737-.446 5.098-.405 7.081.126a74.448 74.448 0 01-2.891 8.832z" fill="#008982"/><path d="M172.441 179.367l-1.425 5.86c-1.983-.53-4.344-.572-7.081-.126.335-.949.866-2.037 1.592-3.265.81-1.367 1.425-2.134 1.844-2.302l2.179-.251 2.891.084z" fill="#00736D"/><path d="M130.664 114.027c-8.269-1.786-12.935-1.968-13.996-.545-1.006 1.396-.545 5.442 1.383 12.139 1.927 6.781 3.813 10.437 5.657 10.967 1.899.586 5.559-1.814 10.978-7.2 5.14-5.078 7.822-8.357 8.046-9.836.279-1.898-3.744-3.739-12.068-5.525zm13.995 5.692c-.251 2.009-3.17 5.721-8.758 11.134-5.894 5.721-10.084 8.205-12.571 7.451-2.709-.781-5.112-4.981-7.207-12.599-2.039-7.423-2.36-11.999-.964-13.729.755-.921 2.766-1.34 6.034-1.256 3.045.084 6.44.558 10.183 1.423 9.247 2.177 13.674 4.702 13.283 7.576zM108.456 138.848c-.14.67.391 2.233 1.592 4.688 1.201 2.456 2.011 3.628 2.43 3.516.531-.139 1.104-1.73 1.719-4.771.614-3.042.684-4.8.209-5.274-.391-.391-1.467-.307-3.227.251-1.732.586-2.639 1.116-2.723 1.59zm7.04-3.097c.949.865 1.047 3.153.293 6.865-.754 3.683-1.732 5.734-2.933 6.153-1.062.39-2.431-.977-4.107-4.102-1.62-3.014-2.319-5.065-2.095-6.154.195-.92 1.522-1.785 3.981-2.595l4.861-.167zM57.626 131.816c1.062-.642 1.522-1.116 1.383-1.423-.196-.502-1.104-1.06-2.724-1.674-1.62-.586-2.64-.768-3.059-.544-.335.167-.154.92.545 2.26.698 1.311 1.257 2.037 1.676 2.176.419.112 1.145-.153 2.179-.795zm-2.472 2.177c-.727-.223-1.55-1.256-2.473-3.098-.922-1.925-1.103-3.181-.544-3.767.586-.642 2.08-.516 4.483.377 2.403.893 3.646 1.8 3.73 2.721.083.725-.587 1.59-2.012 2.595-1.424 1.004-2.486 1.395-3.184 1.172zM60.35 139.895c1.396-2.819 2.29-4.353 2.681-4.605.922-.586 2.57-1.088 4.945-1.506 2.542-.475 4.135-.447 4.777.083.726.586.894 3.181.503 7.786-.363 4.465-.88 7.185-1.55 8.162-.531.781-1.97 1.326-4.317 1.633-2.01.251-3.491.265-4.441.041-.643-.139-1.537-1.088-2.682-2.846-1.145-1.73-1.774-3.042-1.886-3.935-.056-.418.6-2.023 1.97-4.813zm1.299.586c-1.118 2.4-1.663 3.767-1.635 4.102.028.67.461 1.702 1.3 3.097.865 1.424 1.564 2.233 2.095 2.428.558.195 1.774.181 3.645-.042 1.984-.251 3.143-.628 3.478-1.13.531-.781.964-3.181 1.3-7.199.306-4.019.265-6.181-.126-6.488l-3.353-.126c-1.9.279-3.436.767-4.61 1.465-.279.195-.977 1.493-2.094 3.893zM33.574 148.81c-1.006.224-1.858.503-2.557.838l-.083-1.675c.754-.307 1.69-.586 2.807-.837l2.43-.293c.755.168 1.97 1.898 3.646 5.191 1.648 3.181 2.43 5.134 2.347 5.86-.112 1.032-.755 2.706-1.928 5.023-1.34 2.595-2.458 3.948-3.352 4.06l-2.724-.293c-1.145-.279-1.997-.586-2.556-.921v-1.8c.503.419 1.257.781 2.263 1.088l2.472.335c.559-.084 1.369-1.186 2.43-3.307 1.006-2.065 1.51-3.446 1.51-4.144 0-.753-.657-2.455-1.97-5.106-1.341-2.651-2.25-4.06-2.724-4.228l-2.011.209zM108.748 191.422c-.419.167-.726 1.507-.922 4.018-.167 2.037-.223 3.99-.167 5.86.028.335.544 1.2 1.55 2.595 1.006 1.34 1.662 2.107 1.97 2.302l2.891.67c1.648.223 2.612.237 2.891.042.419-.307.936-1.395 1.551-3.265.614-1.953.782-3.209.503-3.767-.447-.893-2.152-2.567-5.113-5.023-2.989-2.484-4.707-3.628-5.154-3.432zm-2.263 3.683c.336-3.209.852-4.953 1.551-5.232.866-.335 3.031.893 6.495 3.683 3.296 2.679 5.238 4.591 5.824 5.735.419.865.252 2.428-.502 4.688-.671 2.037-1.313 3.363-1.928 3.977-.419.446-1.62.586-3.604.418-1.788-.139-3.059-.377-3.813-.711-.391-.14-1.201-1.117-2.43-2.931-1.229-1.813-1.858-2.957-1.886-3.432-.084-1.646.014-3.711.293-6.195zM110.759 214.653c.558-.977.782-1.577.67-1.8-.196-.363-.95-.851-2.263-1.465-1.341-.614-2.221-.907-2.64-.879-.223 0-.419.67-.586 2.009-.196 1.395-.182 2.47.042 3.223.083.279.53.558 1.34.837l1.635.209c.586-.362 1.187-1.074 1.802-2.134zm2.262-2.135c-.028.809-.475 1.856-1.341 3.139-.81 1.2-1.508 1.982-2.095 2.344l-2.682-.167c-1.34-.419-2.067-.879-2.179-1.381-.279-.949-.293-2.372-.041-4.27.223-2.009.614-3.097 1.173-3.265.67-.223 2.039.168 4.106 1.172 2.068 1.005 3.087 1.814 3.059 2.428zM157.439 192.092c-.279 0-.921.739-1.927 2.218-1.006 1.507-1.425 2.372-1.257 2.595l2.891-.084c1.76-.306 2.696-.627 2.808-.962.111-.251-.21-.935-.964-2.051s-1.271-1.689-1.551-1.716zm.126-1.382c.671.112 1.564 1.005 2.682 2.679 1.089 1.674 1.522 2.763 1.299 3.265-.307.698-1.718 1.242-4.232 1.633-2.542.39-4.079.293-4.61-.294-.447-.502.07-1.869 1.551-4.102 1.48-2.232 2.584-3.292 3.31-3.181zM170.556 178.488l3.31.376-.503 1.717-2.765-.419c-1.313-.084-2.291-.084-2.934 0-.363.028-.963.837-1.802 2.428-.782 1.534-1.257 2.693-1.424 3.474-.224 1.06-.266 2.525-.126 4.395.168 1.925.419 2.986.754 3.181l1.341.209 3.101-.586-.796 1.8c-2.263.558-3.813.558-4.651 0-.643-.418-1.048-1.981-1.216-4.688-.167-2.232-.167-3.767 0-4.604.112-.698.643-1.967 1.593-3.809 1.089-2.205 1.997-3.349 2.723-3.433.727-.083 1.858-.097 3.395-.041z" fill="#0D131A"/><path d="M158.111 91.13l.963 1.55 1.132 1.925c.475.893.628 1.395.461 1.507l-1.299.041-1.76-.209 1.718.628c.531.195.88.405 1.047.628.308.39.461 1.688.461 3.893.028 2.232-.237 3.209-.796 2.93l-5.238-1.968-5.363-1.841c2.989 2.009 5.433 3.809 7.333 5.399l1.299 1.13c.391.419.489.796.293 1.131-3.939 7.227-6.104 10.855-6.495 10.883-.223 0-1.076-.852-2.556-2.554l-3.436-4.102 2.556 8.916c.279 1.256.112 2.344-.503 3.265-.363.558-1.914 1.981-4.651 4.269-2.738 2.289-4.163 3.363-4.274 3.223l-.377-4.102-.336-5.734-1.634 3.307c-.642 1.311-1.103 1.995-1.383 2.051-.363.083-2.346-.754-5.95-2.512s-5.378-2.818-5.322-3.181c.056-.307 1.006-1.744 2.85-4.311l3.268-4.479c-.475.502-1.536 1.8-3.185 3.893l-2.262 2.637-3.646-2.093-3.436-2.344c0-.251.978-1.437 2.933-3.558 2.067-2.261 3.897-4.088 5.49-5.484-1.146.531-2.92 1.926-5.322 4.186l-3.562 3.14c-.335.027-1.955-1.186-4.861-3.642-2.877-2.428-4.33-3.823-4.358-4.186-.028-.335.936-1.646 2.892-3.935 1.871-2.232 3.659-4.185 5.363-5.86-1.145.642-3.52 2.707-7.123 6.195-3.353 3.265-5.14 4.898-5.364 4.898-.391 0-1.173-1.019-2.347-3.056-1.145-2.009-1.69-3.237-1.634-3.683.056-.447.768-1.55 2.137-3.307 1.76-2.288 3.744-4.242 5.951-5.86 6.816-5.051 14.023-5.86 21.622-2.428l.754-.293c10.197-4.549 19.471-3.544 27.824 3.014l.126.084z" fill="#0D131A"/><path d="M154.005 101.009l-7.584-2.637c-1.76-.475-2.64-.628-2.64-.46 0 .139.782.613 2.346 1.423 1.481.781 3.451 2.092 5.909 3.934l5.238 4.395-3.059 5.442c-1.453 2.567-2.291 3.865-2.514 3.893-.308 0-2.473-2.4-6.495-7.2l-1.174-1.172.294 1.674 1.801 6.698c1.062 3.683 1.551 5.622 1.467 5.818l-3.268 3.014-4.442 3.767-.084-5.86c-.028-3.126-.126-4.828-.293-5.107-.28-.446-1.816 1.967-4.61 7.241-4.553-2.706-7.542-4.353-8.967-4.939l3.729-5.19 3.688-5.149 1.173-1.507c.14-.39-.447-.237-1.76.461-2.123 1.116-4.902 3.921-8.338 8.413l-5.238-3.306 4.567-4.982c2.43-2.511 4.065-3.99 4.903-4.436l1.676-.921-1.844-.042c-3.073.195-6.886 2.693-11.439 7.492l-7.711-6.529c.978-1.312 2.445-3.098 4.4-5.358 2.403-2.79 3.967-4.437 4.693-4.94l1.383-1.004-1.55.084c-2.654.418-5.518 2.009-8.59 4.771-1.649 1.507-3.604 3.558-5.867 6.154l-3.059-4.772c2.43-4.186 5.601-7.479 9.512-9.879 6.09-3.767 12.669-4.13 19.737-1.088l.544-.21c3.8-1.506 7.292-2.343 10.476-2.51 5.923-.28 11.342 1.492 16.259 5.315l1.55 3.181-1.173-.125-2.766-.084-2.137.251c.084.14.713.39 1.886.754 1.341.418 2.989 1.158 4.944 2.218l.168 2.302c.056 1.423.014 2.316-.126 2.679l-5.615-1.967z" fill="#00A63C"/><path d="M66.09 57.895l.084 1.047c-5.895-2.428-10.616-4.13-14.164-5.107-.698-.195-1.005-.404-.921-.628l1.131-.083c3.8 1.06 8.423 2.65 13.87 4.771zM66.635 61.035l.21 1.172c-9.387-4.577-17.767-7.94-25.142-10.088-.67-.195-.964-.405-.88-.628l1.089-.042c7.403 2.093 15.644 5.288 24.723 9.586z" fill="#0D131A"/><path d="M61.397 56.514l-.922-.251c-.279-2.902-.698-5.372-1.257-7.409-.111-.419-.083-.656.084-.712.168-.055.322.126.461.545.782 2.427 1.327 5.037 1.634 7.827zM58.757 55.551l-.838-.25c0-1.452-.153-2.833-.46-4.145-.056-.334 0-.53.167-.586l.42.419c.474 1.228.711 2.749.711 4.562zM58.465 57.895l.88.377-3.352 2.93-3.73 2.512c-.363.167-.586.167-.67 0-.112-.168.014-.35.377-.544 1.285-.754 3.45-2.512 6.495-5.275zM137.536 100.004c-1.453-5.134-3.967-8.734-7.543-10.799l1.006-.712c3.743 2.26 6.313 6.126 7.71 11.595 1.285 4.995 1.383 10.353.293 16.073-.167.81-.363 1.186-.586 1.131-.224-.056-.28-.489-.168-1.298.894-5.86.657-11.19-.712-15.99z" fill="#0D131A"/><path d="M140.51 109.38c.726-9.85-2.011-17.091-8.213-21.724l1.173-.377c6.397 4.744 8.981 12.153 7.752 22.227-.111.837-.265 1.242-.461 1.214-.223-.056-.307-.502-.251-1.34z" fill="#0D131A"/><path d="M135.567 94.312l.963 1.255c-2.123-.111-4.148.196-6.076.921-1.871.726-3.813 1.912-5.824 3.558-.531.419-.866.558-1.006.419-.167-.112-.014-.405.461-.88 3.436-3.46 7.263-5.217 11.482-5.273z" fill="#0D131A"/></svg>