<svg width="212" height="204" fill="none" xmlns="http://www.w3.org/2000/svg"><g clip-path="url(#clip0_2621_443)"><path d="M97.39 105.28c-1.996-1.108-5.488-5.668-10.476-13.679-4.286-6.904-7.131-11.962-8.535-15.174-1.293-2.88-2.697-6.83-4.212-11.85-1.81-5.76-2.402-8.88-1.774-9.36.96-.701 3.843-1.126 8.646-1.273l1.663-5.594c1.293-3.765 2.383-5.648 3.27-5.648s5.635 3.489 14.244 10.466l12.637 10.467 2.66 5.372c2.623 4.356 6.004 8.362 10.143 12.017l-.666 7.642c-1.145 5.649-3.547 9.894-7.205 12.737-4.212 3.286-7.999 5.187-11.362 5.704-2.956.443-5.967-.166-9.034-1.827z" fill="#AFCEE5"/><path d="M184.294 13.684c8.757 6.239 13.136 13.272 13.136 21.099 0 1.477-.407 2.695-1.219 3.655l-1.829-2.492c-2.698 5.39-4.046 10.134-4.046 14.232 0 6.018.942 9.027 2.826 9.027.85 0 1.626-.406 2.328-1.218l.831-1.274 1.552 1.938c.998 1.698 1.497 3.507 1.497 5.427 0 1.957-.647 3.655-1.94 5.095l-1.94 1.606c-1.182 5.464-5.136 10.522-11.861 15.174-7.39 5.094-15.611 7.642-24.663 7.642-13.746 0-25.717-4.929-35.915-14.786-9.903-9.525-14.854-20.269-14.854-32.23 0-12.664 4.951-23.056 14.854-31.178 9.089-7.421 19.638-11.132 31.647-11.132 10.937 0 20.802 3.139 29.596 9.415z" fill="#AFCEE5"/><path d="M182.909 88.168a76.3 76.3 0 015.265 2.547c2.808 1.514 6.67 3.932 11.584 7.254h3.547c2.402.111 3.64.425 3.713.942.185.775-.11 2.658-.886 5.649l2.05.886c1.404.664 2.162 1.255 2.273 1.772.185.775-1.22 2.658-4.212 5.648.96 1.403 1.182 2.677.665 3.821-.481 1.034-2.827 2.289-7.039 3.766-4.767 1.625-9.33 2.437-13.69 2.437-3.99 0-7.796-.554-11.417-1.662l-4.268-1.661c.554-4.652.739-9.267.554-13.844-.111-2.843-.665-5.907-1.662-9.193l-1.497-4.098 7.094-2.215c1.257-.444 3.197-1.422 5.82-2.936l2.106.886zM84.143 134.741c1.996 0 4.305 1.163 6.928 3.489 3.067 2.695 5.506 6.221 7.316 10.577 4.323 10.485 5.728 17.389 4.213 20.711-.555 1.293-2.014 3.526-4.379 6.701-3.104 4.172-5.21 7.126-6.318 8.861l-7.095 10.245c-2.697 3.692-4.286 5.63-4.766 5.815-.591.258-3.178-1.939-7.76-6.59-7.648 3.064-11.657 4.504-12.026 4.319-.333-.148-.72-2.769-1.164-7.864-5.986-3.175-9.016-5.242-9.09-6.202-.037-.591 1.275-2.086 3.935-4.486l3.99-3.433c.26-3.028.758-6.424 1.497-10.19 1.515-7.568 3.566-13.254 6.152-17.056 6.688-9.932 12.877-14.897 18.567-14.897zM147.327 160.436c3.066-1.993 6.373-5.224 9.92-9.691l4.434-6.147 5.764 5.372c3.806 4.504 5.709 9.082 5.709 13.734 0 3.285-.258 5.962-.776 8.03l-.831 2.104 4.545 2.27c2.956 1.625 4.341 2.769 4.156 3.434-.147.738-1.588 2.03-4.323 3.876-.221.148-.055.443.499.886.554.48.684.813.388.997-3.806 2.289-8.942 4.578-15.408 6.867-6.133 2.215-9.958 3.231-11.472 3.046-.961-.111-2.919-2.031-5.875-5.759-2.624-3.323-4.213-5.594-4.767-6.812-.332-.701-2.734-2.953-7.205-6.756l-6.651-5.483c9.644-3.507 16.941-6.83 21.893-9.968z" fill="#AFCEE5"/><path d="M3.335 105.778c0-10.042 3.307-18.33 9.92-24.865 6.282-6.24 13.82-9.359 22.614-9.359 7.907 0 14.225 2.787 18.955 8.362 4.914 5.76 7.371 13.734 7.371 23.924l-1.053 10.688c-.702 6.017-1.053 11.131-1.053 15.339 0 4.615 1.035 9.138 3.104 13.568.998 2.178 2.014 3.914 3.048 5.206l-2.438 5.094-2.66 6.867c-2.587-.036-5.728-.498-9.423-1.384-7.39-1.846-13.856-4.966-19.398-9.359-8.092-6.461-14.762-13.402-20.008-20.822-5.986-8.492-8.979-16.245-8.979-23.259z" fill="#AFCEE5"/><path d="M125.656 81.024l5.653 3.655c4.656 2.769 9.219 5.002 13.69 6.7 4.471 1.699 9.625 2.382 15.463 2.05l7.427-.997 1.774 5.648c1.145 4.541 1.718 8.861 1.718 12.959 0 16.539-5.746 30.846-17.237 42.918-11.676 12.257-25.735 18.386-42.178 18.386-2.771 0-5.21-.314-7.316-.942l-2.328-.997c.407-1.661.499-3.913.278-6.756-.481-5.685-2.347-11.5-5.598-17.444-3.215-5.944-6.559-9.654-10.032-11.131-1.072-.48-2.088-.701-3.048-.665l-1.164.167 3.27-2.935c2.55-2.732 4.803-5.963 6.762-9.692 1.995-3.728 3.362-7.55 4.1-11.463l.5-4.707 1.552.72c1.33.48 2.734.775 4.212.886 4.766.295 9.459-1.458 14.078-5.261 3.916-3.212 6.484-7.698 7.703-13.457l.721-7.642z" fill="#F2E100"/><path d="M92.734 100.96c.924 1.292 2.568 2.88 4.933 4.762l-.831 5.151c-.887 4.061-2.18 7.66-3.88 10.798-1.663 3.175-3.917 6.295-6.762 9.359l-3.769 3.655-1.718.61-3.547 1.495c-.998.517-2.235 1.532-3.713 3.046l-1.94 2.159c.332-2.104.776-4.375 1.33-6.811 1.072-4.837 2.106-8.049 3.104-9.636.665-1.034 2.235-2.898 4.71-5.593 2.366-2.622 4.14-4.947 5.322-6.978 1.33-2.289 2.216-5.796 2.66-10.522l.332-6.424 3.77 4.929z" fill="#EEEEEF"/><path d="M88.577 102.289c-.332 5.095-1.2 8.787-2.605 11.076-1.182 1.993-3.122 4.43-5.82 7.31-2.623 2.769-4.23 4.688-4.821 5.759-1.33 2.363-2.66 7.329-3.99 14.897l-5.1 7.31c-1.034-.997-2.05-2.584-3.048-4.763-2.07-4.393-3.104-9.599-3.104-15.616 0-14.103 2.993-27.21 8.979-39.32 2.993-6.054 5.986-10.687 8.979-13.899l5.043 9.747 5.543 10.521-.056 6.978z" fill="#CF7100"/><path d="M101.546 54.387l6.097-4.209 3.325 12.737-9.422-8.528z" fill="#EEEEEF"/><path d="M136.353 48.406c-.37-.665-.444-2.4-.222-5.206a48.145 48.145 0 011.774-9.137c2.586-8.38 6.577-12.571 11.971-12.571 2.18 0 3.788 1.514 4.822 4.541 1.256 3.581.979 8.122-.831 13.623-.961 2.88-2.18 5.52-3.658 7.92-1.441 2.325-2.661 3.691-3.658 4.097-.887.332-2.771-.018-5.653-1.052-2.772-.997-4.287-1.735-4.545-2.215zM194.382 35.946c.554 0 1.237.793 2.05 2.381 1.109 2.141 1.663 4.763 1.663 7.864 0 3.507-.61 6.645-1.829 9.414-1.145 2.584-2.328 3.877-3.547 3.877-1.774 0-2.66-2.492-2.66-7.477 0-3.987.72-7.863 2.161-11.629l2.162-4.43z" fill="#C6000B"/><path d="M146.938 51.84c1.959-1.847 3.529-3.84 4.712-5.982a62.648 62.648 0 003.159-6.756l-.665 6.037c-.629 4.097-1.368 6.368-2.217 6.811l-3.27.332-1.719-.443z" fill="white"/><path d="M147.604 27.14c.924.185 1.626 1.145 2.106 2.88.48 1.846.499 3.988.055 6.424-.406 2.178-1.164 3.987-2.272 5.427-1.145 1.514-2.328 2.142-3.547 1.883-1.183-.258-1.977-1.31-2.383-3.157-.407-1.698-.37-3.636.11-5.814.555-2.51 1.46-4.504 2.716-5.981 1.146-1.292 2.217-1.846 3.215-1.661zM191.555 53.113c-.554-.184-.868-.941-.942-2.27-.074-1.145.037-2.419.333-3.822.295-1.403.757-2.676 1.385-3.82.739-1.293 1.423-1.791 2.051-1.496.665.296 1.016 1.163 1.053 2.603.074 1.181-.074 2.584-.444 4.209a8.264 8.264 0 01-1.662 3.433c-.739.886-1.33 1.274-1.774 1.163z" fill="#0D131A"/><path d="M149.156 22.046c.702.406 1.293 1.273 1.773 2.602.518 1.625.536 3.212.056 4.763-.517 1.698-1.46 2.953-2.827 3.766-1.219.775-2.364.978-3.436.609-1.33-.406-2.217-1.33-2.66-2.769-.444-1.477-.314-3.157.388-5.04.591-1.55 1.699-2.731 3.325-3.544 1.478-.738 2.605-.867 3.381-.387zM194.271 37.884c.333.11.591.554.776 1.33a5.663 5.663 0 010 2.491c-.554 2.547-1.256 3.747-2.106 3.6-.517-.111-.85-.554-.998-1.33-.147-.775-.092-1.698.167-2.768.665-2.437 1.385-3.544 2.161-3.323z" fill="white"/><path d="M125.656 81.024l6.872 3.987c5.764 2.916 11.492 5.113 17.182 6.59 3.584.886 7.704 1.218 12.359.997l5.875-.61.832 2.05c-.887.775-2.18 1.569-3.88 2.38-3.399 1.551-7.15 2.327-11.251 2.327-4.508 0-10.05-2.29-16.627-6.867-5.912-4.135-9.7-7.753-11.362-10.854zM144.833 161.987c-10.051 6.904-20.821 10.356-32.313 10.356l-7.205-.942-2.993-.997.61-2.658c.296-2.104.259-3.968-.111-5.593l-.997-5.372-.388-2.492c7.463 2.695 16.811 3.932 28.044 3.711 12.341-.222 21.338-2.345 26.992-6.369-2.735 3.471-6.614 6.923-11.639 10.356z" fill="#CBBD00"/><path d="M92.18 66.127c-.37 1.181-.813 1.92-1.33 2.215-.48.295-.831-.037-1.053-.997-.333-1.698-.462-3.876-.388-6.534l.221-3.49c0-1.255.185-2.159.555-2.713.406-.701.924-.203 1.552 1.495 1.293 3.47 1.44 6.812.443 10.024zM97.002 105.446c-2.328-1.773-5.635-6.037-9.921-12.793-3.806-6.055-6.522-10.983-8.147-14.786-1.293-2.953-2.587-6.442-3.88-10.466-1.109-3.397-1.866-6-2.272-7.809-.48-1.993-.388-3.212.277-3.655.776-.553 2.143.665 4.101 3.655l20.618 24.92c11.196 13.476 16.165 20.564 14.909 21.266-2.032 1.144-4.397 1.79-7.094 1.938-3.437.222-6.3-.535-8.591-2.27zM185.292 122.834c-4.102 0-7.796-.535-11.085-1.606l-3.713-1.661.886-8.528c2.476 1.477 7.058 2.898 13.746 4.264 8.239 1.698 15.5 2.16 21.781 1.384-.702 1.034-2.124 2.068-4.267 3.102-4.324 2.03-10.106 3.045-17.348 3.045zM145.553 161.821c-1.847 1.329-2.42 3.249-1.718 5.759.628 2.4 2.273 4.8 4.933 7.199 6.503 5.87 14.207 8.252 23.112 7.144l-1.663-.72c-1.256-.48-1.811-.738-1.663-.775l5.986-.554 6.041-1.274c-.776 1.551-2.291 3.12-4.545 4.708-.147.073-.055.387.278.941.332.517.406.831.221.941-1.552.997-4.766 2.696-9.644 5.095-4.84 2.326-9.034 3.84-12.581 4.541l-5.043.222c-.85-.259-3.991-4.449-9.422-12.571l-14.688-11.519 4.323-1.55 7.427-2.991a82.167 82.167 0 008.646-4.596zM50.446 185.191c-.148-.702 1.515-.296 4.988 1.218 3.325 1.44 4.766 2.843 4.323 4.209l-5.1-1.717-4.211-3.71zM71.895 194.328l-7.205 3.323-3.049.664-1.884.222.499-1.772c.221.332 1.736-.259 4.544-1.773 3.252-1.698 5.21-2.621 5.875-2.768 1.035-.259 1.663-.037 1.885.664.184.628-.037 1.108-.665 1.44zM77.326 199.423c.37.184 1.515-.868 3.437-3.157 1.92-2.289 3.362-4.338 4.322-6.147l8.98-17.333c4.913-10.042 7.186-15.986 6.816-17.832l1.552 5.593c.887 4.172.85 7.458-.111 9.857-.849 2.142-2.106 4.172-3.768 6.092-2.476 2.806-4.342 5.169-5.598 7.088-7.834 11.962-12.046 17.943-12.637 17.943l-1.829-1.052-1.164-1.052zM64.246 152.407l-3.103 8.196c-2.476.11-5.617-.314-9.422-1.274-7.612-1.92-14.725-5.538-21.339-10.854-6.91-5.538-12.729-11.722-17.458-18.552l-4.988-8.584c7.13 3.914 11.214 5.926 12.248 6.036 1.072.148 4.619-.627 10.642-2.325 3.695 7.605 9.274 14.213 16.738 19.825 6.688 5.021 12.248 7.532 16.682 7.532z" fill="#88A3D4"/><path d="M4.555 94.868a34.349 34.349 0 013.38-7.531l1.885-2.824c-1.182 6.497-.758 12.349 1.275 17.555 1.773 4.541 4.544 8.122 8.313 10.743 3.474 2.437 7.095 3.6 10.863 3.489 3.843-.148 6.818-1.606 8.924-4.375l-.72 2.713c-.629 2.031-1.386 3.711-2.273 5.04-1.183 1.809-3.085 3.489-5.709 5.039-2.993 1.772-5.838 2.658-8.535 2.658-2.845 0-5.653-.849-8.425-2.547-2.697-1.624-4.748-3.636-6.152-6.036-4.47-7.569-5.413-15.543-2.826-23.924z" fill="#88A3D4"/><path d="M67.295 93.207c1.293-3.101 2.679-5.851 4.157-8.251l1.829-2.714c-2.624 6.978-3.585 16.023-2.882 27.136.665 10.374 2.161 16.798 4.489 19.271l-3.547 12.682-5.1 7.31c-1.108-.738-2.198-2.178-3.27-4.32-2.142-4.282-3.048-9.986-2.715-17.112.591-12.81 2.937-24.145 7.039-34.002z" fill="#A95B00"/><path d="M88.41 128.428l-5.098 6.147-2.439.72c-1.81.627-3.233 1.273-4.267 1.938l-5.266 4.098c.702-3.655 1.238-6.184 1.608-7.587l1.164-3.378.776-1.717c.332 1.034 1.7 1.662 4.1 1.883 2.92.259 6.06-.443 9.423-2.104z" fill="#C8C9CA"/><path d="M192.774 20.717c2.808 3.655 4.619 7.236 5.432 10.743.813 3.47.462 6.055-1.053 7.753-.148.185-.351-.13-.61-.941-.259-.85-.333-1.385-.222-1.606.887-1.44.721-3.674-.498-6.701-1.257-3.101-3.289-6.258-6.097-9.47-7.094-8.085-15.463-12.848-25.107-14.287-13.708-2.068-25.754.221-36.137 6.867-10.382 6.645-16.534 16.022-18.456 28.132-1.847 11.74 1.349 22.446 9.589 32.12 8.202 9.598 19.121 15.524 32.755 17.776 9.57 1.587 18.623.166 27.158-4.264 8.055-4.21 13.043-9.636 14.964-16.282l.998.056c.554.258.794.516.721.775-1.996 7.014-7.224 12.737-15.685 17.167-8.905 4.615-18.401 6.092-28.488 4.43-14.189-2.362-25.662-8.602-34.419-18.717-8.868-10.227-12.322-21.432-10.364-33.615 2.069-13.032 8.406-22.908 19.01-29.627 10.642-6.757 23.537-8.99 38.686-6.701 11.565 1.735 20.84 7.199 27.823 16.392z" fill="#0D131A"/><path d="M195.712 56.823c-.111-.11.019-.332.388-.664.369-.295.647-.37.831-.222 2.254 2.142 3.307 4.929 3.16 8.362-.185 3.397-1.442 5.944-3.769 7.643l-1.22-.111a7.968 7.968 0 00-1.607-1.218c-.887-.517-1.681-.776-2.383-.776l-5.986 2.492c-3.88 1.625-6.909 2.4-9.089 2.326-.924-.037-3.215-1.144-6.873-3.323-4.101-2.436-6.632-3.82-7.593-4.153-1.552-.517-4.6-1.2-9.145-2.049l-10.198-1.55c-2.587-.259-5.081-1.311-7.482-3.157-2.291-1.735-4.028-3.784-5.21-6.147-.554-1.145-.628-1.81-.222-1.994.37-.184.831.296 1.386 1.44.997 2.03 2.605 3.803 4.822 5.316 2.253 1.514 4.563 2.4 6.928 2.659l10.364 1.55c4.692.886 7.833 1.625 9.422 2.215.961.37 3.436 1.717 7.427 4.043 3.584 2.104 5.764 3.194 6.54 3.267 1.995.148 4.914-.59 8.757-2.215l6.041-2.603c1.589-.073 3.196.591 4.822 1.994 1.33-1.181 2.069-3.138 2.217-5.87.148-2.99-.628-5.409-2.328-7.255z" fill="#0D131A"/><path d="M170.439 61.53c.443-.221 1.108.351 1.995 1.717.923 1.366 1.09 2.178.499 2.437-.592.258-1.257-.314-1.996-1.717-.739-1.44-.905-2.252-.498-2.436zM185.237 65.13c.221.443-.204 1.07-1.275 1.883-1.035.775-1.663 1.015-1.884.72-.222-.296.203-.923 1.274-1.883 1.035-.96 1.663-1.2 1.885-.72zM192.719 30.352l1.275-.166c.148.222-.111.554-.776.997l-1.33 1.385-1.33 2.104c-.333.701-.702.941-1.109.72-.406-.222-.462-.683-.166-1.385.85-1.809 1.995-3.027 3.436-3.655zM153.645 18.28c-.702-.37-.997-.72-.886-1.052.147-.296.572-.296 1.274 0a8.734 8.734 0 013.326 2.547c.96 1.219 1.515 2.566 1.662 4.043.074 1.181-.092 1.79-.498 1.827-.444 0-.758-.553-.943-1.661-.517-2.584-1.829-4.486-3.935-5.704zM154.976 47.464c-.961 3.323-1.829 5.15-2.605 5.483-1.515.664-4.6.406-9.256-.775-4.84-1.219-7.445-2.548-7.815-3.988-.332-1.329-.332-3.47 0-6.424.333-3.322.998-6.479 1.995-9.47 2.735-8.158 6.781-12.053 12.138-11.684 5.506.37 7.944 5.704 7.316 16.004-.221 3.766-.813 7.384-1.773 10.854zm-5.654-24.975c-2.143-.148-4.101.849-5.874 2.99-1.774 2.178-3.271 5.427-4.49 9.747-.628 2.215-1.127 4.818-1.496 7.808-.333 2.584-.444 4.154-.333 4.707l.277.333 1.053.72c1.663.849 4.139 1.55 7.427 2.104l5.653.387c.481-.516 1.053-2.16 1.719-4.928.775-3.101 1.256-6.129 1.441-9.082l.11-3.378c0-4.357-.609-7.458-1.829-9.304-.886-1.292-2.106-1.994-3.658-2.104z" fill="#0D131A"/><path d="M154.255 27.916c-.037-.259.221-.425.776-.498.554-.074.849.018.886.276.555 3.619.185 7.698-1.108 12.24-1.478 5.242-3.769 9.155-6.873 11.74l-.886-.111c-.444-.148-.573-.296-.388-.444 2.956-2.584 5.136-6.405 6.54-11.463 1.256-4.43 1.607-8.343 1.053-11.74zM196.266 40.32c-.48-1.587-1.071-2.75-1.773-3.488-1.035 1.993-1.866 4.467-2.494 7.42-.554 2.77-.832 5.428-.832 7.975 0 2.252.241 4.043.721 5.372.259.627.499.941.72.941.481.037.943-.13 1.386-.498.813-.665 1.496-1.92 2.051-3.766.517-1.846.85-4.061.997-6.645l.056-1.385c0-2.141-.277-4.116-.832-5.925zm-1.164-6.368c.444-.48.647-.498.61-.055l-.61 1.772c1.257.96 2.254 2.677 2.993 5.15.702 2.326.98 4.633.832 6.922-.259 4.541-1.09 7.938-2.494 10.19-1.146 1.809-2.476 2.64-3.991 2.492-.961-.074-1.718-.794-2.272-2.16-1.072-2.621-1.127-6.553-.167-11.795 1.035-5.575 2.735-9.747 5.099-12.516zM101.436 55.328l-1.331-1.384c2.07-2.548 4.638-4.098 7.704-4.652.37-.074.573.24.61.941.037.702-.111 1.09-.443 1.163-2.661.739-4.841 2.05-6.54 3.932zM77.548 73.714l1.385 2.713c-3.88 5.206-7.242 10.855-10.087 16.946-4.101 8.639-6.558 18.312-7.371 29.018-.924 11.999.886 20.546 5.431 25.641.185.184.056.48-.388.886-.443.406-.757.517-.942.332-4.84-5.39-7.002-14.343-6.484-26.859.443-11.481 2.734-21.56 6.872-30.236 3.178-6.683 7.039-12.83 11.584-18.441zM87.192 104.781c.665-4.393.72-8.104.166-11.131-.074-.222.277-.018 1.053.61.74.627 1.127 1.07 1.164 1.328.628 3.36.573 6.996-.166 10.91-.702 3.729-1.792 6.645-3.27 8.75l-5.764 6.59c-2.07 2.141-3.4 3.821-3.99 5.039-.925 1.994-1.811 4.412-2.661 7.255-.813 2.842-1.312 5.076-1.497 6.7l-.997 1.551-.942.831c.295-2.474.868-5.39 1.718-8.75.924-3.507 1.847-6.276 2.77-8.307.666-1.44 2.163-3.433 4.49-5.981l5.1-6.147c1.219-1.919 2.16-5.002 2.826-9.248z" fill="#0D131A"/><path d="M65.909 95.422c.037-.258.351-.314.942-.166.591.11.868.277.832.498-.813 4.135-.592 9.212.665 15.23 1.404 6.534 3.713 12.312 6.928 17.333.148.222-.037.498-.555.831l-.942.11c-3.843-5.944-6.392-12.035-7.648-18.274-1.146-5.464-1.22-10.652-.222-15.562zM96.282 105.446c0-.222.35-.166 1.053.166l1.053.664c-.222 10.67-5.08 20.14-14.577 28.409-.185.148-.665.148-1.44 0-.74-.147-1.017-.295-.832-.443 3.436-2.621 6.65-6.59 9.644-11.906 3.399-6.055 5.099-11.685 5.099-16.89zM166.891 92.82c-.11-.26.111-.5.665-.72.555-.26.869-.26.943 0 2.623 5.943 3.935 11.61 3.935 17.001 0 25.621-9.958 44.155-29.874 55.599-7.427 4.283-15.278 6.96-23.555 8.03-7.39.923-13.025.425-16.904-1.495-.222-.111-.203-.424.055-.941.259-.554.499-.776.721-.665 3.842 1.92 9.348 2.326 16.516 1.218 7.87-1.181 15.352-3.931 22.447-8.251 8.387-5.095 14.983-11.74 19.786-19.936 5.69-9.599 8.535-20.786 8.535-33.559 0-5.76-1.09-11.187-3.27-16.282z" fill="#0D131A"/><path d="M122.164 96.419c-.073-.185.074-.572.444-1.163.406-.554.646-.72.72-.498 1.515 3.618 4.25 6.867 8.203 9.746 3.991 2.843 8.739 4.966 14.244 6.369 4.988 1.292 9.736 1.772 14.244 1.44 4.508-.37 7.944-1.496 10.309-3.378.185-.148.462.018.831.498.37.48.462.794.277.941-2.66 2.105-6.355 3.415-11.084 3.932-4.878.554-9.921.166-15.131-1.163-5.432-1.403-10.217-3.636-14.355-6.701-3.99-2.916-6.891-6.257-8.702-10.023z" fill="#0D131A"/><path d="M156.472 113.42c-.628 7.236-3.695 17.02-9.2 29.351-5.653 12.663-10.679 20.545-15.076 23.646l-.831-.498c-.332-.48-.406-.794-.222-.942 3.584-2.547 8.314-10.392 14.189-23.535 5.727-12.848 8.849-22.244 9.367-28.188 0-.258.295-.351.886-.277.629.037.924.185.887.443zM115.236 102.455l.666.222.277.609.942 14.509.665 13.125-.222.609-6.263 6.091c-4.766 4.283-9.218 7.458-13.357 9.526l-.665.055-.554-.443-.056-.388c0-.369.167-.646.5-.83 5.689-2.843 11.971-7.827 18.843-14.953l-.72-13.013-.887-14.177v-.056c0-.59.277-.886.831-.886z" fill="#0D131A"/><path d="M144.223 144.93l8.702.388c3.547-.111 6.374-.443 8.48-.997.258-.037.295.222.111.776l-.61.886c-2.069.701-4.767 1.181-8.092 1.439-3.436.296-6.54.259-9.311-.11a41.621 41.621 0 01-15.463-5.15c-4.693-2.696-8.369-5.981-11.03-9.858-.148-.221-.129-.646.056-1.274.147-.627.295-.849.443-.664 2.365 3.507 6.115 6.608 11.251 9.303 4.767 2.474 9.921 4.228 15.463 5.261zM102.877 164.645c-.259-.037-.333-.295-.222-.775.074-.48.24-.702.499-.665l14.077 1.329c6.725.407 11.51.499 14.355.277l.61.166.332.554.278 2.769c.073.259-.148.443-.666.554l-.831-.166-.388-2.049-14.632-.443-13.412-1.551z" fill="#0D131A"/><path d="M87.912 136.568c-1.552-1.07-3.4-1.366-5.543-.886-2.069.406-4.23 1.532-6.484 3.378-3.215 2.622-6.337 6.498-9.367 11.63-2.29 3.839-4.286 9.34-5.986 16.503-.812 3.581-1.422 6.811-1.828 9.691l-.333.554-5.044 4.43c-1.44 1.477-2.161 2.436-2.161 2.879.074.443.96 1.182 2.66 2.216 1.663 1.07 3.584 2.086 5.764 3.045.37.111.554.37.554.776 0 3.655.24 5.925.721 6.811 1.478-.295 5.21-1.661 11.196-4.098l1.053.222 3.768 4.098c1.368 1.292 2.273 1.993 2.716 2.104.702-.369 2.402-2.418 5.1-6.147l5.763-8.528c1.257-2.031 3.954-5.741 8.092-11.131l2.162-2.824c.924-1.182 1.385-3.046 1.385-5.594l-.277-3.71c-.776-4.873-2.512-9.802-5.21-14.786-2.734-4.947-5.634-8.491-8.701-10.633zm-29.098 28.354c1.441-7.015 3.27-12.386 5.487-16.115 4.065-6.83 8.573-11.408 13.524-13.734 4.36-2.104 8.055-2.104 11.084 0 6.134 4.283 10.605 10.873 13.413 19.77 2.66 8.491 2.587 14.528-.222 18.109-4.581 5.722-7.944 10.134-10.087 13.235l-5.986 9.525c-2.845 4.505-4.748 6.849-5.708 7.033-1.441.333-4.157-2.122-8.148-7.365-2.549 1.625-5.099 2.954-7.648 3.987-2.476.997-4.064 1.366-4.766 1.108-.592-.222-.98-.978-1.164-2.271-.111-.996-.185-3.267-.222-6.811l-6.263-2.658c-2.66-1.292-4.046-2.418-4.157-3.378-.074-.813.61-1.994 2.05-3.545 1.627-1.772 3.955-3.618 6.984-5.537l1.83-11.353zM170.826 158.72c-1.921-5.538-5.302-9.987-10.142-13.347-.148-.11.092-.498.72-1.162.592-.702.998-.979 1.22-.831 5.394 3.766 8.978 8.897 10.752 15.395 1.589 5.796 1.404 10.707-.554 14.731 5.949 2.547 8.923 4.541 8.923 5.981 0 .886-1.755 2.492-5.265 4.817l-1.718-1.439c2.992-1.809 4.489-2.972 4.489-3.489 0-.406-.85-1.071-2.55-1.994-1.551-.886-3.38-1.753-5.487-2.603l-.609-.553.221-.831c1.885-4.393 1.885-9.285 0-14.675zM181.191 87.115c.554-.553.905-.793 1.053-.72 2.549.923 6.023 2.806 10.42 5.65 4.766 3.026 8.018 5.61 9.754 7.752.407.517.462.941.167 1.274-.333.295-.703.184-1.109-.333-1.663-2.067-5.136-4.633-10.42-7.697-4.803-2.769-8.276-4.43-10.419-4.984-.222-.074-.037-.388.554-.942z" fill="#0D131A"/><path d="M199.702 97.859c-.443-.406-.554-.628-.332-.665l4.988-.221c1.995.148 3.215.517 3.658 1.107.259.37.277 1.182.055 2.437l-.997 3.489c2.919.886 4.471 1.92 4.655 3.101.037.406-.314 1.126-1.053 2.16-.886 1.255-2.124 2.547-3.713 3.876.739.923 1.108 1.92 1.108 2.991 0 1.07-1.127 2.27-3.38 3.599-2.365 1.366-5.284 2.437-8.757 3.212-9.053 2.031-17.607 1.219-25.662-2.436-.258-.111-.295-.517-.111-1.219.148-.738.333-1.052.555-.941 2.069.923 4.618 1.698 7.648 2.326l11.473 1.107c3.769 0 7.519-.812 11.251-2.436 3.251-1.44 4.877-2.548 4.877-3.323 0-.628-.295-1.495-.887-2.603-.221-.369-.184-.72.111-1.052 2.55-2.547 3.917-4.227 4.102-5.039-.333-.554-1.515-1.2-3.547-1.939l-.61-.387v-.665c.665-2.326.998-4.024.998-5.095v-.11l-2.217-.444-3.326-.166-.887-.664zM31.102 96.585c-1.182-.332-2.29-.332-3.325 0a4.693 4.693 0 00-2.439 1.938c-.443.739-.83 1.016-1.164.83-.332-.184-.314-.645.056-1.383.776-1.551 1.81-2.566 3.104-3.046 1.145-.406 2.568-.425 4.267-.056 2.882.628 5.247 2.308 7.095 5.04 1.847 2.658 2.77 5.667 2.77 9.026 0 5.169-2.013 9.729-6.04 13.679-3.99 3.876-8.536 5.815-13.635 5.815-5.32 0-9.995-2.345-14.022-7.033-4.138-4.763-6.207-10.375-6.207-16.836 0-10.152 3.658-18.588 10.974-25.307 6.761-6.203 14.539-9.304 23.333-9.304 9.016 0 15.851 3.175 20.507 9.525 4.692 6.35 6.91 15.506 6.65 27.468-.036 1.034-.369 1.92-.997 2.658-.628.701-.924.683-.887-.055.702-12.147-1.404-21.524-6.318-28.133-4.545-6.091-10.863-9.137-18.955-9.137-7.39 0-14.17 2.75-20.34 8.251C8.47 86.801 4.941 94.813 4.941 104.56c0 6.055 1.626 11.168 4.878 15.34 3.251 4.172 7.242 6.258 11.971 6.258 4.545 0 8.443-1.68 11.695-5.039 3.214-3.36 4.822-7.421 4.822-12.184 0-3.507-.776-6.405-2.328-8.694-1.33-1.883-2.956-3.101-4.877-3.655z" fill="#0D131A"/><path d="M2.836 111.98c-.074-.221.222-.277.887-.166.665.111 1.016.24 1.053.388 4.36 12.737 12.138 23.757 23.334 33.061 11.232 9.377 22.372 14.066 33.42 14.066.259 0 .296.387.111 1.163-.185.775-.406 1.163-.665 1.163-11.159 0-22.484-4.837-33.975-14.509-11.713-9.858-19.768-21.58-24.165-35.166zM123.993 171.512c-.184-.111.148-.369.998-.775.813-.406 1.293-.573 1.441-.499 5.358 2.732 10.845 7.624 16.461 14.676l5.044 6.645c1.441 1.846 2.42 2.75 2.937 2.713 3.547-.221 8.665-1.698 15.352-4.43 6.393-2.621 9.607-4.375 9.644-5.261.037-.369-.48-.849-1.552-1.44-1.071-.59-2.346-1.089-3.824-1.495-1.441-.443-2.088-.849-1.94-1.218l2.383-.166c2.107.406 3.917 1.107 5.432 2.104 1.404.96 1.995 1.754 1.774 2.381-.776 2.326-4.841 4.929-12.194 7.809-7.242 2.806-12.526 3.987-15.851 3.544-.813-.111-3.917-3.304-9.311-9.581-6.06-7.125-11.658-12.127-16.794-15.007zM112.077 61.53c.259.148.48.739.665 1.773.222.996.222 1.421 0 1.273-2.143-1.329-7.223-5.28-15.242-11.85-7.168-5.87-10.955-8.769-11.361-8.695-.518.074-1.257 1.514-2.217 4.32-.887 2.695-1.441 5.002-1.663 6.922-.148 1.476-.444 2.196-.887 2.16-.443 0-.665-.739-.665-2.216.037-2.88.536-5.796 1.497-8.75 1.034-3.064 2.143-4.725 3.325-4.983 1.108-.222 5.154 2.565 12.138 8.362 8.498 7.088 13.302 10.983 14.41 11.685z" fill="#0D131A"/><path d="M125.711 80.968l.943.554c.221 2.363-.074 5.224-.887 8.584-.85 3.544-1.977 6.294-3.381 8.251-3.362 4.652-7.538 7.735-12.526 9.248-4.914 1.514-9.163 1.108-12.747-1.218-4.619-2.99-10.457-11.63-17.514-25.917-6.984-14.066-9.903-22.687-8.757-25.862.37-1.033 1.884-1.624 4.544-1.772l6.042.388c.221.037.314.35.277.941 0 .591-.13.868-.388.83a35.838 35.838 0 00-4.877 0c-1.774.149-2.79.352-3.049.61-.96 2.732 1.737 10.78 8.092 24.145 6.577 13.808 12.12 22.17 16.627 25.087 3.141 2.067 6.873 2.325 11.196.775 4.323-1.551 8.036-4.486 11.14-8.805 1.441-1.994 2.624-4.634 3.547-7.92.887-3.285 1.164-5.906.832-7.863l.886-.056z" fill="#0D131A"/><path d="M94.785 53.888c1.81 1.182 3.048 2.27 3.713 3.268.702 1.107.795 1.827.277 2.16-.517.295-1.127-.093-1.829-1.163-.443-.702-1.404-1.459-2.882-2.271-1.404-.775-2.328-1.108-2.771-.997-.37.37-.647 1.514-.831 3.434-.185 2.178-.148 4.707.11 7.587.148 1.44-.092 2.178-.72 2.215-.591.037-.942-.665-1.053-2.105-.702-8.233-.222-12.737 1.441-13.512.96-.443 2.476.018 4.545 1.384z" fill="#0D131A"/></g><defs><clipPath id="clip0_2621_443"><path fill="white" transform="translate(.675 .485)" d="M0 0h211.11v203.165H0z"/></clipPath></defs></svg>