<svg width="209" height="190" fill="none" xmlns="http://www.w3.org/2000/svg"><path d="M21.047 91.219c-6.918 5.56-12.198 11.731-15.84 18.514C2.283 115.171.82 120.013.82 124.259c0 5.545 2.126 11.197 6.377 16.956 4.099 5.56 9.28 10.059 15.542 13.496-1.417 1.512-2.43 2.719-3.04 3.62-.823 1.222-1.234 2.291-1.234 3.208 0 .306.137.687.411 1.146l.663 1.054c1.585 3.162 6.956 5.117 16.113 5.865 7.238.596 14.14.421 20.708-.527 4.8-.702 8.906-1.84 12.32-3.414.761-.336 2.947-1.588 6.559-3.757 1.584-.963 2.727-1.566 3.428-1.811a5.844 5.844 0 013.314-.229c15.618 3.346 27.534 4.476 35.747 3.391 4.235-.565 8.205-1.726 11.907-3.482 3.368-1.604 6.933-3.918 10.697-6.943 11.534-7.989 19.671-16.589 24.41-25.8 4.754-9.226 5.691-18.231 2.811-27.015-1.6-4.888-4.335-9.424-8.205-13.61-3.87-4.2-8.632-7.783-14.285-10.746-5.897-3.101-12.411-5.392-19.542-6.874-7.161-1.497-14.673-2.131-22.535-1.902-19.184.55-36.082 3.215-50.694 7.997-12.343 4.048-22.757 9.493-31.244 16.337z" fill="#0D131A"/><path d="M23.835 155.627c-.853.52-1.684 1.635-2.491 3.346-.884 1.833-1.09 3.223-.617 4.17 1.356 2.719 6.178 4.384 14.467 4.995 6.765.489 13.363.267 19.793-.665 4.815-.687 8.99-1.733 12.525-3.139 2.057-.809 4.396-2.008 7.017-3.597 1.722-1.023 2.971-1.673 3.748-1.948a7.482 7.482 0 013.977-.252c13.835 2.857 24.882 3.796 33.141 2.819 8.274-.993 16.334-4.209 24.181-9.647 11.261-7.805 19.214-16.176 23.862-25.112 4.662-8.952 5.607-17.674 2.834-26.167-3.246-9.93-10.758-17.888-22.536-23.876-11.778-5.988-25.355-8.76-40.729-8.317-27.229.794-48.606 4.98-64.133 12.556-15.527 7.592-26.886 19.408-34.078 35.447-3.306 7.347-1.859 15.344 4.343 23.99 2.27 3.162 4.975 6.11 8.113 8.844 2.636 2.292 4.922 3.911 6.857 4.858 2.712 1.344 3.688 2.07 2.926 2.177-.503.076-1.57-.084-3.2-.482z" fill="#5DC1CF"/><path d="M139.576 151.709l2.926-2.108c-8.441.015-18.148-1.046-29.118-3.185l-28.867-6.484a144.284 144.284 0 01-6.125 18.834 7.226 7.226 0 013.862-.229c13.836 2.857 24.883 3.796 33.141 2.819 8.274-.993 16.334-4.209 24.181-9.647zM21.48 133.539c-.518-2.368.008-4.896 1.577-7.584 1.417-2.429 3.406-4.552 5.966-6.37 2.529-1.818 4.936-2.856 7.222-3.116 2.484-.29 4.29.435 5.417 2.177-.32-.535-.183-1.406.411-2.612.625-1.268 1.646-2.643 3.063-4.125 3.55-3.681 8.075-6.606 13.576-8.775 6.933-2.75 14.315-3.735 22.147-2.956 9.585.962 19.321 4.552 29.21 10.769 3.946 2.474 8.099 3.154 12.456 2.039 3.505-.916 7.489-3.139 11.954-6.668 1.265-1.008 5.173-4.46 11.725-10.356 4.754-4.293 8.677-7.317 11.771-9.074-5.806-6.08-13.523-10.777-23.153-14.091-9.798-3.361-20.403-4.88-31.815-4.56-27.23.794-48.607 4.98-64.134 12.556-15.526 7.592-26.886 19.408-34.078 35.447-3.306 7.347-1.859 15.344 4.343 23.99 2.27 3.162 4.975 6.11 8.114 8.844 2.636 2.292 4.921 3.911 6.857 4.858 2.712 1.344 3.687 2.07 2.925 2.177-.503.076-1.57-.084-3.2-.482-.853.52-1.683 1.635-2.491 3.346-.884 1.833-1.09 3.223-.617 4.17.686 1.39 2.346 2.513 4.982 3.368 2.317.764 5.288 1.291 8.914 1.581.076-2.566.655-4.85 1.737-6.851.9-1.634 1.913-2.772 3.04-3.414-10.483-9.532-16.456-17.628-17.919-24.288z" fill="#50A8B4"/><path d="M28.155 164.014c-1.509 1.772-2.187 3.039-2.034 3.803.228 1.054.602 2.177 1.12 3.368.685 1.528 1.31 2.284 1.874 2.269 1.508-.031 3.154-.428 4.937-1.192a21.462 21.462 0 004.594-2.658c.228-.152.365-.328.411-.527.091-.366-.13-.908-.663-1.626-3.58-4.675-5.858-6.829-6.834-6.462-.838.321-1.973 1.329-3.405 3.025z" fill="#0D131A"/><path d="M28.634 164.999c-1.189 1.482-1.73 2.505-1.623 3.07.137.703.48 1.49 1.029 2.36.579.871 1.043 1.306 1.394 1.306.716 0 2.103-.313 4.16-.939 2.24-.703 3.58-1.314 4.022-1.833-.076-.443-.663-1.367-1.76-2.773-1.219-1.542-2.331-2.65-3.337-3.322-.518-.351-.868-.504-1.051-.458-.716.275-1.66 1.138-2.834 2.589z" fill="white"/><path d="M31.445 162.433c-.716.29-1.66 1.153-2.834 2.589-1.173 1.481-1.706 2.497-1.6 3.047.137.626.435 1.322.892 2.085.67-2.612 1.851-5.186 3.542-7.721z" fill="#DBDCDC"/><path d="M16.75 159.912c-2.15 2.139-3.07 3.59-2.766 4.354.594 1.466 2.43 2.428 5.508 2.887 1.204.183 2.24.206 3.108.068.9-.137 1.318-.404 1.258-.802-.153-1.023-.564-2.81-1.235-5.361-.655-2.536-1.044-3.827-1.165-3.873-.976-.366-2.545.543-4.709 2.727z" fill="#0D131A"/><path d="M22.44 165.48l.046-.412c0-.749-.266-1.986-.8-3.712-.472-1.558-.86-2.605-1.165-3.139-.564.336-1.478 1.252-2.743 2.749-1.326 1.574-1.988 2.605-1.988 3.093v.023c.03.306.502.672 1.417 1.1.99.474 2.011.772 3.062.894 1.28.153 2.004-.046 2.172-.596z" fill="#DBDCDC"/><path d="M41.228 156.865l-9.325-.779c-.9-.123-1.334-.031-1.303.275.03.275.373.557 1.028.847.838.382 3.84.65 9.005.802 5.684.184 9.44-.091 11.268-.824l-.205-.619c-1.478.489-4.968.588-10.468.298zM40.498 108.037c-.168-1.024-.381-1.535-.64-1.535-.274 0-.396.511-.366 1.535.29 7.256 1.913 13.228 4.869 17.918 3.154 4.995 8.052 8.883 14.696 11.663l.388-.94c-5.957-2.49-10.56-6.667-13.805-12.533-2.377-4.293-4.09-9.662-5.142-16.108zM113.224 60.767l-.48.435 21.416 15.054c.366.23 4.084 1.482 11.154 3.758 7.146 2.276 10.879 3.384 11.199 3.323.274-.062.975-2.086 2.103-6.072l2.308-8.272 2.72 16.383c6.4 1.94 9.737 2.803 10.011 2.589.152-.122.228-1.543.228-4.262l.046-7.355 2.948 13.565 3.2 1.03c2.179.658 3.391.887 3.634.688.244-.198.572-1.451.983-3.758l.96-5.338 2.948 10.425c2.774 1.39 4.335 1.948 4.686 1.673.198-.153.35-1.008.457-2.566l.297-3.942 2.103 7.493c3.885.901 5.904 1.214 6.057.94.106-.184-.404-1.727-1.532-4.629l-2.514-6.507 8.96 8.982c.563.534.876.61.937.229l-.092-.756-4.228-12.305-8.297-4.422 6.926 1.879-5.874-7.722-9.988-4.445 5.462 1.1c2.088.428 3.185.565 3.292.412.121-.168-1.638-1.787-5.28-4.857-3.627-3.04-5.646-4.629-6.057-4.766l-4.228-.32-6.148-.299c1.752-.61 3.215-1.23 4.388-1.856l.823-.344c.03-.045-.259-.229-.869-.55-11.991-6.247-23.617-8.997-34.878-8.248-11.778.779-21.705 5.323-29.781 13.633z" fill="#0D131A"/><path d="M176.512 55.887c-12.175-5.56-23.526-7.898-34.055-7.012-10.544.871-19.9 4.942-28.067 12.213l21.256 14.344c13.15 4.552 19.884 6.759 20.204 6.621.229-.106 1.052-2.436 2.469-6.988 1.417-4.567 2.179-7.37 2.285-8.41.122-1.068.29-1.458.503-1.168.244.29.579 1.383 1.006 3.277.594 2.581 1.402 7.844 2.423 15.787l8.136 2.13.343-14.595c.046-1.222.122-1.863.229-1.924.121-.092.38.519.777 1.833.563 1.848 1.798 7.546 3.702 17.093l5.234 1.306c1.143-4.629 1.859-7.99 2.149-10.082.198-1.39.373-2.001.525-1.833l.457 1.81 3.315 11.8 2.948.596.48-2.956c.274-1.741.465-3.1.571-4.078.122-1.176.229-1.764.32-1.764.092.015.313.58.663 1.695.442 1.467 1.295 4.514 2.56 9.142l3.725.573-4.228-11.685c-.396-1.024-.381-1.421.046-1.192l.777.665 9.028 9.05-3.383-9.852c-6.293-3.483-10.254-5.591-11.885-6.324-2.605-1.192-2.483-1.505.366-.94 1.234.245 2.743.626 4.525 1.146l3.84 1.123-3.908-5.156-5.943-2.635-7.519-3.368c-1.25-.565-1.882-.894-1.897-.985-.015-.138.708-.13 2.171.022l4.754.757 4.366.825-8.274-7.012-5.828-.32-6.811-.413c-.808-.076-1.219-.168-1.235-.275 0-.107.366-.344 1.097-.71.458-.23 1.334-.55 2.629-.963 1.356-.427 2.407-.817 3.154-1.168z" fill="#00A63C"/><path d="M159.188 61.248c.411 0 1.02-.45 1.828-1.351l2.606-2.865c2.651-2.673 5.317-3.75 7.999-3.23-11.169-4.37-21.591-5.935-31.267-4.697-9.69 1.222-18.345 5.216-25.964 11.983l20.57 13.885c2.576-3.635 6.111-6.751 10.606-9.348 4.647-2.704 9.188-4.163 13.622-4.377z" fill="#009233"/><path d="M124.628 56.276l-4.274 3.758 1.669.435c1.28-.427 3.017-.825 5.211-1.191 4.343-.703 8.929-.901 13.759-.596 15.344.962 30.193 6.76 44.546 17.391l1.166.848c.563.32.312-.13-.755-1.352-6.613-7.622-15.161-13.228-25.644-16.818-11.351-3.88-23.244-4.705-35.678-2.475z" fill="#0D131A"/><path d="M122.617 59.415c8.762-1.833 16.632-2.29 23.61-1.374 10.926 1.436 22.422 6.072 34.49 13.908-6.613-6.202-14.75-10.617-24.41-13.244-10.011-2.734-20.57-3.238-31.678-1.512l-.389.733c-.365.55-.906 1.046-1.623 1.49z" fill="#00A63C"/><path d="M124.628 57.193l-.389.733c-.365.55-.906 1.046-1.622 1.49 5.851-1.238 11.024-1.864 15.519-1.88 6.704-.045 13.5 1.077 20.387 3.369l1.44-1.1c-5.303-1.787-10.902-2.91-16.799-3.368-6.064-.474-12.243-.222-18.536.756z" fill="#009233"/><path d="M74.026 43.514l-.16.068-.092.16c-1.158 1.712-1.767 3.522-1.828 5.431-.076 1.925.404 3.78 1.44 5.568 2.072 3.575 5.904 6.37 11.496 8.386 6.659 2.383 14.849 3.208 24.57 2.475 1.295-.107 2.11-.665 2.446-1.673.442-1.329-.092-3.223-1.6-5.682-1.509-2.444-3.65-4.896-6.423-7.355-3.58-3.178-7.405-5.599-11.473-7.264-6.69-2.75-12.815-2.788-18.376-.114z" fill="#00A63C"/><path d="M74.781 44.66c-1.005 1.542-1.508 3.161-1.508 4.857 0 1.558.426 3.07 1.28 4.537 1.95 3.376 5.622 6.01 11.016 7.905 6.415 2.23 14.346 2.994 23.793 2.291.701-.046 1.12-.298 1.257-.756.335-.947-.175-2.498-1.531-4.651-1.463-2.307-3.497-4.621-6.103-6.943-3.398-3.01-7.024-5.324-10.88-6.943-6.338-2.642-12.113-2.742-17.324-.298z" fill="#009233"/><path d="M93.613 25.802c-2.057 1.07-3.413 2.429-4.068 4.078-2.362 6.019-3.657 11.442-3.886 16.269-.259 5.24.648 11.044 2.72 17.414.488 1.512 1.653 2.917 3.497 4.216 1.92 1.374 4.282 2.406 7.085 3.093 3.916.962 7.71 1.16 11.382.596 4.45-.688 7.832-2.475 10.148-5.362 4.465-5.606 5.996-12.915 4.594-21.928a47.511 47.511 0 00-2.468-9.371c-.869-2.383-1.691-4.186-2.468-5.408-1.341-2.154-3.962-3.75-7.863-4.789-3.504-.931-7.146-1.222-10.925-.87-3.108.305-5.69.993-7.748 2.062z" fill="#0D131A"/><path d="M90.802 30.384c-2.27 5.76-3.505 11.19-3.703 16.292-.228 5.33.64 10.86 2.606 16.589.427 1.237 1.478 2.428 3.154 3.574 1.768 1.192 3.916 2.1 6.445 2.727 3.794.947 7.398 1.176 10.811.687 4.267-.596 7.383-2.268 9.348-5.018 3.84-5.377 5.15-12.38 3.931-21.011a50.065 50.065 0 00-2.171-8.982c-.792-2.337-1.524-4.048-2.194-5.132-1.219-1.94-3.642-3.369-7.268-4.285-3.291-.825-6.72-1.07-10.285-.733-2.804.26-5.143.855-7.017 1.787-1.89.947-3.108 2.115-3.657 3.505z" fill="#C28600"/><path d="M90.803 30.384c-1.92 4.904-3.101 9.54-3.543 13.909-.442 4.567-.122 9.188.96 13.862 6.004-4.567 12.106-8.531 18.307-11.892 8.107-4.368 13.569-5.972 16.388-4.811a48.26 48.26 0 00-2.034-7.195c-.686-1.864-1.303-3.246-1.851-4.147-1.219-1.94-3.642-3.369-7.269-4.285-3.291-.825-6.719-1.07-10.285-.733-2.803.26-5.142.855-7.016 1.787-1.89.947-3.109 2.115-3.657 3.505z" fill="#986A00"/><path d="M96.332 37.35c-.183-.061-.914.695-2.194 2.268l-2.194 2.727c-1.448-2.001-2.682-3.567-3.703-4.697l-.457-.504-.114.687c-.427 2.368-.876 4.438-1.349 6.21-.183 1.069-.091 2.795.275 5.178l-.115 2.177.595.893 1.21 2.887 1.852 4.24.366.71 2.811-8.318 3.977 7.951 3.406-6.14 3.976 6.002 4-5.338 3.429 6.874 3.451-7.562 3.68 4.308.639.619.618-.756 3.976-5.843v-.115c.077-4.69-.556-9.608-1.897-14.756l-.182-.664-2.972 3.964-1.782-1.948c-1.021-1.1-1.654-1.62-1.897-1.558-.244.061-.678 1.39-1.303 3.987l-1.097 4.651-2.583-4.285c-1.432-2.413-2.24-3.627-2.423-3.643-.183-.015-.731.894-1.645 2.727l-1.623 3.253-1.76-3.139c-.975-1.771-1.554-2.673-1.737-2.703-.198-.03-.724 1-1.577 3.093l-1.623 3.987-.983-4.124c-.502-2.14-.853-3.239-1.05-3.3z" fill="#0D131A"/><path d="M88.22 38.656c-.64 3.62-.96 6.492-.96 8.615l.068 1.856.343 2.177c.091.138.472 1.161 1.142 3.07l1.555 4.01 1.463-5.018c.792-2.719 1.234-4.07 1.325-4.055.107 0 .77 1.374 1.989 4.124l2.17 4.88 1.806-3.872c.96-2.123 1.494-3.154 1.6-3.093.092.061.732 1.176 1.92 3.345l2.08 3.758 2.263-3.552c1.31-2.016 2.019-2.986 2.125-2.91.107.077.572 1.245 1.395 3.506l1.577 4.102 1.691-4.423c.929-2.444 1.455-3.704 1.577-3.78.122-.077.792.794 2.011 2.612l2.126 3.139 4.297-5.453.023-.596c0-4.124-.572-8.516-1.715-13.175l-1.074 1.718-.914 1.513-.457.595c-.092.061-.267-.038-.526-.297-1.371-1.375-2.323-2.269-2.857-2.681l-1.234 4.284c-.747 2.49-1.242 3.789-1.486 3.896-.228.107-1.112-.986-2.651-3.277l-2.628-4.01-1.577 2.841c-.884 1.528-1.417 2.284-1.6 2.269-.183-.015-.739-.733-1.669-2.154l-1.691-2.704-1.943 3.575-1.577 3.024-2.194-7.263-4.137 4.124-.228-.32-1.189-1.582-2.24-2.818z" fill="#C28600"/><path d="M118.596 40.947c-1.189-1.176-1.966-1.901-2.332-2.176l-.868 3.093 3.2-.917zM122.091 37.923c-.336.458-.861 1.337-1.578 2.635l2.103-.298-.525-2.337zM96.014 39.252l-4.137 4.124-.229-.32-1.188-1.582-2.24-2.818c-.64 3.62-.96 6.492-.96 8.615l.069 1.856.343 2.177.89 2.337 1.327 3.643 1.028-.71c1.387-4.857 2.133-7.279 2.24-7.263.107 0 .785 1.397 2.034 4.193 3.291-2.383 5.828-4.155 7.611-5.316 2.88-1.864 5.569-3.376 8.068-4.537l-2.605-3.987-1.577 2.841c-.884 1.528-1.418 2.284-1.6 2.269-.183-.015-.739-.733-1.669-2.154l-1.691-2.704-1.943 3.575-1.577 3.024-2.194-7.263z" fill="#986A00"/><path d="M90.367 58.384l.548-1.81-1.029.71.48 1.1z" fill="#C28600"/><path d="M53.044 16.476l-.686.917 50.671 7.744 49.117-12.258-3.839-4.262c-2.712-2.673-4.678-3.918-5.897-3.735-.366.061-1.044.306-2.034.733l-2.606 1.1 1.577-1.741c.534-.626.64-1.008.32-1.146-1.6-.764-3.847-1.52-6.742-2.268-4.739-1.253-8.838-1.658-12.297-1.215-4.556.596-10.605 5.217-18.147 13.863-1.981-3.36-3.413-5.675-4.297-6.943-2.407-3.422-4.495-5.46-6.262-6.118C89.804.353 86.855-.029 83.076.002c-3.413.03-5.233.229-5.462.595-.122.214.175.94.891 2.177l1.532 2.658c-4.069-2.306-6.56-3.437-7.474-3.391-2.804.214-6.842 2.62-12.114 7.218-3.672 3.192-6.14 5.598-7.405 7.217z" fill="#0D131A"/><path d="M63.536 8.617c-4.175 3.254-7.07 5.85-8.686 7.79l48.112 7.355 47.151-11.433a25.056 25.056 0 00-3.017-3.277c-1.569-1.436-3.001-2.33-4.297-2.68-1.188.336-3.436 1.153-6.742 2.451l-2.24.894 4.114-5.43a54.497 54.497 0 00-7.085-1.948c-3.886-.81-7.23-1.031-10.034-.665-3.047.397-6.895 2.735-11.542 7.012-2.331 2.138-4.373 4.262-6.125 6.37l-.64.756-.48-.848-3.657-5.705c-2.773-3.88-5.082-6.164-6.925-6.851-1.829-.703-4.076-1.108-6.743-1.215-2.255-.092-4.114.023-5.577.344.808.977 1.547 2.138 2.217 3.483l.8 1.81.595 1.741-1.578-.916-3.542-2.177c-2.438-1.436-3.931-2.184-4.48-2.246-1.6-.152-4.8 1.643-9.6 5.385z" fill="#E85382"/><path d="M59.238 12.169c-2.133 1.878-3.596 3.291-4.389 4.238l48.112 7.356 44.157-10.7c-6.902-.138-12.289-.077-16.159.182-5.958.367-11.352 1.245-16.182 2.636 1.372-3.85 3.223-7.104 5.554-9.761 2.027-2.322 4.046-3.812 6.057-4.469-2.042-.198-3.901-.19-5.577.023-3.047.398-6.895 2.735-11.542 7.012-2.331 2.138-4.373 4.262-6.125 6.37l-.64.756-.023-.046c-.823 1.146-1.653 1.856-2.491 2.13-2.393.673-4.777.597-7.154-.228-1.478-.504-3.741-1.688-6.788-3.552-3.368-2.047-6.141-3.528-8.32-4.445-3.672-1.543-7.58-2.513-11.725-2.91-2.164 1.543-4.419 3.345-6.765 5.408z" fill="#C94772"/><path d="M94.3 7.7a7.273 7.273 0 00-2.058 1.696 6.688 6.688 0 00-.982 1.398c-.26.52-.343.901-.252 1.145.122.306.823.665 2.103 1.077 1.447.443 2.872.657 4.274.642 1.66-.03 3.002-.39 4.023-1.077l.205-.137-.137-.207a57.939 57.939 0 00-3.405-4.926l-.069-.069-.069-.023c-1.234-.305-2.445-.145-3.634.482z" fill="#0D131A"/><path d="M93.02 9.281c-.473.474-.862.97-1.167 1.49-.243.443-.365.756-.365.94v.022c.076.122.38.29.914.504l2.103.596 2.88.298c1.432-.03 2.605-.313 3.519-.848C99.777 10.526 98.718 9 97.727 7.7c-.96-.229-1.912-.13-2.857.298-.67.29-1.287.718-1.85 1.283z" fill="#FCEEF4"/><path d="M75.215 8.25c-.259-.152-.815-.023-1.668.39-1.66.794-3.345 1.993-5.051 3.597-2.18 2.093-3.535 4.193-4.069 6.301l-.068.252 8.662 1.33.092-.024c1.813-.87 3.215-2 4.205-3.39.747-.978.922-2.307.526-3.987a10.792 10.792 0 00-1.257-2.91c-.534-.856-.99-1.375-1.372-1.559z" fill="#0D131A"/><path d="M75.009 8.709c-.183-.092-.716.091-1.6.55-1.676.87-3.284 2.062-4.823 3.574-1.858 1.848-3.055 3.697-3.588 5.545l7.954 1.237c1.722-.855 3.047-1.924 3.977-3.207.411-.55.617-1.246.617-2.086 0-.458-.069-.947-.206-1.466a10.163 10.163 0 00-1.188-2.796c-.473-.779-.854-1.23-1.143-1.351z" fill="#D9CED4"/><path d="M77.888 4.813l.07.527c.167.978.51 1.918 1.028 2.819.609 1.054 1.318 1.772 2.125 2.154l3.543.091c1.204-.29 2.163-.695 2.88-1.214.38-.29.563-.565.548-.825a11.928 11.928 0 00-.457-2.04c-.396-1.344-.868-2.03-1.417-2.061l-1.326-.115-4.525-.275h-.434l.228.39c.534.87.975 1.74 1.326 2.612l-3.589-2.063z" fill="#0D131A"/><path d="M86.186 4.768l-1.349-.115-3.817-.252c.29.535.557 1.092.8 1.673l.32.756.595 1.741-4.023-2.451a6.783 6.783 0 001.006 2.085c.472.687 1.013 1.168 1.623 1.443.746.351 1.737.42 2.97.206 1.128-.183 2.05-.511 2.766-.985l.503-.458a10.711 10.711 0 00-.526-2.269c-.32-.9-.61-1.36-.868-1.374z" fill="#FCEEF4"/><path d="M113.91 4.218l-.297.206.274.229c1.188.901 2.88 1.963 5.074 3.185 2.605 1.466 4.167 2.093 4.685 1.879.534-.214.991-.863 1.372-1.948.426-1.222.381-2.253-.138-3.093-.441-.703-1.081-1.36-1.919-1.97a8.12 8.12 0 00-3.132-1.398l-.045-.023-.069.023c-1.706.473-3.642 1.443-5.805 2.91z" fill="#0D131A"/><path d="M123.371 8.892c.336-.122.64-.573.915-1.352.167-.565.251-1.062.251-1.49 0-.427-.084-.794-.251-1.1-.381-.625-.968-1.213-1.76-1.763-.869-.611-1.783-1.024-2.743-1.238-1.508.413-3.215 1.253-5.12 2.52 1.204.871 2.857 1.85 4.96 2.934 2.179 1.13 3.428 1.626 3.748 1.489z" fill="#FCEEF4"/><path d="M117.589 6.303a36.947 36.947 0 015.12-2.979c-.945-.703-1.92-1.16-2.926-1.375-1.508.413-3.215 1.253-5.119 2.52.792.581 1.767 1.192 2.925 1.834z" fill="#D9CED4"/><path d="M133.59 4.447c-1.844-.122-3.01.03-3.497.458-.396.351-.526 1.008-.389 1.97.137.932.488 1.872 1.052 2.819 1.417 2.413 3.085 3.3 5.005 2.658 1.798-.458 3.131-2.238 4-5.339l-.16-.527-3.063 1.169 1.463-1.925-.206-.16c-.868-.642-2.27-1.016-4.205-1.123z" fill="#0D131A"/><path d="M133.063 4.95c-1.462-.03-2.346.085-2.651.345-.152.168-.106.718.137 1.65a9.555 9.555 0 001.257 2.864c1.097 1.665 2.347 2.26 3.749 1.787h.023c1.356-.336 2.384-1.597 3.085-3.78l-4.845 1.9 3.062-4.055c-.944-.427-2.217-.664-3.817-.71z" fill="#FCEEF4"/><path d="M106.459 20.83l-.366.183v9.188l.8-.16c7.497-.672 16.205-.489 26.124.55 19.778 2.092 36.151 7.362 49.117 15.81l2.172 1.42c.442.184.594-.198.457-1.145-.564-3.758-1.669-8.15-3.314-13.175-1.463-4.46-2.415-6.882-2.857-7.264-.259-.214-1.25-.733-2.971-1.558l-5.28-2.566 5.531 1.42c1.981.505 2.925.642 2.834.413-.213-.52-1.234-2.055-3.063-4.606-2.026-2.826-3.359-4.399-3.999-4.72-9.447-4.888-21.812-5.896-37.095-3.024-5.592 1.054-11.207 2.566-16.845 4.537-4.495 1.573-8.243 3.139-11.245 4.697z" fill="#0D131A"/><path d="M107.442 21.838v6.736c8.091-1.344 17.18-1.481 27.267-.412 17.949 1.925 34.108 7.66 48.477 17.208-.503-2.536-1.517-6.095-3.04-10.678-.96-2.933-1.836-5.423-2.629-7.47l-5.165-2.818-6.377-3.597-1.783-1.169c-.106-.137.29-.137 1.189 0l5.028 1.054 5.417 1.238c-1.966-2.964-3.619-5.026-4.96-6.187-12.388-4.002-25.286-4.774-38.694-2.314-8.731 1.619-16.975 4.422-24.73 8.409z" fill="#E85382"/><path d="M120.468 16.453c-4.602 1.497-8.945 3.292-13.028 5.385v6.736c5.638-.916 12.06-1.245 19.267-.985 1.067-3.223 2.804-6.179 5.211-8.867a28.962 28.962 0 018.114-6.347c-6.552.595-13.073 1.955-19.564 4.078z" fill="#C94772"/><path d="M139.348 11.596l-.115.023-.068.068-2.903 3.69c-.701.992-1.021 1.657-.96 1.993l.16.298c10.438 3.528 16.106 5.125 17.005 4.788.716-.244 2.316-1.283 4.799-3.116 2.789-2.031 4.099-3.368 3.932-4.01-.092-.32-.526-.672-1.303-1.053l-2.446-1.054c-1.721-.688-2.948-1.284-3.679-1.788l-.046-.046h-.069a81.556 81.556 0 00-14.307.207z" fill="#0D131A"/><path d="M139.669 12.398c-2.301 2.795-3.452 4.407-3.452 4.834.564.321 3.215 1.146 7.954 2.475 4.83 1.375 7.459 2.001 7.885 1.879.762-.29 2.255-1.26 4.48-2.91 2.301-1.711 3.451-2.773 3.451-3.185v-.023c-.045-.214-.381-.481-1.005-.802l-1.966-.87c-1.402-.596-2.43-1.085-3.085-1.467-4.617-.397-9.371-.374-14.262.069z" fill="#FCEEF4"/><path d="M159.096 25.229c-1.539.351-2.72.657-3.543.916-.762.23-1.272.749-1.531 1.559-.107.336-.16.733-.16 1.191 0 .672.122 1.367.366 2.085.228.688.533 1.268.914 1.742l.045.068.092.023a107.035 107.035 0 019.988 3.552l.457.252 3.2-3.598c2.103-2.459 3.085-3.818 2.948-4.078-.274-.474-1.592-1.337-3.954-2.59-2.499-1.328-4.175-1.947-5.028-1.855l-3.794.733z" fill="#0D131A"/><path d="M155.667 32.424a114.157 114.157 0 019.486 3.368l2.399-2.68c2.088-2.246 3.132-3.545 3.132-3.896v-.023c-.214-.382-1.364-1.13-3.452-2.245-2.194-1.177-3.649-1.727-4.365-1.65l-3.611.687c-1.478.352-2.613.65-3.406.894-.579.183-.96.58-1.143 1.191-.106.306-.16.642-.16 1.008 0 .58.107 1.184.32 1.81a5.84 5.84 0 00.8 1.536z" fill="#FCEEF4"/><path d="M34.165 27.566c-.7 3.957-.891 6.301-.571 7.034.137.321.96.084 2.468-.71l4.137-2.177-4.96 4.88c-1.95 1.926-3.001 3.11-3.154 3.552-.183.52.023 1.895.617 4.125.564 2.184.998 3.399 1.303 3.643.396.336 1.989-.42 4.777-2.268l-2.514 3.368c-.853 1.145-1.288 1.81-1.303 1.993 0 .29 1.211 1.176 3.634 2.658 5.486-5.621 12.205-10.8 20.159-15.535 15.862-9.44 30.291-12.266 43.289-8.478l.571.16.229-.55c.503-1.16.731-2.688.685-4.582l-.251-2.612-.046-.23-.183-.16c-2.118-1.894-5.241-3.818-9.37-5.774a67.03 67.03 0 00-15.885-5.224c-15.161-2.978-28.547-.344-40.158 7.905-1.508 1.467-2.666 4.46-3.474 8.982z" fill="#0D131A"/><path d="M41.983 43.49l-5.257 7.356 1.394 1.398c6.506-6.416 13.92-11.938 22.239-16.567 15.07-8.416 28.874-10.914 41.414-7.492.274-.932.412-1.917.412-2.956 0-.978-.061-1.871-.183-2.68-2.149-1.85-5.288-3.705-9.417-5.569a65.592 65.592 0 00-15.633-4.88c-14.78-2.658-27.564.114-38.352 8.317-.975 1.238-1.798 3.277-2.468 6.118-.427 1.802-.762 3.773-1.006 5.912l7.634-3.323c1.264-.534 1.92-.695 1.965-.48.03.167-.373.694-1.211 1.58l-9.92 10.31 1.532 5.913c.487-.321 1.371-.802 2.651-1.444l2.903-1.466c.975-.611 1.562-.963 1.76-1.054.29-.138.137.198-.457 1.008z" fill="#E85382"/><path d="M66.575 11.16c3.124 1.818 5.859 4.209 8.206 7.172 2.316 2.933 4.022 6.14 5.12 9.624 7.74-1.711 15.03-1.635 21.872.229.274-.932.412-1.917.412-2.956 0-.978-.061-1.871-.183-2.68-2.971-2.567-7.398-4.958-13.28-7.173-7.466-2.826-14.848-4.23-22.147-4.216zM42.76 29.124c1.264-.534 1.92-.695 1.965-.48.03.167-.373.694-1.212 1.58l-2.422 2.52c4.693-3.574 9.31-6.72 13.85-9.44-6.323-.519-12.479.115-18.467 1.902-.579 2.093-1.028 4.506-1.348 7.24l7.633-3.322z" fill="#C94772"/><path d="M49.433 13.59l-.137.045-.023.138c-.213.84-.099 2.169.343 3.986l.777 2.59c.183.519 1.577 1.092 4.183 1.718 2.925.703 5.302.726 7.13.069.686-.245 1.738-1.047 3.155-2.406 1.432-1.375 2.21-2.337 2.331-2.887.046-.23.069-.458.069-.688 0-1.665-1.28-3.482-3.84-5.453l-.069-.046h-.114c-4.845.321-9.447 1.299-13.805 2.933z" fill="#0D131A"/><path d="M54.85 21.265c2.666.565 4.845.55 6.537-.046.64-.229 1.622-.94 2.948-2.13 1.31-1.177 2.011-1.964 2.103-2.36l.045-.55c0-1.452-1.142-3.063-3.428-4.835-4.586.32-8.937 1.237-13.05 2.75l-.07.71c0 .717.138 1.642.412 2.772l.755 2.475c.426.366 1.676.771 3.748 1.214z" fill="#FCEEF4"/><path d="M48.245 33.272c-1.66-.184-2.704-.107-3.131.229-.488.397-1.051 1.634-1.691 3.712-.67 2.215-1.006 4.131-1.006 5.75v.322l.32-.07c1.89-.366 3.878.016 5.965 1.146l.138.07 3.794-2.75-.023-.16c-.122-.55-.1-1.528.068-2.934.122-.962.175-1.65.16-2.062-.03-.687-.213-1.214-.548-1.58-.808-.902-2.156-1.46-4.046-1.673z" fill="#0D131A"/><path d="M51.857 40.49l.183-1.949.137-1.695c0-.657-.13-1.138-.389-1.444-.7-.779-1.874-1.23-3.52-1.352-1.386-.106-2.255-.03-2.605.23-.411.32-.914 1.36-1.509 3.116-.655 1.94-1.005 3.666-1.051 5.178 1.813-.29 3.695.084 5.645 1.123l3.2-2.314-.091-.894z" fill="#FCEEF4"/><path d="M73.386 17.76c-.426.366-1.097 1.221-2.011 2.566-1.067 1.542-1.547 2.566-1.44 3.07.122.626 1.173 1.13 3.154 1.512a22.09 22.09 0 005.874.367h.114l2.789-2.979c1.843-2.047 2.727-3.246 2.65-3.597a.514.514 0 00-.365-.436l-5.302-.55c-3.322-.229-5.143-.213-5.463.046z" fill="#0D131A"/><path d="M71.947 20.67c-.93 1.39-1.364 2.252-1.303 2.588.061.337.9.657 2.514.963l5.623.343 1.417-1.397 2.331-2.36c.869-.947 1.303-1.574 1.303-1.88l-.023-.045-.046-.069-5.005-.504c-3.002-.183-4.655-.198-4.96-.046-.38.336-.998 1.138-1.851 2.406z" fill="#FCEEF4"/><path d="M74.278 18.195l2.126 3.185c.945 1.344 1.63 2.405 2.057 3.184h.32l1.417-1.397 2.331-2.36c.869-.947 1.303-1.574 1.303-1.88l-.023-.045-.046-.069-4.228-.458-5.257-.16z" fill="#D9CED4"/><path d="M84.037 9.007l.48 2.039c1.6 5.88 3.108 11.082 4.525 15.604.503 1.619 2.575 2.849 6.217 3.689 2.514.565 5.981.97 10.399 1.214l10.971-.344c3.931-.58 6.255-1.703 6.971-3.368 1.311-3.01 2.499-6.5 3.566-10.471 1.051-3.987 1.31-5.927.777-5.82l-4.229.55-4.342.596a106.232 106.232 0 00-.869-4.469c-.503-2.444-.861-3.857-1.074-4.238-.213-.367-1.295.45-3.245 2.451l-3.566 3.78c-.411-.549-1.387-1.725-2.925-3.528l-2.652-3.001c-.167-.122-.685.588-1.554 2.13l-1.76 3.186-2.948-3.117c-1.524-1.588-2.347-2.367-2.469-2.337-.137.03-.487.924-1.051 2.681l-1.211 3.712-2.446-2.979c-1.173-1.39-1.874-2.047-2.103-1.97-.228.091-.533.87-.914 2.337l-.731 2.979-1.6-.665c-.777-.305-1.326-.55-1.646-.733-.38-.214-.571-.183-.571.092z" fill="#0D131A"/><path d="M86.666 11.275l4.136 14.114c.381 1.177 1.974 2.223 4.777 3.14 2.804.9 6.187 1.458 10.148 1.672 4.084.23 7.619.023 10.605-.619 2.987-.626 4.747-1.542 5.28-2.75 1.615-3.665 3.261-8.439 4.937-14.32l-8.251 1.787-.617-3.826c-.427-2.612-.693-4.056-.8-4.33-.107-.29-.869.297-2.286 1.764l-2.925 3.23-.892 1.123-.777-.618c-.609-.657-2.163-2.666-4.662-6.027-.122-.183-.724.62-1.806 2.406l-1.577 2.727-5.097-4.72c-.106-.107-.518.94-1.234 3.139l-1.051 3.345-2.08-2.383c-1.417-1.604-2.217-2.436-2.4-2.497-.183-.061-.472.672-.869 2.2l-.525 2.314-2.034-.871z" fill="#D7A400"/><path d="M86.163 10.863l-.891-.848.343 1.191 4.228 14.481c.488 1.543 2.362 2.826 5.623 3.85 2.88.9 6.277 1.459 10.193 1.672 4.038.23 7.588.03 10.651-.595 3.474-.703 5.554-1.826 6.24-3.369 1.539-3.528 3.199-8.363 4.982-14.504l-.983-.595c-.838.931-2.041 2.077-3.611 3.437l-2.971 2.405-2.56-3.07c-1.554-1.879-2.407-2.841-2.56-2.887-.152-.03-1.348 1.169-3.588 3.597l-3.748 4.148-1.646-4.125c-.975-2.367-1.585-3.574-1.828-3.62-.244-.03-.793.794-1.646 2.475l-1.783 3.505-2.56-3.437c-1.508-1.97-2.384-2.917-2.628-2.84-.244.076-.747 1.053-1.509 2.932l-1.37 3.322c-2.926-3.467-5.052-5.842-6.378-7.125z" fill="#0D131A"/><path d="M92.334 18.79c-.884-.763-2.865-2.75-5.943-5.957l1.897 5.98 2.194 6.691c.457 1.436 2.034 2.856 4.731 4.262 3.063 1.604 6.484 2.505 10.263 2.703 3.931.214 7.588-.32 10.97-1.603 3.033-1.161 4.861-2.46 5.486-3.896 1.432-3.284 2.956-7.668 4.571-13.152-1.6 1.497-3.604 3.155-6.011 4.972-.335.29-.61.413-.823.367-.183-.03-.404-.252-.663-.664-.213-.336-.952-1.2-2.217-2.59l-2.171-2.314-3.588 3.85c-2.24 2.337-3.482 3.498-3.726 3.482-.244-.015-.815-1.084-1.714-3.207l-1.623-3.896-1.623 2.979c-.868 1.558-1.417 2.345-1.645 2.36-.214.015-1.029-.848-2.446-2.59l-2.445-3.092-1.28 2.428-1.189 2.498c-.167.443-.29.68-.365.71-.107.061-.32-.046-.64-.32z" fill="#F9BE00"/><path d="M59.535 57.536c-7.283 2.093-11.9 3.567-13.85 4.423-1.143.488-1.615.832-1.417 1.03l1.645.528 7.132 2.176-7.086-1.168-4.205-.527c-.549.061-2.05 1.1-4.503 3.116-2.392 1.955-3.573 3.04-3.542 3.254.015.153 1.112.603 3.29 1.352l5.44 1.879-6.833.091-4.686.23c-.29.137-.96 1.053-2.011 2.749-1.036 1.68-1.531 2.635-1.486 2.864.046.168.854.382 2.423.642l4.685.756-5.142.023-2.766.091c-.274.092-1.135.986-2.582 2.681-1.478 1.711-2.172 2.696-2.08 2.956.06.214.731.382 2.011.504l3.657.39-4.366.343-2.377.321c-.213.168-.464 1.65-.754 4.445-3.733 6.69-5.53 10.166-5.394 10.426.077.152 1.63-.375 4.663-1.581l5.965-2.406-4.068 7.401c-2.164 3.971-3.177 6.011-3.04 6.117l3.817-.274c2.423-.352 3.771-.68 4.045-.986.229-.244.77-1.573 1.623-3.987l1.943-5.476-.663 4.949c-.228 1.818-.282 2.811-.16 2.979.137.214 1.615-.092 4.434-.916 2.789-.81 4.274-1.352 4.457-1.627l1.006-2.589 1.622-4.537-.571 4.124c-.213 1.436-.244 2.2-.091 2.291.243.168 3.42-1.382 9.53-4.651l.046-.229L51.56 92.8l-.206 5.865c-.076 2.215-.007 3.361.206 3.437.244.062 1.143-.374 2.697-1.306l2.445-1.512 3.04.023c1.95-.061 3.055-.267 3.314-.619.229-.336.61-1.97 1.143-4.903l1.44-7.79-.023 7.446c0 2.72.107 4.094.32 4.125.122.015 1.836-.543 5.143-1.673l9.553-3.23.046-.596 3.817-1.444 3.428-1.192c.549-.122.877-.358.983-.71.137-.428.153-1.398.046-2.91a39.87 39.87 0 01-.069-4.078l.16-3.941 1.966 5.911c.777 2.215 1.326 3.315 1.645 3.3.519-.016 3.962-1.734 10.331-5.156l-1.942-9.532c2.895 2.689 5.386 4.812 7.473 6.37 3.063 2.246 5.006 3.078 5.829 2.498 3.215-2.139 5.317-4.316 6.308-6.53.746-1.68.823-3.323.228-4.927-1.219-3.284-4.731-5.98-10.536-8.088-5.348-1.94-10.278-2.658-14.788-2.154l-2.102-1.26a39.153 39.153 0 00-4.137-2.108c-4.343-1.894-8.503-2.72-12.48-2.475-3.154.199-8.921 1.497-17.302 3.895z" fill="#0D131A"/><path d="M42.027 65.075l-6.285 4.972c4.739 1.665 7.9 2.834 9.485 3.506 1.189.504 1.775.786 1.76.847l-1.92.138c-1.706.015-6.232.145-13.576.39l-2.423 3.895 5.074.893c2.895.504 4.655.886 5.28 1.146l1.486.664c.121.153-.404.268-1.578.344-1.737.122-5.813.183-12.227.183l-3.246 3.896 7.84 1.26c1.066.229 1.63.412 1.69.55.077.153-.502.305-1.736.458l-9.897.94-.663 3.872 3.977-.573c2.636-.336 3.87-.344 3.703-.023-.152.306-1.554.65-4.205 1.031l-4 .55-3.726 7.241 10.651-3.987-7.405 14.068 5.28-.847c2.133-5.805 3.527-9.425 4.182-10.861.457-1.024.846-1.497 1.166-1.42.107.03.046 1.496-.183 4.398l-.526 5.866 6.971-1.993c1.966-5.484 3.246-8.96 3.84-10.426.488-1.191.8-1.802.937-1.833.183-.046.198.642.046 2.063l-.892 8.615 7.474-3.666c2.469-9.975 3.718-14.077 3.749-12.305l.228 5.637.229 5.774 4.182-2.429c.305-5.927.663-8.936 1.075-9.028.243-.045.32 1.436.228 4.446l-.091 4.537 4.228-.16 1.211-6.829c.838-4.552 1.54-7.691 2.103-9.417.625-1.91 1.044-2.735 1.257-2.475.137.183.236 1.169.297 2.956.046 1.207.023 3.788-.068 7.745l-.115 6.415 13.188-5.11.252-5.384c.152-3.697.327-5.767.525-6.21.198-.442.267 1.291.206 5.202l-.023 6.026 6.743-2.612c.259-6.37.38-10.907.365-13.61v-.138h.023c.076-.626.175-1.039.297-1.237.198-.352.427.068.686 1.26v.092c0 .565.457 2.092 1.371 4.582a158 158 0 002.652 6.668l8.662-4.354-2.423-11.892 6.857 5.729c4.632 3.757 7.131 5.507 7.497 5.247 5.317-3.529 7.367-6.95 6.148-10.265-.991-2.704-5.387-5.11-13.188-7.218-3.885-1.054-7.68-1.84-11.382-2.36l-6.674-3.093c-5.013-2.016-8.944-2.94-11.794-2.773-3.138.199-7.976 1.245-14.513 3.14-6.05 1.756-11.001 3.467-14.856 5.132 5.958 1.726 9.805 2.956 11.542 3.689 1.188.489 1.73.817 1.623.985-.092.153-.709.153-1.852 0l-16.799-2.52z" fill="#00A63C"/><path d="M47.513 62.921c5.958 1.726 9.805 2.956 11.542 3.689 1.188.489 1.73.817 1.623.985-.092.153-.709.153-1.852 0l-16.799-2.52-2.56 2.016c4.267.29 7.474.627 9.623 1.008 3.794.657 6.742 2.093 8.845 4.308 16.41-6.43 30.124-3.01 41.14 10.265l2.766-1.398-2.423-11.892 6.857 5.729c4.632 3.757 7.131 5.507 7.497 5.247 5.317-3.529 7.367-6.95 6.148-10.265-.991-2.704-5.387-5.11-13.188-7.218-3.885-1.054-7.68-1.84-11.382-2.36l-6.674-3.093c-5.013-2.016-8.944-2.94-11.794-2.773-3.139.199-7.976 1.245-14.513 3.14-6.05 1.756-11.001 3.467-14.856 5.132z" fill="#009233"/><path d="M36.268 89.088c-1.28 1.543-1.745 2.36-1.394 2.452.32.091 1.028-.382 2.125-1.421 13.257-12.602 27.747-20.904 43.472-24.907 4.952-1.252 9.73-2 14.33-2.245l5.555.023.16-.642-1.097-1.191c-1.052-.825-2.355-1.276-3.909-1.352l-2.422-.183.09-.023c-10.284.275-20.143 2.75-29.574 7.423C53.38 72.08 44.268 79.434 36.268 89.088z" fill="#0D131A"/><path d="M100.426 61.432c-1.128-.718-2.987-1.039-5.577-.963-10.376.336-20.174 2.635-29.392 6.897C56.406 71.552 48.414 77.38 41.48 84.85 51.705 75.577 63.445 69.03 76.7 65.212c4.618-1.329 9.143-2.238 13.577-2.726l7.725-.298 2.514-.092c.366-.153.336-.374-.091-.664z" fill="#00A63C"/><path d="M58.234 71.193l1.006.137c.396.046.67.23.823.55 7.725-4.017 15.785-6.836 24.181-8.455 5.775-1.115 10.361-1.527 13.76-1.237l2.513-.092c.366-.153.336-.374-.091-.664-1.128-.718-2.987-1.039-5.577-.963-6.613.214-13.035 1.245-19.267 3.094a74.195 74.195 0 00-17.348 7.63z" fill="#009233"/><path d="M204.601 133.7c-1.706-2.276-3.39-3.964-5.051-5.064-2.499-1.681-6.346-1.528-11.542.458-6.156 2.352-12.548 6.393-19.176 12.121-6.628 5.713-10.438 10.471-11.428 14.275l-1.029 1.283-1.348 5.545c-.29 1.482-.312 2.635-.069 3.46.244.871.861 1.642 1.852 2.314.868.596 2.346 1.329 4.434 2.2 1.767.733 4.647 1.199 8.639 1.397 3.916.184 8.038.077 12.365-.32 10.575-.993 16.868-3.002 18.879-6.026.366-.566.549-1.146.549-1.742a16.46 16.46 0 01-.686-2.635c-.274-1.588.038-3.116.937-4.582 2.103-3.132 3.543-5.393 4.32-6.783 1.295-2.322 1.942-4.613 1.942-6.874 0-2.871-1.196-5.881-3.588-9.027z" fill="#0D131A"/><path d="M198.795 129.758c-2.118-1.42-5.554-1.222-10.308.596-5.896 2.261-12.105 6.179-18.627 11.755-6.506 5.575-10.224 10.15-11.154 13.725l-.251 1.054c-1.188 4.567-1.63 7.362-1.326 8.386.214.687.724 1.313 1.532 1.879.548.381 1.706 1.015 3.474 1.901 1.341.673 3.916 1.077 7.725 1.215l11.931-.39c10.452-.977 16.524-2.742 18.216-5.293.685-.993.259-2.153-1.28-3.482-.442-.382-.473-1.016-.092-1.902.259-.581.983-1.772 2.172-3.575 2.255-3.391 3.893-6.24 4.914-8.546 1.249-2.811.693-6.347-1.669-10.609a26.918 26.918 0 00-2.971-4.376c-.96-1.177-1.722-1.956-2.286-2.338z" fill="#5DC1CF"/><path d="M195.367 128.865c-1.874-.015-4.167.481-6.879 1.489-5.897 2.261-12.106 6.179-18.628 11.755-6.506 5.575-10.224 10.15-11.153 13.725l-.252 1.054c-1.188 4.567-1.63 7.362-1.325 8.386.213.687.723 1.313 1.531 1.879.548.382 1.706 1.015 3.474 1.901 1.127.566 3.192.947 6.194 1.146 2.849.183 6.087.176 9.714-.023 2.575-.183 4.632-.947 6.171-2.291 2.224-1.955 1.531-4.468-2.08-7.539-3.581-3.039-3.2-8.18 1.142-15.42 1.479-2.459 3.551-5.385 6.217-8.776l5.874-7.286z" fill="#50A8B4"/><path d="M189.312 158.721c.152-.275-.092-.321-.732-.138-1.493.428-4.122.94-7.885 1.535-4.876.764-8.441 1.039-10.697.825-.883-.076-1.18.015-.891.275l.709.39c2.087.55 5.569.435 10.445-.344 4.281-.687 7.153-1.375 8.616-2.062l.435-.481zM195.436 165.343c-.091 1.13.046 2.077.412 2.841l3.634 1.054c2.194.596 3.771.916 4.731.962 1.189.046 1.92-.084 2.194-.389.29-.321.335-1.108.137-2.36-.213-1.284-.906-2.765-2.08-4.446-1.173-1.71-2.323-2.879-3.451-3.505a3.033 3.033 0 00-1.234-.367l-.823.161c-2.194 1.772-3.367 3.788-3.52 6.049z" fill="#0D131A"/><path d="M205.264 168.573c.472-.458.083-1.787-1.166-3.987-1.234-2.214-2.362-3.597-3.383-4.147-.457-.229-.822-.267-1.097-.114-1.112.977-1.942 2.321-2.491 4.032-.472 1.497-.564 2.46-.274 2.887.259.382 1.6.802 4.022 1.261 2.484.473 3.947.496 4.389.068z" fill="white"/><path d="M198.796 161.195c-.838 1.024-1.44 2.238-1.806 3.643-.335 1.253-.381 2.055-.137 2.406.168.245.983.55 2.446.917 1.508.382 2.849.603 4.022.664a32.911 32.911 0 00-2.034-4.17c-.884-1.512-1.714-2.665-2.491-3.46z" fill="#DBDCDC"/><path d="M189.882 175.585c1.295-.795 1.6-2.521.914-5.179-.64-2.444-1.691-4.445-3.154-6.003-1.051-1.115-1.95-1.764-2.697-1.948-.762-.183-1.501.077-2.217.779-2.072 2.032-3.443 4.033-4.114 6.004-.35.977-.487 1.756-.411 2.337.533.596 2.423 1.497 5.668 2.704 3.383 1.267 5.386 1.703 6.011 1.306z" fill="#0D131A"/><path d="M184.213 163.624c-.624.122-1.554 1.054-2.788 2.795-1.295 1.818-1.973 3.262-2.034 4.331.518.489 2.125 1.276 4.822 2.36 2.804 1.115 4.465 1.581 4.983 1.398.289-.107.404-.718.343-1.833-.061-1.146-.29-2.36-.686-3.643-1.066-3.453-2.613-5.255-4.64-5.408z" fill="white"/><path d="M184.122 163.647c-.67.229-1.6 1.192-2.788 2.887-1.235 1.772-1.882 3.177-1.943 4.216.366.336 1.447.894 3.245 1.673 1.844.809 3.414 1.405 4.709 1.787-.092-2.062-.343-3.857-.755-5.385a16.85 16.85 0 00-2.468-5.178z" fill="#DBDCDC"/><path d="M168.191 164.289a2.663 2.663 0 00-1.188-.642 1.95 1.95 0 00-1.029 0c-.975.29-2.255 1.107-3.839 2.452-1.646 1.374-2.545 2.459-2.697 3.253-.153.779.32 2.131 1.417 4.056.96 1.726 1.843 2.986 2.651 3.781.411.412.823.634 1.234.664.381.015.899-.122 1.554-.412a11.548 11.548 0 004.754-3.827l1.258-2.268c.106-.611-.328-1.742-1.303-3.391-.96-1.62-1.897-2.842-2.812-3.666z" fill="#0D131A"/><path d="M167.689 165.343c-.564-.52-1.014-.734-1.349-.642-.884.26-1.988 1.008-3.314 2.245-1.341 1.222-2.072 2.162-2.194 2.819-.107.565.419 1.741 1.577 3.528 1.097 1.665 1.889 2.658 2.377 2.979.244.061.838-.183 1.783-.733a17.087 17.087 0 002.879-2.131c.96-.871 1.486-1.55 1.577-2.039.092-.459-.22-1.367-.937-2.727-.761-1.421-1.561-2.52-2.399-3.299z" fill="white"/><path d="M160.833 169.765c-.107.534.358 1.611 1.394 3.231.929 1.466 1.714 2.505 2.354 3.116.061-2.169.213-4.071.457-5.706.29-2.047.739-3.948 1.349-5.705h-.046c-.884.26-1.988 1.008-3.314 2.245-1.341 1.222-2.072 2.162-2.194 2.819z" fill="#DBDCDC"/><path d="M196.213 146.05c0 .122.198.382.594.779.732.748 1.143 1.359 1.234 1.833.198.962-.51 1.818-2.125 2.566-.473.214-.61.39-.412.527.092.076.237.122.435.138 1.874-.077 2.933-.741 3.177-1.994.122-.703-.031-1.428-.457-2.177-.427-.733-.953-1.237-1.578-1.512-.579-.244-.868-.298-.868-.16zM55.993 161.035c-.137-.168-.274-.229-.411-.183-1.235.244-2.438.916-3.612 2.016-1.462 1.375-2.62 3.238-3.474 5.591a32.127 32.127 0 004.069 2.474c2.864 1.482 4.67 1.795 5.416.94.442-.504.305-2.36-.41-5.568-.671-2.994-1.197-4.751-1.578-5.27z" fill="#0D131A"/><path d="M57.227 171.369c.046-.092-.22-1.566-.8-4.423-.609-2.932-1.028-4.659-1.257-5.178l-2.605 2.062c-1.326 1.299-2.11 2.673-2.354 4.125-.092.443 1.036 1.161 3.382 2.153 2.332.978 3.543 1.398 3.634 1.261z" fill="#DBDCDC"/><path d="M52.084 126.047c-1.325 3.834-2.148 7.561-2.468 11.181-.868 10.082 1.966 21.019 8.502 32.812.168.305.404 1.443.709 3.414.274 1.741.86 3.162 1.76 4.262 2.88 3.498 9.973 5.476 21.278 5.934 6.735.275 12.274-.817 16.617-3.276 4.068-2.307 6.201-5.248 6.399-8.822.076-1.314.511-3.254 1.303-5.82 1.128-3.681 1.806-6.003 2.034-6.965 1.463-6.065.975-11.129-1.463-15.192-1.478-2.474-4.807-5.713-9.987-9.715-5.06-3.895-10.537-7.5-16.434-10.815-6.354-3.59-11.694-5.957-16.022-7.103-4.967-1.314-7.915-.802-8.845 1.535l-3.383 8.57z" fill="#5DC1CF"/><path d="M55.467 117.477l-3.382 8.57c-1.326 3.834-2.149 7.561-2.469 11.181-.868 10.082 1.966 21.019 8.502 32.812.214.397.427 1.39.64 2.978.214 1.559.61 2.819 1.189 3.781 1.905 3.193 6.69 5.278 14.353 6.255l2.492-.068c1.386.366 2.133.359 2.24-.023-.32-2.353-.42-4.514-.298-6.485a23.365 23.365 0 011.189-6.026c-10.087-1.13-16.228-7.332-18.422-18.605-1.676-8.646-.99-19.064 2.057-31.254 1.326-5.346.488-7.729-2.514-7.149-1.082.214-2.232.779-3.451 1.696-1.143.871-1.852 1.65-2.126 2.337z" fill="#50A8B4"/><path d="M56.061 117.798c.716-1.528.868-2.353.457-2.475-.38-.107-.93.504-1.645 1.833-4.038 7.546-5.989 15.833-5.852 24.861.168 10.082 3.002 19.53 8.503 28.344.335.549.503 1.29.503 2.222.015 1.635.213 2.948.594 3.941.533 1.421 1.508 2.62 2.925 3.597 3.505 2.399 10.27 3.804 20.296 4.217 7.482.29 13.386-.741 17.713-3.094 4.267-2.322 6.263-5.537 5.989-9.646-.046-.794.251-1.994.891-3.598l1.531-3.895c1.326-4.262 1.974-7.889 1.943-10.883-.03-3.3-.868-6.592-2.514-9.876l-1.257.458c1.478 3.972 2.049 7.882 1.714 11.732-.198 2.261-.891 5.316-2.08 9.165l-1.005 3.483c-.32 1.252-.503 2.36-.549 3.322-.183 3.315-2.171 6.065-5.965 8.249-4.19 2.429-9.645 3.506-16.365 3.231-9.31-.382-15.664-1.772-19.062-4.171-1.28-.901-2.194-1.985-2.742-3.253-.305-.733-.549-1.787-.732-3.162-.152-1.268-.373-2.162-.663-2.681-6.095-11.014-8.525-22.531-7.29-34.553.655-6.232 2.209-12.022 4.662-17.368z" fill="#0D131A"/><path d="M92.974 167.428c.807-.474 1.219-.787 1.234-.94 0-.183-.518-.069-1.554.344-1.585.626-4.008 1.275-7.268 1.948-4.175.855-7.832 1.26-10.971 1.214-2.834-.046-3.893.107-3.177.458.716.352 1.988.512 3.817.481 4.251-.045 8.274-.534 12.068-1.466 2.727-.672 4.677-1.352 5.85-2.039zM105.338 169.467l-.594-.069c-1.828 1.161-3.169 3.116-4.023 5.866-.533 1.696-.8 3.147-.8 4.353 0 .535.679.917 2.035 1.146l5.302.55c3.581.199 5.562-.076 5.943-.825.365-.733-.404-2.513-2.309-5.339-1.828-2.688-3.329-4.452-4.502-5.293-.259-.183-.61-.313-1.052-.389z" fill="#0D131A"/><path d="M111.601 179.778c0-.749-.694-2.185-2.08-4.308-1.417-2.2-2.659-3.674-3.726-4.422-.335-.245-.541-.329-.617-.252-1.021.794-1.988 2.284-2.903 4.468-.716 1.695-1.119 2.971-1.211 3.826.564.275 2.331.52 5.303.734 2.986.213 4.731.221 5.234.022v-.068z" fill="white"/><path d="M103.258 173.225c-.579 1.023-1.097 2.199-1.554 3.528-.381 1.085-.594 1.864-.64 2.337.564.275 2.331.52 5.303.734 2.986.213 4.731.221 5.234.023v-.069c0-.214-.054-.458-.16-.733-1.844-2.261-4.572-4.201-8.183-5.82z" fill="#DBDCDC"/><path d="M84.106 179.663c-1.92-2.276-3.154-3.414-3.703-3.414-.548 0-1.813.924-3.794 2.773-2.011 1.863-3.04 3.116-3.085 3.757-.046.657.624 2.002 2.01 4.033 1.403 2.062 2.416 3.124 3.04 3.185.458.046 1.57-.443 3.338-1.466 1.706-.978 2.97-1.841 3.794-2.59.807-.733 1.211-1.451 1.211-2.153 0-.504-.937-1.879-2.811-4.125z" fill="#0D131A"/><path d="M80.288 177.991c-.411.03-1.371.74-2.88 2.13-1.523 1.406-2.3 2.338-2.33 2.796-.047.55.487 1.619 1.6 3.208 1.081 1.558 1.812 2.352 2.193 2.383.29.03 1.044-.336 2.263-1.1 1.295-.794 2.37-1.581 3.223-2.36l.868-.94.137-.298c-.045-.412-.807-1.466-2.285-3.162-1.478-1.695-2.408-2.581-2.789-2.657z" fill="white"/><path d="M57.867 175.974c-1.57 2.398-2.164 4.117-1.783 5.156.122.32.396.611.823.87.503.291 1.112.466 1.829.527 1.523.123 3.161.1 4.913-.068 2.286-.229 3.55-.672 3.794-1.329l.389-1.008c0-1.009-.868-2.574-2.605-4.698-1.326-1.634-2.355-2.734-3.086-3.299-.26-.214-.495-.298-.709-.252l-.411.252c-.777.55-1.828 1.833-3.154 3.849z" fill="#0D131A"/><path d="M57.25 181.084l4.776.16c2.56-.229 4.03-.565 4.411-1.008.35-.412-.251-1.642-1.805-3.689-1.509-2.016-2.514-3.063-3.017-3.139-.488-.076-1.478 1.1-2.971 3.529-1.509 2.444-1.974 3.826-1.395 4.147z" fill="white"/><path d="M60.084 177.486c-.411.535-1.15 1.788-2.217 3.758 1.097.183 2.705.161 4.823-.069 2.179-.229 3.428-.542 3.748-.939.229-.26.008-.947-.663-2.062-.594-.978-1.34-1.978-2.24-3.002-1.325.306-2.475 1.077-3.45 2.314z" fill="#DBDCDC"/><path d="M62.782 147.195c-.716-.015-1.38.268-1.989.848-.624.596-.967 1.291-1.028 2.085-.046.657.213 1.306.777 1.948.731.84 1.767 1.207 3.108 1.1l.48-.321c.229-.214.092-.329-.411-.344-.838-.03-1.54-.618-2.103-1.764-.61-1.237-.228-2.192 1.143-2.864.518-.26.678-.451.48-.573l-.457-.115zM33.823 128.475c-.092-.076-.229-.122-.412-.137-.655-.031-1.257.29-1.805.962-.564.688-.876 1.497-.937 2.429-.03.779.206 1.535.708 2.268.67.963 1.608 1.391 2.811 1.284l.435-.367c.213-.26.091-.397-.366-.412-.746-.031-1.379-.711-1.897-2.04-.564-1.451-.22-2.566 1.029-3.345.472-.29.617-.504.434-.642zM15.699 112.413c-.64-.03-1.235.252-1.783.848a3.405 3.405 0 00-.914 2.108c-.046.672.182 1.337.685 1.994.655.84 1.585 1.214 2.789 1.122l.434-.321c.198-.229.076-.351-.366-.366-.746-.031-1.371-.634-1.874-1.81-.548-1.253-.213-2.223 1.006-2.91.457-.245.594-.428.411-.55-.076-.061-.205-.099-.388-.115zM16.52 131.66c-.715-.03-1.378.344-1.987 1.123-.625.779-.968 1.696-1.029 2.75-.046.87.213 1.726.777 2.566.731 1.115 1.768 1.604 3.109 1.466l.48-.412c.228-.29.09-.451-.412-.481-.32-.016-.686-.245-1.097-.688a5.317 5.317 0 01-1.006-1.649c-.61-1.635-.228-2.895 1.143-3.781.518-.336.678-.588.48-.756l-.457-.138zM77.547 146.943c-.549.504-.747 1.337-.595 2.498.092.748.488 1.375 1.189 1.879.7.504 1.516.756 2.445.756l.435-.206c.198-.168.053-.321-.435-.459-1.203-.32-1.935-.977-2.194-1.97-.29-1.1.374-1.963 1.989-2.589l.8-.459c0-.122-.32-.183-.96-.183-1.265-.015-2.156.229-2.674.733zM62.917 127.948c-.41.398-.655.925-.73 1.581-.062.581.182 1.146.73 1.696.58.58 1.242.878 1.989.894.38.015.602-.046.663-.184.06-.137-.122-.298-.549-.481-1.478-.611-2.034-1.329-1.668-2.154.305-.672.93-1.138 1.874-1.397.549-.138.716-.291.503-.459l-.48-.206c-1.021-.046-1.798.191-2.331.71zM106.365 88.034c-8.136-.947-13.522-.741-16.158.618-.808.428-1.319 1.207-1.532 2.338l-.114 2.474c0 3.987 1.417 9.807 4.251 17.46-4.22 3.849-7.245 7.034-9.074 9.555-2.148 2.963-3.222 5.713-3.222 8.248 0 .81.083 1.772.251 2.887.198 1.268.427 2.2.686 2.796 1.737 4.002 3.459 6.866 5.165 8.592 1.92 1.956 4.617 3.368 8.091 4.239 2.956.749 9.272 3.437 18.947 8.066l9.188 4.491c3.322 1.603 5.943 2.795 7.863 3.574 4.16 1.696 10.597 2.085 19.313 1.169 9.005-.963 15.07-2.865 18.193-5.706 1.036-.962 5.661-3.674 13.874-8.134 6.475-3.529 11.153-6.018 14.033-7.47 1.828-.916 3.466-3.658 4.914-8.225 1.463-4.598 1.676-7.737.64-9.418-1.371-2.215-3.444-4.987-6.217-8.317-2.91-3.498-5.257-5.98-7.039-7.447 1.066-1.527 2.148-4.063 3.245-7.607 1.158-3.742 1.737-6.798 1.737-9.165 0-.474-.023-.894-.068-1.26-.198-1.375-.656-2.208-1.372-2.498-2.742-1.176-7.695-1.176-14.856 0-3.718.611-7.786 1.459-12.205 2.543-4.114-1.558-10.437-2.2-18.97-1.924-7.268.229-14.148.993-20.639 2.29-4.906-1.893-11.215-3.283-18.925-4.17z" fill="#0D131A"/><path d="M91.396 90.073c-.533.23-.86.489-.983.78-1.143 3.176.076 9.531 3.657 19.063.32-.26.937-.458 1.851-.596.564-.076.48.275-.251 1.054l-1.28 1.169c-5.47 4.934-9.02 9.425-10.65 13.472-1.235 3.086-1.334 5.828-.298 8.226 1.585 3.636 3.215 6.301 4.891 7.997 1.676 1.68 3.993 2.986 6.948 3.918 1.463.458 3.947 1.489 7.451 3.093l10.697 5.041c8.548 4.125 14.46 6.851 17.736 8.18 4.541 1.864 11.1 2.208 19.679 1.031 3.52-.489 6.75-1.168 9.691-2.039 2.925-.871 4.982-1.764 6.171-2.681 1.188-.916 5.744-3.505 13.667-7.767 8.564-4.613 13.318-7.218 14.262-7.814 1.555-.962 2.926-3.314 4.114-7.057 1.128-3.513 1.501-6.125 1.12-7.836-.304-1.39-2.163-4.315-5.576-8.776-3.307-4.323-5.554-6.889-6.743-7.699-1.569-1.054-2.331-1.871-2.285-2.451.03-.581.708-.382 2.034.595 1.508-2.505 2.727-5.354 3.657-8.546 1.005-3.437 1.356-6.256 1.051-8.455-.137-.81-.373-1.314-.709-1.512-1.051-.596-4.563-.527-10.536.206-4.845.58-10.11 1.42-15.793 2.52l-.183.023-.183-.069c-3.977-1.558-10.217-2.192-18.719-1.901-7.222.244-14.056 1.015-20.501 2.314l-.206.046-.183-.07c-4.739-1.863-10.902-3.184-18.49-3.963-7.588-.78-12.624-.611-15.108.504z" fill="#5DC1CF"/><path d="M184.052 143.987c2.057-.259 3.688-1.428 4.892-3.505l1.577-2.773c.563-.886 1.165-1.642 1.805-2.268-1.173.916-3.078 1.611-5.714 2.085l-2.56.39c-.899 0-3.375 1.634-7.428 4.903l-5.805 4.903 4.868-1.627c3.611-1.13 6.4-1.833 8.365-2.108zM164.969 93.19l-.182.022-.183-.069c-3.977-1.558-10.217-2.192-18.719-1.901-7.223.244-14.056 1.015-20.502 2.314l-.205.046-.183-.07c-2.682-1.053-6.057-1.97-10.125-2.749a91.48 91.48 0 00-11.52-1.489c6.689 1.07 12.525 3.353 17.508 6.851 3.367 2.383 5.828 4.842 7.382 7.378 6.034 2.032 12.678 4.987 19.93 8.867 9.63 5.148 15.763 9.838 18.399 14.069.244 0 1.227-.504 2.949-1.512 2.209-1.314 3.695-2.162 4.457-2.544-.869-1.16-1.608-2.673-2.217-4.536l-1.326-4.973c-1.051-4.109-2.56-6.782-4.525-8.019 2.59-3.116 5.79-5.965 9.599-8.547 3.093-2.092 6.841-4.162 11.245-6.21-2.651.123-6.156.505-10.514 1.147a258.73 258.73 0 00-11.268 1.924zM150.662 147.31c-3.55-.947-7.291-2.582-11.222-4.903-4.251-2.506-7.1-4.003-8.548-4.491l-9.256-1.696c-4.48-.871-8.168-1.382-11.063-1.535-1.904 0-3.931-.871-6.079-2.612-2.179-1.803-3.177-3.506-2.994-5.11.716-1.863 2.689-3.918 5.919-6.163 2.286-1.604 4.587-3.942 6.903-7.012 2.27-3.009 4.799-5.446 7.588-7.309-1.692-.55-4-1.803-6.926-3.758-3.824-2.536-5.995-3.949-6.513-4.239l-9.051-4.995c-3.261-1.604-6.21-2.558-8.845-2.864l-.16.23c-1.143 3.176.076 9.531 3.656 19.063.32-.26.938-.458 1.852-.596.564-.076.48.275-.252 1.054l-1.28 1.169c-5.47 4.934-9.02 9.425-10.65 13.473-1.234 3.085-1.334 5.827-.297 8.225 1.584 3.636 3.215 6.301 4.89 7.997 1.677 1.68 3.993 2.986 6.949 3.918 1.463.458 3.946 1.489 7.451 3.093l10.696 5.041c8.548 4.125 14.46 6.851 17.736 8.18 4.541 1.864 11.101 2.208 19.679 1.031 3.52-.488 6.75-1.168 9.691-2.039 2.926-.871 4.983-1.764 6.171-2.681-2.255.016-5.432-1.558-9.531-4.72a67.288 67.288 0 01-6.514-5.751z" fill="#50A8B4"/><path d="M93.066 92.777c-.397.137-.595.427-.595.87 0 1.116.572 3.33 1.715 6.645l2.08 5.66c.228.702.555 1.084.982 1.145.442.077 1.158-.145 2.149-.664 5.089-2.734 8.251-4.376 9.485-4.926.594-.26.937-.481 1.028-.665.122-.198.015-.473-.32-.825-1.295-1.374-3.801-3.009-7.519-4.903-4.282-2.2-7.284-2.979-9.005-2.337z" fill="#0D131A"/><path d="M93.156 93.647c0 1.574 1.447 5.706 4.342 12.396l4.663-2.566c2.605-1.375 4.556-2.299 5.851-2.772-1.92-1.818-4.648-3.59-8.183-5.316-3.458-1.696-5.63-2.36-6.513-1.993-.107.045-.16.13-.16.251z" fill="#C6000B"/><path d="M93.316 93.395c-.107.046-.16.13-.16.252 0 1.04.67 3.285 2.01 6.737 1.707-.474 3.208-.657 4.503-.55 1.676.153 3.65.794 5.92 1.925a24.215 24.215 0 012.423-1.054c-1.92-1.818-4.648-3.59-8.183-5.316-3.458-1.696-5.63-2.36-6.513-1.993z" fill="#A30000"/><path d="M175.071 101.255c-.045.122.199.359.732.71l6.994 5.041c.914.657 1.493.848 1.737.573l1.143-2.2c.853-1.466 1.561-3.131 2.125-4.995.701-2.337.754-3.903.16-4.697-.244-.306-1.394-.153-3.451.458-2.667.794-5.44 2.207-8.32 4.239l-1.12.871z" fill="#0D131A"/><path d="M181.106 98.849c-2.194 1.084-3.733 1.993-4.617 2.726 1.265.596 2.59 1.383 3.977 2.36.823.581 1.874 1.391 3.154 2.429l.388.298c.549-.764 1.204-2.123 1.966-4.078.853-2.17 1.28-3.75 1.28-4.743 0-.352-.061-.596-.183-.734-.091-.107-.289-.152-.594-.137-1.097.03-2.888.657-5.371 1.879z" fill="#C6000B"/><path d="M186.477 96.97c-1.021.015-2.758.618-5.211 1.81 1.173.687 1.958 1.833 2.354 3.437.213.916.396 2.314.548 4.193.595-.978 1.235-2.36 1.92-4.147.777-2.017 1.166-3.49 1.166-4.422 0-.352-.061-.596-.183-.734-.091-.107-.289-.152-.594-.137z" fill="#A30000"/><path d="M186.385 137.389c-3.367-.199-7.702.282-13.005 1.443l-13.302 3.368a93.472 93.472 0 01-7.474 1.604c-2.407.413-3.946.55-4.616.413l-1.623-.344c-20.829-4.323-35.038-6.484-42.626-6.484h-.823l.389.733c1.706 3.391 6.894 7.668 15.564 12.831 3.581 2.123 7.009 3.926 10.285 5.408 3.353 1.512 5.829 2.36 7.429 2.543 3.199.382 7.801.298 13.804-.252 5.989-.565 9.684-1.253 11.085-2.062l5.143-3.414 8.617-5.774c5.546-3.621 9.226-6.126 11.039-7.516 1.234-.947 1.813-1.581 1.737-1.902-.03-.076-.236-.191-.617-.343l-1.006-.252z" fill="#0D131A"/><path d="M172.442 139.772c-2.377.473-6.773 1.535-13.187 3.184l-7.291 1.811c-2.073.427-3.467.572-4.183.435l-1.623-.344-25.941-5.384c-7.893-1.543-13.493-2.353-16.799-2.429 2.225 3.299 7.84 7.554 16.845 12.762 8.548 4.934 14.414 7.592 17.599 7.974 3.123.367 7.473.206 13.05-.481 5.318-.642 8.624-1.329 9.92-2.062 2.697-1.543 6.994-4.3 12.89-8.272 6.781-4.552 10.651-7.424 11.611-8.615-3.337-.138-7.634.336-12.891 1.421z" fill="#922F00"/><path d="M175.14 142.773a3.945 3.945 0 00.457-2.497 4.207 4.207 0 00-.571-1.673c-17.112 3.926-25.584 5.95-25.416 6.072l-35.038-6.072c-.762.672-.884 1.589-.365 2.749.426.963 1.279 2.055 2.559 3.277 3.078 2.933 7.573 5.43 13.485 7.493 6.415 2.23 12.548 3.192 18.399 2.887l.663-.046c5.76-.306 11.275-1.81 16.548-4.514 4.754-2.429 7.847-4.987 9.279-7.676z" fill="#0D131A"/><path d="M174.25 139.451c-3.185.611-7.809 1.703-13.874 3.276l-8.091 1.971c-2.27.489-3.771.657-4.502.504l-2.4-.504c-12.86-2.734-22.833-4.613-29.918-5.637.228 1.528 1.257 3.17 3.085 4.927 3.032 2.887 7.238 5.3 12.617 7.24 5.957 2.139 11.77 3.063 17.438 2.773 5.486-.306 10.865-1.849 16.137-4.629 4.723-2.505 7.763-5.033 9.119-7.584.35-.642.526-1.222.526-1.741l-.137-.596z" fill="#ED8599"/><path d="M167.301 124.832c-1.158 1.36-1.493 1.986-1.006 1.879l1.097-.55c.366 1.436 1.425 2.681 3.177 3.735 1.768 1.069 3.49 1.489 5.166 1.26 1.859-.259 3.489-1.199 4.891-2.818 2.133-2.49 3.276-6.232 3.428-11.227 1.372-.275 2.171-.604 2.4-.986.244-.412-.777-.473-3.063-.183-3.078.412-5.736 1.176-7.976 2.291-2.865 1.436-5.569 3.636-8.114 6.599z" fill="#0D131A"/><path d="M170.981 128.407c1.508.931 3.063 1.306 4.663 1.122 2.118-.213 3.801-1.374 5.051-3.482 1.28-2.124 2.026-5.041 2.24-8.753-6.019 1.375-10.91 4.04-14.674 7.996.412 1.222 1.318 2.261 2.72 3.117z" fill="white"/><path d="M170.158 122.38l-.183.161-.046.527c.472 1.222 1.204 2.161 2.194 2.818.991.657 1.981.863 2.972.619 1.097-.245 2.011-1.062 2.742-2.452.853-1.634 1.181-3.666.983-6.095l-.343-.389-.411.16a31.217 31.217 0 00-7.908 4.651z" fill="#0D131A"/><path d="M174.818 125.474c1.021-.229 1.814-1.085 2.377-2.567.488-1.252.717-2.596.686-4.032a28.377 28.377 0 00-6.994 4.032c.442.948 1.014 1.658 1.714 2.131.717.474 1.456.619 2.217.436z" fill="#C6000B"/><path d="M172.58 121.67c.365.963.868 1.436 1.508 1.421.792-.015 1.318-1.092 1.577-3.231a25.386 25.386 0 00-3.085 1.81z" fill="white"/><path d="M181.289 112.94c-.655-.657-1.851-1.474-3.588-2.451-1.89-1.054-3.299-1.635-4.228-1.742-2.042-.214-2.111.008-.206.665.807.259 1.996.916 3.565 1.97l3.429 2.314c.853.55 1.386.711 1.6.482.228-.229.038-.642-.572-1.238zM167.505 113.055c.107-1.405.038-1.978-.206-1.719-.243.245-.487.978-.731 2.2-.244 1.115-.434 2.429-.571 3.941-.138 1.512-.176 2.704-.115 3.575.061.84.29 1.267.686 1.283.396.015.602-.352.617-1.1l.091-3.506.229-4.674zM122.755 106.273c-.671-.413-1.509-.558-2.514-.436-.473.061-.724.206-.754.436-.046.229.167.397.64.504l1.234.206c.442.046.762.13.96.252 1.005.596 2.049 2.696 3.131 6.301l1.76 6.989c.274 1.054.465 1.497.571 1.329.061-.107.099-.581.114-1.421 0-1.36-.449-3.643-1.348-6.851-1.128-4.048-2.392-6.485-3.794-7.309zM114.321 106.548a18.438 18.438 0 00-3.268 1.787c-1.097.748-2.027 1.543-2.789 2.383-.761.84-1.104 1.275-1.028 1.306l1.577-.94c3.032-2.016 5.028-3.23 5.988-3.643.671-.275 1.014-.603 1.029-.985.015-.367-.488-.336-1.509.092zM107.692 112.849c-.899-.046-1.523.107-1.874.458-.335.367.099.588 1.303.664-.259 5.27.503 9.41 2.286 12.419 1.264 2.124 2.864 3.483 4.799 4.079 1.89.565 3.932.351 6.126-.642 2.118-.947 3.748-2.322 4.891-4.124 1.021 1.161 1.569 1.604 1.645 1.329.077-.275-.358-1.192-1.302-2.75-1.707-2.78-4.252-5.3-7.634-7.561-3.611-2.414-7.025-3.704-10.24-3.872z" fill="#0D131A"/><path d="M124.4 124.763c-2.346-2.902-5.439-5.514-9.279-7.836-3.474-2.077-5.752-2.979-6.834-2.704v.596c0 3.972.556 7.203 1.669 9.692 1.112 2.506 2.689 4.064 4.731 4.675 1.676.488 3.405.336 5.188-.459 1.813-.824 3.322-2.146 4.525-3.964z" fill="white"/><path d="M119.029 123.503c1.234-.687 1.996-1.703 2.285-3.047l-.525-.894a34.095 34.095 0 00-6.834-4.285l-.32-.16-.411-.046c-.808 1.94-.983 3.766-.526 5.476.457 1.65 1.356 2.742 2.697 3.277 1.204.474 2.415.367 3.634-.321z" fill="#0D131A"/><path d="M117.795 122.839c.442-.122.876-.405 1.303-.848a5.275 5.275 0 001.006-1.512 39.822 39.822 0 00-6.309-4.308 10.23 10.23 0 00-.32 2.475c0 1.206.351 2.215 1.052 3.024.426.489.937.84 1.531 1.054l1.737.115z" fill="#C6000B"/><path d="M116.149 117.569c-.152 1.818.145 2.841.891 3.07.701.214 1.28-.191 1.737-1.214l-2.628-1.856z" fill="white"/><path d="M184.305 143.575c.411-.137 1.265-1.214 2.56-3.231l1.828-2.978-4.182.023c-2.773.061-4.099.221-3.977.481l1.668 3.322c.976 1.742 1.676 2.536 2.103 2.383z" fill="#0D131A"/><path d="M187.254 138.03l-3.086.092c-1.6.046-2.369.13-2.308.252.274.626.724 1.443 1.348 2.452.671 1.084 1.082 1.596 1.235 1.535.289-.092 1.226-1.535 2.811-4.331z" fill="white"/><path d="M100.973 137.022c-.061.596.388 1.795 1.348 3.597 1.006 1.849 1.783 2.765 2.331 2.75.488-.015 1.273-1.024 2.355-3.025l1.485-2.978-3.725-.573c-2.499-.29-3.764-.214-3.794.229z" fill="#0D131A"/><path d="M101.704 137.045c.274.977.785 2.062 1.531 3.254.747 1.206 1.265 1.764 1.555 1.672.289-.091.723-.596 1.302-1.512a15.805 15.805 0 001.44-2.75l-5.828-.664z" fill="white"/><path d="M165.815 145.202c-.198.015-.389.886-.572 2.612-.182 1.68-.221 2.62-.114 2.818.107.26.434.451.983.573.609.122 1.15.054 1.623-.206.274-.168.51-.519.708-1.054.198-.519.252-.878.16-1.077-.213-.428-.678-1.13-1.394-2.108-.762-1.054-1.227-1.573-1.394-1.558z" fill="#0D131A"/><path d="M166.021 146.073c-.092.107-.191.794-.297 2.062-.107 1.298-.092 1.978.045 2.039.198.107.457.183.777.229l.915-.114c.32-.168.495-.619.525-1.352l-.982-1.535c-.595-.947-.922-1.39-.983-1.329z" fill="white"/><path d="M160.078 147.929c-.183.061-.397 1.069-.64 3.024-.229 1.91-.297 2.933-.206 3.07.091.184.503.306 1.234.367.808.061 1.433-.069 1.874-.389.381-.275.663-.65.846-1.123.183-.458.206-.84.069-1.146-.138-.275-.633-.962-1.486-2.062-.945-1.222-1.508-1.803-1.691-1.741z" fill="#0D131A"/><path d="M160.444 148.96c-.061.076-.153.847-.275 2.314-.106 1.482-.114 2.261-.022 2.337l.754.115c.457-.016.807-.107 1.051-.275.381-.291.587-.833.617-1.627l-1.051-1.558c-.655-.932-1.013-1.367-1.074-1.306z" fill="white"/><path d="M126.754 150.816c.092-.26-.007-1.184-.297-2.773-.274-1.619-.51-2.436-.708-2.452-.244-.03-.739.505-1.486 1.604l-1.211 1.925c-.199.275-.183.649.045 1.123.229.473.579.825 1.052 1.054.487.244 1.036.29 1.645.137.534-.152.854-.359.96-.618z" fill="#0D131A"/><path d="M123.76 149.349c.061.657.267 1.077.618 1.26l.914.069.731-.229c.137-.076.114-.756-.068-2.039-.168-1.268-.298-1.948-.389-2.039-.061-.062-.373.397-.937 1.374l-.869 1.604z" fill="white"/><path d="M132.354 154.046c.366-.213.434-1.267.206-3.162-.229-1.894-.541-2.925-.938-3.093-.198-.061-.67.413-1.417 1.421-.731 1.023-1.241 1.886-1.531 2.589-.107.26-.076.603.091 1.031.199.489.511.878.938 1.169.457.29.998.397 1.622.32.457-.045.8-.137 1.029-.275z" fill="#0D131A"/><path d="M129.36 151.847c.061.718.32 1.222.777 1.512l1.006.252.754-.137c.092-.077.031-.848-.183-2.315-.198-1.451-.335-2.215-.411-2.291-.046-.061-.373.397-.983 1.375l-.96 1.604z" fill="white"/><path d="M193.196 135.143c.183-.473.267-.955.251-1.443-.03-.795-.167-1.169-.411-1.123-.213.046-.388.351-.526.916a6.168 6.168 0 01-.457 1.123l-.434.642a5.856 5.856 0 01-3.017 1.626l-6.102.298c-3.734-.046-7.528.352-11.383 1.192-2.331.504-5.455 1.397-9.37 2.681l-6.103 1.879c-2.27.611-4.183.939-5.737.985-.746.015-2.697-.298-5.851-.94l-10.993-2.291c-11.733-2.368-21.797-3.865-30.193-4.491-2.788-.199-5.135-.703-7.04-1.512-1.721-.733-2.887-1.612-3.496-2.635-.534-.901-.983-1.199-1.349-.894-.365.306-.327.779.114 1.421 1.25 1.772 2.697 2.994 4.343 3.666 1.432.565 3.863 1 7.291 1.306 4.952.428 14.041 1.886 27.267 4.376 12.19 2.276 18.757 3.391 19.702 3.346 2.727-.168 6.879-1.146 12.456-2.933 3.916-1.268 6.979-2.146 9.188-2.635 3.779-.825 7.489-1.215 11.131-1.169 3.459.046 5.866-.122 7.222-.504.945-.26 1.897-.863 2.857-1.81.274-.275.488-.634.64-1.077z" fill="#0D131A"/><path d="M158.432 138.695c.396-.214.549-.504.457-.871-.106-.367-.426-.497-.96-.39-.533.107-.952.275-1.257.505l-1.211 1.237c-.442.504-.488.825-.137.962l.686.046a13.054 13.054 0 012.422-1.489zM146.89 139.749c-.488-.596-.945-1.016-1.371-1.261-.381-.198-.945-.366-1.692-.504-.701-.122-1.074.039-1.12.482-.03.442.282.725.937.847a7.356 7.356 0 011.692.619c.487.244.731.389.731.435l.777.161c.442 0 .457-.26.046-.779zM108.286 58.636c-4.86-.107-8.548.512-11.062 1.856l-.366.207 2.286 6.484c2.865-.489 5.577-.764 8.137-.825-1.798.687-3.193 1.451-4.183 2.291a3.85 3.85 0 01-1.028.665c-.229.183-.29.596-.183 1.237l.365 4.308c.198 2.23.412 3.635.64 4.216.275.657.473.977.595.962.061-.015.167-.267.32-.756.198-.657.952-1.566 2.262-2.727 1.661-1.481 3.467-2.505 5.417-3.07-2.423 2.093-4.99 4.499-7.702 7.218l5.165 4.468c3.52 2.948 5.486 4.384 5.897 4.307.381-.076 1.257-.771 2.628-2.085l3.657-3.505-2.857 4.857c-1.097 1.879-1.63 2.971-1.6 3.277.061.504 1.539 1.344 4.434 2.52l3.474 2.796c2.377 1.802 3.749 2.596 4.115 2.382.365-.213 1.188-1.145 2.468-2.795l3.223-4.147-1.875 5.66c-.777 2.321-1.142 3.65-1.097 3.986.046.352.724 1.001 2.034 1.948l2.949 1.993c.701.459 1.196.711 1.486.756.304.031.556-.137.754-.504l2.674-5.224c-.335 1.375-.876 3.269-1.623 5.683 3.398 2.703 5.166 3.971 5.303 3.803.076-.092.403-.97.982-2.635l1.623-4.651-.434 8.248c0 .107.945.558 2.834 1.352 1.935.81 3.009 1.138 3.223.986.183-.138.365-.818.548-2.04l.549-3.643-.297 4.514c-.092 1.436-.069 2.192.068 2.268 5.059 1.467 7.756 2.04 8.091 1.719.198-.199-.122-1.978-.96-5.339l-1.783-6.92c.61.611 2.149 2.276 4.617 4.995 2.24 2.383 3.52 3.521 3.84 3.415.32-.092.861-1.574 1.623-4.446l1.028-4.284-3.131-3.208 2.697 2.085c1.783 1.329 2.758 1.902 2.926 1.718.167-.183.068-1.283-.297-3.299l-.595-2.979-7.519-5.453 5.371 2.429c1.965.9 3.04 1.245 3.222 1.03.183-.213-.342-1.74-1.577-4.582l-1.897-4.193-6.605-5.774 3.611 1.902c1.433.748 2.187 1.054 2.263.916.137-.244-2.194-3.52-6.994-9.83l-8.456-2.222 2.925-.412 2.194-.482c.32-.091.45-.26.389-.504l-.206-.343a61.558 61.558 0 00-5.622-4.606l-.115-.092-3.36-.297-5.599-.573 4.914-.848.343-.23c.091-.228-.16-.534-.755-.916l-5.531-4.01c-3.078-2.245-4.83-3.436-5.256-3.574-2.118-.351-4.876-.069-8.274.848a42.128 42.128 0 00-9.828 4.055c-2.819-1.45-6.651-2.23-11.497-2.337z" fill="#0D131A"/><path d="M108.539 66.862c-1.905.596-3.787 1.68-5.646 3.254l.298 3.23.502 4.446c.899-1.1 2.172-2.185 3.817-3.254 2.012-1.329 3.924-2.13 5.737-2.406l1.371-.092c.092.107-.251.436-1.028.986-.716.52-2.126 1.78-4.228 3.78l-3.84 3.712 3.474 2.864c.076.061 1.143-.649 3.2-2.13 2.072-1.482 3.238-2.162 3.497-2.04.259.138-.579 1.031-2.514 2.681l-2.926 2.52 4.571 3.735 7.817-6.965c.99-.87 1.554-1.283 1.691-1.238.168.031-.137.65-.914 1.856-1.082 1.68-2.865 4.934-5.348 9.761l3.382 1.65 1.692-2.543c1.173-1.665 1.859-2.452 2.057-2.36.167.076-.275 1.016-1.326 2.818l-1.531 2.727 6.194 4.49c3.763-4.826 5.995-7.553 6.696-8.18l1.143-.962c.198-.03.107.443-.274 1.421-.549 1.482-1.714 5.278-3.497 11.388l5.325 3.666 1.829-4.033 2.354-4.972c.548-1.054.868-1.581.96-1.581.107.015.122.542.046 1.581-.061.962-.366 2.627-.915 4.995-.502 2.169-.944 3.842-1.325 5.018l3.611 2.589 1.486-4.353c.883-2.505 1.493-4.14 1.828-4.904.488-1.069.785-1.634.891-1.695.183-.092.214.542.092 1.902l-.572 10.929 4.229 1.627c1.066-5.973 1.76-9.54 2.08-10.7.228-.886.457-1.337.685-1.352.229 0 .328.488.297 1.466l-.388 12.259 5.737 1.237c-2.255-8.936-3.307-13.633-3.154-14.092.091-.275 1.607 1.123 4.548 4.193l5.165 5.477 1.989-6.531-3.177-3.139-3.383-3.551c-.625-.718-.884-1.153-.777-1.306.091-.138.503 0 1.234.412.533.306 1.989 1.337 4.366 3.093l4.091 2.979-.549-3.918c-6.064-4.231-9.569-6.767-10.513-7.607-.686-.611-.983-.978-.892-1.1.092-.122.549-.046 1.372.23.655.213 2.339.877 5.051 1.993l5.188 2.108-2.514-6.37c-4.876-4.323-7.946-6.996-9.211-8.02l-1.76-1.512c-.076-.153.693.069 2.309.664 1.432.535 2.575 1.032 3.428 1.49l2.263 1.214-4.526-6.324-5.028-1.26-6.034-1.673c-.838-.305-1.242-.565-1.211-.779.015-.198.457-.267 1.325-.206l3.177-.115 3.863-.687c-1.737-1.527-3.314-2.803-4.731-3.826l-6.606-.62-5.211-.64c-.807-.108-1.211-.268-1.211-.482 0-.214.396-.382 1.188-.504l3.68-.779 2.537-.619c-.731-.458-2.499-1.741-5.302-3.849-2.499-1.894-3.893-2.887-4.183-2.979-3.306-.366-7.314.344-12.022 2.131-2.347.901-4.366 1.833-6.057 2.796-2.59-1.406-6.186-2.185-10.788-2.337-4.586-.153-8.152.374-10.696 1.58l1.371 4.331 5.348-.298c3.52-.153 6.011-.175 7.474-.069 1.585.123 2.255.306 2.011.55-.198.199-.86.352-1.988.459-1.661.168-2.918.39-3.771.664z" fill="#00A63C"/><path d="M112.287 65.19c1.584.122 2.255.305 2.011.55-.198.198-.861.35-1.988.458-1.661.168-2.918.39-3.772.664-1.904.596-3.786 1.68-5.645 3.254l.297 3.23.503 4.446c.899-1.1 2.171-2.185 3.817-3.254 2.011-1.329 3.923-2.13 5.737-2.406l1.371-.092c.091.107-.251.436-1.028.986-.717.52-2.126 1.78-4.229 3.78l-3.84 3.712 3.475 2.864c.076.061 1.142-.649 3.199-2.13 2.073-1.482 3.238-2.162 3.497-2.04.259.138-.579 1.031-2.514 2.681l-2.925 2.52 3.428 2.819c3.444-5.591 8.007-9.425 13.691-11.502 6.186-2.246 12.136-1.68 17.85 1.695 2.118-5.346 5.28-8.157 9.485-8.432l-1.943-1.466-6.605-.62-5.211-.64c-.808-.108-1.211-.268-1.211-.482 0-.214.396-.382 1.188-.504l3.68-.779 2.537-.619c-.732-.458-2.499-1.741-5.303-3.849-2.499-1.894-3.893-2.887-4.182-2.979-3.307-.366-7.314.344-12.022 2.131-2.347.901-4.366 1.833-6.057 2.796-2.591-1.406-6.187-2.185-10.788-2.337-4.587-.153-8.152.374-10.697 1.58l1.372 4.331 5.348-.298c3.52-.153 6.011-.175 7.474-.069z" fill="#009233"/><path d="M121.657 60.836h-.068l-2.857.435-.846-.229c-.305 0 .206.382 1.531 1.146 4.709 1.924 9.333 4.468 13.874 7.63 8.792 6.095 16.113 14.107 21.964 24.036l.48.87c.061.046.114-.29.16-1.008.122-1.94-.602-4.537-2.171-7.79-1.676-3.483-3.947-6.882-6.811-10.197-7.329-8.477-15.748-13.442-25.256-14.893z" fill="#0D131A"/><path d="M120.537 61.89c5.028 1.42 10.338 4.216 15.93 8.386 7.71 5.744 13.828 12.862 18.353 21.355-.533-2.291-1.668-4.926-3.405-7.905-1.92-3.284-4.236-6.377-6.948-9.28-6.888-7.317-14.498-11.624-22.833-12.923l-.96.092c-.503.061-.549.153-.137.275z" fill="#00A63C"/><path d="M121.636 61.523l-.96.092c-.502.061-.548.153-.137.275 2.636.748 5.569 2.009 8.8 3.78 4.083 2.261 7.931 5.003 11.542 8.226a8.205 8.205 0 012.034-1.03c-3.002-2.934-6.186-5.34-9.554-7.218-3.809-2.139-7.717-3.514-11.725-4.125z" fill="#009233"/><path d="M37.982 50.502c-.076.611.93 1.848 3.017 3.712 2.072 1.848 3.284 2.597 3.634 2.245l3.314-3.94-.845 2.566c-.381 1.283-.503 2.138-.366 2.566.168.52 1.364 1.191 3.588 2.016 2.21.825 3.39 1.054 3.543.688.107-.275.54-.894 1.303-1.856l2.011-2.475.046 3.483c.015 1.36.091 2.1.228 2.223.32.29 2.583.427 6.788.412 4.876-.015 8.914-.435 12.114-1.26.823-.199 1.31-.36 1.463-.481.365-.29.724-1.009 1.074-2.154.838-2.689 2.377-5.599 4.617-8.73a53.119 53.119 0 017.29-8.157c2.743-2.52 5.357-4.422 7.84-5.706 2.636-1.359 4.731-1.794 6.286-1.306l.777-.114c5.287-2.566 12.319 1.443 21.096 12.03a118.306 118.306 0 0111.587 16.634h9.257l.686-4.49 1.165 1.374.755 1.398.662 1.214c.32.153 1.158-.038 2.515-.573l5.759-2.016 4.549-1.444c.761-.229 1.218-.519 1.371-.87.183-.428.076-1.177-.32-2.246l-.892-2.68-.868-2.865c.594.504 1.661 1.803 3.2 3.895 1.417 1.925 2.293 2.971 2.628 3.14.503.229 2.217-.52 5.143-2.246 2.925-1.71 4.51-2.872 4.754-3.483.137-.336-.739-1.466-2.629-3.39-2.087-2.14-4.617-4.385-7.588-6.737-8.243-6.553-16.197-11.136-23.861-13.748-8.213-2.81-15.458-3.842-21.736-3.093-5.988.702-11.809 3.116-17.462 7.24-5.698-4.017-12.517-5.873-20.456-5.568-7.588.29-15.488 2.498-23.701 6.622-5.73 2.902-11.237 6.599-16.525 11.09-4.419 3.773-6.689 6.133-6.81 7.08z" fill="#0D131A"/><path d="M44.703 55.016L46.075 53a22.25 22.25 0 012.902-3.3c1.174-1.115 1.806-1.527 1.897-1.237.061.214-.19.848-.754 1.902-.396.748-.762 1.665-1.097 2.75l-1.074 3.734c1.158.794 2.94 1.474 5.348 2.04l2.583-3.781c1.523-2.17 2.346-3.109 2.468-2.819.137.29.236 1.627.297 4.01l.114 4.24 7.543.343c4.281-.046 7.657-.52 10.125-1.42.792-2.903 2.278-5.996 4.457-9.28a50.34 50.34 0 017.428-8.845c2.94-2.78 5.874-4.919 8.8-6.416 3.154-1.619 5.972-2.306 8.456-2.062 6.08-2.383 13.226 1.222 21.439 10.815 4.495 5.224 8.563 11.19 12.205 17.895h7.291c.381-1.665.617-3.04.708-4.124l.069-1.604c.076-.168.426.046 1.051.642l1.92 1.993c.61.733 1.021 1.443 1.234 2.13 2.012-.366 6.133-1.664 12.365-3.894-1.219-4.048-2.11-6.897-2.674-8.547-.396-1.16-.541-1.764-.434-1.81l1.348.87c.975.673 2.126 1.673 3.452 3.002 1.615 1.635 2.864 3.185 3.748 4.652 1.539-.398 3.063-1.047 4.571-1.948 1.097-.642 2.027-1.306 2.788-1.993-3.382-3.422-7.207-6.768-11.473-10.036-7.497-5.729-14.59-9.739-21.279-12.03-8.304-2.826-15.328-4.025-21.073-3.597-5.866.443-11.473 2.65-16.822 6.622l-.708.32c-5.15-3.009-10.773-4.636-16.868-4.88-8.03-.336-16.532 1.757-25.507 6.278-5.333 2.689-10.513 6.042-15.542 10.059-3.398 2.72-6.087 5.163-8.068 7.332.427.718 1.257 1.497 2.492 2.337l2.902 1.673z" fill="#E85382"/><path d="M82.048 27.566c5.531 1.482 10.102 4.178 13.714 8.088 3.687-2.153 6.955-3.085 9.805-2.795 2.011-.779 4.175-.894 6.491-.344 1.493-2.581 3.413-4.72 5.759-6.415-3.977.977-7.915 2.91-11.816 5.797l-.709.32c-6.963-4.063-14.711-5.613-23.244-4.65zM59.238 35.586c-4.525 2.581-8.883 5.606-13.073 9.073-2.895 2.383-5.18 4.499-6.857 6.347.427.733 1.265 1.52 2.514 2.36 4.556-6.033 10.361-11.96 17.416-17.78zM135.622 55.497a119.79 119.79 0 013.588 6.072h6.423c-4.617-6.63-10.3-11.96-17.051-15.993 2.377 2.948 4.724 6.255 7.04 9.921z" fill="#C94772"/><path d="M86.46 32.126c1.92-1.299 2.88-2.162 2.88-2.59.06-.565 0-1.114-.183-1.65-.183-.58-.488-1-.915-1.26l-.045-.045h-.069c-5.043-.092-10.323.74-15.839 2.497l-.274.092.32.756c.746 1.696 1.364 2.918 1.851 3.666 1.082 1.635 2.278 2.643 3.588 3.025 1.006.29 3.901-1.207 8.686-4.491z" fill="#0D131A"/><path d="M87.808 27.222c-4.693-.06-9.645.718-14.856 2.338l.092.206c.624 1.42 1.203 2.513 1.737 3.276.975 1.406 2.057 2.284 3.245 2.635.26.077.815-.06 1.669-.412.99-.413 2.186-1.031 3.588-1.856 1.478-.87 2.75-1.703 3.817-2.497.945-.718 1.44-1.177 1.486-1.375l.022-.344c0-.932-.266-1.589-.8-1.97z" fill="#FCEEF4"/><path d="M87.808 27.222l-6.536.436 3.428.687c1.341.306 2.59.78 3.748 1.42l.138-.228.022-.344c0-.932-.266-1.589-.8-1.97z" fill="#D9CED4"/><path d="M75.718 43.56c-2.803-1.161-4.83-1.59-6.08-1.284-1.416.336-2.536 2.063-3.359 5.179-.747 2.841-.899 4.865-.457 6.072.38 1.069 1.82 1.917 4.32 2.543l3.657.596c1.203.26 3.367-.878 6.49-3.414l.046-.046 2.355-4.651c-1.463-2.017-3.787-3.682-6.972-4.995z" fill="#0D131A"/><path d="M75.079 44.086c-2.56-1.038-4.358-1.435-5.394-1.191-.275.076-.717.672-1.326 1.787a15.883 15.883 0 00-1.303 3.162c-.366 1.207-.548 2.307-.548 3.3 0 .733.099 1.375.297 1.924.533 1.467 2.666 2.383 6.4 2.75l.502.069c.945.213 2.758-.749 5.44-2.887l1.942-3.14.64-1.168c-1.417-1.879-3.634-3.414-6.65-4.606z" fill="#FCEEF4"/><path d="M56.678 40.008c-3.413 1.802-5.295 2.986-5.645 3.551a.498.498 0 000 .505c.305.55 1.737 1.367 4.297 2.451 2.453 1.039 3.977 1.558 4.571 1.558.61 0 1.722-.832 3.337-2.497 1.585-1.635 2.476-2.826 2.674-3.575.198-.825.015-1.703-.549-2.635-.243-.397-.632-.794-1.165-1.191-.518-.382-.952-.611-1.303-.688-.67-.152-2.743.688-6.217 2.521z" fill="#0D131A"/><path d="M52.108 43.834c.122.352 1.295 1.009 3.52 1.971 2.194.932 3.58 1.398 4.16 1.398.411 0 1.356-.741 2.834-2.223 1.493-1.497 2.331-2.59 2.514-3.276.183-.657.023-1.383-.48-2.177-.442-.703-.937-1.115-1.486-1.238-.564-.122-2.476.665-5.736 2.36-3.185 1.635-4.96 2.697-5.326 3.185z" fill="#FCEEF4"/><path d="M128.241 24.817l-.411-.023.137.366 1.028 3.941c.564 2.108.983 3.239 1.257 3.391.488.23 2.233.275 5.234.138 3.063-.153 4.876-.413 5.44-.78l.343-.274.206-.252c0-.26-.663-1.184-1.989-2.773l-1.988-2.314-.663-.435-4.457-.688-4.137-.297z" fill="#0D131A"/><path d="M128.719 25.344l.731 3.024.503 2.108c.198.672.396 1.062.594 1.169.427.213 2.019.236 4.777.068 2.758-.168 4.327-.382 4.708-.641-.076-.397-.838-1.474-2.285-3.23l-.846-1.055c-2.91-.733-5.638-1.214-8.182-1.443z" fill="#FCEEF4"/><path d="M148.627 38.519c-4.281-2.215-6.666-3.285-7.154-3.208-.518.091-1.516 1.963-2.994 5.614-1.462 3.605-2.186 5.88-2.171 6.828.015 1.084 2.27 2.047 6.765 2.887 4.45.825 6.865.94 7.246.343l2.811-3.666c1.752-2.367 2.575-3.773 2.468-4.216-.198-.779-2.522-2.306-6.971-4.582z" fill="#0D131A"/><path d="M154.594 43.33c-.137-.519-2.164-1.81-6.08-3.872-3.84-2.016-6.095-3.047-6.765-3.093-.412.275-1.265 1.978-2.56 5.11-1.31 3.177-1.966 5.2-1.966 6.071v.023l.343.436c.412.305 1.09.61 2.034.916 1.859.611 3.962 1.039 6.309 1.283 2.209.245 3.42.222 3.634-.069l1.508-1.787c2.362-2.612 3.543-4.246 3.543-4.903v-.115z" fill="#FCEEF4"/><path d="M130.16 36.09c-.609-.886-1.043-1.398-1.302-1.535-1.052-.52-2.789-.848-5.211-.986-3.17-.168-5.196.49-6.08 1.97l-.137.23.205.138c2.271 1.481 4.595 3.467 6.971 5.957l.092.092.137-.023 3.611-.481 3.314-.436c.595-.122.93-.282 1.006-.481.061-.107.053-.221-.023-.344l-.708-1.123-1.875-2.978z" fill="#0D131A"/><path d="M128.194 34.99c-.777-.397-2.255-.68-4.434-.848-2.773-.198-4.624.23-5.554 1.283 2.042 1.406 4.228 3.315 6.56 5.729l3.222-.413 3.726-.573-.617-.985c-1.585-2.627-2.552-4.025-2.903-4.193z" fill="#FCEEF4"/><path d="M79.741 178.266c-.792.488-1.744 1.275-2.857 2.36-1.188 1.145-1.79 1.909-1.805 2.291-.046.443.327 1.275 1.12 2.497.731 1.146 1.417 2.032 2.057 2.658-.092-2.077-.061-3.765.091-5.063.213-1.818.678-3.399 1.394-4.743z" fill="#DBDCDC"/></svg>