<svg width="207" height="226" fill="none" xmlns="http://www.w3.org/2000/svg"><g clip-path="url(#clip0_2621_689)"><path d="M190.164 21.368c.493-10.47-.658-16.568-3.455-18.294-2.112-1.316-4.456-.288-7.034 3.083-3.18 4.084-5.731 9.551-7.65 16.403-2.331 8.36-3.428 17.87-3.291 28.531-.109 2.494 0 5.03.329 7.606l1.358 8.099 1.727 9.62c.521 3.206 1.796 4.947 3.826 5.22 2.522.33 5.58-1.534 9.172-5.59 3.098-3.509 5.895-7.757 8.391-12.745 1.919-3.81 2.508-6.865 1.768-9.168-.795-2.494-2.934-2.603-6.416-.329 2.385-3.891 3.989-9.208 4.812-15.95.96-7.784-.233-12.553-3.578-14.307l.041-2.179z" fill="#0D131A"/><path d="M181.692 7.267c-6.746 5.344-10.64 19.966-11.682 43.865-.109 2.44 0 4.934.33 7.482l1.357 7.976 1.727 9.62c.412 2.604 1.317 3.988 2.715 4.152 2.029.247 4.716-1.453 8.062-5.098 3.098-3.398 5.443-6.893 7.033-10.483 2.358-5.427 2.989-8.66 1.892-9.702l-2.879.164-3.743.987c-.932.302-1.522.206-1.769-.288-.274-.52.275-1.028 1.646-1.52 1.453-.522 2.838-3.893 4.154-10.114 1.316-6.167 1.686-10.95 1.11-14.348-.466-2.905-1.302-4.782-2.509-5.632l-.287-.165v-.37c.219-10.579-.878-16.471-3.291-17.677-.932-.493-2.221-.11-3.866 1.15z" fill="#AFCEE5"/><path d="M185.433 13.31c-.302-.904-.782-.904-1.44 0l-1.275 1.727c-1.097 1.891-2.235 4.974-3.414 9.25-1.48 5.344-2.728 11.346-3.743 18.007-1.014 6.632-1.467 11.73-1.357 15.293.137 4.001.987 4.947 2.55 2.836 2.742-3.7 4.209-9.29 4.401-16.773l.206-8.058c.192-2.768.658-4.85 1.398-6.248 1.7-3.125 2.688-7.072 2.962-11.84.109-1.946.013-3.344-.288-4.194z" fill="#93AEC1"/><path d="M183.09 15.201c.96-1.946 1.289-2.987.987-3.124-.301-.11-.959.658-1.974 2.302-1.426 2.302-2.934 6.866-4.524 13.69-1.92 8.305-2.564 15.362-1.934 21.172l1.646 2.015c-.604-5.592-.055-12.676 1.645-21.255 1.398-7.07 2.783-12.004 4.154-14.8zM156.437 94.216c-3.51 1.782-6.568 6.88-9.172 15.294-2.523 8.14-3.387 15.115-2.592 20.925.576 4.221 2.139 6.605 4.689 7.153 4.771.905 11.202-1.027 19.291-5.796 6.855-4.084 13.436-9.223 19.743-15.417 8.5-8.386 12.778-15.869 12.833-22.446 0-1.645-.316-3.234-.946-4.77a12.05 12.05 0 00-2.633-3.987c-3.098-3.097-10.187-2.837-21.265.781-6.197 2-12.846 4.755-19.948 8.263z" fill="#0D131A"/><path d="M148.374 110.126c-2.385 7.921-3.194 14.636-2.426 20.145.466 3.645 1.686 5.659 3.66 6.043 4.333.822 10.146-.932 17.44-5.262 6.471-3.81 12.901-8.853 19.29-15.129 4.086-4.001 7.212-7.907 9.378-11.717 2.194-3.809 3.304-7.263 3.332-10.36 0-2.932-1.001-5.426-3.003-7.482-2.468-2.466-8.185-2.398-17.151.206-6.773 1.973-14.067 4.906-21.882 8.798-3.263 1.644-6.142 6.564-8.638 14.758z" fill="#88A3D4"/><path d="M163.43 116.91c-1.7-1.48-3.784-3.796-6.252-6.948-2.879-3.7-4.867-6.112-5.964-7.236-1.947 4.057-3.428 8.73-4.442 14.019-1.07 5.399-1.344 9.908-.823 13.526.466 3.645 1.686 5.659 3.661 6.043 3.893.767 9.035-.589 15.424-4.07 5.621-3.042 11.462-7.29 17.522-12.744-7.431 2.85-13.807 1.987-19.126-2.59z" fill="#778DB8"/><path d="M198.843 83.24c-3.017-.63-5.114-.52-6.293.329-.275.192-.329.63-.165 1.315l.699 2.18c.275.876.658 1.726 1.152 2.548.576.987 1.056 1.48 1.44 1.48.63 0 2.193-.48 4.689-1.439 2.796-1.069 4.387-1.987 4.771-2.754.219-.466.041-.946-.535-1.44-1.097-.904-3.016-1.644-5.758-2.22z" fill="#0D131A"/><path d="M195.675 90.434c.549 0 1.933-.466 4.155-1.397 2.385-.987 3.729-1.796 4.03-2.426v-.082l-.37-.576c-.96-.822-2.536-1.425-4.73-1.809-2.386-.438-4.099-.288-5.141.453-.165.082-.247.328-.247.74l.041.534c.137.877.507 1.864 1.111 2.96l1.151 1.603z" fill="white"/><path d="M205.876 90.064c-.823-.466-2.317-.795-4.483-.986-1.92-.165-3.442-.179-4.566-.042-.274.028-.493.192-.658.494-.384.795-.274 2.138.329 4.029.686 2.083 1.686 3.522 3.003 4.316.548.357 2.646-1.534 6.293-5.673.411-.52.603-.973.575-1.357 0-.356-.164-.616-.493-.78z" fill="#0D131A"/><path d="M204.848 91.051c.028-.439-1.083-.822-3.331-1.151l-4.607-.247-.165.165-.082.575c0 .74.343 1.96 1.028 3.66.713 1.753 1.275 2.63 1.687 2.63.466 0 1.48-.808 3.043-2.425 1.591-1.617 2.4-2.686 2.427-3.207z" fill="white"/><path d="M204.766 91.38c-2.578 1.535-4.813 2.727-6.705 3.576.576 1.151 1.015 1.727 1.316 1.727.439 0 1.358-.699 2.756-2.097 1.426-1.397 2.304-2.466 2.633-3.206z" fill="#DBDCDC"/><path d="M202.462 85.295l-5.964.288-4.73 1.11c-.494.11-.836.466-1.028 1.07-.467 1.561.192 3.343 1.974 5.343 1.7 1.946 2.906 2.686 3.619 2.22 1.234-.767 2.66-2.37 4.278-4.81 1.563-2.384 2.29-3.946 2.18-4.686 0-.22-.11-.398-.329-.535z" fill="#0D131A"/><path d="M201.146 86.693c.247-.438-1.275-.424-4.566.041-3.263.466-4.935.932-5.017 1.398-.192 1.07.301 2.385 1.48 3.947 1.152 1.507 2.125 2.247 2.921 2.22.603-.028 1.59-1.206 2.961-3.536l2.221-4.07z" fill="white"/><path d="M195.964 94.299c.548-.028 1.412-1 2.591-2.92l2.303-4.151-7.485 5.22c1.042 1.234 1.905 1.85 2.591 1.85z" fill="#DBDCDC"/><path d="M153.434 158.802c-2.221-1.727-5.69-1.604-10.406.37-5.375 2.247-11.366 6.29-17.975 12.127-6.306 5.537-9.583 9.36-9.83 11.47v.206l-.411 1.192-.288.822c7.952 5.591 12.024 8.88 12.216 9.867-.878 4.577-1.138 7.647-.782 9.209.165.658 2.592 2.055 7.28 4.193l7.116 3.001c1.261.466 2.441-.096 3.537-1.685l1.851-3.536 4.772 2.385c2.495 1.233 4.14 1.877 4.935 1.932.933.109 1.755-.59 2.468-2.097l1.193-3.248 3.784.74 4.154.617c.494 0 .85-.192 1.07-.576.137-.219.205-.493.205-.822 0-1.315-.521-3.028-1.563-5.139-.137-.301-.589-.986-1.357-2.055l-1.193-1.85c1.974-2.878 3.359-5.221 4.154-7.03a19.51 19.51 0 001.687-7.153v-.165c-.302-3.892-2.852-8.592-7.651-14.101-3.098-3.563-6.087-6.454-8.966-8.674z" fill="#0D131A"/><path d="M146.565 159.295c-2.687.713-5.895 2.247-9.624 4.604-5.073 3.207-9.885 7.03-14.437 11.47-4.004 3.947-6.005 6.469-6.005 7.565v.041c1.672 1.206 3.866 3.028 6.581 5.468 3.592 3.261 5.388 5.371 5.388 6.331l-.617 4.234c-.329 2.549-.357 3.947-.083 4.193.357.329 2.084 1.22 5.183 2.673 3.153 1.452 5.58 2.48 7.28 3.083 1.015.356 2.002-.069 2.962-1.274l1.686-2.755c.274-.466 1.837-.164 4.689.905 2.111.767 3.88 1.507 5.306 2.22 1.042.52 2.125-.795 3.249-3.947.137-.411 1.453-.439 3.949-.082l4.277.164c.329-.384.096-1.343-.699-2.878l-2.427-4.275a12.258 12.258 0 01-2.92 2.055c-1.069.494-1.371.398-.905-.287l1.234-1.563 2.304-2.918c2.824-3.7 4.332-7.907 4.524-12.622v-.164c0-2.384-2.125-6.413-6.375-12.087-3.647-4.905-6.458-8.126-8.432-9.661-1.344-1.041-3.373-1.206-6.088-.493z" fill="#88A3D4"/><path d="M151.418 159.172c-3.044-1.042-7.87.534-14.478 4.727-5.073 3.207-9.885 7.03-14.437 11.47-4.004 3.947-6.005 6.468-6.005 7.565v.041c1.672 1.206 3.866 3.028 6.581 5.468 3.592 3.261 5.388 5.371 5.388 6.331l-.617 4.234c-.329 2.549-.357 3.947-.082 4.193.411.384 2.44 1.453 6.087 3.207 3.784 1.782 5.909 2.631 6.375 2.549-.493-1.535-.767-3.755-.822-6.66-.028-1.919-.809-3.864-2.345-5.838-2.303-2.987-1.179-9.222 3.373-18.705 3.071-6.386 6.732-12.58 10.982-18.582z" fill="#778DB8"/><path d="M69.649 62.109c-2.77-4.385-6.444-8.154-11.023-11.306-4.525-3.124-9.145-5.125-13.861-6.002-7.185-1.315-14.081-.48-20.69 2.508-7.266 3.289-11.996 8.373-14.19 15.252-2.193 6.825-1.974 12.402.658 16.732 1.838 3.015 4.456 5.07 7.857 6.167-3.428 4.166-5.073 8.962-4.936 14.389.055 1.726.534 4.358 1.44 7.893-5.567 2.741-9.392 6.893-11.476 12.457-1.892 5.015-2.221 10.689-.987 17.02 1.151 5.974 3.496 11.62 7.033 16.937 3.592 5.4 7.774 9.483 12.545 12.251 9.488 5.482 18.166 7.948 26.036 7.4 3.73-.274 8.35-1.658 13.861-4.152 1.563-.685 2.756-3.412 3.579-8.181.575-3.371 1.22-9.88 1.933-19.528.74-9.729 1.398-17.061 1.974-21.994 1.042-8.77 2.372-16.266 3.99-22.488 1.947-7.427 2.399-14.484 1.357-21.172-.823-5.426-2.523-10.154-5.1-14.183z" fill="#0D131A"/><path d="M44.354 46.816c-6.8-1.261-13.34-.384-19.62 2.63-6.827 3.262-11.283 8.196-13.367 14.8-1.7 5.373-1.55 9.936.452 13.69.905 1.727 2.153 3.207 3.743 4.44 1.344 1.015 2.701 1.727 4.072 2.138l.288 1.07c-3.126 3.453-4.661 8.249-4.607 14.388.028 3.07.37 5.824 1.029 8.263l-.33.411-1.357.699c-1.096.631-2.166 1.453-3.208 2.467-3.235 3.152-5.511 7.427-6.828 12.827-1.425 5.892-.41 12.881 3.044 20.966 3.647 8.606 8.788 15.033 15.424 19.281 7.98 5.098 15.973 7.496 23.98 7.195 4.661-.192 9.446-1.385 14.354-3.577 1.29-.576 2.317-3.467 3.085-8.674.467-3.152 1.029-9.141 1.687-17.966.685-9.592 1.33-16.951 1.933-22.076 1.042-8.798 2.385-16.335 4.03-22.611 1.865-7.154 2.18-13.937.947-20.35-.905-4.906-2.674-9.415-5.306-13.526-2.715-4.248-6.17-7.838-10.365-10.77-4.196-2.96-8.555-4.866-13.08-5.715z" fill="#AFCEE5"/><path d="M58.708 161.309c-2.632 1.892-5.62 2.933-8.966 3.125-2.88.192-6.526-.26-10.941-1.357-7.596-2.11-15-5.632-22.21-10.565-3.648-2.494-6.678-4.92-9.09-7.277 1.672 4.029 3.797 7.702 6.375 11.018 2.769 3.59 5.84 6.468 9.213 8.633 7.98 5.098 15.972 7.496 23.98 7.195 4.66-.192 9.446-1.385 14.354-3.577.302-.137.33-.37.082-.699l-1.151-1.233c-1.371-1.563-1.92-3.317-1.646-5.263zM41.557 119.13c-.357 1.452-1.275 3.083-2.756 4.892-1.645 2.055-3.345 3.371-5.1 3.946-3.071.932-5.443.562-7.116-1.11-1.536-1.534-2.221-3.878-2.056-7.03-2.359 1.782-3.168 4.125-2.427 7.03.685 2.769 2.385 4.742 5.1 5.92 5.265 2.275 9.556 1.001 12.874-3.823 1.289-1.836 2.084-3.782 2.386-5.838.301-2.055.04-3.535-.782-4.44l-.082.288-.041.165zM28.23 85.542c-2.96.603-5.73.617-8.308.041-1.974 2.193-3.304 4.892-3.99 8.099 2.414 1.672 5.17 2.522 8.268 2.549 3.18.027 6.21-.822 9.09-2.549 2.605-1.562 4.51-4.604 5.717-9.127.987-3.727 1.262-6.851.823-9.373-1.81 5.728-5.676 9.182-11.6 10.36z" fill="#93AEC1"/><path d="M40.693 75.552c.219-1.754.068-3.453-.453-5.098a11.802 11.802 0 00-2.632-4.44c-1.097-1.15-2.44-1.877-4.031-2.178a9.534 9.534 0 00-3.414-.041c-1.398.246-2.632.794-3.702 1.644-.877.713-1.48 1.507-1.81 2.384-.466 1.316-.685 2.152-.658 2.508.083.466.576-.096 1.481-1.686.987-1.726 2.591-2.74 4.812-3.042 2.167-.301 4.127.192 5.882 1.48.85.63 1.577 1.713 2.18 3.248.63 1.644.85 3.207.658 4.687-.192 1.59-.74 3.083-1.645 4.48a11.26 11.26 0 01-3.455 3.372c-2.111 1.288-4.483 2.083-7.116 2.384-2.523.247-4.894.014-7.116-.699l-2.385-.123c-.11.411.535.85 1.933 1.316 3.373 1.096 6.471 1.411 9.296.945 2.139-.383 4.4-1.315 6.786-2.795 3.126-1.946 4.922-4.728 5.389-8.346zM25.187 123.117c-.192-1.068-.137-2.041.164-2.918l.412-.946c.219-.384.59-.781 1.11-1.192.521-.439.768-.74.74-.905l-.616-.041a4.786 4.786 0 00-2.016 1.151 4.811 4.811 0 00-1.275 1.974c-.356 1.041-.398 2.151-.123 3.33.301 1.288.932 2.425 1.892 3.412 1.042 1.069 2.317 1.795 3.825 2.179 1.727.438 3.592.397 5.594-.124 1.398-.356 2.714-1.164 3.948-2.425 1.344-1.343 2.249-2.892 2.715-4.646 1.261-4.577-.535-8.962-5.388-13.155-2.413-2.111-5.745-3.248-9.995-3.412-4.058-.137-7.678.603-10.859 2.22-1.837.931-2.66 1.589-2.467 1.973.219.384 1.22.11 3.002-.822 2.084-1.097 5.141-1.631 9.172-1.604 4.552.028 7.897.946 10.036 2.755 3.592 3.015 4.922 6.536 3.99 10.565-.823 3.618-2.564 5.77-5.224 6.455-3.318.849-5.703.534-7.156-.946-.768-.767-1.262-1.726-1.481-2.878z" fill="#0D131A"/><path d="M30.041 85.665l-.7-.616c-1.535 1.288-2.385 3.234-2.55 5.837-.109 2.22.261 4.55 1.111 6.99l.905 2.425c.082.027-.014-.822-.288-2.549-.905-5.618-.397-9.647 1.522-12.087zM36.664 82.253l-.905-.329c-.987 2.988-.686 7.825.905 14.513 1.782 7.591 4.551 13.429 8.308 17.513l3.29 3.33c.193.055-.658-1.261-2.55-3.947-3.564-5.043-6.224-11.086-7.979-18.13-1.536-6.221-1.892-10.538-1.07-12.95zM55.254 160.652l.206-.946c-6.938-1.562-13.162-5.81-18.674-12.744a50.122 50.122 0 01-4.853-7.359c-1.07-2.028-1.659-3.399-1.769-4.111-.192-1.151-.438-1.836-.74-2.056-.302-.192-.37.562-.206 2.261.274 3.234 2.386 7.277 6.335 12.128 5.264 6.523 11.832 10.799 19.701 12.827zM55.46 163.612c-2.304.603-5.745.589-10.325-.041-4.88-.658-9.007-1.782-12.38-3.372-1.892-.877-2.838-1.178-2.838-.904-.028.274.754.85 2.344 1.727 4.415 2.439 9.008 3.85 13.78 4.234 3.4.302 6.621.069 9.665-.699l-.247-.945z" fill="#0D131A"/><path d="M71.171 92.737c-8.856 6.906-14.93 16.732-18.22 29.476-1.783 6.934-2.537 13.813-2.263 20.638.247 6.714 1.454 12.607 3.62 17.677l.329.823.658-.576c4.415-3.7 8.267-7.469 11.558-11.306 2.002-2.274 3.482-5.632 4.442-10.072.603-2.713 1.152-6.961 1.645-12.744.439-4.742.823-8.099 1.152-10.072.603-3.426 1.453-6.112 2.55-8.058 1.344-2.357 3.236-4.55 5.676-6.578 1.426-1.206 3.743-2.823 6.951-4.85 3.866-2.44 6.622-4.427 8.268-5.962 2.742-2.631 4.579-5.66 5.511-9.085l.247-.905-.946.082c-12.641 1.316-23.034 5.153-31.178 11.512z" fill="#0D131A"/><path d="M65.907 148.606c1.892-2.138 3.29-5.358 4.195-9.661.549-2.576 1.07-6.715 1.563-12.415l1.193-10.278c.63-3.508 1.522-6.29 2.674-8.346 1.398-2.494 3.359-4.796 5.881-6.906 1.508-1.261 3.908-2.92 7.198-4.975 3.565-2.247 6.129-4.083 7.692-5.509 2.468-2.302 4.195-4.92 5.182-7.852-11.544 1.398-21.443 5.797-29.696 13.197-8.281 7.427-13.985 17.034-17.11 28.819-1.7 6.413-2.551 12.388-2.551 17.924 0 6.03 1.015 11.566 3.044 16.609 4.058-3.481 7.636-7.016 10.735-10.607z" fill="#B94100"/><path d="M54.678 124.68c-1.7 6.413-2.55 12.388-2.55 17.924 0 6.03 1.015 11.566 3.044 16.609 2.358-2.056 4.456-4.002 6.293-5.838-2.825-3.535-4.813-8.112-5.964-13.731-1.015-4.878-1.289-9.867-.823-14.964zM73.68 94.216c7.212-2.439 13.944-3.014 20.196-1.726 1.865-1.398 3.373-2.796 4.524-4.194a16.903 16.903 0 003.085-5.632c-10.584 1.261-19.852 5.112-27.804 11.552z" fill="#922F00"/><path d="M71.706 139.891c-1.152 4.111-2.715 7.276-4.69 9.496l-5.264 5.304-5.758 5.015-1.522 1.233.205.453c3.017 7.071 7.102 12.58 12.257 16.526 5.594 4.303 13.45 7.633 23.569 9.99 6.416 2.522 13.34 3.399 20.771 2.631 8.089-.877 14.971-3.59 20.648-8.14 7.376-2.877 13.765-7.592 19.167-14.142 5.155-6.249 8.925-13.566 11.311-21.953 2.742-8.935 3.331-17.308 1.768-25.119-1.316-6.632-4.25-12.991-8.802-19.075-3.619-4.824-8.253-8.963-13.902-12.416-5.649-3.48-12.106-6.153-19.373-8.016a42.178 42.178 0 00-8.966-1.316l-8.926.411-.411.041-.123.453c-.878 3.234-2.564 6.262-5.06 9.085-1.48 1.7-4.044 4.056-7.691 7.071l-6.581 5.838c-2.358 2.329-4.223 4.728-5.594 7.194-1.179 2.111-2.166 4.851-2.961 8.222-.494 2.111-1.07 5.263-1.728 9.456-.85 5.372-1.631 9.291-2.344 11.758z" fill="#0D131A"/><path d="M56.035 161.31c2.852 6.495 7.472 11.908 13.861 16.238 6.362 4.358 14.616 7.715 24.761 10.072 6.197 1.453 12.724 1.48 19.579.083 6.828-1.371 13.395-4.029 19.702-7.976 6.964-4.358 12.819-9.77 17.563-16.239 4.743-6.468 7.952-13.415 9.624-20.843 3.318-14.663 1.508-27.284-5.429-37.863-6.965-10.552-18.262-17.842-33.892-21.87a38.508 38.508 0 00-8.597-1.234l-8.473.329c-.987 3.316-2.728 6.4-5.223 9.25-1.563 1.781-4.168 4.165-7.815 7.153l-6.417 5.673c-2.275 2.302-4.085 4.632-5.429 6.989-1.124 2.028-2.07 4.659-2.838 7.893l-1.727 9.374c-.85 5.454-1.646 9.469-2.386 12.045-1.207 4.248-2.838 7.537-4.895 9.867-1.425 1.644-3.235 3.453-5.429 5.426l-5.758 4.975-.782.658z" fill="#FFF8B0"/><path d="M56.816 160.652l-.782.658c2.852 6.495 7.473 11.908 13.862 16.238 6.361 4.358 14.615 7.715 24.76 10.072 4.223.96 8.72 1.275 13.492.946-4.936 0-10.091-2.617-15.466-7.852-4.689-4.55-8.569-10.017-11.64-16.403-1.179-2.357-1.535-5.167-1.07-8.428.577-3.919 2.359-6.866 5.348-8.839 2.002-2.795 3.523-6.701 4.565-11.717L91.86 123.2c.767-4.139 1.892-6.852 3.372-8.14 1.892-1.645 4.799-1.562 8.72.246 8.089 3.783 16.096 6.085 24.021 6.907 13.025 1.398 23.678-1.603 31.959-9.003-2.715-7.318-7.294-13.553-13.738-18.706-6.499-5.207-14.629-9.072-24.391-11.593a38.507 38.507 0 00-8.596-1.233l-8.473.329c-.987 3.316-2.729 6.4-5.224 9.25-1.563 1.781-4.168 4.165-7.815 7.153l-6.416 5.673c-2.276 2.302-4.086 4.632-5.43 6.989-1.124 2.028-2.07 4.659-2.838 7.893l-1.727 9.374c-.85 5.454-1.645 9.469-2.386 12.045-1.206 4.248-2.838 7.537-4.894 9.867-1.426 1.644-3.236 3.453-5.43 5.426l-5.758 4.975z" fill="#DDD698"/><path d="M146.483 122.46l6.622-4.769 1.152-1.686-.576-.781-2.098 1.686c-5.758 4.604-9.35 7.208-10.776 7.811-2.66-1.425-6.732-4.344-12.216-8.757-5.265-4.248-9.241-7.784-11.928-10.606l-.699.657c4.552 4.769 7.732 7.948 9.542 9.538a71.464 71.464 0 0015.054 10.154l.165.083.205-.083c.988-.356 2.838-1.438 5.553-3.247z" fill="#0D131A"/><path d="M141.381 134.752c.22-2.357.274-4.646.165-6.866l-.206-2.672-.946.123c.165.713.11 2.618-.164 5.715a78.56 78.56 0 01-2.18 12.868c-.988 3.891-2.331 7.838-4.031 11.84-3.729 8.66-8.597 15.841-14.602 21.542l1.028.411a47.811 47.811 0 009.378-10.155c2.77-4.029 4.621-8.003 5.553-11.922 3.373-6.358 5.375-13.32 6.005-20.884z" fill="#0D131A"/><path d="M102.103 180.549l-9.337.864.082.945c2.386.165 5.292.11 8.72-.164 6.828-.576 12.929-1.946 18.303-4.111 3.099 2.192 5.854 3.563 8.268 4.111l2.796.164 3.126-1.685c1.728-.987 1.755-1.138.083-.453-1.975.795-3.935.96-5.882.494-1.81-.411-4.511-1.604-8.103-3.577l-.164-.082-.206.041c-4.716 1.425-10.612 2.576-17.686 3.453zM160.015 149.593l-.371-.864-.987.494c-9.542 4.878-18.015 6.838-25.419 5.879l-.123.986c6.307.96 12.147.521 17.522-1.315 3.592-1.234 6.416-2.809 8.473-4.728l.905-.452zM65.331 101.904l-.823.658c-.603 2.878-.192 6.92 1.234 12.128 1.728 6.249 4.292 9.99 7.692 11.223l.617-.74c-3.483-2.905-6.02-7.14-7.61-12.703-1.26-4.44-1.631-7.962-1.11-10.566zM64.22 149.387c-3.346-1.48-6.184-4.919-8.514-10.319-1.7-3.891-2.633-7.03-2.797-9.414l-.453 1.233c.247 2.933 1.138 6.236 2.674 9.908 2.276 5.564 5.182 8.716 8.72 9.456l.37-.864z" fill="#0D131A"/><path d="M71.912 108.605c-.439 1.288-.85 3.454-1.234 6.496L69.65 123.2c-.768 5.317-1.59 9.688-2.468 13.114-1.125 4.55-2.468 8.017-4.031 10.401l-.864 1.357-2.92 4.604c-1.508 1.891-3.524 3.618-6.046 5.18-1.015.63-1.399 1.836-1.152 3.618a9.835 9.835 0 001.48 3.947c.467.74 1.248 1.178 2.345 1.315 1.426.164 3.03-.315 4.812-1.439l5.47-3.453c2.222-1.617 4.06-3.426 5.512-5.427 4.004-5.536 6.033-13.813 6.088-24.831.027-8.88 1.508-15.416 4.442-19.61 1.645-2.329 4.84-4.769 9.584-7.317l2.755-.535c4.442-2.439 7.418-5.66 8.926-9.66.493-1.262.973-3.92 1.439-7.976l.124-1.028c.164-1.124.055-2.33-.329-3.618-.412-1.425-1.056-2.521-1.934-3.289-1.782-1.507-3.153-2.11-4.113-1.809-1.727.549-3.016 1.563-3.866 3.043-.384.657-.932 2.11-1.645 4.357l-1.07 3.7c-.52 1.508-1.192 2.686-2.015 3.536l-3.908 3.124-8.185 6.085c-3.235 2.713-5.292 5.385-6.17 8.016z" fill="#0D131A"/><path d="M70.925 123.364c-.905 6.249-1.686 10.826-2.345 13.731-1.096 4.933-2.426 8.592-3.99 10.977l-.863 1.356c-1.18 1.946-2.249 3.454-3.208 4.523-1.59 1.808-3.688 3.604-6.293 5.385-.22.192-.288.726-.206 1.603.11 1.014.439 1.919.987 2.714 1.18 1.781 2.893 1.973 5.142.575 4.414-2.768 7.855-6.18 10.323-10.236 3.483-5.728 5.526-13.224 6.129-22.488.576-9.291 2.29-16.061 5.141-20.309 1.755-2.603 4.936-5.152 9.543-7.646l1.357-.74c4.25-2.357 7.28-5.331 9.09-8.921.987-2.001 1.659-4.509 2.015-7.524l.124-1.11c.164-.904.082-1.918-.247-3.042-.356-1.206-.877-2.11-1.563-2.713-.74-.603-1.563-.768-2.468-.494-1.48.494-2.591 1.316-3.331 2.467-.466.713-.987 1.987-1.563 3.823-.44 1.508-.85 2.673-1.234 3.495-.631 1.343-1.426 2.494-2.386 3.453-.466.494-1.81 1.59-4.03 3.289-3.51 2.604-6.116 4.728-7.816 6.372-3.016 2.878-4.95 5.591-5.8 8.14-.465 1.371-.918 3.316-1.357 5.838l-1.151 7.482z" fill="#EEEEEF"/><path d="M103.624 82.212c-.356-1.206-.877-2.11-1.563-2.713-.74-.603-1.563-.768-2.468-.494-1.48.494-2.591 1.316-3.331 2.467-.466.713-.987 1.987-1.563 3.823-.44 1.508-.85 2.673-1.234 3.495-.631 1.343-1.426 2.494-2.386 3.453l-.247.288c3.29 1.096 5.43 3.453 6.417 7.071 2.413-2.11 4.154-4.563 5.223-7.359.576-1.535 1.001-3.494 1.275-5.879l.124-1.11c.164-.904.082-1.918-.247-3.042zM54.225 159.336c-.22.192-.288.726-.206 1.603.11 1.015.44 1.919.988 2.714 1.179 1.781 2.892 1.973 5.14.575 2.195-1.397 4.114-2.891 5.76-4.481-1.509.247-2.537-.63-3.086-2.631-.575-2.055-.37-4.454.617-7.194-1.042 1.726-2.097 3.165-3.167 4.316-1.535 1.672-3.55 3.371-6.046 5.098z" fill="#C8C9CA"/><path d="M127.111 144.248l-.453-.287-.411 6.742.164.123 7.445 3.166c.576-1.124.11-2.714-1.398-4.769-1.426-1.946-3.209-3.604-5.347-4.975z" fill="#0D131A"/><path d="M132.746 152.8l.123-.042.082-.287c0-.713-.521-1.796-1.563-3.248a17.922 17.922 0 00-4.154-4.111l-.329 5.262 3.29 1.727c1.317.575 2.167.808 2.551.699z" fill="white"/><path d="M124.724 155.061l-.123-.041-.124.041c-5.648 2.494-8.445 4.412-8.39 5.755 0 .494.342.85 1.028 1.069 2.002.713 4.579.617 7.733-.288 3.18-.877 5.333-2.124 6.457-3.741.357-.493.398-1 .124-1.521-.192-.356-.713-.603-1.563-.74l-2.551-.205-2.591-.329z" fill="#0D131A"/><path d="M130.154 157.486l.288-.699-.041-.123c-.164-.302-1.206-.521-3.126-.658l-2.591-.329c-1.947.822-3.702 1.713-5.265 2.672-1.81 1.097-2.714 1.905-2.714 2.426v.041l.617.493 6.992-.287c2.852-.85 4.798-2.028 5.84-3.536z" fill="white"/><path d="M120.035 158.021c-2.221 1.26-3.331 2.178-3.331 2.754v.041l.617.493 5.018.165c1.974-.356 3.743-.973 5.306-1.85l-4.813-.535-2.797-1.068z" fill="#DBDCDC"/><path d="M127.521 148.483c-.741-.631-1.742-.576-3.003.164-.987.576-1.81 1.384-2.468 2.426-.713 1.096-.987 2.096-.822 3.001l.534 1.603c.439.658 1.111 1.069 2.016 1.234l7.527.904c2.111.027 3.455-.219 4.031-.74.329-.329.452-.713.37-1.151-.082-.768-.891-1.795-2.427-3.083l-4.154-3.125-1.604-1.233z" fill="#0D131A"/><path d="M134.268 155.636c-.11-1.014-1.947-2.823-5.512-5.427l-1.645-1.233c-.549-.438-1.303-.37-2.262.206-.878.52-1.618 1.233-2.222 2.137-.658.987-.918 1.864-.781 2.632.165.959.96 1.562 2.386 1.808 5.785 1.014 9.062 1.179 9.83.494l.206-.494v-.123z" fill="white"/><path d="M134.062 156.212c-5.018-.466-9.09-1.467-12.216-3.001v.74c.164.959.959 1.562 2.385 1.808 5.786 1.015 9.063 1.179 9.831.494v-.041z" fill="#DBDCDC"/><path d="M103.954 111.442c-3.565-6.002-8.775-9.168-15.63-9.497-3.263-.191-6.334 1.371-9.213 4.687-3.209 3.7-5.32 8.743-6.335 15.129-1.124 7.044.603 14.06 5.183 21.049 4.36 6.66 10.488 12.114 18.385 16.362 5.923 3.179 11.97 4.522 18.139 4.029 5.594-.439 9.831-2.166 12.71-5.18 2.66-2.741 3.935-5.372 3.825-7.894-.11-1.425-.795-2.918-2.057-4.481-1.042-1.288-2.659-2.836-4.853-4.645-1.426-1.151-4.374-5.043-8.843-11.676-4.196-6.221-7.966-12.182-11.311-17.883z" fill="#0D131A"/><path d="M74.832 122.213c-1.042 6.55.864 13.306 5.717 20.268 4.36 6.221 9.981 11.237 16.864 15.046 5.649 3.125 11.201 4.591 16.658 4.399 4.991-.192 8.816-1.672 11.476-4.44 2.385-2.521 3.523-4.906 3.414-7.153-.165-2.604-2.057-5.386-5.677-8.346-1.617-1.315-4.688-5.125-9.213-11.429-4.332-6.057-8.048-11.648-11.146-16.773-4.305-7.153-9.543-10.332-15.712-9.537-2.743.328-5.142 1.795-7.198 4.398-2.496 3.125-4.223 7.647-5.183 13.567z" fill="#88A3D4"/><path d="M77.423 112.963c-1.151 2.659-2.015 5.742-2.591 9.25-1.042 6.55.864 13.306 5.717 20.268 4.36 6.221 9.981 11.237 16.864 15.046 4.799 2.659 9.584 4.111 14.355 4.358 4.332.247 8.02-.521 11.064-2.302-13.189-1.316-24.212-6.03-33.07-14.142-9.734-8.962-13.847-19.788-12.339-32.478z" fill="#778DB8"/><path d="M105.351 46.199c-1.371 1.809-2.852 4.577-4.442 8.304-2.605 6.057-4.154 12.156-4.648 18.295-.685 8.414 1.289 16.32 5.923 23.72 4.634 7.401 11.38 13.485 20.236 18.254 7.048 3.782 15.507 5.166 25.378 4.152 9.022-.904 17.591-3.563 25.707-7.975 4.415-2.385 7.143-4.947 8.185-7.688 1.015-2.659 1.084-7.194.206-13.608-.137-.959-.014-2.138.37-3.535l1.152-3.412c.932-2.933 1.467-5.304 1.604-7.113.329-3.508-.069-7.742-1.193-12.703-1.892-8.414-6.622-15.581-14.19-21.5-7.513-5.866-16.151-9.182-25.913-9.95-8.61-.658-16.85.877-24.719 4.605-6.197 2.932-10.749 6.317-13.656 10.154z" fill="#0D131A"/><path d="M98.688 72.921c-.658 8.167 1.193 15.773 5.553 22.816 4.387 7.017 10.9 12.841 19.537 17.473 7.322 3.946 16.069 5.234 26.242 3.864 7.787-1.041 14.944-3.261 21.47-6.66 4.36-2.247 7.198-4.865 8.514-7.852 1.234-2.768 1.481-6.783.741-12.046l-.124-.698a12.154 12.154 0 01.083-3.454l.863-3.165c.85-2.604 1.358-4.934 1.522-6.99.247-3.425-.178-7.577-1.275-12.456-1.837-8.167-6.32-15.074-13.45-20.72-7.129-5.618-15.41-8.784-24.843-9.496-8.336-.63-16.014.74-23.033 4.11-5.347 2.577-9.419 5.743-12.216 9.498-1.618 2.165-3.181 4.837-4.689 8.016-2.797 5.893-4.429 11.813-4.895 17.76z" fill="#88A3D4"/><path d="M127.397 35.017c-4.442 1.26-8.486 3.138-12.133 5.632-2.962 2.056-5.292 4.22-6.993 6.495-1.617 2.166-3.18 4.838-4.688 8.017-2.797 5.893-4.429 11.813-4.895 17.76-.63 7.893 1.083 15.252 5.141 22.076 4.086 6.852 10.16 12.608 18.221 17.267a40.632 40.632 0 01-5.388-5.221c-8.336-10.36-11.229-22.762-8.678-37.205 2.44-13.759 8.911-25.366 19.413-34.821z" fill="#778DB8"/><path d="M176.549 72.716c-4.689 5.755-7.938 9.469-9.748 11.14-.63 2.303-.946 4.852-.946 7.647 0 .877.192 2.193.576 3.947.11.438.411.945.905 1.52l1.028.823c1.673-.164 3.304-.973 4.895-2.425 1.426-1.316 2.372-2.659 2.838-4.03.576-1.753 1.056-3.85 1.439-6.29.384-2.411.576-4.494.576-6.248 0-.96-.219-2.124-.658-3.495l-.905-2.59zM138.174 81.349c-7.184-6.14-11.435-9.442-12.751-9.908-.685.411-1.275 1.33-1.768 2.754-.494 1.535-.741 3.235-.741 5.098 0 4.111.247 7.25.741 9.415.575 2.576 1.659 4.769 3.249 6.577.96 1.425 2.728 2.001 5.306 1.727 2.55-.274 4.456-1.192 5.717-2.754.768-.768 1.357-2.358 1.769-4.77.356-1.973.534-3.946.534-5.92l-.699-.904-1.357-1.315z" fill="white"/><path d="M163.387 83.569l1.029-2.672c.137-.384.027-.617-.33-.7-.356-.082-.589.07-.699.453l-.617 2.343c-.109.384-.068.658.124.822.164.192.329.11.493-.246zM146.482 80.897c0-.549-.137-.85-.411-.905-.274-.027-.439.206-.493.699-.055.658-.288 1.7-.7 3.124v.658c.083.11.261 0 .535-.329.658-.685 1.015-1.767 1.069-3.247zM172.806 104.577l-2.55.863c-1.727.603-2.879 1.124-3.455 1.562l-.206.164-.452.288 1.275 1.85c.686.795 1.207 1.151 1.563 1.069.274-.027.85-.493 1.727-1.398a23.867 23.867 0 002.962-3.864l-.082-.781-.782.247z" fill="#0D131A"/><path d="M172.148 105.44c-2.275.74-3.852 1.384-4.73 1.932.823 1.398 1.371 2.138 1.646 2.22l1.234-1.48 1.85-2.672z" fill="white"/><path d="M127.315 105.851l-3.002-.576-.124.165-.37.205c-.164.055-.233.151-.205.288.246.932.795 2.097 1.645 3.494.987 1.645 1.796 2.467 2.427 2.467.685 0 1.823-.712 3.414-2.138 1.562-1.397 2.262-2.302 2.097-2.713l-1.028-.37h-.206l-4.648-.822z" fill="#0D131A"/><path d="M127.193 106.509l-2.509-.494c.055.466.521 1.371 1.398 2.714.85 1.288 1.454 2.028 1.81 2.22.274-.028.905-.521 1.892-1.48.96-.987 1.549-1.713 1.769-2.179l-4.36-.781z" fill="white"/><path d="M163.47 104.371a.613.613 0 00-.247-.658c-.219-.164-.398-.096-.535.206l-.534.863-.494.822c-.164.329-.151.521.041.576l.658-.165.741-.74.37-.904zM154.832 106.426c-.247-.931-.795-1.63-1.645-2.096-.576-.302-.878-.302-.905 0-.028.274.11.562.411.863l.658.781.658.74c.302.247.535.329.7.247.137-.082.178-.261.123-.535zM125.424 71.441a25.562 25.562 0 01-1.522-.699c-1.563 2.878-2.345 6.633-2.345 11.265 0 3.7.837 7.084 2.509 10.154 1.591 2.96 3.25 4.44 4.977 4.44 1.728 0 3.236-1.233 4.525-3.7 1.316-2.467 1.974-5.317 1.974-8.551 0-2.74-.356-4.879-1.069-6.413l-1.07-.576-3.496-2.919c-1.563-1.233-3.057-2.233-4.483-3z" fill="#0D131A"/><path d="M125.424 71.441c-.549.713-1.029 2.083-1.44 4.111-.384 2.028-.576 4.18-.576 6.454 0 2.988.562 5.989 1.687 9.004 1.179 3.097 2.399 4.645 3.66 4.645 1.371 0 2.605-1.165 3.702-3.494 1.152-2.412 1.728-5.249 1.728-8.51 0-1.453-.302-3.412-.905-5.879l-3.496-3.124c-1.618-1.425-3.072-2.494-4.36-3.207z" fill="#BA5400"/><path d="M172.683 77.567l-.617.04-1.439 1.522-4.155 4.645-.411.288-.452 1.357c-.275 1.315-.412 3.083-.412 5.303 0 1.891.275 3.522.823 4.892.576 1.37 1.275 2.11 2.098 2.22 2.138.274 3.797-2.302 4.977-7.729 1.179-5.399 1.042-9.579-.412-12.538z" fill="#0D131A"/><path d="M171.079 79.581c-1.728 1.781-3.071 3.289-4.031 4.522l-.535 2.631-.247 3.824c0 1.918.192 3.508.576 4.768.357 1.206.809 1.837 1.358 1.892.74.082 1.508-.782 2.303-2.59.877-1.919 1.494-4.303 1.851-7.154.164-1.315.247-2.562.247-3.74 0-2.111-.247-3.783-.741-5.016l-.781.863z" fill="#BA5400"/><path d="M168.899 81.842l-.864.247c-.466.356-.877 1.041-1.234 2.055-.384 1.014-.658 2.193-.822 3.536-.192 1.644-.179 3.07.041 4.275.246 1.343.699 2.07 1.357 2.18.247.054.535-.028.864-.247.466-.357.877-1.028 1.234-2.015.384-1.014.658-2.192.822-3.535.192-1.645.179-3.07-.041-4.276-.247-1.37-.699-2.11-1.357-2.22zM131.593 83.857c0-1.974-.261-3.687-.782-5.14-.576-1.616-1.316-2.425-2.221-2.425s-1.645.809-2.221 2.426c-.493 1.452-.74 3.165-.74 5.139 0 2 .247 3.727.74 5.18.576 1.617 1.316 2.425 2.221 2.425s1.645-.808 2.221-2.425c.521-1.453.782-3.18.782-5.18zM72.612 11.008c-2.057 1.124-2.756 3.577-2.098 7.359.823 4.632 1.974 9.058 3.455 13.279-2.03 3.59-1.124 8.702 2.715 15.334 3.153 5.454 6.937 10.045 11.352 13.772-.274.576-.247 2.028.082 4.358.439 2.933 1.33 5.207 2.674 6.824 1.096 1.343 2.481 2.508 4.154 3.495 1.974 1.178 3.962 1.85 5.964 2.014 3.263.247 6.773-1.671 10.529-5.755 4.004-4.33 4.963-11.004 2.88-20.021-1.947-8.305-5.718-15.965-11.312-22.981-3.153-3.947-6.786-7.496-10.9-10.648-3.975-3.042-7.718-5.207-11.228-6.495-3.647-1.37-6.403-1.549-8.267-.535z" fill="#0D131A"/><path d="M74.544 35.14c.302 3.48 1.782 7.66 4.442 12.539 2.77 5.07 5.786 8.935 9.05 11.593 0-1.26.205-2.59.616-3.987.33-1.042.686-1.453 1.07-1.234.383.22.52.905.41 2.056-.575 6.577.083 11.278 1.975 14.1.795 1.234 1.933 2.317 3.414 3.249 1.7 1.041 3.455 1.63 5.265 1.767 3.537.274 6.786-1.192 9.748-4.399 3.729-4.083 4.511-10.456 2.344-19.116-2.056-8.167-5.854-15.376-11.393-21.624-5.292-5.948-10.872-10.525-16.74-13.732-5.238-2.905-8.98-3.905-11.23-3-1.206.493-1.507 2.932-.904 7.317.521 3.892 1.412 7.51 2.673 10.853l.124.33-.247.287c-.493.576-.7 1.576-.617 3.001z" fill="#AFCEE5"/><path d="M74.544 35.14c.302 3.48 1.782 7.66 4.442 12.539 2.77 5.07 5.786 8.935 9.05 11.593 0-1.26.205-2.59.616-3.987.33-1.042.686-1.453 1.07-1.234.383.22.52.905.41 2.056-.575 6.577.083 11.278 1.975 14.1.795 1.234 1.933 2.317 3.414 3.249 1.7 1.041 3.455 1.63 5.265 1.767 3.537.274 6.786-1.192 9.748-4.399 3.729-4.083 4.511-10.456 2.344-19.116-2.056-8.167-5.854-15.376-11.393-21.624-5.292-5.948-10.872-10.525-16.74-13.732-5.238-2.905-8.98-3.905-11.23-3-1.206.493-1.507 2.932-.904 7.317.521 3.892 1.412 7.51 2.673 10.853l.124.33-.247.287c-.493.576-.7 1.576-.617 3.001z" fill="#AFCEE5"/><path d="M96.837 36.373a90.102 90.102 0 00-7.28-9.496c-2.99-3.426-5.827-6.194-8.514-8.304-1.646.11-.81 2.535 2.508 7.276 4.25 6.084 6.595 10.004 7.034 11.758 1.042 4.495 3.003 9.798 5.882 15.91 3.455 7.317 6.087 10.456 7.897 9.414 1.892-1.096 1.919-4.769.082-11.018-1.81-6.111-4.346-11.291-7.61-15.54z" fill="#93AEC1"/><path d="M96.59 34.318a105.208 105.208 0 00-8.061-9.99c-2.468-2.659-4.278-4.372-5.43-5.139-1.754-1.178-2.577-1.507-2.467-.987.11.494.713 1.179 1.81 2.056 2.714 2.165 6.553 6.783 11.516 13.854 6.883 9.785 10.571 18.144 11.065 25.078.164 2.412.425 3.152.781 2.22l.494-2.138c.493-6.742-2.742-15.06-9.707-24.954zM68.58 156.952c-3.867.438-8.076 2.699-12.628 6.783-4.58 4.111-8.624 9.277-12.133 15.499-2.633 4.604-4.415 9.332-5.348 14.183-.356 1.919-.685 5.249-.987 9.99l-.082 2.302-.082 1.604-1.604 3.823-1.399 3.988c-.301.849-.48 1.836-.535 2.96-.11 1.781.727 2.384 2.51 1.809l3.866-1.316c2.33-.85 4.36-1.699 6.087-2.549l2.797 3.289 3.414 3.741c1.563 1.398 5.443-.233 11.64-4.892l9.378.863c1.618 0 2.701-.315 3.25-.945.493-.494.78-1.11.863-1.85.082-.576.055-1.494-.082-2.755l-.453-2.59c-.137-.767-.164-1.439-.082-2.014.165-1.48 1.029-3.097 2.591-4.851l5.635-5.879 6.664-7.03c1.727-1.973 2.509-4.687 2.344-8.14-.164-3.371-1.193-6.866-3.085-10.483-2.33-4.413-5.594-8.154-9.789-11.224-4.524-3.316-8.775-4.755-12.75-4.316z" fill="#0D131A"/><path d="M89.352 173.602c-2.222-4.276-5.183-7.852-8.885-10.73-4.085-3.207-7.98-4.605-11.681-4.194-3.73.439-8.034 3.235-12.915 8.387-4.14 4.358-7.376 8.798-9.707 13.32-4.25 8.277-6.76 17.02-7.527 26.229-.055.575-.658 2.645-1.81 6.207-1.014 3.152-1.385 4.879-1.11 5.18.466.521 3.743-.465 9.83-2.96l.082-.616c.192-.302.604-.165 1.234.411l2.962 3.083 3.496 3.412c.52.466 2.043.096 4.565-1.11 2.194-1.068 3.84-2.055 4.936-2.96.63-.52 1.85-.657 3.66-.411l6.376.617c1.18 0 1.974-.219 2.386-.658.246-.246.37-1.48.37-3.7l.082-4.399c.22-1.781.987-3.59 2.303-5.426.878-1.234 2.688-3.303 5.43-6.208l6.498-7.153c1.563-1.782 2.29-4.125 2.18-7.03-.082-2.878-1-5.975-2.755-9.291z" fill="#88A3D4"/><path d="M78 203.284c.877-1.234 2.687-3.303 5.43-6.208l6.498-7.153c1.837-2.083 2.536-4.906 2.097-8.469a114.028 114.028 0 00-12.462 13.196c-4.086 5.098-6.266 8.716-6.54 10.854l-.576 6.495c-.247 1.946-.823 2.96-1.727 3.042l-4.114-.123-3.496.123-4.442 1.891c-2.358.987-3.825 1.48-4.4 1.48-.494 0-1.838-.822-4.032-2.466-2.193-1.645-3.468-2.467-3.825-2.467-.192 0-1.618.548-4.278 1.645-2.824 1.151-4.99 1.836-6.498 2.055l.082.822c.466.521 3.743-.466 9.83-2.96l.083-.616c.192-.302.603-.165 1.233.411l2.962 3.083 3.496 3.412c.521.466 2.043.096 4.566-1.11 2.193-1.069 3.839-2.055 4.935-2.96.631-.52 1.851-.657 3.661-.411l6.375.617c1.18 0 1.975-.219 2.386-.658.247-.247.37-1.48.37-3.7l.082-4.399c.22-1.781.988-3.59 2.304-5.426z" fill="#778DB8"/><path d="M156.889 112.305c.494.22 1.261-.068 2.303-.863l2.057-1.768c.411-.356 1.837-.973 4.278-1.85 2.413-.877 4.332-1.48 5.758-1.809 1.398-.329 2.427-.712 3.085-1.151.548-.356.973-.877 1.275-1.562.302-.63.302-.973 0-1.028-.329-.082-.74.178-1.234.781-.411.521-.987.96-1.728 1.316l-1.974.74c-5.84 1.946-9.09 3.165-9.748 3.659l-1.604 1.233c-.658.466-1.179.699-1.563.699l-2.632-1.028c-1.536-.712-2.674-1.082-3.414-1.11l-12.175-1.274-13.244-1.768c-1.481-.302-2.989-.918-4.525-1.85-1.343-.85-2.33-1.672-2.961-2.467-.549-.685-1.001-.945-1.357-.781-.33.165-.288.562.123 1.192 1.014 1.59 2.303 2.796 3.866 3.618 1.152.631 2.674 1.138 4.566 1.521l13.079 1.686 11.846 1.315c.521.083 1.522.466 3.003 1.151l2.92 1.398z" fill="#0D131A"/><path d="M173.669 97.012c-.548.411-.781.836-.699 1.275.083.438.453.753 1.111.945l2.303.041c.878-.164 1.591-.452 2.139-.863.548-.384.781-.795.699-1.233-.082-.439-.452-.74-1.11-.905l-2.304-.082c-.877.137-1.59.411-2.139.822zM114.648 94.998c-.165.52.192 1.11 1.069 1.767.878.658 2.016 1.193 3.414 1.604l3.702.493c1.097-.055 1.714-.343 1.851-.863.164-.521-.192-1.11-1.07-1.768-.877-.658-2.001-1.192-3.372-1.603-1.399-.412-2.647-.576-3.743-.494-1.097.055-1.714.343-1.851.864z" fill="#5084C4"/><path d="M124.766 79.334c0 .987.301 1.837.905 2.55.603.684 1.33 1.027 2.18 1.027.85 0 1.59-.343 2.221-1.028.603-.712.905-1.562.905-2.549 0-.986-.302-1.822-.905-2.508-.604-.685-1.344-1.027-2.221-1.027-.85 0-1.577.342-2.18 1.027-.604.686-.905 1.522-.905 2.508zM169.434 82.788c-.357.438-.535.959-.535 1.562 0 .63.178 1.151.535 1.562.356.439.795.658 1.316.658.493 0 .918-.22 1.275-.658.356-.438.535-.96.535-1.562 0-.603-.179-1.124-.535-1.562-.357-.439-.782-.658-1.275-.658-.521 0-.96.22-1.316.658z" fill="white"/><path d="M151.212 118.02l-3.126.205-6.746.165c-3.18 0-7.362-.48-12.545-1.439 7.322 5.536 11.339 8.304 12.052 8.304.685 0 4.14-2.412 10.365-7.235zM176.304 73.99c.685 1.233 1.014 3.11.987 5.632 0 3.152-.535 7.085-1.604 11.799-.165.685-.124 1.041.123 1.069.219.027.425-.206.617-.699 1.481-3.782 2.249-7.756 2.303-11.922.055-3.728-.384-6.057-1.316-6.989l1.275-2.179c.274-.466.329-.808.165-1.028-.165-.246-.521-.068-1.07.535l-12.133 13.649c-.631.74-.905 1.233-.823 1.48.055.219.411.123 1.069-.288 4.497-4.358 7.966-8.044 10.407-11.059zM139.079 81.02c-2.496-2.11-5.526-4.481-9.09-7.112-3.236-2.412-5.43-3.947-6.581-4.605-.85-.466-1.344-.589-1.481-.37-.137.22.082.617.658 1.193l8.72 6.865 8.308 6.537c.192 1.507.069 3.33-.37 5.468-.384 1.973-.919 3.672-1.604 5.097-.137.302-.11.466.082.494.22.027.439-.11.658-.412 1.042-1.26 1.81-2.891 2.304-4.892.466-1.89.575-3.618.329-5.18l1.645.206c.219-.082.11-.302-.329-.658l-3.249-2.631z" fill="#0D131A"/></g><defs><clipPath id="clip0_2621_689"><path fill="white" transform="matrix(-1 0 0 1 206.41 .805)" d="M0 0h205.82v224.645H0z"/></clipPath></defs></svg>