<svg width="191" height="508" fill="none" xmlns="http://www.w3.org/2000/svg"><path d="M0 12C0 5.373 5.373 0 12 0h179v508H12c-6.627 0-12-5.373-12-12V12z" fill="url(#paint0_linear_679_6250)"/><mask id="a" style="mask-type:alpha" maskUnits="userSpaceOnUse" x="0" y="0" width="173" height="508"><rect width="173" height="508" rx="12" fill="white"/></mask><g mask="url(#a)" stroke="#7CC5B7"><path opacity=".1" d="M97 259.735c0 90.432-70.23 163.027-156 163.027s-156-72.595-156-163.027c0-90.431 70.23-163.026 156-163.026S97 169.304 97 259.735z" stroke-width="20"/><path opacity=".1" d="M165.07 264.947c0 129.676-100.742 234.017-224.07 234.017-123.328 0-224.07-104.341-224.07-234.017C-283.07 135.272-182.328 30.93-59 30.93c123.328 0 224.07 104.342 224.07 234.017z" stroke-width="21.86"/></g><defs><linearGradient id="paint0_linear_679_6250" x1="9.5" y1="-7.5" x2="366.159" y2="230.517" gradientUnits="userSpaceOnUse"><stop offset="0" stop-color="#CBF3EB"/><stop offset="1" stop-color="#8BCEC1"/></linearGradient></defs></svg>