<svg width="17" height="18" viewBox="0 0 17 18" fill="none" xmlns="http://www.w3.org/2000/svg">
<path fill-rule="evenodd" clip-rule="evenodd" d="M2.6967 15.7021C2.63198 15.6418 2.56798 15.5803 2.50472 15.5176C-0.834906 12.2077 -0.834905 6.84124 2.50472 3.53135C5.84432 0.221429 16.4856 0 16.4856 0C16.4856 0 17.9382 12.2077 14.5986 15.5176C11.6325 18.4572 7.02985 18.786 3.69765 16.5042L6.38262 13.2385L10.6748 12.3201L7.17112 11.973L9.39774 9.72602L11.9323 9.17572L9.92812 8.58746L11.9323 5.00413L9.08155 8.17327L7.98068 6.63363L8.36821 9.17572L6.38262 11.3942L5.46221 8.58743V12.3201L2.6967 15.7021Z" fill="#67C0B1"/>
</svg>
