<svg width="13" height="20" viewBox="0 0 13 20" fill="none" xmlns="http://www.w3.org/2000/svg">
<path fill-rule="evenodd" clip-rule="evenodd" d="M12.9412 13.5364C12.9412 17.1061 10.0442 20 6.47059 20C2.89697 20 0 17.1061 0 13.5364C0 10.0645 6.12058 0.529239 6.45625 0.00889922C6.46393 -0.00296648 6.47729 -0.00296638 6.48493 0.00889934C6.8206 0.529239 12.9412 10.0645 12.9412 13.5364ZM5.39196 17.9278C2.10848 17.2074 2.67035 13.5604 2.67035 13.5604C2.67035 13.5604 3.56695 15.762 5.74279 16.4751C7.91859 17.1882 10.548 16.1423 10.548 16.1423C10.548 16.1423 8.67545 18.6481 5.39196 17.9278Z" fill="#88A3D4"/>
</svg>
