<svg width="16" height="16" viewBox="0 0 16 16" fill="none" xmlns="http://www.w3.org/2000/svg">
<circle cx="8" cy="8" r="8" fill="#ACB9C1"/>
<circle cx="8" cy="8" r="5" fill="white"/>
<circle cx="7.99756" cy="8" r="4" fill="#ACB9C1"/>
<path d="M5.03222 11.9999C5.55749 11.9955 6.07674 11.8876 6.56034 11.6826C7.04393 11.4775 7.4824 11.1791 7.8507 10.8046C8.219 10.43 8.50992 9.98662 8.70685 9.49965C8.90379 9.01268 9.00287 8.49168 8.99846 7.96641C8.99405 7.44114 8.88621 6.92189 8.68112 6.43829C8.47603 5.95469 8.1777 5.51623 7.80316 5.14793C7.42862 4.77963 6.9852 4.48871 6.49822 4.29178C6.01125 4.09484 5.49025 3.99575 4.96498 4.00017L4.9986 8.00003L5.03222 11.9999Z" fill="white"/>
<path d="M4.03775 11.0002C4.43008 10.9969 4.81792 10.9164 5.17913 10.7632C5.54033 10.61 5.86783 10.3872 6.14292 10.1075C6.41801 9.8277 6.63531 9.4965 6.7824 9.13277C6.92949 8.76904 7.0035 8.3799 7.00021 7.98757C6.99691 7.59523 6.91637 7.20739 6.76318 6.84619C6.61 6.48498 6.38717 6.15748 6.10741 5.88239C5.82766 5.6073 5.49646 5.39001 5.13273 5.24291C4.769 5.09582 4.37986 5.02181 3.98753 5.02511L4.01264 8.01268L4.03775 11.0002Z" fill="white"/>
</svg>
