<svg width="154" height="195" viewBox="0 0 154 195" fill="none" xmlns="http://www.w3.org/2000/svg">
<path d="M107.26 40.2301C115.266 45.1667 121.92 51.2824 127.221 58.5772C133.009 66.5481 136.595 75.2107 137.98 84.565C115.817 85.2253 93.8426 85.0603 72.0572 84.0698C28.5021 82.0732 7.69984 76.9479 9.6503 68.6941C11.9311 59.0882 21.2902 50.1661 37.7275 41.928C45.9383 37.8089 53.9211 34.6489 61.6757 32.4479C68.0305 30.0425 75.3368 29.563 83.5948 31.0093C91.727 32.4243 99.6154 35.4979 107.26 40.2301Z" fill="#6F4E25"/>
<path d="M78.7104 30.2783L84.6561 30.915C79.6541 32.7073 74.9432 35.3643 70.5232 38.8859C67.2042 41.5429 63.7673 44.9545 60.2124 49.1207C58.6238 47.3127 56.6733 45.2925 54.3611 43.06L48.1558 37.2116C57.8137 33.2497 65.6706 30.9622 71.7265 30.3491C74.023 30.129 76.3509 30.1054 78.7104 30.2783Z" fill="#4A311C"/>
<path d="M128.99 61.1477C133.74 68.4425 136.737 76.2483 137.979 84.5651C132.836 84.7223 126.379 84.8245 118.608 84.8716C122.965 78.1899 126.426 70.282 128.99 61.1477Z" fill="#4A311C"/>
<path d="M60.9678 29.5001C62.3048 33.3361 63.0519 36.0481 63.2092 37.636L53.3704 64.4256L22.509 61.2656C21.8169 60.621 20.0316 57.8854 17.1531 53.0589C14.1173 47.9651 12.4893 44.7657 12.2691 43.4609C11.8287 41.024 18.8126 36.2446 33.2209 29.1227C38.0498 26.733 43.0046 24.9172 48.0853 23.6752C51.5772 22.8262 54.3378 22.3782 56.3669 22.331C57.7511 22.2996 59.2847 24.6892 60.9678 29.5001Z" fill="#6F4E25"/>
<path d="M60.9676 29.5001C62.3046 33.3361 63.0518 36.0481 63.2091 37.636L56.3667 56.2425C53.7084 52.4693 48.9424 46.7624 42.0686 39.1217C36.1071 32.4872 33.1578 29.1542 33.2207 29.1227C38.0497 26.733 43.0045 24.9172 48.0851 23.6752C51.5771 22.8262 54.3376 22.3782 56.3667 22.331C57.7509 22.2996 59.2845 24.6892 60.9676 29.5001Z" fill="#4A311C"/>
<path d="M128.022 46.0314C132.757 49.8989 136.619 53.5542 139.607 56.9972C142.785 60.6446 144.114 63.0815 143.595 64.3078C143.123 65.424 140.669 67.9709 136.233 71.9485C132.159 75.6116 129.666 77.7026 128.754 78.2214L95.5566 57.8226L101.951 42.046C102.344 40.8983 103.146 39.3969 104.357 37.5417C105.93 35.1206 107.181 34.0279 108.109 34.2638C109.713 34.6725 112.175 35.773 115.494 37.5653C119.882 39.955 124.059 42.777 128.022 46.0314Z" fill="#6F4E25"/>
<path d="M139.962 57.4217C142.887 60.849 144.098 63.1444 143.595 64.3078C143.359 64.858 142.29 66.1 140.386 68.0338L135.172 73.0804L129.816 71.9249C127.315 71.4375 124.908 71.1938 122.596 71.1938C124.342 68.474 125.954 63.8676 127.433 57.3745C128.644 51.9977 129.218 48.5311 129.155 46.9747C133.623 50.7321 137.225 54.2145 139.962 57.4217Z" fill="#4A311C"/>
<path d="M55.1869 30.7735C56.1307 32.4715 56.8621 34.2244 57.3812 36.0324L58.1126 38.1077C58.6632 39.8056 59.0643 41.4564 59.3159 43.06C60.0867 48.2009 59.2137 51.9191 56.697 54.2145C54.1645 56.5098 48.7378 58.1763 40.4169 59.2139C36.2486 59.7485 32.3319 60.0472 28.6669 60.1101C27.1726 58.4593 25.1907 55.6766 22.7212 51.7619C20.0157 47.4856 18.7337 44.868 18.8753 43.9089C19.0169 42.8399 23.9874 39.9785 33.7869 35.3249C43.6021 30.6713 49.8468 28.2188 52.5208 27.9672C53.2286 27.8886 54.1173 28.824 55.1869 30.7735Z" fill="#0D131A"/>
<path d="M109.619 40.6781C111.082 41.2126 116.006 44.8601 124.389 51.6204C132.962 58.5221 137.209 62.4368 137.13 63.3644C137.052 64.2763 135.251 66.4773 131.727 69.9675C128.471 73.1904 125.986 75.3914 124.271 76.5706L101.645 54.6625C102.809 51.3767 103.957 48.5546 105.089 46.1964C107.024 42.1402 108.534 40.3008 109.619 40.6781Z" fill="#0D131A"/>
<path d="M110.822 50.3706C115.022 50.1347 119.025 51.8562 122.832 55.5351C124.295 56.9501 125.522 58.4829 126.512 60.1337C127.425 61.6587 127.928 62.9243 128.023 63.9305C128.243 66.2101 127.826 68.191 126.772 69.8732C125.466 71.9799 123.288 73.3163 120.236 73.8822L105.726 66.7603L103.036 57.4217C103.366 55.8181 103.964 54.4582 104.829 53.3419C106.245 51.5182 108.243 50.5278 110.822 50.3706Z" fill="#DCDBD6"/>
<path d="M128.023 63.9304C128.243 66.2101 127.826 68.191 126.772 69.8732C125.467 71.9799 123.288 73.3162 120.237 73.8822L115.329 71.4768L119.623 53.0825L123.729 57.4688C126.481 60.6132 127.913 62.767 128.023 63.9304Z" fill="#B4B4B0"/>
<path d="M110.799 67.5385C108.219 65.652 106.717 63.4273 106.292 60.8647C105.915 58.4436 106.615 56.4705 108.392 54.9455C109.635 53.8765 110.924 53.2555 112.261 53.0825L124.389 63.7654C124.735 65.8092 124.106 67.4835 122.501 68.7884C121.023 69.9675 119.3 70.4628 117.334 70.2741C115.179 70.0697 113.001 69.1579 110.799 67.5385Z" fill="#DCDBD6"/>
<path d="M124.389 63.7653C124.735 65.8091 124.106 67.4835 122.502 68.7884C121.023 69.9675 119.301 70.4627 117.335 70.2741L115.542 69.8967L116.367 62.1617L116.839 57.5396L124.389 63.7653Z" fill="#B4B4B0"/>
<path d="M152.868 39.4754C152.6 41.645 151.924 43.7046 150.838 45.654C149.832 47.4777 148.621 48.932 147.205 50.0168C144.798 51.8562 141.181 54.3559 136.352 57.516C131.9 60.4245 128.762 62.3818 126.937 63.388C125.317 64.2999 123.461 64.6693 121.369 64.4964C119.293 64.3392 117.169 63.671 114.999 62.4919C112.97 61.3914 111.562 59.6306 110.775 57.2094C110.083 55.0556 110.036 53.0746 110.634 51.2667C111.231 49.4587 112.883 45.544 115.589 39.5226C118.388 33.2497 120.182 29.5708 120.968 28.486C122.195 26.7566 123.87 25.2631 125.994 24.0054C128.149 22.7476 130.461 21.8987 132.93 21.4585C138.703 20.4366 143.524 21.7493 147.394 25.3967C151.688 29.4372 153.512 34.1301 152.868 39.4754Z" fill="#DCDBD6"/>
<path d="M132.128 53.3891C136.344 54.4267 140.394 54.0101 144.279 52.1392C141.511 54.1044 138.239 56.3054 134.464 58.7423L126.937 63.388C125.317 64.2999 123.461 64.6693 121.369 64.4964C119.293 64.3392 117.169 63.671 114.999 62.4919C114.904 62.4447 116.454 60.566 119.647 56.8557L124.767 50.9129L125.333 50.3469C125.569 50.2683 125.907 50.4255 126.348 50.8186C127.496 51.8562 129.423 52.713 132.128 53.3891Z" fill="#B4B4B0"/>
<path d="M38.4587 38.0841C43.2248 35.9931 48.1245 35.8673 53.158 37.7067L55.9657 50.9601L35.0847 60.959C32.1276 59.6384 30.2479 57.7282 29.4457 55.2285C28.8794 53.4205 28.8794 51.2588 29.4457 48.7433C30.5468 43.8067 33.5511 40.2536 38.4587 38.0841Z" fill="#DCDBD6"/>
<path d="M41.0538 37.1644C45.1277 36.0639 49.1624 36.2446 53.1577 37.7068L55.9654 50.9601C52.615 50.4413 49.0916 49.7417 45.3951 48.8612C38.0022 47.1161 33.4171 45.371 31.6396 43.6259C33.8261 40.4345 36.9641 38.2806 41.0538 37.1644Z" fill="#B4B4B0"/>
<path d="M50.704 42.9185C51.7893 44.8679 51.8365 47.0611 50.8456 49.498C49.7917 52.0606 47.9985 53.9236 45.4661 55.087C43.3426 56.046 41.164 56.3762 38.9304 56.0775C36.8541 55.8102 35.0374 54.6782 33.4802 52.6816C31.8128 50.5435 31.4039 48.4525 32.2532 46.4087L47.7783 40.1357C48.9423 40.5759 49.9175 41.5035 50.704 42.9185Z" fill="#DCDBD6"/>
<path d="M47.7786 40.1357C48.9426 40.5759 49.9178 41.5035 50.7043 42.9185C51.7896 44.868 51.8368 47.0611 50.8458 49.498C49.792 52.0763 47.9988 53.9315 45.4663 55.0634L42.0216 50.5356L40.3936 48.5311L47.7786 40.1357Z" fill="#B4B4B0"/>
<path d="M47.8259 45.9842C46.5203 48.1066 44.7036 49.4901 42.3756 50.1347C39.7959 50.8422 37.4365 51.0623 35.2973 50.795C33.0794 50.4963 31.2548 49.6945 29.8234 48.3896C27.9044 46.6445 25.4113 44.2076 22.344 41.079C18.5689 37.243 15.6983 34.1301 13.7321 31.7404C12.5209 30.2626 11.5772 28.376 10.9008 26.0806C10.1772 23.6123 9.90196 21.1126 10.075 18.5814C10.4997 12.3085 13.4096 7.59984 18.8049 4.45551C23.8226 1.51557 28.9897 1.02034 34.3063 2.96982C39.3712 4.82497 43.1542 8.30731 45.6552 13.4168C46.3316 14.8003 47.1731 18.888 48.1798 25.6797C49.2022 32.5343 49.6662 37.353 49.5718 40.1357C49.4932 42.2739 48.9112 44.2234 47.8259 45.9842Z" fill="#DCDBD6"/>
<path d="M48.7931 30.066C49.3751 34.7825 49.6346 38.1391 49.5717 40.1357C49.493 42.2739 48.911 44.2234 47.8257 45.9842C46.5202 48.1066 44.7034 49.4901 42.3754 50.1347L41.4081 50.5592C41.1721 50.6535 40.9991 50.6063 40.889 50.4177C37.1925 43.8146 35.0455 39.8527 34.4477 38.5321C34.023 37.6045 33.8107 37.07 33.8107 36.9285C33.795 36.6455 34.0702 36.4254 34.6365 36.2682C38.5532 35.0734 41.6676 32.8723 43.9798 29.6651C46.4179 26.2535 47.3931 22.4253 46.9055 18.1805C47.5976 21.6707 48.2268 25.6325 48.7931 30.066Z" fill="#B4B4B0"/>
<path d="M85.317 166.373C86.4023 166.168 87.5978 166.978 88.9033 168.802C90.2089 170.578 90.9325 172.362 91.074 174.155C90.3662 175.051 87.9517 175.192 83.8306 174.579C79.8825 173.966 77.6331 173.321 77.0826 172.645C76.6422 172.079 77.5309 170.963 79.7488 169.297C81.9352 167.63 83.7912 166.655 85.317 166.373Z" fill="#DBDCDC"/>
<path d="M92.4189 45.3711C95.1715 47.3205 98.4354 50.5042 102.21 54.9219C105.514 58.7737 108.321 61.8002 110.634 64.0012C114.204 67.4128 117.594 69.9204 120.803 71.524C129.454 75.8474 135.455 80.0215 138.805 84.0462C143.005 89.1086 143.713 94.5326 140.929 100.318L10.2163 98.29C9.2568 97.8184 8.17146 96.7965 6.96029 95.2243C5.6862 93.5578 4.58513 91.6712 3.65709 89.5645C1.31339 84.172 0.920149 79.432 2.47737 75.3443C3.81438 71.8384 6.49627 68.6391 10.523 65.7463C15.0374 62.5233 20.0787 60.6368 25.647 60.0865L30.8849 59.662C32.7882 59.4891 34.4005 59.2218 35.7217 58.8602C39.2137 57.9012 42.7057 55.7159 46.1976 52.3043C50.9794 47.6193 55.7848 44.2548 60.6137 42.211C65.5213 40.12 70.7357 39.2632 76.2568 39.6405C82.2654 40.065 87.6528 41.9752 92.4189 45.3711Z" fill="#EEEEEF"/>
<path d="M2.47737 75.3443L2.85488 74.4717C3.48406 82.757 6.93669 88.6998 13.2128 92.3001C15.9497 93.8722 19.4731 95.1928 23.783 96.2619C27.0233 97.0637 31.5141 97.8812 37.2554 98.7145L10.2163 98.29C9.2568 97.8183 8.17146 96.7964 6.96029 95.2243C5.6862 93.5578 4.58513 91.6712 3.65709 89.5645C1.31339 84.172 0.920149 79.4319 2.47737 75.3443Z" fill="#C8C9CA"/>
<path d="M76.2569 39.6405C82.2656 40.065 87.653 41.9752 92.419 45.371C95.1717 47.3205 98.4356 50.5041 102.211 54.9219C104.067 57.0915 105.978 59.2061 107.944 61.2656C110.76 64.237 113.095 66.4616 114.952 67.9394C109.604 69.4801 104.515 73.5363 99.6861 80.108C95.7694 85.4219 92.3404 91.8913 89.3989 99.5163L77.5074 99.3276C77.1299 88.3539 73.3784 78.3157 66.2529 69.2129C63.0756 65.1567 59.5679 61.8316 55.7299 59.2375C51.8761 56.612 48.0853 54.9927 44.3574 54.3795C48.4628 50.0246 53.5907 46.4087 59.7409 43.5316C66.0013 40.6074 71.5066 39.3104 76.2569 39.6405Z" fill="#C8C9CA"/>
<path d="M129.58 76.4055C135.148 79.9272 138.915 83.4802 140.882 87.0648C143.162 91.2153 143.178 95.6331 140.929 100.318L128.141 95.6488C129.808 94.281 131.121 92.4573 132.081 90.1777C133.984 85.6027 133.15 81.012 129.58 76.4055Z" fill="#C8C9CA"/>
<path d="M95.6986 87.1119C89.5012 90.2877 82.2341 91.5376 73.8975 90.8615C65.5608 90.2012 58.5926 87.8115 52.9929 83.6925C47.3932 79.5734 44.7978 74.9277 45.2068 69.7553C45.6158 64.5986 48.919 60.4245 55.1164 57.233C61.2981 54.0572 68.5573 52.7995 76.8939 53.4598C85.2306 54.1358 92.1988 56.5334 97.7985 60.6524C103.398 64.7715 105.994 69.4172 105.585 74.5897C105.176 79.7621 101.88 83.9362 95.6986 87.1119Z" fill="#0D131A"/>
<path d="M83.453 163.472C84.9473 161.853 87.2438 160.807 90.3425 160.335C93.4412 159.848 99.7016 160.807 109.124 163.212C113.827 164.423 118.223 165.673 122.313 166.962C122.879 168.754 122.234 170.806 120.378 173.117C118.632 175.302 116.343 177.095 113.512 178.494C109.47 180.49 104.979 181.379 100.04 181.159C94.8962 180.939 90.3189 179.539 86.3079 176.961C84.2159 175.609 82.8159 173.542 82.1081 170.759C81.5261 168.416 81.5419 166.75 82.1553 165.759C82.2811 165.052 82.7137 164.289 83.453 163.472Z" fill="#3396CD"/>
<path d="M83.4531 163.472C84.9475 161.853 87.244 160.807 90.3427 160.335C91.1134 160.21 92.2145 160.186 93.6459 160.265C95.8637 162.01 97.7198 164.25 99.2141 166.986C94.8413 165.979 91.255 166.034 88.4551 167.151C86.0642 168.125 84.1531 169.941 82.7217 172.598C82.1555 171.262 81.833 169.878 81.7544 168.448C81.6914 167.174 81.8251 166.278 82.1555 165.759C82.2813 165.052 82.7139 164.289 83.4531 163.472Z" fill="#2880AE"/>
<path d="M106.434 180.616C103.099 181.198 100.064 181.284 97.3267 180.876C101.888 177.779 102.58 173.274 99.403 167.363L110.657 166.868C114.967 166.726 118.719 166.718 121.912 166.844L122.313 166.962C122.879 168.754 122.234 170.806 120.378 173.117C118.632 175.302 116.344 177.095 113.512 178.494C111.641 179.406 109.281 180.113 106.434 180.616Z" fill="#2880AE"/>
<path d="M11.4905 137.909C8.40753 133.161 6.64583 126.919 6.2054 119.184C5.92227 114.499 6.0717 110.474 6.65369 107.11L17.0824 109.492L20.6451 139.158L11.4905 137.909Z" fill="#C8C9CA"/>
<path d="M128.683 138.852C130.571 143.222 131.137 147.978 130.382 153.119C129.611 158.307 128.196 162.12 126.135 164.557C125.05 165.846 123.39 166.97 121.157 167.929C117.523 169.501 113.661 170.287 109.572 170.287C102.163 170.303 95.5489 167.591 89.729 162.151C91.884 158.016 94.3771 153.638 97.2084 149.016C102.871 139.771 107.409 133.923 110.822 131.47C114.251 129.018 117.452 128.287 120.425 129.277C121.92 129.765 123.068 130.496 123.87 131.47C126.025 133.97 127.629 136.431 128.683 138.852Z" fill="#3396CD"/>
<path d="M123.87 131.47C126.025 133.97 127.63 136.431 128.684 138.852C130.571 143.222 131.137 147.978 130.382 153.119C129.596 158.433 128.377 162.128 126.725 164.203C126.049 165.052 125.192 165.783 124.153 166.396L121.157 167.929C118.876 169.045 116.65 169.808 114.48 170.216L106.647 170.476C108.676 169.187 109.604 167.638 109.431 165.83C109.273 164.179 108.275 162.686 106.434 161.349C104.562 159.997 102.368 159.219 99.8513 159.015C97.0358 158.795 94.3775 159.384 91.8765 160.783C95.6987 153.913 98.7896 148.513 101.149 144.582C105.49 137.366 108.715 132.995 110.823 131.47C114.252 129.018 117.453 128.287 120.426 129.277C121.92 129.765 123.068 130.496 123.87 131.47Z" fill="#2880AE"/>
<path d="M87.464 176.725C89.1314 175.452 91.1369 174.909 93.4806 175.098C96.3433 175.318 99.0095 176.662 101.479 179.131C102.423 180.074 101.55 181.567 98.8601 183.611C96.3748 185.498 94.5974 186.473 93.5278 186.535C92.7727 186.583 91.5301 185.27 89.7999 182.597C88.0382 179.877 87.2595 177.92 87.464 176.725Z" fill="white"/>
<path d="M101.479 179.131C102.25 179.901 101.495 181.269 99.2139 183.234C97.3263 184.869 95.4152 186.166 93.4805 187.125C94.5973 185.694 95.5096 183.91 96.2174 181.772C96.8938 179.649 97.1926 177.739 97.114 176.041C98.6398 176.717 100.095 177.747 101.479 179.131Z" fill="#DBDCDC"/>
<path d="M108.652 176.301C112.207 174.996 115.353 174.854 118.09 175.876C119.631 176.458 121.071 178.651 122.408 182.456C122.958 184.044 123.273 185.396 123.351 186.512C123.43 187.738 123.186 188.406 122.62 188.516C120.528 188.941 116.989 187.99 112.003 185.663C106.859 183.289 104.193 181.174 104.004 179.319C103.973 179.021 104.397 178.572 105.278 177.975C106.222 177.33 107.347 176.772 108.652 176.301Z" fill="white"/>
<path d="M118.09 175.876C119.411 176.379 120.716 178.211 122.006 181.371C123.249 184.468 123.65 186.646 123.21 187.903C122.282 185.435 120.992 183.006 119.34 180.616C117.531 178.022 115.777 176.23 114.079 175.239C115.573 175.208 116.91 175.42 118.09 175.876Z" fill="#DBDCDC"/>
<path d="M92.3482 81.1927C96.7053 79.4791 99.9534 77.3174 102.093 74.7076C103.257 73.2926 104.885 72.9153 106.977 73.5756C108.896 74.1888 110.303 75.2893 111.2 76.8771C111.924 78.182 112.364 80.2809 112.521 83.1737C112.631 85.4376 112.569 87.5836 112.333 89.6117C112.207 90.6493 112.726 98.4158 113.89 112.911C114.802 127.611 114.582 136.446 113.229 139.418C111.279 143.678 108.51 147.852 104.924 151.94C101.196 156.185 97.6412 159.109 94.2593 160.713C88.6596 163.354 83.0599 165.201 77.4602 166.255C68.5258 167.937 60.0319 167.536 51.9784 165.052C47.228 163.936 42.2496 161.813 37.0432 158.685C26.6302 152.427 20.2598 144.299 17.9318 134.3C15.6195 124.301 18.0262 111.182 25.1516 94.9413C28.7222 86.8132 32.5209 79.6835 36.5477 73.552C36.6735 72.6087 37.5544 71.2409 39.1902 69.4487C40.9991 67.452 42.5092 66.5402 43.7204 66.7131C44.8371 66.8546 46.418 67.9315 48.4628 69.9439L54.1726 75.7688C56.186 77.6711 59.2533 79.4476 63.3744 81.0984C68.3607 83.095 73.1582 84.0541 77.7669 83.9755C82.9577 83.8969 87.8181 82.9693 92.3482 81.1927Z" fill="#F0E9A5"/>
<path d="M39.4967 69.095C40.0787 68.8434 40.6607 68.6941 41.2427 68.6469L43.6493 68.8356C42.1864 70.1562 41.0932 71.5869 40.3697 73.1276C39.7405 74.5111 39.3315 76.154 39.1428 78.0563C38.1203 76.3898 37.3024 74.7155 36.689 73.0333C36.8934 72.5459 37.2474 71.9406 37.7507 71.2174C38.2855 70.4628 38.8675 69.7553 39.4967 69.095Z" fill="#C9C48B"/>
<path d="M29.7527 133.216C26.1821 132.791 22.2025 132.948 17.814 133.687C17.232 130.952 17.0118 127.957 17.1534 124.702C19.1038 125.551 21.1329 126.054 23.2407 126.212C25.317 126.369 27.3697 126.172 29.3988 125.622C29.4303 128.153 29.5482 130.684 29.7527 133.216Z" fill="#C9C48B"/>
<path d="M87.7235 85.4612C87.6763 85.0681 87.3224 84.6279 86.6618 84.1406C86.1584 83.779 85.6315 83.4803 85.0809 83.2444C88.8088 82.537 92.1907 81.4207 95.2265 79.8957C98.1994 78.3865 100.488 76.6571 102.092 74.7076C103.256 73.2927 104.884 72.9153 106.976 73.5756C108.895 74.1888 110.303 75.2893 111.2 76.8772C111.923 78.1821 112.364 80.2809 112.521 83.1737C112.631 85.4376 112.568 87.5836 112.332 89.6117C112.207 90.6493 112.726 98.4158 113.89 112.911C114.802 127.611 114.582 136.446 113.229 139.418C111.278 143.678 108.51 147.852 104.924 151.94C101.196 156.185 97.641 159.109 94.2591 160.713C88.2976 163.527 82.5406 165.492 76.9881 166.608C67.7548 168.432 59.4182 167.913 51.9781 165.052C49.7288 164.517 47.0548 163.574 43.9561 162.222C46.3941 161.625 48.5098 160.202 50.3029 157.954C51.0108 157.057 51.9624 155.462 53.1578 153.166C61.2114 151.107 68.1638 146.272 74.0152 138.663C74.1568 138.49 74.2747 138.129 74.3691 137.578L74.4635 136.824C75.0612 136.839 75.4151 136.761 75.5252 136.588C80.4014 129.576 83.917 121.275 86.0719 111.685C86.1348 111.433 86.0955 111.048 85.9539 110.529L85.7416 109.798C86.2764 109.562 86.5595 109.366 86.591 109.209C88.1639 101.096 88.5414 93.1805 87.7235 85.4612Z" fill="#C9C48B"/>
<path d="M20.126 187.55C13.8814 187.66 9.28839 185.238 6.34697 180.286C2.88647 174.453 2.31234 165.736 4.62459 154.133L51.9784 149.063C53.4884 153.638 53.5434 159.856 52.1435 167.717C50.7593 175.452 48.7774 180.483 46.1977 182.809C43.7911 184.995 39.6857 186.41 33.8815 187.054L20.126 187.55Z" fill="#3396CD"/>
<path d="M33.8815 187.054L20.126 187.55C26.292 182.141 26.347 176.088 20.2911 169.391L51.9783 149.063C53.4883 153.638 53.5434 159.856 52.1434 167.717C50.7592 175.452 48.7773 180.483 46.1977 182.809C43.7911 184.995 39.6857 186.41 33.8815 187.054Z" fill="#2880AE"/>
<path d="M51.0347 183.375C51.3493 186.85 51.0111 188.902 50.0202 189.531C48.9977 190.191 47.0787 190.199 44.2632 189.554C41.3847 188.894 39.1432 187.895 37.5388 186.559C37.0826 186.182 36.9883 185.419 37.2557 184.272C37.5388 183.045 38.1286 181.882 39.0252 180.781C41.479 177.794 44.8373 176.812 49.1 177.834C50.0752 178.069 50.7201 179.917 51.0347 183.375Z" fill="white"/>
<path d="M7.43221 182.196C7.7468 180.467 9.131 179.421 11.5848 179.06C13.2521 178.793 16.2329 178.824 20.527 179.154C24.2392 179.437 27.6053 180.255 30.6254 181.607C33.8028 183.037 35.3443 184.539 35.2499 186.111C35.1555 187.762 32.1354 189.53 26.1897 191.417C20.1967 193.335 14.9824 194.16 10.5467 193.893C8.95797 193.799 7.89623 192.408 7.36142 189.719C6.90527 187.392 6.92886 184.885 7.43221 182.196Z" fill="white"/>
<path d="M51.0347 183.375C51.3493 186.85 51.0111 188.902 50.0202 189.531C48.9977 190.191 47.0787 190.199 44.2632 189.554C41.3847 188.894 39.1432 187.895 37.5388 186.559C37.0826 186.182 36.9883 185.419 37.2557 184.272C37.5388 183.045 38.1286 181.882 39.0252 180.781C41.479 177.794 44.8373 176.812 49.1 177.834C50.0752 178.069 50.7201 179.917 51.0347 183.375Z" fill="#DBDCDC"/>
<path d="M26.685 180.215C29.2174 180.907 31.2623 181.764 32.8195 182.786C34.5025 183.886 35.3126 184.995 35.2497 186.111C35.171 187.699 32.324 189.42 26.7086 191.276C21.0931 193.131 16.0203 194.019 11.4902 193.94C15.6114 192.777 19.2213 190.985 22.32 188.564C25.9693 185.702 27.4242 182.92 26.685 180.215Z" fill="#DBDCDC"/>
<path d="M25.7649 130.032L31.3096 129.56C37.916 129.78 43.1461 132.052 46.9998 136.376C50.3345 140.133 52.1198 144.669 52.3557 149.983C52.5445 153.929 51.0501 158.009 47.8728 162.222C44.601 166.577 40.6608 169.493 36.052 170.971C34.2274 171.553 31.2545 171.694 27.1334 171.396C23.8617 171.144 20.5663 170.688 17.2474 170.028C11.6319 168.912 7.84899 165.696 5.89852 160.383C4.70308 157.097 4.24692 153.064 4.53006 148.285C4.79746 144.119 6.37828 140.322 9.27251 136.894C13.2049 132.209 18.7024 129.922 25.7649 130.032Z" fill="#3396CD"/>
<path d="M27.1337 171.396C23.8619 171.144 20.5666 170.688 17.2477 170.028C13.2366 169.242 10.1458 167.347 7.9751 164.344C10.712 165.932 13.6771 166.671 16.8702 166.561C20.6767 166.42 24.2237 165.02 27.5112 162.363C32.2143 158.575 35.4625 153.976 37.2556 148.568C39.5836 141.54 38.2623 135.252 33.2918 129.702C39.269 130.331 43.9957 132.744 47.472 136.942C50.5078 140.62 52.1358 144.967 52.356 149.983C52.5447 153.929 51.0504 158.009 47.8731 162.222C44.6013 166.577 40.6611 169.493 36.0523 170.971C34.2277 171.553 31.2548 171.694 27.1337 171.396Z" fill="#2880AE"/>
<path d="M5.42679 87.0884C5.82003 84.0384 6.96829 81.2006 8.87156 78.5751C10.8378 75.871 13.3702 73.7329 16.4689 72.1607C19.7879 70.4628 23.4528 69.5981 27.4639 69.5666C33.3939 69.5037 37.0668 72.0349 38.4824 77.1602C39.0015 79.0153 39.1588 81.0356 38.9543 83.2209C38.7813 85.0603 38.4274 86.5145 37.8926 87.5836C33.6141 90.8851 29.1155 93.715 24.3966 96.0733C14.9432 100.774 9.08391 100.75 6.81886 96.0025C5.49758 93.2041 5.03355 90.2327 5.42679 87.0884Z" fill="#3396CD"/>
<path d="M23.8774 69.8496L27.4637 69.5666C33.3937 69.5037 37.0666 72.0349 38.4822 77.1602C39.0013 79.0153 39.1586 81.0355 38.9541 83.2209C38.7811 85.0603 38.4272 86.5145 37.8924 87.5836C36.0048 88.9514 33.7555 90.2091 31.1444 91.3568C25.8907 93.6364 21.4157 94.2103 17.7192 93.0783C22.0606 88.7706 24.947 84.3764 26.3784 79.8957C27.9356 75.0063 27.1019 71.6576 23.8774 69.8496Z" fill="#2880AE"/>
<path d="M16.3982 85.7206C21.4002 83.2051 25.8281 82.3404 29.6818 83.1265C34.2119 84.0541 37.2871 86.3887 38.9072 90.1305C39.5836 91.6869 39.8903 93.2905 39.8274 94.9413C39.7645 96.5449 39.3634 97.9441 38.6241 99.139L11.4434 111.237C7.68407 109.665 5.55272 106.984 5.04938 103.195C4.62468 100.082 5.27746 96.8987 7.0077 93.6443C8.58066 90.7201 11.7108 88.0788 16.3982 85.7206Z" fill="#3396CD"/>
<path d="M26.6616 82.8907L29.6817 83.1265C34.2118 84.0541 37.2869 86.3888 38.907 90.1305C39.5834 91.6869 39.8901 93.2905 39.8272 94.9413C39.7643 96.5449 39.3632 97.9441 38.6239 99.139L25.9302 103.667C26.2762 103.368 26.811 102.598 27.5346 101.356C28.5098 99.6892 29.2491 97.9834 29.7525 96.2383C31.2625 90.9244 30.2322 86.4752 26.6616 82.8907Z" fill="#2880AE"/>
<path d="M14.4636 127.627L11.6323 120.976L21.9902 124.584L20.9521 127.933C20.0555 130.229 19.1117 131.526 18.1208 131.824C17.1298 132.123 15.9108 130.724 14.4636 127.627Z" fill="white"/>
<path d="M18.5449 123.382L21.9897 124.584L20.9515 127.933C20.0549 130.228 19.1112 131.525 18.1202 131.824C18.0887 131.84 18.2067 130.912 18.4741 129.041C18.7887 126.746 18.8123 124.86 18.5449 123.382Z" fill="#DBDCDC"/>
<path d="M44.4281 121.047C44.4124 122.556 44.2787 123.908 44.027 125.103C43.791 126.267 43.5315 126.896 43.2484 126.99C42.7608 127.147 41.2743 126.424 38.7891 124.82C36.4454 123.311 35.1477 122.368 34.896 121.99L41.9035 112.392C43.5866 114.153 44.4281 117.038 44.4281 121.047Z" fill="white"/>
<path d="M38.2231 117.439L41.9039 112.392C43.351 113.917 44.2476 116.079 44.5936 118.878C44.9397 121.817 44.5621 124.632 43.4611 127.32C43.2723 125.575 42.6431 123.735 41.5735 121.802C40.5983 120.025 39.4815 118.571 38.2231 117.439Z" fill="#DBDCDC"/>
<path d="M34.1882 122.061C34.4085 123.224 34.1096 125.426 33.2917 128.664C32.3951 132.123 31.4985 133.774 30.6019 133.616C29.4694 133.412 28.1166 132.453 26.5437 130.739C24.7505 128.806 23.3427 126.565 22.3203 124.018L34.1882 122.061Z" fill="white"/>
<path d="M34.1878 122.061C34.4081 123.224 34.1092 125.426 33.2913 128.664C32.3947 132.123 31.4981 133.774 30.6015 133.616L30.3184 130.857C30.0824 128.358 29.469 125.74 28.478 123.004L34.1878 122.061Z" fill="#DBDCDC"/>
<path d="M39.6859 100.719C41.3375 102.103 42.3914 103.58 42.8475 105.153C43.8228 108.454 43.0756 112.227 40.6061 116.472C37.9792 120.984 34.5423 123.759 30.2954 124.797C25.5293 125.96 20.9442 125.771 16.5399 124.231C11.821 122.564 9.20207 119.868 8.68299 116.142C8.14819 112.353 8.67513 108.973 10.2638 106.001C11.7424 103.234 14.0468 100.978 17.1769 99.2333C22.4778 96.2777 27.9595 95.6881 33.6222 97.4646C35.9816 98.2193 38.0028 99.3041 39.6859 100.719Z" fill="#3396CD"/>
<path d="M42.8473 105.153C43.8225 108.454 43.0754 112.227 40.6059 116.472C37.979 120.984 34.5421 123.759 30.2951 124.797L29.2334 125.033C32.9141 121.511 34.9747 116.952 35.4151 111.355C35.8713 105.616 34.4241 100.782 31.0738 96.8515C34.0152 97.3703 36.5948 98.4315 38.8127 100.035C40.9519 101.592 42.2968 103.297 42.8473 105.153Z" fill="#2880AE"/>
<path d="M132.529 88.0552C136.603 90.2562 139.34 93.9665 140.74 99.1861C141.92 103.588 141.896 107.267 140.669 110.223C139.678 112.644 137.696 114.908 134.723 117.014C132.506 118.587 127.685 115.93 120.26 109.044C117.932 106.89 115.494 104.445 112.946 101.709L109.784 98.2428C109.391 95.9003 110.091 93.5342 111.884 91.1445C113.803 88.5662 116.32 86.994 119.434 86.428C124.452 85.5162 128.817 86.0586 132.529 88.0552Z" fill="#3396CD"/>
<path d="M131.609 87.9373C133.701 89.2265 135.526 90.7593 137.083 92.5359C138.908 94.6426 140.127 96.8593 140.74 99.1861C141.92 103.588 141.896 107.267 140.669 110.223C139.678 112.644 137.696 114.908 134.724 117.014C133.638 117.785 131.735 115.82 129.014 111.119L125.262 103.855L126.914 103.266C128.204 102.7 129.305 101.937 130.217 100.978C133.127 97.9284 133.591 93.5814 131.609 87.9373Z" fill="#2880AE"/>
<path d="M126.702 99.9644C129.989 102.904 132.246 106.465 133.473 110.647C134.653 114.625 134.676 117.911 133.544 120.505C132.238 123.523 129.438 125.488 125.144 126.4C121.338 127.234 116.91 124.624 111.861 118.571C110.288 116.684 108.746 114.562 107.236 112.204L105.443 109.256C104.782 107.102 105.05 104.689 106.245 102.016C107.787 98.573 110.547 96.5371 114.527 95.9082C118.852 95.2165 122.911 96.5685 126.702 99.9644Z" fill="#3396CD"/>
<path d="M120.308 116.448C122.29 115.835 124.043 114.688 125.569 113.005C128.621 109.641 129.006 105.294 126.725 99.9644C128.314 101.395 129.714 103.085 130.925 105.035C132.058 106.874 132.907 108.745 133.473 110.647C134.653 114.625 134.677 117.911 133.544 120.505C132.238 123.523 129.439 125.488 125.144 126.4C123.965 126.652 122.809 125.072 121.676 121.66L120.308 116.448Z" fill="#2880AE"/>
<path d="M101.809 125.74L99.6384 126.306C98.0497 126.652 96.9172 126.746 96.2408 126.589C95.4858 126.432 95.8319 124.812 97.279 121.731C98.6789 118.76 99.8508 116.857 100.795 116.024L101.809 125.74Z" fill="white"/>
<path d="M96.2412 126.589L98.1288 125.221C99.6703 124.089 100.763 122.989 101.408 121.92L101.809 125.74L99.6388 126.306C98.0501 126.652 96.9176 126.746 96.2412 126.589Z" fill="#DBDCDC"/>
<path d="M111.153 137.531L106.151 138.144C105.569 138.144 105.553 137.311 106.104 135.645C106.607 134.057 107.126 132.988 107.661 132.437L118.727 135.291C116.697 136.234 114.173 136.981 111.153 137.531Z" fill="#DBDCDC"/>
<path d="M101.951 125.528L108.369 133.121C106.45 133.766 104.436 134.19 102.329 134.395C100.221 134.599 99.0255 134.481 98.7424 134.041C98.1289 133.145 98.475 131.455 99.7805 128.971L101.951 125.528Z" fill="white"/>
<path d="M98.813 134.112C101.314 133.106 103.595 131.706 105.655 129.914L108.369 133.121C106.513 133.734 104.554 134.151 102.494 134.371C100.449 134.575 99.222 134.489 98.813 134.112Z" fill="#DBDCDC"/>
<path d="M124.365 118.288C125.986 121.762 126.623 124.93 126.277 127.792C125.899 130.842 124.436 133.027 121.888 134.348C118.915 135.888 116.391 136.549 114.314 136.328C111.64 136.045 108.62 134.379 105.254 131.329C101.668 128.09 99.9532 124.034 100.11 119.16C100.173 117.258 100.519 115.489 101.149 113.854C101.746 112.345 102.446 111.276 103.249 110.647C106.63 107.99 110.437 107.416 114.668 108.926C118.931 110.435 122.163 113.556 124.365 118.288Z" fill="#3396CD"/>
<path d="M124.366 118.288C125.986 121.762 126.623 124.93 126.277 127.792C125.899 130.842 124.436 133.027 121.888 134.348C118.915 135.888 116.391 136.549 114.314 136.328C111.64 136.045 108.62 134.379 105.254 131.329L104.476 130.574C106.772 131.864 109.116 132.43 111.507 132.272C113.756 132.115 115.832 131.345 117.736 129.961C119.607 128.609 121.086 126.84 122.171 124.655C123.304 122.391 123.87 119.947 123.87 117.321L124.366 118.288Z" fill="#2880AE"/>
<path d="M92.0885 79.542C86.945 81.6487 80.952 82.364 74.1097 81.688C70.193 81.2949 66.4337 80.2966 62.8316 78.693C58.4431 76.7435 55.0455 74.1809 52.6389 71.0051C50.9401 68.7884 50.3895 66.2022 50.9873 63.2465C51.585 60.1808 53.1737 58.3099 55.7533 57.6339C57.9712 57.0522 66.009 57.3666 79.8667 58.5772L100.016 60.5581C102.895 69.8968 100.252 76.2247 92.0885 79.542Z" fill="#F0E9A5"/>
<path d="M95.4392 61.3835C97.1852 60.8804 98.711 60.6053 100.017 60.5581C102.895 69.8967 100.252 76.2247 92.0889 79.542C86.9453 81.6487 80.9523 82.364 74.11 81.688C70.6967 81.3264 67.4328 80.5324 64.3184 79.3061L69.863 80.1315C72.0022 80.3045 74.0943 80.163 76.1391 79.707C80.7479 78.6851 84.169 76.9951 86.4026 74.6368C88.9036 71.9956 89.0845 69.2364 86.9453 66.3594C89.1317 64.0483 91.963 62.3897 95.4392 61.3835Z" fill="#C9C48B"/>
<path d="M79.7253 37.4238C80.9207 35.9931 83.461 35.9145 87.3462 37.1879C90.4607 38.2098 92.6864 39.271 94.0234 40.3716C96.3042 40.1357 98.412 40.1829 100.347 40.5131C102.045 40.796 103.178 41.2127 103.744 41.7629C104.248 42.2503 104.153 43.7045 103.461 46.1257C102.785 48.4839 101.88 50.6299 100.748 52.5637C101.566 54.576 102.006 56.8871 102.069 59.4969C102.132 62.2325 101.723 64.0562 100.842 64.968L98.4592 63.3408C97.3581 62.7749 96.2177 62.5312 95.038 62.6098C95.7301 64.5278 95.5492 65.8642 94.4953 66.6188C93.7718 67.1376 92.5291 67.397 90.7674 67.397C89.8394 67.397 87.7867 66.8546 84.6093 65.7698C81.0859 64.5593 78.577 63.8439 77.0827 63.6238L69.391 63.2701L61.5105 63.4588C57.1062 63.4745 55.9344 61.6743 57.9949 58.0584C55.7456 57.8383 54.0154 58.3256 52.8042 59.5205C52.0649 60.2437 51.6402 60.9905 51.5301 61.7608C50.9638 59.7799 50.8773 57.4924 51.2706 54.8983C51.6795 52.1156 52.5289 50.0089 53.8187 48.5782C53.221 46.896 52.7649 45.0959 52.4503 43.1779C51.8368 39.3261 52.2301 36.787 53.63 35.5607C54.0704 35.1677 55.313 35.1598 57.3579 35.5372C59.4971 35.9459 61.4004 36.5905 63.0677 37.4709C65.8204 36.1346 69.0921 35.4193 72.8829 35.3249C76.7996 35.2463 79.0804 35.9459 79.7253 37.4238Z" fill="#3396CD"/>
<path d="M54.1961 41.8337C53.504 37.9347 53.3153 35.8437 53.6299 35.5607C54.0703 35.1677 55.3129 35.1598 57.3578 35.5372C59.497 35.9459 61.4003 36.5905 63.0676 37.4709C63.5238 37.2508 64.8136 36.8814 66.9371 36.3625C62.926 38.1548 59.324 41.4563 56.1309 46.2672C55.5174 47.179 54.8725 45.7012 54.1961 41.8337Z" fill="#2880AE"/>
<path d="M75.0532 35.4664C76.6577 35.435 77.7745 35.5608 78.4036 35.8438C78.9384 36.0953 79.3789 36.622 79.7249 37.4238C80.9204 35.9931 83.4607 35.9145 87.3459 37.188C90.4603 38.2099 92.6861 39.2711 94.0231 40.3716C96.3038 40.1358 98.4116 40.1829 100.346 40.5131C102.045 40.7961 103.178 41.2127 103.744 41.763C104.247 42.2503 104.153 43.7046 103.461 46.1257C102.784 48.484 101.88 50.6299 100.747 52.5637C101.565 54.5761 102.006 56.8872 102.069 59.4969C102.132 62.2325 101.723 64.0562 100.842 64.9681L98.4588 63.3409C97.3577 62.7749 96.2173 62.5312 95.0376 62.6098C95.7297 64.5279 95.5488 65.8642 94.495 66.6188C93.7714 67.1376 92.5288 67.3971 90.7671 67.3971C89.8547 67.3971 87.92 66.8468 84.9629 65.7463C81.7068 64.5357 79.3238 63.8125 77.8138 63.5767C78.1441 62.429 78.2306 61.3128 78.0733 60.228L77.7194 58.931L78.4036 58.8602L79.5126 59.0253C80.362 59.4655 81.0777 58.8052 81.6597 57.0444C82.2259 55.3307 82.2338 54.1752 81.6832 53.5778C81.0226 52.8546 79.8822 52.32 78.2621 51.9741C76.2802 51.5497 74.5184 51.754 72.9769 52.5873C72.1747 53.0275 71.75 53.1218 71.7029 52.8703C71.6714 52.6973 71.8759 52.2257 72.3163 51.4553C73.669 49.1128 74.3847 47.58 74.4634 46.8568C75.3757 47.5328 76.5004 47.9573 77.8374 48.1302C79.3789 48.3346 80.6294 48.0752 81.5889 47.352C81.3529 48.6569 81.4001 49.3644 81.7304 49.4744C81.9821 49.5687 82.5641 49.2779 83.4764 48.6019C86.4807 46.4166 88.9188 45.1745 90.7906 44.8758C91.8603 44.7029 92.0647 44.0662 91.4041 42.9657C90.7749 41.9123 89.6817 40.9219 88.1245 39.9943C86.41 38.9566 84.8056 38.4378 83.3113 38.4378C81.5024 38.4378 80.1653 39.2318 79.3002 40.8197C79.1901 39.5148 78.8441 38.4457 78.2621 37.6124C77.57 36.6534 76.5004 35.9381 75.0532 35.4664Z" fill="#2880AE"/>
<path d="M60.7081 47.3284C61.1328 46.6367 61.5497 46.0785 61.9586 45.6541C63.6731 46.2986 65.5371 47.4463 67.5505 49.0971L70.0515 51.3846L69.438 52.2335L64.3416 51.6676C61.5575 51.4003 59.8509 51.3767 59.2217 51.5968C59.3475 50.1662 59.843 48.7433 60.7081 47.3284Z" fill="white"/>
<path d="M95.8164 54.0965L89.6111 54.1673L84.5383 54.3559L84.2316 53.5777L84.0664 53.2947L87.0157 50.9836C89.3279 49.3958 91.3885 48.4918 93.1974 48.2717L94.3063 50.0875C95.0771 51.5496 95.5804 52.886 95.8164 54.0965Z" fill="white"/>
<path d="M129.368 28.769C131.931 26.9296 134.802 26.23 137.979 26.6702C141.173 27.1261 143.752 28.5725 145.718 31.0093C147.685 33.4462 148.463 36.1739 148.054 39.1924C147.645 42.211 146.167 44.6321 143.618 46.4558C141.055 48.2953 138.176 48.9949 134.983 48.5547C131.806 48.1145 129.234 46.6759 127.268 44.2391C125.301 41.7865 124.523 39.051 124.932 36.0324C125.341 33.0138 126.819 30.5927 129.368 28.769Z" fill="#0D131A"/>
<path d="M38.1286 12.2849C40.3307 14.8004 41.2745 17.6696 40.9599 20.8925C40.6611 24.1311 39.2061 26.7802 36.595 28.8398C33.9682 30.915 30.9481 31.7954 27.5348 31.481C24.1215 31.1666 21.3137 29.7516 19.1116 27.2362C16.9095 24.7207 15.9578 21.8437 16.2567 18.605C16.5556 15.3663 18.0184 12.7173 20.6452 10.6577C23.2721 8.59819 26.2921 7.72564 29.7054 8.04007C33.1188 8.3545 35.9265 9.76945 38.1286 12.2849Z" fill="#0D131A"/>
<path d="M69.367 50.8658C69.1625 51.3688 68.8322 51.8091 68.3761 52.1864L66.1582 51.7383L63.9403 51.4317C63.6572 50.8972 63.5156 50.3234 63.5156 49.7102C63.5156 49.3172 63.6415 48.8612 63.8931 48.3424C64.1133 47.8865 64.3729 47.5013 64.6717 47.1869C65.3638 47.3284 66.1739 47.8236 67.102 48.6726L69.367 50.8658Z" fill="#0D131A"/>
<path d="M91.7348 52.1156C91.7348 52.9332 91.436 53.6564 90.8383 54.2852L86.1666 54.2381C85.7891 53.9551 85.5453 53.6564 85.4352 53.3419C85.3251 53.0747 85.27 52.6659 85.27 52.1156L87.0632 50.8894C88.3845 50.1033 89.4147 49.6159 90.154 49.4272C90.6416 49.7102 91.027 50.0797 91.3101 50.5356C91.5933 51.023 91.7348 51.5497 91.7348 52.1156Z" fill="#0D131A"/>
<path d="M17.7194 54.5446L18.4272 55.4407C16.7756 57.2959 15.2184 59.1982 13.7556 61.1477C12.1197 63.333 11.1523 64.858 10.8535 65.7227L10.0513 65.4397C10.4288 64.3077 11.3726 62.6334 12.8826 60.4166C14.5656 57.9326 16.1779 55.9753 17.7194 54.5446Z" fill="#0D131A"/>
<path d="M104.664 37.6596C104.177 38.1155 103.862 38.4456 103.72 38.65C96.532 34.7196 89.2728 32.2592 81.9428 31.2687C74.6758 30.2783 67.9671 30.8049 61.8169 32.8488L61.8877 31.8819C68.1952 29.4607 75.2106 28.8083 82.9338 29.9245C90.3109 31.0093 97.5544 33.5877 104.664 37.6596Z" fill="#0D131A"/>
<path d="M135.785 72.3729C136.698 74.7941 137.602 78.465 138.499 83.3859L137.059 81.8531C136.525 79.1018 135.722 76.2797 134.653 73.387L135.785 72.3729Z" fill="#0D131A"/>
<path d="M17.7191 36.3625L18.4978 37.7067C14.4238 40.3637 12.4891 42.2582 12.6936 43.3901C12.9138 44.6478 14.4946 47.7529 17.436 52.7052C20.2359 57.4059 21.974 60.0708 22.6504 60.6996L21.3527 60.8647C20.6134 60.1729 18.8438 57.5396 16.044 52.9646C13.0553 48.0752 11.4431 44.9623 11.2071 43.6259C10.924 41.9752 13.0947 39.554 17.7191 36.3625Z" fill="#0D131A"/>
<path d="M47.9199 24.1469V22.7791C52.2927 21.9144 55.2735 21.4663 56.8622 21.4349C58.5295 21.4035 60.1575 24.0683 61.7462 29.4294C62.5484 32.1177 63.1854 34.8376 63.6573 37.5889L62.7843 37.6832C62.627 36.0953 61.8799 33.3991 60.5429 29.5944C58.9227 25.0194 57.5307 22.7398 56.3667 22.7555C54.3061 22.787 51.4905 23.2508 47.9199 24.1469Z" fill="#0D131A"/>
<path d="M18.498 43.791C18.5609 43.2408 19.7485 42.2739 22.0608 40.8904L22.5798 41.5979C20.5822 42.777 19.5047 43.5552 19.3474 43.9325V44.0033C19.3474 44.9623 20.6058 47.4463 23.1225 51.4553C25.5448 55.3071 27.5189 58.0741 29.0447 59.7563L28.4076 60.3459C26.9605 58.7737 24.9864 56.0146 22.4854 52.0685C19.6856 47.635 18.3564 44.8758 18.498 43.791Z" fill="#0D131A"/>
<path d="M54.5499 30.3962C53.7005 28.9813 53.0556 28.2974 52.6152 28.3446C51.813 28.4074 50.4209 28.7769 48.439 29.4529V28.6275C50.4209 27.9201 51.7894 27.5349 52.5444 27.472C53.441 27.3777 54.4712 28.3839 55.6352 30.4906C56.5004 32.0784 57.2082 33.7528 57.7587 35.5136L56.697 35.0656C56.115 33.3362 55.3993 31.7797 54.5499 30.3962Z" fill="#0D131A"/>
<path d="M116.603 37.3766L116.367 37.9662L115.989 38.485C112.167 36.3154 109.509 35.0498 108.015 34.6882C107.401 34.5467 106.489 35.3092 105.278 36.9757C104.318 38.3121 103.477 39.7349 102.753 41.2441L101.927 41.0083L104.334 36.1267C105.561 34.0358 106.646 33.1082 107.59 33.344C108.203 33.5012 109.344 33.9414 111.011 34.6646C112.788 35.4664 114.652 36.3704 116.603 37.3766Z" fill="#0D131A"/>
<path d="M139.395 55.653C141.189 57.7597 142.541 59.5913 143.454 61.1477C144.492 62.94 144.854 64.2134 144.539 64.9681C144.13 65.9271 142.195 67.8766 138.735 70.8165C136.847 72.4201 134.173 74.5819 130.713 77.3017L129.934 76.7593C132.309 74.8413 134.857 72.6324 137.579 70.1326C140.929 67.0198 142.801 65.0152 143.194 64.1191C143.446 63.5531 143.123 62.5548 142.227 61.1241C141.362 59.7564 140.048 58.1135 138.286 56.1954L139.395 55.653Z" fill="#0D131A"/>
<path d="M137.507 62.8928C137.429 63.7418 136.1 65.5105 133.52 68.1989C131.381 70.4313 129.108 72.5773 126.701 74.6369L125.805 74.2595C127.975 72.4516 130.256 70.3134 132.647 67.8451C135.211 65.1725 136.54 63.4981 136.634 62.8221C136.524 62.3504 135.353 61.132 133.119 59.1668L133.992 58.7423C136.383 60.9276 137.555 62.3111 137.507 62.8928Z" fill="#0D131A"/>
<path d="M114.055 43.0364L113.795 43.8854C111.357 42.1245 109.894 41.1655 109.407 41.0083L108.935 41.0791C107.991 41.535 106.748 43.3508 105.207 46.5266C104.059 48.9006 102.989 51.4946 101.998 54.3088L101.172 54.0258C102.1 51.4317 103.06 49.0578 104.051 46.9039C105.828 43.0836 107.33 40.8747 108.557 40.2773L109.713 40.1829C110.138 40.3401 111.585 41.2913 114.055 43.0364Z" fill="#0D131A"/>
<path d="M103.06 55.7709C103.579 54.2774 104.358 53.0511 105.396 52.092C106.812 50.7871 108.605 50.0718 110.775 49.946L110.351 50.8658C108.4 51.0701 106.827 51.8012 105.632 53.0589C104.751 54.0022 104.098 55.1971 103.674 56.6435L103.06 55.7709Z" fill="#0D131A"/>
<path d="M128.448 63.9068C128.589 65.4161 128.44 66.8546 127.999 68.2224C127.291 70.4234 125.892 72.0664 123.799 73.1511L123.186 72.4908C125.121 71.5475 126.434 70.109 127.126 68.1753C127.582 66.8861 127.74 65.4869 127.598 63.9776L127.409 63.1522L128.164 62.6805C128.322 63.1207 128.416 63.5295 128.448 63.9068Z" fill="#0D131A"/>
<path d="M106.646 59.8742L105.797 58.9074C105.514 57.4138 105.946 56.0932 107.095 54.9455C108.054 53.9865 109.179 53.3969 110.469 53.1768V54.1201C108.974 54.6704 107.905 55.6215 107.26 56.9736C106.819 57.8854 106.615 58.8523 106.646 59.8742Z" fill="#0D131A"/>
<path d="M124.908 64.3077C125.034 66.3358 124.593 67.8687 123.587 68.9063C123.115 69.4251 122.438 69.8339 121.558 70.1326L119.08 70.675L118.325 69.8496C119.175 69.8182 119.993 69.6295 120.779 69.2836C121.581 68.9535 122.25 68.5054 122.785 67.9394C123.697 66.9332 124.114 65.7698 124.035 64.4492L124.908 64.3077Z" fill="#0D131A"/>
<path d="M152.75 31.9998C153.583 34.1851 153.953 36.2918 153.859 38.3199C153.733 40.7882 153.182 43.0442 152.207 45.0881C151.153 47.3205 149.619 49.215 147.606 50.7714C145.341 52.5322 141.684 54.9848 136.635 58.1291L127.15 63.7889C125.404 64.7637 123.469 65.2117 121.346 65.1331C119.081 65.0545 116.871 64.3942 114.716 63.1522C112.687 61.9731 111.255 60.0629 110.421 57.4217C109.682 55.0477 109.619 52.9489 110.233 51.1252C110.893 49.16 112.513 45.1981 115.093 39.2396C117.83 32.9038 119.576 29.2014 120.331 28.1323C121.762 25.9155 123.642 24.1311 125.97 22.7791C128.267 21.427 130.815 20.6174 133.615 20.3501C136.131 20.0985 138.727 20.413 141.401 21.2934C144.028 22.1581 146.222 23.4079 147.984 25.043C150.139 27.0239 151.727 29.3428 152.75 31.9998ZM150.838 44.7579C151.845 42.7141 152.404 40.5759 152.514 38.3435C152.624 36.3311 152.341 34.3816 151.664 32.495C150.768 30.011 149.242 27.755 147.087 25.7269C145.467 24.2019 143.391 23.0699 140.858 22.331C138.357 21.6078 135.88 21.3956 133.426 21.6943C130.642 22.0402 128.227 22.9127 126.182 24.3119C124.499 25.4596 122.911 27.0868 121.416 29.1935C120.63 30.294 118.837 33.8628 116.037 39.8999C113.3 45.827 111.641 49.663 111.059 51.4081C110.508 53.0746 110.547 54.9376 111.176 56.9972C111.916 59.3554 113.253 61.0612 115.188 62.1146C117.311 63.2622 119.379 63.9147 121.393 64.0719C123.406 64.2291 125.184 63.8754 126.725 63.0107C128.518 62.0202 131.633 60.0786 136.068 57.1858C140.897 54.0101 144.523 51.5025 146.945 49.663C148.534 48.4525 149.832 46.8174 150.838 44.7579Z" fill="#0D131A"/>
<path d="M129.32 29.2171C128.204 30.0503 127.299 31.0565 126.607 32.2356C125.915 33.4148 125.482 34.6725 125.309 36.0088C125.121 37.3452 125.199 38.6737 125.545 39.9943C125.907 41.2992 126.505 42.5097 127.339 43.626C128.267 44.8365 129.383 45.8191 130.689 46.5738C132.01 47.3441 133.45 47.8315 135.007 48.0359L139.537 47.8C141.015 47.407 142.352 46.7546 143.548 45.8427C144.665 44.9937 145.569 43.9876 146.261 42.8242C146.953 41.645 147.394 40.3873 147.582 39.051C147.976 36.1582 147.221 33.5327 145.317 31.1744C143.43 28.8319 140.952 27.4484 137.885 27.0239C136.328 26.8195 134.818 26.906 133.355 27.2833C131.877 27.6449 130.532 28.2895 129.32 29.2171ZM125.876 31.7876C126.615 30.5299 127.59 29.4372 128.801 28.5096C130.107 27.5349 131.546 26.8431 133.119 26.4344C134.708 26.0256 136.336 25.9313 138.003 26.1514C141.306 26.6073 143.98 28.1087 146.025 30.6556C148.07 33.2025 148.872 36.0403 148.432 39.1689C148.227 40.631 147.756 41.9988 147.016 43.2722C146.261 44.53 145.286 45.6147 144.091 46.5266C142.785 47.5171 141.338 48.2167 139.749 48.6254C138.16 49.0342 136.54 49.1207 134.889 48.8848C133.221 48.6647 131.68 48.1459 130.264 47.3284C128.849 46.5109 127.645 45.4497 126.654 44.1448C125.742 42.9342 125.097 41.6215 124.72 40.2065C124.326 38.7916 124.232 37.353 124.436 35.8909C124.641 34.4288 125.121 33.061 125.876 31.7876Z" fill="#0D131A"/>
<path d="M32.3479 59.8742C29.3908 58.0977 27.9751 55.5979 28.101 52.375C28.1324 51.3688 28.3212 50.3391 28.6672 49.2857L29.1863 47.8943L29.8705 48.8376C29.3987 50.9601 29.32 52.7838 29.6346 54.3088C30.0908 56.4784 31.3491 58.2313 33.4097 59.5676L32.3479 59.8742Z" fill="#0D131A"/>
<path d="M52.5209 37.0229V37.9426C51.4513 37.6125 50.4682 37.3688 49.5716 37.2116L49.5244 36.3154L52.5209 37.0229Z" fill="#0D131A"/>
<path d="M50.5861 43.6495C50.2872 42.9735 49.8389 42.3211 49.2412 41.6922L49.4064 40.6782C50.2872 41.4171 50.9479 42.2896 51.3883 43.2958C51.9231 44.5378 52.0961 45.8742 51.9074 47.3048C51.2467 48.0752 50.767 48.4997 50.4681 48.5783C51.0186 46.3772 51.058 44.7343 50.5861 43.6495Z" fill="#0D131A"/>
<path d="M32.5366 52.21C32.1748 51.5654 31.8838 50.85 31.6636 50.064L32.1591 50.1347L32.6309 50.2526C32.741 50.5985 32.9219 51.0073 33.1736 51.4789C33.8185 52.5637 34.6758 53.4991 35.7454 54.2852C36.8307 55.0556 37.9082 55.5115 38.9778 55.653C39.953 55.7788 40.9361 55.7709 41.9271 55.6294L40.8418 56.4548C40.244 56.8321 39.8036 56.9972 39.5205 56.95C36.4532 56.5413 34.1252 54.9612 32.5366 52.21Z" fill="#0D131A"/>
<path d="M41.7617 6.6487C44.1211 8.94406 45.7098 11.2709 46.5277 13.6291C47.1255 15.4056 47.8726 19.5719 48.7692 26.1278C49.6815 32.8881 50.0905 37.5653 49.9961 40.1593C49.9175 42.4861 49.2883 44.6007 48.1086 46.503C46.7558 48.704 44.9155 50.1268 42.5875 50.7714C39.9135 51.5103 37.4282 51.6911 35.1317 51.3138C32.8824 50.9365 31.0184 50.0718 29.5399 48.7198C27.2119 46.6131 24.5772 44.0976 21.6358 41.1734C17.7348 37.2901 14.8563 34.193 13.0003 31.8819C11.3015 29.7909 10.1611 27.5427 9.57908 25.1373C8.96563 22.6061 8.94203 19.7763 9.5083 16.6476C9.93299 14.2894 10.7352 12.0962 11.9149 10.0682C13.4879 7.36403 15.6114 5.22589 18.2854 3.65373C20.5662 2.33312 23.1694 1.51559 26.0951 1.20116C28.9421 0.886727 31.624 1.10683 34.1407 1.86147C36.7676 2.64755 39.3079 4.24329 41.7617 6.6487ZM45.5604 14.4781C44.7582 11.9312 43.1302 9.56506 40.6764 7.37976C38.3641 5.3045 35.8631 3.85811 33.1734 3.04059C30.7825 2.31739 28.3837 2.11301 25.9771 2.42745C23.5705 2.72616 21.2504 3.52796 19.0168 4.83285C16.4529 6.32641 14.4474 8.25231 13.0003 10.6105C11.8992 12.4028 11.1599 14.3759 10.7824 16.5297C10.2633 19.4068 10.3734 22.3074 11.1127 25.2317C11.7733 27.7943 12.7564 29.8695 14.062 31.4574C15.9967 33.7999 18.8045 36.8578 22.4852 40.631C25.5996 43.8067 28.1399 46.2908 30.1061 48.083C31.4589 49.3093 33.1812 50.0639 35.2733 50.3469C37.3653 50.6299 39.6933 50.4177 42.2572 49.7102C44.3964 49.1285 46.0952 47.8551 47.3535 45.8899C48.4703 44.1605 49.0602 42.2346 49.1231 40.1122L49.1467 39.499C49.1467 36.3704 48.7378 32.0077 47.9198 26.4108C47.1333 20.9239 46.3469 16.9464 45.5604 14.4781Z" fill="#0D131A"/>
<path d="M38.3879 11.9076C40.6686 14.5174 41.6517 17.4966 41.3371 20.8453C41.1956 22.4175 40.7552 23.8953 40.0159 25.2788C39.2766 26.6623 38.2856 27.865 37.043 28.8869C35.7217 29.9875 34.2353 30.7971 32.5837 31.3159C30.9321 31.819 29.2175 31.9841 27.4401 31.8112C23.9167 31.481 21.0146 30.0189 18.7338 27.4248C16.453 24.815 15.4621 21.8358 15.7609 18.4871C15.9182 16.9149 16.3665 15.4371 17.1058 14.0536C17.8294 12.6701 18.8124 11.4595 20.0551 10.4219C21.3921 9.32139 22.8864 8.51959 24.538 8.01649C26.2053 7.52912 27.9199 7.36405 29.6816 7.52126C33.205 7.8357 36.1071 9.29781 38.3879 11.9076ZM40.4642 20.7746C40.763 17.6617 39.8507 14.8947 37.7272 12.4736C35.6037 10.0524 32.8982 8.69252 29.6108 8.39381C27.9434 8.2366 26.339 8.38595 24.7975 8.84188C23.256 9.31353 21.864 10.0682 20.6213 11.1058C19.4731 12.0648 18.5529 13.181 17.8608 14.4545C17.1844 15.7279 16.7755 17.0957 16.6339 18.5578C16.3508 21.6707 17.271 24.4377 19.3944 26.8589C21.5179 29.28 24.2234 30.6399 27.5109 30.9386C29.1625 31.0958 30.759 30.9386 32.3005 30.467C33.842 29.9953 35.2419 29.2485 36.5003 28.2266C37.6486 27.2676 38.5609 26.1514 39.2373 24.8779C39.9294 23.5888 40.3383 22.221 40.4642 20.7746Z" fill="#0D131A"/>
<path d="M81.4241 167.976L81.4005 168.66C79.4658 169.918 78.2074 171.003 77.6254 171.914L77.4366 172.362C77.6097 172.567 78.2231 172.826 79.277 173.141C80.3466 173.455 81.5656 173.738 82.9341 173.99L83.6891 175.287C79.0489 174.548 76.5086 173.895 76.0682 173.329C75.848 173.078 75.8165 172.748 75.9738 172.339C76.1626 171.804 76.8546 170.995 78.0501 169.91C79.2141 168.857 80.3545 167.984 81.4713 167.292L81.4241 167.976Z" fill="#0D131A"/>
<path d="M52.7569 46.1021L53.2052 47.2341C51.1446 48.7748 49.0919 50.5435 47.0471 52.5401C43.8854 55.6373 40.6923 57.744 37.4678 58.8602C35.423 59.5834 32.4737 60.0865 28.6199 60.3695L25.6942 60.6053C20.299 61.1241 15.4071 63.0264 11.0186 66.3123C7.10193 69.2208 4.4751 72.4437 3.13809 75.9811C2.21004 78.4493 2.02129 81.2085 2.57182 84.2585C3.04371 86.8683 4.01108 89.4702 5.47392 92.0643C5.59976 92.8661 5.81997 93.8408 6.13456 94.9885C3.93243 91.9542 2.43812 89.0614 1.65165 86.3102C0.550579 82.5212 0.66855 78.8031 2.00556 75.1557C3.54705 70.9266 6.37051 67.4363 10.4759 64.6851C14.6914 61.8552 19.7327 60.1572 25.5999 59.5913L28.5491 59.3554C32.277 59.0724 35.0454 58.6087 36.8543 57.9641C39.7958 56.9264 42.7922 54.9219 45.8438 51.9506C48.1403 49.7024 50.4447 47.7529 52.7569 46.1021Z" fill="#0D131A"/>
<path d="M110.516 64.6143C108.141 62.3661 105.239 59.2454 101.81 55.2521L101.503 54.8748L100.984 52.7288L102.588 54.5918C105.97 58.5379 108.833 61.6193 111.177 63.8361C114.621 67.1062 117.909 69.5194 121.039 71.0759C129.848 75.4779 135.864 79.4555 139.089 83.0086C143.87 88.2753 144.633 94.1159 141.377 100.53L140.74 99.3512C142.974 93.8329 141.889 88.5898 137.484 83.6217C134.087 79.8014 128.448 75.9181 120.567 71.972C117.374 70.3841 114.024 67.9316 110.516 64.6143Z" fill="#0D131A"/>
<path d="M86.4968 176.654L87.4877 177.244C87.5506 177.763 87.7001 178.289 87.936 178.824C87.0552 178.399 86.2215 177.936 85.435 177.433C83.2486 176.033 81.8487 173.99 81.2352 171.301C80.7319 169.069 80.8184 167.41 81.4948 166.325L82.4621 165.948C81.9116 166.828 81.9037 168.385 82.4385 170.617C83.0834 173.321 84.4362 175.334 86.4968 176.654Z" fill="#0D131A"/>
<path d="M105.325 181.442L101.22 181.654L101.833 180.428L104.405 180.263L105.325 181.442Z" fill="#0D131A"/>
<path d="M123.068 166.844C123.697 168.275 123.564 169.855 122.667 171.584C121.865 173.093 120.552 174.587 118.727 176.065L117.5 175.475C119.152 174.123 120.386 172.716 121.204 171.254C122.085 169.682 122.337 168.291 121.959 167.08L123.068 166.844Z" fill="#0D131A"/>
<path d="M6.11097 107.157L7.00756 108.171C6.61432 111.661 6.55927 115.379 6.8424 119.326C7.33001 125.614 8.69062 130.928 10.9242 135.267L9.95684 136.281C7.14126 131.691 5.57617 126.078 5.26158 119.443C5.0571 115.262 5.34023 111.166 6.11097 107.157Z" fill="#0D131A"/>
<path d="M124.838 131.801C127.008 134.395 128.644 136.989 129.745 139.583C131.617 143.985 132.191 148.639 131.468 153.544C130.713 158.685 129.203 162.481 126.938 164.934C125.821 166.145 124.035 167.269 121.582 168.306L121.369 168.401C117.248 170.161 113.096 171.042 108.911 171.042C101.707 171.01 95.2503 168.33 89.5405 163L90.8854 162.293C95.9975 166.726 101.99 169.085 108.864 169.367C113.552 169.556 117.586 168.919 120.968 167.457L121.18 167.363C123.225 166.498 124.798 165.39 125.899 164.038C127.834 161.664 129.163 158.001 129.887 153.048C131.019 145.361 129.116 138.545 124.177 132.602L124.838 131.801Z" fill="#0D131A"/>
<path d="M88.9033 183.328C87.236 180.561 86.5596 178.588 86.8742 177.409C87.0787 176.654 87.8888 175.923 89.3044 175.216C90.9403 174.398 92.6863 174.084 94.5424 174.273C97.2164 174.54 99.3241 175.562 100.866 177.338C102.155 178.816 102.619 180.05 102.258 181.041C101.817 182.204 100.394 183.588 97.9871 185.191C95.7693 186.653 94.2356 187.416 93.3862 187.479C92.1121 187.573 90.6178 186.19 88.9033 183.328ZM88.3371 177.338C87.9753 177.621 88.2427 178.651 89.1393 180.428C89.9887 182.157 90.9167 183.596 91.9234 184.743C92.7099 185.639 93.2368 186.087 93.5042 186.087C94.1334 186.056 95.4468 185.38 97.4445 184.059C99.6309 182.597 100.913 181.363 101.29 180.357C101.511 179.759 101.031 178.958 99.8511 177.951C98.5298 176.819 96.8939 176.041 94.9435 175.617C92.6627 175.129 90.4605 175.703 88.3371 177.338Z" fill="#0D131A"/>
<path d="M103.579 179.791C103.626 179.005 104.161 178.187 105.184 177.338C106.206 176.505 107.472 175.821 108.982 175.287C112.679 173.982 115.848 174.068 118.491 175.546C119.781 176.254 121.11 178.132 122.478 181.182C123.831 184.154 124.437 186.449 124.295 188.068C124.216 189.027 123.855 189.578 123.21 189.719C121.715 190.018 119.033 189.428 115.164 187.95C111.326 186.488 108.251 184.9 105.939 183.187C104.303 181.96 103.516 180.829 103.579 179.791ZM108.605 176.324C107.425 176.796 106.45 177.385 105.679 178.093C104.956 178.738 104.594 179.319 104.594 179.838C104.594 181.174 107.087 182.982 112.073 185.262C117.059 187.542 120.543 188.485 122.525 188.092C122.73 188.06 122.856 187.77 122.903 187.219C123.029 185.694 122.51 183.611 121.346 180.97C120.166 178.25 119.033 176.686 117.948 176.277C114.771 175.082 111.656 175.098 108.605 176.324Z" fill="#0D131A"/>
<path d="M92.2534 81.688C87.739 83.4174 82.91 84.3214 77.7665 84.4C73.0634 84.4786 68.1636 83.4881 63.0672 81.4286C58.9304 79.7464 55.8631 77.962 53.8655 76.0754L50.4207 72.5852C48.7848 70.8558 47.5658 69.6452 46.7636 68.9535C45.4895 67.853 44.4592 67.2477 43.6727 67.1376C43.0278 67.0433 42.1942 67.3813 41.1717 68.1517C40.2122 68.8906 39.2449 70.0147 38.2696 71.524C37.4202 72.8446 36.9641 73.7564 36.9012 74.2595L36.1226 73.4813C36.2012 72.8053 36.6495 71.8227 37.4674 70.5335C38.364 69.1028 39.3078 68.0023 40.2987 67.232C40.8493 66.8232 41.4706 66.5323 42.1627 66.3594L43.7907 66.2651C44.7187 66.3908 45.8434 67.0197 47.1647 68.1517C47.9669 68.8277 49.2646 70.109 51.0577 71.9956L54.4553 75.4386C56.4215 77.2781 59.4101 79.0074 63.4212 80.6268C68.3917 82.6391 73.1735 83.606 77.7665 83.5274C82.7685 83.4488 87.4716 82.5684 91.8759 80.8862C96.2801 79.2197 99.5755 77.0658 101.762 74.4246C102.265 73.8115 102.863 73.3398 103.555 73.0097C104.31 72.6481 105.081 72.4987 105.867 72.5616C107.031 72.6716 108.148 73.0647 109.218 73.7407C110.319 74.4325 111.145 75.2736 111.695 76.264C112.387 77.4746 112.828 79.5184 113.016 82.3955C113.158 84.6908 113.126 86.9626 112.922 89.2108L112.214 90.0833C111.931 90.382 111.813 90.3192 111.86 89.8947L111.884 89.5645C112.136 87.4893 112.198 85.3275 112.073 83.0793C111.931 80.3281 111.514 78.3314 110.822 77.0894C110.334 76.2247 109.587 75.4701 108.581 74.8255C107.59 74.1809 106.599 73.8193 105.608 73.7407C104.286 73.5992 103.225 74.008 102.423 74.967C100.189 77.7183 96.7992 79.9586 92.2534 81.688Z" fill="#0D131A"/>
<path d="M52.9928 165.924L52.8984 165.146L52.7568 164.368C60.7946 167.119 69.5324 167.504 78.9701 165.524C84.5698 164.36 89.6033 162.623 94.0705 160.312C97.9085 158.331 101.636 155.194 105.254 150.902C107.095 149.267 108.943 146.87 110.799 143.71C112.592 140.628 113.457 138.474 113.394 137.248L114.338 136.965C114.574 138.6 113.772 141.021 111.931 144.229C110.17 147.31 108.321 149.676 106.387 151.327C104.594 154.456 101.629 157.34 97.4916 159.982C93.4963 162.544 88.9112 164.58 83.7362 166.089C78.4196 167.646 73.1502 168.44 67.928 168.471C62.3283 168.518 57.3499 167.67 52.9928 165.924Z" fill="#0D131A"/>
<path d="M98.5537 79.9429L104.901 75.1321C106.741 74.0316 108.345 73.9373 109.714 74.8491L109.903 75.4858C108.676 74.6683 107.276 74.7312 105.703 75.6745L98.7424 80.9098C95.7538 83.1108 91.7585 84.793 86.7565 85.9564C81.2984 87.2142 76.2335 87.4343 71.5618 86.6167C65.7261 85.5948 60.4567 83.4567 55.7536 80.2023C53.0324 78.3314 50.1146 75.6981 47.0001 72.3022L45.7732 70.8165C44.6092 69.5902 43.3587 68.9456 42.0217 68.8828C41.0465 68.8199 40.0791 69.0636 39.1196 69.6138L39.6859 68.7884C40.8027 68.3482 41.7386 68.1517 42.4936 68.1989C43.6891 68.2775 44.8216 68.8749 45.8912 69.9911L47.1417 71.524C50.1932 74.857 53.1032 77.4746 55.8716 79.3769C60.5747 82.5999 65.8126 84.7066 71.5854 85.697C76.0368 86.4674 80.8973 86.2787 86.1667 85.131C91.326 83.9991 95.455 82.2697 98.5537 79.9429Z" fill="#0D131A"/>
<path d="M59.5992 157.081C63.5945 157.977 67.8965 158.535 72.5053 158.755C85.199 159.369 95.6356 157.325 103.815 152.624L104.192 153.261L101.975 154.44C93.7323 158.732 83.5474 160.477 71.4199 159.675C66.9842 159.392 62.8788 158.795 59.1037 157.883C55.7691 157.081 53.677 156.311 52.8276 155.572L53.0164 154.746C53.8815 155.501 56.0758 156.279 59.5992 157.081Z" fill="#0D131A"/>
<path d="M73.1661 158.048C68.4001 157.749 63.9644 157.105 59.859 156.114C56.2097 155.234 53.9289 154.393 53.0166 153.591L53.4885 153.025C54.2278 153.669 56.5322 154.393 60.4016 155.194C64.8373 156.106 69.5169 156.688 74.4402 156.94C88.3137 157.616 98.876 155.399 106.127 150.289L105.089 152.176C96.8469 156.924 86.2059 158.881 73.1661 158.048Z" fill="#0D131A"/>
<path d="M42.281 126.872C45.2853 129.262 49.084 131.408 53.677 133.31C58.6633 135.385 63.9484 136.879 69.5324 137.791C83.0913 140.039 95.5648 138.616 106.953 133.522L106.599 134.017L106.292 134.536C94.3694 139.85 81.2745 141.061 67.0078 138.168C61.2351 137.004 55.8477 135.236 50.8457 132.862C46.2212 130.677 42.5956 128.318 39.9688 125.787L41.1249 126.4L42.281 126.872Z" fill="#0D131A"/>
<path d="M52.0017 131.093C48.1322 129.348 45.2301 127.674 43.2954 126.07L43.7673 125.504C45.5919 127.013 48.4075 128.586 52.2141 130.221C56.7284 132.17 61.581 133.711 66.7717 134.843C78.7576 137.421 89.7133 137.193 99.6386 134.159L100.771 134.56C94.8725 136.651 88.6436 137.696 82.0844 137.696C77.3027 137.696 72.2299 137.122 66.8661 135.975C61.6911 134.858 56.7363 133.231 52.0017 131.093Z" fill="#0D131A"/>
<path d="M38.5532 99.587L39.0487 99.0682C41.4553 101.269 44.7035 103.392 48.7932 105.435C53.5749 107.809 58.5927 109.562 63.8463 110.694C76.6659 113.477 90.4135 111.787 105.089 105.624V106.497C97.303 109.814 90.1304 111.881 83.5712 112.699C76.9805 113.532 70.264 113.21 63.4216 111.732C58.1837 110.584 53.1502 108.745 48.3213 106.214C44.3889 104.154 41.1329 101.945 38.5532 99.587Z" fill="#0D131A"/>
<path d="M39.4497 97.0402L39.9688 96.5449C41.9507 98.5887 44.9786 100.633 49.0526 102.676C53.8816 105.113 59.0487 106.921 64.554 108.1C79.3083 111.292 93.0245 109.413 105.702 102.464L105.608 103.478C98.058 107.44 90.1539 109.743 81.8959 110.388C75.5726 110.875 69.2729 110.38 62.9968 108.902C57.5859 107.629 52.5445 105.703 47.8729 103.124C44.2079 101.096 41.4002 99.0682 39.4497 97.0402Z" fill="#0D131A"/>
<path d="M4.10522 154.015L5.11978 154.228C3.92433 160.265 3.52323 165.563 3.91647 170.122C4.32544 174.681 5.52875 178.352 7.5264 181.135L6.96013 182.102C4.4906 179.304 2.98842 175.546 2.45362 170.83C1.88736 165.877 2.43789 160.272 4.10522 154.015Z" fill="#0D131A"/>
<path d="M34.4712 187.502L34.9195 186.418L36.0284 186.064C36.516 185.844 36.8778 185.71 37.1138 185.663L37.68 186.3L38.2935 186.889L34.4712 187.502Z" fill="#0D131A"/>
<path d="M52.2847 152.86C52.5993 152.152 52.8038 151.382 52.8982 150.549C53.9835 154.746 54.1959 159.652 53.5352 165.264C52.9218 170.562 51.7185 175.074 49.9253 178.8L48.7456 177.81C50.177 174.461 51.2387 170.444 51.9308 165.759C52.6544 160.854 52.7724 156.554 52.2847 152.86Z" fill="#0D131A"/>
<path d="M37.2554 186.889C36.7992 186.512 36.524 185.969 36.4296 185.262C36.3195 184.444 36.4925 183.58 36.9487 182.668C37.9082 180.766 39.4025 179.288 41.4316 178.234C43.8067 177.008 46.3942 176.733 49.1941 177.409C49.7289 177.535 50.2322 178.164 50.7041 179.296C51.0502 180.145 51.3097 181.064 51.4827 182.055C51.7816 183.847 51.8996 185.419 51.8367 186.771C51.7737 188.579 51.3962 189.703 50.7041 190.144C49.5716 190.867 47.456 190.851 44.3573 190.096C41.29 189.342 38.9227 188.273 37.2554 186.889ZM42.1158 178.848C40.4327 179.697 39.1587 180.978 38.2935 182.692C37.8059 183.682 37.5621 184.562 37.5621 185.333C37.5621 185.789 37.6486 186.087 37.8216 186.229C39.3317 187.502 41.5024 188.414 44.3337 188.964C47.0391 189.499 48.8716 189.46 49.8311 188.847C50.2716 188.564 50.5468 187.746 50.6569 186.394C50.7513 185.058 50.6648 183.54 50.3974 181.843C50.2087 180.726 49.9648 179.83 49.666 179.154C49.4143 178.604 49.1862 178.305 48.9818 178.258C46.4021 177.645 44.1135 177.841 42.1158 178.848Z" fill="#0D131A"/>
<path d="M6.62991 182.243C6.99169 180.263 8.60396 179.005 11.4667 178.47C13.5116 178.093 16.5631 178.062 20.6213 178.376C24.4279 178.675 27.9356 179.61 31.1444 181.182C34.5105 182.833 36.1385 184.539 36.0284 186.3C36.0127 186.85 35.6509 187.439 34.9431 188.068C33.1027 189.719 29.595 191.268 24.42 192.714C19.0405 194.208 14.4239 194.836 10.5702 194.601C10.114 194.569 9.64211 194.412 9.1545 194.129C8.61969 193.83 8.23432 193.477 7.99838 193.068C7.16471 191.653 6.62991 189.955 6.39397 187.974C6.18948 186.103 6.26813 184.193 6.62991 182.243ZM11.7027 179.461C9.4219 179.807 8.13994 180.742 7.85681 182.267C7.52649 184.075 7.49503 185.899 7.76243 187.738C8.04557 189.593 8.58037 191.016 9.36685 192.007C9.83873 192.588 10.3814 192.903 10.9949 192.95C14.7699 193.17 19.1506 192.651 24.1369 191.393C29.0288 190.151 32.3241 188.768 34.0229 187.243C34.542 186.787 34.8094 186.402 34.8251 186.087C34.9037 184.735 33.4566 183.383 30.4837 182.031C27.5109 180.679 24.1841 179.862 20.5034 179.579C16.2564 179.264 13.3228 179.225 11.7027 179.461Z" fill="#0D131A"/>
<path d="M20.0081 130.079C21.7541 129.733 23.6731 129.545 25.7651 129.513L25.7415 130.527C23.3978 130.574 21.2035 130.881 19.1587 131.447L20.0081 130.079Z" fill="#0D131A"/>
<path d="M16.4924 131.046L17.4126 132.036C13.3386 133.577 10.1612 136.226 7.88046 139.984C6.15022 142.798 5.20644 145.573 5.04915 148.308C4.71883 153.512 5.30869 157.828 6.81872 161.255C8.81637 165.767 12.3319 168.526 17.3654 169.533C20.4484 170.146 23.5943 170.586 26.8031 170.853C31.0343 171.199 34.0701 171.073 35.9105 170.476C40.4721 168.998 44.3258 166.113 47.4717 161.821C50.4131 157.781 51.8052 153.882 51.6479 150.124C51.4277 145.078 49.8233 140.754 46.8346 137.154C43.4371 133.051 38.8126 130.724 32.9612 130.173L33.032 129.159C39.4339 129.725 44.4674 132.162 48.1323 136.47C51.3097 140.227 53.0164 144.771 53.2523 150.101C53.4253 154.062 51.931 158.229 48.7694 162.599C45.419 167.253 41.3608 170.35 36.5947 171.891C34.6915 172.504 31.4276 172.59 26.8031 172.15C23.4527 171.836 20.0944 171.341 16.7283 170.665C11.978 169.721 8.46246 167.442 6.18167 163.826C3.8537 160.115 2.88634 155.116 3.27958 148.827C3.46833 145.761 4.41997 142.735 6.13449 139.748C8.5411 135.566 11.9937 132.665 16.4924 131.046Z" fill="#0D131A"/>
<path d="M27.4638 69.0478C29.8075 69.0321 31.868 69.4487 33.6455 70.2977C35.4072 71.1624 36.7992 72.4044 37.8217 74.0237C39.1901 76.2404 39.8586 78.8188 39.8272 81.7587C39.7957 84.3528 39.3002 86.373 38.3407 87.8194L37.4442 87.3713C38.152 85.925 38.5059 84.0305 38.5059 81.688C38.5059 78.9053 37.9003 76.5549 36.6891 74.6368C35.7926 73.1904 34.5027 72.1057 32.8197 71.3825C31.1838 70.675 29.2648 70.3291 27.0627 70.3448C22.9887 70.3763 19.3237 71.2645 16.0677 73.0096C12.8117 74.7547 10.2163 77.2309 8.2816 80.4381C6.96032 82.6234 6.15025 84.9109 5.85139 87.3006C5.55253 89.6746 5.78847 91.9385 6.55922 94.0923C6.29181 94.3753 6.05587 94.7133 5.85139 95.1064C4.8447 92.6695 4.42 90.1698 4.57729 87.6072C4.73459 84.8873 5.52893 82.3326 6.96032 79.9429C8.9737 76.6099 11.8365 73.9687 15.5486 72.0192C19.2136 70.0854 23.1853 69.095 27.4638 69.0478Z" fill="#0D131A"/>
<path d="M6.27602 93.432C7.8647 90.4449 10.987 87.7644 15.643 85.3904C20.7551 82.7806 25.4661 81.8609 29.7759 82.6313C32.0567 83.04 34.078 83.9047 35.8397 85.2253C37.5857 86.5302 38.8755 88.126 39.7092 90.0126C40.3855 91.5533 40.6451 93.1962 40.4878 94.9413C40.3462 96.5921 39.8664 98.0856 39.0485 99.422L38.1755 98.8796C38.8834 97.7319 39.2609 96.3798 39.308 94.8234C39.3552 93.2669 39.0642 91.7655 38.4351 90.3191C37.68 88.5898 36.5396 87.1512 35.0139 86.0036C33.5038 84.8559 31.695 84.0619 29.5872 83.6217C25.7649 82.8514 21.4 83.7161 16.4924 86.2158C11.9622 88.5269 8.95004 91.0816 7.45574 93.8801C6.55915 95.578 5.95357 97.3546 5.63898 99.2097C5.2772 101.426 5.4109 103.415 6.04008 105.176C6.60634 106.748 7.54225 108.069 8.8478 109.138C8.64332 109.374 8.50175 109.688 8.4231 110.081C7.52652 109.389 6.81083 108.745 6.27602 108.147C5.59965 107.377 5.11204 106.567 4.81318 105.718C4.18399 103.958 4.0031 101.985 4.27051 99.7993C4.52218 97.5825 5.19068 95.4601 6.27602 93.432Z" fill="#0D131A"/>
<path d="M15.2889 130.48C14.7069 129.427 13.7317 127.194 12.3632 123.783L11.561 121.849C11.8914 122.226 12.3396 122.541 12.9059 122.792L13.1654 123.452C15.4148 129.049 17.0192 131.698 17.9787 131.4C18.6551 131.195 19.3393 130.378 20.0314 128.947C20.5347 127.894 20.9752 126.668 21.3527 125.268L22.438 125.292C21.9976 126.896 21.4942 128.318 20.928 129.56C20.0314 131.541 19.1269 132.665 18.2146 132.933C17.318 133.216 16.3428 132.398 15.2889 130.48Z" fill="#0D131A"/>
<path d="M42.2336 113.501C42.3752 112.762 42.5089 112.282 42.6347 112.062C44.192 114.122 45.0099 116.755 45.0885 119.962C45.1357 122.006 44.8919 124.121 44.3571 126.306C44.0897 127.391 43.7594 127.98 43.3662 128.075C42.4538 128.389 39.5911 126.526 34.7778 122.486L35.7452 121.872C36.7204 122.674 38.0103 123.61 39.6147 124.679C41.4865 125.952 42.6347 126.581 43.0594 126.565C43.201 126.44 43.3583 126.023 43.5313 125.315C43.7358 124.467 43.8695 123.46 43.9324 122.297L43.9796 121.047C43.9796 117.777 43.3976 115.261 42.2336 113.501Z" fill="#0D131A"/>
<path d="M33.7631 123.358L34.9664 122.816C34.9035 124.404 34.5417 126.424 33.8811 128.876C33.1575 131.612 32.4182 133.357 31.6632 134.112C31.3014 134.473 30.9239 134.623 30.5307 134.56C29.4454 134.355 28.1162 133.381 26.5433 131.636C24.9703 129.859 23.6333 127.831 22.5322 125.551L23.6412 125.811C24.6636 127.807 25.8983 129.529 27.3455 130.975C28.6667 132.28 29.7757 133.019 30.6723 133.192C30.7666 133.208 30.8925 133.137 31.0498 132.98C31.6475 132.367 32.2374 130.936 32.8193 128.688C33.3384 126.675 33.653 124.899 33.7631 123.358Z" fill="#0D131A"/>
<path d="M40.4642 100.577C41.9427 102.024 42.9022 103.502 43.3427 105.011C43.7988 106.599 43.8303 108.43 43.437 110.506C43.0281 112.597 42.2495 114.64 41.1012 116.637C39.8114 118.87 38.2306 120.74 36.3588 122.25C34.5027 123.759 32.5207 124.773 30.413 125.292C27.2356 126.078 24.0583 126.29 20.8809 125.929C17.6249 125.551 14.9037 124.624 12.7173 123.146C11.4746 122.313 10.4365 121.244 9.60282 119.939C8.76915 118.649 8.26581 117.345 8.09278 116.024C7.55798 112.267 8.03773 108.894 9.53203 105.907C11.0106 102.889 13.4172 100.452 16.7519 98.5966C19.6776 96.9772 22.7212 96.0261 25.8829 95.7431C29.1232 95.4758 32.214 95.9396 35.1554 97.1344C37.1688 97.952 38.9384 99.0996 40.4642 100.577ZM39.9687 116.378C41.0855 114.444 41.8641 112.487 42.3045 110.506C42.7607 108.462 42.7764 106.725 42.3517 105.294C41.9585 103.973 41.1012 102.7 39.7799 101.474C38.4586 100.247 36.8464 99.249 34.9431 98.4786C32.1118 97.331 29.1704 96.8593 26.1188 97.0637C23.0673 97.2681 20.1731 98.1328 17.4361 99.6578C14.2745 101.419 11.9858 103.714 10.5702 106.544C9.15453 109.374 8.6905 112.549 9.17812 116.071C9.50844 118.445 10.8297 120.418 13.142 121.99C15.2497 123.421 17.7193 124.341 20.5506 124.749C23.4133 125.158 26.3312 125.001 29.3041 124.278C31.3961 123.759 33.3623 122.847 35.2026 121.542C37.2003 120.112 38.789 118.39 39.9687 116.378Z" fill="#0D131A"/>
<path d="M112.545 89.4702C115.124 87.1591 118.435 85.8385 122.478 85.5083C126.709 85.1625 130.516 86.0586 133.898 88.1967C137.767 90.6336 140.362 94.3282 141.684 99.2805C142.832 103.541 142.635 107.401 141.094 110.859C139.757 113.831 137.712 116.032 134.959 117.463L134.487 116.566C136.752 115.387 138.475 113.603 139.655 111.213C141.275 107.99 141.495 104.186 140.315 99.7993C139.104 95.2715 136.815 91.8127 133.449 89.423C130.492 87.3163 127.134 86.3023 123.374 86.3809C119.788 86.4438 116.744 87.4421 114.243 89.3759C111.585 91.4354 110.24 94.053 110.209 97.2288C110.209 97.4489 109.902 97.8184 109.289 98.3372C108.722 94.8941 109.808 91.9385 112.545 89.4702Z" fill="#0D131A"/>
<path d="M134.299 110.435C134.944 112.62 135.203 114.727 135.077 116.755C134.967 118.689 134.511 120.363 133.709 121.778C132.985 123.052 132.042 124.097 130.878 124.915C129.572 125.826 128.07 126.385 126.371 126.589V125.528C129.438 124.506 131.546 122.957 132.694 120.882C134.142 118.351 134.236 114.986 132.978 110.789C131.814 106.795 129.666 103.36 126.536 100.483C122.856 97.0873 118.884 95.7274 114.621 96.4034C111.349 96.9222 108.935 98.4472 107.378 100.978C106.544 102.315 106.017 103.832 105.797 105.53C105.608 106.976 105.655 108.171 105.938 109.114L104.971 109.397C104.609 108.25 104.46 106.968 104.523 105.553C104.601 103.604 105.105 101.882 106.033 100.389C106.851 99.0682 108.03 97.9677 109.572 97.0873C111.019 96.2541 112.647 95.6959 114.456 95.413C119.018 94.6898 123.296 96.0968 127.291 99.6342C130.736 102.668 133.072 106.269 134.299 110.435Z" fill="#0D131A"/>
<path d="M100.63 114.986L101.031 116.283C99.7411 117.447 98.5142 119.349 97.3502 121.99C96.2492 124.506 95.9031 125.921 96.3121 126.235L99.3086 126.07L101.715 125.41L101.928 126.094L99.285 126.801C97.4604 127.226 96.1863 127.359 95.4627 127.202C95.1638 127.155 94.9672 126.958 94.8728 126.613C94.6526 125.701 95.3683 123.68 97.0199 120.552C98.5772 117.596 99.7805 115.741 100.63 114.986Z" fill="#0D131A"/>
<path d="M114.409 136.446L115.518 136.588L116.603 136.729C113.803 137.547 111.373 138.129 109.313 138.474C107.126 138.82 105.86 138.805 105.514 138.427C105.215 138.097 105.254 137.28 105.632 135.975C105.962 134.811 106.371 133.805 106.859 132.956L107.472 133.334C106.969 134.214 106.576 135.11 106.293 136.022C105.978 136.997 105.931 137.586 106.151 137.791L109.077 137.649C110.728 137.366 112.506 136.965 114.409 136.446Z" fill="#0D131A"/>
<path d="M101.243 125.881L101.691 126.542C100.748 127.941 100.008 129.246 99.4735 130.456C98.7499 132.092 98.6005 133.223 99.0252 133.852C99.2297 134.104 100.126 134.175 101.715 134.065C103.445 133.939 105.207 133.632 107 133.145C107.094 133.365 107.307 133.554 107.637 133.711C105.592 134.308 103.626 134.733 101.739 134.984C99.4892 135.267 98.1994 135.157 97.8691 134.654C96.9725 133.334 98.0972 130.409 101.243 125.881Z" fill="#0D131A"/>
<path d="M113.394 108.006C115.833 108.651 118.035 109.83 120.001 111.543C122.046 113.304 123.658 115.482 124.838 118.076C126.631 122.006 127.236 125.567 126.654 128.758C126.104 131.746 124.641 133.915 122.266 135.267C119.262 136.981 116.533 137.665 114.079 137.319C111.326 136.926 108.243 135.181 104.83 132.084C103.147 130.559 101.841 128.68 100.913 126.447C100.032 124.309 99.5918 122.053 99.5918 119.679V119.043C99.6547 114.373 101.11 111.072 103.957 109.138C106.505 107.393 109.651 107.015 113.394 108.006ZM119.364 112.322C117.492 110.686 115.424 109.578 113.159 108.996C110.689 108.368 108.196 108.808 105.679 110.317C102.628 112.141 100.968 115.041 100.701 119.019C100.591 120.795 100.834 122.572 101.432 124.349C102.25 126.801 103.674 128.947 105.703 130.787C109.069 133.837 112.05 135.495 114.645 135.762C116.548 135.967 118.884 135.346 121.652 133.899C123.965 132.705 125.325 130.708 125.734 127.91C126.143 125.111 125.538 121.975 123.918 118.5C122.754 116.032 121.236 113.972 119.364 112.322Z" fill="#0D131A"/>
<path d="M80.1266 38.0841L79.6547 40.3952C79.4817 41.2284 79.3401 41.6136 79.23 41.5507C78.9626 41.3935 78.9626 40.3873 79.23 38.5322C79.3401 37.8561 79.23 37.3373 78.8997 36.9757C78.6952 36.7399 78.3099 36.5119 77.7436 36.2918C76.2021 35.7259 73.6932 35.6865 70.217 36.1739C67.0239 36.6298 64.6487 37.2509 63.0915 38.0369C62.4938 38.3356 62.1399 38.43 62.0298 38.3199C61.9197 38.1941 62.1084 37.9505 62.596 37.5889C61.5107 36.9286 59.8512 36.394 57.6176 35.9853L53.8662 35.8202C53.0482 36.5434 52.6393 37.9662 52.6393 40.0886C52.6393 41.818 52.7965 43.4452 53.1111 44.9702C53.3628 46.2122 53.6774 47.2262 54.0549 48.0123C54.6054 47.6193 54.9122 47.4856 54.9751 47.6114C55.038 47.7372 54.9122 48.0437 54.5976 48.5311C54.1572 49.2229 53.6459 50.2841 53.0639 51.7147C52.2932 53.5856 51.8213 55.1499 51.6483 56.4076C51.491 57.461 51.4202 58.3021 51.4359 58.931L51.5775 60.8647L51.3652 61.525C51.2551 61.808 51.1607 61.9259 51.082 61.8788C50.9562 61.5801 50.8225 61.0612 50.6809 60.3223C50.5079 59.5048 50.4214 58.8681 50.4214 58.4121C50.4214 56.667 50.6888 54.8748 51.2236 53.0354C51.7899 51.0702 52.5213 49.5609 53.4179 48.5075C52.9932 47.4227 52.6235 46.3694 52.3089 45.3475C51.7112 43.3823 51.4123 41.6529 51.4123 40.1594C51.4123 37.6596 51.9314 35.946 52.9696 35.0184C53.5516 34.5153 54.9279 34.4603 57.0986 34.8533C59.4108 35.2621 61.4006 36.001 63.0679 37.0701C65.3015 36.0324 67.9126 35.3407 70.9012 34.9948C73.9528 34.6332 76.3358 34.7747 78.0503 35.4193C78.711 35.6551 79.3008 36.1346 79.8199 36.8578C81.0153 35.5058 83.5163 35.4664 87.3229 36.7399C90.3272 37.7461 92.5923 38.8309 94.118 39.9943L100.488 40.1829C102.219 40.4816 103.391 40.9218 104.004 41.5035C104.256 41.7551 104.382 42.2267 104.382 42.9185C104.382 44.0819 104.067 45.5833 103.438 47.4227C102.84 49.1993 102.124 50.8107 101.291 52.2571C102.486 55.37 102.856 58.5065 102.4 61.6665C102.069 63.8833 101.645 65.251 101.126 65.7699C100.921 65.99 100.662 65.9585 100.347 65.6755C100.032 65.3925 99.9851 65.0074 100.205 64.52C100.599 63.7025 100.897 62.2797 101.102 60.2516C101.354 57.6261 101.196 55.26 100.63 53.1533C100.221 53.3419 100.009 53.3026 99.993 53.0354C99.9773 52.7838 100.095 52.5244 100.347 52.2571C100.63 51.927 101.244 50.5356 102.187 48.083C103.194 45.4418 103.697 43.7046 103.697 42.8713C103.697 42.4468 103.627 42.1639 103.485 42.0224C103.06 41.5979 101.841 41.2834 99.8279 41.0791C97.7987 40.859 95.8719 40.8511 94.0472 41.0555C93.4967 41.1184 93.0484 41.0555 92.7024 40.8668C92.3249 40.6624 92.4979 40.4502 93.2215 40.2301C93.0327 40.0257 92.3091 39.6641 91.0508 39.1453C89.6351 38.5479 88.2116 38.0527 86.7802 37.6596C82.7534 36.5434 80.5356 36.6849 80.1266 38.0841Z" fill="#0D131A"/>
<path d="M60.1655 39.7113L56.2724 44.8994C56.0365 43.9404 55.8241 42.9499 55.6354 41.928C55.2579 39.8999 55.2186 38.7601 55.5174 38.5086C56.0522 38.0526 57.6016 38.4535 60.1655 39.7113Z" fill="#0D131A"/>
<path d="M55.6828 38.6972C55.6042 38.7758 55.5648 38.9723 55.5648 39.2868C55.5648 40.2301 55.8401 41.9044 56.3906 44.3098L59.7882 39.8292C57.476 38.6972 56.1075 38.3199 55.6828 38.6972ZM60.2837 39.499C60.6297 39.7191 60.6533 39.9156 60.3545 40.0886C60.1657 40.2144 59.568 40.9375 58.5613 42.2582L56.6738 44.7815C56.4378 45.1116 56.2648 45.2374 56.1547 45.1588L56.0367 44.9466C55.03 41.0004 54.802 38.7915 55.3525 38.3199C55.9817 37.7696 57.6254 38.1627 60.2837 39.499Z" fill="#0D131A"/>
<path d="M100.748 43.1779C100.748 43.6967 100.323 45.2925 99.4738 47.9651L95.6987 43.1779L98.5537 42.8006C100.001 42.7063 100.732 42.832 100.748 43.1779Z" fill="#0D131A"/>
<path d="M96.0285 42.8006C98.6553 42.3761 100.244 42.3682 100.795 42.777L101.007 43.1779C101.007 43.5709 100.834 44.4199 100.488 45.7248C100.142 47.014 99.8822 47.7843 99.7092 48.0359C99.5676 48.256 99.4339 48.3424 99.3081 48.2953L98.9306 47.9415C97.0745 45.316 96.0128 43.8775 95.7454 43.626C95.2578 43.17 95.3521 42.8949 96.0285 42.8006ZM100.488 43.2015L98.6946 43.0364L96.1465 43.343L99.3553 47.4227C100.11 45.0173 100.488 43.6102 100.488 43.2015Z" fill="#0D131A"/>
<path d="M74.4163 45.8427C74.4635 45.4182 74.5422 45.2846 74.6523 45.4418C74.7624 45.599 74.8096 45.937 74.7938 46.4558C74.7624 47.2734 74.5736 48.1852 74.2276 49.1914C73.8815 50.2605 73.5198 50.9051 73.1423 51.1252C72.7805 51.3453 72.5681 51.3767 72.5052 51.2195C72.4423 51.078 72.5288 50.8422 72.7648 50.512C72.985 50.1819 73.3074 49.4272 73.7321 48.2481C74.1411 47.069 74.3692 46.2672 74.4163 45.8427Z" fill="#0D131A"/>
<path d="M81.1882 47.4699C81.141 46.6838 81.1961 46.2278 81.3534 46.1021C81.5107 45.9763 81.6365 46.33 81.7309 47.1633C81.9196 48.8927 82.2421 50.2604 82.6982 51.2666C82.9657 51.8483 83.0758 52.2256 83.0286 52.3986C82.9656 52.5715 82.7218 52.4693 82.2971 52.092C81.9039 51.7461 81.6208 51.0701 81.4477 50.0639L81.1882 47.4699Z" fill="#0D131A"/>
<path d="M74.2749 51.7147C75.2658 51.3217 76.1388 51.1488 76.8938 51.1959C78.8128 51.3217 80.3465 51.9427 81.4947 53.0589C81.8722 53.4205 82.0217 53.6642 81.943 53.79C81.8801 53.9001 81.6914 53.8293 81.3768 53.5778C81.0779 53.3262 80.4959 53.0589 79.6308 52.776C78.687 52.4615 77.8298 52.2729 77.059 52.21L74.8647 52.3279C74.2041 52.4379 73.6457 52.5873 73.1895 52.776L72.4817 52.9646C72.3873 52.9332 72.4424 52.8231 72.6469 52.6345C72.9143 52.3672 73.4569 52.0606 74.2749 51.7147Z" fill="#0D131A"/>
<path d="M67.173 56.4548C66.6854 56.2347 66.4259 55.9596 66.3944 55.6294C66.3629 55.2835 66.6539 55.1106 67.2674 55.1106C67.8966 55.1106 68.6123 55.5272 69.4145 56.3605C70.138 57.0994 70.6178 57.799 70.8537 58.4593C71.0267 58.9781 71.0031 59.2454 70.7829 59.2611C70.5942 59.2611 70.3976 59.1039 70.1931 58.7894C69.6111 57.8776 68.6044 57.0994 67.173 56.4548Z" fill="#0D131A"/>
<path d="M77.2712 58.1527C79.1273 58.4043 80.5901 59.0646 81.6597 60.1337C82.053 60.5267 82.2417 60.8254 82.226 61.0298C82.2103 61.2185 81.9743 61.1477 81.5182 60.8175C80.1497 59.7642 78.5138 59.1746 76.6106 59.0489C74.8331 58.9231 73.1894 59.1982 71.6793 59.8742L70.9243 59.9214C70.8771 59.7485 71.0738 59.5284 71.5142 59.2611C73.2916 58.2392 75.2106 57.8697 77.2712 58.1527Z" fill="#0D131A"/>
<path d="M82.4623 59.7799C82.9028 59.1353 83.587 58.5615 84.515 58.0584C85.5375 57.5082 86.3947 57.3116 87.0868 57.4688C87.2756 57.516 87.4093 57.7283 87.4879 58.1056C87.5508 58.4986 87.4407 58.6951 87.1576 58.6951C86.6543 58.6951 86.0172 58.813 85.2465 59.0489C84.224 59.3476 83.469 59.7642 82.9814 60.2987C82.6668 60.6446 82.4545 60.7232 82.3444 60.5346C82.2185 60.3459 82.2579 60.0944 82.4623 59.7799Z" fill="#0D131A"/>
<path d="M69.4617 52.092L69.7448 51.4789L67.0315 49.0735C65.2226 47.6271 63.5552 46.6052 62.0295 46.0078C61.589 46.5266 61.1801 47.1161 60.8026 47.7765C60.1891 48.877 59.8037 50.0011 59.6464 51.1487L64.5069 51.4082L67.7865 51.8798L69.4617 52.092ZM60.1183 47.4935C60.2913 47.179 60.7554 46.6288 61.5104 45.8427C60.9756 45.5754 60.661 45.3082 60.5666 45.0409C60.4722 44.7422 60.9205 44.7658 61.9115 45.1116C63.5159 45.6776 65.1911 46.6366 66.9371 47.9887C68.4314 49.1521 69.4853 50.1819 70.0987 51.078C70.429 51.5811 70.5391 51.8405 70.429 51.8562L70.1459 51.7383L69.8864 52.1864L70.0987 52.4222C70.1144 52.5794 69.8234 52.6344 69.2257 52.5873L64.5305 52.1392L59.3161 51.8798C58.4195 51.9427 57.9634 51.8798 57.9477 51.6911C57.9162 51.5025 58.2858 51.3217 59.0566 51.1487C59.1981 49.6395 59.5521 48.421 60.1183 47.4935Z" fill="#0D131A"/>
<path d="M93.1739 47.9887C94.3222 47.8 94.8963 47.8393 94.8963 48.1066C94.8806 48.3581 94.5031 48.5389 93.7638 48.649C94.2671 48.9791 94.739 49.5923 95.1794 50.4884C95.73 51.5575 95.9817 52.6266 95.9345 53.6956C96.5007 53.79 96.7917 53.9315 96.8075 54.1201C96.8232 54.2931 96.5007 54.3795 95.8401 54.3795L90.1303 54.4503L84.6092 54.6389C84.153 54.7018 83.9643 54.6468 84.0429 54.4739L84.3025 54.2144C84.1452 54.0101 84.0429 53.8135 83.9957 53.6249L83.571 53.6485C83.4767 53.5699 83.571 53.3812 83.8542 53.0825C84.7036 52.2021 85.9698 51.2588 87.6529 50.2526C89.7292 49.0106 91.5695 48.2559 93.1739 47.9887ZM95.3446 53.7192C95.2345 52.8545 94.9278 51.9112 94.4244 50.8893C93.9997 50.0089 93.5514 49.3172 93.0795 48.8141C91.4909 49.0499 89.6898 49.7809 87.6764 51.0072C86.3866 51.7933 85.3013 52.5794 84.4204 53.3655L84.7272 54.0494L90.4842 53.79L95.3446 53.7192Z" fill="#0D131A"/>
<path d="M64.5776 47.0218L65.0023 47.3519C64.1844 47.9179 63.7754 48.704 63.7754 49.7102C63.7754 50.4648 64.0192 51.1015 64.5068 51.6204L63.7518 51.5024C63.4215 50.9365 63.2563 50.3391 63.2563 49.7102C63.2563 48.594 63.6968 47.6978 64.5776 47.0218Z" fill="#0D131A"/>
<path d="M69.1549 50.6535L69.556 51.078C69.3515 51.5339 69.0762 51.9112 68.7301 52.2099L68.1167 52.0449C68.62 51.699 68.9661 51.2352 69.1549 50.6535Z" fill="#0D131A"/>
<path d="M85.5297 52.1156C85.5297 53.0432 85.9072 53.79 86.6622 54.3559L85.9544 54.4031C85.3881 53.8214 85.0814 53.1061 85.0342 52.2571L85.5769 51.7383L85.5297 52.1156Z" fill="#0D131A"/>
<path d="M91.9941 52.1156C91.9941 52.9174 91.7267 53.6328 91.1919 54.2616H90.4605C91.0267 53.79 91.3099 53.0668 91.3099 52.092C91.3099 50.8972 90.8301 50.0561 89.8706 49.5687L90.4841 49.3329C90.9402 49.6473 91.302 50.0404 91.5694 50.512C91.8525 51.0151 91.9941 51.5496 91.9941 52.1156Z" fill="#0D131A"/>
<path d="M88.5494 51.9741C88.5494 52.4301 88.4786 52.8074 88.3371 53.1061C88.1955 53.4205 88.0146 53.5777 87.7944 53.5777C87.5899 53.5777 87.4169 53.4205 87.2753 53.1061C87.1338 52.7917 87.063 52.4143 87.063 51.9741C87.063 51.5339 87.1338 51.1645 87.2753 50.8658C87.4169 50.5513 87.5899 50.3941 87.7944 50.3941C87.9989 50.3941 88.1798 50.5513 88.3371 50.8658C88.4786 51.1645 88.5494 51.5339 88.5494 51.9741Z" fill="#0D131A"/>
<path d="M68.164 50.1347C68.164 50.5278 68.0853 50.8736 67.9281 51.1723C67.7865 51.4553 67.6056 51.5968 67.3854 51.5968C67.1809 51.5968 67 51.4553 66.8427 51.1723C66.7012 50.8894 66.6304 50.5435 66.6304 50.1347C66.6304 49.726 66.7012 49.3801 66.8427 49.0971C67 48.8141 67.1809 48.6726 67.3854 48.6726C67.6056 48.6726 67.7865 48.8141 67.9281 49.0971C68.0853 49.3801 68.164 49.726 68.164 50.1347Z" fill="#0D131A"/>
<path d="M90.6256 51.0073C90.6256 51.5103 90.3897 51.7619 89.9178 51.7619C89.7133 51.7619 89.5481 51.699 89.4223 51.5732C89.2807 51.4317 89.21 51.2431 89.21 51.0073C89.21 50.7714 89.2807 50.5828 89.4223 50.4413C89.5481 50.2841 89.7054 50.2054 89.8942 50.2054C90.0987 50.2054 90.2717 50.2841 90.4133 50.4413C90.5548 50.5828 90.6256 50.7714 90.6256 51.0073Z" fill="white"/>
<path d="M66.2999 49.0499C66.2999 49.2543 66.2212 49.4351 66.064 49.5923C65.9224 49.7338 65.7415 49.8046 65.5213 49.8046C65.3011 49.8046 65.1202 49.7338 64.9786 49.5923C64.8213 49.4351 64.7427 49.2543 64.7427 49.0499C64.7427 48.8455 64.8213 48.6726 64.9786 48.5311C65.1359 48.3739 65.3168 48.2953 65.5213 48.2953C65.7258 48.2953 65.9067 48.3739 66.064 48.5311C66.2212 48.6726 66.2999 48.8455 66.2999 49.0499Z" fill="white"/>
<path d="M94.6367 61.9731C94.5266 61.4543 94.5659 61.2106 94.7547 61.242C94.9434 61.2892 95.1872 61.6272 95.4861 62.2561L95.8164 63.6239L95.9344 64.8737C95.8715 66.1472 95.4153 67.0276 94.5659 67.515C93.8424 67.908 92.7177 68.0809 91.1919 68.0338C90.2639 68.0023 89.2257 67.7822 88.0775 67.3735L84.6563 66.0529C83.3979 65.6284 81.9902 65.2196 80.4329 64.8266L76.4927 64.0012L71.3019 63.6474L65.7101 63.7182L61.2508 63.9304C59.0486 63.9462 57.5858 63.3566 56.8622 62.1618C56.6263 61.7373 56.5083 61.2578 56.5083 60.7232C56.5083 60.2516 56.6105 59.7485 56.815 59.214C57.0824 58.5379 57.4442 58.027 57.9004 57.6811C58.3565 57.3195 58.6239 57.1701 58.7026 57.233C58.7498 57.2959 58.6554 57.4924 58.4194 57.8226C58.1678 58.1842 57.9633 58.758 57.806 59.5441C57.633 60.4402 57.6644 61.0848 57.9004 61.4779C58.5453 62.5627 59.7486 63.0972 61.5103 63.0815L65.6865 63.0107L71.6087 62.8928L77.1297 63.2701C79.0959 63.5531 81.5655 64.2056 84.5383 65.2275L88.0775 66.4538C89.2887 66.8311 90.1852 67.0197 90.7672 67.0197C91.5694 67.0355 92.3166 66.9333 93.0087 66.7132C93.7952 66.4616 94.3614 66.0922 94.7075 65.6048C95.1007 65.0388 95.0771 63.8282 94.6367 61.9731Z" fill="#0D131A"/>
<path d="M95.2738 62.2325C99.5837 62.3111 101.754 64.1741 101.786 67.8215C101.786 69.1736 101.487 70.6357 100.889 72.2079C100.37 73.5599 99.7724 74.6447 99.0961 75.4622C96.6737 78.4179 92.6469 80.4303 87.0158 81.4993C82.7531 82.3011 78.4353 82.4819 74.0625 82.0417C65.8202 81.2242 59.4734 78.8031 55.0219 74.7783C50.7749 70.958 49.3199 66.7603 50.657 62.1853C51.0974 60.6603 51.876 59.5126 52.9928 58.7423C54.2983 57.8304 55.9735 57.4767 58.0184 57.6811C58.1757 57.9641 58.0026 58.1527 57.4993 58.247C56.351 58.1684 55.2657 58.4986 54.2433 59.2375C53.2209 59.9764 52.4423 61.0062 51.9075 62.3268C51.2468 63.9619 51.2311 65.762 51.8603 67.7272C52.5209 69.7553 53.7714 71.6733 55.6118 73.4813C60.0003 77.7733 66.2685 80.3202 74.4164 81.122L77.4837 81.2871L84.0429 80.9805C90.6336 80.2102 95.3052 78.1349 98.0579 74.7548C98.9702 73.6385 99.6387 72.2472 100.063 70.5807C100.457 69.0242 100.551 67.6486 100.347 66.4537C100.189 65.4633 99.678 64.6536 98.8129 64.0247C97.9635 63.4116 96.8939 63.05 95.6041 62.94L95.4389 62.6334L95.2738 62.2325Z" fill="#0D131A"/>
</svg>
