<svg width="209" height="265" viewBox="0 0 209 265" fill="none" xmlns="http://www.w3.org/2000/svg">
<g clip-path="url(#clip0_2621_785)">
<path d="M63.4988 54.5766C52.6502 61.2657 43.6346 69.5525 36.4519 79.437C28.6085 90.2375 23.7491 101.975 21.8735 114.651C51.9042 115.545 81.6792 115.322 111.198 113.979C170.216 111.274 198.403 104.329 195.76 93.1453C192.669 80.1293 179.988 68.04 157.715 56.8773C146.589 51.296 135.773 47.0142 125.265 44.0318C116.655 40.7724 106.755 40.1227 95.5649 42.0826C84.5459 43.9998 73.8571 48.1645 63.4988 54.5766Z" fill="#6F4E25"/>
<path d="M102.183 41.0919L94.127 41.9547C100.905 44.3832 107.288 47.9834 113.277 52.7552C117.774 56.3554 122.431 60.9781 127.248 66.6233C129.401 64.1735 132.044 61.4361 135.177 58.4111L143.585 50.4864C130.498 45.1181 119.852 42.0186 111.647 41.1878C108.535 40.8895 105.38 40.8576 102.183 41.0919Z" fill="#4A311C"/>
<path d="M34.0542 82.9199C27.6175 92.8044 23.5572 103.381 21.8735 114.65C28.843 114.863 37.5922 115.002 48.1211 115.066C42.2172 106.012 37.5283 95.2969 34.0542 82.9199Z" fill="#4A311C"/>
<path d="M126.224 40.0376C124.412 45.2355 123.4 48.9102 123.187 51.0618L136.519 87.3618L178.336 83.0799C179.273 82.2065 181.693 78.4998 185.593 71.9598C189.706 65.0577 191.912 60.7226 192.211 58.9545C192.808 55.6526 183.344 49.1765 163.821 39.5263C157.278 36.2883 150.564 33.8278 143.68 32.1449C138.948 30.9946 135.208 30.3874 132.458 30.3235C130.583 30.2809 128.505 33.519 126.224 40.0376Z" fill="#6F4E25"/>
<path d="M126.225 40.0376C124.413 45.2355 123.401 48.9102 123.188 51.0618L132.459 76.2737C136.061 71.161 142.519 63.4281 151.833 53.0749C159.911 44.0851 163.907 39.5689 163.822 39.5263C157.279 36.2883 150.565 33.8278 143.681 32.1449C138.949 30.9946 135.209 30.3874 132.459 30.3235C130.583 30.2809 128.505 33.519 126.225 40.0376Z" fill="#4A311C"/>
<path d="M35.3644 62.4374C28.949 67.6779 23.7166 72.6308 19.667 77.2961C15.3617 82.2383 13.5607 85.5403 14.264 87.2019C14.9034 88.7144 18.2283 92.1655 24.2387 97.5551C29.7589 102.519 33.1371 105.352 34.3733 106.055L79.3555 78.4145L70.6915 57.0371C70.1587 55.482 69.0717 53.4476 67.4306 50.9339C65.2992 47.6533 63.6048 46.1727 62.3473 46.4922C60.1733 47.0461 56.8378 48.5373 52.3406 50.9658C46.3941 54.2039 40.7354 58.0277 35.3644 62.4374Z" fill="#6F4E25"/>
<path d="M19.1876 77.8713C15.2233 82.5153 13.5822 85.6255 14.2642 87.2019C14.5839 87.9475 16.0332 89.6304 18.6122 92.2507L25.6776 99.0889L32.9348 97.5231C36.3237 96.8627 39.5847 96.5325 42.7178 96.5325C40.352 92.8472 38.1673 86.6054 36.1639 77.8074C34.5227 70.5218 33.7448 65.8246 33.83 63.7156C27.777 68.8069 22.8962 73.5255 19.1876 77.8713Z" fill="#4A311C"/>
<path d="M134.058 41.7631C132.779 44.0638 131.788 46.4391 131.085 48.8889L130.094 51.7008C129.348 54.0015 128.804 56.2383 128.463 58.4112C127.419 65.3772 128.602 70.4154 132.012 73.5256C135.443 76.6358 142.796 78.8939 154.071 80.2999C159.719 81.0242 165.026 81.4289 169.992 81.5141C172.017 79.2773 174.703 75.5067 178.049 70.2023C181.715 64.408 183.452 60.861 183.26 59.5616C183.068 58.113 176.333 54.2359 163.055 47.9303C149.755 41.6246 141.294 38.3014 137.67 37.9605C136.711 37.854 135.507 39.1215 134.058 41.7631Z" fill="#0D131A"/>
<path d="M60.3024 55.1838C58.3203 55.9081 51.6491 60.8503 40.289 70.0105C28.6732 79.3625 22.9185 84.6669 23.0251 85.9237C23.1317 87.1593 25.5721 90.1417 30.3463 94.8709C34.7582 99.238 38.1257 102.22 40.4489 103.818L71.1084 74.1326C69.5312 69.6803 67.9753 65.8565 66.4407 62.6611C63.8192 57.165 61.7731 54.6725 60.3024 55.1838Z" fill="#0D131A"/>
<path d="M58.6705 68.317C52.9798 67.9974 47.5555 70.3301 42.3976 75.3149C40.4155 77.2322 38.753 79.3092 37.4102 81.546C36.1741 83.6124 35.492 85.3272 35.3642 86.6906C35.0658 89.7795 35.6306 92.4637 37.0586 94.7431C38.8276 97.5977 41.7795 99.4084 45.9144 100.175L65.5761 90.5251L69.2207 77.8713C68.7731 75.6984 67.9632 73.8557 66.791 72.3432C64.8727 69.8721 62.1659 68.53 58.6705 68.317Z" fill="#DCDBD6"/>
<path d="M35.3654 86.6906C35.067 89.7795 35.6318 92.4637 37.0598 94.7431C38.8288 97.5976 41.7808 99.4084 45.9156 100.175L52.5654 96.916L46.7468 71.9917L41.184 77.9352C37.4541 82.1957 35.5146 85.1142 35.3654 86.6906Z" fill="#B4B4B0"/>
<path d="M58.7036 91.5796C62.199 89.0233 64.2345 86.0089 64.8099 82.5366C65.3214 79.256 64.373 76.5825 61.9646 74.5161C60.2808 73.0675 58.5331 72.226 56.7214 71.9917L40.2887 86.4669C39.8198 89.2363 40.6723 91.5051 42.8463 93.2732C44.8498 94.8709 47.1836 95.5419 49.8478 95.2863C52.7678 95.0094 55.7197 93.7738 58.7036 91.5796Z" fill="#DCDBD6"/>
<path d="M40.2885 86.467C39.8196 89.2364 40.6721 91.5052 42.8461 93.2733C44.8496 94.871 47.1834 95.542 49.8476 95.2864L52.2773 94.7751L51.1584 84.2942L50.519 78.0311L40.2885 86.467Z" fill="#B4B4B0"/>
<path d="M1.70046 53.5541C2.06279 56.4939 2.97928 59.2846 4.44991 61.9261C5.81398 64.3972 7.45511 66.3677 9.37332 67.8376C12.6343 70.3301 17.5364 73.7172 24.0796 77.9991C30.1114 81.9401 34.3634 84.5923 36.8358 85.9556C39.0311 87.1912 41.5461 87.6918 44.3808 87.4575C47.1941 87.2445 50.0715 86.3391 53.0127 84.7414C55.7622 83.2502 57.6697 80.8643 58.7354 77.5837C59.6732 74.6652 59.7372 71.981 58.9272 69.5312C58.1173 67.0814 55.8794 61.777 52.2135 53.618C48.4197 45.1182 45.9899 40.1333 44.9243 38.6634C43.2618 36.3201 40.9919 34.2964 38.1146 32.5921C35.1946 30.8879 32.0616 29.7376 28.7153 29.1411C20.8933 27.7564 14.3607 29.5352 9.11756 34.4774C3.29897 39.9523 0.826603 46.3111 1.70046 53.5541Z" fill="#DCDBD6"/>
<path d="M29.8016 72.4071C24.0896 73.8131 18.6014 73.2486 13.337 70.7136C17.0881 73.3764 21.5213 76.3588 26.6366 79.6608L36.8351 85.9557C39.0304 87.1913 41.5454 87.6919 44.3801 87.4576C47.1935 87.2445 50.0708 86.3392 53.0121 84.7415C53.14 84.6776 51.0406 82.1319 46.7139 77.1044L39.7764 69.052L39.0091 68.2851C38.6894 68.1785 38.2311 68.3916 37.6344 68.9241C36.0785 70.3301 33.4676 71.4911 29.8016 72.4071Z" fill="#B4B4B0"/>
<path d="M156.725 51.6688C150.267 48.8355 143.627 48.6651 136.807 51.1575L133.003 69.1158L161.296 82.6643C165.303 80.8749 167.85 78.2866 168.937 74.8995C169.705 72.4497 169.705 69.5205 168.937 66.1121C167.445 59.423 163.374 54.6086 156.725 51.6688Z" fill="#DCDBD6"/>
<path d="M153.207 50.4225C147.687 48.9313 142.22 49.1763 136.806 51.1574L133.002 69.1157C137.541 68.4127 142.316 67.4647 147.324 66.2718C157.342 63.9072 163.554 61.5426 165.963 59.1779C163 54.8535 158.748 51.935 153.207 50.4225Z" fill="#B4B4B0"/>
<path d="M140.131 58.2196C138.661 60.8611 138.597 63.8329 139.94 67.1348C141.368 70.6071 143.797 73.1315 147.229 74.7079C150.106 76.0074 153.058 76.4548 156.085 76.05C158.898 75.6879 161.36 74.1541 163.47 71.4486C165.729 68.5514 166.283 65.7182 165.132 62.9488L144.096 54.449C142.519 55.0455 141.197 56.3023 140.131 58.2196Z" fill="#DCDBD6"/>
<path d="M144.097 54.449C142.52 55.0455 141.198 56.3023 140.132 58.2196C138.662 60.8611 138.598 63.8329 139.941 67.1348C141.369 70.6284 143.798 73.1422 147.23 74.676L151.898 68.5408L154.104 65.8247L144.097 54.449Z" fill="#B4B4B0"/>
<path d="M144.032 62.3734C145.801 65.2493 148.262 67.124 151.417 67.9974C154.912 68.956 158.109 69.2542 161.008 68.8921C164.013 68.4873 166.485 67.4009 168.425 65.6328C171.025 63.2681 174.403 59.9662 178.56 55.727C183.675 50.5291 187.565 46.3111 190.229 43.0731C191.87 41.0706 193.149 38.5143 194.065 35.4041C195.046 32.0596 195.419 28.6724 195.184 25.2427C194.609 16.7428 190.666 10.3627 183.355 6.1021C176.556 2.11848 169.555 1.44744 162.351 4.08899C155.488 6.60272 150.362 11.3213 146.973 18.2447C146.056 20.1193 144.916 25.6581 143.552 34.8609C142.167 44.1489 141.538 50.6782 141.666 54.4488C141.772 57.346 142.561 59.9875 144.032 62.3734Z" fill="#DCDBD6"/>
<path d="M142.721 40.8044C141.933 47.1952 141.581 51.7434 141.666 54.4488C141.773 57.346 142.562 59.9876 144.032 62.3735C145.801 65.2493 148.263 67.124 151.417 67.9974L152.728 68.5726C153.048 68.7004 153.282 68.6365 153.431 68.3809C158.44 59.4337 161.349 54.0654 162.159 52.2759C162.735 51.0191 163.023 50.2948 163.023 50.1031C163.044 49.7196 162.671 49.4214 161.904 49.2083C156.597 47.5893 152.376 44.6069 149.243 40.2612C145.94 35.6385 144.618 30.4512 145.279 24.6995C144.341 29.4287 143.489 34.797 142.721 40.8044Z" fill="#B4B4B0"/>
<path d="M93.2312 225.5C91.7605 225.223 90.1407 226.32 88.3717 228.791C86.6027 231.198 85.6222 233.616 85.4304 236.045C86.3895 237.259 89.6612 237.451 95.2453 236.62C100.595 235.789 103.643 234.915 104.389 233.999C104.986 233.233 103.781 231.72 100.776 229.462C97.8136 227.204 95.2986 225.883 93.2312 225.5Z" fill="#DBDCDC"/>
<path d="M83.607 61.5427C79.8772 64.1843 75.4546 68.4981 70.3394 74.4842C65.8635 79.7034 62.0591 83.8042 58.926 86.7866C54.0878 91.4093 49.4948 94.8071 45.1468 96.9799C33.4244 102.838 25.2933 108.494 20.7535 113.948C15.0628 120.807 14.1037 128.157 17.8762 135.996L194.991 133.248C196.292 132.609 197.762 131.224 199.403 129.094C201.13 126.836 202.622 124.279 203.879 121.425C207.055 114.118 207.588 107.695 205.478 102.157C203.666 97.406 200.032 93.0709 194.576 89.1512C188.459 84.7841 181.628 82.2278 174.083 81.4822L166.986 80.907C164.407 80.6727 162.222 80.3105 160.432 79.8205C155.7 78.5211 150.968 75.56 146.237 70.9373C139.758 64.589 133.246 60.0302 126.703 57.2609C120.053 54.4276 112.988 53.2666 105.507 53.7779C97.3649 54.3531 90.065 56.9413 83.607 61.5427Z" fill="#EEEEEF"/>
<path d="M205.478 102.156L204.966 100.974C204.114 112.201 199.435 120.253 190.931 125.131C187.223 127.262 182.448 129.051 176.609 130.5C172.218 131.586 166.133 132.694 158.354 133.823L194.991 133.248C196.292 132.609 197.762 131.224 199.403 129.094C201.13 126.836 202.622 124.279 203.879 121.425C207.055 114.118 207.588 107.695 205.478 102.156Z" fill="#C8C9CA"/>
<path d="M105.509 53.7778C97.3668 54.353 90.067 56.9413 83.609 61.5427C79.8791 64.1842 75.4565 68.498 70.3413 74.4841C67.8263 77.4239 65.2367 80.2891 62.5725 83.0798C58.7574 87.106 55.5924 90.1204 53.0774 92.1228C60.324 94.2105 67.2189 99.7066 73.7621 108.611C79.0692 115.812 83.7155 124.578 87.7012 134.909L103.814 134.654C104.326 119.784 109.409 106.183 119.064 93.8483C123.369 88.3522 128.122 83.8467 133.323 80.3317C138.545 76.7742 143.681 74.58 148.732 73.7492C143.17 67.8483 136.221 62.9486 127.888 59.0502C119.405 55.0879 111.945 53.3304 105.509 53.7778Z" fill="#C8C9CA"/>
<path d="M33.2539 103.594C25.7089 108.366 20.6044 113.181 17.9402 118.038C14.8497 123.662 14.8284 129.648 17.8762 135.996L35.2041 129.669C32.9449 127.816 31.1652 125.345 29.8651 122.256C27.2861 116.057 28.4157 109.836 33.2539 103.594Z" fill="#C8C9CA"/>
<path d="M79.1638 118.102C87.5613 122.405 97.4081 124.098 108.704 123.182C120 122.288 129.442 119.05 137.03 113.468C144.618 107.887 148.134 101.592 147.58 94.5833C147.026 87.596 142.55 81.9401 134.153 77.6157C125.776 73.3125 115.94 71.6083 104.644 72.503C93.3479 73.419 83.906 76.6677 76.3184 82.249C68.7308 87.8303 65.2141 94.1253 65.7682 101.134C66.3224 108.143 70.7875 113.798 79.1638 118.102Z" fill="#0D131A"/>
<path d="M95.7571 221.569C93.7323 219.375 90.6205 217.958 86.4218 217.319C82.223 216.659 73.7402 217.958 60.9734 221.218C54.6007 222.858 48.6436 224.552 43.1021 226.298C42.3348 228.727 43.2086 231.507 45.7236 234.639C48.0894 237.6 51.1905 240.028 55.027 241.924C60.5045 244.63 66.5895 245.833 73.282 245.535C80.2515 245.237 86.4537 243.341 91.8887 239.847C94.7234 238.015 96.6203 235.214 97.5794 231.443C98.368 228.269 98.3467 226.011 97.5154 224.669C97.3449 223.71 96.7588 222.677 95.7571 221.569Z" fill="#3396CD"/>
<path d="M95.7558 221.569C93.731 219.375 90.6193 217.959 86.4205 217.319C85.3761 217.149 83.8842 217.117 81.9447 217.224C78.9394 219.588 76.4245 222.624 74.3997 226.33C80.3248 224.967 85.1843 225.042 88.9781 226.554C92.2178 227.875 94.8074 230.335 96.7469 233.936C97.5142 232.125 97.9511 230.25 98.0577 228.312C98.1429 226.586 97.9617 225.372 97.5142 224.669C97.3437 223.71 96.7575 222.677 95.7558 221.569Z" fill="#2880AE"/>
<path d="M64.6175 244.8C69.1359 245.588 73.2495 245.705 76.958 245.151C70.7771 240.955 69.8393 234.851 74.1446 226.842L58.8948 226.171C53.0549 225.979 47.9716 225.968 43.6449 226.139L43.1014 226.298C42.3342 228.727 43.208 231.507 45.723 234.638C48.0888 237.6 51.1899 240.028 55.0264 241.924C57.5627 243.16 60.7597 244.118 64.6175 244.8Z" fill="#2880AE"/>
<path d="M193.267 186.931C197.444 180.497 199.831 172.04 200.428 161.559C200.812 155.211 200.609 149.758 199.82 145.199L185.69 148.426L180.862 188.624L193.267 186.931Z" fill="#C8C9CA"/>
<path d="M34.47 188.209C31.9124 194.131 31.1451 200.575 32.1681 207.541C33.2125 214.571 35.1307 219.737 37.9228 223.039C39.3934 224.786 41.642 226.309 44.6685 227.609C49.5919 229.739 54.8244 230.804 60.3659 230.804C70.4046 230.825 79.3669 227.151 87.2529 219.78C84.333 214.177 80.9548 208.244 77.1183 201.981C69.4455 189.455 63.2965 181.531 58.6715 178.207C54.0251 174.884 49.6878 173.894 45.6596 175.236C43.6348 175.896 42.0789 176.887 40.9919 178.207C38.072 181.594 35.898 184.928 34.47 188.209Z" fill="#3396CD"/>
<path d="M40.9911 178.207C38.0711 181.594 35.8971 184.928 34.4691 188.209C31.9115 194.131 31.1442 200.575 32.1673 207.541C33.2329 214.742 34.8847 219.748 37.1227 222.56C38.0391 223.71 39.2007 224.701 40.6074 225.532L44.6676 227.609C47.7581 229.121 50.774 230.154 53.7152 230.708L64.3294 231.06C61.5799 229.313 60.3224 227.214 60.5569 224.765C60.77 222.528 62.1234 220.504 64.6171 218.693C67.1534 216.861 70.1266 215.807 73.5368 215.53C77.3519 215.232 80.9539 216.03 84.3428 217.926C79.1636 208.617 74.9755 201.3 71.7784 195.974C65.8959 186.196 61.5266 180.274 58.6706 178.207C54.0243 174.884 49.687 173.894 45.6587 175.236C43.6339 175.896 42.078 176.887 40.9911 178.207Z" fill="#2880AE"/>
<path d="M90.322 239.528C88.0628 237.802 85.3453 237.067 82.1696 237.323C78.2905 237.621 74.6779 239.442 71.3317 242.787C70.0529 244.065 71.2358 246.089 74.8804 248.858C78.2479 251.414 80.6563 252.735 82.1057 252.82C83.1287 252.884 84.8125 251.106 87.157 247.484C89.5441 243.799 90.5991 241.147 90.322 239.528Z" fill="white"/>
<path d="M71.331 242.787C70.2867 243.831 71.3097 245.684 74.4002 248.347C76.9578 250.562 79.5474 252.32 82.1689 253.619C80.6557 251.681 79.4195 249.263 78.4604 246.366C77.5439 243.49 77.139 240.902 77.2455 238.601C75.1781 239.517 73.2066 240.912 71.331 242.787Z" fill="#DBDCDC"/>
<path d="M61.6118 238.952C56.7949 237.184 52.5322 236.992 48.8236 238.377C46.7349 239.165 44.7847 242.137 42.9731 247.292C42.2271 249.444 41.8008 251.276 41.6943 252.788C41.5877 254.45 41.918 255.355 42.6853 255.505C45.52 256.08 50.3156 254.791 57.072 251.638C64.0415 248.421 67.6541 245.556 67.9099 243.042C67.9525 242.638 67.3771 242.03 66.1835 241.221C64.9047 240.348 63.3808 239.591 61.6118 238.952Z" fill="white"/>
<path d="M48.8238 238.377C47.0335 239.059 45.2645 241.541 43.5168 245.822C41.833 250.019 41.2895 252.97 41.8863 254.674C43.1438 251.329 44.8915 248.038 47.1294 244.8C49.5805 241.285 51.9569 238.856 54.2588 237.514C52.234 237.472 50.4224 237.759 48.8238 238.377Z" fill="#DBDCDC"/>
<path d="M83.7048 110.081C77.8009 107.759 73.3997 104.83 70.501 101.294C68.9238 99.3765 66.7179 98.8652 63.8832 99.7599C61.283 100.591 59.3754 102.082 58.1605 104.234C57.1801 106.002 56.5833 108.846 56.3702 112.765C56.221 115.833 56.3062 118.741 56.6259 121.489C56.7965 122.895 56.0931 133.418 54.5159 153.06C53.2797 172.978 53.5781 184.95 55.4111 188.976C58.054 194.749 61.8051 200.405 66.6646 205.944C71.7159 211.695 76.5328 215.658 81.1152 217.831C88.7028 221.41 96.2904 223.913 103.878 225.34C115.984 227.619 127.493 227.076 138.406 223.71C144.843 222.198 151.588 219.322 158.643 215.083C172.753 206.604 181.385 195.591 184.539 182.042C187.672 168.493 184.411 150.716 174.756 128.71C169.918 117.697 164.771 108.036 159.314 99.728C159.144 98.4498 157.95 96.5965 155.734 94.1679C153.283 91.4625 151.237 90.2269 149.596 90.4612C148.082 90.653 145.94 92.1122 143.169 94.839L135.433 102.732C132.705 105.309 128.548 107.717 122.964 109.953C116.208 112.659 109.707 113.958 103.462 113.852C96.4289 113.745 89.8431 112.488 83.7048 110.081Z" fill="#F0E9A5"/>
<path d="M155.318 93.6887C154.529 93.3478 153.74 93.1455 152.952 93.0815L149.691 93.3372C151.673 95.1266 153.154 97.0652 154.135 99.1528C154.987 101.027 155.541 103.254 155.797 105.831C157.183 103.573 158.291 101.304 159.122 99.025C158.845 98.3646 158.365 97.5445 157.683 96.5646C156.959 95.542 156.17 94.5834 155.318 93.6887Z" fill="#C9C48B"/>
<path d="M168.521 180.572C173.359 179.997 178.751 180.21 184.698 181.211C185.487 177.505 185.785 173.446 185.593 169.037C182.95 170.187 180.201 170.869 177.345 171.082C174.531 171.295 171.75 171.028 169.001 170.283C168.958 173.713 168.798 177.142 168.521 180.572Z" fill="#C9C48B"/>
<path d="M89.9695 115.865C90.0335 115.332 90.513 114.736 91.4082 114.075C92.0902 113.585 92.8042 113.181 93.5502 112.861C88.4989 111.902 83.9165 110.39 79.803 108.324C75.7747 106.278 72.6736 103.935 70.4996 101.294C68.9224 99.3763 66.7165 98.8651 63.8818 99.7598C61.2815 100.591 59.374 102.082 58.1591 104.233C57.1787 106.002 56.5819 108.845 56.3688 112.765C56.2196 115.833 56.3048 118.741 56.6245 121.489C56.795 122.895 56.0917 133.418 54.5145 153.059C53.2783 172.977 53.5767 184.95 55.4096 188.976C58.0525 194.749 61.8037 200.405 66.6632 205.944C71.7145 211.695 76.5313 215.658 81.1138 217.831C89.1916 221.644 96.9923 224.307 104.516 225.819C117.027 228.29 128.323 227.587 138.405 223.71C141.452 222.986 145.076 221.708 149.274 219.876C145.971 219.066 143.104 217.138 140.674 214.092C139.715 212.878 138.426 210.715 136.806 207.605C125.893 204.815 116.473 198.264 108.544 187.953C108.352 187.719 108.193 187.229 108.065 186.483L107.937 185.461C107.127 185.482 106.647 185.376 106.498 185.141C99.891 175.64 95.1274 164.392 92.2074 151.398C92.1222 151.057 92.1755 150.535 92.3673 149.832L92.655 148.841C91.9304 148.522 91.5467 148.256 91.5041 148.043C89.3727 137.05 88.8612 126.324 89.9695 115.865Z" fill="#C9C48B"/>
<path d="M181.564 254.195C190.026 254.344 196.249 251.063 200.235 244.353C204.924 236.449 205.702 224.637 202.569 208.916L138.404 202.045C136.358 208.245 136.284 216.67 138.181 227.321C140.056 237.802 142.742 244.619 146.237 247.772C149.498 250.733 155.061 252.65 162.926 253.524L181.564 254.195Z" fill="#3396CD"/>
<path d="M162.927 253.524L181.565 254.195C173.211 246.867 173.136 238.665 181.342 229.59L138.406 202.045C136.359 208.245 136.285 216.67 138.182 227.321C140.057 237.802 142.743 244.619 146.238 247.772C149.499 250.733 155.062 252.65 162.927 253.524Z" fill="#2880AE"/>
<path d="M139.684 248.539C139.258 253.247 139.716 256.027 141.059 256.879C142.444 257.773 145.045 257.784 148.86 256.911C152.76 256.016 155.797 254.663 157.971 252.853C158.589 252.341 158.717 251.308 158.355 249.753C157.971 248.091 157.172 246.515 155.957 245.024C152.632 240.976 148.082 239.645 142.306 241.029C140.984 241.349 140.11 243.852 139.684 248.539Z" fill="white"/>
<path d="M198.766 246.941C198.34 244.598 196.464 243.181 193.139 242.691C190.88 242.329 186.841 242.371 181.023 242.819C175.993 243.202 171.431 244.31 167.339 246.142C163.034 248.081 160.945 250.115 161.073 252.245C161.201 254.482 165.293 256.879 173.35 259.435C181.47 262.034 188.536 263.152 194.546 262.79C196.699 262.662 198.137 260.777 198.862 257.134C199.48 253.982 199.448 250.584 198.766 246.941Z" fill="white"/>
<path d="M139.684 248.539C139.258 253.247 139.716 256.027 141.059 256.879C142.444 257.773 145.045 257.784 148.86 256.911C152.76 256.016 155.797 254.663 157.971 252.853C158.589 252.341 158.717 251.308 158.355 249.753C157.971 248.091 157.172 246.515 155.957 245.024C152.632 240.976 148.082 239.645 142.306 241.029C140.984 241.349 140.11 243.852 139.684 248.539Z" fill="#DBDCDC"/>
<path d="M172.677 244.257C169.245 245.194 166.475 246.355 164.364 247.74C162.084 249.231 160.986 250.733 161.072 252.245C161.178 254.397 165.036 256.73 172.645 259.243C180.254 261.757 187.127 262.961 193.266 262.854C187.681 261.278 182.79 258.849 178.591 255.569C173.647 251.691 171.675 247.921 172.677 244.257Z" fill="#DBDCDC"/>
<path d="M173.924 176.258L166.411 175.619C157.459 175.918 150.373 178.996 145.151 184.854C140.632 189.945 138.213 196.091 137.894 203.292C137.638 208.639 139.663 214.167 143.968 219.876C148.401 225.777 153.74 229.728 159.985 231.731C162.458 232.519 166.486 232.711 172.07 232.306C176.503 231.965 180.968 231.347 185.465 230.453C193.074 228.94 198.2 224.584 200.843 217.383C202.463 212.931 203.081 207.467 202.697 200.991C202.335 195.346 200.193 190.201 196.271 185.557C190.943 179.209 183.494 176.109 173.924 176.258Z" fill="#3396CD"/>
<path d="M172.069 232.306C176.503 231.965 180.968 231.347 185.465 230.453C190.9 229.387 195.088 226.82 198.029 222.752C194.321 224.903 190.303 225.904 185.977 225.755C180.819 225.564 176.012 223.668 171.558 220.067C165.185 214.933 160.784 208.702 158.354 201.374C155.2 191.852 156.99 183.331 163.725 175.811C155.626 176.663 149.221 179.933 144.511 185.621C140.398 190.606 138.192 196.496 137.893 203.292C137.637 208.639 139.662 214.167 143.968 219.876C148.401 225.777 153.74 229.728 159.985 231.731C162.457 232.519 166.485 232.711 172.069 232.306Z" fill="#2880AE"/>
<path d="M201.483 118.07C200.95 113.937 199.394 110.092 196.815 106.534C194.151 102.87 190.719 99.973 186.521 97.8427C182.023 95.542 177.057 94.3703 171.622 94.3277C163.587 94.2425 158.611 97.6723 156.692 104.617C155.989 107.131 155.776 109.868 156.053 112.829C156.287 115.322 156.767 117.292 157.492 118.741C163.289 123.214 169.385 127.049 175.779 130.244C188.588 136.614 196.527 136.582 199.596 130.148C201.387 126.356 202.016 122.33 201.483 118.07Z" fill="#3396CD"/>
<path d="M176.482 94.7112L171.622 94.3277C163.587 94.2425 158.611 97.6723 156.692 104.617C155.989 107.131 155.776 109.868 156.053 112.829C156.287 115.322 156.767 117.292 157.492 118.741C160.049 120.594 163.097 122.298 166.635 123.853C173.754 126.942 179.817 127.72 184.826 126.186C178.944 120.349 175.033 114.395 173.093 108.324C170.983 101.698 172.113 97.161 176.482 94.7112Z" fill="#2880AE"/>
<path d="M186.616 116.216C179.839 112.808 173.839 111.636 168.617 112.701C162.479 113.958 158.312 117.122 156.117 122.192C155.2 124.301 154.785 126.474 154.87 128.71C154.955 130.883 155.499 132.779 156.5 134.398L193.33 150.791C198.424 148.66 201.312 145.028 201.994 139.894C202.569 135.676 201.685 131.363 199.34 126.953C197.209 122.991 192.968 119.412 186.616 116.216Z" fill="#3396CD"/>
<path d="M172.709 112.382L168.617 112.701C162.479 113.958 158.312 117.122 156.117 122.192C155.2 124.301 154.784 126.474 154.87 128.71C154.955 130.883 155.498 132.779 156.5 134.398L173.7 140.533C173.231 140.129 172.507 139.085 171.526 137.402C170.205 135.144 169.203 132.833 168.521 130.468C166.475 123.268 167.871 117.239 172.709 112.382Z" fill="#2880AE"/>
<path d="M189.238 172.999L193.074 163.988L179.039 168.877L180.446 173.414C181.661 176.525 182.94 178.282 184.282 178.687C185.625 179.091 187.277 177.196 189.238 172.999Z" fill="white"/>
<path d="M183.707 167.247L179.039 168.877L180.446 173.414C181.661 176.524 182.94 178.282 184.282 178.687C184.325 178.708 184.165 177.451 183.803 174.916C183.377 171.806 183.345 169.25 183.707 167.247Z" fill="#DBDCDC"/>
<path d="M148.636 164.084C148.657 166.129 148.838 167.961 149.179 169.58C149.499 171.156 149.851 172.008 150.234 172.136C150.895 172.349 152.909 171.369 156.277 169.196C159.452 167.151 161.211 165.873 161.552 165.362L152.057 152.356C149.776 154.742 148.636 158.651 148.636 164.084Z" fill="white"/>
<path d="M157.043 159.195L152.056 152.356C150.095 154.423 148.88 157.352 148.411 161.144C147.942 165.127 148.454 168.941 149.946 172.583C150.201 170.219 151.054 167.726 152.503 165.106C153.825 162.699 155.338 160.728 157.043 159.195Z" fill="#DBDCDC"/>
<path d="M162.512 165.458C162.213 167.034 162.618 170.017 163.727 174.405C164.941 179.092 166.156 181.328 167.371 181.115C168.906 180.838 170.739 179.539 172.87 177.217C175.3 174.597 177.207 171.561 178.593 168.11L162.512 165.458Z" fill="white"/>
<path d="M162.511 165.458C162.213 167.034 162.618 170.017 163.726 174.405C164.941 179.092 166.156 181.328 167.371 181.115L167.754 177.377C168.074 173.99 168.905 170.443 170.248 166.736L162.511 165.458Z" fill="#DBDCDC"/>
<path d="M155.061 136.539C152.823 138.414 151.395 140.416 150.777 142.547C149.456 147.02 150.468 152.133 153.814 157.885C157.374 163.998 162.031 167.758 167.785 169.164C174.243 170.741 180.456 170.485 186.424 168.397C192.818 166.139 196.367 162.486 197.07 157.437C197.795 152.303 197.081 147.723 194.928 143.697C192.925 139.948 189.802 136.891 185.561 134.526C178.378 130.521 170.95 129.722 163.277 132.129C160.08 133.152 157.342 134.622 155.061 136.539Z" fill="#3396CD"/>
<path d="M150.778 142.547C149.456 147.02 150.469 152.133 153.815 157.885C157.374 163.999 162.031 167.758 167.786 169.164L169.225 169.484C164.237 164.712 161.445 158.534 160.848 150.951C160.23 143.175 162.191 136.624 166.731 131.299C162.745 132.002 159.25 133.44 156.245 135.613C153.346 137.722 151.524 140.033 150.778 142.547Z" fill="#2880AE"/>
<path d="M29.2586 119.38C23.7384 122.362 20.0298 127.39 18.1329 134.462C16.5344 140.427 16.5664 145.412 18.2288 149.417C19.5716 152.697 22.2571 155.765 26.2854 158.62C29.2906 160.75 35.8231 157.15 45.8831 147.819C49.0375 144.901 52.3411 141.588 55.7939 137.881L60.0779 133.184C60.6108 130.01 59.6623 126.804 57.2326 123.566C54.6323 120.072 51.2222 117.942 47.0021 117.175C40.2031 115.939 34.2886 116.674 29.2586 119.38Z" fill="#3396CD"/>
<path d="M30.5055 119.22C27.6708 120.967 25.1984 123.044 23.0884 125.451C20.616 128.306 18.9642 131.309 18.133 134.462C16.5345 140.427 16.5664 145.412 18.2289 149.417C19.5716 152.697 22.2571 155.765 26.2854 158.62C27.756 159.663 30.335 157.001 34.0222 150.631L39.1055 140.789L36.8675 139.99C35.1198 139.223 33.6279 138.19 32.3917 136.891C28.4487 132.758 27.82 126.868 30.5055 119.22Z" fill="#2880AE"/>
<path d="M37.1553 135.517C32.7008 139.5 29.6423 144.325 27.9798 149.992C26.3813 155.382 26.3494 159.834 27.8839 163.349C29.653 167.439 33.4468 170.102 39.2653 171.337C44.4232 172.466 50.423 168.93 57.2646 160.729C59.396 158.172 61.4847 155.296 63.5308 152.101L65.9605 148.107C66.8557 145.188 66.4934 141.918 64.8736 138.297C62.7848 133.631 59.0443 130.873 53.652 130.021C47.7908 129.083 42.2919 130.915 37.1553 135.517Z" fill="#3396CD"/>
<path d="M45.8193 157.853C43.1338 157.022 40.7574 155.467 38.69 153.187C34.5551 148.629 34.033 142.738 37.1234 135.517C34.9708 137.455 33.0739 139.745 31.4327 142.387C29.8981 144.879 28.7472 147.414 27.9799 149.992C26.3814 155.382 26.3494 159.834 27.884 163.349C29.653 167.439 33.4468 170.102 39.2654 171.337C40.8639 171.678 42.4305 169.537 43.9651 164.915L45.8193 157.853Z" fill="#2880AE"/>
<path d="M70.884 170.443L73.8252 171.209C75.9779 171.678 77.5125 171.806 78.4289 171.593C79.452 171.38 78.9831 169.186 77.0223 165.01C75.1254 160.984 73.5375 158.407 72.2587 157.277L70.884 170.443Z" fill="white"/>
<path d="M78.4297 171.593L75.8721 169.74C73.7833 168.206 72.302 166.715 71.4282 165.266L70.8847 170.443L73.826 171.209C75.9786 171.678 77.5132 171.806 78.4297 171.593Z" fill="#DBDCDC"/>
<path d="M58.2228 186.42L65.0005 187.25C65.7891 187.25 65.8104 186.121 65.0645 183.863C64.3824 181.712 63.6791 180.263 62.9544 179.517L47.9603 183.384C50.7098 184.662 54.1306 185.674 58.2228 186.42Z" fill="#DBDCDC"/>
<path d="M70.6919 170.155L61.996 180.444C64.5963 181.318 67.3244 181.893 70.1804 182.17C73.0364 182.447 74.6563 182.287 75.0399 181.69C75.8711 180.476 75.4022 178.186 73.6332 174.82L70.6919 170.155Z" fill="white"/>
<path d="M74.9443 181.786C71.5555 180.423 68.465 178.527 65.673 176.099L61.9964 180.444C64.5114 181.275 67.1649 181.84 69.957 182.138C72.7277 182.415 74.3902 182.298 74.9443 181.786Z" fill="#DBDCDC"/>
<path d="M40.3194 160.345C38.1241 165.053 37.2609 169.345 37.7298 173.222C38.2413 177.355 40.2235 180.316 43.6763 182.106C47.7045 184.193 51.1253 185.088 53.9387 184.79C57.562 184.406 61.6542 182.148 66.2153 178.016C71.0748 173.627 73.3979 168.131 73.1848 161.527C73.0996 158.95 72.6307 156.553 71.7781 154.338C70.9682 152.292 70.0197 150.844 68.9328 149.992C64.3504 146.392 59.1925 145.614 53.4591 147.659C47.6832 149.704 43.3033 153.933 40.3194 160.345Z" fill="#3396CD"/>
<path d="M40.3196 160.345C38.1243 165.053 37.2611 169.346 37.73 173.223C38.2415 177.355 40.2237 180.317 43.6765 182.106C47.7047 184.194 51.1255 185.088 53.9389 184.79C57.5622 184.407 61.6544 182.149 66.2155 178.016L67.2705 176.993C64.1587 178.74 60.983 179.507 57.7434 179.294C54.6955 179.081 51.8822 178.037 49.3032 176.162C46.7669 174.33 44.7635 171.934 43.2928 168.973C41.7582 165.905 40.991 162.593 40.991 159.035L40.3196 160.345Z" fill="#2880AE"/>
<path d="M84.056 107.844C91.0256 110.699 99.146 111.668 108.417 110.752C113.724 110.22 118.818 108.867 123.699 106.694C129.646 104.052 134.249 100.58 137.51 96.2769C139.812 93.2732 140.558 89.7689 139.748 85.764C138.938 81.6099 136.786 79.0749 133.29 78.1589C130.285 77.3707 119.394 77.7967 100.617 79.437L73.314 82.1212C69.4137 94.7751 72.9943 103.349 84.056 107.844Z" fill="#F0E9A5"/>
<path d="M79.5158 83.2396C77.15 82.5579 75.0826 82.1851 73.3135 82.1212C69.4132 94.7751 72.9938 103.349 84.0556 107.844C91.0251 110.699 99.1455 111.668 108.417 110.752C113.042 110.262 117.464 109.186 121.685 107.525L114.172 108.643C111.273 108.878 108.438 108.686 105.667 108.068C99.4226 106.683 94.7869 104.393 91.7604 101.198C88.3715 97.619 88.1264 93.8804 91.0251 89.9819C88.0625 86.8504 84.2261 84.603 79.5158 83.2396Z" fill="#C9C48B"/>
<path d="M100.808 50.7741C99.1879 48.8356 95.7457 48.7291 90.4813 50.4546C86.2612 51.8393 83.2453 53.2772 81.4337 54.7684C78.3432 54.4489 75.4872 54.5128 72.8657 54.9601C70.5638 55.3436 69.0292 55.9081 68.2619 56.6537C67.5799 57.3141 67.7078 59.2846 68.6456 62.5652C69.5621 65.7606 70.7876 68.6685 72.3222 71.2887C71.2139 74.0155 70.6171 77.147 70.5318 80.6832C70.4466 84.3899 71.0007 86.8611 72.1943 88.0966L75.4233 85.8918C76.9152 85.1249 78.4605 84.7947 80.059 84.9012C79.1212 87.5001 79.3663 89.3109 80.7943 90.3334C81.7747 91.0364 83.4585 91.3879 85.8456 91.3879C87.1031 91.3879 89.8845 90.6529 94.1898 89.1831C98.9641 87.5427 102.364 86.5735 104.388 86.2752L114.811 85.7959L125.489 86.0515C131.457 86.0728 133.044 83.6337 130.252 78.734C133.3 78.4358 135.645 79.0962 137.286 80.7152C138.288 81.6951 138.863 82.707 139.012 83.7508C139.779 81.0667 139.897 77.9671 139.364 74.4522C138.81 70.6816 137.659 67.827 135.911 65.8885C136.721 63.6091 137.339 61.1699 137.765 58.5709C138.597 53.3518 138.064 49.9114 136.167 48.2497C135.57 47.7172 133.886 47.7065 131.116 48.2178C128.217 48.7717 125.638 49.6451 123.379 50.838C119.649 49.0273 115.216 48.058 110.079 47.9302C104.772 47.8237 101.682 48.7717 100.808 50.7741Z" fill="#3396CD"/>
<path d="M135.4 56.7496C136.338 51.4665 136.594 48.6332 136.167 48.2497C135.571 47.7172 133.887 47.7065 131.116 48.2178C128.217 48.7717 125.638 49.6451 123.379 50.838C122.761 50.5398 121.013 50.0392 118.136 49.3362C123.571 51.7647 128.452 56.2383 132.779 62.7569C133.61 63.9925 134.484 61.99 135.4 56.7496Z" fill="#2880AE"/>
<path d="M107.139 48.122C104.965 48.0794 103.451 48.2498 102.599 48.6333C101.874 48.9741 101.277 49.6877 100.808 50.7742C99.1886 48.8356 95.7465 48.7291 90.4821 50.4546C86.262 51.8393 83.2461 53.2773 81.4345 54.7685C78.344 54.4489 75.488 54.5128 72.8664 54.9602C70.5646 55.3436 69.03 55.9082 68.2627 56.6538C67.5807 57.3142 67.7086 59.2847 68.6464 62.5653C69.5628 65.7607 70.7884 68.6685 72.3229 71.2888C71.2146 74.0155 70.6179 77.147 70.5326 80.6833C70.4473 84.39 71.0015 86.8611 72.1951 88.0967L75.4241 85.8918C76.916 85.1249 78.4612 84.7948 80.0597 84.9013C79.122 87.5002 79.3671 89.3109 80.7951 90.3335C81.7755 91.0365 83.4592 91.388 85.8464 91.388C87.0825 91.388 89.7041 90.6424 93.7111 89.1512C98.123 87.5109 101.352 86.5309 103.398 86.2114C102.95 84.6563 102.833 83.1438 103.046 81.6739L103.526 79.9164L102.599 79.8206L101.096 80.0442C99.9453 80.6407 98.9755 79.746 98.1869 77.3601C97.4196 75.0381 97.4089 73.4723 98.1549 72.6628C99.0501 71.6829 100.595 70.9586 102.791 70.4899C105.476 69.9147 107.863 70.1917 109.952 71.3207C111.039 71.9172 111.614 72.045 111.678 71.7042C111.721 71.4699 111.444 70.8308 110.847 69.7869C109.014 66.6128 108.044 64.5358 107.938 63.5559C106.702 64.4719 105.178 65.0471 103.366 65.2814C101.277 65.5583 99.5829 65.2068 98.2828 64.2269C98.6025 65.995 98.5386 66.9537 98.091 67.1028C97.75 67.2306 96.9614 66.8365 95.7252 65.9205C91.6543 62.9594 88.3507 61.2765 85.8144 60.8717C84.3651 60.6374 84.088 59.7746 84.9832 58.2834C85.8357 56.8561 87.317 55.5141 89.427 54.2572C91.7502 52.8512 93.9242 52.1482 95.949 52.1482C98.4 52.1482 100.212 53.224 101.384 55.3756C101.533 53.6075 102.002 52.1589 102.791 51.0298C103.728 49.7304 105.178 48.7611 107.139 48.122Z" fill="#2880AE"/>
<path d="M126.577 64.1948C126.001 63.2574 125.436 62.5012 124.882 61.926C122.559 62.7994 120.033 64.3545 117.305 66.5913L113.916 69.6909L114.748 70.8412L121.653 70.0743C125.426 69.7122 127.738 69.6802 128.591 69.9785C128.42 68.0399 127.749 66.112 126.577 64.1948Z" fill="white"/>
<path d="M79.0036 73.3657L87.4118 73.4616L94.2854 73.7172L94.701 72.6627L94.9248 72.2793L90.9285 69.1478C87.7954 66.9962 85.0034 65.7713 82.5523 65.473L81.0497 67.9335C80.0053 69.9147 79.3233 71.7254 79.0036 73.3657Z" fill="white"/>
<path d="M33.5418 39.047C30.0677 36.5545 26.178 35.6066 21.8726 36.203C17.546 36.8208 14.0506 38.7807 11.3864 42.0826C8.72219 45.3846 7.66716 49.0806 8.22131 53.1707C8.77547 57.2609 10.7789 60.5415 14.2317 63.0126C17.7058 65.505 21.6062 66.453 25.9329 65.8565C30.2382 65.2601 33.7229 63.3109 36.3871 60.0089C39.0513 56.6857 40.1063 52.979 39.5522 48.8889C38.998 44.7987 36.9946 41.5181 33.5418 39.047Z" fill="#0D131A"/>
<path d="M157.172 16.7109C154.188 20.1194 152.909 24.0071 153.335 28.3742C153.74 32.7626 155.712 36.3521 159.25 39.1428C162.809 41.9547 166.901 43.1477 171.526 42.7216C176.152 42.2956 179.956 40.3783 182.94 36.9699C185.924 33.5614 187.213 29.663 186.808 25.2746C186.403 20.8863 184.421 17.2967 180.862 14.5061C177.302 11.7154 173.21 10.5331 168.585 10.9592C163.96 11.3852 160.156 13.3025 157.172 16.7109Z" fill="#0D131A"/>
<path d="M114.843 68.988C115.12 69.6697 115.568 70.2662 116.186 70.7775L119.191 70.1703L122.196 69.7549C122.58 69.0306 122.771 68.2531 122.771 67.4223C122.771 66.8897 122.601 66.2719 122.26 65.5689C121.962 64.9511 121.61 64.4292 121.205 64.0032C120.267 64.1949 119.17 64.8659 117.912 66.0163L114.843 68.988Z" fill="#0D131A"/>
<path d="M84.5351 70.6816C84.5351 71.7893 84.94 72.7693 85.75 73.6214L92.08 73.5575C92.5916 73.174 92.9219 72.7693 93.0711 72.3432C93.2203 71.9811 93.2949 71.4272 93.2949 70.6816L90.8652 69.02C89.0749 67.9548 87.6788 67.2945 86.6771 67.0388C86.0164 67.4223 85.4942 67.9229 85.1105 68.5407C84.7269 69.2011 84.5351 69.9147 84.5351 70.6816Z" fill="#0D131A"/>
<path d="M184.825 73.9729L183.866 75.1872C186.104 77.7009 188.214 80.2785 190.196 82.9201C192.413 85.8812 193.724 87.9475 194.129 89.1192L195.216 88.7357C194.704 87.2019 193.425 84.9332 191.379 81.9295C189.099 78.5637 186.914 75.9115 184.825 73.9729Z" fill="#0D131A"/>
<path d="M67.0162 51.0936C67.6769 51.7114 68.1032 52.1588 68.295 52.4357C78.0353 47.11 87.8715 43.7761 97.8036 42.434C107.65 41.092 116.741 41.8056 125.074 44.575L124.978 43.2648C116.432 39.9842 106.926 39.1001 96.4608 40.6126C86.4648 42.0825 76.6499 45.5762 67.0162 51.0936Z" fill="#0D131A"/>
<path d="M24.8463 98.1304C23.6101 101.411 22.3846 106.385 21.1697 113.053L23.1199 110.976C23.8446 107.248 24.9315 103.424 26.3809 99.5044L24.8463 98.1304Z" fill="#0D131A"/>
<path d="M184.826 49.3363L183.771 51.1577C189.291 54.7579 191.912 57.3249 191.635 58.8587C191.337 60.5629 189.195 64.7702 185.209 71.4806C181.415 77.8501 179.06 81.4609 178.144 82.313L179.902 82.5367C180.904 81.5994 183.302 78.0312 187.096 71.8321C191.145 65.2069 193.33 60.9889 193.649 59.1782C194.033 56.9414 191.092 53.6608 184.826 49.3363Z" fill="#0D131A"/>
<path d="M143.903 32.784V30.9306C137.978 29.759 133.939 29.1519 131.787 29.1093C129.527 29.0667 127.321 32.6775 125.169 39.9417C124.082 43.5845 123.219 47.2699 122.579 50.9979L123.762 51.1257C123.975 48.9741 124.988 45.3207 126.799 40.1654C128.995 33.9663 130.881 30.8774 132.458 30.8987C135.25 30.9413 139.065 31.5697 143.903 32.784Z" fill="#0D131A"/>
<path d="M183.771 59.4018C183.686 58.6562 182.077 57.3461 178.944 55.4714L178.24 56.4301C180.947 58.0278 182.407 59.0823 182.62 59.5935V59.6894C182.62 60.9889 180.915 64.3547 177.505 69.7869C174.223 75.0061 171.548 78.7554 169.481 81.0348L170.344 81.8336C172.305 79.7034 174.979 75.9647 178.368 70.6177C182.162 64.6103 183.963 60.8717 183.771 59.4018Z" fill="#0D131A"/>
<path d="M134.921 41.2518C136.072 39.3345 136.946 38.4079 137.542 38.4718C138.629 38.557 140.516 39.0576 143.201 39.9736V38.8552C140.516 37.8966 138.661 37.3747 137.638 37.2895C136.423 37.1616 135.027 38.525 133.45 41.3796C132.278 43.5312 131.319 45.7999 130.573 48.1859L132.012 47.5787C132.8 45.2354 133.77 43.1264 134.921 41.2518Z" fill="#0D131A"/>
<path d="M50.8391 50.7103L51.1588 51.5091L51.6703 52.2121C56.8495 49.2723 60.4515 47.5574 62.4763 47.0675C63.3075 46.8758 64.5437 47.9089 66.1848 50.167C67.485 51.9778 68.6252 53.9057 69.6056 55.9507L70.7246 55.6312L67.4636 49.0167C65.8012 46.1834 64.3306 44.9265 63.0517 45.2461C62.2205 45.4591 60.6753 46.0556 58.4161 47.0355C56.0076 48.122 53.482 49.3469 50.8391 50.7103Z" fill="#0D131A"/>
<path d="M19.9553 75.4747C17.5256 78.3293 15.6926 80.8111 14.4564 82.9201C13.0498 85.3486 12.5596 87.0741 12.9858 88.0966C13.54 89.3961 16.1615 92.0377 20.8505 96.0213C23.4081 98.1942 27.0314 101.123 31.7204 104.809L32.7754 104.074C29.5571 101.475 26.1043 98.4818 22.417 95.0946C17.8773 90.8767 15.341 88.1606 14.8081 86.9463C14.4671 86.1794 14.904 84.8267 16.1189 82.8881C17.2911 81.0348 19.0708 78.8086 21.4579 76.2097L19.9553 75.4747Z" fill="#0D131A"/>
<path d="M22.5128 85.2846C22.6194 86.4349 24.4204 88.8315 27.9158 92.4743C30.8145 95.4993 33.8943 98.4071 37.1552 101.198L38.3701 100.686C35.4288 98.2367 32.3384 95.3395 29.0987 91.995C25.6246 88.3735 23.8236 86.1047 23.6957 85.1887C23.8449 84.5496 25.4328 82.8987 28.4593 80.2358L27.2764 79.6606C24.0367 82.6217 22.4489 84.4964 22.5128 85.2846Z" fill="#0D131A"/>
<path d="M54.2913 58.3793L54.643 59.5296C57.9466 57.1437 59.9287 55.8442 60.5894 55.6312L61.2289 55.7271C62.5077 56.3449 64.1914 58.8053 66.2802 63.1085C67.836 66.3252 69.2854 69.8402 70.6281 73.6534L71.7471 73.2699C70.4896 69.755 69.1894 66.5382 67.8467 63.6198C65.4383 58.4432 63.4028 55.4501 61.7404 54.6406L60.1738 54.5128C59.5984 54.7258 57.6375 56.0147 54.2913 58.3793Z" fill="#0D131A"/>
<path d="M69.1895 75.6344C68.4861 73.6106 67.4311 71.949 66.0244 70.6495C64.1062 68.8814 61.6764 67.9121 58.7352 67.7417L59.3106 68.9879C61.9535 69.2648 64.0849 70.2554 65.7047 71.9597C66.8982 73.2378 67.7828 74.8568 68.3582 76.8167L69.1895 75.6344Z" fill="#0D131A"/>
<path d="M34.7896 86.6588C34.5977 88.7039 34.8002 90.6531 35.397 92.5064C36.3561 95.4888 38.253 97.715 41.0877 99.1849L41.9189 98.2901C39.2974 97.012 37.5177 95.0628 36.5799 92.4425C35.9618 90.6957 35.7487 88.7997 35.9405 86.7547L36.1963 85.6363L35.1732 84.9972C34.9601 85.5937 34.8322 86.1475 34.7896 86.6588Z" fill="#0D131A"/>
<path d="M64.329 81.1945L65.4799 79.8844C65.8636 77.8606 65.2774 76.0712 63.7216 74.5161C62.4214 73.2166 60.8975 72.4177 59.1498 72.1195V73.3977C61.1746 74.1433 62.6239 75.4321 63.4978 77.2641C64.0945 78.4997 64.3716 79.8098 64.329 81.1945Z" fill="#0D131A"/>
<path d="M39.5842 87.2018C39.4137 89.9498 40.0105 92.0269 41.3745 93.4328C42.0139 94.1358 42.9304 94.6897 44.124 95.0945L47.4809 95.8294L48.5039 94.711C47.353 94.6684 46.2447 94.4128 45.179 93.9441C44.092 93.4968 43.1862 92.8896 42.4615 92.1227C41.2253 90.7593 40.6605 89.1829 40.7671 87.3935L39.5842 87.2018Z" fill="#0D131A"/>
<path d="M1.86029 43.4247C0.730674 46.3858 0.229823 49.2404 0.357704 51.9885C0.528212 55.333 1.27418 58.39 2.59562 61.1593C4.02363 64.1843 6.10169 66.7513 8.82982 68.8603C11.899 71.2462 16.8544 74.5694 23.696 78.83L36.548 86.499C38.9138 87.8198 41.5354 88.4269 44.4127 88.3204C47.4819 88.2139 50.4764 87.3192 53.3964 85.6362C56.1458 84.0385 58.0853 81.4502 59.2149 77.8714C60.2167 74.6546 60.3019 71.8107 59.4707 69.3396C58.5755 66.6767 56.3803 61.3084 52.8848 53.2347C49.1763 44.6497 46.8105 39.6328 45.7874 38.1843C43.8479 35.1806 41.3009 32.7627 38.1465 30.9307C35.0348 29.0986 31.582 28.0015 27.7882 27.6394C24.378 27.2985 20.8613 27.7246 17.238 28.9175C13.6786 30.0892 10.7054 31.7828 8.31829 33.9983C5.39834 36.6824 3.24567 39.8246 1.86029 43.4247ZM4.44989 60.712C3.08583 57.9426 2.32919 55.0454 2.17999 52.0204C2.0308 49.2937 2.41445 46.6521 3.33093 44.0958C4.5458 40.7299 6.6132 37.673 9.53315 34.9249C11.7284 32.8586 14.5418 31.3248 17.9733 30.3235C21.3622 29.3436 24.719 29.056 28.0439 29.4608C31.8164 29.9294 35.0881 31.1117 37.8588 33.0077C40.1394 34.5628 42.292 36.7676 44.3168 39.6222C45.3825 41.1134 47.8122 45.9491 51.606 54.1294C55.3146 62.1606 57.5631 67.3584 58.3517 69.723C59.0977 71.9811 59.0444 74.5055 58.1919 77.2962C57.1902 80.4916 55.3785 82.803 52.7569 84.2303C49.8796 85.7854 47.0769 86.6694 44.3488 86.8825C41.6206 87.0955 39.2122 86.6162 37.1235 85.4445C34.6938 84.1024 30.4737 81.4715 24.4633 77.5518C17.92 73.2487 13.0073 69.8509 9.72499 67.3584C7.57232 65.7181 5.81396 63.5026 4.44989 60.712Z" fill="#0D131A"/>
<path d="M33.6062 39.6541C35.1194 40.7832 36.345 42.1466 37.2828 43.7443C38.2206 45.342 38.8067 47.0462 39.0411 48.8569C39.2969 50.6677 39.1903 52.4678 38.7214 54.2572C38.2312 56.0253 37.4213 57.6656 36.2917 59.1781C35.0342 60.8185 33.5209 62.1499 31.7519 63.1724C29.9616 64.2162 28.0114 64.8766 25.9013 65.1536L19.763 64.834C17.7596 64.3015 15.9479 63.4174 14.3281 62.1818C12.8148 61.0315 11.5893 59.6681 10.6515 58.0917C9.71371 56.494 9.11694 54.7898 8.86117 52.979C8.32834 49.0593 9.35138 45.5017 11.9303 42.3063C14.4879 39.1322 17.8448 37.2576 22.001 36.6824C24.111 36.4054 26.1571 36.5226 28.1393 37.0339C30.1427 37.5238 31.965 38.3973 33.6062 39.6541ZM38.2738 43.1371C37.2721 41.4329 35.9507 39.9524 34.3095 38.6955C32.5405 37.3747 30.5903 36.4374 28.459 35.8835C26.3063 35.3297 24.1003 35.2018 21.8411 35.5001C17.3653 36.1179 13.742 38.1523 10.9712 41.6033C8.20045 45.0544 7.11347 48.8995 7.71025 53.1388C7.98733 55.12 8.62673 56.9733 9.62847 58.6988C10.6515 60.403 11.9729 61.8729 13.5928 63.1085C15.3618 64.4506 17.3226 65.3985 19.4753 65.9524C21.628 66.5063 23.8233 66.6235 26.0612 66.3039C28.3204 66.0057 30.4092 65.3027 32.3274 64.1949C34.2456 63.0872 35.8761 61.6493 37.2188 59.8811C38.455 58.2408 39.3289 56.462 39.8404 54.5448C40.3732 52.6275 40.5011 50.6783 40.224 48.6972C39.9469 46.716 39.2969 44.8627 38.2738 43.1371Z" fill="#0D131A"/>
<path d="M165.004 81.1945C169.011 78.7873 170.93 75.4002 170.759 71.0331C170.716 69.6697 170.461 68.2744 169.992 66.8471L169.288 64.9618L168.361 66.24C169.001 69.1158 169.107 71.587 168.681 73.6533C168.063 76.5931 166.358 78.9684 163.566 80.7791L165.004 81.1945Z" fill="#0D131A"/>
<path d="M137.669 50.2308V51.4771C139.119 51.0297 140.451 50.6995 141.666 50.4865L141.729 49.2722L137.669 50.2308Z" fill="#0D131A"/>
<path d="M140.291 59.2101C140.696 58.294 141.303 57.41 142.113 56.5579L141.889 55.1838C140.696 56.1851 139.801 57.3674 139.204 58.7308C138.479 60.4137 138.245 62.2244 138.501 64.163C139.396 65.2068 140.046 65.782 140.451 65.8885C139.705 62.9061 139.652 60.68 140.291 59.2101Z" fill="#0D131A"/>
<path d="M164.749 70.8093C165.239 69.9359 165.633 68.9666 165.932 67.9015L165.26 67.9974L164.621 68.1571C164.472 68.6258 164.227 69.1797 163.886 69.8187C163.012 71.2886 161.85 72.5561 160.401 73.6213C158.93 74.6651 157.47 75.2829 156.021 75.4746C154.699 75.6451 153.367 75.6344 152.025 75.4427L153.495 76.5611C154.305 77.0723 154.902 77.296 155.286 77.2321C159.442 76.6782 162.596 74.5373 164.749 70.8093Z" fill="#0D131A"/>
<path d="M152.248 9.0739C149.051 12.1841 146.898 15.3369 145.79 18.5323C144.98 20.9396 143.968 26.5848 142.753 35.4681C141.517 44.6283 140.963 50.9658 141.09 54.4808C141.197 57.6336 142.05 60.4988 143.648 63.0765C145.481 66.0589 147.975 67.9868 151.129 68.8602C154.752 69.8614 158.12 70.1064 161.232 69.5951C164.28 69.0839 166.805 67.9122 168.809 66.0802C171.963 63.2256 175.533 59.8172 179.519 55.8548C184.804 50.5931 188.705 46.3964 191.22 43.2649C193.522 40.4316 195.067 37.3853 195.856 34.126C196.687 30.6962 196.719 26.8617 195.951 22.6225C195.376 19.4271 194.289 16.4553 192.69 13.7073C190.559 10.0432 187.682 7.146 184.059 5.01572C180.968 3.22628 177.441 2.11854 173.476 1.69248C169.619 1.26643 165.985 1.56467 162.574 2.5872C159.015 3.65234 155.573 5.81457 152.248 9.0739ZM147.101 19.6827C148.188 16.2316 150.394 13.0256 153.719 10.0645C156.852 7.25251 160.241 5.29265 163.885 4.18491C167.125 3.20498 170.375 2.92804 173.636 3.3541C176.897 3.75885 180.041 4.8453 183.067 6.61343C186.542 8.63719 189.259 11.2468 191.22 14.4422C192.712 16.8707 193.714 19.5442 194.225 22.4627C194.928 26.3611 194.779 30.2915 193.777 34.2538C192.882 37.7262 191.55 40.5381 189.781 42.6897C187.16 45.8638 183.355 50.0072 178.368 55.1199C174.148 59.4231 170.706 62.7889 168.041 65.2174C166.208 66.879 163.875 67.9016 161.04 68.285C158.205 68.6685 155.051 68.3809 151.577 67.4223C148.678 66.6341 146.376 64.9085 144.671 62.2457C143.158 59.9024 142.359 57.2928 142.273 54.4169L142.241 53.5861C142.241 49.3468 142.796 43.4353 143.904 35.8515C144.97 28.4168 146.035 23.0272 147.101 19.6827Z" fill="#0D131A"/>
<path d="M156.82 16.1996C153.729 19.7359 152.397 23.7728 152.824 28.3103C153.015 30.4406 153.612 32.443 154.614 34.3177C155.616 36.1923 156.958 37.822 158.642 39.2067C160.433 40.6979 162.447 41.7949 164.685 42.4979C166.923 43.1796 169.246 43.4033 171.654 43.169C176.428 42.7216 180.361 40.7405 183.451 37.2255C186.542 33.6892 187.884 29.6524 187.479 25.1149C187.266 22.9846 186.659 20.9821 185.657 19.1075C184.677 17.2328 183.345 15.5925 181.661 14.1865C179.849 12.6953 177.824 11.6089 175.586 10.9272C173.327 10.2668 171.004 10.0431 168.617 10.2562C163.843 10.6822 159.91 12.6634 156.82 16.1996ZM154.007 28.2144C153.602 23.9965 154.838 20.2472 157.715 16.9665C160.592 13.6859 164.258 11.8432 168.713 11.4385C170.972 11.2254 173.146 11.4278 175.235 12.0456C177.324 12.6847 179.21 13.7072 180.894 15.1132C182.449 16.4127 183.696 17.9252 184.634 19.6507C185.551 21.3762 186.105 23.2296 186.297 25.2107C186.68 29.4287 185.433 33.178 182.556 36.4586C179.679 39.7392 176.013 41.5819 171.558 41.9867C169.32 42.1997 167.157 41.9867 165.068 41.3476C162.98 40.7085 161.083 39.6966 159.378 38.3119C157.822 37.0125 156.585 35.5 155.669 33.7744C154.731 32.0276 154.177 30.1743 154.007 28.2144Z" fill="#0D131A"/>
<path d="M98.5061 227.673L98.538 228.599C101.16 230.303 102.865 231.773 103.653 233.009L103.909 233.616C103.675 233.893 102.843 234.244 101.415 234.67C99.966 235.097 98.3142 235.48 96.46 235.821L95.4369 237.578C101.724 236.577 105.167 235.693 105.763 234.926C106.062 234.585 106.104 234.138 105.891 233.584C105.635 232.86 104.698 231.763 103.078 230.293C101.501 228.865 99.9554 227.683 98.4421 226.746L98.5061 227.673Z" fill="#0D131A"/>
<path d="M137.35 62.5333L136.743 64.0671C139.535 66.1548 142.316 68.5514 145.087 71.2568C149.371 75.4535 153.698 78.308 158.067 79.8205C160.838 80.8005 164.834 81.4822 170.056 81.8656L174.02 82.1852C181.331 82.8881 187.959 85.4658 193.906 89.9181C199.213 93.8591 202.772 98.2262 204.584 103.019C205.841 106.364 206.097 110.102 205.351 114.235C204.711 117.771 203.401 121.297 201.419 124.812C201.248 125.898 200.95 127.219 200.523 128.774C203.507 124.663 205.532 120.743 206.598 117.015C208.09 111.881 207.93 106.843 206.118 101.901C204.029 96.1704 200.204 91.4412 194.641 87.7132C188.929 83.8787 182.098 81.578 174.148 80.8111L170.152 80.4916C165.1 80.1081 161.349 79.4797 158.898 78.6063C154.912 77.2003 150.852 74.4842 146.717 70.458C143.606 67.4117 140.483 64.7701 137.35 62.5333Z" fill="#0D131A"/>
<path d="M59.0869 87.6174C62.3053 84.5711 66.2376 80.3425 70.884 74.9315L71.2996 74.4203L72.0029 71.5125L69.829 74.0368C65.2465 79.3838 61.3675 83.5592 58.1918 86.5629C53.5241 90.9939 49.0696 94.2638 44.8282 96.3728C32.8926 102.338 24.7402 107.727 20.3709 112.542C13.8916 119.678 12.8579 127.592 17.2698 136.284L18.133 134.686C15.1065 127.209 16.5771 120.104 22.5449 113.372C27.1486 108.196 34.7895 102.934 45.4676 97.5871C49.7942 95.4355 54.334 92.1122 59.0869 87.6174Z" fill="#0D131A"/>
<path d="M91.6333 239.432L90.2906 240.231C90.2053 240.934 90.0029 241.647 89.6832 242.372C90.8767 241.796 92.0063 241.168 93.072 240.486C96.0346 238.59 97.9315 235.821 98.7627 232.178C99.4448 229.153 99.3275 226.906 98.411 225.436L97.1003 224.925C97.8462 226.118 97.8569 228.226 97.1322 231.251C96.2584 234.916 94.4254 237.642 91.6333 239.432Z" fill="#0D131A"/>
<path d="M66.1208 245.918L71.6836 246.206L70.8524 244.544L67.3676 244.321L66.1208 245.918Z" fill="#0D131A"/>
<path d="M42.079 226.139C41.2265 228.077 41.4077 230.218 42.6225 232.562C43.7095 234.607 45.4892 236.63 47.9616 238.633L49.624 237.834C47.3861 236.002 45.713 234.095 44.6047 232.114C43.4111 229.984 43.0701 228.099 43.5816 226.458L42.079 226.139Z" fill="#0D131A"/>
<path d="M200.555 145.263L199.34 146.637C199.873 151.366 199.947 156.404 199.564 161.751C198.903 170.272 197.059 177.472 194.033 183.352L195.344 184.726C199.159 178.506 201.28 170.901 201.706 161.911C201.983 156.244 201.599 150.695 200.555 145.263Z" fill="#0D131A"/>
<path d="M39.6803 178.655C36.739 182.17 34.5224 185.685 33.0304 189.2C30.4941 195.164 29.7162 201.47 30.6966 208.117C31.7197 215.083 33.7658 220.227 36.8349 223.55C38.3482 225.191 40.7673 226.714 44.0922 228.12L44.3799 228.248C49.964 230.634 55.5908 231.827 61.2602 231.827C71.0218 231.784 79.771 228.152 87.5078 220.93L85.6855 219.972C78.7586 225.979 70.6382 229.174 61.3242 229.558C54.9727 229.813 49.5058 228.951 44.9234 226.97L44.6357 226.842C41.8649 225.67 39.7336 224.168 38.2416 222.336C35.6201 219.119 33.819 214.156 32.8386 207.446C31.3041 197.028 33.883 187.794 40.5754 179.741L39.6803 178.655Z" fill="#0D131A"/>
<path d="M88.3717 248.475C90.631 244.725 91.5474 242.052 91.1212 240.454C90.8441 239.432 89.7464 238.441 87.8282 237.482C85.6116 236.375 83.2458 235.949 80.7308 236.204C77.1075 236.566 74.2515 237.951 72.1628 240.358C70.4151 242.361 69.7864 244.033 70.2766 245.375C70.8733 246.951 72.8022 248.826 76.0632 250.999C79.0684 252.98 81.1465 254.013 82.2974 254.099C84.0238 254.226 86.0486 252.352 88.3717 248.475ZM89.139 240.358C89.6292 240.742 89.2669 242.137 88.052 244.544C86.9011 246.888 85.6436 248.837 84.2795 250.392C83.2139 251.606 82.4999 252.213 82.1375 252.213C81.285 252.171 79.5053 251.255 76.7985 249.465C73.8359 247.484 72.0989 245.812 71.5873 244.448C71.289 243.639 71.939 242.552 73.5375 241.189C75.3279 239.655 77.5445 238.601 80.1873 238.026C83.2778 237.365 86.2617 238.143 89.139 240.358Z" fill="#0D131A"/>
<path d="M68.4855 243.682C68.4216 242.617 67.6969 241.509 66.3115 240.358C64.9261 239.229 63.2104 238.303 61.1643 237.578C56.1556 235.81 51.861 235.927 48.2803 237.93C46.5326 238.889 44.7316 241.434 42.8773 245.567C41.0444 249.593 40.2238 252.703 40.4156 254.898C40.5222 256.197 41.0124 256.943 41.8862 257.134C43.911 257.539 47.545 256.74 52.7881 254.738C57.9886 252.757 62.1554 250.605 65.2885 248.283C67.5051 246.621 68.5708 245.088 68.4855 243.682ZM61.6758 238.984C63.2743 239.623 64.5958 240.422 65.6401 241.381C66.6206 242.254 67.1108 243.043 67.1108 243.746C67.1108 245.556 63.7326 248.006 56.9762 251.095C50.2198 254.184 45.4989 255.462 42.8134 254.93C42.5363 254.887 42.3658 254.493 42.3018 253.747C42.1313 251.681 42.8347 248.858 44.4119 245.279C46.0104 241.594 47.545 239.474 49.0156 238.92C53.3209 237.301 57.541 237.323 61.6758 238.984Z" fill="#0D131A"/>
<path d="M83.8324 110.752C89.9494 113.095 96.4926 114.32 103.462 114.427C109.835 114.533 116.474 113.191 123.38 110.401C128.985 108.121 133.141 105.703 135.848 103.147L140.516 98.4178C142.732 96.0745 144.384 94.4342 145.471 93.4969C147.197 92.0057 148.593 91.1856 149.659 91.0364C150.533 90.9086 151.663 91.3666 153.048 92.4105C154.348 93.4117 155.659 94.9348 156.98 96.9799C158.131 98.7693 158.749 100.005 158.835 100.687L159.89 99.6321C159.783 98.7161 159.176 97.3847 158.067 95.6378C156.852 93.6993 155.574 92.2081 154.231 91.1642C153.485 90.6104 152.643 90.2163 151.705 89.9819L149.499 89.8541C148.242 90.0245 146.718 90.8767 144.928 92.4105C143.841 93.3265 142.082 95.0627 139.652 97.619L135.049 102.284C132.385 104.777 128.335 107.12 122.9 109.314C116.165 112.041 109.686 113.351 103.462 113.245C96.6844 113.138 90.3117 111.945 84.3439 109.666C78.3761 107.408 73.9109 104.489 70.9484 100.91C70.2663 100.079 69.4564 99.4404 68.5186 98.993C67.4956 98.5031 66.4512 98.3007 65.3855 98.3859C63.8083 98.535 62.2951 99.0676 60.8458 99.9836C59.3538 100.921 58.2348 102.061 57.4889 103.403C56.5511 105.043 55.9543 107.812 55.6985 111.711C55.5067 114.821 55.5493 117.899 55.8264 120.946L56.7855 122.128C57.1692 122.533 57.329 122.447 57.2651 121.872L57.2331 121.425C56.8921 118.613 56.8068 115.684 56.9773 112.637C57.1692 108.909 57.734 106.204 58.6718 104.521C59.3325 103.349 60.3449 102.327 61.7089 101.453C63.0517 100.58 64.3944 100.09 65.7372 99.9836C67.5275 99.7919 68.9662 100.346 70.0532 101.645C73.0797 105.373 77.6728 108.409 83.8324 110.752Z" fill="#0D131A"/>
<path d="M137.03 224.892L137.158 223.838L137.35 222.783C126.458 226.511 114.619 227.033 101.831 224.349C94.243 222.773 87.4227 220.419 81.3696 217.287C76.1691 214.603 71.1178 210.353 66.2157 204.538C63.722 202.322 61.2177 199.073 58.7027 194.792C56.273 190.616 55.1007 187.698 55.186 186.036L53.9072 185.653C53.5875 187.868 54.6745 191.149 57.1681 195.495C59.5553 199.67 62.0596 202.876 64.6812 205.113C67.1109 209.352 71.1285 213.261 76.734 216.84C82.1476 220.312 88.3605 223.071 95.3726 225.116C102.577 227.225 109.717 228.301 116.793 228.344C124.38 228.407 131.126 227.257 137.03 224.892Z" fill="#0D131A"/>
<path d="M75.295 108.387L66.695 101.869C64.2013 100.378 62.0273 100.25 60.1731 101.485L59.9173 102.348C61.5798 101.24 63.4767 101.326 65.608 102.604L75.0392 109.698C79.0888 112.68 84.5024 114.959 91.2801 116.536C98.6759 118.24 105.539 118.538 111.869 117.43C119.776 116.046 126.916 113.149 133.289 108.739C136.976 106.204 140.93 102.636 145.15 98.0343L146.813 96.0212C148.39 94.3595 150.084 93.4861 151.896 93.4009C153.217 93.3157 154.528 93.6459 155.828 94.3915L155.061 93.2731C153.548 92.6766 152.279 92.4103 151.256 92.4742C149.637 92.5808 148.102 93.3903 146.653 94.9028L144.958 96.9798C140.823 101.496 136.88 105.043 133.129 107.621C126.756 111.988 119.659 114.842 111.837 116.184C105.805 117.228 99.2194 116.972 92.0794 115.417C85.0886 113.884 79.4938 111.54 75.295 108.387Z" fill="#0D131A"/>
<path d="M128.078 212.91C122.665 214.124 116.836 214.88 110.591 215.178C93.3907 216.009 79.2492 213.24 68.1661 206.87L67.6546 207.733L70.6598 209.331C81.8281 215.147 95.6286 217.511 112.061 216.425C118.072 216.041 123.635 215.232 128.75 213.996C133.268 212.91 136.103 211.866 137.254 210.865L136.998 209.746C135.826 210.769 132.853 211.823 128.078 212.91Z" fill="#0D131A"/>
<path d="M109.696 214.22C116.154 213.815 122.165 212.942 127.728 211.599C132.672 210.407 135.763 209.267 136.999 208.18L136.36 207.413C135.358 208.287 132.235 209.267 126.992 210.353C120.982 211.589 114.641 212.377 107.97 212.718C89.1715 213.634 74.8595 210.63 65.034 203.707L66.4406 206.263C77.6089 212.697 92.0275 215.349 109.696 214.22Z" fill="#0D131A"/>
<path d="M151.545 171.976C147.474 175.215 142.327 178.122 136.103 180.7C129.347 183.512 122.185 185.536 114.619 186.771C96.2467 189.818 79.3451 187.89 63.9141 180.988L64.3937 181.659L64.8093 182.362C80.9649 189.562 98.7084 191.202 118.04 187.283C125.862 185.706 133.162 183.31 139.939 180.093C146.206 177.132 151.118 173.936 154.678 170.507L153.111 171.337L151.545 171.976Z" fill="#0D131A"/>
<path d="M138.373 177.696C143.616 175.331 147.548 173.063 150.17 170.89L149.531 170.123C147.058 172.168 143.243 174.298 138.085 176.514C131.968 179.155 125.393 181.243 118.36 182.777C102.119 186.27 87.2737 185.962 73.8249 181.85L72.2903 182.393C80.2829 185.227 88.7231 186.643 97.6108 186.643C104.09 186.643 110.964 185.866 118.232 184.311C125.244 182.798 131.958 180.593 138.373 177.696Z" fill="#0D131A"/>
<path d="M156.596 135.005L155.924 134.302C152.663 137.285 148.262 140.161 142.721 142.93C136.241 146.147 129.442 148.522 122.324 150.056C104.953 153.826 86.325 151.536 66.4395 143.186V144.368C76.9897 148.863 86.7087 151.664 95.5964 152.772C104.527 153.901 113.628 153.464 122.899 151.462C129.996 149.907 136.817 147.414 143.36 143.985C148.688 141.194 153.1 138.201 156.596 135.005Z" fill="#0D131A"/>
<path d="M155.381 131.554L154.678 130.883C151.992 133.653 147.889 136.422 142.369 139.191C135.826 142.493 128.824 144.943 121.364 146.541C101.372 150.865 82.787 148.32 65.6083 138.904L65.7362 140.278C75.9667 145.646 86.6767 148.767 97.8663 149.64C106.434 150.301 114.97 149.63 123.475 147.627C130.806 145.902 137.637 143.292 143.967 139.798C148.934 137.05 152.738 134.302 155.381 131.554Z" fill="#0D131A"/>
<path d="M203.272 208.756L201.897 209.043C203.517 217.223 204.061 224.403 203.528 230.58C202.974 236.758 201.343 241.732 198.636 245.503L199.404 246.813C202.75 243.021 204.785 237.93 205.51 231.539C206.277 224.829 205.531 217.234 203.272 208.756Z" fill="#0D131A"/>
<path d="M162.127 254.131L161.52 252.661L160.017 252.181C159.356 251.883 158.866 251.702 158.546 251.638L157.779 252.501L156.948 253.3L162.127 254.131Z" fill="#0D131A"/>
<path d="M137.99 207.19C137.563 206.231 137.286 205.187 137.158 204.058C135.688 209.746 135.4 216.393 136.295 223.998C137.126 231.177 138.757 237.291 141.187 242.339L142.785 240.997C140.846 236.46 139.407 231.017 138.469 224.669C137.489 218.022 137.329 212.196 137.99 207.19Z" fill="#0D131A"/>
<path d="M158.354 253.3C158.972 252.789 159.345 252.054 159.473 251.095C159.622 249.987 159.388 248.816 158.77 247.58C157.47 245.002 155.445 243 152.695 241.573C149.477 239.911 145.971 239.538 142.177 240.454C141.452 240.625 140.77 241.477 140.131 243.011C139.662 244.161 139.31 245.407 139.076 246.749C138.671 249.178 138.511 251.308 138.596 253.14C138.682 255.59 139.193 257.113 140.131 257.71C141.666 258.69 144.532 258.668 148.731 257.646C152.887 256.623 156.095 255.175 158.354 253.3ZM151.768 242.404C154.049 243.554 155.775 245.29 156.947 247.612C157.608 248.954 157.939 250.147 157.939 251.191C157.939 251.809 157.821 252.213 157.587 252.405C155.541 254.131 152.599 255.366 148.763 256.112C145.097 256.836 142.614 256.783 141.314 255.952C140.717 255.569 140.344 254.461 140.195 252.629C140.067 250.818 140.184 248.762 140.547 246.462C140.802 244.949 141.133 243.735 141.538 242.819C141.879 242.073 142.188 241.669 142.465 241.605C145.96 240.774 149.061 241.04 151.768 242.404Z" fill="#0D131A"/>
<path d="M199.852 247.005C199.361 244.321 197.177 242.616 193.298 241.892C190.527 241.381 186.392 241.338 180.893 241.764C175.735 242.169 170.982 243.437 166.634 245.567C162.073 247.804 159.867 250.115 160.017 252.501C160.038 253.247 160.528 254.045 161.487 254.898C163.981 257.134 168.734 259.233 175.746 261.193C183.035 263.216 189.291 264.068 194.512 263.749C195.131 263.706 195.77 263.493 196.431 263.11C197.155 262.705 197.678 262.226 197.997 261.672C199.127 259.755 199.852 257.454 200.171 254.77C200.448 252.235 200.342 249.646 199.852 247.005ZM192.978 243.234C196.068 243.703 197.805 244.97 198.189 247.037C198.637 249.487 198.679 251.958 198.317 254.45C197.933 256.964 197.209 258.892 196.143 260.234C195.504 261.022 194.768 261.448 193.937 261.512C188.822 261.81 182.886 261.107 176.13 259.403C169.501 257.72 165.036 255.846 162.734 253.779C162.031 253.161 161.668 252.639 161.647 252.213C161.54 250.381 163.501 248.549 167.53 246.717C171.558 244.885 176.066 243.777 181.053 243.394C186.808 242.968 190.783 242.915 192.978 243.234Z" fill="#0D131A"/>
<path d="M181.725 176.322C179.359 175.853 176.759 175.598 173.924 175.555L173.956 176.929C177.132 176.993 180.105 177.409 182.876 178.175L181.725 176.322Z" fill="#0D131A"/>
<path d="M186.488 177.632L185.241 178.974C190.761 181.062 195.067 184.652 198.157 189.743C200.502 193.556 201.78 197.316 201.994 201.023C202.441 208.074 201.642 213.922 199.596 218.566C196.889 224.68 192.125 228.418 185.305 229.782C181.128 230.612 176.865 231.209 172.517 231.571C166.784 232.04 162.67 231.869 160.176 231.06C153.996 229.057 148.774 225.148 144.511 219.333C140.525 213.858 138.639 208.575 138.852 203.483C139.151 196.645 141.325 190.787 145.374 185.909C149.978 180.348 156.244 177.196 164.173 176.45L164.077 175.076C155.402 175.843 148.582 179.145 143.616 184.982C139.311 190.073 136.998 196.23 136.678 203.451C136.444 208.82 138.469 214.465 142.753 220.387C147.292 226.693 152.791 230.889 159.249 232.977C161.828 233.808 166.251 233.925 172.517 233.329C177.057 232.903 181.607 232.231 186.168 231.315C192.605 230.037 197.369 226.948 200.459 222.049C203.613 217.021 204.924 210.247 204.391 201.726C204.136 197.572 202.846 193.471 200.523 189.423C197.262 183.757 192.584 179.827 186.488 177.632Z" fill="#0D131A"/>
<path d="M171.622 93.6247C168.447 93.6034 165.655 94.168 163.246 95.3183C160.859 96.49 158.973 98.1729 157.587 100.367C155.733 103.371 154.827 106.864 154.87 110.848C154.913 114.363 155.584 117.1 156.884 119.06L158.099 118.453C157.14 116.493 156.66 113.926 156.66 110.752C156.66 106.982 157.481 103.797 159.122 101.198C160.337 99.238 162.085 97.7681 164.365 96.7882C166.582 95.8296 169.182 95.3609 172.166 95.3822C177.686 95.4248 182.652 96.6284 187.064 98.993C191.476 101.358 194.993 104.713 197.614 109.059C199.405 112.02 200.502 115.119 200.907 118.357C201.312 121.574 200.992 124.642 199.948 127.56C200.31 127.944 200.63 128.402 200.907 128.934C202.271 125.632 202.847 122.245 202.634 118.773C202.42 115.087 201.344 111.626 199.405 108.388C196.676 103.871 192.797 100.293 187.767 97.651C182.801 95.0307 177.42 93.6886 171.622 93.6247Z" fill="#0D131A"/>
<path d="M200.331 126.665C198.179 122.618 193.948 118.986 187.639 115.769C180.712 112.233 174.329 110.987 168.489 112.03C165.399 112.584 162.66 113.756 160.273 115.545C157.907 117.314 156.159 119.476 155.029 122.032C154.113 124.12 153.761 126.346 153.974 128.711C154.166 130.947 154.816 132.971 155.925 134.782L157.108 134.047C156.148 132.492 155.637 130.66 155.573 128.551C155.509 126.442 155.903 124.407 156.756 122.447C157.779 120.104 159.324 118.155 161.392 116.6C163.438 115.045 165.889 113.969 168.745 113.373C173.924 112.329 179.838 113.5 186.488 116.887C192.627 120.019 196.708 123.481 198.733 127.273C199.948 129.573 200.768 131.98 201.195 134.494C201.685 137.498 201.504 140.193 200.651 142.579C199.884 144.709 198.616 146.498 196.847 147.947C197.124 148.266 197.316 148.693 197.422 149.225C198.637 148.288 199.607 147.414 200.331 146.605C201.248 145.561 201.909 144.464 202.314 143.314C203.166 140.928 203.411 138.254 203.049 135.293C202.708 132.289 201.802 129.414 200.331 126.665Z" fill="#0D131A"/>
<path d="M188.12 176.865C188.908 175.438 190.23 172.413 192.084 167.79L193.171 165.17C192.723 165.681 192.116 166.107 191.349 166.448L190.997 167.343C187.949 174.927 185.775 178.516 184.475 178.111C183.559 177.835 182.631 176.727 181.694 174.788C181.012 173.361 180.415 171.699 179.903 169.803L178.433 169.835C179.029 172.008 179.711 173.936 180.479 175.619C181.694 178.303 182.919 179.826 184.155 180.188C185.37 180.572 186.692 179.464 188.12 176.865Z" fill="#0D131A"/>
<path d="M151.609 153.858C151.417 152.857 151.236 152.207 151.066 151.909C148.956 154.7 147.847 158.268 147.741 162.614C147.677 165.383 148.007 168.248 148.732 171.21C149.094 172.679 149.542 173.478 150.075 173.606C151.311 174.032 155.19 171.508 161.712 166.033L160.401 165.202C159.08 166.289 157.332 167.556 155.158 169.005C152.622 170.73 151.066 171.582 150.49 171.561C150.299 171.391 150.085 170.826 149.851 169.867C149.574 168.717 149.393 167.354 149.307 165.777L149.244 164.084C149.244 159.653 150.032 156.244 151.609 153.858Z" fill="#0D131A"/>
<path d="M163.086 167.215L161.455 166.48C161.541 168.632 162.031 171.369 162.926 174.692C163.906 178.399 164.908 180.764 165.931 181.786C166.421 182.276 166.933 182.479 167.466 182.393C168.936 182.116 170.737 180.796 172.869 178.431C175 176.024 176.812 173.276 178.304 170.187L176.801 170.538C175.416 173.244 173.743 175.577 171.782 177.536C169.991 179.305 168.489 180.306 167.274 180.54C167.146 180.561 166.976 180.466 166.762 180.252C165.953 179.422 165.153 177.483 164.365 174.437C163.661 171.71 163.235 169.303 163.086 167.215Z" fill="#0D131A"/>
<path d="M154.007 136.348C152.003 138.307 150.703 140.31 150.106 142.355C149.488 144.507 149.445 146.988 149.978 149.8C150.532 152.634 151.587 155.403 153.143 158.108C154.891 161.133 157.033 163.668 159.569 165.713C162.084 167.759 164.77 169.133 167.626 169.836C171.931 170.901 176.237 171.188 180.542 170.698C184.954 170.187 188.641 168.93 191.604 166.928C193.287 165.799 194.694 164.35 195.824 162.582C196.953 160.835 197.635 159.067 197.87 157.278C198.594 152.186 197.944 147.617 195.92 143.569C193.916 139.479 190.655 136.177 186.137 133.663C182.172 131.469 178.048 130.18 173.764 129.797C169.374 129.435 165.185 130.063 161.2 131.682C158.472 132.79 156.074 134.345 154.007 136.348ZM154.678 157.757C153.165 155.137 152.11 152.484 151.513 149.8C150.895 147.031 150.873 144.677 151.449 142.738C151.982 140.949 153.143 139.223 154.934 137.562C156.724 135.9 158.909 134.547 161.488 133.504C165.324 131.949 169.31 131.309 173.444 131.586C177.579 131.863 181.501 133.035 185.21 135.101C189.494 137.487 192.595 140.597 194.513 144.432C196.431 148.266 197.06 152.57 196.399 157.341C195.952 160.558 194.161 163.232 191.028 165.362C188.172 167.3 184.826 168.547 180.989 169.101C177.11 169.654 173.157 169.441 169.128 168.462C166.294 167.759 163.63 166.523 161.136 164.755C158.429 162.816 156.276 160.484 154.678 157.757Z" fill="#0D131A"/>
<path d="M56.3381 121.297C52.8427 118.165 48.3562 116.376 42.8786 115.929C37.1453 115.46 31.9874 116.674 27.405 119.571C22.1619 122.873 18.6451 127.88 16.8548 134.59C15.2989 140.363 15.5653 145.593 17.6541 150.279C19.4657 154.306 22.2365 157.288 25.9663 159.227L26.6057 158.012C23.5366 156.415 21.2028 153.997 19.6042 150.759C17.409 146.392 17.1106 141.236 18.7091 135.293C20.3502 129.158 23.4513 124.471 28.0124 121.233C32.0194 118.379 36.5698 117.004 41.6637 117.111C46.5232 117.196 50.6474 118.549 54.0362 121.169C57.6382 123.96 59.4605 127.507 59.5031 131.81C59.5031 132.108 59.9187 132.609 60.75 133.312C61.5172 128.646 60.0466 124.642 56.3381 121.297Z" fill="#0D131A"/>
<path d="M26.8601 149.704C25.9863 152.665 25.6346 155.52 25.8051 158.268C25.9543 160.888 26.5724 163.157 27.6594 165.074C28.6398 166.8 29.9186 168.216 31.4958 169.324C33.2648 170.56 35.3003 171.316 37.6022 171.593V170.155C33.446 168.77 30.59 166.672 29.0341 163.86C27.0733 160.43 26.9454 155.871 28.6505 150.184C30.2277 144.773 33.137 140.118 37.3784 136.22C42.3657 131.618 47.7474 129.776 53.5234 130.692C57.9566 131.395 61.2282 133.461 63.3382 136.891C64.4679 138.701 65.1819 140.757 65.4802 143.058C65.736 145.018 65.6721 146.637 65.2884 147.915L66.5992 148.298C67.0894 146.743 67.2919 145.007 67.2066 143.09C67.1001 140.448 66.418 138.116 65.1605 136.092C64.0522 134.302 62.4537 132.811 60.365 131.618C58.4042 130.489 56.1982 129.733 53.7471 129.349C47.5662 128.37 41.7689 130.276 36.3553 135.069C31.6876 139.181 28.5226 144.059 26.8601 149.704Z" fill="#0D131A"/>
<path d="M72.4825 155.871L71.939 157.629C73.6867 159.205 75.3492 161.783 76.9264 165.362C78.4183 168.77 78.8872 170.688 78.3331 171.114L74.2729 170.89L71.0119 169.995L70.7242 170.922L74.3048 171.88C76.7772 172.456 78.5036 172.637 79.484 172.424C79.889 172.36 80.1554 172.094 80.2833 171.625C80.5817 170.389 79.6119 167.652 77.374 163.413C75.2639 159.408 73.6335 156.894 72.4825 155.871Z" fill="#0D131A"/>
<path d="M53.8116 184.95L52.309 185.141L50.8384 185.333C54.6322 186.441 57.9251 187.229 60.7172 187.698C63.6798 188.166 65.3955 188.145 65.8644 187.634C66.2694 187.186 66.2161 186.079 65.7046 184.311C65.257 182.734 64.7028 181.371 64.0421 180.22L63.2109 180.732C63.8929 181.925 64.4258 183.139 64.8094 184.375C65.2357 185.695 65.2996 186.494 65.0012 186.771L61.0369 186.579C58.799 186.196 56.3905 185.653 53.8116 184.95Z" fill="#0D131A"/>
<path d="M71.651 170.634L71.0436 171.529C72.3224 173.425 73.3241 175.193 74.0488 176.833C75.0292 179.049 75.2317 180.583 74.6562 181.435C74.3792 181.776 73.1643 181.871 71.0116 181.722C68.6671 181.552 66.28 181.137 63.8503 180.476C63.7224 180.774 63.4347 181.03 62.9871 181.243C65.7578 182.053 68.422 182.628 70.9796 182.969C74.0275 183.352 75.7752 183.203 76.2228 182.521C77.4377 180.732 75.9137 176.769 71.651 170.634Z" fill="#0D131A"/>
<path d="M55.187 146.413C51.8834 147.287 48.8996 148.884 46.2354 151.206C43.4646 153.592 41.28 156.543 39.6815 160.058C37.2517 165.383 36.4312 170.208 37.2198 174.533C37.9657 178.58 39.9479 181.52 43.1662 183.352C47.2371 185.674 50.935 186.601 54.2599 186.132C57.9898 185.6 62.1672 183.235 66.7923 179.038C69.0728 176.972 70.8418 174.426 72.0993 171.401C73.2929 168.504 73.8896 165.447 73.8896 162.23V161.368C73.8044 155.041 71.8329 150.567 67.9751 147.947C64.5224 145.582 60.2597 145.071 55.187 146.413ZM47.0986 152.261C49.6349 150.045 52.4376 148.543 55.5067 147.755C58.853 146.903 62.2312 147.5 65.6413 149.545C69.7761 152.016 72.0247 155.946 72.3871 161.336C72.5362 163.743 72.2059 166.15 71.396 168.557C70.2877 171.881 68.3588 174.788 65.6094 177.281C61.0483 181.414 57.0093 183.661 53.4926 184.023C50.9137 184.3 47.7486 183.459 43.9975 181.499C40.8644 179.88 39.0207 177.174 38.4666 173.382C37.9124 169.591 38.733 165.341 40.9283 160.633C42.5055 157.288 44.5622 154.498 47.0986 152.261Z" fill="#0D131A"/>
<path d="M100.264 51.6688L100.903 54.8003C101.138 55.9293 101.33 56.4512 101.479 56.366C101.841 56.153 101.841 54.7896 101.479 52.2759C101.33 51.3599 101.479 50.6569 101.927 50.1669C102.204 49.8474 102.726 49.5385 103.493 49.2403C105.582 48.4734 108.981 48.4201 113.692 49.0805C118.018 49.6983 121.237 50.5397 123.347 51.6049C124.157 52.0096 124.636 52.1374 124.785 51.9883C124.934 51.8179 124.679 51.4877 124.018 50.9977C125.489 50.103 127.737 49.3787 130.764 48.8249L135.847 48.6012C136.955 49.5811 137.509 51.509 137.509 54.3849C137.509 56.7282 137.296 58.933 136.87 60.9994C136.529 62.6823 136.103 64.0563 135.591 65.1215C134.845 64.5889 134.43 64.4078 134.344 64.5783C134.259 64.7487 134.43 65.1641 134.856 65.8245C135.453 66.7618 136.145 68.1997 136.934 70.1383C137.978 72.6733 138.618 74.7929 138.852 76.4972C139.065 77.9245 139.161 79.0642 139.14 79.9163L138.948 82.5365L139.236 83.4312C139.385 83.8147 139.513 83.9744 139.619 83.9105C139.79 83.5058 139.971 82.8028 140.163 81.8016C140.397 80.6938 140.515 79.8311 140.515 79.2133C140.515 76.8487 140.152 74.4201 139.428 71.9277C138.66 69.2649 137.669 67.2198 136.454 65.7925C137.03 64.3226 137.531 62.8953 137.957 61.5107C138.767 58.8478 139.172 56.5045 139.172 54.4807C139.172 51.0936 138.469 48.7716 137.062 47.5147C136.273 46.833 134.408 46.7585 131.467 47.291C128.334 47.8449 125.638 48.8462 123.379 50.2947C120.352 48.8888 116.814 47.9514 112.764 47.4828C108.63 46.9928 105.401 47.1845 103.077 48.0579C102.182 48.3775 101.383 49.0272 100.68 50.0072C99.0599 48.1751 95.671 48.1219 90.5131 49.8474C86.4422 51.2108 83.3731 52.6807 81.3057 54.2571L72.6737 54.5127C70.3292 54.9174 68.7414 55.5139 67.9102 56.3021C67.5691 56.643 67.3986 57.2821 67.3986 58.2194C67.3986 59.7958 67.8249 61.8302 68.6774 64.3226C69.4873 66.7298 70.4571 68.9134 71.5867 70.8732C69.9669 75.0912 69.466 79.3411 70.0841 83.623C70.5317 86.6266 71.1072 88.48 71.8105 89.183C72.0876 89.4812 72.4393 89.4386 72.8655 89.0552C73.2918 88.6717 73.3557 88.1498 73.0574 87.4894C72.5245 86.3817 72.1196 84.4538 71.8425 81.7057C71.5015 78.1481 71.7146 74.9421 72.4819 72.0875C73.036 72.3431 73.3238 72.2899 73.3451 71.9277C73.3664 71.5869 73.2066 71.2354 72.8655 70.8732C72.4819 70.4259 71.6507 68.5406 70.3719 65.2173C69.0078 61.6385 68.3258 59.2845 68.3258 58.1555C68.3258 57.5803 68.4217 57.1968 68.6135 57.0051C69.189 56.4299 70.8408 56.0039 73.5689 55.727C76.3183 55.4287 78.9292 55.4181 81.4016 55.695C82.1476 55.7802 82.755 55.695 83.2239 55.4394C83.7354 55.1624 83.501 54.8748 82.5206 54.5766C82.7763 54.2997 83.7568 53.8097 85.4618 53.1067C87.38 52.2972 89.3089 51.6262 91.2485 51.0936C96.7047 49.5811 99.7099 49.7728 100.264 51.6688Z" fill="#0D131A"/>
<path d="M127.31 53.8736L132.586 60.9036C132.905 59.6041 133.193 58.262 133.449 56.8773C133.96 54.1293 134.014 52.5848 133.609 52.244C132.884 51.6262 130.785 52.1694 127.31 53.8736Z" fill="#0D131A"/>
<path d="M133.386 52.4997C133.493 52.6062 133.546 52.8725 133.546 53.2986C133.546 54.5767 133.173 56.8455 132.427 60.1048L127.823 54.0335C130.957 52.4997 132.811 51.9884 133.386 52.4997ZM127.152 53.5861C126.683 53.8844 126.651 54.1507 127.056 54.385C127.312 54.5554 128.122 55.5353 129.486 57.3248L132.044 60.7439C132.363 61.1912 132.598 61.3617 132.747 61.2551L132.907 60.9676C134.271 55.6206 134.58 52.6275 133.834 51.9884C132.981 51.2428 130.754 51.7754 127.152 53.5861Z" fill="#0D131A"/>
<path d="M72.3224 58.5709C72.3224 59.2739 72.8979 61.4361 74.0488 65.0576L79.1641 58.5709L75.2956 58.0596C73.3348 57.9318 72.3437 58.1022 72.3224 58.5709Z" fill="#0D131A"/>
<path d="M78.7168 58.0598C75.1575 57.4846 73.0048 57.4739 72.2588 58.0278L71.9711 58.571C71.9711 59.1036 72.2055 60.2539 72.6744 62.0221C73.1433 63.7689 73.495 64.8127 73.7295 65.1536C73.9213 65.4518 74.1024 65.569 74.273 65.5051L74.7845 65.0258C77.2995 61.4682 78.7381 59.519 79.1004 59.1782C79.7612 58.5604 79.6333 58.1876 78.7168 58.0598ZM72.6744 58.603L75.1042 58.3793L78.557 58.7947L74.209 64.3228C73.186 61.0635 72.6744 59.1569 72.6744 58.603Z" fill="#0D131A"/>
<path d="M108.001 62.1818C107.937 61.6067 107.83 61.4256 107.681 61.6386C107.532 61.8516 107.468 62.3096 107.489 63.0126C107.532 64.1204 107.788 65.356 108.256 66.7193C108.725 68.1679 109.216 69.0413 109.727 69.3396C110.217 69.6378 110.505 69.6804 110.59 69.4674C110.676 69.2757 110.558 68.9561 110.239 68.5088C109.94 68.0614 109.503 67.0389 108.928 65.4412C108.374 63.8435 108.065 62.757 108.001 62.1818Z" fill="#0D131A"/>
<path d="M98.8265 64.3866C98.8904 63.3215 98.8158 62.7037 98.6027 62.5333C98.3896 62.3629 98.2191 62.8422 98.0912 63.9712C97.8354 66.3145 97.3985 68.1679 96.7804 69.5313C96.4181 70.3195 96.2689 70.8307 96.3328 71.0651C96.4181 71.2994 96.7484 71.1609 97.3239 70.6497C97.8567 70.181 98.2404 69.265 98.4748 67.9016L98.8265 64.3866Z" fill="#0D131A"/>
<path d="M108.193 70.1383C106.851 69.6057 105.668 69.3714 104.645 69.4353C102.044 69.6057 99.9663 70.4472 98.4104 71.9597C97.8989 72.4497 97.6964 72.7799 97.8029 72.9503C97.8882 73.0994 98.144 73.0035 98.5702 72.6627C98.9752 72.3218 99.7638 71.9597 100.936 71.5763C102.215 71.1502 103.376 70.8946 104.421 70.8093L107.394 70.9691C108.289 71.1182 109.046 71.3206 109.664 71.5763L110.623 71.8319C110.751 71.7893 110.676 71.6402 110.399 71.3845C110.037 71.0224 109.302 70.607 108.193 70.1383Z" fill="#0D131A"/>
<path d="M117.816 76.5613C118.477 76.263 118.828 75.8902 118.871 75.4429C118.914 74.9742 118.519 74.7399 117.688 74.7399C116.835 74.7399 115.866 75.3044 114.779 76.4334C113.798 77.4347 113.148 78.3826 112.829 79.2774C112.594 79.9803 112.626 80.3425 112.924 80.3638C113.18 80.3638 113.447 80.1508 113.724 79.7247C114.512 78.4892 115.876 77.4347 117.816 76.5613Z" fill="#0D131A"/>
<path d="M104.133 78.8619C101.618 79.2028 99.6357 80.0975 98.1864 81.5461C97.6536 82.0787 97.3978 82.4834 97.4191 82.7603C97.4405 83.016 97.7602 82.9201 98.3783 82.4728C100.233 81.0455 102.449 80.2466 105.028 80.0762C107.436 79.9058 109.664 80.2786 111.71 81.1946L112.733 81.2585C112.797 81.0242 112.53 80.7259 111.934 80.3638C109.525 78.9791 106.925 78.4785 104.133 78.8619Z" fill="#0D131A"/>
<path d="M97.1001 81.0668C96.5034 80.1934 95.5762 79.4158 94.3187 78.7341C92.9333 77.9885 91.7718 77.7222 90.834 77.9353C90.5782 77.9992 90.397 78.2868 90.2905 78.798C90.2052 79.3306 90.3544 79.5969 90.7381 79.5969C91.4201 79.5969 92.2833 79.7567 93.3276 80.0762C94.713 80.481 95.7361 81.0455 96.3968 81.7698C96.8231 82.2384 97.1108 82.3449 97.26 82.0893C97.4305 81.8337 97.3772 81.4928 97.1001 81.0668Z" fill="#0D131A"/>
<path d="M114.715 70.6495L114.332 69.8187L118.008 66.5594C120.459 64.5995 122.719 63.2148 124.786 62.4053C125.383 63.1083 125.937 63.9072 126.448 64.8019C127.28 66.2931 127.802 67.8162 128.015 69.3713L121.429 69.7228L116.985 70.3619L114.715 70.6495ZM127.376 64.4184C127.141 63.9924 126.512 63.2468 125.489 62.1816C126.214 61.8195 126.64 61.4573 126.768 61.0952C126.896 60.6904 126.289 60.7224 124.946 61.1911C122.772 61.958 120.502 63.2574 118.136 65.0895C116.111 66.6659 114.683 68.0612 113.852 69.2755C113.405 69.9572 113.255 70.3087 113.405 70.33L113.788 70.1702L114.14 70.7773L113.852 71.0969C113.831 71.3099 114.225 71.3844 115.035 71.3205L121.397 70.7134L128.463 70.3619C129.677 70.4471 130.296 70.3619 130.317 70.1063C130.359 69.8506 129.859 69.6057 128.814 69.3713C128.622 67.3263 128.143 65.6753 127.376 64.4184Z" fill="#0D131A"/>
<path d="M82.5847 65.0897C81.0288 64.8341 80.2508 64.8873 80.2508 65.2495C80.2721 65.5903 80.7837 65.8353 81.7854 65.9844C81.1034 66.4318 80.464 67.2626 79.8672 68.4768C79.1212 69.9254 78.7802 71.374 78.8441 72.8226C78.0768 72.9504 77.6825 73.1422 77.6612 73.3978C77.6399 73.6321 78.0768 73.7493 78.972 73.7493L86.7088 73.8452L94.1899 74.1008C94.808 74.186 95.0637 74.1114 94.9572 73.8771L94.6055 73.5256C94.8186 73.2487 94.9572 72.9824 95.0211 72.7268L95.5966 72.7587C95.7245 72.6522 95.5966 72.3966 95.2129 71.9918C94.062 70.7989 92.3463 69.5207 90.0657 68.1573C87.2523 66.4744 84.7586 65.4518 82.5847 65.0897ZM79.6434 72.8546C79.7926 71.6829 80.2082 70.4048 80.8902 69.0201C81.4657 67.8271 82.0731 66.8898 82.7125 66.2081C84.8652 66.5276 87.3056 67.5182 90.0337 69.1798C91.7815 70.245 93.2521 71.3101 94.4457 72.3753L94.03 73.3019L86.2293 72.9504L79.6434 72.8546Z" fill="#0D131A"/>
<path d="M121.333 63.7794L120.757 64.2268C121.866 64.9937 122.42 66.0588 122.42 67.4222C122.42 68.4447 122.089 69.3075 121.429 70.0105L122.452 69.8507C122.899 69.0838 123.123 68.2743 123.123 67.4222C123.123 65.9097 122.526 64.6954 121.333 63.7794Z" fill="#0D131A"/>
<path d="M115.13 68.7004L114.587 69.2756C114.864 69.8934 115.237 70.4047 115.706 70.8094L116.537 70.5857C115.855 70.1171 115.386 69.4886 115.13 68.7004Z" fill="#0D131A"/>
<path d="M92.9439 70.6817C92.9439 71.9385 92.4323 72.9504 91.4093 73.7173L92.3684 73.7812C93.1357 72.993 93.5513 72.0238 93.6152 70.8734L92.8799 70.1704L92.9439 70.6817Z" fill="#0D131A"/>
<path d="M84.1832 70.6816C84.1832 71.7681 84.5456 72.7373 85.2702 73.5894H86.2613C85.494 72.9504 85.1104 71.9704 85.1104 70.6497C85.1104 69.0306 85.7604 67.8909 87.0605 67.2306L86.2293 66.911C85.6112 67.3371 85.121 67.8696 84.7587 68.5087C84.3751 69.1904 84.1832 69.9147 84.1832 70.6816Z" fill="#0D131A"/>
<path d="M88.8511 70.4898C88.8511 71.1076 88.947 71.6189 89.1389 72.0236C89.3307 72.4497 89.5758 72.6627 89.8742 72.6627C90.1512 72.6627 90.3857 72.4497 90.5775 72.0236C90.7693 71.5976 90.8652 71.0863 90.8652 70.4898C90.8652 69.8933 90.7693 69.3927 90.5775 68.988C90.3857 68.5619 90.1512 68.3489 89.8742 68.3489C89.5971 68.3489 89.352 68.5619 89.1389 68.988C88.947 69.3927 88.8511 69.8933 88.8511 70.4898Z" fill="#0D131A"/>
<path d="M116.474 67.9974C116.474 68.53 116.58 68.9986 116.793 69.4034C116.985 69.7868 117.23 69.9786 117.529 69.9786C117.806 69.9786 118.051 69.7868 118.264 69.4034C118.456 69.0199 118.552 68.5513 118.552 67.9974C118.552 67.4435 118.456 66.9749 118.264 66.5914C118.051 66.208 117.806 66.0162 117.529 66.0162C117.23 66.0162 116.985 66.208 116.793 66.5914C116.58 66.9749 116.474 67.4435 116.474 67.9974Z" fill="#0D131A"/>
<path d="M86.0388 69.1797C86.0388 69.8614 86.3585 70.2023 86.9979 70.2023C87.275 70.2023 87.4988 70.117 87.6693 69.9466C87.8611 69.7549 87.957 69.4993 87.957 69.1797C87.957 68.8602 87.8611 68.6045 87.6693 68.4128C87.4988 68.1998 87.2857 68.0933 87.0299 68.0933C86.7528 68.0933 86.5184 68.1998 86.3266 68.4128C86.1347 68.6045 86.0388 68.8602 86.0388 69.1797Z" fill="white"/>
<path d="M118.999 66.5275C118.999 66.8045 119.106 67.0495 119.319 67.2625C119.511 67.4542 119.756 67.5501 120.054 67.5501C120.353 67.5501 120.598 67.4542 120.79 67.2625C121.003 67.0495 121.109 66.8045 121.109 66.5275C121.109 66.2506 121.003 66.0163 120.79 65.8245C120.577 65.6115 120.331 65.505 120.054 65.505C119.777 65.505 119.532 65.6115 119.319 65.8245C119.106 66.0163 118.999 66.2506 118.999 66.5275Z" fill="white"/>
<path d="M80.6026 84.0384C80.7518 83.3354 80.6985 83.0052 80.4428 83.0478C80.187 83.1117 79.8566 83.5697 79.4517 84.4219L79.0041 86.2752L78.8443 87.9688C78.9295 89.6943 79.5476 90.8873 80.6985 91.5476C81.679 92.0802 83.2029 92.3145 85.2703 92.2506C86.5278 92.208 87.9345 91.9098 89.4904 91.3559L94.1261 89.5665C95.8311 88.9913 97.7387 88.4374 99.8487 87.9049L105.188 86.7865L112.221 86.3072L119.798 86.403L125.841 86.6906C128.824 86.7119 130.807 85.9131 131.787 84.294C132.107 83.7189 132.267 83.0691 132.267 82.3448C132.267 81.7058 132.128 81.0241 131.851 80.2998C131.489 79.3838 130.998 78.6914 130.38 78.2227C129.762 77.7328 129.4 77.5304 129.293 77.6156C129.229 77.7008 129.357 77.9671 129.677 78.4145C130.018 78.9044 130.295 79.682 130.508 80.7471C130.743 81.9614 130.7 82.8348 130.38 83.3674C129.507 84.8373 127.876 85.5616 125.489 85.5403L119.83 85.4444L111.806 85.2846L104.325 85.7959C101.66 86.1793 98.3142 87.0634 94.2859 88.4481L89.4904 90.1097C87.8492 90.621 86.6343 90.8766 85.8457 90.8766C84.7588 90.8979 83.7464 90.7594 82.8086 90.4612C81.7429 90.1204 80.9756 89.6197 80.5067 88.9594C79.9739 88.1925 80.0058 86.5521 80.6026 84.0384Z" fill="#0D131A"/>
<path d="M79.7402 84.3899C73.9003 84.4965 70.959 87.0208 70.9164 91.9631C70.9164 93.7951 71.3214 95.7763 72.1313 97.9066C72.8346 99.7386 73.6445 101.209 74.561 102.316C77.8433 106.321 83.2996 109.048 90.9298 110.497C96.7058 111.583 102.556 111.828 108.481 111.231C119.65 110.124 128.25 106.843 134.282 101.39C140.036 96.213 142.008 90.5252 140.196 84.326C139.599 82.2597 138.544 80.7046 137.031 79.6607C135.262 78.4252 132.992 77.9459 130.221 78.2228C130.008 78.6062 130.243 78.8619 130.925 78.9897C132.481 78.8832 133.951 79.3305 135.337 80.3318C136.722 81.333 137.777 82.7283 138.502 84.5178C139.397 86.7333 139.418 89.1724 138.566 91.8353C137.67 94.5833 135.976 97.1823 133.482 99.6321C127.536 105.448 119.042 108.899 108.002 109.985L103.846 110.209L94.9581 109.794C86.0277 108.75 79.6976 105.938 75.9677 101.358C74.7315 99.8451 73.8257 97.9598 73.2502 95.7017C72.7174 93.5928 72.5895 91.7288 72.8666 90.1097C73.0797 88.7677 73.7724 87.6706 74.9447 86.8185C76.0956 85.9877 77.5449 85.4977 79.2926 85.3486L79.5164 84.9332L79.7402 84.3899Z" fill="#0D131A"/>
</g>
<defs>
<clipPath id="clip0_2621_785">
<rect width="208.67" height="264.225" fill="white" transform="matrix(-1 0 0 1 208.835 0.0649414)"/>
</clipPath>
</defs>
</svg>
