<svg width="181" height="209" viewBox="0 0 181 209" fill="none" xmlns="http://www.w3.org/2000/svg">
<path d="M15.7724 136.62C16.3928 147.236 20.029 156.145 26.681 163.349C32.5403 169.691 40.1057 174.154 49.3772 176.739C57.9593 179.152 66.4036 179.583 74.71 178.032C83.0854 176.481 89.3238 173.275 93.4253 168.416C92.7015 166.727 91.926 164.297 91.0988 161.126C89.8925 156.507 89.3927 152.871 89.5995 150.217C85.5669 154.594 80.5693 157.955 74.6066 160.299C68.2992 162.78 61.9402 163.694 55.5294 163.039C39.8472 161.453 28.0252 151.63 20.0635 133.57L19.1329 135.121C18.2367 136.12 17.1166 136.62 15.7724 136.62Z" fill="#EF8200"/>
<path d="M93.425 168.571C84.2914 176.774 73.1415 180.237 59.9753 178.962C47.9466 177.79 36.9345 173.103 26.9393 164.9C37.1069 176.722 50.0318 182.805 65.714 183.15C71.9524 183.253 77.829 182.374 83.3436 180.513C88.5136 178.721 92.3738 176.412 94.9243 173.585L93.425 168.571Z" fill="#DDD583"/>
<path d="M91.8743 163.504C84.7742 171.052 74.71 174.74 61.6817 174.568C49.3772 174.395 38.0032 170.966 27.5599 164.279C36.1765 172.896 46.999 177.756 60.0273 178.859C73.4692 179.996 84.6019 176.567 93.4253 168.57L91.8743 163.504Z" fill="#CF7100"/>
<path d="M107.591 45.681C108.004 47.8868 109.176 52.0573 111.106 58.1923C112.864 63.8103 113.778 67.1019 113.847 68.0669C113.95 69.4111 113.605 72.6337 112.813 77.7348C112.192 81.9052 111.589 85.4725 111.003 88.4366C108.039 103.981 104.713 114.717 101.025 120.645C96.6478 127.642 93.6837 133.071 92.1327 136.931C89.272 144.065 88.5482 150.562 89.9613 156.422L93.9422 170.329C94.9762 173.707 95.5276 176.498 95.5966 178.704L92.598 185.115C90.8057 189.665 90.3404 192.68 91.2021 194.162C92.4084 196.161 93.8732 197.799 95.5966 199.074C97.699 200.625 100.025 201.521 102.576 201.762C105.575 202.038 108.746 201.555 112.089 200.315C115.708 199.005 117.534 197.437 117.569 195.61L117.414 187.441C117.448 183.512 117.862 180.669 118.655 178.911L121.912 175.499C124.186 172.81 125.565 170.518 126.048 168.623L133.854 167.227L136.284 169.036C137.973 170.449 138.904 171.69 139.076 172.759L137.37 176.171C136.301 178.653 135.991 180.307 136.439 181.134C137.06 182.271 139.851 183.736 144.815 185.529C150.191 187.459 154.775 188.424 158.567 188.424C162.703 188.424 166.563 187.217 170.147 184.805C173.766 182.392 174.387 180.531 172.009 179.221L165.546 175.602C168.338 173.775 170.285 171.173 171.388 167.796C173.525 161.075 170.303 153.906 161.72 146.289C163.444 143.462 164.719 138.689 165.546 131.968C166.546 124.247 166.391 117.061 165.081 110.409L168.286 113.821C169.906 115.407 171.13 116.079 171.957 115.837C172.543 115.665 173.008 114.769 173.353 113.149L173.663 110.719C177.282 111.925 179.229 112.063 179.505 111.133C179.815 110.064 179.833 109.03 179.557 108.031C179.074 106.307 177.747 104.291 175.576 101.982C174.232 98.9488 172.353 95.5539 169.941 91.7971C165.115 84.3523 159.997 78.8894 154.586 75.4083C156.895 74.9602 158.739 74.1502 160.118 72.9784C162.565 70.9449 165.598 67.3431 169.217 62.1732C174.249 55.0731 176.713 49.1965 176.61 44.5436C176.575 42.1999 175.559 39.5804 173.56 36.6852C171.767 33.9968 170.354 32.5837 169.32 32.4459L163.788 18.4352C164.03 17.9872 164.185 17.4529 164.254 16.8326C164.426 15.6262 164.133 14.6095 163.375 13.7823C160.204 10.3356 157.102 7.78511 154.069 6.13072C147.038 2.27048 138.835 1.02968 129.46 2.40834C122.67 3.3734 116.897 8.21594 112.14 16.9359C107.177 26.0696 105.661 35.6512 107.591 45.681Z" fill="#EF8200"/>
<path d="M176.455 108.134C174.215 106.479 172.44 105.583 171.13 105.445C170.096 105.342 169.682 105.652 169.889 106.376C170.13 107.065 170.906 107.668 172.216 108.185L175.318 108.547L176.455 108.134Z" fill="#CF7100"/>
<path d="M172.113 116.147C169.493 112.011 166.926 108.53 164.41 105.704L164.771 109.995C168.838 114.2 171.286 116.251 172.113 116.147Z" fill="#CF7100"/>
<path d="M147.142 74.3737C142.248 73.512 138.388 72.4091 135.561 71.0649L132.614 71.0132C132.442 71.8059 132.959 72.995 134.165 74.5805C137.302 78.8198 140.68 80.9223 144.299 80.8878C147.056 80.8534 149.158 80.3364 150.606 79.3368C151.812 78.5096 152.829 77.1482 153.656 75.2526L147.142 74.3737Z" fill="#CF7100"/>
<path d="M125.118 171C129.081 164.383 130.012 157.92 127.909 151.613C128.289 155.508 126.738 158.92 123.256 161.85C120.051 164.503 115.984 166.192 111.055 166.916C106.092 167.674 101.715 167.175 97.9236 165.417C93.96 163.59 91.4784 160.678 90.4788 156.68L91.5645 161.591L93.5291 169.398C94.0117 170.776 94.4597 172.551 94.8733 174.723C95.3214 176.929 95.5282 178.359 95.4937 179.014C95.4248 179.944 94.2357 183.115 91.9264 188.527C93.9944 184.873 98.5095 183.202 105.472 183.512C112.503 183.822 116.587 186.028 117.725 190.129C117.725 183.787 117.983 180.082 118.5 179.014C120.913 176.98 123.119 174.309 125.118 171Z" fill="#CF7100"/>
<path d="M158.153 167.226C156.016 165.882 154.827 164.004 154.586 161.591C154.345 159.247 155.069 156.818 156.757 154.302C153.414 158.541 148.692 161.901 142.592 164.383C139.214 165.727 136.181 166.589 133.493 166.968C134.802 167.485 136.129 168.622 137.473 170.38L139.128 172.81C138.301 173.913 137.663 175.257 137.215 176.843C136.801 178.325 136.629 179.652 136.698 180.823C136.767 181.857 138.077 182.909 140.627 183.977C142.213 184.666 145.504 185.787 150.502 187.338L157.119 188.423L161.1 188.268C157.55 187.338 156.275 185.718 157.274 183.408C158.171 181.272 160.842 178.842 165.288 176.119C167.597 174.706 169.407 172.259 170.716 168.777L172.009 163.969C170.217 166.485 167.925 168.002 165.133 168.519C162.582 169.001 160.256 168.571 158.153 167.226Z" fill="#CF7100"/>
<path d="M142.489 82.8524C139.559 86.6782 136.819 91.3656 134.268 96.9147C127.272 111.942 124.256 127.262 125.221 142.876L127.961 151.148C129.34 157.627 128.874 163.228 126.565 167.95C132.08 167.743 137.836 166.296 143.833 163.607C155.793 158.196 162.875 149.252 165.081 136.775C166.839 126.918 166.391 115.785 163.737 103.377C162.221 96.4494 160.222 89.8491 157.74 83.5762C156.913 82.5767 155.896 81.5599 154.69 80.5259C152.277 78.5269 150.14 77.5618 148.279 77.6308C147.038 77.6652 145.108 79.4058 142.489 82.8524Z" fill="#FFF697"/>
<path d="M143.574 80.8362L148.175 80.5777C149.416 80.233 150.553 79.5437 151.587 78.5097L150.295 77.9927L147.658 78.0444C146.417 78.5269 145.056 79.4575 143.574 80.8362Z" fill="#DDD583"/>
<path d="M146.418 149.648C139.076 151.165 132.735 150.682 127.392 148.201C128.116 148.718 128.581 151.13 128.788 155.439C129.029 160.678 128.288 164.883 126.565 168.053C132.011 168.398 138.008 166.882 144.557 163.504C154.759 158.265 161.531 149.614 164.875 137.551C160.98 143.892 154.828 147.925 146.418 149.648Z" fill="#DDD583"/>
<path d="M171.026 48.9375L168.596 51.0572C166.597 52.6082 164.616 53.78 162.651 54.5728L160.118 55.1932C162.668 55.9514 164.857 57.175 166.684 58.8638C168.51 55.8308 169.958 52.522 171.026 48.9375Z" fill="#922F00"/>
<path d="M160.118 55.1931L143.626 56.7958C136.526 57.2439 132.063 57.3645 130.236 57.1577C131.477 59.7427 135.096 62.4655 141.093 65.3263C147.71 68.5316 153.346 69.6518 157.999 68.6867C158.722 68.5144 159.86 67.601 161.411 65.9466C163.306 63.9821 165.064 61.6211 166.684 58.8638C164.857 57.1749 162.669 55.9514 160.118 55.1931Z" fill="#ED8599"/>
<path d="M166.374 58.9671C166.615 58.588 165.633 57.8297 163.427 56.6923L160.067 55.1414L140.938 56.744L130.236 57.1576C131.511 58.9499 133.459 60.6905 136.078 62.3793C137.353 63.241 138.525 63.9131 139.594 64.3956C142.213 62.0863 146.435 60.3113 152.26 59.0705C158.188 57.7953 162.893 57.7608 166.374 58.9671Z" fill="#CE7486"/>
<path d="M128.84 25.6726C130.529 29.2916 131.614 33.014 132.097 36.8397C132.648 41.0102 132.407 44.8704 131.373 48.4205C133.303 48.3171 134.354 48.0758 134.527 47.6967C135.423 45.3529 135.32 41.734 134.217 36.8397C133.045 31.6008 131.253 27.8785 128.84 25.6726Z" fill="white"/>
<path d="M124.445 23.9148C121.309 24.1906 119.689 27.8095 119.586 34.7718C119.482 40.4932 119.93 44.543 120.93 46.9212C121.206 47.5761 122.55 48.0413 124.962 48.3171C127.03 48.5239 129.167 48.5583 131.373 48.4205C132.407 44.8704 132.649 41.0102 132.097 36.8398C131.615 33.014 130.529 29.2916 128.84 25.6726C127.461 24.3629 125.996 23.777 124.445 23.9148Z" fill="#0D131A"/>
<path d="M169.217 32.3418C168.562 29.5156 167.735 26.7583 166.736 24.0699C164.737 18.6587 162.858 16.3149 161.1 17.0387C159.481 17.7281 159.567 21.6572 161.359 28.8263C163.186 35.9953 164.806 39.3558 166.219 38.9077C167.218 38.563 168.011 37.3739 168.597 35.3404L169.217 32.3418Z" fill="#0D131A"/>
<path d="M173.146 47.1797C172.767 48.0413 171.285 49.2304 168.7 50.747C170.044 51.9878 170.992 52.522 171.543 52.3497C172.06 52.1773 172.595 50.454 173.146 47.1797Z" fill="white"/>
<path d="M166.477 59.1741L165.236 58.8639L163.789 59.019C163.582 59.3637 163.771 60.3977 164.357 62.121L166.477 59.1741Z" fill="white"/>
<path d="M148.485 68.118L148.123 66.4636C147.813 65.3607 147.469 64.7748 147.089 64.7059C146.469 64.6369 145.763 65.2918 144.97 66.6704L148.485 68.118Z" fill="white"/>
<path d="M147.297 56.3822L140.99 56.8475C142.851 59.0878 144.143 60.208 144.867 60.208C145.625 60.208 146.435 58.9327 147.297 56.3822Z" fill="white"/>
<path d="M162.341 185.631C161.928 185.045 161.187 184.442 160.118 183.822L158.67 183.046C157.533 183.253 156.62 184.115 155.93 185.631L155.258 187.906C156.361 188.94 158.412 189.698 161.411 190.181L166.064 190.336C166.27 190.129 166.081 189.698 165.495 189.043L164.616 188.061L170.096 188.837L173.146 188.526C173.353 188.32 173.095 187.82 172.371 187.027L171.233 185.942L175.318 186.303C178.11 186.407 179.574 186.148 179.712 185.528C179.885 184.942 178.73 183.718 176.248 181.857C173.698 179.962 172.026 179.289 171.233 179.841C170.372 180.392 169.7 181.65 169.217 183.615L168.08 182.478C167.184 181.719 166.305 181.375 165.443 181.444C164.581 181.513 163.806 182.236 163.117 183.615L162.341 185.631Z" fill="white"/>
<path d="M27.7673 89.3149L27.1986 91.4863C27.0952 92.5203 27.2158 93.4336 27.5605 94.2263C27.8017 94.8467 27.8362 95.5361 27.6639 96.2943C27.4915 97.1215 27.1124 97.8798 26.5265 98.5691L26.1129 96.863L22.7524 100.224L22.8041 103.067L21.8218 104.825C21.4427 105.48 21.2186 106.6 21.1497 108.185L18.3062 109.943L20.2708 113.252C20.6499 113.872 20.8567 114.872 20.8912 116.25C20.9257 116.94 20.9084 117.56 20.8395 118.112L16.2382 115.32L16.1348 116.354V117.956C16.514 120.024 16.445 121.351 15.928 121.937C14.7562 123.316 14.0496 124.419 13.8083 125.246C13.4981 126.315 13.6877 127.555 14.377 128.969C15.1008 130.451 15.48 132.002 15.5144 133.622C15.5144 135.035 15.2904 135.965 14.8423 136.413L17.1688 136.258C18.065 135.845 18.9783 135 19.9089 133.725C20.7361 132.519 22.2182 131.64 24.3551 131.088L28.3877 130.364C29.2493 130.192 30.1972 129.365 31.2311 127.883C32.3685 126.263 32.8166 124.764 32.5753 123.385C32.403 122.317 31.8688 120.886 30.9726 119.094C30.2144 117.474 29.8352 116.44 29.8352 115.992C29.8697 115.544 30.2489 114.648 30.9726 113.304C31.6964 112.028 32.0583 111.132 32.0583 110.615C32.0583 110.133 31.6964 109.012 30.9726 107.255C30.2489 105.566 29.9214 104.532 29.9904 104.153L30.6624 102.188C31.0416 101.223 31.2311 100.465 31.2311 99.9133C31.2311 99.3618 30.9554 98.6036 30.4039 97.6385L29.5251 95.829C29.4561 94.8984 29.6112 93.6749 29.9904 92.1584C30.5418 89.8146 29.9387 87.7984 28.1809 86.1095L28.1292 87.3503C28.0947 88.2809 27.9741 88.9357 27.7673 89.3149Z" fill="#EFE908"/>
<path d="M11.688 91.2279C10.6541 92.0206 10.1026 93.0374 10.0336 94.2782C9.93025 96.3806 10.1198 98.7071 10.6023 101.258L8.84456 99.7583C7.5693 98.7933 6.77657 98.4141 6.46637 98.6209C5.94938 99.0001 6.1734 102.119 7.13846 107.979L6.20788 107.255C5.55301 106.807 5.15664 106.686 5.01877 106.893C4.81197 107.203 4.93261 109.874 5.38068 114.906L1.193 108.03L1.2447 110.098C1.27917 111.58 1.26193 112.476 1.193 112.787L1.08961 115.01L1.5549 117.75C2.34763 119.956 2.62337 121.352 2.3821 121.937C2.24424 122.317 2.27869 122.834 2.48549 123.488C2.72676 124.247 3.10589 124.85 3.62289 125.298L5.94938 127.263C6.9489 128.193 7.51759 128.951 7.65546 129.537L8.48266 131.243L10.5506 132.898L14.8934 136.362C15.307 135.879 15.5138 134.949 15.5138 133.57C15.4794 131.95 15.1002 130.416 14.3764 128.969C13.6871 127.556 13.4975 126.315 13.8077 125.246C14.049 124.419 14.7555 123.316 15.9274 121.937C16.4444 121.352 16.5133 120.025 16.1342 117.957V116.354L16.2376 115.32L20.8389 118.112C20.9078 117.56 20.925 116.94 20.8906 116.251C20.8561 114.872 20.6493 113.872 20.2702 113.252L18.3056 109.943L21.1491 108.185C21.218 106.6 21.442 105.48 21.8212 104.825L22.8035 103.067L22.7518 100.224L26.0605 96.9148C24.6819 94.7435 23.9581 93.3131 23.8892 92.6238L24.0443 89.5735C24.1132 87.9191 23.803 86.5921 23.1137 85.5926C22.4588 84.6276 21.218 83.2144 19.3913 81.3532L16.5478 78.4064C16.2031 77.8894 15.8412 76.8209 15.4621 75.201C15.0485 73.3743 14.8934 71.9439 14.9968 70.9099L13.7043 73.7534C12.8427 75.9592 12.5152 77.8549 12.722 79.4404L14.0145 85.179C14.5315 87.2815 14.566 88.6429 14.1179 89.2633L11.688 91.2279Z" fill="#E50020"/>
<path d="M169.786 182.116L169.321 183.77L171.492 185.942L176.042 186.2L179.351 185.942C178.903 185.39 177.179 184.58 174.181 183.512C172.664 182.995 171.199 182.529 169.786 182.116Z" fill="#DBDCDC"/>
<path d="M172.681 189.044C168.855 186.286 165.684 184.58 163.168 183.925L162.703 185.631L164.564 188.113L172.681 189.044Z" fill="#DBDCDC"/>
<path d="M165.702 190.75C164.599 189.991 163.375 189.199 162.031 188.372C159.377 186.717 157.499 185.735 156.396 185.425L155.775 186.562C155.431 187.424 155.431 188.061 155.775 188.475C156.327 189.199 157.998 189.767 160.79 190.181L165.702 190.75Z" fill="#DBDCDC"/>
<path d="M26.3198 96.9665L25.7511 96.0876C25.3375 96.9838 24.3035 98.1384 22.6491 99.5515C22.2355 99.8962 22.0805 100.603 22.1839 101.671C22.2872 102.74 22.2183 103.377 21.9771 103.584C21.4256 104.067 21.0809 104.601 20.9431 105.187L20.8397 107.048C20.8397 107.875 20.1848 108.496 18.8751 108.909C17.1862 109.426 17.1173 110.581 18.6683 112.373C19.2887 113.028 19.7367 113.855 20.0125 114.855C20.2193 115.682 20.271 116.406 20.1676 117.026L17.2207 115.268C16.359 114.579 15.8765 114.251 15.7731 114.286C15.6008 114.32 15.4801 114.889 15.4112 115.992L15.7214 119.197C15.8593 120.404 15.6352 121.3 15.0493 121.886C13.9119 123.023 13.2398 124.126 13.033 125.195C12.7228 126.539 13.0847 128.107 14.1187 129.899C14.4289 130.485 14.6357 131.243 14.7391 132.174C14.877 133.346 14.8253 134.535 14.584 135.741C14.5151 136.189 14.6874 136.517 15.101 136.724C15.5491 136.93 15.7731 136.896 15.7731 136.62L16.2901 133.57C16.428 132.398 16.135 131.019 15.4112 129.434C14.7908 128.055 14.5151 126.918 14.584 126.022C14.6874 124.953 15.2044 123.954 16.135 123.023C16.9966 122.162 17.3241 121.196 17.1173 120.128C16.8071 118.543 16.7554 117.371 16.9622 116.612L19.1853 118.06C20.2193 118.68 20.8741 118.904 21.1499 118.732C21.3567 118.56 21.4601 117.836 21.4601 116.561C21.529 114.389 20.9948 112.649 19.8574 111.339C19.4782 110.925 19.3576 110.581 19.4955 110.305C19.6333 110.029 20.1503 109.633 21.0465 109.116C21.46 108.875 21.7185 108.599 21.8219 108.289L21.9254 107.1C21.9254 106.1 22.3389 105.152 23.1661 104.256C23.5453 103.877 23.6831 103.222 23.5797 102.292L23.6831 100.275L24.9756 98.7243L26.3198 96.9665Z" fill="#EFE908"/>
<path d="M123.825 25.3107C123.033 25.4486 122.43 26.1896 122.016 27.5338C121.637 28.9125 121.568 30.5668 121.809 32.497C122.119 34.8062 122.757 36.564 123.722 37.7703C124.515 38.7354 125.273 39.149 125.997 39.0111C126.824 38.8043 127.444 37.891 127.858 36.271C128.203 34.7545 128.254 33.1518 128.013 31.463C127.668 29.395 127.065 27.7923 126.204 26.6549C125.445 25.6209 124.653 25.1728 123.825 25.3107Z" fill="white"/>
<path d="M161.307 18.0211C161.031 18.0555 160.859 18.7621 160.79 20.1408C160.756 21.485 160.859 22.7602 161.1 23.9665C161.548 26.0345 162.083 27.6028 162.703 28.6712C163.254 29.6018 163.771 30.0154 164.254 29.912C164.668 29.8086 164.926 29.2744 165.029 28.3093C165.167 27.103 164.961 25.4831 164.409 23.4495C163.927 21.6918 163.375 20.3131 162.755 19.3136C162.203 18.4174 161.721 17.9866 161.307 18.0211Z" fill="white"/>
<path d="M132.407 38.0806C131.649 36.7709 130.822 36.0643 129.926 35.9609C130.236 38.4425 130.167 40.4588 129.719 42.0098C129.236 43.5608 128.392 44.4225 127.186 44.5948C126.255 44.7327 125.307 44.3191 124.342 43.354C123.205 42.2511 122.395 40.6311 121.912 38.4942C120.913 39.7695 120.379 41.4411 120.31 43.5091L121.447 47.1798C122.929 48.007 124.98 48.4723 127.599 48.5757L131.115 48.4206C131.942 46.6972 132.407 44.4569 132.511 41.6996L132.407 38.0806Z" fill="#007F78"/>
<path d="M162.703 29.757C162.324 30.4464 162.134 31.1357 162.134 31.825L163.272 35.2889C164.202 37.5637 165.116 38.7183 166.012 38.7528C166.942 38.7872 167.718 37.96 168.338 36.2712L169.217 32.859C169.321 32.3765 169.2 31.3942 168.855 29.9121L168.338 27.8441L167.718 27.2237L166.374 26.4482C166.994 28.3784 167.235 30.0845 167.097 31.5665C166.96 32.8762 166.563 33.6345 165.908 33.8413C165.357 34.0481 164.771 33.7896 164.151 33.0658C163.461 32.2731 162.979 31.1701 162.703 29.757Z" fill="#007F78"/>
<path d="M133.7 1.06355C121.533 2.26987 113.244 9.35272 108.832 22.3121C107.005 27.7233 106.161 33.5309 106.299 39.7349C106.402 45.7665 107.402 51.2639 109.297 56.2271C110.848 60.2941 111.796 62.8791 112.141 63.982C113.141 66.9806 113.709 69.445 113.847 71.3751C114.088 75.0975 114.502 76.9242 115.088 76.8553C115.639 76.7863 115.76 74.9079 115.45 71.22C115.14 66.8772 113.744 61.7245 111.262 55.7618C109.435 51.3501 108.453 46.2663 108.315 40.5104C108.177 34.6166 108.97 29.0331 110.693 23.7597C114.829 10.9726 122.55 4.01043 133.855 2.87303C138.887 2.3905 144.022 3.1143 149.261 5.04442C154.535 7.00901 158.705 9.73186 161.773 13.213C162.565 14.1091 163.082 14.9363 163.324 15.6946C163.599 16.5562 163.548 17.4868 163.169 18.4863C163.1 18.6931 163.272 18.8827 163.686 19.055L164.409 19.0033C165.305 16.4528 164.806 14.1263 162.91 12.0239C159.601 8.3015 155.241 5.42355 149.83 3.39003C144.384 1.32204 139.008 0.54655 133.7 1.06355Z" fill="#0D131A"/>
<path d="M121.964 46.456C120.482 42.6647 119.999 38.2185 120.516 33.1175C121.033 27.8441 122.36 25.0868 124.497 24.8455C126.841 24.5698 129.116 26.6378 131.321 31.0495C133.7 35.8403 134.561 41.1826 133.906 47.0764C133.527 47.6968 131.563 47.9208 128.013 47.7485C124.428 47.5761 122.412 47.1453 121.964 46.456ZM135.302 47.49C136.233 42.0098 135.509 36.5469 133.131 31.1012C130.684 25.5521 127.754 22.9499 124.342 23.2945C120.723 23.6392 118.913 27.3788 118.913 34.5133C118.913 40.5794 119.603 44.836 120.981 47.2832C121.567 48.3516 124.049 48.9548 128.426 49.0927C132.803 49.2305 135.095 48.6963 135.302 47.49Z" fill="#0D131A"/>
<path d="M161.617 17.7109C162.651 17.7109 164.064 19.6583 165.857 23.553C167.649 27.4822 168.545 30.5841 168.545 32.8589V32.9106C168.545 34.1514 168.217 35.3577 167.563 36.5296C166.977 37.6325 166.494 38.1323 166.115 38.0289C164.702 37.6498 163.272 34.1686 161.824 27.5856C160.376 21.0025 160.307 17.7109 161.617 17.7109ZM166.787 22.5707C164.719 18.09 162.927 15.9531 161.41 16.1599C159.136 16.4357 158.808 20.3131 160.428 27.7924C162.014 35.2371 163.875 39.149 166.012 39.5282C166.77 39.666 167.58 38.9078 168.441 37.2534C169.269 35.6679 169.7 34.1859 169.734 32.8072C169.768 30.2567 168.786 26.8445 166.787 22.5707Z" fill="#0D131A"/>
<path d="M166.322 46.3009C166.632 45.5081 166.598 44.9739 166.218 44.6982C165.839 44.4569 165.477 44.7499 165.133 45.5771L164.874 47.1281C164.84 47.7485 164.909 48.1104 165.081 48.2138C165.357 48.3861 165.77 47.7485 166.322 46.3009Z" fill="#0D131A"/>
<path d="M152.829 49.0409C151.967 48.6618 151.484 48.7307 151.381 49.2477C151.278 49.7302 151.657 50.1955 152.518 50.6436C153.725 51.2295 154.414 51.4363 154.586 51.264C154.69 51.1261 154.552 50.7815 154.173 50.23C153.759 49.6785 153.311 49.2822 152.829 49.0409Z" fill="#0D131A"/>
<path d="M169.321 31.3079C169.148 31.1701 169.011 31.3596 168.907 31.8766C168.804 32.3936 168.838 32.7211 169.011 32.8589C173.043 36.5468 175.266 40.028 175.68 43.3023C176.231 47.4038 174.094 53.2631 169.269 60.8802C164.478 68.4628 160.222 72.7883 156.499 73.8568C154.845 74.3048 152.346 74.3048 149.003 73.8568C145.694 73.3742 142.282 72.547 138.766 71.3752C136.388 70.5825 135.147 70.4101 135.044 70.8582C134.906 71.2718 136.043 71.9267 138.456 72.8228C142.041 74.167 145.711 75.0803 149.468 75.5629C152.811 75.942 155.293 75.9075 156.913 75.4595C160.842 74.3565 165.357 69.8931 170.458 62.0692C175.731 54.0386 178.075 47.6278 177.489 42.837C177.214 40.9413 176.335 38.9595 174.853 36.8915C173.405 34.7891 171.561 32.9279 169.321 31.3079Z" fill="#0D131A"/>
<path d="M128.22 21.6401C129.357 22.5018 130.167 23.1911 130.65 23.7081C131.235 24.363 131.752 25.173 132.201 26.138C132.683 27.2754 133.166 27.7924 133.648 27.689C134.131 27.5511 134.148 26.879 133.7 25.6727C132.907 23.6392 131.46 22.0537 129.357 20.9164C128.323 20.3994 127.685 20.2443 127.444 20.4511C127.237 20.6923 127.496 21.0887 128.22 21.6401Z" fill="#0D131A"/>
<path d="M159.602 15.0742C159.912 14.3504 159.946 13.9196 159.705 13.7817C159.464 13.6439 159.119 13.8851 158.671 14.5055C157.499 15.9876 157.017 17.9694 157.223 20.451C157.327 21.6229 157.637 22.1743 158.154 22.1054C158.671 22.0709 158.878 21.485 158.774 20.3476C158.636 18.383 158.912 16.6252 159.602 15.0742Z" fill="#0D131A"/>
<path d="M175.317 43.0438C175.076 41.7341 174.835 41.0792 174.594 41.0792C174.318 41.1137 174.197 41.803 174.232 43.1472C174.232 44.2501 173.921 45.1635 173.301 45.8873C172.198 47.1281 170.389 48.6963 167.873 50.592C165.391 52.4532 163.633 53.5733 162.599 53.9524C160.945 54.5384 155.913 55.1588 147.503 55.8136L131.838 56.5374C130.942 56.503 130.235 56.3479 129.718 56.0721L128.064 54.6245C127.271 53.7973 126.789 53.5044 126.616 53.7456C126.409 53.9524 126.599 54.5384 127.185 55.5034C127.667 56.2962 128.236 56.8821 128.891 57.2612C129.58 57.6404 130.459 57.8471 131.528 57.8816L146.883 57.1578C155.706 56.5374 161.117 55.8653 163.116 55.1415C164.254 54.7624 166.218 53.5216 169.01 51.4192C171.802 49.3167 173.628 47.714 174.49 46.6111C174.8 46.1975 175.042 45.646 175.214 44.9567C175.386 44.2329 175.421 43.5953 175.317 43.0438Z" fill="#0D131A"/>
<path d="M170.148 51.6259L169.321 51.6776C167.976 55.3999 165.943 59.0189 163.22 62.5345C160.704 65.7743 158.688 67.6011 157.171 68.0146C154.069 68.8418 149.726 68.1353 144.143 65.895C138.352 63.5512 133.872 60.5354 130.701 56.8475L129.719 56.7958C129.236 56.8992 129.064 57.0199 129.202 57.1577C132.372 61.1903 137.094 64.5335 143.367 67.1875C149.433 69.738 154.173 70.5479 157.585 69.6173C159.377 69.1348 161.634 67.1358 164.357 63.6202C167.218 59.9667 169.372 56.1582 170.82 52.1946C170.854 51.9878 170.63 51.7982 170.148 51.6259Z" fill="#0D131A"/>
<path d="M173.612 47.4382C173.612 47.2315 173.371 47.1281 172.888 47.1281C172.44 47.1281 172.216 47.2315 172.216 47.4382C172.216 47.8518 172.095 48.6446 171.854 49.8164C171.613 51.0917 171.406 51.7466 171.234 51.781C171.027 51.8155 170.699 51.6604 170.251 51.3157L169.372 50.3851L168.39 51.3674L170.096 52.5565L171.544 53.0218C171.923 52.8839 172.371 52.0912 172.888 50.6436C173.371 49.265 173.612 48.1965 173.612 47.4382Z" fill="#0D131A"/>
<path d="M141.041 56.6925C140.662 56.9338 140.524 57.1406 140.627 57.3129L142.747 59.536C143.781 60.3287 144.539 60.7251 145.022 60.7251C145.435 60.7251 145.987 60.2426 146.676 59.2775C147.4 58.3125 147.865 57.4508 148.072 56.6925C148.106 56.4857 147.9 56.3306 147.452 56.2272C146.969 56.1238 146.711 56.1755 146.676 56.3823L145.849 58.3986C145.435 59.1569 145.142 59.536 144.97 59.536C144.694 59.5705 144.16 59.2258 143.367 58.502L141.765 56.5891L141.041 56.6925Z" fill="#0D131A"/>
<path d="M166.58 59.2774C166.753 58.9672 166.735 58.7776 166.529 58.7087L164.926 58.3985C164.133 58.364 163.633 58.4502 163.427 58.657C163.22 58.8638 163.203 59.4497 163.375 60.4148C163.513 61.3454 163.702 62.0002 163.944 62.3794C164.116 62.6206 164.443 62.4311 164.926 61.8107L164.254 60.1563L164.15 59.2774C164.323 59.1051 164.943 59.2257 166.012 59.6393C166.218 59.7082 166.408 59.5876 166.58 59.2774Z" fill="#0D131A"/>
<path d="M147.297 64.1889C147.021 64.12 146.607 64.344 146.056 64.861L144.505 66.5671C144.367 66.7394 144.453 66.929 144.763 67.1358C145.039 67.3081 145.246 67.3081 145.384 67.1358C146.211 65.8261 146.78 65.2057 147.09 65.2746C147.262 65.3091 147.435 65.671 147.607 66.3603L147.814 68.0147C147.814 68.2215 148.003 68.3249 148.382 68.3249C148.762 68.3249 148.951 68.2043 148.951 67.963C148.951 67.4115 148.779 66.6877 148.434 65.7916C148.021 64.7921 147.641 64.2579 147.297 64.1889Z" fill="#0D131A"/>
<path d="M155.31 74.8389C155.138 74.7355 154.931 74.9596 154.69 75.511L154.535 76.4416C158.705 79.4402 162.152 82.6801 164.874 86.1612C167.494 89.5044 170.82 94.8295 174.852 102.136C176.714 104.204 177.954 106.134 178.575 107.927C179.092 109.34 179.109 110.219 178.627 110.563C177.972 111.08 176.266 110.891 173.508 109.995L172.784 109.943L172.681 110.925C172.681 113.372 172.319 114.699 171.595 114.906C171.078 115.044 170.165 114.475 168.855 113.2C167.511 111.959 166.339 110.563 165.34 109.012C165.133 109.15 164.995 109.392 164.926 109.736L165.03 110.667C165.615 111.839 166.667 113.131 168.183 114.544C169.907 116.13 171.165 116.785 171.957 116.509C173.336 116.13 174.008 114.441 173.974 111.442C175.352 111.994 176.662 112.287 177.903 112.321C179.075 112.356 179.85 112.166 180.229 111.753C180.781 111.167 180.815 110.046 180.333 108.392C179.712 106.255 178.282 103.894 176.042 101.309C172.216 93.9678 168.649 88.2809 165.34 84.2483C162.582 80.8361 159.239 77.6997 155.31 74.8389Z" fill="#0D131A"/>
<path d="M174.439 104.618C175.542 106.238 175.921 107.238 175.577 107.617C175.232 107.927 174.146 107.772 172.32 107.151C171.286 106.703 170.7 106.634 170.562 106.945C170.458 107.289 170.906 107.686 171.906 108.134C174.388 109.271 176.094 109.581 177.024 109.064C178.093 108.444 177.541 106.721 175.37 103.894C174.646 102.964 174.146 102.602 173.871 102.809C173.56 102.981 173.75 103.584 174.439 104.618Z" fill="#0D131A"/>
<path d="M155.103 74.9424L154.276 75.0458C153.828 75.3215 153.656 75.5455 153.759 75.7179C163.031 96.8113 166.701 115.389 164.771 131.45C162.255 152.716 149.52 164.779 126.565 167.64C126.358 167.674 126.186 167.95 126.048 168.467C125.876 169.019 125.91 169.277 126.151 169.243C150.623 166.485 164.168 154.112 166.787 132.122C168.718 115.716 164.823 96.6562 155.103 74.9424Z" fill="#0D131A"/>
<path d="M159.498 86.0062C158.188 83.1799 156.586 80.9569 154.69 79.3369C152.829 77.7515 150.933 76.9587 149.003 76.9587C146.418 76.9587 143.506 79.2852 140.266 83.9382C137.198 88.3154 134.32 94.0196 131.632 101.051C125.393 117.422 123.119 131.381 124.808 142.928L125.686 144.375L126.462 145.151C124.704 132.57 127.048 118.077 133.493 101.671C136.078 95.0536 138.835 89.5735 141.765 85.2307C144.729 80.8534 147.142 78.6648 149.003 78.6648C150.347 78.6648 151.915 79.3886 153.708 80.8362C155.879 82.594 157.654 84.9722 159.033 87.9708C159.136 88.1776 159.257 87.9535 159.395 87.2987C159.567 86.6093 159.601 86.1785 159.498 86.0062Z" fill="#0D131A"/>
<path d="M115.037 70.8063C115.071 70.5651 114.847 69.7206 114.364 68.273C113.848 66.8599 113.572 66.2568 113.537 66.4635C111.435 81.4909 109.436 92.6753 107.54 100.017C105.024 109.977 101.595 118.456 97.2519 125.453C90.1863 136.827 87.5496 147.408 89.3419 157.196C89.721 159.196 90.7894 162.987 92.5472 168.57C93.9948 173.086 94.7703 176.808 94.8737 179.738C94.9771 182.495 95.3046 183.805 95.856 183.667C96.373 183.529 96.5626 182.047 96.4247 179.221C96.2179 175.981 95.4424 172.069 94.0982 167.485C92.5128 162.177 91.5649 158.523 91.2547 156.524C89.8761 147.529 92.6506 137.206 99.5784 125.556C103.887 118.318 107.127 110.219 109.298 101.257C109.815 99.1894 111.728 89.0391 115.037 70.8063Z" fill="#0D131A"/>
<path d="M119.069 178.342C118.449 178.652 118.104 178.911 118.035 179.117C117.105 181.496 116.674 184.977 116.743 189.561C116.777 193.834 116.553 196.333 116.071 197.057C115.243 198.298 113.624 199.28 111.211 200.004C108.798 200.728 106.265 201.004 103.611 200.831C96.8211 200.418 92.8575 197.643 91.7201 192.508C91.4444 191.232 92.082 188.768 93.633 185.114C95.2874 181.185 96.1318 179.031 96.1663 178.652C96.2007 178.445 96.0456 178.032 95.701 177.411C95.3908 176.791 95.2184 176.601 95.184 176.843C95.0806 178.049 94.0983 180.651 92.2371 184.649C90.5827 188.268 89.8761 190.957 90.1174 192.714C90.9101 198.367 95.2012 201.503 102.991 202.124C106.093 202.365 109.057 202.089 111.883 201.296C114.709 200.504 116.622 199.401 117.622 197.988C118.414 196.816 118.673 193.852 118.397 189.095C118.121 184.167 118.604 180.53 119.845 178.187L119.069 178.342Z" fill="#0D131A"/>
<path d="M125.221 141.221C123.946 138.912 123.118 137.878 122.739 138.119C122.395 138.395 122.808 139.739 123.98 142.152C127.22 148.873 128.323 155.387 127.289 161.694C126.255 168.036 123.084 173.706 117.776 178.704C115.881 180.496 115.088 181.582 115.398 181.961C115.674 182.34 116.777 181.668 118.707 179.944C124.566 174.775 128.116 168.984 129.357 162.573C130.667 155.749 129.288 148.632 125.221 141.221Z" fill="#0D131A"/>
<path d="M162.187 145.564C162.014 145.461 161.756 145.685 161.411 146.236C161.101 146.753 161.032 147.081 161.204 147.219C163.72 149.011 166.012 151.717 168.08 155.336C170.286 159.127 171.286 162.418 171.079 165.21C170.907 167.382 169.942 169.553 168.184 171.724C166.495 173.861 164.41 175.516 161.928 176.687C159.791 177.721 158.826 178.411 159.033 178.755C159.205 179.135 160.463 178.842 162.807 177.877C165.599 176.705 167.943 174.947 169.838 172.603C171.768 170.259 172.82 167.83 172.992 165.314C173.268 161.764 172.113 157.903 169.528 153.733C167.357 150.217 164.909 147.494 162.187 145.564Z" fill="#0D131A"/>
<path d="M139.8 173.43C139.938 173.258 139.783 173.017 139.334 172.706C138.921 172.396 138.645 172.327 138.507 172.5C137.335 174.154 136.508 175.791 136.026 177.411C135.543 179.1 135.509 180.479 135.922 181.547C136.336 182.719 138.559 184.098 142.592 185.683C146.9 187.406 151.191 188.475 155.465 188.888C155.706 188.923 155.844 188.682 155.878 188.165C155.947 187.648 155.861 187.372 155.62 187.337C151.449 186.924 147.469 185.942 143.677 184.391C140.265 182.977 138.249 181.685 137.628 180.513C137.318 179.893 137.353 178.928 137.732 177.618C138.145 176.205 138.835 174.809 139.8 173.43Z" fill="#0D131A"/>
<path d="M165.961 175.033C165.754 174.964 165.478 175.171 165.133 175.653C164.789 176.136 164.72 176.394 164.927 176.429C165.857 176.773 167.029 177.325 168.442 178.083C169.855 178.876 170.941 179.565 171.699 180.151L172.682 179.996C173.164 179.755 173.319 179.565 173.147 179.427C172.251 178.704 171.113 177.894 169.735 176.998C168.184 176.032 166.926 175.378 165.961 175.033Z" fill="#0D131A"/>
<path d="M139.646 175.498C140.37 177.153 140.904 177.911 141.248 177.773C141.593 177.635 141.524 176.705 141.042 174.981C140.49 173.12 139.491 171.362 138.043 169.708C136.664 168.019 135.372 167.037 134.166 166.761C133.959 166.727 133.58 166.899 133.028 167.278C132.477 167.657 132.304 167.864 132.511 167.898C133.407 168.105 134.596 168.95 136.078 170.432C137.698 172.086 138.887 173.775 139.646 175.498Z" fill="#0D131A"/>
<path d="M169.579 180.565C169.062 181.427 168.717 182.409 168.545 183.512C168.51 183.719 168.717 183.856 169.165 183.925C169.613 183.96 169.872 183.874 169.941 183.667L170.716 181.599C171.164 180.91 171.526 180.565 171.802 180.565C172.836 180.53 174.232 181.185 175.989 182.53C177.713 183.805 178.505 184.666 178.368 185.115C178.23 185.459 177.351 185.614 175.731 185.58L171.388 185.115C171.181 185.08 171.026 185.287 170.923 185.735C170.819 186.183 170.871 186.424 171.078 186.459L178.006 186.821C179.557 186.648 180.367 186.355 180.436 185.942C180.573 185.046 179.436 183.65 177.023 181.754C174.645 179.858 172.853 178.928 171.647 178.962C170.888 178.997 170.199 179.531 169.579 180.565Z" fill="#0D131A"/>
<path d="M163.323 185.838C163.358 184.942 163.582 184.115 163.996 183.357C164.478 182.564 164.978 182.202 165.495 182.271C166.425 182.409 167.804 183.339 169.631 185.063C171.423 186.717 172.25 187.734 172.112 188.113C172.009 188.423 170.975 188.423 169.01 188.113L164.409 187.131C164.202 187.062 164.099 187.251 164.099 187.699C164.099 188.182 164.202 188.44 164.409 188.475C166.098 189.026 168.028 189.388 170.199 189.561C172.44 189.733 173.681 189.578 173.922 189.095C174.267 188.371 173.353 186.872 171.182 184.597C169.01 182.254 167.184 180.978 165.702 180.772C164.771 180.634 163.944 181.082 163.22 182.116C162.462 183.15 162.065 184.391 162.031 185.838C162.031 186.045 162.238 186.148 162.651 186.148C163.099 186.148 163.323 186.045 163.323 185.838Z" fill="#0D131A"/>
<path d="M166.891 191.06C167.27 190.439 166.374 188.888 164.203 186.407C161.997 183.891 160.239 182.581 158.929 182.478C157.964 182.374 156.965 183.098 155.931 184.649C154.897 186.131 154.518 187.372 154.793 188.371C155.035 189.302 157.068 190.095 160.894 190.75L166.891 191.06ZM165.133 189.974L160.894 189.509C158.137 188.923 156.672 188.371 156.499 187.854C156.293 187.269 156.465 186.476 157.016 185.476C157.568 184.477 158.154 183.994 158.774 184.029C159.636 184.098 160.963 185.045 162.755 186.872C164.478 188.596 165.271 189.629 165.133 189.974Z" fill="#0D131A"/>
<path d="M20.9428 133.415C20.8739 133.208 20.5982 133.208 20.1156 133.415C19.6331 133.622 19.4263 133.828 19.4952 134.035C23.2865 143.031 28.4565 150.131 35.0051 155.335C40.8989 159.988 47.5165 162.815 54.8578 163.814C61.6477 164.745 68.2653 164.021 74.7105 161.643C81.0868 159.299 86.3084 155.715 90.3755 150.889C90.5133 150.717 90.4617 150.234 90.2204 149.442C89.9447 148.649 89.7379 148.339 89.6 148.511C85.1883 153.75 79.7771 157.541 73.3663 159.885C67.0589 162.229 60.5965 162.866 53.9789 161.798C47.0856 160.66 40.8472 157.817 35.2636 153.267C29.1631 148.304 24.3895 141.687 20.9428 133.415Z" fill="#0D131A"/>
<path d="M16.3927 136.672C16.3583 136.465 16.0825 136.396 15.5655 136.465C15.0485 136.534 14.8073 136.672 14.8417 136.879C16.2893 148.839 20.5287 158.782 27.5599 166.709C33.6949 173.603 41.4671 178.497 50.8764 181.392C59.3207 183.943 67.7822 184.563 76.2609 183.253C84.4984 181.978 90.8058 179.169 95.183 174.826C95.3209 174.688 95.252 174.275 94.9762 173.585C94.7005 172.896 94.4937 172.62 94.3558 172.758C90.2543 176.86 84.2227 179.6 76.2609 180.978C68.0235 182.426 59.8204 182.012 51.6519 179.738C42.4838 177.187 34.9012 172.603 28.904 165.986C22.0108 158.368 17.8403 148.597 16.3927 136.672Z" fill="#0D131A"/>
<path d="M17.5299 145.978L17.685 148.563C20.9938 157.559 26.2844 164.745 33.5568 170.122C39.9331 174.878 47.3434 177.911 55.7876 179.221C63.4737 180.427 70.8667 180.065 77.9668 178.135C84.9635 176.274 90.2024 173.292 93.6835 169.191C93.8214 169.019 93.7524 168.657 93.4767 168.105C93.201 167.588 92.9942 167.416 92.8563 167.588C89.4097 171.621 84.2052 174.585 77.243 176.481C70.1429 178.376 62.7671 178.704 55.1155 177.463C46.7057 176.119 39.3472 173.017 33.0398 168.157C25.8708 162.608 20.7008 155.215 17.5299 145.978Z" fill="#0D131A"/>
<path d="M6.93216 101.257V99.6548C7.03556 99.448 7.39746 99.5858 8.01786 100.068C9.70671 101.481 10.6718 102.085 10.913 101.878C11.1198 101.706 11.1198 100.62 10.913 98.6208C10.4994 94.3469 11.3956 91.693 13.6014 90.659C14.532 90.2454 15.0318 89.6078 15.1007 88.7461C15.1696 88.0913 14.9628 86.6437 14.4803 84.4034C13.9289 81.7494 13.6531 79.7504 13.6531 78.4062C13.6531 76.9931 13.9289 75.2008 14.4803 73.0294C14.756 74.9251 15.0835 76.3727 15.4626 77.3722C15.8417 78.3717 16.3587 79.1472 17.0136 79.6987C19.5641 81.9045 21.3219 83.783 22.287 85.3339C23.1142 86.6781 23.476 88.074 23.3726 89.5216C23.2348 90.9003 23.252 91.9515 23.4244 92.6753L24.355 94.6916L25.2338 96.0875C25.5096 96.6045 25.6991 97.2593 25.8025 98.0521C25.9749 99.2239 26.1644 99.8271 26.3712 99.8616C26.5436 99.896 26.9572 99.4135 27.612 98.414C28.3014 97.4144 28.3875 95.8462 27.8705 93.7093C27.5948 92.6753 27.681 91.5551 28.129 90.3488C28.5771 89.177 28.6805 88.2291 28.4392 87.5053C28.9218 87.9534 29.2837 88.7634 29.5249 89.9352C29.7662 91.2105 29.68 92.3134 29.2664 93.244C28.8873 94.0712 28.8183 95.1052 29.0596 96.346L29.68 98.2072C30.1281 99.0688 30.3521 99.8443 30.3521 100.534L29.9385 102.395C29.5249 103.705 29.4387 104.704 29.68 105.393C30.6795 107.772 31.1793 109.426 31.1793 110.357C31.1793 111.115 30.8174 112.045 30.0936 113.148C29.3698 114.217 29.0424 115.199 29.1113 116.095L29.9902 118.835L31.0242 120.852C31.3344 121.61 31.5067 122.42 31.5412 123.282C31.6101 124.695 31.2138 126.073 30.3521 127.417C29.4904 128.865 28.4392 129.727 27.1984 130.002L22.3387 131.398C20.9945 131.95 19.8398 132.777 18.8748 133.88C17.8408 134.983 16.9447 135.586 16.1864 135.689C15.3592 135.827 14.4631 135.396 13.498 134.397C12.5674 133.397 11.5507 132.622 10.4477 132.07C9.62054 131.691 8.94844 130.83 8.43145 129.485C7.91445 128.107 7.39745 127.28 6.88046 127.004C5.53627 126.246 4.5712 125.539 3.98527 124.884C3.15808 123.954 2.81341 122.868 2.95128 121.627C3.05468 120.869 2.88235 119.697 2.43428 118.112C1.98622 116.526 1.79667 115.354 1.8656 114.596V111.701C1.7622 110.598 1.60709 109.719 1.40029 109.064L2.64109 111.494L4.24377 114.389C5.0365 115.94 5.58797 116.698 5.89817 116.664C6.20836 116.664 6.29453 115.871 6.15666 114.286L5.74307 111.08L5.48458 107.978C6.51857 108.806 7.19066 109.15 7.50086 109.012C7.77659 108.875 7.86276 108.271 7.75936 107.203L6.93216 101.257ZM12.464 76.2865L12.2055 79.647C12.24 80.5776 12.6708 82.5939 13.498 85.6958C14.0495 87.6604 13.8772 88.8495 12.981 89.2631C11.1198 90.0903 9.98244 91.4173 9.56885 93.244C9.15525 94.8295 9.25865 97.087 9.87905 100.017C7.67319 97.8108 6.34623 97.1559 5.89817 98.0521C5.38117 98.9827 5.6052 101.998 6.57026 107.1C5.5018 106.203 4.8297 106.014 4.55397 106.531C4.17484 107.186 4.24377 109.081 4.76077 112.218L3.15809 109.943L2.1241 107.927C1.57263 106.514 1.1935 105.79 0.986698 105.755C0.710966 105.755 0.555871 106.565 0.521404 108.185L0.7282 111.08C0.797133 112.39 0.710966 113.459 0.469701 114.286C0.159503 115.251 0.331836 116.578 0.986698 118.267C1.67603 119.99 1.90005 121.231 1.65879 121.989C1.21072 123.54 1.74496 124.901 3.26148 126.073C5.36393 127.659 6.5875 128.831 6.93216 129.589L7.86275 131.657C8.37974 132.519 8.96569 133.087 9.62055 133.363C10.9303 133.914 11.9298 134.569 12.6191 135.328C14.2735 137.016 15.5488 137.809 16.4449 137.706C17.2032 137.637 18.3922 136.706 20.0122 134.914C21.9768 132.708 24.6479 131.398 28.0256 130.985C29.4043 130.812 30.6278 129.951 31.6963 128.4C32.6958 126.952 33.2473 125.453 33.3507 123.902C33.4541 122.833 33.006 121.351 32.0065 119.456C31.007 117.595 30.5244 116.423 30.5589 115.94C30.5934 115.32 30.8346 114.751 31.2827 114.234L32.3167 112.942C33.006 111.632 32.6097 109.099 31.1276 105.342C30.714 104.377 30.7312 103.446 31.1793 102.55C31.6963 101.481 31.9548 100.62 31.9548 99.965C31.9203 99.379 31.6274 98.5518 31.0759 97.4834L30.3521 95.7256C30.2142 95.0018 30.2487 94.1574 30.4555 93.1923C30.8346 91.5034 30.8174 90.0386 30.4038 88.7978C30.1625 88.143 29.6111 87.1607 28.7494 85.8509C28.2324 85.0582 27.905 84.6791 27.7671 84.7136C27.5948 84.748 27.4914 85.2478 27.4569 86.2128L27.5086 87.6604C27.4742 88.5221 27.2674 89.4355 26.8882 90.4005C26.4746 91.5034 26.5091 92.8132 26.9916 94.3297C27.3018 95.2258 27.2501 96.1909 26.8365 97.2249L25.1821 94.0195C24.7341 93.2268 24.5273 92.4168 24.5617 91.5896L24.7685 89.3665C24.7685 86.7471 24.0447 84.6619 22.5972 83.1109C21.7355 82.1458 20.0811 80.6637 17.634 78.6647C16.6689 77.4928 16.0658 75.5455 15.8245 72.8226C15.5488 70.3755 15.3075 69.1347 15.1007 69.1003C14.825 69.0313 14.2218 70.2721 13.2912 72.8226C12.9465 73.7532 12.6708 74.9078 12.464 76.2865Z" fill="#0D131A"/>
<path d="M128.84 25.5692L127.857 25.4141C127.409 25.4485 127.254 25.5519 127.392 25.7243C129.632 28.1714 131.011 32.0661 131.528 37.4084C132.011 42.3371 131.632 45.9561 130.391 48.2653C130.287 48.4721 130.442 48.6444 130.856 48.7823L131.632 48.6789C133.079 45.8871 133.51 41.9407 132.924 36.8397C132.338 31.6697 130.977 27.9129 128.84 25.5692Z" fill="#0D131A"/>
<path d="M159.446 54.8313C159.205 54.8313 158.843 55.0036 158.36 55.3483C157.878 55.693 157.74 55.8653 157.947 55.8653C159.36 55.9687 160.876 56.3651 162.496 57.0544C163.944 57.7092 165.202 58.4675 166.27 59.3292C166.408 59.467 166.598 59.3636 166.839 59.019C167.08 58.6743 167.132 58.433 166.994 58.2952C164.444 56.1927 161.928 55.0381 159.446 54.8313Z" fill="#0D131A"/>
<path d="M116.328 198.143C116.122 197.419 115.674 196.764 114.984 196.178C114.157 195.523 113.347 195.316 112.554 195.558C111.486 195.902 110.676 196.643 110.125 197.781C109.642 198.78 109.504 199.642 109.711 200.366C110.056 201.538 110.934 203.02 112.348 204.812C113.726 206.501 114.64 207.363 115.088 207.397C115.639 207.431 116.07 206.173 116.38 203.623C116.69 201.107 116.673 199.28 116.328 198.143Z" fill="white"/>
<path d="M105.833 200.004C105.971 199.004 105.885 198.126 105.574 197.367C105.195 196.437 104.523 195.868 103.558 195.661C101.697 195.317 100.387 196.023 99.6289 197.781C99.1808 198.849 99.0774 200.711 99.3187 203.364C99.56 205.984 99.9219 207.397 100.404 207.604C100.887 207.811 101.8 207.138 103.144 205.587C104.627 203.864 105.523 202.003 105.833 200.004Z" fill="white"/>
<path d="M95.907 198.918C95.6657 196.678 94.9764 195.024 93.839 193.955C92.7705 192.956 91.8572 192.887 91.0989 193.748C90.4096 194.541 89.7719 196.54 89.186 199.746C88.5656 202.882 88.445 204.536 88.8241 204.709C89.2722 204.916 90.5819 204.123 92.7533 202.331C94.9247 200.538 95.9759 199.401 95.907 198.918Z" fill="white"/>
<path d="M124.031 75.5111L112.295 93.7611C113.812 99.1723 117.155 104.584 122.325 109.995C124.152 111.89 126.926 114.32 130.649 117.284L134.888 121.007C136.646 122.454 137.818 123.075 138.404 122.868C138.921 122.73 139.369 121.679 139.748 119.714L140.162 116.819L142.798 118.474C144.659 119.473 145.831 119.732 146.314 119.249C146.762 118.801 146.848 117.733 146.572 116.044L146.055 113.665C148.606 113.665 149.864 113.269 149.829 112.476C149.795 111.925 149.14 111.115 147.865 110.046C146.279 108.702 145.194 107.599 144.608 106.738C143.195 99.8789 139.334 92.6237 133.027 84.9722C129.891 81.1464 126.892 77.9927 124.031 75.5111Z" fill="#EF8200"/>
<path d="M138.146 122.765C136.181 119.111 134.699 116.681 133.7 115.475L123.877 106.531C118.604 101.809 114.933 97.6731 112.865 94.123C113.278 97.6731 115.536 102.05 119.638 107.255C123.429 112.08 126.824 115.251 129.822 116.768C134.234 120.318 137.009 122.317 138.146 122.765Z" fill="#CF7100"/>
<path d="M110.9 196.643C109.59 198.608 109.624 200.866 111.003 203.416C112.175 205.587 113.381 206.863 114.622 207.242L111.985 201.503C111.193 199.332 110.831 197.712 110.9 196.643Z" fill="#DBDCDC"/>
<path d="M104.902 196.592L103.61 201.607C103.058 203.606 102.421 205.415 101.697 207.035C102.317 207.173 103.127 206.415 104.127 204.76C105.161 203.071 105.747 201.486 105.885 200.004C105.988 198.729 105.85 197.781 105.471 197.16L104.902 196.592Z" fill="#DBDCDC"/>
<path d="M95.0807 196.282L92.3923 199.849C90.5656 202.365 89.6005 204.037 89.4971 204.864L92.5474 202.641C94.5809 200.952 95.5977 199.677 95.5977 198.815C95.5977 197.953 95.5115 197.281 95.3392 196.799L95.0807 196.282Z" fill="#DBDCDC"/>
<path d="M112.865 196.385C114.174 196.282 115.036 196.781 115.45 197.884C115.863 198.918 115.95 200.607 115.708 202.951C115.536 205.157 115.277 206.329 114.933 206.466C114.588 206.604 113.83 205.863 112.658 204.243C111.486 202.589 110.797 201.245 110.59 200.211C110.452 199.384 110.607 198.574 111.055 197.781C111.503 196.954 112.107 196.488 112.865 196.385ZM112.555 195.092C111.417 195.368 110.521 196.075 109.866 197.212C109.28 198.212 109.039 199.263 109.142 200.366C109.28 201.4 110.176 202.985 111.831 205.122C113.485 207.259 114.623 208.293 115.243 208.224C116.001 208.19 116.57 206.656 116.949 203.623C117.294 200.624 117.242 198.522 116.794 197.316C116.518 196.592 115.95 195.989 115.088 195.506C114.192 195.024 113.347 194.886 112.555 195.092Z" fill="#0D131A"/>
<path d="M100.457 197.884C100.698 197.333 101.095 196.919 101.646 196.643C102.163 196.368 102.697 196.282 103.249 196.385C103.731 196.488 104.162 196.781 104.541 197.264C104.989 197.815 105.196 198.436 105.162 199.125C105.127 200.779 104.455 202.554 103.145 204.45C101.974 206.139 101.198 206.914 100.819 206.777C100.474 206.673 100.199 205.501 99.9918 203.261C99.7161 200.848 99.8712 199.056 100.457 197.884ZM101.078 195.299C100.285 195.713 99.6816 196.35 99.268 197.212C98.6821 198.487 98.5442 200.642 98.8544 203.675C99.1646 206.639 99.6471 208.207 100.302 208.379C101.198 208.621 102.491 207.518 104.179 205.07C105.903 202.589 106.73 200.573 106.661 199.022C106.592 198.091 106.299 197.247 105.782 196.488C105.196 195.627 104.438 195.11 103.507 194.937C102.646 194.765 101.836 194.886 101.078 195.299Z" fill="#0D131A"/>
<path d="M94.9251 198.66C94.8906 199.452 94.0117 200.538 92.2884 201.917C90.6685 203.261 89.7551 203.864 89.5483 203.726C89.2726 203.485 89.4104 201.986 89.9619 199.228C90.5478 196.299 91.2544 194.575 92.0816 194.058C92.8743 193.99 93.5636 194.507 94.1496 195.609C94.7355 196.609 94.994 197.626 94.9251 198.66ZM96.3727 198.763C96.4761 197.419 96.028 196.023 95.0285 194.575C93.9945 193.024 92.9088 192.352 91.7714 192.559C90.5306 192.835 89.5138 195.024 88.7211 199.125C87.9284 203.158 87.8767 205.346 88.566 205.691C89.0141 205.932 90.3927 205.105 92.702 203.209C95.0802 201.245 96.3037 199.763 96.3727 198.763Z" fill="#0D131A"/>
<path d="M127.341 77.424C125.548 76.0453 124.514 75.4594 124.239 75.6662C123.928 75.9075 124.583 76.8036 126.203 78.3546C130.201 82.2148 133.717 86.4887 136.75 91.1761C140.162 96.415 142.506 101.464 143.781 106.324C144.022 107.151 144.557 108.03 145.384 108.961L147.659 111.029C148.486 111.718 148.761 112.201 148.486 112.476C148.21 112.752 147.331 112.89 145.849 112.89C145.642 112.89 145.556 113.131 145.591 113.614C145.625 114.096 145.746 114.338 145.952 114.338C147.883 114.338 149.278 114.062 150.14 113.51C151.312 112.718 150.916 111.511 148.951 109.891L146.418 107.72C145.832 107.134 145.47 106.531 145.332 105.911C143.884 100.534 141.575 95.2948 138.404 90.1938C135.096 84.8515 131.408 80.5949 127.341 77.424Z" fill="#0D131A"/>
<path d="M114.726 96.9665C113.761 94.5538 113.123 93.4336 112.813 93.606C112.469 93.7783 112.71 95.1397 113.537 97.6903C114.778 101.619 116.863 105.359 119.793 108.909C122.516 112.252 125.549 114.941 128.892 116.974C129.547 117.388 131.132 118.732 133.648 121.007C136.095 123.006 137.819 123.85 138.818 123.54C139.37 123.368 139.852 122.713 140.266 121.576C140.679 120.438 140.869 119.249 140.835 118.008C142.179 118.973 143.488 119.594 144.764 119.869L146.987 119.766C147.435 119.387 147.573 118.525 147.4 117.181C147.228 115.871 146.814 114.579 146.16 113.304C145.229 111.511 144.574 110.684 144.195 110.822C143.816 110.925 144.04 111.942 144.867 113.872C145.867 116.216 146.125 117.629 145.643 118.112L143.73 117.801C142.696 117.422 141.696 116.923 140.731 116.302C140.249 115.992 139.938 115.871 139.801 115.94C139.628 115.975 139.525 116.268 139.49 116.819C139.284 119.852 138.835 121.472 138.146 121.679C137.56 121.851 136.302 121.11 134.372 119.456L129.512 115.475C126.789 113.786 124.032 111.236 121.24 107.823C118.345 104.273 116.174 100.654 114.726 96.9665Z" fill="#0D131A"/>
</svg>
