<svg width="153" height="177" viewBox="0 0 153 177" fill="none" xmlns="http://www.w3.org/2000/svg">
<path d="M139.905 115.797C139.379 124.793 136.297 132.344 130.66 138.448C125.695 143.823 119.283 147.605 111.426 149.796C104.153 151.84 96.9969 152.206 89.9576 150.891C82.8598 149.577 77.573 146.86 74.0972 142.742C74.7106 141.311 75.3678 139.251 76.0688 136.564C77.0911 132.65 77.5146 129.569 77.3394 127.32C80.7568 131.029 84.9921 133.877 90.0452 135.863C95.3904 137.966 100.779 138.74 106.212 138.185C119.502 136.842 129.521 128.517 136.268 113.212L137.057 114.526C137.816 115.373 138.766 115.797 139.905 115.797Z" fill="#EF8200"/>
<path d="M74.0972 142.873C81.8376 149.825 91.2867 152.761 102.444 151.68C112.638 150.687 121.971 146.714 130.441 139.763C121.825 149.781 110.871 154.937 97.5812 155.229C92.2944 155.316 87.3142 154.572 82.6408 152.994C78.2595 151.475 74.9881 149.518 72.8267 147.123L74.0972 142.873Z" fill="#DDD583"/>
<path d="M75.4116 138.58C81.4286 144.976 89.9576 148.102 100.999 147.956C111.426 147.81 121.065 144.903 129.915 139.237C122.613 146.539 113.441 150.658 102.401 151.592C91.0091 152.556 81.5746 149.65 74.0972 142.873L75.4116 138.58Z" fill="#CF7100"/>
<path d="M62.0925 38.7296C61.742 40.599 60.7489 44.1333 59.1132 49.3324C57.6235 54.0935 56.8495 56.8829 56.7911 57.7008C56.7035 58.8399 56.9955 61.5709 57.6673 65.8938C58.1931 69.4281 58.7043 72.4512 59.2008 74.9632C61.7128 88.1364 64.5314 97.2349 67.6568 102.259C71.3663 108.188 73.8783 112.789 75.1927 116.06C77.617 122.106 78.2304 127.612 77.0328 132.578L73.6592 144.363C72.7829 147.226 72.3156 149.592 72.2572 151.461L74.7983 156.894C76.3172 160.75 76.7115 163.305 75.9813 164.561C74.959 166.255 73.7176 167.643 72.2572 168.724C70.4754 170.038 68.5038 170.797 66.3424 171.002C63.8012 171.236 61.114 170.827 58.2807 169.775C55.2138 168.665 53.6657 167.336 53.6365 165.788L53.768 158.866C53.7388 155.536 53.3882 153.126 52.7164 151.636L49.9562 148.745C48.0284 146.466 46.8601 144.524 46.4511 142.918L39.8353 141.735L37.7761 143.268C36.3449 144.466 35.5562 145.517 35.4102 146.423L36.856 149.314C37.7615 151.417 38.0244 152.819 37.6447 153.52C37.1189 154.484 34.753 155.726 30.5469 157.245C25.9903 158.88 22.1056 159.698 18.8926 159.698C15.3875 159.698 12.1161 158.676 9.07841 156.631C6.01148 154.587 5.48573 153.009 7.50114 151.899L12.9778 148.832C10.6119 147.284 8.96158 145.079 8.0269 142.217C6.21595 136.521 8.94697 130.445 16.22 123.99C14.7595 121.595 13.6788 117.55 12.9778 111.854C12.1307 105.311 12.2622 99.2211 13.3721 93.5838L10.6557 96.4755C9.28288 97.8191 8.24596 98.3887 7.54495 98.1842C7.0484 98.0382 6.65408 97.2788 6.36199 95.9059L6.09911 93.8467C3.03218 94.869 1.38188 94.9859 1.14821 94.1972C0.885331 93.2917 0.870726 92.4155 1.1044 91.5684C1.51332 90.108 2.63786 88.3993 4.47802 86.4423C5.61717 83.8719 7.20905 80.9948 9.25367 77.8111C13.3429 71.5019 17.6804 66.8723 22.2662 63.9222C20.3092 63.5425 18.7465 62.8561 17.5782 61.863C15.5044 60.1397 12.934 57.0874 9.86705 52.7061C5.60256 46.689 3.51413 41.7089 3.60175 37.7657C3.63096 35.7795 4.49262 33.5596 6.18674 31.1061C7.7056 28.8278 8.90316 27.6303 9.77943 27.5134L14.4674 15.64C14.263 15.2603 14.1315 14.8076 14.0731 14.2818C13.9271 13.2595 14.1754 12.3978 14.818 11.6968C17.5052 8.77594 20.134 6.61448 22.7043 5.21246C28.663 1.94107 35.6147 0.889549 43.5595 2.0579C49.3136 2.87575 54.2061 6.97959 58.2369 14.3694C62.443 22.1098 63.7282 30.2298 62.0925 38.7296Z" fill="#EF8200"/>
<path d="M3.73291 91.6557C5.63149 90.2536 7.13574 89.4942 8.24568 89.3774C9.12194 89.2897 9.47245 89.5526 9.2972 90.166C9.09273 90.7502 8.43553 91.2613 7.3256 91.6995L4.6968 92.0062L3.73291 91.6557Z" fill="#CF7100"/>
<path d="M7.41309 98.4467C9.63296 94.9416 11.809 91.9915 13.9413 89.5964L13.6346 93.2329C10.1879 96.7964 8.1141 98.5343 7.41309 98.4467Z" fill="#CF7100"/>
<path d="M28.5747 63.0456C32.7223 62.3154 35.9937 61.3807 38.3888 60.2415L40.8862 60.1977C41.0322 60.8695 40.5941 61.8772 39.5718 63.2208C36.9138 66.8135 34.0513 68.5953 30.9844 68.5661C28.6477 68.5369 26.866 68.0987 25.6392 67.2517C24.6169 66.5507 23.7552 65.3969 23.0542 63.7904L28.5747 63.0456Z" fill="#CF7100"/>
<path d="M47.2395 144.933C43.8805 139.324 43.0918 133.848 44.8736 128.503C44.5523 131.803 45.8667 134.695 48.8168 137.178C51.5332 139.427 54.9798 140.858 59.1567 141.471C63.3628 142.114 67.0723 141.69 70.2853 140.201C73.6443 138.653 75.7473 136.184 76.5944 132.796L75.6743 136.959L74.0094 143.574C73.6005 144.743 73.2208 146.247 72.8703 148.087C72.4905 149.956 72.3153 151.169 72.3445 151.724C72.4029 152.512 73.4106 155.199 75.3676 159.785C73.6151 156.689 69.7887 155.272 63.8885 155.535C57.9299 155.798 54.4687 157.668 53.5048 161.143C53.5048 155.769 53.2857 152.629 52.8476 151.724C50.803 150 48.9336 147.737 47.2395 144.933Z" fill="#CF7100"/>
<path d="M19.2429 141.734C21.0539 140.595 22.0616 139.003 22.2661 136.959C22.4705 134.972 21.8571 132.913 20.4259 130.781C23.2592 134.374 27.2608 137.221 32.4307 139.324C35.2932 140.464 37.8636 141.194 40.1419 141.515C39.0319 141.953 37.9074 142.917 36.7682 144.407L35.3662 146.466C36.0672 147.401 36.6076 148.54 36.9873 149.883C37.3378 151.139 37.4839 152.264 37.4254 153.257C37.367 154.133 36.2571 155.024 34.0956 155.93C32.752 156.514 29.9626 157.463 25.7273 158.778L20.1192 159.698L16.7456 159.566C19.7541 158.778 20.8348 157.405 19.9878 155.448C19.2283 153.637 16.9646 151.578 13.1967 149.27C11.2397 148.073 9.70624 145.999 8.59631 143.049L7.50098 138.974C9.01984 141.106 10.9622 142.391 13.3281 142.83C15.4896 143.238 17.4612 142.873 19.2429 141.734Z" fill="#CF7100"/>
<path d="M32.5182 70.2309C35.0009 73.4731 37.323 77.4455 39.4845 82.1482C45.4139 94.8832 47.9696 107.867 47.1518 121.098L44.8297 128.108C43.6613 133.6 44.0556 138.346 46.0126 142.348C41.3392 142.172 36.4613 140.946 31.379 138.667C21.2435 134.082 15.2411 126.502 13.3717 115.928C11.8821 107.574 12.2618 98.14 14.5109 87.6248C15.7961 81.7538 17.4902 76.1603 19.5932 70.8443C20.2942 69.9973 21.1559 69.1356 22.1782 68.2593C24.2228 66.5652 26.0338 65.7474 27.6111 65.8058C28.6626 65.835 30.2983 67.3101 32.5182 70.2309Z" fill="#FFF697"/>
<path d="M31.5982 68.5222L27.6988 68.3032C26.6473 68.0111 25.6834 67.4269 24.8071 66.5506L25.9025 66.1125L28.1369 66.1563C29.1885 66.5652 30.3422 67.3539 31.5982 68.5222Z" fill="#DDD583"/>
<path d="M29.1882 126.838C35.4097 128.123 40.7841 127.714 45.3115 125.611C44.6981 126.049 44.3038 128.094 44.1285 131.745C43.9241 136.185 44.5521 139.748 46.0125 142.435C41.3975 142.727 36.3152 141.442 30.7655 138.58C22.1197 134.14 16.3801 126.808 13.5469 116.585C16.8475 121.96 22.0613 125.377 29.1882 126.838Z" fill="#DDD583"/>
<path d="M8.3335 41.4894L10.3927 43.2858C12.0868 44.6002 13.7663 45.5933 15.4312 46.2651L17.5781 46.7908C15.4166 47.4334 13.5619 48.4704 12.0138 49.9016C10.4657 47.3312 9.23897 44.5272 8.3335 41.4894Z" fill="#922F00"/>
<path d="M17.578 46.7909L31.5544 48.1491C37.5714 48.5288 41.354 48.631 42.902 48.4558C41.8505 50.6464 38.7836 52.9539 33.7012 55.3783C28.0931 58.0947 23.3175 59.044 19.3743 58.2261C18.7609 58.0801 17.797 57.306 16.4826 55.904C14.8761 54.2391 13.3865 52.2383 12.0137 49.9016C13.5617 48.4704 15.4165 47.4335 17.578 46.7909Z" fill="#ED8599"/>
<path d="M12.2763 49.9892C12.0719 49.6679 12.9043 49.0253 14.7737 48.0614L17.6216 46.747L33.8325 48.1053L42.9018 48.4558C41.8211 49.9746 40.1708 51.4497 37.9509 52.8809C36.8702 53.6111 35.8771 54.1807 34.9716 54.5896C32.7517 52.6326 29.1737 51.1284 24.2374 50.0768C19.2134 48.9961 15.2264 48.9669 12.2763 49.9892Z" fill="#CE7486"/>
<path d="M44.085 21.7734C42.6538 24.8404 41.7337 27.9949 41.3248 31.2371C40.8574 34.7714 41.0619 38.0428 41.9381 41.0513C40.3024 40.9637 39.4116 40.7592 39.2655 40.4379C38.5061 38.4517 38.5937 35.3848 39.5284 31.2371C40.5215 26.7974 42.0404 23.6428 44.085 21.7734Z" fill="white"/>
<path d="M47.8088 20.2838C50.4668 20.5175 51.8396 23.5844 51.9272 29.4846C52.0148 34.3333 51.6351 37.7653 50.7881 39.7807C50.5544 40.3357 49.4152 40.73 47.3706 40.9637C45.6181 41.1389 43.8071 41.1681 41.9378 41.0513C41.0615 38.0428 40.8571 34.7714 41.3244 31.2371C41.7333 27.9949 42.6534 24.8404 44.0846 21.7735C45.253 20.6635 46.4944 20.167 47.8088 20.2838Z" fill="#0D131A"/>
<path d="M9.8667 27.4254C10.4217 25.0302 11.1227 22.6935 11.9697 20.4152C13.6638 15.8294 15.2557 13.8432 16.7454 14.4566C18.1182 15.0408 18.0452 18.3706 16.5263 24.4461C14.9782 30.5215 13.6054 33.3694 12.4079 32.9896C11.5608 32.6976 10.889 31.6899 10.3925 29.9665L9.8667 27.4254Z" fill="#0D131A"/>
<path d="M6.53711 39.9998C6.85841 40.73 8.11439 41.7377 10.3051 43.0229C9.16591 44.0744 8.36266 44.5272 7.89532 44.3811C7.45719 44.2351 7.00445 42.7746 6.53711 39.9998Z" fill="white"/>
<path d="M12.189 50.1645L13.2405 49.9016L14.4673 50.033C14.6425 50.3251 14.4819 51.2014 13.9853 52.6618L12.189 50.1645Z" fill="white"/>
<path d="M27.436 57.7442L27.7427 56.3421C28.0056 55.4075 28.2977 54.9109 28.619 54.8525C29.1448 54.7941 29.7435 55.349 30.4153 56.5174L27.436 57.7442Z" fill="white"/>
<path d="M28.4434 47.7986L33.7886 48.1929C32.2113 50.0914 31.116 51.0407 30.5026 51.0407C29.86 51.0407 29.1736 49.96 28.4434 47.7986Z" fill="white"/>
<path d="M15.694 157.332C16.0445 156.835 16.6725 156.324 17.578 155.798L18.8047 155.141C19.7686 155.316 20.5427 156.047 21.1268 157.332L21.6964 159.26C20.7617 160.136 19.0238 160.778 16.4826 161.187L12.5394 161.319C12.3642 161.143 12.5248 160.778 13.0214 160.223L13.7662 159.391L9.12199 160.048L6.53701 159.785C6.36175 159.61 6.58082 159.186 7.19421 158.515L8.1581 157.595L4.69685 157.901C2.33093 157.989 1.08956 157.77 0.972721 157.244C0.826677 156.748 1.80517 155.711 3.90821 154.133C6.06967 152.527 7.4863 151.957 8.1581 152.425C8.88832 152.892 9.45789 153.958 9.86682 155.623L10.8307 154.659C11.5901 154.017 12.335 153.724 13.0652 153.783C13.7954 153.841 14.4526 154.455 15.0368 155.623L15.694 157.332Z" fill="white"/>
<path d="M129.74 75.7076L130.222 77.5478C130.309 78.424 130.207 79.1981 129.915 79.8699C129.71 80.3956 129.681 80.9798 129.827 81.6224C129.973 82.3234 130.295 82.966 130.791 83.5502L131.142 82.1043L133.99 84.9522L133.946 87.3619L134.778 88.8516C135.099 89.4066 135.289 90.3558 135.348 91.6994L137.757 93.1891L136.093 95.9932C135.771 96.5189 135.596 97.366 135.567 98.5343C135.538 99.1185 135.552 99.6443 135.611 100.112L139.51 97.7457L139.598 98.6219V99.9802C139.276 101.733 139.335 102.857 139.773 103.354C140.766 104.522 141.365 105.457 141.569 106.158C141.832 107.063 141.671 108.115 141.087 109.312C140.474 110.568 140.153 111.883 140.123 113.256C140.123 114.453 140.313 115.242 140.693 115.622L138.721 115.49C137.962 115.14 137.188 114.424 136.399 113.343C135.698 112.321 134.442 111.576 132.631 111.109L129.214 110.495C128.484 110.349 127.68 109.648 126.804 108.392C125.84 107.019 125.461 105.749 125.665 104.581C125.811 103.675 126.264 102.463 127.023 100.944C127.666 99.5712 127.987 98.695 127.987 98.3153C127.958 97.9355 127.637 97.1761 127.023 96.037C126.41 94.9562 126.103 94.1968 126.103 93.7587C126.103 93.3498 126.41 92.4005 127.023 90.9108C127.637 89.4796 127.914 88.6033 127.856 88.282L127.286 86.6171C126.965 85.7993 126.804 85.1567 126.804 84.6893C126.804 84.222 127.038 83.5794 127.505 82.7615L128.25 81.2281C128.308 80.4394 128.177 79.4025 127.856 78.1173C127.388 76.1311 127.899 74.4224 129.389 72.9912L129.433 74.0427C129.462 74.8313 129.564 75.3863 129.74 75.7076Z" fill="#EFE908"/>
<path d="M143.366 77.3287C144.242 78.0005 144.71 78.8622 144.768 79.9137C144.856 81.6954 144.695 83.667 144.286 85.8285L145.776 84.5579C146.857 83.74 147.528 83.4187 147.791 83.594C148.229 83.9153 148.04 86.5587 147.222 91.5242L148.01 90.9108C148.565 90.5311 148.901 90.4289 149.018 90.6041C149.193 90.867 149.091 93.1307 148.711 97.3952L152.26 91.568L152.216 93.3205C152.187 94.5765 152.202 95.336 152.26 95.5988L152.348 97.4828L151.954 99.8049C151.282 101.674 151.048 102.857 151.253 103.354C151.369 103.675 151.34 104.113 151.165 104.668C150.96 105.311 150.639 105.822 150.201 106.202L148.229 107.867C147.382 108.655 146.9 109.298 146.784 109.794L146.083 111.24L144.33 112.642L140.65 115.578C140.299 115.169 140.124 114.38 140.124 113.212C140.153 111.839 140.474 110.539 141.088 109.312C141.672 108.115 141.833 107.063 141.57 106.158C141.365 105.457 140.767 104.522 139.773 103.354C139.335 102.857 139.277 101.733 139.598 99.9802V98.6219L139.511 97.7457L135.611 100.112C135.553 99.6443 135.538 99.1185 135.567 98.5343C135.597 97.366 135.772 96.5189 136.093 95.9931L137.758 93.1891L135.348 91.6994C135.29 90.3558 135.1 89.4066 134.779 88.8516L133.946 87.3619L133.99 84.9522L131.186 82.1482C132.354 80.308 132.968 79.0958 133.026 78.5117L132.895 75.9267C132.836 74.5246 133.099 73.4001 133.683 72.553C134.238 71.7352 135.29 70.5376 136.838 68.9604L139.248 66.463C139.54 66.0249 139.846 65.1194 140.168 63.7466C140.518 62.1985 140.65 60.9863 140.562 60.1101L141.657 62.5198C142.388 64.3892 142.665 65.9957 142.49 67.3393L141.395 72.2025C140.956 73.9843 140.927 75.138 141.307 75.6638L143.366 77.3287Z" fill="#E50020"/>
<path d="M9.38475 154.352L9.77907 155.754L7.93892 157.595L4.08335 157.814L1.2793 157.595C1.65901 157.127 3.11945 156.441 5.66062 155.535C6.94581 155.097 8.18719 154.703 9.38475 154.352Z" fill="#DBDCDC"/>
<path d="M6.93115 160.223C10.1733 157.887 12.8605 156.441 14.9928 155.886L15.3871 157.332L13.8098 159.435L6.93115 160.223Z" fill="#DBDCDC"/>
<path d="M12.8462 161.669C13.7809 161.027 14.8178 160.355 15.9569 159.654C18.206 158.252 19.7979 157.419 20.7326 157.156L21.2583 158.12C21.5504 158.851 21.5504 159.391 21.2583 159.741C20.791 160.355 19.3744 160.837 17.0085 161.187L12.8462 161.669Z" fill="#DBDCDC"/>
<path d="M130.966 82.192L131.448 81.4471C131.799 82.2066 132.675 83.1851 134.077 84.3826C134.428 84.6747 134.559 85.2735 134.471 86.179C134.384 87.0845 134.442 87.6248 134.647 87.8001C135.114 88.209 135.406 88.6617 135.523 89.1583L135.611 90.7356C135.611 91.4366 136.165 91.9623 137.275 92.3128C138.707 92.751 138.765 93.7295 137.451 95.2483C136.925 95.8033 136.545 96.5043 136.312 97.3514C136.136 98.0524 136.092 98.6658 136.18 99.1915L138.677 97.7019C139.408 97.1177 139.817 96.8402 139.904 96.8694C140.05 96.8986 140.152 97.3806 140.211 98.3153L139.948 101.032C139.831 102.054 140.021 102.813 140.518 103.31C141.481 104.274 142.051 105.209 142.226 106.114C142.489 107.253 142.183 108.582 141.306 110.101C141.043 110.598 140.868 111.24 140.78 112.029C140.664 113.022 140.707 114.03 140.912 115.052C140.97 115.432 140.824 115.709 140.474 115.884C140.094 116.06 139.904 116.03 139.904 115.797L139.466 113.212C139.349 112.219 139.598 111.05 140.211 109.707C140.737 108.538 140.97 107.574 140.912 106.815C140.824 105.91 140.386 105.063 139.598 104.274C138.867 103.544 138.59 102.726 138.765 101.82C139.028 100.477 139.072 99.4836 138.897 98.841L137.013 100.068C136.136 100.594 135.581 100.783 135.348 100.637C135.172 100.491 135.085 99.8779 135.085 98.7972C135.026 96.957 135.479 95.482 136.443 94.3721C136.764 94.0216 136.867 93.7295 136.75 93.4958C136.633 93.2621 136.195 92.9262 135.435 92.4881C135.085 92.2836 134.866 92.05 134.778 91.7871L134.69 90.7794C134.69 89.9323 134.34 89.1291 133.639 88.3696C133.318 88.0483 133.201 87.4934 133.288 86.7047L133.201 84.996L132.105 83.6816L130.966 82.192Z" fill="#EFE908"/>
<path d="M48.3343 21.4668C49.0061 21.5836 49.5173 22.2116 49.8678 23.3507C50.1891 24.5191 50.2475 25.9211 50.0431 27.5568C49.7802 29.5138 49.2398 31.0034 48.422 32.0258C47.7502 32.8436 47.1076 33.1941 46.4942 33.0773C45.7932 32.902 45.2674 32.128 44.9169 30.7552C44.6248 29.47 44.581 28.1118 44.7855 26.6805C45.0776 24.928 45.5887 23.5698 46.3189 22.6059C46.9615 21.7296 47.6333 21.3499 48.3343 21.4668Z" fill="white"/>
<path d="M16.5705 15.2891C16.8041 15.3183 16.9502 15.9171 17.0086 17.0854C17.0378 18.2246 16.9502 19.3053 16.7457 20.3276C16.366 22.0802 15.9133 23.4092 15.3875 24.3146C14.9202 25.1033 14.482 25.4538 14.0731 25.3662C13.7226 25.2785 13.5035 24.8258 13.4159 24.0079C13.2991 22.9856 13.4743 21.6128 13.9417 19.8895C14.3506 18.3998 14.8179 17.2315 15.3437 16.3844C15.811 15.625 16.22 15.2599 16.5705 15.2891Z" fill="white"/>
<path d="M41.0617 32.2887C41.7043 31.1787 42.4054 30.5799 43.1648 30.4923C42.9019 32.5953 42.9603 34.3041 43.34 35.6185C43.749 36.9329 44.4646 37.6631 45.4869 37.8091C46.2755 37.926 47.0788 37.5755 47.8966 36.7576C48.8605 35.8229 49.5469 34.4501 49.9558 32.6392C50.8029 33.7199 51.2556 35.1365 51.3141 36.8891L50.3502 39.9998C49.0942 40.7008 47.3563 41.0951 45.1364 41.1828L42.1571 41.0513C41.4561 39.5909 41.0617 37.6923 40.9741 35.3556L41.0617 32.2887Z" fill="#007F78"/>
<path d="M15.3872 25.2347C15.7085 25.8189 15.8692 26.403 15.8692 26.9872L14.9053 29.9227C14.1166 31.8505 13.3426 32.829 12.5832 32.8582C11.7945 32.8874 11.1373 32.1864 10.6116 30.7552L9.86676 27.8635C9.77913 27.4546 9.88136 26.6221 10.1735 25.3661L10.6116 23.6136L11.1373 23.0878L12.2765 22.4306C11.7507 24.0663 11.5463 25.5122 11.6631 26.7681C11.7799 27.8781 12.1158 28.5207 12.6708 28.6959C13.1381 28.8712 13.6347 28.6521 14.1605 28.0387C14.7446 27.3669 15.1536 26.4322 15.3872 25.2347Z" fill="#007F78"/>
<path d="M39.9664 0.918336C50.2771 1.94065 57.3019 7.94306 61.0406 18.9256C62.5887 23.5114 63.3043 28.4331 63.1875 33.6907C63.0998 38.8022 62.2528 43.461 60.6463 47.6671C59.3319 51.1137 58.5286 53.3044 58.2366 54.2391C57.3895 56.7803 56.9076 58.8687 56.7907 60.5044C56.5863 63.6589 56.2358 65.207 55.7392 65.1486C55.2719 65.0902 55.1696 63.4983 55.4325 60.373C55.6954 56.6926 56.8783 52.3259 58.9814 47.2728C60.5295 43.534 61.3619 39.2257 61.4787 34.3479C61.5956 29.3532 60.9238 24.6213 59.4633 20.1524C55.9583 9.31588 49.4155 3.41569 39.835 2.4518C35.5705 2.04288 31.2184 2.65626 26.7786 4.29196C22.3097 5.95686 18.7754 8.26436 16.1758 11.2145C15.504 11.9739 15.0659 12.6749 14.8614 13.3175C14.6277 14.0477 14.6716 14.8364 14.9929 15.6834C15.0513 15.8587 14.9052 16.0193 14.5547 16.1654L13.9413 16.1215C13.1819 13.9601 13.6054 11.9885 15.2119 10.2067C18.016 7.05219 21.7109 4.61326 26.2967 2.88993C30.9117 1.1374 35.4683 0.480203 39.9664 0.918336Z" fill="#0D131A"/>
<path d="M49.9119 39.3864C51.1679 36.1734 51.5768 32.4055 51.1387 28.0826C50.7006 23.6136 49.576 21.2769 47.7651 21.0724C45.7789 20.8388 43.8511 22.5913 41.9817 26.33C39.9663 30.3901 39.2361 34.9174 39.7911 39.9122C40.1124 40.4379 41.7773 40.6278 44.7858 40.4817C47.8235 40.3357 49.5322 39.9706 49.9119 39.3864ZM38.6081 40.2627C37.8195 35.6185 38.4328 30.9888 40.4483 26.3738C42.5221 21.6712 45.0048 19.466 47.8965 19.758C50.9634 20.0501 52.4969 23.2193 52.4969 29.2655C52.4969 34.4063 51.9127 38.0136 50.7444 40.0874C50.2478 40.9929 48.1448 41.504 44.4353 41.6209C40.7257 41.7377 38.7834 41.285 38.6081 40.2627Z" fill="#0D131A"/>
<path d="M16.3076 15.0262C15.4314 15.0262 14.2338 16.6765 12.715 19.9771C11.1961 23.3069 10.4367 25.9357 10.4367 27.8635V27.9073C10.4367 28.9588 10.7142 29.9811 11.2691 30.9742C11.7657 31.9089 12.1746 32.3324 12.4959 32.2448C13.6935 31.9235 14.9056 28.9734 16.1324 23.3945C17.3592 17.8156 17.4176 15.0262 16.3076 15.0262ZM11.9263 19.1446C13.6789 15.3475 15.1977 13.5365 16.4829 13.7118C18.4107 13.9455 18.6882 17.2315 17.3154 23.5698C15.9717 29.8789 14.3945 33.1941 12.5835 33.5154C11.9409 33.6322 11.2545 32.9896 10.5243 31.5876C9.82328 30.244 9.45817 28.988 9.42897 27.8197C9.39976 25.6582 10.2322 22.7665 11.9263 19.1446Z" fill="#0D131A"/>
<path d="M12.3205 39.2549C12.0576 38.5831 12.0868 38.1304 12.4081 37.8967C12.7294 37.6923 13.0361 37.9406 13.3282 38.6416L13.5473 39.956C13.5765 40.4817 13.5181 40.7884 13.372 40.876C13.1384 41.0221 12.7879 40.4817 12.3205 39.2549Z" fill="#0D131A"/>
<path d="M23.7556 41.5771C24.4858 41.2558 24.8948 41.3142 24.9824 41.7523C25.07 42.1612 24.7487 42.5556 24.0185 42.9353C22.9962 43.4318 22.412 43.6071 22.266 43.461C22.1783 43.3442 22.2952 43.0521 22.6165 42.5848C22.967 42.1174 23.3467 41.7815 23.7556 41.5771Z" fill="#0D131A"/>
<path d="M9.77921 26.5491C9.92525 26.4323 10.0421 26.5929 10.1297 27.031C10.2173 27.4692 10.1881 27.7467 10.0421 27.8635C6.62465 30.9888 4.74068 33.9389 4.39017 36.7138C3.92283 40.1896 5.73378 45.1551 9.82302 51.6103C13.8831 58.0362 17.4903 61.702 20.6449 62.6074C22.0469 62.9871 24.1646 62.9871 26.9978 62.6074C29.8019 62.1985 32.6936 61.4975 35.6729 60.5044C37.6883 59.8326 38.7398 59.6865 38.8274 60.0663C38.9442 60.4168 37.9804 60.9717 35.9357 61.7312C32.898 62.8703 29.7873 63.6443 26.6035 64.0533C23.7702 64.3746 21.6672 64.3454 20.2944 63.9656C16.9646 63.031 13.1382 59.2484 8.81532 52.618C4.34636 45.8123 2.36016 40.3795 2.85671 36.3195C3.09038 34.713 3.83521 33.0335 5.09119 31.2809C6.31796 29.4992 7.88063 27.9219 9.77921 26.5491Z" fill="#0D131A"/>
<path d="M44.6103 18.356C43.6464 19.0862 42.96 19.6704 42.5511 20.1085C42.0546 20.6635 41.6164 21.3499 41.2367 22.1678C40.8278 23.1317 40.4189 23.5698 40.0099 23.4822C39.601 23.3653 39.5864 22.7958 39.9661 21.7734C40.6379 20.0501 41.8647 18.7065 43.6464 17.7426C44.5227 17.3045 45.0631 17.173 45.2675 17.3483C45.4428 17.5528 45.2237 17.8887 44.6103 18.356Z" fill="#0D131A"/>
<path d="M18.0158 12.7917C17.7529 12.1784 17.7237 11.8133 17.9281 11.6964C18.1326 11.5796 18.4247 11.784 18.8044 12.3098C19.7975 13.5658 20.2064 15.2453 20.0312 17.3483C19.9435 18.3414 19.6807 18.8088 19.2425 18.7504C18.8044 18.7211 18.6291 18.2246 18.7168 17.2607C18.8336 15.5958 18.5999 14.1061 18.0158 12.7917Z" fill="#0D131A"/>
<path d="M4.69724 36.4947C4.9017 35.3848 5.10616 34.8298 5.31062 34.8298C5.5443 34.859 5.64653 35.4432 5.61732 36.5824C5.61732 37.517 5.8802 38.2911 6.40596 38.9045C7.34064 39.956 8.87411 41.285 11.0064 42.8915C13.1094 44.4688 14.599 45.418 15.4753 45.7393C16.8773 46.2359 21.1418 46.7617 28.2688 47.3166L41.5442 47.93C42.3036 47.9008 42.9024 47.7694 43.3406 47.5357L44.7426 46.3089C45.4144 45.6079 45.8233 45.3596 45.9694 45.5641C46.1446 45.7393 45.984 46.2359 45.4874 47.0537C45.0785 47.7255 44.5965 48.2221 44.0416 48.5434C43.4574 48.8647 42.7126 49.0399 41.8071 49.0691L28.7945 48.4558C21.3171 47.93 16.7313 47.3604 15.0372 46.747C14.0733 46.4258 12.4084 45.3742 10.0425 43.5925C7.67654 41.8108 6.12847 40.4525 5.39825 39.5179C5.13537 39.1674 4.93091 38.7 4.78487 38.1158C4.63882 37.5024 4.60961 36.9621 4.69724 36.4947Z" fill="#0D131A"/>
<path d="M9.07835 43.7677L9.77937 43.8115C10.9185 46.9661 12.6418 50.033 14.9493 53.0123C17.0816 55.7579 18.7903 57.306 20.0755 57.6565C22.7043 58.3575 26.3846 57.7587 31.1164 55.8602C36.0235 53.874 39.8207 51.3182 42.5079 48.1928L43.3403 48.149C43.7493 48.2367 43.8953 48.3389 43.7785 48.4557C41.0913 51.8732 37.0896 54.7064 31.7736 56.9555C26.6329 59.117 22.6167 59.8034 19.725 59.0147C18.2061 58.6058 16.2929 56.9117 13.9854 53.9324C11.5611 50.8362 9.73555 47.6087 8.50878 44.2496C8.47957 44.0744 8.66943 43.9137 9.07835 43.7677Z" fill="#0D131A"/>
<path d="M6.14258 40.2188C6.14258 40.0436 6.34704 39.956 6.75596 39.956C7.13568 39.956 7.32554 40.0436 7.32554 40.2188C7.32554 40.5693 7.42777 41.2412 7.63223 42.2343C7.83669 43.315 8.01194 43.8699 8.15799 43.8992C8.33324 43.9284 8.61073 43.7969 8.99044 43.5048L9.73527 42.7162L10.5677 43.5487L9.12188 44.5564L7.89511 44.9507C7.57381 44.8338 7.1941 44.162 6.75596 42.9353C6.34704 41.7669 6.14258 40.8614 6.14258 40.2188Z" fill="#0D131A"/>
<path d="M33.7449 48.0614C34.0662 48.2659 34.1831 48.4411 34.0954 48.5872L32.2991 50.4712C31.4228 51.143 30.7802 51.4789 30.3713 51.4789C30.0208 51.4789 29.5535 51.0699 28.9693 50.2521C28.3559 49.4342 27.9616 48.704 27.7863 48.0614C27.7571 47.8862 27.9324 47.7547 28.3121 47.6671C28.721 47.5795 28.9401 47.6233 28.9693 47.7985L29.6703 49.5073C30.0208 50.1499 30.2691 50.4712 30.4151 50.4712C30.6488 50.5004 31.1015 50.2083 31.7733 49.5949L33.1316 47.9738L33.7449 48.0614Z" fill="#0D131A"/>
<path d="M12.1015 50.2521C11.9555 49.9892 11.9701 49.8285 12.1453 49.7701L13.5036 49.5072C14.1754 49.478 14.5989 49.551 14.7741 49.7263C14.9494 49.9016 14.964 50.3981 14.818 51.216C14.7011 52.0046 14.5405 52.5596 14.336 52.8809C14.19 53.0853 13.9125 52.9247 13.5036 52.3989L14.0731 50.9969L14.1608 50.2521C14.0147 50.106 13.4889 50.2082 12.5835 50.5588C12.4082 50.6172 12.2476 50.5149 12.1015 50.2521Z" fill="#0D131A"/>
<path d="M28.4435 54.4144C28.6772 54.3559 29.0277 54.5458 29.495 54.9839L30.8094 56.4298C30.9263 56.5758 30.8533 56.7365 30.5904 56.9117C30.3567 57.0578 30.1815 57.0578 30.0646 56.9117C29.3636 55.8018 28.8817 55.276 28.6188 55.3344C28.4727 55.3636 28.3267 55.6703 28.1807 56.2545L28.0054 57.6565C28.0054 57.8318 27.8447 57.9194 27.5235 57.9194C27.2022 57.9194 27.0415 57.8172 27.0415 57.6127C27.0415 57.1454 27.1875 56.532 27.4796 55.7726C27.8301 54.9255 28.1514 54.4728 28.4435 54.4144Z" fill="#0D131A"/>
<path d="M21.6525 63.4399C21.7986 63.3523 21.9738 63.5421 22.1783 64.0095L22.3097 64.7981C18.7754 67.3393 15.8546 70.0849 13.5471 73.035C11.3272 75.8683 8.50853 80.381 5.0911 86.5733C3.51382 88.3258 2.4623 89.9615 1.93654 91.4804C1.49841 92.6779 1.48381 93.4228 1.89273 93.7149C2.4477 94.153 3.89354 93.9923 6.23024 93.2329L6.84363 93.1891L6.93126 94.0216C6.93126 96.0954 7.23795 97.2199 7.85134 97.3952C8.28947 97.512 9.0635 97.0301 10.1734 95.9493C11.3126 94.8978 12.3057 93.7149 13.1527 92.4005C13.328 92.5173 13.4448 92.7218 13.5032 93.0138L13.4156 93.8025C12.9191 94.7956 12.0282 95.8909 10.743 97.0885C9.28257 98.4321 8.21645 98.9871 7.54464 98.7534C6.37629 98.4321 5.80672 97.0009 5.83592 94.4597C4.66757 94.927 3.55763 95.1753 2.50612 95.2045C1.51301 95.2337 0.855815 95.0731 0.534518 94.7226C0.0671762 94.226 0.0379674 93.2767 0.446891 91.8747C0.972651 90.0638 2.18482 88.063 4.08339 85.8723C7.32558 79.6508 10.3487 74.8313 13.1527 71.4139C15.4895 68.5222 18.3227 65.8642 21.6525 63.4399Z" fill="#0D131A"/>
<path d="M5.44132 88.6764C4.50664 90.0492 4.18534 90.8962 4.47743 91.2175C4.76952 91.4804 5.68959 91.349 7.23766 90.8232C8.11393 90.4435 8.61048 90.3851 8.72732 90.648C8.81494 90.94 8.43523 91.2759 7.58817 91.6557C5.48513 92.6196 4.03929 92.8824 3.25066 92.4443C2.34518 91.9185 2.81252 90.4581 4.65268 88.063C5.26607 87.2743 5.68959 86.9676 5.92327 87.1429C6.18615 87.2889 6.0255 87.8001 5.44132 88.6764Z" fill="#0D131A"/>
<path d="M21.8278 63.5275L22.5289 63.6151C22.9086 63.8488 23.0546 64.0387 22.967 64.1847C15.1098 82.0605 11.9991 97.8041 13.6348 111.415C15.767 129.437 26.5597 139.66 46.0128 142.085C46.188 142.114 46.3341 142.348 46.4509 142.786C46.5969 143.253 46.5677 143.472 46.3633 143.443C25.625 141.106 14.1459 130.62 11.926 111.985C10.2903 98.0816 13.5909 81.9291 21.8278 63.5275Z" fill="#0D131A"/>
<path d="M18.1035 72.9036C19.2134 70.5084 20.5716 68.6245 22.1781 67.2517C23.7554 65.908 25.3619 65.2362 26.9976 65.2362C29.1882 65.2362 31.6564 67.2078 34.402 71.151C37.0016 74.8606 39.4406 79.6946 41.7188 85.6532C47.0056 99.5274 48.9334 111.357 47.5022 121.142L46.7574 122.369L46.1002 123.026C47.5898 112.365 45.6036 100.082 40.1416 86.179C37.9509 80.5709 35.6142 75.9267 33.1314 72.2464C30.6195 68.5368 28.5749 66.6821 26.9976 66.6821C25.8584 66.6821 24.5294 67.2955 23.0106 68.5222C21.1704 70.0119 19.6662 72.0273 18.4978 74.5685C18.4102 74.7437 18.308 74.5539 18.1911 73.9989C18.0451 73.4147 18.0159 73.0496 18.1035 72.9036Z" fill="#0D131A"/>
<path d="M55.7827 60.0224C55.7535 59.818 55.9434 59.1024 56.3523 57.8756C56.7904 56.678 57.0241 56.1669 57.0533 56.3421C58.835 69.0772 60.5291 78.5555 62.1356 84.7769C64.2679 93.2183 67.1742 100.404 70.8545 106.333C76.8423 115.972 79.0768 124.939 77.5579 133.234C77.2366 134.929 76.3311 138.142 74.8415 142.873C73.6147 146.7 72.9575 149.854 72.8699 152.337C72.7823 154.674 72.5048 155.784 72.0374 155.667C71.5993 155.55 71.4386 154.294 71.5555 151.899C71.7307 149.153 72.3879 145.838 73.5271 141.953C74.8707 137.455 75.6739 134.359 75.9368 132.665C77.1052 125.041 74.7539 116.293 68.8829 106.421C65.2318 100.287 62.4861 93.4228 60.646 85.8285C60.2078 84.0759 58.5868 75.4739 55.7827 60.0224Z" fill="#0D131A"/>
<path d="M52.3652 151.154C52.891 151.417 53.1831 151.636 53.2415 151.811C54.0301 153.827 54.3952 156.777 54.3368 160.662C54.3076 164.283 54.4975 166.401 54.9064 167.014C55.6074 168.066 56.9802 168.898 59.0248 169.512C61.0694 170.125 63.2163 170.359 65.4654 170.213C71.2195 169.862 74.5785 167.511 75.5424 163.159C75.7761 162.078 75.2357 159.99 73.9213 156.894C72.5193 153.564 71.8037 151.738 71.7745 151.417C71.7453 151.242 71.8767 150.891 72.1688 150.365C72.4317 149.84 72.5777 149.679 72.6069 149.883C72.6946 150.906 73.527 153.111 75.1043 156.499C76.5063 159.566 77.1051 161.845 76.9006 163.334C76.2288 168.124 72.5923 170.782 65.9911 171.308C63.3623 171.513 60.8504 171.279 58.4553 170.607C56.0601 169.935 54.439 169.001 53.592 167.803C52.9202 166.81 52.7011 164.298 52.9348 160.267C53.1685 156.09 52.7595 153.009 51.708 151.023L52.3652 151.154Z" fill="#0D131A"/>
<path d="M47.1518 119.696C48.2326 117.739 48.9336 116.863 49.2549 117.067C49.547 117.301 49.1964 118.44 48.2033 120.485C45.4577 126.181 44.523 131.701 45.3993 137.046C46.2756 142.421 48.9628 147.225 53.4609 151.461C55.0674 152.98 55.7392 153.9 55.4763 154.221C55.2427 154.542 54.308 153.973 52.6723 152.512C47.7068 148.131 44.6983 143.224 43.6468 137.791C42.5368 132.008 43.7052 125.976 47.1518 119.696Z" fill="#0D131A"/>
<path d="M15.825 123.376C15.9711 123.289 16.1901 123.479 16.4822 123.946C16.7451 124.384 16.8035 124.662 16.6575 124.778C14.5252 126.297 12.5829 128.59 10.8303 131.657C8.96096 134.87 8.1139 137.66 8.28915 140.026C8.4352 141.866 9.25304 143.706 10.7427 145.546C12.1739 147.357 13.9411 148.759 16.0441 149.752C17.8551 150.628 18.6729 151.212 18.4976 151.505C18.3516 151.826 17.2855 151.578 15.2993 150.76C12.9334 149.767 10.9472 148.277 9.34067 146.291C7.70498 144.305 6.81411 142.245 6.66806 140.113C6.43439 137.105 7.41289 133.833 9.60355 130.299C11.4437 127.32 13.5175 125.012 15.825 123.376Z" fill="#0D131A"/>
<path d="M34.7968 146.992C34.6799 146.846 34.8114 146.641 35.1911 146.378C35.5416 146.116 35.7753 146.057 35.8921 146.203C36.8852 147.605 37.5862 148.993 37.9951 150.365C38.4041 151.797 38.4333 152.965 38.0828 153.87C37.7323 154.864 35.8483 156.032 32.4309 157.376C28.7797 158.836 25.1432 159.741 21.5213 160.092C21.3169 160.121 21.2 159.917 21.1708 159.479C21.1124 159.04 21.1854 158.807 21.3899 158.778C24.9242 158.427 28.2978 157.595 31.5108 156.28C34.4024 155.083 36.1112 153.987 36.6369 152.994C36.8998 152.468 36.8706 151.651 36.5493 150.541C36.1988 149.343 35.6146 148.16 34.7968 146.992Z" fill="#0D131A"/>
<path d="M12.6267 148.35C12.802 148.292 13.0356 148.467 13.3277 148.876C13.6198 149.285 13.6782 149.504 13.503 149.533C12.7143 149.825 11.7212 150.292 10.5237 150.935C9.3261 151.607 8.40602 152.191 7.76342 152.688L6.93097 152.556C6.52205 152.352 6.39061 152.191 6.53665 152.074C7.29608 151.461 8.25998 150.774 9.42833 150.015C10.7427 149.197 11.8089 148.642 12.6267 148.35Z" fill="#0D131A"/>
<path d="M34.9275 148.744C34.3141 150.146 33.8614 150.789 33.5693 150.672C33.2772 150.555 33.3356 149.767 33.7445 148.306C34.2119 146.729 35.0589 145.239 36.2857 143.837C37.4541 142.406 38.5494 141.574 39.5717 141.34C39.7469 141.311 40.0682 141.457 40.5356 141.778C41.0029 142.099 41.149 142.275 40.9737 142.304C40.2143 142.479 39.2066 143.195 37.9506 144.451C36.5778 145.853 35.5701 147.284 34.9275 148.744Z" fill="#0D131A"/>
<path d="M9.56036 153.038C9.99849 153.768 10.2906 154.601 10.4366 155.535C10.4658 155.711 10.2906 155.828 9.91087 155.886C9.53115 155.915 9.31209 155.842 9.25367 155.667L8.59647 153.914C8.21675 153.33 7.91006 153.038 7.67639 153.038C6.80012 153.009 5.61716 153.564 4.12751 154.703C2.66707 155.784 1.99527 156.514 2.1121 156.894C2.22894 157.186 2.97376 157.317 4.34658 157.288L8.02689 156.894C8.20215 156.864 8.33359 157.04 8.42121 157.419C8.50884 157.799 8.46503 158.004 8.28977 158.033L2.41879 158.339C1.1044 158.193 0.417989 157.945 0.359571 157.595C0.242735 156.835 1.20663 155.652 3.25125 154.046C5.26666 152.439 6.78552 151.651 7.80783 151.68C8.45042 151.709 9.0346 152.162 9.56036 153.038Z" fill="#0D131A"/>
<path d="M14.8616 157.507C14.8324 156.748 14.6425 156.047 14.292 155.404C13.8831 154.732 13.4595 154.425 13.0214 154.484C12.2328 154.601 11.0644 155.389 9.51634 156.85C7.99748 158.252 7.29647 159.113 7.41331 159.435C7.50093 159.698 8.3772 159.698 10.0421 159.435L13.9415 158.602C14.1167 158.544 14.2044 158.705 14.2044 159.084C14.2044 159.493 14.1167 159.712 13.9415 159.741C12.5103 160.209 10.8746 160.516 9.0344 160.662C7.13582 160.808 6.0843 160.676 5.87984 160.267C5.58775 159.654 6.36179 158.383 8.20195 156.455C10.0421 154.469 11.5902 153.389 12.8462 153.213C13.6348 153.096 14.3358 153.476 14.9492 154.352C15.5918 155.229 15.9277 156.28 15.9569 157.507C15.9569 157.682 15.7816 157.77 15.4311 157.77C15.0514 157.77 14.8616 157.682 14.8616 157.507Z" fill="#0D131A"/>
<path d="M11.8382 161.932C11.5169 161.406 12.2764 160.092 14.1165 157.989C15.9859 155.857 17.4756 154.747 18.5855 154.659C19.4033 154.572 20.2504 155.185 21.1267 156.499C22.0029 157.755 22.3242 158.807 22.0905 159.654C21.8861 160.443 20.1628 161.114 16.9206 161.669L11.8382 161.932ZM13.3279 161.012L16.9206 160.618C19.2573 160.121 20.4987 159.654 20.6447 159.216C20.82 158.719 20.6739 158.047 20.2066 157.2C19.7392 156.353 19.2427 155.944 18.7169 155.974C17.9867 156.032 16.8622 156.835 15.3433 158.383C13.8829 159.844 13.2111 160.72 13.3279 161.012Z" fill="#0D131A"/>
<path d="M135.523 113.08C135.582 112.905 135.815 112.905 136.224 113.08C136.633 113.256 136.808 113.431 136.75 113.606C133.537 121.23 129.156 127.247 123.606 131.657C118.611 135.6 113.003 137.995 106.782 138.843C101.027 139.631 95.4194 139.018 89.9573 137.002C84.5537 135.016 80.1285 131.978 76.6819 127.889C76.5651 127.743 76.6089 127.334 76.8133 126.662C77.047 125.991 77.2223 125.728 77.3391 125.874C81.0778 130.314 85.6636 133.527 91.0965 135.513C96.4417 137.499 101.918 138.039 107.526 137.134C113.368 136.17 118.655 133.76 123.387 129.905C128.557 125.699 132.602 120.09 135.523 113.08Z" fill="#0D131A"/>
<path d="M139.379 115.841C139.408 115.665 139.642 115.607 140.08 115.665C140.518 115.724 140.723 115.841 140.694 116.016C139.467 126.151 135.874 134.578 129.916 141.296C124.716 147.138 118.13 151.286 110.156 153.739C103 155.901 95.8288 156.426 88.6434 155.316C81.6625 154.236 76.3173 151.855 72.6077 148.175C72.4909 148.058 72.5493 147.707 72.783 147.123C73.0167 146.539 73.1919 146.305 73.3087 146.422C76.7846 149.898 81.8961 152.22 88.6434 153.389C95.6243 154.615 102.576 154.265 109.499 152.337C117.268 150.176 123.694 146.291 128.776 140.683C134.618 134.228 138.152 125.947 139.379 115.841Z" fill="#0D131A"/>
<path d="M138.415 123.727L138.284 125.918C135.48 133.541 130.996 139.631 124.833 144.188C119.429 148.219 113.15 150.789 105.993 151.899C99.4798 152.921 93.2145 152.614 87.1975 150.979C81.2681 149.402 76.8283 146.875 73.8782 143.399C73.7614 143.253 73.8198 142.946 74.0535 142.479C74.2872 142.041 74.4624 141.895 74.5793 142.041C77.5001 145.458 81.9107 147.97 87.8109 149.577C93.8279 151.183 100.079 151.461 106.563 150.409C113.69 149.27 119.926 146.641 125.271 142.523C131.347 137.82 135.728 131.555 138.415 123.727Z" fill="#0D131A"/>
<path d="M147.397 85.8285V84.4703C147.309 84.295 147.002 84.4118 146.476 84.8208C145.045 86.0183 144.227 86.5295 144.023 86.3542C143.848 86.2082 143.848 85.2881 144.023 83.594C144.373 79.9721 143.614 77.723 141.745 76.8468C140.956 76.4962 140.532 75.9559 140.474 75.2257C140.416 74.6707 140.591 73.4439 141 71.5453C141.467 69.2963 141.701 67.6022 141.701 66.463C141.701 65.2654 141.467 63.7466 141 61.9064C140.766 63.5129 140.489 64.7397 140.167 65.5867C139.846 66.4338 139.408 67.091 138.853 67.5583C136.691 69.4277 135.202 71.0196 134.384 72.334C133.683 73.4731 133.376 74.6561 133.464 75.8829C133.581 77.0512 133.566 77.9421 133.42 78.5555L132.631 80.2642L131.887 81.4471C131.653 81.8853 131.492 82.4403 131.405 83.1121C131.259 84.1052 131.098 84.6163 130.923 84.6455C130.777 84.6747 130.426 84.2658 129.871 83.4187C129.287 82.5717 129.214 81.2427 129.652 79.4317C129.886 78.5555 129.813 77.6062 129.433 76.5839C129.053 75.5908 128.966 74.7875 129.17 74.1741C128.761 74.5539 128.455 75.2403 128.25 76.2334C128.046 77.3141 128.119 78.2488 128.469 79.0374C128.79 79.7384 128.849 80.6147 128.644 81.6662L128.119 83.2435C127.739 83.9737 127.549 84.6309 127.549 85.2151L127.9 86.7924C128.25 87.9023 128.323 88.7494 128.119 89.3335C127.272 91.3489 126.848 92.751 126.848 93.5396C126.848 94.1822 127.155 94.9708 127.768 95.9055C128.382 96.811 128.659 97.6435 128.601 98.4029L127.856 100.725L126.98 102.434C126.717 103.076 126.571 103.763 126.541 104.493C126.483 105.69 126.819 106.859 127.549 107.998C128.279 109.225 129.17 109.955 130.222 110.189L134.34 111.372C135.479 111.839 136.458 112.54 137.276 113.475C138.152 114.409 138.911 114.92 139.554 115.008C140.255 115.125 141.014 114.76 141.832 113.913C142.621 113.066 143.483 112.409 144.417 111.941C145.118 111.62 145.688 110.89 146.126 109.751C146.564 108.582 147.002 107.881 147.44 107.647C148.579 107.005 149.397 106.406 149.894 105.851C150.595 105.063 150.887 104.142 150.77 103.091C150.683 102.448 150.829 101.455 151.208 100.112C151.588 98.768 151.749 97.7749 151.69 97.1323V94.6788C151.778 93.7441 151.909 92.9993 152.085 92.4443L151.033 94.5035L149.675 96.957C149.003 98.2714 148.536 98.914 148.273 98.8848C148.01 98.8848 147.937 98.213 148.054 96.8694L148.404 94.153L148.623 91.5242C147.747 92.2252 147.177 92.5173 146.915 92.4005C146.681 92.2836 146.608 91.7725 146.696 90.867L147.397 85.8285ZM142.708 64.6667L142.928 67.5145C142.898 68.3032 142.533 70.0119 141.832 72.6407C141.365 74.3056 141.511 75.3133 142.27 75.6638C143.848 76.3648 144.812 77.4893 145.162 79.0374C145.513 80.381 145.425 82.2942 144.899 84.777C146.769 82.9076 147.893 82.3526 148.273 83.1121C148.711 83.9007 148.521 86.4565 147.703 90.7794C148.609 90.0199 149.178 89.8593 149.412 90.2974C149.733 90.8524 149.675 92.4589 149.237 95.1169L150.595 93.1891L151.471 91.4804C151.938 90.2828 152.26 89.6694 152.435 89.6402C152.669 89.6402 152.8 90.3266 152.829 91.6995L152.654 94.153C152.596 95.2629 152.669 96.1684 152.873 96.8694C153.136 97.6873 152.99 98.8118 152.435 100.243C151.851 101.703 151.661 102.755 151.865 103.398C152.245 104.712 151.792 105.866 150.507 106.859C148.726 108.202 147.689 109.196 147.397 109.838L146.608 111.591C146.17 112.321 145.673 112.803 145.118 113.037C144.008 113.504 143.161 114.059 142.577 114.701C141.175 116.133 140.094 116.804 139.335 116.717C138.692 116.658 137.685 115.87 136.312 114.351C134.647 112.482 132.383 111.372 129.521 111.021C128.352 110.875 127.315 110.145 126.41 108.83C125.563 107.604 125.096 106.333 125.008 105.019C124.92 104.113 125.3 102.857 126.147 101.251C126.994 99.6735 127.403 98.6804 127.374 98.2714C127.345 97.7457 127.14 97.2637 126.76 96.8256L125.884 95.7303C125.3 94.6203 125.636 92.4735 126.892 89.2897C127.242 88.4719 127.228 87.6832 126.848 86.9238C126.41 86.0183 126.191 85.2881 126.191 84.7331C126.22 84.2366 126.468 83.5356 126.936 82.6301L127.549 81.1405C127.666 80.5271 127.637 79.8114 127.461 78.9936C127.14 77.5624 127.155 76.321 127.505 75.2695C127.71 74.7145 128.177 73.8821 128.907 72.7721C129.345 72.1003 129.623 71.779 129.74 71.8082C129.886 71.8374 129.973 72.261 130.003 73.0788L129.959 74.3056C129.988 75.0358 130.163 75.8098 130.485 76.6277C130.835 77.5624 130.806 78.6723 130.397 79.9575C130.134 80.7169 130.178 81.5348 130.528 82.411L131.93 79.6946C132.31 79.0228 132.485 78.3364 132.456 77.6354L132.281 75.7514C132.281 73.5315 132.894 71.7644 134.121 70.45C134.851 69.6322 136.253 68.3762 138.327 66.6821C139.145 65.689 139.656 64.0387 139.861 61.7312C140.094 59.6573 140.299 58.6058 140.474 58.5766C140.708 58.5182 141.219 59.5697 142.007 61.7312C142.3 62.5198 142.533 63.4983 142.708 64.6667Z" fill="#0D131A"/>
<path d="M44.085 21.6858L44.9175 21.5544C45.2972 21.5836 45.4286 21.6712 45.3118 21.8173C43.4132 23.8911 42.2449 27.1917 41.8067 31.7191C41.3978 35.8959 41.7191 38.9629 42.7706 40.9199C42.8583 41.0951 42.7268 41.2411 42.3763 41.358L41.7191 41.2704C40.4924 38.9044 40.1272 35.56 40.6238 31.2371C41.1203 26.8558 42.2741 23.672 44.085 21.6858Z" fill="#0D131A"/>
<path d="M18.1475 46.4841C18.3519 46.4841 18.6586 46.6302 19.0676 46.9223C19.4765 47.2144 19.5933 47.3604 19.4181 47.3604C18.2205 47.448 16.9353 47.7839 15.5625 48.3681C14.3357 48.9231 13.2696 49.5657 12.3641 50.2959C12.2473 50.4127 12.0866 50.3251 11.8822 50.033C11.6777 49.7409 11.6339 49.5365 11.7507 49.4196C13.9122 47.6379 16.0444 46.6594 18.1475 46.4841Z" fill="#0D131A"/>
<path d="M54.6876 167.935C54.8629 167.321 55.2426 166.766 55.8268 166.27C56.5278 165.715 57.2142 165.539 57.886 165.744C58.7915 166.036 59.4779 166.664 59.9452 167.628C60.3541 168.475 60.471 169.205 60.2957 169.819C60.0036 170.812 59.2588 172.068 58.0613 173.586C56.8929 175.018 56.1189 175.748 55.7391 175.777C55.2718 175.806 54.9067 174.74 54.6438 172.579C54.3809 170.447 54.3955 168.898 54.6876 167.935Z" fill="white"/>
<path d="M63.5822 169.512C63.4654 168.665 63.5384 167.92 63.8013 167.277C64.1226 166.489 64.6922 166.007 65.51 165.832C67.0873 165.539 68.1972 166.138 68.8398 167.628C69.2196 168.533 69.3072 170.111 69.1027 172.36C68.8983 174.58 68.5916 175.777 68.1826 175.952C67.7737 176.128 66.9997 175.558 65.8605 174.244C64.6046 172.783 63.8451 171.206 63.5822 169.512Z" fill="white"/>
<path d="M71.9939 168.592C72.1984 166.693 72.7825 165.291 73.7464 164.386C74.6519 163.539 75.4259 163.48 76.0685 164.21C76.6527 164.882 77.1931 166.576 77.6896 169.293C78.2154 171.951 78.3176 173.353 77.9963 173.499C77.6166 173.674 76.5067 173.002 74.6665 171.483C72.8264 169.965 71.9355 169.001 71.9939 168.592Z" fill="white"/>
<path d="M48.1598 64.0095L58.1054 79.4755C56.8202 84.0613 53.987 88.6471 49.6056 93.2329C48.0576 94.8394 45.7063 96.8986 42.5517 99.4106L38.959 102.565C37.4694 103.792 36.4763 104.318 35.9797 104.142C35.5416 104.026 35.1619 103.135 34.8406 101.47L34.4901 99.0163L32.2556 100.418C30.6783 101.265 29.6852 101.484 29.2763 101.075C28.8966 100.696 28.8235 99.7903 29.0572 98.3591L29.4953 96.3437C27.3339 96.3437 26.2678 96.0078 26.297 95.336C26.3262 94.8686 26.8811 94.1822 27.9619 93.2767C29.3055 92.1376 30.2256 91.2029 30.7221 90.4727C31.9197 84.6601 35.1911 78.5117 40.5363 72.0273C43.1943 68.7851 45.7355 66.1125 48.1598 64.0095Z" fill="#EF8200"/>
<path d="M36.1982 104.055C37.8631 100.959 39.1191 98.8994 39.9662 97.8771L48.2907 90.2974C52.7597 86.2958 55.8704 82.7907 57.6229 79.7822C57.2724 82.7907 55.3593 86.5003 51.8834 90.9108C48.6704 95 45.7934 97.6873 43.2522 98.9724C39.5134 101.981 37.1621 103.675 36.1982 104.055Z" fill="#CF7100"/>
<path d="M59.2883 166.664C60.3983 168.329 60.3691 170.242 59.2007 172.404C58.2076 174.244 57.1853 175.324 56.1338 175.646L58.3683 170.782C59.0401 168.942 59.3468 167.569 59.2883 166.664Z" fill="#DBDCDC"/>
<path d="M64.3709 166.62L65.4662 170.87C65.9335 172.564 66.4739 174.098 67.0873 175.47C66.5615 175.587 65.8751 174.945 65.0281 173.543C64.1518 172.111 63.6553 170.768 63.5384 169.512C63.4508 168.431 63.5676 167.628 63.8889 167.102L64.3709 166.62Z" fill="#DBDCDC"/>
<path d="M72.6945 166.357L74.9728 169.38C76.5208 171.513 77.3387 172.929 77.4263 173.63L74.8413 171.746C73.118 170.315 72.2563 169.234 72.2563 168.504C72.2563 167.774 72.3294 167.204 72.4754 166.795L72.6945 166.357Z" fill="#DBDCDC"/>
<path d="M57.6229 166.445C56.513 166.357 55.7828 166.781 55.4323 167.715C55.0818 168.592 55.0087 170.023 55.2132 172.009C55.3592 173.879 55.5783 174.872 55.8704 174.988C56.1625 175.105 56.8051 174.477 57.7982 173.105C58.7913 171.702 59.3755 170.563 59.5507 169.687C59.6676 168.986 59.5361 168.3 59.1564 167.628C58.7767 166.927 58.2655 166.533 57.6229 166.445ZM57.8858 165.35C58.8497 165.583 59.6091 166.182 60.1641 167.146C60.6607 167.993 60.8651 168.884 60.7775 169.819C60.6607 170.695 59.9012 172.038 58.4992 173.849C57.0972 175.66 56.1333 176.537 55.6075 176.478C54.9649 176.449 54.483 175.149 54.1617 172.579C53.8696 170.038 53.9134 168.256 54.2931 167.234C54.5268 166.62 55.0087 166.109 55.739 165.7C56.4984 165.291 57.214 165.174 57.8858 165.35Z" fill="#0D131A"/>
<path d="M68.1379 167.716C67.9335 167.248 67.5976 166.898 67.1302 166.664C66.6921 166.43 66.2393 166.357 65.772 166.445C65.3631 166.533 64.998 166.781 64.6767 167.19C64.2969 167.657 64.1217 168.183 64.1509 168.767C64.1801 170.169 64.7497 171.673 65.8596 173.28C66.8527 174.711 67.5099 175.368 67.8312 175.251C68.1233 175.164 68.357 174.171 68.5322 172.272C68.7659 170.227 68.6345 168.709 68.1379 167.716ZM67.6122 165.525C68.284 165.875 68.7951 166.416 69.1456 167.146C69.6422 168.227 69.759 170.052 69.4961 172.623C69.2332 175.135 68.8243 176.464 68.2694 176.61C67.5099 176.814 66.4146 175.879 64.9834 173.806C63.5229 171.703 62.8219 169.994 62.8803 168.679C62.9387 167.891 63.187 167.175 63.6251 166.533C64.1217 165.802 64.7643 165.364 65.5529 165.218C66.2832 165.072 66.9696 165.174 67.6122 165.525Z" fill="#0D131A"/>
<path d="M72.826 168.373C72.8552 169.044 73.6 169.965 75.0605 171.133C76.4333 172.272 77.2073 172.783 77.3826 172.666C77.6163 172.462 77.4994 171.191 77.0321 168.855C76.5355 166.372 75.9368 164.911 75.2357 164.473C74.5639 164.415 73.9798 164.853 73.4832 165.788C72.9867 166.635 72.7676 167.496 72.826 168.373ZM71.5992 168.46C71.5116 167.321 71.8913 166.138 72.7384 164.911C73.6147 163.597 74.5347 163.027 75.4986 163.203C76.5501 163.436 77.4118 165.291 78.0836 168.767C78.7554 172.184 78.7992 174.039 78.215 174.331C77.8353 174.536 76.667 173.835 74.71 172.228C72.6946 170.563 71.6577 169.307 71.5992 168.46Z" fill="#0D131A"/>
<path d="M45.3553 65.6305C46.8741 64.4622 47.7504 63.9656 47.9841 64.1409C48.247 64.3453 47.692 65.1048 46.3192 66.4192C42.9309 69.6906 39.9516 73.3125 37.3813 77.2849C34.4896 81.7246 32.5034 86.0037 31.4227 90.1222C31.2182 90.8232 30.7655 91.568 30.0644 92.3566L28.1367 94.1092C27.4356 94.6933 27.202 95.1023 27.4356 95.3359C27.6693 95.5696 28.4141 95.6865 29.6701 95.6865C29.8454 95.6865 29.9184 95.8909 29.8892 96.2998C29.86 96.7088 29.7578 96.9132 29.5825 96.9132C27.9468 96.9132 26.7638 96.6796 26.0336 96.2122C25.0405 95.5404 25.3764 94.5181 27.0413 93.1453L29.1882 91.3051C29.6847 90.8086 29.9914 90.2974 30.1083 89.7717C31.335 85.2151 33.292 80.7753 35.9792 76.4524C38.7833 71.925 41.9086 68.3177 45.3553 65.6305Z" fill="#0D131A"/>
<path d="M56.0458 82.192C56.8636 80.1474 57.404 79.1981 57.6669 79.3441C57.9589 79.4902 57.7545 80.6439 57.0535 82.8054C56.002 86.1352 54.2348 89.3044 51.7521 92.3129C49.4446 95.1461 46.8742 97.4244 44.0409 99.1477C43.486 99.4982 42.1424 100.637 40.0101 102.565C37.9363 104.259 36.4758 104.975 35.6288 104.712C35.1614 104.566 34.7525 104.011 34.402 103.047C34.0515 102.083 33.8908 101.076 33.9201 100.024C32.7809 100.842 31.671 101.368 30.5903 101.601L28.7063 101.514C28.3266 101.192 28.2097 100.462 28.3558 99.323C28.5018 98.2131 28.8523 97.1177 29.4073 96.037C30.1959 94.5181 30.7509 93.8171 31.0722 93.934C31.3935 94.0216 31.2036 94.8832 30.5026 96.5189C29.6556 98.5051 29.4365 99.7027 29.8454 100.112L31.4665 99.8487C32.3428 99.5275 33.1898 99.1039 34.0077 98.5782C34.4166 98.3153 34.6795 98.2131 34.7963 98.2715C34.9424 98.3007 35.03 98.549 35.0592 99.0163C35.2345 101.587 35.6142 102.959 36.1983 103.135C36.6949 103.281 37.761 102.653 39.3967 101.251L43.5152 97.8772C45.8227 96.4459 48.1594 94.2845 50.5253 91.3928C52.9788 88.3843 54.819 85.3173 56.0458 82.192Z" fill="#0D131A"/>
</svg>
