<svg width="223" height="219" viewBox="0 0 223 219" fill="none" xmlns="http://www.w3.org/2000/svg">
<path d="M156.954 84.464L156.554 84.1864L157.077 85.297C157.241 85.6261 157.61 86.0169 158.184 86.4694L159.044 87.2406L159.014 86.3768C158.973 85.9655 158.286 85.3279 156.954 84.464ZM175.096 75.1162C175.342 74.1701 175.823 73.008 176.541 71.63L177.586 69.7481C177.832 69.3779 178.171 69.2545 178.601 69.3779C179.011 69.5219 179.196 69.8201 179.155 70.2726L178.847 74.53C178.663 77.5329 178.622 79.569 178.724 80.6385C178.786 81.1527 178.919 81.5435 179.124 81.8109L180.016 82.4896L181.307 83.2609C181.902 83.6722 182.342 84.1144 182.629 84.5874C183.367 85.7598 183.859 87.5697 184.105 90.0172C184.351 92.2796 184.3 93.9662 183.951 95.0768C183.828 95.4676 183.808 95.8069 183.89 96.0949C183.951 96.3623 184.136 96.6708 184.443 97.0204L185.151 97.4215L185.766 97.8842L186.012 98.964C185.991 99.2314 185.848 99.5193 185.581 99.8279L184.905 100.753C184.659 101.206 184.536 101.617 184.536 101.987L184.72 103.252C184.802 103.931 184.771 104.466 184.628 104.857C184.443 105.432 184.064 105.731 183.49 105.751C182.834 105.69 182.383 105.69 182.137 105.751C181.645 105.895 181.266 106.08 181 106.307C180.61 106.718 180.354 107.263 180.231 107.942C180.087 108.6 180.108 109.135 180.292 109.546L180.877 109.731L181.584 109.916L182.537 110.132C182.906 110.317 183.121 110.626 183.183 111.058L182.722 111.705L181.861 112.754L180.723 113.958C180.231 114.513 180.118 114.904 180.385 115.13C180.569 115.274 180.918 114.976 181.43 114.235C182.168 113.166 182.752 112.425 183.183 112.014C184.454 110.78 185.796 109.926 187.211 109.453C188.912 108.795 189.763 108.538 189.763 108.682L189.302 109.299L188.81 109.885C190.163 109.227 192.049 108.446 194.468 107.541L195.913 107.294C196.651 107.191 197.03 107.191 197.051 107.294C197.092 107.479 196.815 107.787 196.22 108.219L195.052 109.021L187.149 115.223C186.329 115.881 185.52 116.837 184.72 118.092C184.044 119.099 183.593 119.953 183.367 120.652C183.224 121.125 182.968 121.485 182.599 121.732L181.492 122.38L180.907 122.812L180.938 122.997C181.082 123.614 181.061 124.426 180.877 125.434L180.231 126.113L179.524 126.699C184.341 134.617 187.467 142.474 188.902 150.269C191.075 161.951 189.117 172.297 183.029 181.305C175.301 192.72 165.984 199.878 155.078 202.778C150.424 204.012 145.095 204.608 139.088 204.567L121.622 203.302C111.701 202.171 102.476 198.417 93.948 192.041C91.2421 190.005 88.7514 187.805 86.4759 185.439L83.6162 182.231L84.139 179.67L134.076 166.188L134.937 169.829L136.351 168.533C136.454 168.183 136.454 167.844 136.351 167.515C136.249 167.227 136.116 167.011 135.952 166.867L142.963 170.353C147.636 172.657 152.454 173.048 157.415 171.526C163.401 169.695 168.505 165.232 172.728 158.136C175.516 153.447 176.664 147.976 176.172 141.724C175.803 136.972 174.583 132.232 172.513 127.501C170.996 127.563 170.135 127.707 169.93 127.933C169.335 128.612 168.772 129.023 168.239 129.167C167.111 129.517 165.686 129.105 163.964 127.933L163.841 127.841C163.288 127.47 163.052 126.689 163.134 125.496L163.042 124.57L162.765 123.892C162.601 123.707 162.345 123.542 161.996 123.398L160.736 122.874L159.475 122.997L157.968 123.645C156.8 124.344 156.082 124.725 155.816 124.786C154.914 125.013 154.186 124.385 153.633 122.904L152.956 120.282L152.802 119.819L152.095 118.308C151.87 117.732 151.931 117.166 152.28 116.611C152.485 116.261 152.7 115.408 152.925 114.05C153.151 112.693 153.253 111.644 153.233 110.903L153.202 109.638C153.202 109.042 153.325 108.476 153.571 107.942C153.715 107.633 153.991 107.191 154.401 106.615L155.416 104.98L155.724 103.777L155.57 102.697C155.365 101.895 155.283 101.196 155.324 100.599L155.416 99.0874C155.457 98.491 155.57 97.9665 155.754 97.514C155.836 97.3084 156.113 96.8044 156.585 96.0023C156.913 95.4264 157.066 95.0151 157.046 94.7683C157.005 94.3569 156.646 93.1949 155.97 91.2821C155.293 89.4722 154.893 88.1765 154.77 87.3949C154.647 86.5928 154.586 85.7187 154.586 84.7726L154.617 83.5077C154.637 83.2814 154.75 83.086 154.955 82.9215L152.218 80.5151C152.054 80.3712 151.962 80.1963 151.941 79.9907C151.9 79.7644 151.952 79.5587 152.095 79.3736C152.198 79.2091 152.362 79.096 152.587 79.0343L153.171 79.1268C155.078 80.0935 156.298 80.6385 156.831 80.7619L158.46 80.7311L159.198 80.6077C160.285 80.4431 161.463 80.9984 162.734 82.2736L162.98 82.5513L162.581 79.2194C162.519 78.335 162.837 76.9467 163.534 75.0545C164.067 73.697 164.723 72.2368 165.502 70.6736C165.83 70.0155 166.096 68.7198 166.301 66.7864L166.547 62.7758C166.547 62.3233 166.763 62.0559 167.193 61.9737C167.624 61.8708 167.941 62.0148 168.146 62.4056L168.546 63.4545C168.813 64.2772 168.946 65.0588 168.946 65.7992C168.946 66.3339 169.089 67.3006 169.376 68.6992L169.1 66.2003C169.079 65.974 169.13 65.7683 169.253 65.5832C169.397 65.3776 169.581 65.2542 169.807 65.213C170.032 65.1925 170.248 65.2439 170.453 65.3673C170.637 65.4907 170.75 65.6655 170.791 65.8917L171.067 67.1258C171.313 68.0307 171.58 68.7917 171.867 69.4088C172.133 70.0052 172.256 70.7045 172.236 71.5066L171.99 73.5736L171.775 74.9619C171.734 75.6201 172.297 76.7204 173.466 78.263L174.204 79.2502L174.542 79.8364L174.634 78.5407C174.737 76.9981 174.891 75.8566 175.096 75.1162Z" fill="#0D131A"/>
<path d="M173.619 92.2694L174.173 91.9609C174.316 92.0226 174.316 92.3414 174.173 92.9173C173.968 93.7606 173.875 94.7684 173.896 95.9407C173.916 97.0308 174.029 97.9563 174.234 98.7173C174.419 99.3549 174.716 99.9411 175.126 100.476C175.474 100.969 175.659 101.442 175.679 101.895C175.7 102.964 175.618 103.972 175.433 104.918C175.433 105.124 175.505 105.268 175.649 105.35C175.772 105.433 175.966 105.361 176.233 105.134C176.499 104.805 176.735 104.353 176.94 103.777C177.043 103.468 177.053 103.098 176.971 102.666C176.93 102.131 177.012 101.658 177.217 101.247L177.709 100.229C177.893 99.8588 178.078 99.7045 178.262 99.7662L178.355 100.291L178.201 101.864L178.57 102.419L178.724 103.345C178.683 103.674 178.396 104.456 177.863 105.69L177.155 107.757C176.93 108.456 176.838 108.98 176.879 109.33C176.981 110.297 177.176 110.78 177.463 110.78L177.709 110.379L177.955 109.546L178.939 107.664C179.144 107.314 179.533 106.852 180.107 106.276C179.656 107.098 179.431 107.952 179.431 108.836C179.431 109.227 179.533 109.68 179.738 110.194C179.882 110.523 180.292 110.759 180.968 110.903C181.624 111.006 181.973 111.202 182.014 111.49C182.055 111.819 181.829 112.189 181.337 112.6L180.169 113.618C179.861 114.009 179.697 114.41 179.677 114.822C179.636 115.295 179.8 115.655 180.169 115.901C180.579 116.189 181.173 115.788 181.952 114.698L183.705 112.323C184.361 111.767 185.775 110.965 187.948 109.916L185.98 111.613C185.693 111.86 185.417 112.22 185.15 112.693L184.843 113.341L186.073 112.508C187.057 111.87 187.928 111.335 188.686 110.903C189.916 110.245 191.946 109.392 194.775 108.343L186.688 114.174C185.724 114.935 184.791 115.87 183.889 116.981C183.049 118.051 182.516 118.925 182.291 119.603C182.106 120.118 181.676 120.652 180.999 121.208L179.585 122.287C179.4 122.493 179.349 122.791 179.431 123.182L179.462 124.725C179.38 125.074 179.175 125.393 178.847 125.681L174.296 120.745L172.328 118.986L171.251 118.215L173.496 121.269L171.774 121.454L171.374 121.979L170.114 119.665L170.237 120.714C170.421 121.66 170.739 122.791 171.19 124.108L169.868 124.231L169.068 124.478L168.546 124.447C167.951 123.933 167.633 123.573 167.592 123.367C167.572 123.244 167.613 123.12 167.715 122.997L167.931 122.719C168.177 122.246 168.259 121.588 168.177 120.745C168.095 119.902 167.879 119.264 167.531 118.832C167.203 118.4 166.598 117.917 165.717 117.382C164.774 116.827 164.025 116.549 163.472 116.549C163.267 116.549 162.939 116.662 162.488 116.889L161.412 117.382C161.022 117.485 160.694 117.31 160.428 116.858C159.977 115.994 159.628 115.017 159.382 113.927C159.136 112.775 159.146 112.066 159.413 111.798C159.72 111.49 160.622 110.996 162.119 110.317L163.687 109.423C164.138 109.114 164.415 108.795 164.517 108.466C164.763 107.788 164.497 106.965 163.718 105.998C162.693 104.744 162.467 103.54 163.041 102.389C163.287 101.854 163.882 101.412 164.825 101.062C165.399 100.836 165.993 100.394 166.608 99.7354L167.562 97.9769L168.361 95.5396C168.566 94.7992 168.761 94.429 168.945 94.429C169.068 94.429 169.15 94.717 169.191 95.2928C169.232 96.0538 169.191 96.8045 169.068 97.545L168.822 99.0258C168.781 99.3138 168.802 99.4989 168.884 99.5811C169.027 99.7251 169.202 99.7765 169.407 99.7354C169.981 99.5914 170.452 99.2726 170.821 98.779C171.251 98.162 171.569 97.2159 171.774 95.9407C171.938 94.9535 172.297 94.0382 172.85 93.195L173.619 92.2694Z" fill="#EFE908"/>
<path d="M175.895 75.3321C176.141 74.4272 176.623 73.3063 177.34 71.9694L178.324 70.2109L178.017 74.4683C177.812 77.5123 177.771 79.5999 177.894 80.7311C177.996 81.7389 178.447 82.5101 179.247 83.0449C180.333 83.7648 181.061 84.4126 181.43 84.9885C182.127 86.0992 182.66 87.796 183.029 90.0789C183.398 92.3002 183.439 93.8839 183.152 94.83C182.926 95.5704 183.06 96.2903 183.552 96.9896L184.689 98.5321C184.874 98.9229 184.905 99.2108 184.782 99.3959C184.536 99.6839 184.32 100.013 184.136 100.383C183.951 100.774 183.859 101.268 183.859 101.864C183.859 102.584 183.757 103.221 183.552 103.777C183.347 104.414 182.885 104.846 182.168 105.073C181.245 105.36 180.641 105.648 180.354 105.936L179.862 106.584C179.206 107.284 178.642 108.178 178.17 109.268L177.801 110.441L177.525 110.996C177.402 111.037 177.279 110.924 177.156 110.657L176.848 109.546C176.787 109.114 176.838 108.6 177.002 108.003L177.586 106.245L178.232 104.641L178.601 103.407L178.57 102.666L178.324 102.327C178.16 102.08 178.078 101.833 178.078 101.586L178.232 100.445C178.293 100.116 178.283 99.941 178.201 99.9204C178.017 99.8793 177.76 100.239 177.433 101C177.125 101.658 177.002 102.193 177.064 102.604V103.684C176.613 104.959 176.151 105.556 175.68 105.474C175.331 105.412 175.249 105.021 175.434 104.301L175.588 102.142C175.588 101.566 175.444 101.072 175.157 100.661C174.706 100.064 174.419 99.5502 174.296 99.1183C173.845 97.5346 173.661 96.0229 173.743 94.5832C173.763 94.1101 173.886 93.5034 174.112 92.763C174.399 91.7963 174.112 91.8272 173.251 92.8555C172.615 93.6988 172.185 94.6243 171.959 95.6321C171.59 97.3598 171.17 98.5115 170.698 99.0874C170.555 99.252 170.329 99.4165 170.022 99.581C169.673 99.7661 169.386 99.8484 169.161 99.8278L168.792 99.581L168.7 99.2417L169.13 96.0023C169.192 95.0768 169.13 94.614 168.946 94.614C168.843 94.614 168.73 94.8094 168.607 95.2002L168.177 96.5885C167.685 98.1516 167.275 99.1286 166.947 99.5193L165.778 100.599L164.61 101.309C164.241 101.453 163.964 101.597 163.78 101.741C163.534 101.946 163.329 102.255 163.165 102.666C162.857 103.365 162.827 104.054 163.073 104.733L163.934 106.152L164.641 107.355C164.784 107.726 164.795 108.116 164.672 108.528C164.59 108.754 164.303 109.063 163.811 109.453L161.75 110.626C160.807 110.975 160.08 111.397 159.567 111.891C159.055 112.425 159.372 114.06 160.52 116.796C160.725 117.207 161.012 117.362 161.381 117.259L162.365 116.796C162.878 116.549 163.319 116.426 163.688 116.426C164.098 116.426 164.794 116.734 165.778 117.351C166.701 117.907 167.306 118.349 167.593 118.678C167.88 118.986 168.085 119.572 168.208 120.436C168.331 121.238 168.331 121.845 168.208 122.257L167.777 123.028C167.654 123.233 167.675 123.408 167.839 123.552L168.454 124.138C168.659 124.324 168.874 124.396 169.099 124.354L169.93 124.077L171.129 123.953L171.805 125.774L171.498 125.712C171.026 125.609 170.432 125.938 169.714 126.699L168.115 128.149C167.48 128.314 166.25 127.789 164.426 126.576C164.098 126.349 163.944 126.051 163.964 125.681C164.005 125.085 163.964 124.622 163.841 124.293C163.657 123.758 163.288 123.347 162.734 123.059C162.017 122.791 161.443 122.534 161.012 122.287L158.675 122.411L156.461 123.305C155.949 123.429 155.406 123.079 154.832 122.257C154.401 121.619 154.042 120.879 153.755 120.035L153.294 118.4C153.212 117.886 153.325 117.382 153.632 116.888C153.919 116.415 154.083 115.274 154.124 113.464L154.063 109.638C154.063 108.96 154.299 108.281 154.77 107.602L156.185 105.35C156.554 104.589 156.656 103.797 156.492 102.975C156.267 101.802 156.164 101.031 156.185 100.661C156.226 100.106 156.543 99.0771 157.138 97.5757C157.691 96.1977 157.937 95.231 157.876 94.6757C157.835 94.1204 157.476 92.9172 156.8 91.0662C156.103 89.1123 155.703 87.8474 155.6 87.2715C155.477 86.5105 155.426 85.6672 155.447 84.7417L155.477 83.5694L155.631 84.1555C155.795 84.6492 156.031 85.1633 156.338 85.6981C156.584 86.1506 157.005 86.6236 157.599 87.1172C158.255 87.652 158.727 88.1353 159.014 88.5672C159.301 88.9991 159.495 89.5236 159.598 90.1406C159.885 88.413 159.977 87.1275 159.875 86.2843C159.813 85.7289 159.403 85.1531 158.645 84.5566L156.738 83.2917C156.328 83.0038 155.549 82.3456 154.401 81.3172L152.771 79.8672L154.278 80.6077C155.365 81.1424 156.144 81.4715 156.615 81.5949L157.999 81.6875L159.29 81.4406C160.131 81.3172 161.084 81.7903 162.15 82.8598C162.355 83.0655 162.509 83.4871 162.611 84.1247C162.734 84.8034 163.001 85.4307 163.411 86.0066C164.169 87.035 164.6 87.8371 164.702 88.413C163.944 83.4768 163.513 80.3917 163.411 79.1577C163.349 78.335 163.688 76.9981 164.426 75.147C164.918 73.8513 165.532 72.4836 166.27 71.0439C166.68 70.2212 166.988 68.6066 167.193 66.2003L167.377 62.8066L167.746 63.7013C167.992 64.4417 168.115 65.141 168.115 65.7992C168.115 66.3545 168.238 67.28 168.484 68.5758L168.946 71.4758C169.048 72.607 169.14 73.08 169.222 72.8949C169.509 72.5247 169.796 71.9077 170.083 71.0439C170.37 70.2006 170.319 68.5449 169.93 66.0768L170.237 67.3417L171.067 69.779C171.354 70.4166 171.436 71.2495 171.313 72.2779L170.944 74.9002C170.883 75.5995 171.18 76.4531 171.836 77.4609L173.497 79.7438C174.071 80.5871 174.399 81.5332 174.481 82.5821C174.87 81.924 175.157 81.163 175.342 80.2992L175.526 78.1396C175.567 77.0701 175.69 76.1343 175.895 75.3321Z" fill="#E50020"/>
<path d="M94.7167 190.53C92.0107 188.555 89.52 186.457 87.2446 184.236L84.6309 181.46L108.554 175.012C110.809 179.269 113.679 183.084 117.164 186.457C122.637 191.723 128.91 195.055 135.982 196.453C149.41 199.086 162.16 196.145 174.235 187.63C176.756 185.84 179.113 183.619 181.307 180.966C173.743 191.846 164.692 198.613 154.155 201.266C149.707 202.397 144.602 202.922 138.842 202.839L122.268 201.574C112.572 200.464 103.388 196.782 94.7167 190.53Z" fill="#DDD583"/>
<path d="M111.075 174.395L121.93 171.433C124.718 176.513 128.982 180.596 134.721 183.681C140.605 186.828 147.093 188.401 154.186 188.401C160.356 188.401 166.117 187.188 171.467 184.761C176.653 182.396 180.835 179.177 184.013 175.104C181.368 179.917 177.894 183.784 173.589 186.704C161.719 194.746 149.245 197.482 136.167 194.911C129.422 193.574 123.621 190.406 118.763 185.409C116.057 182.611 113.494 178.94 111.075 174.395Z" fill="#D18200"/>
<path d="M171.683 121.208L171.253 118.77L172.513 119.881L173.62 121.454L177.341 126.483C180.559 131.09 183.224 136.479 185.336 142.649C187.365 148.572 188.38 153.704 188.38 158.044C188.38 164.091 186.925 169.777 184.014 175.104C180.836 179.177 176.654 182.395 171.468 184.761C166.118 187.188 160.357 188.401 154.187 188.401C147.094 188.401 140.606 186.828 134.722 183.681C128.983 180.596 124.719 176.513 121.931 171.433L134.569 168.009L135.245 168.656C136.393 169.438 138.689 170.672 142.133 172.359C147.114 174.806 152.342 175.207 157.815 173.562C164.416 171.587 169.971 166.826 174.481 159.278C177.392 154.403 178.499 148.624 177.802 141.94C177.29 137.127 175.906 132.119 173.651 126.915C172.524 124.324 171.56 122.349 170.761 120.992L170.453 119.542L171.683 121.208Z" fill="#F29600"/>
<path d="M116.856 183.28C114.888 180.915 112.961 177.953 111.075 174.395L134.537 168.039L134.629 168.194C134.814 168.399 135.254 168.708 135.951 169.119C136.361 170.929 136.566 172.76 136.566 174.611C136.566 178.087 135.88 181.398 134.506 184.545C133.174 187.589 131.298 190.262 128.879 192.566C124.308 190.489 120.3 187.393 116.856 183.28Z" fill="#D18200"/>
<path d="M90.6278 187.352C89.3978 185.254 88.4753 183.002 87.8604 180.596L108.555 175.012C110.215 178.2 112.306 181.192 114.828 183.989C118.579 188.226 122.843 191.466 127.619 193.707C125.446 195.497 123.068 196.875 120.485 197.841C117.78 198.849 114.981 199.363 112.091 199.384C104.424 196.937 97.2697 192.926 90.6278 187.352Z" fill="#DDD583"/>
<path d="M61.9993 28.6236L53.0512 38.5577C52.6822 39.0718 52.4977 40.5218 52.4977 42.9077C52.4977 45.5814 52.7642 48.3683 53.2972 51.2683C53.6252 53.1605 54.3632 55.5977 55.5112 58.58C56.6796 61.6651 57.6841 63.7218 58.5246 64.7502L63.0755 69.9023L67.2882 74.6842C67.9237 75.6097 68.3747 77.142 68.6411 79.281C69.2151 83.0448 69.6866 85.4718 70.0556 86.5618C70.5681 88.0427 71.2036 89.4721 71.9621 90.8501C72.5156 91.8374 73.3458 93.164 74.4528 94.8299C75.9493 97.0306 77.6815 99.1388 79.6494 101.154L81.0024 100.599L82.6321 100.506C83.1856 100.692 83.5751 101.206 83.8006 102.049L84.2003 104.147L86.1376 105.443C86.5271 105.71 86.773 106.101 86.8755 106.615C86.937 107.088 86.8243 107.52 86.5373 107.911L82.0479 113.742L79.2189 120.93C78.9934 121.526 78.563 121.876 77.9275 121.979C77.6405 122.041 77.2202 121.938 76.6667 121.67L75.5598 120.93C73.3868 118.297 71.1523 115.911 68.8564 113.772C65.4125 110.584 62.6655 108.795 60.6156 108.404C59.1191 108.116 57.5816 108.24 56.0031 108.775C55.5317 108.96 54.3017 109.546 52.3132 110.533C51.0832 111.15 50.1915 111.531 49.638 111.675C48.7155 111.921 47.8956 111.86 47.1781 111.489C46.5836 111.181 46.2453 110.656 46.1633 109.916L46.2248 108.497L46.3786 107.818C46.5631 106.625 46.2761 105.319 45.5176 103.9C45.0256 103.036 44.0724 102.162 42.6579 101.278C40.5669 99.9409 38.2197 99.2725 35.6163 99.2725C29.6099 99.2725 23.2755 101.782 16.6132 106.8C12.8207 109.638 9.5408 112.734 6.77335 116.086C6.67086 116.95 6.67086 118.009 6.77335 119.264L6.95785 121.269C6.95785 122.298 6.71186 123.203 6.21986 123.984C5.70737 124.786 5.09239 125.187 4.3749 125.187C3.69841 125.187 3.09368 124.93 2.56069 124.416C1.8842 123.778 1.49471 122.853 1.39221 121.639L1.36146 121.454C0.930968 116.559 0.654223 112.693 0.531225 109.854C0.449227 107.942 0.449227 106.79 0.531225 106.399C0.900218 103.869 1.7202 99.8689 2.99118 94.398C4.18015 89.2562 5.25638 84.9987 6.21986 81.6257C7.06035 78.664 8.41332 74.6431 10.2788 69.5629C12.0213 64.8119 13.159 61.9633 13.692 61.0172C14.389 59.7626 17.1769 56.2867 22.0558 50.5896C26.8732 44.9747 29.8867 41.6736 31.0961 40.6864C32.1006 39.8637 33.6996 38.9587 35.893 37.9715L37.861 37.0768C38.7015 36.686 39.214 36.4187 39.3985 36.2747L47.0243 30.3513L54.8962 24.3353C56.4336 23.2247 57.8994 22.5563 59.2933 22.33C60.7488 22.1038 61.8353 22.402 62.5528 23.2247C63.0858 23.8417 63.3318 24.6439 63.2908 25.6311C63.2293 26.7417 62.7988 27.7392 61.9993 28.6236Z" fill="#0D131A"/>
<path d="M30.8805 54.0759C35.3699 50.2503 37.9938 48.173 38.7523 47.844C39.7773 47.7 41.2123 47.8645 43.0572 48.3376C44.9227 48.8312 46.0297 49.3557 46.3782 49.911C46.6037 50.3429 47.9054 54.3124 50.2834 61.8195L51.9746 66.879C52.4051 68.0102 55.4082 71.0131 60.9841 75.8875C61.7016 76.5251 62.6241 78.7772 63.7516 82.6439L64.4896 85.112L65.9348 90.696L67.9028 98.8098C68.3332 100.476 68.7227 101.422 69.0712 101.648C70.4447 102.594 72.0027 104.065 73.7451 106.06C74.0731 106.451 74.7701 107.952 75.8361 110.564L78.7265 117.876L77.6503 120.313C75.9693 118.441 74.0219 116.508 71.8079 114.513C67.38 110.543 63.8336 108.312 61.1686 107.818C58.6267 107.345 55.8387 107.798 52.8048 109.176L49.9759 110.502C49.0944 110.852 48.4384 110.914 48.0079 110.687C47.7824 110.564 47.6287 110.142 47.5467 109.423L47.4852 108.404C47.6287 108.075 47.7004 107.623 47.7004 107.047C47.7004 105.916 47.3622 104.723 46.6857 103.468C46.1117 102.378 44.9637 101.36 43.2417 100.414C40.9868 99.1595 38.4141 98.5322 35.5236 98.5322C29.7018 98.5322 23.6954 100.64 17.5045 104.857C13.6711 107.469 10.1041 110.615 6.80371 114.297C7.02921 105.988 7.2752 101.329 7.5417 100.322C8.42318 96.7222 10.3091 90.8091 13.1996 82.5822C17.0535 71.6609 20.1387 64.7298 22.4552 61.7886C23.4391 60.5546 26.2476 57.9837 30.8805 54.0759Z" fill="#008086"/>
<path d="M60.3997 27.8216C55.2338 33.3337 52.1486 36.717 51.1441 37.9716C50.4881 38.8149 50.2729 40.8099 50.4984 43.9567C50.6419 46.0546 50.9699 48.4918 51.4824 51.2684C51.8104 53.14 52.6406 55.6698 53.9731 58.8577C55.326 62.0662 56.4945 64.2772 57.4785 65.4907L65.9038 75.363C66.4778 76.124 66.9801 77.8105 67.4105 80.4226C67.9435 83.6311 68.3535 85.6467 68.6405 86.4694C69.1735 88.0325 69.7168 89.4208 70.2702 90.6343L72.3305 94.6449C73.0889 96.0641 74.3599 97.8534 76.1434 100.013C77.8038 102.008 78.7981 103.067 79.1261 103.191L80.233 102.851C80.766 102.584 81.1863 102.502 81.4938 102.604C82.0678 102.79 82.447 103.643 82.6315 105.165L85.1837 106.862L80.5713 112.909L79.9255 114.513C77.4451 108.898 75.8461 105.69 75.1286 104.887C72.9352 102.358 71.1312 100.62 69.7168 99.6736C69.3273 99.2211 68.333 95.8481 66.7341 89.5545L65.2581 83.8779L64.5201 81.4407L63.3824 77.8311C62.9314 76.741 62.4086 75.9286 61.8142 75.3939L57.0788 70.7662C54.7828 68.401 53.5323 66.9407 53.3273 66.3854L51.6361 61.3875C48.9302 53.2429 47.4542 48.9854 47.2082 48.6152C46.6752 47.7308 45.2915 47.011 43.057 46.4556C41.0276 45.962 39.3978 45.8078 38.1679 45.9929C37.4094 46.1163 34.5497 48.3581 29.5888 52.7184C24.7919 56.9141 21.9527 59.5776 21.0712 60.7088C18.5498 63.9173 15.3518 71.3421 11.4774 82.9832C9.52993 88.8038 7.82847 94.3673 6.373 99.6736C6.045 101.031 5.76826 106.409 5.54276 115.809L5.26602 121.269C5.26602 121.742 5.17377 122.154 4.98927 122.503C4.80478 122.832 4.59978 122.997 4.37429 122.997C4.08729 122.997 3.88229 122.915 3.7593 122.75C3.5338 122.503 3.3903 122.03 3.32881 121.331L2.92906 115.037L2.59082 109.021C2.61132 106.841 3.20581 102.944 4.37429 97.329C5.39926 92.3105 6.3935 88.1971 7.35698 84.9885C8.79195 80.1758 10.5139 75.0237 12.5229 69.5322C14.2038 65.0074 15.2698 62.3336 15.7208 61.5109C16.3563 60.3592 18.97 57.0581 23.5619 51.6078C28.1743 46.1163 31.0443 42.9181 32.1717 42.0131C33.1147 41.2521 34.9802 40.2443 37.7681 38.9897C39.1621 38.3521 40.4638 37.7968 41.6733 37.3237L55.2953 26.0631C56.4228 25.117 57.5502 24.4692 58.6777 24.1195C59.8462 23.7699 60.6149 23.8521 60.9839 24.3663C61.7219 25.4358 61.5272 26.5876 60.3997 27.8216Z" fill="#F29600"/>
<path d="M45.7017 57.3461C45.2302 57.1198 44.5332 56.9039 43.6107 56.6982L41.3353 56.3588C39.9003 57.3461 37.2969 59.4542 33.5249 62.6833C29.548 66.0769 27.1701 68.2673 26.3911 69.2546C24.2386 71.99 21.2559 78.7155 17.443 89.4311C14.5321 97.5347 12.6153 103.386 11.6929 106.985L11.5084 109.577C9.9504 110.996 8.38218 112.569 6.80371 114.297C7.02921 105.988 7.2752 101.329 7.5417 100.322C8.42318 96.7222 10.3091 90.8091 13.1996 82.5822C17.0535 71.6609 20.1387 64.7298 22.4552 61.7886C23.4391 60.5546 26.2476 57.9837 30.8805 54.0759C35.3699 50.2503 37.9938 48.173 38.7523 47.844C39.7773 47.7 41.2123 47.8645 43.0572 48.3376C44.9227 48.8312 46.0297 49.3557 46.3782 49.911C46.6037 50.3429 47.9054 54.3124 50.2834 61.8195L51.9746 66.879C52.4051 68.0102 55.4082 71.0131 60.9841 75.8875C61.7016 76.5251 62.6241 78.7772 63.7516 82.6439L64.4896 85.112L65.9348 90.696L67.9028 98.8098C68.3332 100.476 68.7227 101.422 69.0712 101.648C70.4447 102.594 72.0027 104.065 73.7451 106.06C74.0731 106.451 74.7701 107.952 75.8361 110.564L78.7265 117.876L77.6503 120.313L74.9751 117.536C74.0731 115.274 73.4889 113.947 73.2224 113.557C71.6234 111.706 70.2807 110.43 69.1942 109.731C68.4767 109.237 67.9233 108.466 67.5338 107.417C67.2468 106.677 66.7855 104.97 66.15 102.296L64.8893 97.0822L63.4748 91.6832L62.7061 89.0918C62.2141 87.4052 61.7324 85.3382 61.2609 82.8907L60.7074 79.7439L52.1283 72.3397C50.6728 71.0028 49.7299 69.6968 49.2994 68.4216L45.7017 57.3461Z" fill="#00666C"/>
<path d="M218.76 82.7365C219.457 84.5258 220.328 88.8553 221.373 95.7248C222.378 102.306 222.88 106.656 222.88 108.775V109.453L222.788 122.935C222.521 125.465 221.455 126.709 219.59 126.668C218.77 126.648 218.186 126.267 217.837 125.527C217.509 124.828 217.345 123.676 217.345 122.072C217.345 121.064 217.243 120.138 217.038 119.295C212.917 115.223 208.592 111.161 204.061 107.109C197.912 101.638 193.791 98.4499 191.7 97.545C189.179 96.4549 186.053 95.9819 182.322 96.1258C179.267 96.2698 177.094 96.6606 175.803 97.2982C175.208 97.5861 173.753 99.1081 171.436 101.864L168.761 104.795C168.146 105.391 167.572 105.72 167.039 105.782L165.871 105.628L164.056 104.857C160.941 103.499 158.665 102.625 157.23 102.234C153.889 101.35 151.06 101.381 148.743 102.327C145.463 103.664 141.804 105.72 137.766 108.497C134.691 110.616 132.631 112.199 131.585 113.248C131.237 113.639 130.181 115.562 128.418 119.017L123.129 129.476C122.863 129.969 122.268 130.237 121.346 130.278C120.69 130.278 120.177 130 119.808 129.445L105.879 105.936C105.551 105.402 105.53 104.857 105.817 104.301C106.125 103.725 106.586 103.417 107.201 103.376L113.135 103.222C113.996 100.692 114.734 99.1904 115.349 98.7173C115.698 98.4705 116.364 98.2648 117.348 98.1003L120.208 98.162L125.128 94.8918L132.6 89.462C136.679 86.3358 140.164 82.9525 143.055 79.312C143.567 78.0986 144.397 75.3734 145.545 71.1365C146.755 66.6528 147.893 62.0252 148.959 57.2536C149.942 52.8316 150.762 48.3993 151.418 43.9568C152.013 39.905 152.279 37.3135 152.218 36.1823C152.177 35.5653 151.572 34.3415 150.404 32.5111C149.133 30.4955 147.421 28.1302 145.269 25.4153C144.408 24.3458 143.844 23.2146 143.577 22.0217C143.249 20.582 143.454 19.3274 144.192 18.2579C144.746 17.4558 145.433 16.9827 146.253 16.8387C147.155 16.6948 148.149 16.8799 149.235 17.3941C150.158 17.826 151.008 18.4019 151.787 19.1217L156.8 23.9653L161.597 28.6238C161.761 28.7678 162.478 28.9632 163.749 29.21L166.27 29.7345C166.865 29.9196 169.253 31.0919 173.435 33.2515L180.261 36.6451C182.27 37.2827 184.32 37.7249 186.411 37.9717L188.871 38.311C189.814 38.4756 190.409 38.6813 190.655 38.9281C192.09 40.2855 194.96 44.6972 199.265 52.1631L208.243 68.0514C210.088 71.2394 212.364 74.5404 215.07 77.9546L218.76 82.7365Z" fill="#0D131A"/>
<path d="M211.502 76.7513L214.393 80.6694L216.76 84.279C217.437 85.9861 218.339 90.0275 219.466 96.4034C220.594 102.718 221.158 106.841 221.158 108.775V115.531L221.065 122.38C220.983 123.1 220.85 123.624 220.666 123.953C220.42 124.385 220.061 124.591 219.589 124.57C219.282 124.55 219.056 124.138 218.913 123.336C218.81 122.781 218.759 122.164 218.759 121.485L218.698 118.74L216.607 96.0023V95.8789C214.577 88.3513 210.344 78.9212 203.907 67.5886C198.065 57.3255 193.401 50.456 189.916 46.9801C188.953 45.9929 184.637 44.2138 176.971 41.6429C169.878 39.2365 166.106 38.0333 165.655 38.0333C164.384 37.9305 163.092 38.2081 161.78 38.8663C160.468 39.545 159.464 40.45 158.767 41.5812C158.07 42.6918 156.205 49.0265 153.171 60.5854C152.269 64.1024 151.295 69.3162 150.249 76.2269C149.655 80.1346 149.265 82.2736 149.081 82.6439C148.753 83.2609 146.19 85.297 141.394 88.7524L137.888 91.3439C137.191 91.9197 136.453 92.835 135.674 94.0896C135.264 94.7272 134.68 95.7658 133.921 97.2055L133.245 98.4704C133.142 98.5938 132.599 98.7687 131.615 98.9949C129.688 99.468 128.13 99.9101 126.941 100.321C125.383 100.856 123.344 103.386 120.822 107.911C119.141 110.934 117.378 114.595 115.533 118.894L107.323 105.073L114.426 104.517L115.134 102.512C115.667 101.134 116.118 100.311 116.487 100.044C116.999 99.6942 117.86 99.5296 119.07 99.5502L120.699 99.6736L126.511 95.7247L133.614 90.8502C134.454 90.2126 136.453 88.3616 139.61 85.2971C142.747 82.2325 144.397 80.5254 144.561 80.1758C145.606 77.9134 147.543 70.5708 150.372 58.1482C153.283 45.3141 154.626 37.7556 154.401 35.4727C154.319 34.6705 153.171 32.7166 150.957 29.611L146.775 24.1195C146.18 23.3791 145.77 22.5255 145.545 21.5589C145.278 20.5305 145.319 19.7078 145.668 19.0908C146.016 18.4943 146.713 18.4018 147.759 18.8131C148.681 19.1628 149.624 19.7798 150.588 20.6642L155.569 25.7546L160.151 30.4131L162.764 30.845L166.362 31.6163C167.203 31.9042 171.569 33.9507 179.461 37.7556L184.812 39.2673C187.538 39.9666 189.014 40.4191 189.24 40.6248C191.187 42.4964 195.369 48.9237 201.785 59.9067L211.502 76.7513Z" fill="#F29600"/>
<path d="M215.562 96.2491L217.468 117.536C213.204 113.505 209.114 109.782 205.199 106.368C198.865 100.856 194.56 97.6066 192.284 96.6193C189.517 95.4264 186.175 94.9637 182.26 95.2311C179.144 95.4367 176.807 95.9303 175.249 96.7119C174.573 97.041 173.138 98.419 170.944 100.846C168.915 103.067 167.511 104.25 166.732 104.394C166.26 104.497 165.338 104.27 163.964 103.715L159.69 101.987C155.385 100.465 151.644 100.352 148.466 101.648C144.94 103.108 141.097 105.093 136.935 107.602C133.43 109.721 131.237 111.202 130.355 112.045C129.822 112.58 128.151 115.49 125.343 120.776L121.284 128.55L117.071 121.763C120.064 114.297 121.725 110.194 122.053 109.453C124.021 105.052 125.609 102.646 126.819 102.234C127.68 101.926 129.381 101.504 131.923 100.969L133.461 100.568L134.383 99.8896L135.183 98.4396L136.597 95.1694C137.274 93.7091 137.889 92.7424 138.442 92.2694L140.01 91.2821L142.224 89.8938L147.728 85.8215C149.225 84.6492 150.096 83.8059 150.342 83.2917L150.896 81.1013L151.634 76.4428L152.679 69.1002C153.151 65.974 153.653 63.3928 154.186 61.3566L157.476 48.7694C158.46 45.1084 159.065 43.0928 159.29 42.7226C159.844 41.8588 160.807 41.1698 162.181 40.6556C163.431 40.162 164.6 39.9666 165.686 40.0694C166.711 40.234 170.442 41.4269 176.879 43.6482C183.91 46.0545 187.815 47.6485 188.594 48.4301C192.161 52.0294 196.856 58.7343 202.678 68.5449C209.299 79.6924 213.594 88.9272 215.562 96.2491Z" fill="#008086"/>
<path d="M212.456 112.878L211.626 103.653C209.699 96.5576 205.507 87.58 199.049 76.7204C193.391 67.2389 188.881 60.7808 185.519 57.346C184.515 56.6467 180.989 55.2584 174.942 53.1811C169.53 51.3301 165.932 50.1783 164.149 49.7258C163.534 49.7052 162.857 49.8389 162.119 50.1269C161.381 50.3942 160.879 50.6822 160.612 50.9907C160.305 51.8134 159.034 56.5027 156.8 65.0588L155.816 68.9151C155.16 71.4038 154.493 75.1368 153.817 80.114L153.325 83.6928L152.433 88.9683C152.228 90.0789 151.992 90.881 151.726 91.3747C151.357 92.1357 150.537 93.0509 149.266 94.1204L142.747 99.0566L140.133 100.692L139.119 101.309C131.78 107.931 127.659 111.397 126.757 111.705C125.609 112.652 123.324 117.516 119.9 126.298V126.329L117.071 121.763C120.064 114.297 121.725 110.194 122.053 109.453C124.021 105.052 125.609 102.646 126.819 102.234C127.68 101.926 129.381 101.504 131.923 100.969L133.461 100.568L134.383 99.8895L135.183 98.4396L136.597 95.1693C137.274 93.7091 137.889 92.7424 138.442 92.2694L140.01 91.2821L142.224 89.8938L147.728 85.8215C149.225 84.6491 150.096 83.8059 150.342 83.2917L150.896 81.1013L151.634 76.4428L152.679 69.1002C153.151 65.974 153.653 63.3928 154.186 61.3566L157.476 48.7694C158.46 45.1084 159.065 43.0928 159.29 42.7226C159.844 41.8588 160.807 41.1698 162.181 40.6556C163.431 40.162 164.6 39.9666 165.686 40.0694C166.711 40.234 170.442 41.4269 176.879 43.6482C183.91 46.0545 187.815 47.6485 188.594 48.4301C192.161 52.0294 196.856 58.7343 202.678 68.5449C209.299 79.6924 213.594 88.9272 215.562 96.2491L217.468 117.536L212.456 112.878Z" fill="#00666C"/>
<path d="M25.0079 119.202L24.3929 119.079L23.3167 118.308C22.5992 117.485 22.2917 116.467 22.3942 115.253C22.4557 114.431 23.204 113.084 24.6389 111.212C25.8279 109.649 26.7196 108.62 27.3141 108.127L27.5601 107.911L26.3301 104.548L26.1456 104.178C25.8586 103.581 25.6947 103.057 25.6537 102.605C25.6127 102.029 25.7254 101.381 25.9919 100.661C26.4839 99.4474 27.3244 98.5939 28.5133 98.1003C29.3333 97.7712 30.5018 97.6272 32.0188 97.6684L34.3865 97.946C35.0835 98.234 36.2212 99.4988 37.7997 101.741L38.3224 101.957L38.9989 102.142L41.2743 101.062C42.3198 100.28 43.0886 99.7971 43.5806 99.612C44.2365 99.3652 44.9745 99.3549 45.7945 99.5811C46.922 99.8691 47.8855 100.949 48.685 102.82C49.3819 104.486 49.6279 105.803 49.4229 106.769C49.3409 107.201 49.0642 107.911 48.5927 108.898L47.209 111.613L46.8707 112.23L46.963 112.94C51.0834 116.662 53.7689 118.359 55.0193 118.03L57.4178 117.444C59.0372 117.032 60.5747 116.518 62.0302 115.901C64.4286 114.893 66.4786 113.886 68.1801 112.878C68.6721 111.582 69.0821 110.687 69.41 110.194C70.2505 109.001 71.4805 108.055 73.1 107.356C74.4734 106.759 76.7079 106.43 79.8033 106.368C81.6278 106.327 83.2473 106.358 84.6617 106.461L86.9372 106.677L79.0654 123.645L77.8969 123.429L72.5772 121.701L69.0718 123.46L64.1519 125.835L62.0609 126.946L60.2775 128.026C58.33 129.054 56.7925 129.62 55.6651 129.723C53.0821 129.908 49.9559 128.9 46.2865 126.699C44.011 125.321 41.6741 123.593 39.2756 121.516C38.5172 121.948 37.8304 122.174 37.2154 122.195C36.3544 122.236 35.4115 121.958 34.3865 121.362C33.792 121.033 33.136 120.395 32.4185 119.449L31.0348 117.382L30.2968 118.894L29.7741 119.449L25.0079 119.202Z" fill="#0D131A"/>
<path d="M25.0692 117.598C24.8232 117.598 24.5875 117.505 24.362 117.32C23.8905 116.95 23.6855 116.333 23.747 115.469C23.788 114.852 24.0135 114.215 24.4235 113.556L25.9917 111.551L27.9596 109.669L29.1896 108.559C29.4151 108.209 28.9436 106.666 27.7751 103.931C27.2422 102.697 26.9757 101.874 26.9757 101.463C26.9552 100.496 27.6214 99.7352 28.9744 99.1799L31.8033 99.0256L33.8635 99.365L35.155 100.846L36.508 102.666C36.918 103.242 37.6457 103.571 38.6912 103.653L41.6124 102.234C42.3094 101.699 42.9141 101.381 43.4266 101.278L45.1486 101.432C45.784 101.597 46.399 102.399 46.9935 103.838C47.547 105.196 47.7622 106.173 47.6393 106.769C47.5573 107.222 47.219 108.044 46.6245 109.237L45.456 111.551C45.1691 112.127 45.21 112.888 45.579 113.834L49.4842 116.95C52.3747 118.966 54.5476 119.778 56.0031 119.387L58.8628 118.4L63.1677 116.734L69.5021 114.05C69.6046 113.495 69.8813 112.857 70.3323 112.137C71.2548 110.698 72.6488 109.577 74.5142 108.775C75.7647 108.24 77.8147 107.962 80.6641 107.942L84.5385 108.065L78.1427 121.886L73.6225 119.511C69.3996 121.711 66.0376 123.326 63.5367 124.354C62.6347 124.745 61.087 125.506 58.8935 126.637C57.4586 127.398 56.4028 127.799 55.7263 127.84C53.3894 128.026 50.4477 127.038 46.9013 124.879C44.7283 123.542 42.5144 121.897 40.2594 119.943C40.1774 119.881 40.2799 119.593 40.5669 119.079L41.0281 118.308L39.3984 119.449C39.1114 119.778 38.7014 120.025 38.1684 120.189C37.123 120.539 35.975 120.364 34.7245 119.665C33.6585 119.048 32.7668 118.164 32.0493 117.012L31.3113 115.469L29.1281 117.814L25.0692 117.598Z" fill="#F29600"/>
<path d="M45.0868 107.325L42.5961 108.836C41.2021 109.515 40.2387 109.865 39.7057 109.885C39.3777 109.885 39.1009 109.793 38.8754 109.608C38.4859 109.196 38.4347 108.147 38.7217 106.461C38.9882 104.898 39.3059 103.808 39.6749 103.191C40.1669 102.43 40.8332 101.874 41.6736 101.525L44.0413 101.432C44.7588 101.7 45.2816 102.193 45.6096 102.913C45.8966 103.53 45.9786 104.198 45.8556 104.918L45.7941 105.35C45.6711 106.276 45.4353 106.934 45.0868 107.325Z" fill="#0D131A"/>
<path d="M43.9499 101.679L41.7667 101.802C40.9877 102.131 40.3727 102.646 39.9217 103.345C39.5732 103.9 39.2657 104.939 38.9992 106.461C38.7327 108.086 38.7635 109.063 39.0915 109.392C39.235 109.536 39.4297 109.608 39.6757 109.608C40.1677 109.587 41.1004 109.248 42.4739 108.59C43.8064 107.931 44.6059 107.448 44.8724 107.14C45.2004 106.769 45.4156 106.163 45.5181 105.319L45.5796 104.888C45.6821 104.209 45.6104 103.581 45.3644 103.006C45.0774 102.368 44.6059 101.926 43.9499 101.679ZM39.4297 103.036C39.9627 102.214 40.6802 101.628 41.5822 101.278L44.1344 101.155C44.8109 101.422 45.3336 101.864 45.7026 102.481C46.0306 103.036 46.1946 103.653 46.1946 104.332L46.0716 105.412C45.9486 106.379 45.6924 107.078 45.3029 107.51C44.9954 107.88 44.1344 108.405 42.7199 109.083C41.2644 109.783 40.26 110.142 39.7065 110.163C39.2965 110.184 38.9582 110.06 38.6917 109.793C38.2202 109.32 38.1382 108.189 38.4457 106.399C38.7122 104.816 39.0402 103.695 39.4297 103.036Z" fill="#0D131A"/>
<path d="M43.5189 105.72C43.1499 106.173 41.7764 107.263 39.3985 108.991C39.214 108.805 39.2037 108.014 39.3677 106.615C39.5522 105.196 39.7982 104.198 40.1057 103.623C40.4542 103.026 40.9462 102.574 41.5817 102.265C42.2377 101.936 42.8424 101.874 43.3959 102.08C43.9904 102.286 44.4004 102.697 44.6259 103.314C44.5644 103.89 44.4311 104.373 44.2261 104.764L43.5189 105.72Z" fill="white"/>
<path d="M44.2568 106.615C44.0313 106.903 43.2216 107.407 41.8276 108.127C40.3722 108.867 39.5624 109.155 39.3984 108.991C41.7764 107.263 43.1499 106.173 43.5189 105.72L44.2261 104.764C44.4311 104.373 44.5643 103.89 44.6258 103.314C44.7693 103.705 44.8206 104.126 44.7796 104.579L44.6258 105.751L44.2568 106.615Z" fill="#DBDCDC"/>
<path d="M24.6081 115.13C25.018 114.78 25.6023 114.533 26.3608 114.39C27.1603 114.246 27.8572 114.41 28.4517 114.883C28.8617 115.212 29.1487 115.624 29.3127 116.117L30.9117 118.647C31.1372 118.894 31.5472 119.12 32.1417 119.326L33.0949 119.603L32.6644 120.498C32.2134 121.424 30.9014 121.825 28.7285 121.701L26.2378 121.362C25.3768 121.094 24.69 120.58 24.1776 119.819C23.8291 119.305 23.6138 118.719 23.5318 118.061C23.4498 117.423 23.5216 116.868 23.7471 116.395L23.8393 116.241C24.0443 115.768 24.3006 115.397 24.6081 115.13Z" fill="#0D131A"/>
<path d="M24.6997 115.253C24.4332 115.479 24.1872 115.819 23.9617 116.271L23.8694 116.456C23.6644 116.909 23.5927 117.444 23.6542 118.061C23.7362 118.698 23.9412 119.264 24.2692 119.757C24.7817 120.477 25.4479 120.961 26.2679 121.207L28.7278 121.547C30.8598 121.67 32.1205 121.3 32.51 120.436L32.9097 119.696L32.1103 119.449C31.4543 119.223 31.0135 118.986 30.788 118.739C30.501 118.41 29.9783 117.588 29.2198 116.271L29.1891 116.24L29.0968 116.086C28.9328 115.613 28.6561 115.222 28.2666 114.914C27.7336 114.503 27.0981 114.369 26.3601 114.513C25.6426 114.657 25.0891 114.904 24.6997 115.253ZM24.0539 119.912C23.5824 119.212 23.3467 118.451 23.3467 117.629C23.3467 117.135 23.4389 116.703 23.6234 116.333L23.7157 116.179C23.9617 115.665 24.2282 115.284 24.5152 115.037C24.9456 114.646 25.5504 114.379 26.3294 114.235C27.1084 114.091 27.7848 114.235 28.3588 114.667C28.7893 114.976 29.1173 115.397 29.3428 115.932L31.0033 118.554C31.2083 118.801 31.608 119.007 32.2025 119.171L33.125 119.48L33.2172 119.542L33.248 119.603L32.7867 120.56C32.3152 121.526 30.9623 121.948 28.7278 121.824L26.2064 121.485C25.3044 121.197 24.5869 120.673 24.0539 119.912Z" fill="#0D131A"/>
<path d="M24.5459 116.765L25.0379 115.994C25.3454 115.706 25.8066 115.511 26.4216 115.408C27.0571 115.284 27.5593 115.449 27.9283 115.901C28.1333 116.107 28.2666 116.333 28.3281 116.58L29.0046 117.722L30.05 119.264C30.378 119.634 30.911 119.933 31.649 120.159C27.9591 120.694 25.5914 119.562 24.5459 116.765Z" fill="white"/>
<path d="M24.823 119.387C24.5565 118.997 24.3925 118.554 24.331 118.061C24.2901 117.608 24.3413 117.228 24.4848 116.919L24.5463 116.765C25.5918 119.562 27.9595 120.693 31.6494 120.159C31.5879 120.303 31.4034 120.436 31.0959 120.56L28.6052 120.837L26.4528 120.591C25.7763 120.385 25.233 119.984 24.823 119.387Z" fill="#DBDCDC"/>
<path d="M31.6802 101.37C32.3157 102.09 32.5822 102.923 32.4797 103.869C32.4182 104.713 32.162 105.309 31.711 105.659L30.3888 106.893L29.0665 108.374C28.8205 108.764 28.677 109.412 28.636 110.317L28.4208 111.119L27.5291 111.088C26.9961 110.924 26.4836 110.605 25.9916 110.132C25.0076 109.165 24.5156 107.859 24.5156 106.214C24.5156 104.651 25.1819 102.964 26.5143 101.154C26.6783 100.928 27.0166 100.712 27.5291 100.507C28.0006 100.342 28.4413 100.249 28.8513 100.229C29.9993 100.167 30.9423 100.548 31.6802 101.37Z" fill="#0D131A"/>
<path d="M26.2677 101C26.4727 100.712 26.8622 100.466 27.4362 100.26L28.8199 99.9513C30.0909 99.8896 31.1159 100.301 31.8949 101.185C32.5509 101.946 32.8481 102.851 32.7866 103.9C32.6841 104.805 32.3869 105.474 31.8949 105.906L30.6034 107.078C29.9064 107.777 29.4759 108.261 29.3119 108.528C29.0864 108.857 28.9532 109.474 28.9122 110.379L28.6969 111.181L28.6047 111.335L27.5285 111.366H27.467C26.9545 111.263 26.401 110.914 25.8065 110.317C24.761 109.309 24.2383 107.942 24.2383 106.214C24.2383 104.63 24.9148 102.892 26.2677 101ZM30.2037 106.708L31.5259 105.443C31.9154 105.155 32.1409 104.62 32.2024 103.839L32.2331 103.592C32.2331 102.851 31.9769 102.173 31.4644 101.556C30.8289 100.836 29.9577 100.486 28.8507 100.507L27.6515 100.784L26.729 101.34C25.4375 103.108 24.7918 104.733 24.7918 106.214C24.7918 107.736 25.2325 108.95 26.114 109.855C26.5855 110.348 27.0775 110.667 27.59 110.811L28.205 110.842L28.3587 110.286C28.3587 109.402 28.5124 108.713 28.8199 108.219C29.0044 107.931 29.4657 107.428 30.2037 106.708Z" fill="#0D131A"/>
<path d="M30.4502 104.579L28.5745 106.276C27.7545 107.325 27.5598 108.569 27.9903 110.009V110.163C27.6008 110.04 27.201 109.782 26.791 109.392C25.9915 108.59 25.5918 107.489 25.5918 106.091C25.5918 105.268 25.807 104.363 26.2375 103.376C26.5655 102.635 26.9345 101.998 27.3445 101.463C27.611 101.134 28.185 100.969 29.0665 100.969C30.0505 100.99 30.7782 101.278 31.2497 101.833L31.5572 102.234C31.3522 103.263 30.9832 104.044 30.4502 104.579Z" fill="white"/>
<path d="M31.4031 104.887C29.9271 105.998 28.9739 106.872 28.5434 107.51C28.2564 107.983 28.0719 108.816 27.9899 110.009C27.5594 108.569 27.7541 107.325 28.5741 106.276L30.4498 104.579C30.9828 104.044 31.3518 103.263 31.5568 102.234C31.8438 102.748 31.9361 103.304 31.8336 103.9C31.7516 104.394 31.6081 104.723 31.4031 104.887Z" fill="#DBDCDC"/>
<path d="M31.3115 111.922C31.3115 110.523 31.8343 109.258 32.8797 108.127C33.9457 106.996 35.1552 106.41 36.5082 106.368C34.9707 108.384 34.3557 110.081 34.6632 111.459C34.8682 112.384 35.6984 113.166 37.1539 113.804C38.3634 114.338 39.5524 114.626 40.7208 114.667L39.3679 116.21C38.8349 116.662 38.2096 116.889 37.4922 116.889C35.9957 116.889 34.612 116.416 33.341 115.469C31.988 114.441 31.3115 113.258 31.3115 111.922Z" fill="#D18200"/>
<path d="M35.8317 107.325C36.8157 105.761 37.3897 105.062 37.5537 105.227L36.2929 107.417C35.4524 109.042 35.1347 110.338 35.3397 111.304C35.5242 112.045 36.2622 112.734 37.5537 113.371C38.7631 113.968 39.8804 114.266 40.9053 114.266C41.6228 114.266 42.3916 114.091 43.2115 113.742L44.2263 113.279C43.3038 114.204 42.1763 114.667 40.8438 114.667C39.6959 114.667 38.4864 114.39 37.2154 113.834C35.7189 113.197 34.8682 112.405 34.6632 111.459C34.4172 110.369 34.8067 108.991 35.8317 107.325Z" fill="#0D131A"/>
<path d="M70.0863 139.718L71.7775 138.916L91.7031 184.637L89.2124 184.946C87.716 185.131 86.4347 185.388 85.3688 185.717C84.8973 185.882 84.0158 186.447 82.7243 187.414L80.7256 188.741C81.3406 189.604 81.8223 190.818 82.1708 192.381C82.4988 193.841 82.5808 194.839 82.4168 195.373C82.2118 196.093 81.8326 196.721 81.2791 197.255C80.7666 197.749 80.2029 198.088 79.5879 198.273C77.2714 198.767 75.4265 199.302 74.053 199.878C73.1715 200.227 71.8493 200.988 70.0863 202.161L67.5341 203.981L66.5194 204.968C66.0069 205.318 65.3817 205.554 64.6437 205.678C64.0287 205.781 63.0037 205.606 61.5687 205.153L59.2933 205.678L56.8641 206.295C55.7776 206.665 54.8346 207.035 54.0351 207.405L52.8359 207.992C52.2209 208.279 51.7699 208.393 51.4829 208.331C51.0524 208.228 50.8884 207.786 50.9909 207.004C51.0934 206.264 51.3702 205.39 51.8212 204.382L52.4669 203.086L46.8705 203.364C46.1735 203.487 45.5073 203.672 44.8718 203.919L43.5188 204.505L42.3811 204.598C42.1761 204.475 42.1044 204.259 42.1659 203.95C42.2479 203.292 42.4529 202.582 42.7809 201.821C43.4163 200.279 44.4208 198.87 45.7943 197.595L43.3958 197.533C42.2479 197.554 41.3254 197.718 40.6284 198.027C39.5829 198.52 39.2754 198.068 39.7059 196.669C40.0544 195.538 41.1101 194.283 42.8731 192.905C43.8571 192.165 44.9231 191.517 46.071 190.962C47.0345 190.489 47.8443 190.18 48.5002 190.036L48.8077 189.975L49.515 189.913L53.3279 187.506C54.3939 186.766 55.4291 185.871 56.4336 184.822L57.8481 183.095L58.1556 181.676L56.3413 180.318C55.3779 179.557 54.6194 178.806 54.0659 178.066C51.9339 175.187 50.704 172.657 50.376 170.477C49.7815 166.384 51.1652 161.458 54.5271 155.699C56.7821 151.812 60.3388 147.822 65.1972 143.729C69.0921 140.767 70.7218 139.43 70.0863 139.718Z" fill="#0D131A"/>
<path d="M65.8432 144.747C67.0527 143.739 68.2417 142.886 69.4102 142.186L70.8247 141.415L88.9668 183.095C87.3883 183.28 86.0046 183.558 84.8156 183.928C84.1801 184.133 83.3704 184.658 82.3864 185.501C81.2794 186.447 80.4287 187.064 79.8342 187.352C79.4857 187.537 78.9425 187.877 78.2045 188.37L77.2205 189.049L78.0815 189.172C78.676 189.255 79.0757 189.357 79.2807 189.481C79.5267 189.645 79.783 190.18 80.0495 191.085L80.603 193.646C80.193 194.304 79.2705 194.931 77.8355 195.528C76.8105 195.939 75.7241 196.278 74.5761 196.546C73.5101 196.793 72.3621 197.153 71.1321 197.626C69.6767 198.16 68.5594 198.695 67.7805 199.23L65.4743 200.68C64.7363 201.091 64.0803 201.328 63.5063 201.389L61.9688 203.703C60.1649 203.107 58.1046 202.212 55.7882 201.019C53.3077 199.723 51.4115 198.52 50.0995 197.41C48.6031 196.155 47.7421 194.972 47.5166 193.862L47.6396 192.566L54.589 188.216C55.7984 187.373 56.9054 186.386 57.9099 185.254C58.6889 184.37 59.1809 183.681 59.3859 183.187L59.5089 182.323L60.7081 182.694L63.9675 182.94L62.2763 182.57L60.9541 182.077C60.6261 181.974 60.2059 181.768 59.6934 181.46L58.9861 180.997C58.2891 180.544 57.2847 179.434 55.9727 177.665C54.3327 175.505 53.3385 173.089 52.99 170.415C52.3955 166.158 53.4512 161.55 56.1572 156.594C58.7606 151.843 61.9893 147.894 65.8432 144.747Z" fill="#F29600"/>
<path d="M77.8354 195.528C79.2704 194.931 80.1929 194.304 80.6029 193.646C80.7054 194.51 80.7259 195.034 80.6644 195.219C80.4184 195.857 79.9469 196.371 79.2499 196.762L77.5279 197.41L73.838 198.551C73.4075 198.633 72.3313 199.199 70.6093 200.248L67.4421 202.222L66.1814 203.302C65.6484 203.755 65.0129 204.043 64.275 204.166C63.865 204.228 63.0962 204.074 61.9688 203.703L63.5062 201.389C64.0802 201.328 64.7362 201.091 65.4742 200.68L67.7804 199.23C68.5594 198.695 69.6766 198.16 71.1321 197.626C72.362 197.153 73.51 196.793 74.576 196.546C75.724 196.278 76.8105 195.939 77.8354 195.528Z" fill="#D18200"/>
<path d="M61.2604 183.897C60.8504 183.629 60.6761 183.455 60.7376 183.372L61.3526 183.557L62.6441 183.989L64.3353 184.144L65.2885 184.267L64.3661 184.514L62.6748 184.452C62.2033 184.37 61.7318 184.185 61.2604 183.897Z" fill="#0D131A"/>
<path d="M70.7315 180.102C68.374 176.626 67.1953 172.749 67.1953 168.471C67.1953 165.119 67.9435 161.972 69.44 159.031C70.8955 156.193 72.884 153.848 75.4054 151.997L88.9659 183.095C87.3874 183.28 86.0037 183.558 84.8147 183.928C84.1792 184.133 83.3695 184.658 82.3855 185.501C81.2785 186.447 80.4278 187.064 79.8333 187.352L79.8026 187.383C76.0716 185.943 73.048 183.516 70.7315 180.102Z" fill="#D18200"/>
<path d="M49.3928 191.178C49.6798 191.095 49.9258 191.219 50.1308 191.548C50.3563 191.898 50.51 192.422 50.592 193.121C50.6945 194.129 50.592 195.322 50.2845 196.7H43.6734C42.9764 196.741 42.1462 196.926 41.1827 197.255L39.9527 197.749C39.8707 197.502 39.9425 197.142 40.168 196.669C40.5985 195.744 41.5414 194.736 42.9969 193.646C43.9809 192.905 45.2724 192.299 46.8713 191.826L49.3928 191.178Z" fill="white"/>
<path d="M46.4409 195.404C48.7163 195.24 49.9463 194.921 50.1308 194.448H50.1615L49.9463 196.268L43.6427 196.299C42.9867 196.32 42.2487 196.464 41.4287 196.731C42.7202 196.011 44.3909 195.569 46.4409 195.404Z" fill="#DBDCDC"/>
<path d="M48.8993 190.869L49.2683 190.777L50.0985 190.9C50.5905 191.229 50.898 191.959 51.021 193.09V194.479L50.16 194.448V193.183C50.078 192.36 49.9038 191.836 49.6373 191.61C49.2683 191.363 48.3561 191.517 46.9006 192.072C45.4656 192.607 44.2459 193.245 43.2414 193.985C41.704 195.137 40.7712 196.165 40.4432 197.07L41.4272 196.731L42.0422 197.44L40.105 198.15H39.7667C39.6232 198.088 39.5412 197.996 39.5207 197.872C39.4592 197.461 39.5412 197.019 39.7667 196.546C40.2177 195.538 41.212 194.458 42.7494 193.306C44.1024 192.299 46.1524 191.486 48.8993 190.869Z" fill="#0D131A"/>
<path d="M43.6734 197.132L42.0437 197.441L41.4287 196.731C42.2487 196.464 42.9867 196.32 43.6427 196.299L49.9463 196.268L50.1615 194.448L51.0225 194.479L50.715 196.793C50.6535 197.019 50.51 197.132 50.2845 197.132H43.6734Z" fill="#0D131A"/>
<path d="M49.0541 200.772C46.7581 201.389 44.9439 202.253 43.6115 203.364L44.1342 203.549L42.7197 204.166C42.6787 203.755 42.7812 203.23 43.0272 202.593C43.4782 201.297 44.3699 200.053 45.7024 198.86C46.6249 198.058 47.9266 197.132 49.6076 196.083L52.252 194.541C52.5595 194.355 53.0823 194.613 53.8203 195.312C54.6402 196.052 55.1835 196.885 55.45 197.811L55.6037 198.397L54.343 199.415C53.7895 199.744 53.2873 199.95 52.8363 200.032L49.0541 200.772Z" fill="white"/>
<path d="M47.1783 202.531C46.5838 202.634 45.569 202.973 44.1341 203.549L43.6113 203.364C44.9438 202.253 46.758 201.389 49.054 200.772L52.8362 200.032C53.2871 199.95 53.7894 199.744 54.3429 199.415L55.6036 198.397C55.8701 199.61 55.9213 200.762 55.7573 201.852L47.1783 202.531Z" fill="#DBDCDC"/>
<path d="M43.2735 203.333L43.6117 203.302C45.2927 202.603 46.4611 202.202 47.1171 202.099L55.358 201.451C55.481 200.176 55.3785 199.004 55.0505 197.934C54.825 197.153 54.374 196.422 53.6975 195.744C53.1235 195.188 52.7033 194.911 52.4368 194.911L52.283 195.003C49.3311 196.669 47.2299 198.058 45.9794 199.168C44.6059 200.382 43.7244 201.657 43.335 202.994L43.2735 203.333ZM44.5957 203.827C43.5297 204.259 42.966 204.505 42.9045 204.567L42.5047 204.536L42.2895 204.197C42.269 203.724 42.3817 203.138 42.6277 202.438C43.0992 201.081 44.0319 199.785 45.4259 198.551C46.7379 197.358 48.8801 195.929 51.8525 194.263L52.037 194.17C52.242 194.047 52.5393 194.047 52.9288 194.17C53.4208 194.376 53.964 194.818 54.5585 195.497C55.235 196.237 55.7167 197.019 56.0037 197.842C56.3932 198.952 56.5469 199.95 56.4649 200.834L56.1882 201.914C56.1472 202.12 56.014 202.243 55.7885 202.284L47.2709 202.932C46.6969 203.014 45.8052 203.312 44.5957 203.827Z" fill="#0D131A"/>
<path d="M58.2482 198.613C58.4942 198.407 59.1605 198.572 60.2469 199.106C61.3949 199.662 62.1944 200.268 62.6454 200.927L62.7684 201.143L62.2457 200.865C62.2457 201.605 61.8767 202.15 61.1387 202.5L57.4795 204.043C55.245 205.05 53.7383 205.935 52.9593 206.696L53.2361 206.943L52.1291 207.436C51.9651 207.169 51.9139 206.788 51.9754 206.295C52.0574 205.307 52.6108 204.289 53.6358 203.24C56.0343 200.711 57.5717 199.168 58.2482 198.613Z" fill="white"/>
<path d="M63.383 203.456L57.3561 205.4C56.3517 205.729 54.9782 206.243 53.2357 206.943L52.959 206.696C53.738 205.935 55.2447 205.05 57.4791 204.043L61.1383 202.5C61.8763 202.15 62.2453 201.605 62.2453 200.865L62.768 201.143C63.301 202.027 63.506 202.798 63.383 203.456Z" fill="#DBDCDC"/>
<path d="M62.2759 201.173C61.9069 200.618 61.2304 200.083 60.2465 199.569C59.3855 199.117 58.791 198.911 58.463 198.952L53.9121 203.549C52.9691 204.516 52.4566 205.441 52.3746 206.326C52.3336 206.675 52.5079 206.778 52.8974 206.634L57.2023 204.999L60.7077 203.919L62.8294 203.117C63.0344 202.623 62.8499 201.976 62.2759 201.173ZM57.971 198.273C58.135 198.15 58.4015 198.099 58.7705 198.119C59.3855 198.201 60.1235 198.489 60.9844 198.983C61.9069 199.518 62.5732 200.083 62.9832 200.68C63.5366 201.502 63.8441 202.263 63.9056 202.963C63.9671 203.436 63.9056 203.785 63.7211 204.012C63.6596 204.115 63.4342 204.197 63.0447 204.259L60.9537 204.752L57.479 205.801C56.3105 206.192 55.1011 206.644 53.8506 207.158L52.3131 207.806C52.0876 207.909 51.9031 207.858 51.7596 207.652C51.5751 207.302 51.5034 206.85 51.5444 206.295C51.6059 205.205 52.2004 204.084 53.3278 202.932C55.9108 200.258 57.4585 198.705 57.971 198.273Z" fill="#0D131A"/>
<path d="M104.987 56.5439C105.418 56.6467 105.766 56.873 106.033 57.2226C106.299 57.5723 106.422 57.9733 106.402 58.4258L106.033 68.3907C105.848 75.4041 105.869 79.9907 106.094 82.1502C106.381 84.7417 107.201 88.1559 108.554 92.3928C110.01 96.9176 111.578 100.702 113.259 103.746C114.12 105.288 115.975 108.271 118.825 112.693L126.174 124.416C128.88 128.961 130.766 132.581 131.832 135.276C134.394 141.796 136.208 147.164 137.274 151.38C139.222 158.99 139.806 165.705 139.027 171.526C138.166 177.86 135.542 182.817 131.155 186.396C126.85 189.933 121.141 191.867 114.028 192.196C105.5 192.587 97.751 191.301 90.7812 188.339C81.6179 184.473 74.3405 177.912 68.9491 168.656C63.9882 160.121 62.6455 150.537 64.9209 139.903C66.5814 132.149 70.2303 123.737 75.8677 114.667C80.8696 106.584 83.9035 95.4573 84.9695 81.2864C85.2975 76.6382 84.7748 70.6428 83.4013 63.3003L81.2181 53.5513C81.1771 53.284 81.3411 53.0063 81.7101 52.7184L82.6633 52.0396C83.1553 51.5666 83.7396 51.4123 84.416 51.5769L104.987 56.5439Z" fill="#0D131A"/>
<path d="M72.6396 171.032C79.8555 177.079 87.5121 180.873 95.6095 182.416C103.727 183.959 110.769 182.92 116.734 179.3C117.923 182.714 119.399 185.162 121.162 186.643C121.982 187.362 123.048 188.021 124.36 188.617C121.347 189.872 117.903 190.592 114.028 190.777C106.464 191.106 99.5659 190.098 93.334 187.753C84.8472 184.545 77.949 178.971 72.6396 171.032Z" fill="#DDD583"/>
<path d="M67.7493 136.201C69.5942 130.936 71.9414 126.73 74.7909 123.583C78.7473 119.223 83.4007 117.238 88.7511 117.629C95.1675 118.123 100.866 123.079 105.848 132.499C110.296 140.911 112.807 149.786 113.381 159.124C113.914 167.762 115.032 174.487 116.733 179.3C110.768 182.92 103.726 183.959 95.6082 182.416C87.5109 180.873 79.8543 177.079 72.6384 171.032L70.9165 168.286C65.4841 158.969 64.4283 148.274 67.7493 136.201Z" fill="#FFF697"/>
<path d="M114.796 119.974C114.796 117.567 115.544 115.366 117.041 113.371C122.494 121.845 126.204 128.005 128.172 131.851H128.049C124.379 131.851 121.253 130.689 118.67 128.365C116.087 126.062 114.796 123.264 114.796 119.974Z" fill="#D18200"/>
<path d="M104.526 58.3949L104.495 59.8449L104.372 71.7534C104.372 75.8463 104.444 78.9622 104.588 81.1012L104.68 82.1501C104.987 85.1118 105.777 88.742 107.048 93.0406C108.442 97.7711 109.969 101.638 111.629 104.641L120.854 119.356C125.61 126.884 128.685 132.417 130.079 135.954C132.662 142.536 134.497 147.976 135.583 152.275C137.387 159.453 137.92 165.787 137.182 171.279C136.649 175.248 135.378 178.662 133.369 181.521C131.463 184.257 128.931 186.406 125.774 187.969C124.155 187.352 122.853 186.622 121.869 185.779C119.901 184.092 118.384 181.182 117.318 177.048C116.334 173.12 115.616 167.494 115.165 160.172C114.899 155.689 114.14 150.938 112.89 145.919C111.558 140.572 109.907 135.975 107.939 132.129C105.787 127.912 103.286 124.395 100.437 121.578C96.7876 117.978 92.9952 116.035 89.0592 115.747C82.1919 115.233 76.2265 118.894 71.1631 126.73C72.7826 123.089 74.73 119.428 77.0055 115.747C82.2124 107.397 85.3386 96.1976 86.384 82.1501C86.5685 79.3941 86.384 75.6612 85.8306 70.9512C85.2361 65.9945 84.4468 61.9222 83.4628 58.7342L83.9856 53.5513V53.4279L104.526 58.3949Z" fill="#F29600"/>
<path d="M104.525 58.3949L104.494 59.8449L104.371 71.7534C104.371 75.8463 104.443 78.9622 104.587 81.1012L104.679 82.1501L105.294 86.0991C101.563 87.1069 97.9244 86.3665 94.3779 83.8778C91.426 81.8005 88.6893 78.6126 86.1679 74.314C85.6554 68.1232 84.7534 62.93 83.4619 58.7342L83.9847 53.5513V53.4279L104.525 58.3949Z" fill="#D18200"/>
<path d="M138.596 145.025C141.773 148.665 144.408 152.593 146.499 156.81C149.287 162.383 150.681 168.296 150.681 174.549C150.681 177.778 149.932 181.264 148.436 185.007C147.698 186.9 146.95 188.494 146.191 189.789C146.027 190.777 145.945 191.774 145.945 192.782C148.672 194.88 150.465 196.484 151.326 197.595L152.741 199.322L153.786 200.556C154.729 201.112 155.344 201.708 155.631 202.346C155.898 202.983 156.01 203.744 155.969 204.629L157.907 208.177C158.624 209.781 158.911 211.313 158.768 212.773C158.686 213.555 158.501 214.192 158.214 214.686C157.845 215.509 157.456 215.941 157.046 215.982L156.369 215.488L155.969 214.964C154.944 213.894 154.227 213.257 153.817 213.051L151.849 212.311L149.481 211.478L147.206 211.601V213.02C147.165 214.131 147.011 215.056 146.745 215.797C146.437 216.681 146.048 217.442 145.576 218.08C145.105 218.738 144.725 219.026 144.438 218.944C144.295 218.923 143.977 218.522 143.485 217.74C143.096 217.123 142.665 216.589 142.194 216.136L139.672 214.47L137.182 213.082L135.859 212.619L133.953 212.65C133.625 213.966 132.959 215.488 131.954 217.216C131.421 218.244 131.032 218.748 130.786 218.728C130.642 218.707 130.386 218.45 130.017 217.956L129.525 217.247C128.848 216.136 128.305 215.365 127.895 214.933L126.05 213.298L123.898 211.416L122.483 210.922L121.499 210.182C121.151 209.873 120.905 209.503 120.761 209.071C120.659 208.763 120.587 208.331 120.546 207.775C120.382 204.279 121.592 200.412 124.175 196.176L123.99 193.769C121.12 192.35 118.394 190.046 115.811 186.858C113.638 184.185 112.264 180.75 111.69 176.554L111.444 171.032C111.567 167.679 112.777 164.348 115.073 161.036C116.426 159.062 117.943 157.365 119.624 155.946L132.631 139.811L132.139 136.756L133.615 139.749L138.596 145.025Z" fill="#0D131A"/>
<path d="M142.439 91.3438L142.562 90.6651C142.705 89.3076 143.238 88.2278 144.161 87.4257L144.345 87.2715C144.919 86.6956 145.657 86.2637 146.559 85.9757C147.81 85.5644 148.917 85.6466 149.88 86.2225C151.09 86.9218 152.043 88.1044 152.74 89.7704C153.498 91.6009 153.498 93.092 152.74 94.2438L151.879 95.8789C151.53 96.5987 151.336 97.0821 151.295 97.3289C151.356 97.5757 151.623 97.9973 152.094 98.5938L153.201 99.8895L155.999 99.3651C157.147 99.2828 157.977 99.6324 158.49 100.414C158.756 100.825 158.982 102.131 159.166 104.332C159.351 106.553 159.32 107.911 159.074 108.404C158.91 108.733 158.633 109.042 158.244 109.33L156.799 110.286L155.538 110.78C154.985 110.965 154.657 111.13 154.554 111.274C153.878 112.014 152.883 113.485 151.571 115.685C151.243 116.241 150.669 116.672 149.849 116.981L147.943 117.413C146.385 123.706 144.991 128.19 143.761 130.864C142.798 132.982 141.67 134.463 140.379 135.306C139.231 136.047 137.816 136.438 136.135 136.479C134.639 136.52 133.46 136.304 132.599 135.831C132.332 135.687 131.092 134.443 128.878 132.098L124.973 128.056L122.851 126.514L120.637 125.064C119.797 124.488 118.792 123.933 117.624 123.398L116.117 122.781L114.949 122.688L113.627 122.935L112.919 123.151L114.272 122.195C113.042 122.03 112.417 121.845 112.397 121.639C112.376 121.516 112.53 121.434 112.858 121.393H113.381L104.217 107.201C103.52 107.53 103.121 107.53 103.018 107.201C102.957 106.996 102.967 106.821 103.049 106.677L103.449 106.245C103.674 106.06 104.586 105.525 106.185 104.641C107.641 103.859 109.311 103.273 111.197 102.882C113.247 102.471 114.816 102.46 115.902 102.851C117.87 103.571 119.254 104.589 120.053 105.905C120.812 107.201 121.201 109.135 121.222 111.705L122.79 112.569C123.466 112.96 123.989 113.351 124.358 113.742L124.881 114.328L127.556 117.351C128.827 118.77 129.78 119.706 130.416 120.159C131.277 120.776 132.302 121.105 133.491 121.146L135.889 120.961L136.412 117.475C136.596 115.562 136.617 114.276 136.473 113.618L134.69 112.107C133.767 111.777 133.152 111.479 132.845 111.212C132.23 110.595 131.953 109.597 132.015 108.219L132.045 106.738L131.523 106.276C130.088 105.083 129.124 104.116 128.632 103.376C127.874 102.265 127.659 100.98 127.987 99.5193C128.294 98.1824 128.827 97.3495 129.586 97.0204C130.18 96.7736 130.467 96.6707 130.447 96.7119L133.46 95.2002C133.972 95.0151 134.464 95.0562 134.936 95.3236L135.889 96.1874C136.463 96.7633 136.801 97.0615 136.904 97.0821L139.026 97.3597L140.963 94.2129C141.824 92.7115 142.316 91.7551 142.439 91.3438Z" fill="#0D131A"/>
<path d="M144.13 91.6833L144.376 89.9556C144.499 89.2563 144.694 88.7936 144.961 88.5673L146.56 87.3641C147.523 86.9939 148.661 87.1687 149.973 87.8886L151.08 89.9556C151.715 91.4776 151.797 92.5985 151.326 93.3184C151.018 93.7709 150.69 94.5216 150.342 95.5705C149.973 96.64 149.819 97.3393 149.881 97.6684C150.004 98.4294 150.547 99.2521 151.51 100.136L152.925 101.216L154.616 100.723C155.825 100.517 156.645 100.733 157.076 101.371C157.527 102.029 157.773 103.191 157.814 104.857C157.855 106.317 157.773 107.242 157.568 107.633L155.815 108.898C154.647 109.597 153.898 110.122 153.57 110.472L151.602 112.816C150.741 113.886 150.239 114.564 150.096 114.852C149.768 115.408 149.071 115.829 148.005 116.117L146.498 116.364L146.037 119.264C145.565 121.67 144.899 123.995 144.038 126.236C143.034 128.828 142.234 130.576 141.64 131.481C141.127 132.242 140.369 132.952 139.364 133.61C138.483 134.186 137.376 134.525 136.043 134.628C134.813 134.731 133.911 134.618 133.337 134.289C133.009 134.124 132.282 133.353 131.154 131.975C129.965 130.514 129.053 129.548 128.417 129.075L125.281 126.514C123.785 125.259 122.565 124.313 121.622 123.676C120.371 122.812 118.034 122.102 114.611 121.547L113.166 121.362H112.612L103.91 107.386L108.184 105.474C111.3 104.301 113.504 103.941 114.795 104.394C116.312 104.949 117.419 105.556 118.116 106.214C118.752 106.79 119.223 107.582 119.531 108.59C119.9 109.844 120.023 111.202 119.9 112.662L121.191 113.402C122.155 113.999 122.893 114.575 123.405 115.13L126.111 118.061C127.464 119.439 128.551 120.426 129.371 121.023C131.154 122.298 133.173 122.843 135.428 122.658C135.264 123.234 134.824 123.748 134.106 124.2L132.569 125.28L131.308 126.02C130.98 126.288 130.806 126.668 130.785 127.162C130.765 127.717 130.99 128.571 131.462 129.723C131.933 130.854 132.251 131.389 132.415 131.327L132.077 130.247C131.708 129.301 131.554 128.334 131.615 127.347C131.615 127.141 131.749 126.936 132.015 126.73C132.179 126.627 132.579 126.391 133.214 126.02L134.567 125.249C135.326 124.756 136.013 124.015 136.628 123.028L136.874 122.473L137.304 120.868L138.073 117.32C138.257 116.21 138.288 115.14 138.165 114.112L137.888 112.909C136.556 111.613 135.674 110.873 135.244 110.688L134.229 110.163C133.881 109.793 133.706 109.145 133.706 108.219L133.737 106.615L133.614 105.936L131.892 104.641C130.724 103.839 129.955 103.18 129.586 102.666C128.684 101.412 128.489 100.28 129.002 99.2726L130.016 98.1311L134.014 96.8045L134.875 97.5758C135.449 98.1928 135.941 98.5733 136.351 98.7173L138.411 99.0567L139.948 98.9024C140.215 98.7585 140.953 97.6478 142.162 95.5705C143.392 93.4932 144.048 92.1975 144.13 91.6833Z" fill="#F29600"/>
<path d="M137.859 102.389C137.777 103.211 137.336 103.746 136.537 103.993C135.799 104.219 135.204 104.137 134.753 103.746C133.892 103.006 133.144 102.502 132.508 102.234L131.524 102.08L130.786 101.987C130.069 101.864 129.567 101.278 129.28 100.229C129.095 99.5091 129.075 98.7892 129.218 98.0694C129.423 97.2055 129.854 96.4754 130.51 95.8789C131.289 95.1796 132.232 94.8814 133.339 94.9843C134.343 95.0871 135.02 95.3853 135.368 95.8789L135.553 96.064C136.844 97.3598 137.572 98.5116 137.736 99.5194C137.92 100.671 137.961 101.628 137.859 102.389Z" fill="#0D131A"/>
<path d="M137.612 101.494L137.458 99.5811C137.294 98.6761 136.597 97.5757 135.367 96.28L135.152 96.064C134.824 95.6527 134.209 95.3956 133.307 95.2928C132.323 95.1694 131.452 95.4367 130.693 96.0949C129.832 96.8765 129.402 97.8534 129.402 99.0257L129.555 100.136C129.822 101.082 130.242 101.607 130.816 101.71L131.554 101.802L132.63 101.957C133.266 102.245 133.942 102.697 134.66 103.314C135.09 103.643 135.644 103.756 136.32 103.653C137.058 103.53 137.468 103.15 137.55 102.512L137.612 101.494ZM138.011 99.4885C138.216 100.723 138.145 101.843 137.796 102.851C137.407 103.88 137.038 104.486 136.689 104.671C136.341 104.857 135.869 104.682 135.275 104.147C134.68 103.612 133.717 103.057 132.384 102.481L130.724 102.265C129.904 102.142 129.33 101.484 129.002 100.291C128.797 99.5296 128.776 98.7686 128.94 98.0077C129.145 97.1027 129.607 96.3314 130.324 95.6938C131.144 94.9328 132.159 94.6038 133.368 94.7066L134.721 95.0768L135.582 95.6938L135.767 95.8789C137.079 97.1952 137.827 98.3984 138.011 99.4885Z" fill="#0D131A"/>
<path d="M133.369 95.7864C134.025 95.8893 134.456 96.0641 134.661 96.3109L135.706 97.4832C136.321 98.2442 136.68 98.9127 136.782 99.4886C137.008 100.887 136.998 102.018 136.752 102.882L136.29 103.777L136.075 103.561C135.747 102.635 134.907 101.679 133.554 100.692L132.693 100.476C132.18 100.394 131.75 100.239 131.401 100.013L130.079 98.6247C130.161 97.7198 130.52 96.9999 131.155 96.4651C131.77 95.9098 132.508 95.6836 133.369 95.7864Z" fill="white"/>
<path d="M131 100.939C130.754 100.897 130.529 100.651 130.324 100.198C130.119 99.7045 130.037 99.1801 130.078 98.6248L131.4 100.013C131.748 100.239 132.179 100.394 132.691 100.476L133.552 100.692C134.905 101.679 135.746 102.635 136.074 103.561C134.864 102.409 133.788 101.628 132.845 101.216L131.953 101.031L131 100.939Z" fill="#DBDCDC"/>
<path d="M149.02 86.2535C150.065 86.7266 150.742 87.5287 151.049 88.6599C151.254 89.3797 151.285 90.1613 151.141 91.0046C151.039 91.745 150.865 92.2695 150.619 92.578C147.81 95.2929 145.965 96.7531 145.084 96.9588C144.674 97.0205 144.377 96.9382 144.192 96.712C143.741 96.1567 143.423 94.9843 143.239 93.195C143.034 91.3028 143.147 89.9145 143.577 89.0301C144.828 86.1301 146.642 85.2046 149.02 86.2535Z" fill="#0D131A"/>
<path d="M148.805 86.7162C147.596 86.1815 146.571 86.2329 145.73 86.8705C145.115 87.323 144.551 88.1148 144.039 89.246C143.649 90.0893 143.516 91.4364 143.639 93.2875C143.742 95.0563 143.967 96.1566 144.316 96.5885L144.777 96.6502C145.248 96.5474 146.243 95.8481 147.76 94.5524L150.22 92.2694L150.558 91.4056L150.712 89.9864L150.558 88.7832C150.312 87.8166 149.728 87.1276 148.805 86.7162ZM143.301 88.8141C143.813 87.2921 144.603 86.2637 145.669 85.729C146.714 85.1942 147.893 85.2148 149.205 85.7907C150.476 86.346 151.265 87.4052 151.573 88.9683C151.86 90.4492 151.603 91.6935 150.804 92.7013C150.025 93.812 148.908 94.9226 147.452 96.0332C145.915 97.2261 144.859 97.7095 144.285 97.4832C143.649 97.2364 143.198 96.1463 142.932 94.213C142.645 92.1768 142.768 90.3772 143.301 88.8141Z" fill="#0D131A"/>
<path d="M144.346 89.0916C144.838 88.0016 145.381 87.2509 145.976 86.8395L148.651 86.7469C149.225 86.9732 149.676 87.3845 150.004 87.981C149.922 89.1533 149.615 90.1611 149.082 91.0044C147.729 93.0406 146.232 94.8711 144.592 96.4959C144.264 96.537 144.039 95.5395 143.916 93.5033C143.793 91.426 143.936 89.9555 144.346 89.0916Z" fill="white"/>
<path d="M147.482 94.244C145.986 95.6425 145.033 96.3933 144.623 96.4961H144.592C146.232 94.8713 147.728 93.0408 149.081 91.0046C149.614 90.1613 149.922 89.1535 150.004 87.9812C150.332 88.6188 150.444 89.4004 150.342 90.3259C150.26 91.0252 150.127 91.5188 149.942 91.8067L147.482 94.244Z" fill="#DBDCDC"/>
<path d="M149.728 104.61L151.204 101.802C151.757 101.165 152.454 100.836 153.295 100.815C154.135 100.815 154.894 101.165 155.57 101.864C156.308 102.604 156.585 103.561 156.4 104.733C156.216 105.659 155.58 106.389 154.494 106.924L152.126 107.757C150.712 108.188 149.748 108.374 149.236 108.312L148.59 108.25C148.426 107.777 148.805 106.564 149.728 104.61Z" fill="#0D131A"/>
<path d="M149.789 105.196C148.989 106.965 148.62 107.931 148.682 108.096L149.635 108.034L151.787 107.664C152.505 107.479 153.376 107.129 154.401 106.615C155.406 106.101 155.98 105.453 156.123 104.672L156.154 104.054C156.154 103.252 155.898 102.594 155.385 102.08C154.729 101.401 154.042 101.083 153.325 101.124C152.546 101.124 151.921 101.401 151.449 101.957L149.789 105.196ZM148.097 108.651C147.872 108.446 148.118 107.428 148.835 105.597C149.573 103.705 150.291 102.368 150.988 101.586C151.623 100.908 152.392 100.558 153.294 100.537C154.217 100.537 155.047 100.918 155.785 101.679C156.605 102.502 156.902 103.53 156.677 104.764C156.574 105.361 156.328 105.916 155.939 106.43L154.739 107.448C154.206 107.736 153.038 108.055 151.234 108.404L148.097 108.651Z" fill="#0D131A"/>
<path d="M155.724 103.252C155.17 104.096 154.381 104.908 153.356 105.69C152.085 106.615 150.619 107.356 148.959 107.911C148.774 107.89 149.174 106.944 150.158 105.073C151.101 103.283 151.706 102.234 151.972 101.926C152.321 101.556 152.731 101.34 153.202 101.278C153.879 101.175 154.514 101.432 155.109 102.049C155.457 102.399 155.662 102.8 155.724 103.252Z" fill="white"/>
<path d="M154.525 106.276L151.819 107.232C150.281 107.726 149.328 107.952 148.959 107.911C150.619 107.356 152.085 106.615 153.356 105.69C154.381 104.908 155.17 104.096 155.724 103.252C155.806 103.869 155.683 104.517 155.355 105.196C155.088 105.751 154.812 106.111 154.525 106.276Z" fill="#DBDCDC"/>
<path d="M144.223 105.288C143.649 105.762 143.095 106.327 142.562 106.985C141.476 108.322 141.004 109.474 141.148 110.441C141.23 111.099 141.455 111.747 141.824 112.384C140.738 112.117 139.836 111.49 139.118 110.502C138.401 109.494 138.042 108.353 138.042 107.078C138.042 105.576 138.513 104.291 139.456 103.221C140.379 102.152 141.506 101.617 142.839 101.617C143.659 101.617 144.428 101.843 145.145 102.296C145.842 102.728 146.416 103.314 146.867 104.054C145.617 104.466 144.735 104.877 144.223 105.288Z" fill="#D18200"/>
<path d="M144.223 105.288C144.572 105.021 145.176 104.713 146.037 104.363C146.878 104.013 147.319 103.88 147.36 103.962L146.283 104.579L144.654 105.504C144.1 105.936 143.495 106.666 142.839 107.695C142.081 108.929 141.753 109.926 141.855 110.687C142.04 112.024 142.809 113.289 144.162 114.482L146.068 115.932C145.966 116.199 145.207 115.757 143.793 114.605C142.255 113.351 141.374 111.963 141.148 110.441C141.005 109.474 141.476 108.322 142.563 106.985C143.096 106.327 143.649 105.762 144.223 105.288Z" fill="#0D131A"/>
<path d="M130.571 137.188L131.093 138.453C131.524 139.42 131.965 140.201 132.416 140.798L136.382 144.809C138.945 147.709 141.333 151.39 143.547 155.853C146.007 160.789 147.544 165.345 148.159 169.52C148.61 172.708 148.539 175.948 147.944 179.238C147.555 181.501 146.94 183.804 146.099 186.149L144.869 189.543C144.726 190.262 144.644 191.054 144.623 191.918C144.582 192.802 144.633 193.306 144.777 193.43L146.806 195.065C148.262 196.299 149.256 197.276 149.789 197.996L152.741 201.729L153.448 202.099C153.961 202.387 154.258 202.644 154.34 202.87C154.627 203.569 154.586 204.474 154.217 205.585C153.766 206.881 152.987 207.827 151.88 208.423L149.328 209.781C149.205 208.547 148.979 208.022 148.651 208.207C147.565 208.866 146.519 209.01 145.515 208.639V210.922L141.179 211.354L138.996 211.447C138.135 209.472 137.428 208.722 136.874 209.195C136.341 209.668 135.644 209.812 134.783 209.627C134.025 209.462 133.441 209.133 133.031 208.639L132.938 211.416C130.007 211.313 127.629 211.005 125.805 210.49L124.944 208.053C124.329 207.724 123.796 207.2 123.345 206.48C122.894 205.739 122.596 204.927 122.453 204.043C122.883 201.657 123.867 199.261 125.405 196.854C125.528 196.628 125.569 195.723 125.528 194.139L126.758 194.386L129.556 194.51L131.001 194.294L129.587 194.047L127.004 193.615L125.497 193.183V193.152C125.026 193.049 124.349 192.7 123.468 192.103C121.684 190.89 119.767 189.018 117.717 186.488C115.606 183.876 114.243 180.884 113.628 177.511C113.3 175.721 113.187 173.366 113.29 170.446C113.413 167.011 114.489 163.484 116.518 159.864L119.532 155.452L130.571 137.188Z" fill="#F29600"/>
<path d="M148.651 208.207C148.979 208.022 149.205 208.547 149.328 209.781C148.323 210.274 147.052 210.655 145.515 210.922V208.639C146.519 209.009 147.565 208.866 148.651 208.207Z" fill="#D18200"/>
<path d="M136.874 209.195C137.428 208.722 138.135 209.472 138.996 211.447C136.905 211.509 134.886 211.498 132.938 211.416L133.031 208.639C133.441 209.133 134.025 209.462 134.783 209.627C135.644 209.812 136.341 209.668 136.874 209.195Z" fill="#D18200"/>
<path d="M122.452 204.042C122.596 204.927 122.893 205.739 123.344 206.48C123.795 207.2 124.328 207.724 124.943 208.053L125.804 210.49C123.447 209.873 122.237 208.958 122.176 207.745C122.114 206.572 122.206 205.338 122.452 204.042Z" fill="#D18200"/>
<path d="M149.359 207.776L149.236 207.837C149.728 206.603 150.354 205.647 151.112 204.968C151.932 204.248 152.527 203.796 152.896 203.611C153.306 203.384 153.623 203.415 153.849 203.703L155.202 205.832L156.77 208.732C157.405 210.172 157.662 211.519 157.539 212.773C157.477 213.411 157.354 213.894 157.17 214.223C157.047 213.36 156.432 212.434 155.325 211.447C154.423 210.645 153.664 210.131 153.049 209.904C152.291 209.658 151.584 209.38 150.928 209.071C149.944 208.578 149.421 208.146 149.359 207.776Z" fill="white"/>
<path d="M148.928 209.688C148.661 209.586 148.764 208.969 149.235 207.837L149.358 207.776C149.42 208.146 149.942 208.578 150.926 209.071C151.582 209.38 152.289 209.658 153.048 209.904C153.663 210.131 154.421 210.645 155.323 211.447C156.43 212.434 157.045 213.36 157.168 214.223C155.979 212.989 155.108 212.228 154.555 211.941L151.603 210.737L148.928 209.688Z" fill="#DBDCDC"/>
<path d="M142.347 204.351L144.346 207.128C145.535 208.979 146.129 210.449 146.129 211.539C146.129 213.493 145.914 215.046 145.484 216.198L144.838 217.309L144.561 216.907C144.623 215.694 143.977 214.47 142.624 213.236C141.681 212.352 140.758 211.724 139.856 211.354C138.442 210.737 137.643 209.956 137.458 209.01C137.95 207.611 138.503 206.572 139.118 205.894C139.774 205.194 140.461 204.701 141.179 204.413L142.347 204.351Z" fill="white"/>
<path d="M139.856 211.354C140.758 211.725 141.68 212.352 142.623 213.236C143.976 214.47 144.622 215.694 144.56 216.908L143.238 215.334C142.828 214.943 141.752 214.213 140.009 213.144C138.349 212.115 137.375 211.56 137.088 211.478C136.965 211.457 136.945 211.2 137.027 210.706C137.088 210.213 137.232 209.647 137.457 209.01C137.642 209.956 138.441 210.737 139.856 211.354Z" fill="#DBDCDC"/>
<path d="M126.511 205.523C126.962 204.968 127.433 204.526 127.925 204.197C128.499 203.847 128.889 203.796 129.094 204.042L131.062 206.418C132.169 207.817 132.784 208.732 132.907 209.164C133.235 210.274 132.989 211.879 132.169 213.977C131.759 215.025 131.308 215.961 130.816 216.784L130.631 216.475V216.321C130.57 215.293 130.201 214.306 129.524 213.359L127.802 211.354L126.357 209.873L125.127 208.485C125.619 207.025 126.08 206.038 126.511 205.523Z" fill="white"/>
<path d="M127.803 211.354L129.525 213.36C130.201 214.306 130.57 215.293 130.632 216.321V216.475C129.853 215.303 129.289 214.532 128.941 214.162L124.882 210.213C124.718 210.089 124.8 209.513 125.128 208.485L126.358 209.873L127.803 211.354Z" fill="#DBDCDC"/>
<path d="M149.605 207.436C149.154 208.403 148.959 209.082 149.021 209.472L149.144 209.657L149.882 209.935L154.494 211.786C155.007 212.074 155.837 212.804 156.985 213.977C157.169 213.689 157.292 213.205 157.354 212.527C157.477 211.354 157.231 210.1 156.616 208.763L155.14 205.986L153.818 203.95C153.715 203.806 153.592 203.734 153.449 203.734C153.1 203.693 152.352 204.166 151.204 205.153C150.63 205.667 150.097 206.428 149.605 207.436ZM149.482 211.015L148.713 210.706C148.283 210.562 148.016 210.223 147.914 209.688C147.811 209.051 148.037 208.146 148.59 206.973C149.144 205.801 149.769 204.906 150.466 204.289L152.126 202.994C152.659 202.685 153.141 202.551 153.572 202.593C154.023 202.654 154.412 202.881 154.74 203.271L156.093 205.4L157.63 208.3C158.348 209.863 158.625 211.354 158.461 212.773C158.379 213.493 158.215 214.079 157.969 214.532L157.6 215.211L157.169 215.488C156.985 215.529 156.831 215.468 156.708 215.303L156.185 214.779C155.037 213.627 154.289 212.969 153.941 212.804C153.449 212.516 151.962 211.92 149.482 211.015Z" fill="#0D131A"/>
<path d="M137.212 211.323L137.335 211.478C137.642 211.58 138.575 212.115 140.133 213.082C141.773 214.069 142.788 214.748 143.177 215.118L144.684 217C144.91 216.815 145.115 216.455 145.299 215.92C145.709 214.83 145.914 213.36 145.914 211.508C145.914 209.986 144.756 207.765 142.439 204.845L142.316 204.66L142.009 204.536C141.701 204.516 141.322 204.629 140.871 204.876C140.297 205.163 139.754 205.585 139.241 206.14C138.688 206.737 138.186 207.662 137.735 208.917C137.284 210.11 137.109 210.912 137.212 211.323ZM136.966 212.557C136.556 212.434 136.279 212.125 136.136 211.632C135.951 210.994 136.115 209.966 136.628 208.547C137.161 207.148 137.755 206.089 138.411 205.369C138.985 204.732 139.61 204.238 140.287 203.888C140.943 203.539 141.537 203.374 142.07 203.395C142.562 203.436 142.952 203.631 143.239 203.981L143.331 204.135C145.812 207.261 147.052 209.719 147.052 211.508C147.052 213.524 146.816 215.149 146.345 216.383C146.078 217.082 145.771 217.586 145.422 217.895L144.93 218.296L144.469 218.45L144.069 218.172L143.731 217.617C143.321 216.959 142.88 216.403 142.409 215.951C142.081 215.642 141.148 215.015 139.61 214.069C138.114 213.144 137.232 212.64 136.966 212.557Z" fill="#0D131A"/>
<path d="M129.371 204.691L129.094 204.351C128.992 204.248 128.879 204.197 128.756 204.197C128.469 204.197 128.121 204.361 127.711 204.691C127.301 204.999 126.942 205.359 126.634 205.77C126.306 206.161 125.927 206.922 125.497 208.053C125.046 209.246 124.902 209.976 125.066 210.244L126.88 211.941L128.941 213.977C129.371 214.45 129.966 215.283 130.724 216.476C131.38 215.365 131.913 214.203 132.323 212.989C132.856 211.365 132.989 210.11 132.723 209.226C132.559 208.65 131.442 207.138 129.371 204.691ZM125.743 205.061C126.009 204.691 126.378 204.31 126.85 203.919C127.547 203.343 128.182 203.055 128.756 203.055C129.228 203.055 129.627 203.241 129.955 203.611L130.232 203.95C132.405 206.5 133.594 208.146 133.799 208.886C134.168 210.12 133.973 211.786 133.215 213.884C132.784 215.015 132.282 216.075 131.708 217.062L131.247 217.864L130.755 218.172L130.294 217.895L129.771 217.093L128.11 214.748L124.328 211.077C123.734 210.563 123.764 209.442 124.42 207.714C124.912 206.459 125.353 205.575 125.743 205.061Z" fill="#0D131A"/>
<path d="M129.125 195.867L127.404 195.497C126.809 195.291 126.532 195.137 126.573 195.034L127.342 195.127L128.91 195.343L131.432 195.281C132.539 195.219 133.092 195.219 133.092 195.281L131.524 195.651L129.125 195.867Z" fill="#0D131A"/>
<path d="M100.775 1.78338C102.251 1.68054 103.481 2.72947 104.465 4.93018C104.731 5.50606 105.049 6.77096 105.418 8.72485L106.187 13.044C106.33 13.8873 107.037 17.0135 108.308 22.4227C108.759 24.3972 110.204 27.3177 112.644 31.1844L114.397 34.2695L114.919 35.9663C115.001 36.6244 114.663 38.1361 113.905 40.5014C114.294 41.7971 114.438 43.6482 114.335 46.0546L116.334 51.762L117.41 54.5386L118.671 57.0375C118.835 57.3049 119.132 57.4489 119.563 57.4694C119.932 57.5106 120.29 57.8602 120.639 58.5184C121.315 59.8141 120.629 62.2308 118.579 65.7684L115.319 70.7045C115.586 72.4527 114.766 73.6045 112.859 74.1598L108.524 74.6843C108.052 74.746 107.365 75.0237 106.463 75.5173C105.643 75.9492 104.7 76.1652 103.634 76.1652C102.363 76.1652 100.887 75.6921 99.2065 74.746C97.751 73.9644 96.8593 73.3063 96.5313 72.7715L94.5941 70.3652L91.9189 67.1258L88.3212 63.1769L85.031 59.7216C84.6005 59.2279 84.0778 58.8886 83.4628 58.7035L82.694 58.5801C81.3001 57.346 80.1111 55.7418 79.1271 53.7673C78.3481 52.1836 77.9586 51.0627 77.9586 50.4046C77.9586 49.9315 78.0714 48.9751 78.2969 47.5354C78.5429 45.9929 78.7991 44.7485 79.0656 43.8024C79.6806 41.6223 79.9881 39.8124 79.9881 38.3727C79.9881 37.1181 79.4449 34.9379 78.3584 31.8323C77.8869 30.4337 76.3802 27.6365 73.8382 23.4408L71.163 20.1397L68.0266 16.4685C67.3706 15.6663 67.0734 14.6585 67.1349 13.4451C67.1964 12.3961 67.4424 11.7174 67.8728 11.4089C68.3033 11.1004 69.0311 10.9358 70.0561 10.9153C71.0195 10.9153 71.778 11.0284 72.3315 11.2546C72.803 11.4397 73.7357 12.211 75.1297 13.5685L79.2194 17.6716C82.6018 21.0653 85.5127 23.6053 87.9522 25.2918C88.9772 26.0117 90.4224 26.166 92.2879 25.7546C93.7843 25.4461 95.2706 24.8599 96.7465 23.9961C97.792 23.3791 98.4582 22.2067 98.7452 20.4791C98.8682 19.6975 98.9297 18.2167 98.9297 16.0365L98.5915 10.2366C98.3865 7.45996 98.2942 5.83514 98.3147 5.36209C98.3557 4.45713 98.5402 3.70642 98.8682 3.10997C99.2782 2.28728 99.9137 1.84508 100.775 1.78338Z" fill="#F29600"/>
<path d="M107.57 63.0535L109.015 63.6089L110.245 63.7631L111.321 63.7323L111.905 63.578L112.244 63.6397C112.305 63.8042 112.141 63.9585 111.752 64.1025L110.276 64.3493C109.333 64.3493 108.369 64.1025 107.385 63.6089C107.139 63.4854 106.719 63.3929 106.125 63.3312L104.956 63.3003C104.71 63.3415 104.023 63.9276 102.896 65.0589C102.486 65.4702 102.178 65.5319 101.973 65.244C101.83 65.0589 102.025 64.7503 102.558 64.3184L103.849 63.362C104.567 62.889 105.182 62.6525 105.694 62.6525C106.227 62.6525 106.852 62.7862 107.57 63.0535Z" fill="#0D131A"/>
<path d="M107.632 67.9897L106.279 67.6194L105.203 67.9279C104.752 67.9897 104.444 67.9074 104.28 67.6811C104.198 67.5577 104.352 67.3521 104.741 67.0641C105.131 66.7967 105.449 66.6528 105.695 66.6322C105.92 66.6116 106.31 66.735 106.863 67.0024L107.878 67.5886C108.021 67.712 108.062 67.8251 108.001 67.9279L107.632 67.9897Z" fill="#0D131A"/>
<path d="M118.577 62.4365C118.68 62.5599 118.618 62.7656 118.393 63.0535L117.839 63.6705L116.794 65.2748C116.63 65.5627 116.445 65.6861 116.24 65.645C116.015 65.5833 115.964 65.4393 116.087 65.2131C116.23 64.9251 116.599 64.3698 117.194 63.5471C117.337 63.3003 117.593 63.0432 117.962 62.7759C118.331 62.4879 118.536 62.3748 118.577 62.4365Z" fill="#0D131A"/>
<path d="M102.25 43.7716L102.158 43.4322C102.158 43.2882 102.209 43.1957 102.312 43.1545L102.835 43.4014L103.234 44.512L103.634 45.0673L103.849 45.5609L103.603 46.1471C103.419 46.3116 103.265 46.3733 103.142 46.3322C102.999 46.2705 102.927 45.89 102.927 45.1907L102.65 44.4811L102.25 43.7716Z" fill="#0D131A"/>
<path d="M103.142 46.6716C103.326 46.7538 103.265 47.3914 102.957 48.5843L101.543 52.6258L100.743 53.7056C100.292 54.1581 100.005 54.3432 99.8824 54.2609C99.6774 54.1169 99.7901 53.7159 100.221 53.0577L100.62 52.5333L101.02 51.9162L101.789 50.0652L102.527 48.1216C102.834 47.0726 103.039 46.5893 103.142 46.6716Z" fill="#0D131A"/>
<path d="M110.306 43.6791L110.46 44.1727L110.491 45.0365L110.306 46.5174C110.306 47.5046 110.142 47.9674 109.814 47.9057C109.609 47.8645 109.507 47.7103 109.507 47.4429L109.568 46.7642L109.907 45.3759C110.05 44.2652 110.183 43.6996 110.306 43.6791Z" fill="#0D131A"/>
<path d="M96.2537 67.1258L96.346 68.7918C96.3255 69.1414 96.4792 69.3779 96.8072 69.5013C97.1352 69.6247 97.4427 69.4911 97.7297 69.1003L98.0987 69.6556C97.6272 70.252 97.1147 70.5503 96.5612 70.5503C96.1922 70.5503 95.9155 70.1081 95.731 69.2237C95.5465 68.3598 95.485 67.3006 95.5465 66.046L96.2537 67.1258Z" fill="#0D131A"/>
<path d="M96.6843 69.6247C96.3153 69.4601 96.1718 68.6272 96.2538 67.1257L97.7298 69.1002L97.1148 69.5938L96.6843 69.6247Z" fill="white"/>
<path d="M113.874 42.2599L113.997 43.062C114.12 44.0287 114.13 45.057 114.027 46.1471C114.007 46.579 113.792 47.1652 113.382 47.9056C112.869 48.8106 112.264 49.4276 111.567 49.7567C111.608 48.5226 111.813 47.3297 112.182 46.178C112.613 44.8617 113.177 43.5556 113.874 42.2599Z" fill="white"/>
<path d="M161.473 45.1908C161.617 45.129 161.832 45.2216 162.119 45.4684L162.673 46.0546C164.866 48.9751 166.957 53.7982 168.945 60.5237C171.016 67.4755 172.451 74.7254 173.25 82.2737C173.332 82.9318 173.322 83.518 173.22 84.0322C173.138 84.5052 173.004 84.752 172.82 84.7726C172.451 84.8137 172.195 84.0116 172.051 82.3662C171.375 75.5379 170.022 68.6478 167.992 61.696C166.106 55.2173 164.077 50.1475 161.904 46.4865C161.432 45.7049 161.289 45.273 161.473 45.1908Z" fill="#0D131A"/>
<path d="M170.268 50.744C170.411 50.6823 170.719 50.9702 171.19 51.6078L171.959 52.7802C176.756 66.0667 178.56 78.7259 177.371 90.7578L177.248 92.3003C177.145 93.1641 177.022 93.5961 176.879 93.5961C176.756 93.5961 176.622 93.2156 176.479 92.4546L176.294 91.0354C176.786 75.322 174.921 62.6011 170.698 52.8727C170.124 51.577 169.981 50.8674 170.268 50.744Z" fill="#0D131A"/>
<path d="M41.6124 52.9961L42.0121 52.3791C42.1966 52.1117 42.3503 51.9986 42.4733 52.0397C42.6168 52.0809 42.6886 52.2865 42.6886 52.6567L42.5656 53.4589C41.3766 56.7496 40.4746 61.2539 39.8596 66.9716C39.1832 73.0801 39.0499 78.7258 39.4599 83.9088V85.0503C39.4189 85.6262 39.3267 85.9141 39.1832 85.9141C39.0397 85.9141 38.8962 85.6262 38.7527 85.0503L38.5682 83.9397C37.9327 78.5922 37.9532 72.6276 38.6297 66.0461C39.2857 59.5468 40.2799 55.1968 41.6124 52.9961Z" fill="#0D131A"/>
<path d="M37.3689 60.1843C37.5534 59.5673 37.7481 59.2896 37.9531 59.3513C38.0966 59.3719 38.1888 59.5364 38.2298 59.8449V60.5236C36.8154 66.0563 35.7494 71.7226 35.0319 77.5225C34.2734 83.6928 33.9864 89.4927 34.1709 94.9225C34.1709 96.1154 34.0684 96.7222 33.8634 96.7427C33.7199 96.7427 33.6174 96.4856 33.5559 95.9715L33.4944 94.9225C32.7769 89.5956 32.8282 83.7545 33.6482 77.3991C34.3452 71.846 35.5854 66.1077 37.3689 60.1843Z" fill="#0D131A"/>
<path d="M88.6285 43.3706C88.895 43.2472 89.1923 43.2883 89.5203 43.494L95.8239 48.1833L96.2544 48.5535C96.6234 48.7798 96.8899 49.1191 97.0539 49.5716L97.4844 50.4663L98.1301 51.978L98.0071 52.4099L96.6541 52.4716L92.8105 51.7312L92.4722 51.6386L89.2128 50.7748C88.3723 50.4663 87.9008 50.1064 87.7983 49.695C87.6958 49.222 87.6856 48.3479 87.7676 47.0727L88.075 44.2344C88.157 43.7819 88.3415 43.494 88.6285 43.3706Z" fill="white"/>
<path d="M88.6285 43.3706C88.895 43.2472 89.1923 43.2883 89.5203 43.494L95.8239 48.1833L96.2544 48.5535C96.6234 48.7798 96.8899 49.1191 97.0539 49.5716L97.4844 50.4663L98.1301 51.978L98.0071 52.4099L96.6541 52.4716L92.8105 51.7312L92.4722 51.6386L89.2128 50.7748C88.3723 50.4663 87.9008 50.1064 87.7983 49.695C87.6958 49.222 87.6856 48.3479 87.7676 47.0727L88.075 44.2344C88.157 43.7819 88.3415 43.494 88.6285 43.3706Z" fill="white"/>
<path d="M91.9491 45.2216L92.0106 45.2833L96.2541 48.5535C96.6231 48.7797 96.8896 49.1191 97.0536 49.5716L97.484 50.4662L98.1298 51.9779L98.0068 52.4099L96.6538 52.4716L93.0869 51.7928C92.2054 50.3942 91.7646 48.8208 91.7646 47.0726C91.7646 46.435 91.8261 45.818 91.9491 45.2216Z" fill="#008086"/>
<path d="M111.998 49.8801L111.229 50.2812L111.26 49.7259C111.281 48.4507 111.486 47.2372 111.875 46.0854L112.767 43.7716C113.054 44.5326 113.197 45.3244 113.197 46.1471C113.197 47.5663 112.798 48.8106 111.998 49.8801Z" fill="#008086"/>
<path d="M111.936 48.7076C111.752 48.7076 111.567 48.5842 111.383 48.3374L111.875 46.0853C112.1 45.3654 112.387 44.625 112.736 43.864C113.023 44.4399 113.166 45.1392 113.166 45.9619C113.166 46.7229 113.043 47.3707 112.797 47.9055C112.572 48.4402 112.285 48.7076 111.936 48.7076Z" fill="#00666C"/>
<path d="M112.368 48.0293C112.224 48.6054 111.927 48.8523 111.476 48.77C111.517 48.3379 111.681 47.6899 111.968 46.8258C112.357 47.155 112.491 47.5562 112.368 48.0293Z" fill="#0D131A"/>
<path d="M91.9491 45.2216L92.0106 45.2833L96.2541 48.5535C96.623 48.7797 96.8895 49.1191 97.0535 49.5716L97.73 50.9907L94.9626 51.1758C93.8556 50.9701 92.9331 50.5074 92.1951 49.7875C91.9081 48.9237 91.7646 48.0187 91.7646 47.0726C91.7646 46.435 91.8261 45.818 91.9491 45.2216Z" fill="#00666C"/>
<path d="M93.3322 51.5769L92.5943 51.546C91.8153 50.2091 91.4258 48.718 91.4258 47.0726C91.4258 46.4967 91.4975 45.8077 91.641 45.0056L91.6718 44.9747C91.6923 45.2627 91.8768 45.4066 92.2253 45.4066L92.0715 47.0726C92.0715 48.6974 92.4918 50.1988 93.3322 51.5769Z" fill="#0D131A"/>
<path d="M95.0542 50.9908C94.7057 50.9908 94.4187 50.8674 94.1932 50.6206C93.9882 50.3738 93.8857 50.0858 93.8857 49.7568C93.8857 49.4277 93.9882 49.1398 94.1932 48.893C94.4187 48.6667 94.675 48.5536 94.962 48.5536C95.2285 48.5536 95.4642 48.677 95.6692 48.9238C95.8742 49.1706 95.9767 49.4585 95.9767 49.7876L95.7615 50.5898L95.0542 50.9908Z" fill="#0D131A"/>
<path d="M93.8563 49.3562C93.5487 49.3562 93.3027 49.2431 93.1181 49.0168C92.9541 48.811 92.8721 48.5744 92.8721 48.307C92.8721 47.9984 92.9643 47.7412 93.1489 47.5355C93.3539 47.3092 93.5898 47.196 93.8563 47.196C94.1024 47.196 94.3279 47.3195 94.533 47.5664C94.7175 47.7927 94.8098 48.0601 94.8098 48.3687L94.533 49.0476C94.3279 49.2534 94.1024 49.3562 93.8563 49.3562Z" fill="white"/>
<path d="M112.183 47.3199L111.813 47.0422L111.69 46.4867C111.69 46.2193 111.742 46.0032 111.844 45.8386C111.926 45.6535 112.039 45.5609 112.183 45.5609L112.521 45.8695L112.644 46.5176L112.521 47.073L112.183 47.3199Z" fill="white"/>
<path d="M89.3346 43.7715C88.8221 43.463 88.5043 43.6378 88.3813 44.296L88.0738 47.1034C87.9918 48.3375 88.0021 49.1705 88.1046 49.6024C88.2071 50.0137 88.9348 50.4045 90.2878 50.7747L92.9015 51.3917L96.7144 52.163L97.6061 52.2556C97.7701 52.235 97.8419 52.1527 97.8214 52.0088L96.7759 49.6949C96.6529 49.3864 96.4172 49.0882 96.0687 48.8002C94.6747 47.669 93.6497 46.8566 92.9937 46.363L89.3346 43.7715ZM88.6888 42.6917C90.0623 43.4733 91.4973 44.4194 92.9937 45.53L96.0687 48.0907L96.8066 48.7385C97.1346 49.0265 97.3396 49.2836 97.4216 49.5098L99.0206 52.8726L99.2359 53.4279C99.2769 53.6336 99.2051 53.7673 99.0206 53.829L98.7746 53.6439L98.6209 53.2428C98.5799 53.14 98.4261 53.0371 98.1596 52.9343L97.3909 52.78C96.7554 52.78 95.4947 52.5744 93.6087 52.163L88.8118 50.9907C88.3608 50.8056 87.9918 50.4765 87.7048 50.0034C87.3769 49.4893 87.2129 48.8825 87.2129 48.1832C87.2129 47.6073 87.2744 46.7949 87.3974 45.746L87.5511 44.1109L87.6126 43.463L87.5511 42.9077C86.9771 42.2907 86.7209 41.9308 86.7824 41.8279C86.8644 41.7251 87.4998 42.013 88.6888 42.6917Z" fill="#0D131A"/>
<path d="M113.32 46.0545C113.32 47.9261 112.736 49.4275 111.568 50.5587L111.106 50.4045C111.639 49.9314 112.06 49.3247 112.367 48.5842C112.695 47.8233 112.859 47.0108 112.859 46.147C112.859 45.386 112.736 44.6765 112.49 44.0183L112.828 43.4321C113.156 44.296 113.32 45.1701 113.32 46.0545Z" fill="#0D131A"/>
<path d="M113.996 43.062L113.873 42.2599C113.176 43.5556 112.612 44.8617 112.182 46.178C111.813 47.3297 111.608 48.5226 111.567 49.7567C112.264 49.4276 112.868 48.8106 113.381 47.9056C113.791 47.1652 114.006 46.579 114.026 46.1471C114.129 45.057 114.119 44.0287 113.996 43.062ZM104.433 5.9791C103.654 3.46989 102.536 2.21528 101.081 2.21528C100.118 2.21528 99.4308 2.7706 99.0208 3.88123C98.7133 4.74506 98.6108 5.72201 98.7133 6.81208L99.113 11.8099L99.359 18.011C99.318 20.15 99.0208 21.7234 98.4673 22.7312C98.0573 23.4511 97.2988 24.1503 96.1918 24.8291C95.3104 25.3638 94.2546 25.7443 93.0247 25.9706L90.1957 26.1557L91.3949 26.6801L92.8402 27.4514L93.9779 28.3461L95.4539 29.611C95.9253 30.1457 96.1611 30.4851 96.1611 30.6291C96.1406 30.7936 95.8024 30.6393 95.1464 30.1663L93.8856 29.3333L92.9017 28.5929C92.3687 28.0581 91.8152 27.7188 91.2412 27.5748C90.8517 27.5131 90.3392 27.3074 89.7037 26.9578C88.9452 26.567 88.2585 26.094 87.6435 25.5386C84.9376 23.2968 82.5084 21.1475 80.3559 19.0908L73.222 12.211C72.6481 11.6763 71.7871 11.3575 70.6391 11.2546C69.4911 11.1312 68.6609 11.2958 68.1484 11.7482C67.6769 12.1596 67.4719 12.8486 67.5334 13.8153C67.5949 14.6791 67.7999 15.3475 68.1484 15.8206L71.0388 19.245L74.2675 23.3482C78.3469 29.8886 80.3867 34.7939 80.3867 38.0642C80.3867 39.5656 80.2534 40.9744 79.9869 42.2907L79.2797 44.9439L78.6647 47.628C78.4597 48.7386 78.3572 49.5407 78.3572 50.0343C78.3572 50.6308 78.5007 51.3404 78.7877 52.1631C79.0952 53.1092 79.5359 53.9936 80.1099 54.8163C81.4219 56.7496 82.2419 57.8602 82.5699 58.1482L83.1541 58.2407C83.5026 58.2407 83.7691 58.3024 83.9536 58.4258L86.1368 60.1535C87.4693 61.3464 88.5967 62.5084 89.5192 63.6396L93.7319 68.4833C95.2284 70.2315 96.1406 71.4141 96.4686 72.0311C96.7761 72.5453 97.6063 73.2446 98.9593 74.129C100.661 75.2396 102.188 75.7949 103.541 75.7949C104.238 75.7949 104.904 75.6613 105.54 75.3939L106.708 74.8077C107.713 74.3552 108.748 74.1187 109.814 74.0981C111.925 73.9953 113.268 73.7382 113.842 73.3269C114.211 73.0595 114.518 72.5556 114.764 71.8152C114.006 72.5556 113.278 72.9875 112.581 73.1109C111.638 73.3166 110.419 73.0595 108.922 72.3396L107.385 71.8152L105.57 71.5684L103.418 72.0003C102.352 72.2059 101.47 72.1957 100.774 71.9694C100.015 71.7226 99.4205 71.373 98.99 70.9205L97.9446 69.4088C97.1451 68.1747 96.0278 66.7659 94.5929 65.1822C91.9894 62.3645 90.288 60.6368 89.4885 59.9992C89.1605 59.7319 88.484 59.4233 87.459 59.0737L85.5526 58.3333C85.2246 58.1276 84.9786 57.7574 84.8146 57.2226C84.7121 56.873 84.5993 56.2765 84.4763 55.4333C84.3943 54.8368 84.4046 54.3021 84.5071 53.829C84.5891 53.4382 84.6916 53.2429 84.8146 53.2429C84.9991 53.284 85.1016 53.5719 85.1221 54.1067C85.3476 55.9577 85.5731 57.0787 85.7985 57.4694C85.942 57.7162 86.4545 57.9733 87.336 58.2407C88.3815 58.5698 89.1092 58.8886 89.5192 59.1971L92.7479 61.9428C94.3059 63.4031 95.4744 64.6166 96.2533 65.5833C97.3603 66.9818 98.3956 68.473 99.359 70.0567L100.497 70.8279C101.091 71.0747 101.757 71.1981 102.495 71.1981L104.064 70.9822L105.693 70.7662L107.508 70.9822L109.26 71.4449C110.818 72.1237 111.741 72.463 112.028 72.463C112.622 72.463 113.401 71.9591 114.365 70.9513C115.533 69.7379 116.712 68.0513 117.901 65.8918C118.577 64.6577 119.141 63.4545 119.592 62.2822C120.105 60.9659 120.361 59.9787 120.361 59.3205C120.361 58.7857 120.146 58.3847 119.715 58.1173L118.331 57.0992C117.88 56.5645 117.358 55.5875 116.763 54.1684C116.23 52.9343 115.841 51.8546 115.595 50.929C115.246 49.6539 114.816 48.317 114.303 46.9184C113.893 48.1319 113.422 49.0574 112.889 49.695L111.997 50.4971C111.649 50.7439 111.474 51.001 111.474 51.2684L111.321 51.5769L111.044 51.5152C110.859 51.145 110.767 50.6925 110.767 50.1578L111.044 48.1524C111.249 47.0212 111.444 46.25 111.628 45.8386L113.75 40.3471C114.283 38.7429 114.549 37.3649 114.549 36.2131C114.549 35.4315 114.395 34.7117 114.088 34.0535C113.842 33.5599 113.432 32.9532 112.858 32.2333C112.305 31.5546 111.659 30.5674 110.921 29.2716C110.08 27.8113 109.394 26.4128 108.861 25.0759C107.713 22.1348 106.729 18.2372 105.909 13.3833C105.171 9.22874 104.679 6.76066 104.433 5.9791ZM105.171 4.5291L106.831 12.3344L108.492 19.9546C109.086 22.1142 110.029 24.4486 111.321 26.9578L113.565 31.0918C114.488 32.7989 115.021 34.0021 115.164 34.7014C115.328 35.483 115.39 36.172 115.349 36.7684L114.98 38.4035L114.395 40.5014L114.611 41.9822C114.754 43.2368 114.785 44.5429 114.703 45.9003L117.04 52.5333L118.147 55.0939C118.598 55.9372 118.967 56.4822 119.254 56.729L120.515 57.6237C121.089 58.0762 121.376 58.6109 121.376 59.228C121.376 60.4826 120.822 62.2719 119.715 64.596C118.629 66.9201 117.388 68.9049 115.994 70.5503C115.912 71.6198 115.441 72.679 114.58 73.7279C114.129 74.2421 113.248 74.6123 111.936 74.8386L108.522 75.2396C107.928 75.3219 107.077 75.6304 105.97 76.1652C105.027 76.6382 104.146 76.8747 103.326 76.8747C102.301 76.8747 101.06 76.5251 99.605 75.8258C98.3955 75.2293 97.4936 74.6535 96.8991 74.0981L94.8696 71.7535L91.8562 68.0205L85.3066 60.7088C84.7326 60.1123 84.0868 59.7421 83.3693 59.5982L82.2931 59.3822L80.6327 57.4694L78.9722 55.3099L77.6807 52.9343C77.1682 51.8854 76.912 51.1244 76.912 50.6514C76.912 49.9932 77.2912 48.1216 78.0497 45.0365C78.7262 42.1365 79.0644 39.8021 79.0644 38.0333C79.0644 36.8404 78.5724 34.9688 77.5885 32.4184C76.7275 30.156 75.7742 28.0993 74.7288 26.2482C73.9498 24.8702 72.5456 23.0603 70.5161 20.8184L66.9184 16.8695C66.1189 15.8617 65.7704 14.6791 65.8729 13.3216C65.9549 12.0876 66.3547 11.1826 67.0722 10.6068C67.7282 10.0514 68.7224 9.75321 70.0549 9.71207C71.6128 9.65037 72.8838 10.0926 73.8678 11.0387L79.4027 16.561L84.5686 21.7131C86.6185 23.5436 88.0638 24.644 88.9042 25.0142C89.4372 25.261 90.329 25.3638 91.5794 25.3227C92.8709 25.261 93.8856 25.0656 94.6236 24.7365C95.6896 24.284 96.4788 23.7904 96.9913 23.2557C97.7908 22.3918 98.1906 21.2401 98.1906 19.8004L98.2213 15.6046L98.0983 11.9333L97.6063 5.39293C97.5653 4.44684 97.8318 3.50074 98.4058 2.55464C99.0413 1.50571 99.851 0.909253 100.835 0.765281C101.819 0.641877 102.741 0.981239 103.602 1.78336C104.402 2.54436 104.925 3.4596 105.171 4.5291Z" fill="#0D131A"/>
</svg>
