<svg width="199" height="206" viewBox="0 0 199 206" fill="none" xmlns="http://www.w3.org/2000/svg">
<path d="M112.251 46.4674C112.889 48.1229 113.208 49.7075 113.208 51.2212L113.173 51.8952C113.055 52.8649 112.759 53.4561 112.286 53.669C111.86 53.8345 111.387 53.7163 110.867 53.3142C109.684 52.3446 108.774 50.4052 108.135 47.4962C107.52 44.729 107.473 42.9907 107.993 42.2812L108.738 42.2457L109.554 42.6005C110.642 43.2864 111.541 44.5753 112.251 46.4674Z" fill="#0D131A"/>
<path d="M111.47 52.6046C110.713 51.966 110.122 50.7835 109.696 49.057C109.341 47.6616 109.164 46.2662 109.164 44.8708L109.306 43.5582C110.181 44.2677 110.914 45.4266 111.505 47.0349C112.026 48.5249 112.286 49.9203 112.286 51.221L112.25 51.7887C112.203 52.4036 112.097 52.7465 111.931 52.8175L111.47 52.6046Z" fill="#3D62AC"/>
<path d="M111.15 48.6313L111.257 49.9439C111.209 50.346 111.115 50.5707 110.973 50.618C110.807 50.6653 110.642 50.5234 110.476 50.1923C110.311 49.8612 110.181 49.4473 110.086 48.9506L109.979 47.638C110.027 47.2359 110.121 47.0113 110.263 46.964C110.429 46.9403 110.594 47.0822 110.76 47.3897L111.15 48.6313Z" fill="#0D131A"/>
<path d="M194.944 143.459L196.008 143.033C196.386 142.915 196.67 143.021 196.859 143.352H197.25C198.432 145.552 198.409 148.91 197.179 153.427C196.091 157.448 194.79 160.298 193.276 161.977C192.898 162.403 192.531 162.545 192.177 162.403C191.775 162.261 191.503 161.634 191.361 160.523C191.29 159.979 191.207 158.489 191.112 156.053L190.9 152.079C190.781 150.566 191.172 148.827 192.07 146.864C192.993 144.878 193.95 143.742 194.944 143.459Z" fill="#0D131A"/>
<path d="M195.193 144.346C195.477 144.275 195.702 144.417 195.868 144.771C196.364 145.67 196.612 146.853 196.612 148.319C196.612 150.518 196.104 153.073 195.087 155.982C194.212 158.512 193.408 160.18 192.675 160.984L192.568 161.09C192.332 160.712 192.154 159.021 192.036 156.017L191.823 151.547C191.823 150.199 192.213 148.709 192.994 147.077C193.774 145.445 194.508 144.535 195.193 144.346Z" fill="#FFF3C2"/>
<path d="M195.868 144.771L196.4 146.19L195.193 147.574C194.058 149.348 193.278 153.747 192.852 160.771L192.568 161.09C192.332 160.712 192.154 159.021 192.036 156.017L191.823 151.547C191.823 150.199 192.213 148.709 192.994 147.077C193.774 145.445 194.508 144.535 195.193 144.346C195.477 144.275 195.702 144.417 195.868 144.771Z" fill="#DBD2A9"/>
<path d="M147.762 94.3243C148.708 96.2164 150.292 97.8719 152.515 99.291C154.171 100.379 156.784 101.644 160.355 103.087L167.522 105.925C169.39 106.753 170.892 107.722 172.027 108.834C175.409 112.192 179.808 116.863 185.224 122.847C190.758 128.949 194.188 132.946 195.512 134.838C196.86 136.754 197.724 138.752 198.102 140.833C198.457 142.891 198.279 144.736 197.57 146.368C196.671 148.449 194.33 149.726 190.546 150.199L177.278 150.589C174.487 149.927 172.453 147.976 171.176 144.736C168.669 138.279 166.114 132.248 163.513 126.643C159.563 118.152 156.678 113.351 154.857 112.24C152.373 110.75 149.464 109.378 146.13 108.125L135.913 104.719C134.044 104.104 132.885 102.413 132.436 99.6457C132.081 97.3989 132.211 94.9629 132.826 92.3377C133.228 90.6112 133.867 89.2986 134.742 88.3999C135.593 87.5484 136.61 87.1464 137.793 87.1937C142.144 87.3592 145.467 89.7361 147.762 94.3243Z" fill="#0D131A"/>
<path d="M159.894 104.258C162.708 105.417 164.731 106.28 165.96 106.847C168.018 107.841 169.437 108.739 170.217 109.544C173.931 113.233 178.365 117.845 183.521 123.379C189.221 129.481 192.697 133.407 193.951 135.157C195.181 136.884 195.973 138.646 196.328 140.443C196.659 142.217 196.517 143.813 195.902 145.232C194.956 147.361 193.123 148.614 190.403 148.993C184.325 149.75 180.044 149.667 177.561 148.745C175.361 147.917 173.67 145.989 172.488 142.962C170.549 138.114 168.408 133.182 166.067 128.168C161.36 118.164 157.825 112.5 155.459 111.176C150.777 108.479 144.687 105.925 137.189 103.513C135.723 103.016 134.682 101.609 134.067 99.2911C133.523 97.1152 133.512 94.8802 134.032 92.5861C134.268 91.5691 134.6 90.7059 135.025 89.9963C135.758 88.8138 136.622 88.2935 137.615 88.4354C139.649 88.7192 141.375 89.5115 142.795 90.8123C143.67 91.6164 144.947 93.2365 146.626 95.6725L147.974 97.5882C148.754 98.6998 150.304 99.8468 152.621 101.029C153.969 101.739 156.394 102.815 159.894 104.258Z" fill="#E73820"/>
<path d="M186.112 148.177C190.866 147.444 194.283 146.001 196.364 143.849L195.903 145.232C194.957 147.361 193.124 148.614 190.404 148.993L180.116 149.348C177.799 149.04 176.025 148.236 174.795 146.935C179.572 148.189 183.345 148.603 186.112 148.177Z" fill="#C82E19"/>
<path d="M137.615 88.4354C139.152 88.6483 140.477 89.1331 141.588 89.8899C142.534 90.5048 143.504 91.439 144.497 92.6925C144.639 97.6119 145.763 102.519 147.868 107.415C144.84 106.138 141.281 104.837 137.189 103.513C135.723 103.016 134.682 101.609 134.067 99.2911C133.523 97.1152 133.512 94.8802 134.032 92.5861C134.268 91.5691 134.6 90.7059 135.025 89.9963C135.758 88.8138 136.622 88.2935 137.615 88.4354Z" fill="#C82E19"/>
<path d="M192.001 141.117C192.805 142.513 193.183 144.854 193.136 148.142C193.089 151.949 192.415 155.568 191.114 158.997L189.979 161.197C189.435 162.024 189.009 162.427 188.702 162.403C188.394 162.379 187.98 161.776 187.46 160.594L185.402 154.634C184.338 151.299 183.782 149.182 183.735 148.283C183.711 147.337 184.539 145.93 186.218 144.062C187.874 142.217 189.257 141.129 190.369 140.798C191.197 140.561 191.741 140.668 192.001 141.117Z" fill="#0D131A"/>
<path d="M191.042 142.039C191.704 143.198 191.929 145.895 191.716 150.128C191.527 154.551 190.924 157.613 189.907 159.316L189.126 160.31L188.843 160.451L188.452 159.955L186.537 154.03C185.543 150.743 185.035 148.662 185.011 147.787C184.964 147.148 185.614 146.096 186.962 144.629C188.334 143.139 189.505 142.252 190.475 141.969L191.042 142.039Z" fill="#FFF3C2"/>
<path d="M185.011 147.787C184.987 147.337 185.425 146.533 186.323 145.374C186.536 147.266 186.986 149.797 187.671 152.966C188.31 155.97 188.889 158.323 189.41 160.026L188.984 160.416L188.842 160.452L188.452 159.955L186.536 154.031C185.543 150.743 185.034 148.662 185.011 147.787Z" fill="#DBD2A9"/>
<path d="M178.484 138.563C179.595 138.374 180.34 138.634 180.719 139.344C181.452 140.668 181.653 143.151 181.322 146.793C180.896 151.287 179.595 155.237 177.42 158.642C177.23 158.95 176.958 159.009 176.604 158.82C175.87 158.489 174.936 156.147 173.801 151.796C172.737 147.728 172.252 145.303 172.347 144.523C172.441 143.813 173.198 142.726 174.617 141.259C176.131 139.675 177.42 138.776 178.484 138.563Z" fill="#0D131A"/>
<path d="M179.761 140.514C179.997 140.94 180.115 141.969 180.115 143.601C180.115 145.871 179.867 148.118 179.37 150.341C178.756 153.132 177.857 155.272 176.674 156.762C176.201 156.076 175.551 154.066 174.723 150.731C173.895 147.491 173.481 145.374 173.481 144.381L173.517 144.168C173.588 143.695 174.167 142.938 175.255 141.898C176.461 140.739 177.514 140.077 178.413 139.911C179.051 139.816 179.501 140.017 179.761 140.514Z" fill="#FFF3C2"/>
<path d="M173.517 144.168C173.564 143.79 174.061 143.104 175.007 142.11C175.338 144.594 175.728 147.042 176.178 149.454C176.722 152.458 177.195 154.409 177.597 155.308L176.674 156.762C176.201 156.076 175.551 154.066 174.723 150.731C173.895 147.491 173.481 145.374 173.481 144.381L173.517 144.168Z" fill="#DBD2A9"/>
<path d="M137.118 187.91C137.26 187.082 138.147 186.065 139.779 184.859C141.316 183.7 142.345 183.156 142.865 183.227C143.409 183.322 144.994 184.09 147.619 185.533C150.481 187.118 152.042 188.253 152.302 188.939C152.42 189.199 152.396 189.424 152.231 189.613C151.781 190.157 149.641 190.334 145.81 190.145L138.218 189.293C137.697 189.175 137.355 188.939 137.189 188.584C137.071 188.347 137.047 188.123 137.118 187.91Z" fill="#0D131A"/>
<path d="M138.006 188.123C138.03 187.603 138.739 186.822 140.134 185.781C141.435 184.788 142.322 184.256 142.795 184.185C143.315 184.303 144.746 185.013 147.088 186.314C149.476 187.638 150.671 188.419 150.671 188.655L145.704 188.974L138.432 188.371C138.148 188.324 138.006 188.241 138.006 188.123Z" fill="#FFF3C2"/>
<path d="M138.432 188.371C138.148 188.324 138.006 188.241 138.006 188.123C138.03 187.555 138.798 186.728 140.312 185.64C143.505 186.704 146.946 187.697 150.635 188.62L150.671 188.655L145.704 188.974L138.432 188.371Z" fill="#DBD2A9"/>
<path d="M126.227 135.902L128.178 135.654C128.628 135.63 128.9 135.749 128.994 136.009L132.152 144.771C133.311 147.467 134.872 149.939 136.835 152.186C140.855 156.727 143.22 160.298 143.93 162.9C145.136 167.204 144.06 172.537 140.701 178.899C140.583 179.136 140.666 179.455 140.95 179.857L142.156 181.205C144.001 183.05 145.1 184.351 145.455 185.107C145.81 185.888 145.857 186.633 145.597 187.342L144.249 189.329C142.806 191.127 140.051 192.416 135.983 193.196L127.327 193.48L117.429 191.671C110.807 190.322 107.212 189.246 106.644 188.442C106.03 187.567 106.101 186.042 106.857 183.866C107.425 182.234 108.111 180.779 108.915 179.502C109.459 178.651 109.79 177.906 109.908 177.267C110.027 176.558 109.932 175.836 109.624 175.103C109.08 173.921 107.389 172.679 104.551 171.378C102.801 170.598 99.4192 169.332 94.4053 167.582L94.6891 166.944L95.1503 165.738C95.4104 163.349 99.7267 157.957 108.099 149.561C116.755 140.881 122.798 136.328 126.227 135.902Z" fill="#0D131A"/>
<path d="M127.576 137.712C128.9 141.472 130.142 144.499 131.301 146.793C132.673 149.513 134.257 151.937 136.055 154.066C139.531 158.158 141.577 161.528 142.192 164.177C143.043 167.866 142.18 172.608 139.602 178.403C139.342 178.994 139.413 179.632 139.815 180.318C140.028 180.697 140.513 181.276 141.27 182.057C142.31 183.097 142.961 183.913 143.221 184.504C143.836 185.829 143.694 187.035 142.795 188.123C141.518 189.708 139.07 190.914 135.452 191.742C132.164 192.498 129.539 192.676 127.576 192.274L115.621 189.79C111.245 188.797 108.88 188.005 108.525 187.413C108.194 186.869 108.525 185.025 109.519 181.879L111.151 176.558C111.151 175.919 111.021 175.269 110.76 174.607C109.412 171.579 104.623 168.647 96.3926 165.809C96.4635 163.964 100.46 159.033 108.383 151.015C116.614 142.69 122.467 138.09 125.944 137.215C126.795 137.002 127.339 137.168 127.576 137.712Z" fill="#E73820"/>
<path d="M125.944 137.215C126.795 137.002 127.339 137.168 127.576 137.712C128.64 140.739 129.634 143.246 130.556 145.232C131.62 147.527 132.767 149.584 133.997 151.405C129.811 153.912 126.216 157.046 123.212 160.806C119.499 165.489 118.21 169.616 119.346 173.188C119.913 174.938 119.949 176.475 119.452 177.799C119.097 178.769 118.34 179.845 117.182 181.028C115.857 182.376 115.242 183.558 115.337 184.575C115.408 185.569 116.165 186.373 117.607 186.988L122.113 188.513L125.412 189.258L128.179 189.826C128.794 190.015 129.527 190.405 130.379 190.996L131.336 192.38L127.576 192.274L119.736 190.642L112.428 189.01L111.754 188.797H111.718C109.826 188.253 108.762 187.792 108.525 187.413C108.194 186.869 108.525 185.025 109.519 181.879L111.151 176.558C111.151 175.919 111.021 175.269 110.76 174.607C109.412 171.579 104.623 168.647 96.3926 165.809C96.4635 163.964 100.46 159.033 108.383 151.015C116.614 142.69 122.467 138.09 125.944 137.215Z" fill="#C82E19"/>
<path d="M136.551 189.116C137.095 188.123 138.088 187.011 139.531 185.782C141.092 184.481 142.168 183.972 142.759 184.256C143.256 184.493 144.545 185.545 146.626 187.413C149.038 189.589 150.398 191.162 150.706 192.132C150.824 192.51 150.765 192.77 150.528 192.912C149.89 193.314 147.868 193.35 144.462 193.019C140.867 192.664 138.431 192.096 137.154 191.316L136.622 191.067C136.362 190.926 136.231 190.76 136.231 190.571C136.231 190.003 136.338 189.518 136.551 189.116Z" fill="#0D131A"/>
<path d="M137.65 190.429C137.65 190.192 137.816 189.778 138.147 189.187C138.738 188.265 139.519 187.342 140.488 186.42C141.411 185.545 142.038 185.107 142.369 185.107C142.865 185.368 144.119 186.467 146.129 188.407C148.21 190.393 149.216 191.505 149.145 191.741L144.249 191.883C140.961 191.647 138.762 191.197 137.65 190.535V190.429Z" fill="#FFF3C2"/>
<path d="M143.859 191.883C140.784 191.623 138.715 191.174 137.65 190.535V190.429C137.65 190.192 137.816 189.778 138.147 189.187L138.644 188.513C141.955 189.79 145.42 190.89 149.038 191.812C148.447 192.073 146.72 192.096 143.859 191.883Z" fill="#DBD2A9"/>
<path d="M134.387 185.959C135.995 186.621 137.485 187.768 138.857 189.4C139.969 190.724 140.785 192.072 141.305 193.444L141.624 194.65C141.624 194.863 141.53 195.005 141.34 195.076C140.536 195.431 138.1 195.253 134.032 194.544C130.366 193.905 128.143 193.421 127.363 193.089C126.819 192.829 126.547 192.569 126.547 192.309C126.571 191.647 127.505 190.488 129.349 188.832C131.029 187.319 132.211 186.408 132.897 186.101L133.89 185.781L134.387 185.959Z" fill="#0D131A"/>
<path d="M137.722 190.039L139.637 192.593C140.087 193.35 140.217 193.787 140.028 193.906L134.352 193.444C131.159 192.9 129.066 192.451 128.072 192.096C128.238 191.623 129.006 190.689 130.378 189.294C131.75 187.922 132.684 187.153 133.181 186.988C133.583 186.846 134.221 187.071 135.097 187.662C135.924 188.229 136.799 189.022 137.722 190.039Z" fill="#FFF3C2"/>
<path d="M128.072 192.096C128.143 191.86 128.439 191.434 128.959 190.819C134.47 192.167 138.112 192.924 139.886 193.09C140.099 193.539 140.146 193.811 140.028 193.906L134.352 193.444C131.159 192.9 129.066 192.451 128.072 192.096Z" fill="#DBD2A9"/>
<path d="M156.241 1.30638C156.595 0.738768 157.648 0.537737 159.398 0.703292C161.125 0.845196 162.567 1.24726 163.726 1.90947C165.713 2.9974 166.706 4.44009 166.706 6.23754C166.706 6.94706 166.375 7.91674 165.713 9.14657L160.285 18.7251L156.312 25.4655C159.197 29.226 161.621 33.424 163.584 38.0595C165.784 43.239 166.883 47.8627 166.883 51.9306C166.883 54.816 165.914 57.6895 163.974 60.5513C162.177 63.2001 158.961 66.665 154.325 70.9457C143.871 80.6188 138.645 89.0385 138.645 96.2046V96.5239C138.384 98.1795 138.266 100.142 138.29 102.413L138.219 107.912C137.935 112.122 137.095 117.242 135.7 123.273C134.423 128.783 132.992 133.738 131.408 138.137C128.096 147.266 123.544 154.279 117.749 159.174C109.921 165.773 99.3372 169.155 85.9982 169.321L59.817 168.505C53.1948 167.417 45.3783 164.449 36.3674 159.6C15.6967 148.484 4.88834 133.691 3.94232 115.22C3.56391 108.006 4.29708 100.604 6.14183 93.0118C7.72642 86.3896 10.3162 79.0106 13.9111 70.8748L14.1239 70.4136L14.6206 70.52C16.3471 70.8984 17.4705 71.4542 17.9908 72.1874L20.4032 70.8748L19.942 72.3293C19.0196 75.4039 18.7476 79.6728 19.126 85.1361C19.6464 93.1064 21.8104 99.8113 25.6181 105.251C28.6927 109.626 32.4532 112.926 36.8995 115.149C41.5114 117.467 47.1757 118.791 53.8925 119.122C54.9804 119.193 56.7069 118.424 59.072 116.816C60.7985 115.657 63.1399 113.824 66.0962 111.317C71.4649 106.8 79.0331 101.763 88.8009 96.2046C90.3145 95.3059 92.9752 94.147 96.7829 92.728C102.175 90.694 106.042 88.8138 108.384 87.0873C112.286 84.1546 115.018 80.0985 116.579 74.919C116.247 75.2028 115.763 75.3093 115.124 75.2383C114.438 75.191 113.752 74.9663 113.066 74.5643C110.299 72.956 108.076 71.0876 106.397 68.9591C104.552 66.6177 103.63 64.2289 103.63 61.7929C103.63 59.6407 104.363 57.5595 105.829 55.5492C107.225 53.6571 109.223 51.907 111.825 50.2987C109.436 46.8694 107.792 43.8539 106.894 41.2523C106.16 39.1238 105.971 37.4919 106.326 36.3566C106.941 34.3463 108.478 32.8327 110.938 31.8157C111.695 31.4846 112.227 31.1535 112.534 30.8224L113.102 29.6517C114.001 27.0738 115.455 25.0398 117.465 23.5498C119.925 21.7287 124.998 19.1626 132.685 15.8515C137.557 13.7466 142.783 10.8612 148.365 7.1954C153.119 4.07351 155.744 2.11051 156.241 1.30638Z" fill="#0D131A"/>
<path d="M163.478 3.96714C164.306 4.70031 164.719 5.53991 164.719 6.48594C164.719 7.14815 164.53 7.8222 164.152 8.50807L158.476 18.6187L155.176 24.153L153.083 22.0954L152.267 22.1308C152.22 22.5802 152.386 23.0414 152.764 23.5144C153.592 24.5077 155.141 26.9083 157.411 30.716C160.32 35.6117 162.307 39.6205 163.371 42.7424C164.507 46.0771 165.074 48.8443 165.074 51.0438C165.074 53.8818 164.187 56.6963 162.413 59.487C160.64 62.3251 157.589 65.7426 153.261 69.7396C149.145 73.5474 145.763 77.3669 143.115 81.1984C139.307 86.6617 137.403 91.6638 137.403 96.2047L137.438 96.3821C136.942 99.4803 136.528 103.536 136.197 108.55C135.818 114.25 135.334 118.637 134.742 121.712C133.749 126.75 132.022 131.787 129.563 136.825L128.463 139.166C124.844 147.089 120.966 152.99 116.827 156.869C109.401 163.822 99.4555 167.37 86.9916 167.511C64.3815 167.795 47.4122 164.295 36.0835 157.011L35.4805 156.62C27.3683 151.417 21.3019 146.498 17.2813 141.862C10.0442 133.561 6.14182 123.9 5.5742 112.878L5.46777 108.976C5.46777 102.874 6.3192 96.6777 8.02204 90.3866C9.44108 85.0889 11.7588 78.7978 14.9753 71.5134C16.2052 72.6723 17.506 72.9443 18.8777 72.3294C18.0026 76.4919 17.5651 79.9567 17.5651 82.7238C17.5651 86.9336 18.0026 90.9424 18.8777 94.7502C19.9893 99.5749 21.7512 103.702 24.1636 107.131C27.2382 111.507 31.8856 115.054 38.1057 117.774C44.1839 120.423 49.7654 121.452 54.8503 120.86C56.2457 120.719 57.8658 120.056 59.7105 118.874C61.3424 117.857 63.5183 116.201 66.2381 113.907C70.0222 110.714 73.2151 108.136 75.8166 106.173C80.2157 102.91 84.7448 99.9415 89.4039 97.269C90.9412 96.3702 93.5546 95.235 97.2441 93.8633C102.613 91.8766 106.539 89.9727 109.022 88.1516C113.137 85.1007 116.023 80.9027 117.678 75.5577C117.749 75.3921 117.726 75.1083 117.607 74.7062L117.501 73.8193L118.53 72.5422L117.182 73.3936C116.401 73.8903 115.349 73.8903 114.024 73.3936C111.848 72.5659 109.874 71.0049 108.1 68.7108C106.255 66.3457 105.333 64.0871 105.333 61.9349C105.333 59.9009 105.888 58.0089 107 56.2587C108.277 54.2248 110.193 52.5338 112.747 51.1857C113.906 50.5471 114.545 50.0623 114.663 49.7312C114.757 49.4 114.58 49.3291 114.131 49.5183L112.889 49.8376L111.399 47.5316C110.027 45.3558 109.069 43.6056 108.525 42.2812C107.603 40.058 107.378 38.2015 107.851 36.7115C108.419 34.9613 109.613 33.7078 111.435 32.951C112.404 32.549 113.102 32.0878 113.528 31.5675C113.811 31.2363 114.06 30.7397 114.273 30.0775C114.793 28.5875 115.893 27.1566 117.572 25.7849C120.528 23.3725 125.743 20.4398 133.217 16.9868C138.16 14.6927 143.434 11.7837 149.039 8.25973C154.195 5.0196 157.021 2.96199 157.518 2.08691L157.482 2.15787L159.93 2.26429C161.42 2.61905 162.603 3.18667 163.478 3.96714Z" fill="#E73820"/>
<path d="M164.718 6.48585C164.718 7.14807 164.529 7.82211 164.151 8.50798L158.475 18.6186L155.175 24.1529L153.082 22.0953L152.266 22.1308C152.219 22.5801 152.385 23.0413 152.763 23.5143C153.591 24.5076 155.14 26.9082 157.41 30.7159C160.319 35.6116 162.306 39.6204 163.37 42.7423C164.505 46.077 165.073 48.8442 165.073 51.0437C165.073 53.8818 164.186 56.6962 162.412 59.487C160.639 62.325 157.588 65.7426 153.26 69.7395C149.144 73.5473 145.762 77.3668 143.113 81.1983C139.306 86.6616 137.402 91.6637 137.402 96.2046L137.437 96.382L137.295 97.3043C136.278 95.9799 135.238 94.1943 134.174 91.9475L131.584 86.5196C129.361 82.3571 126.262 79.6255 122.289 78.3247C122.62 78.1118 123.566 77.899 125.127 77.6861C126.806 77.4733 128.048 77.1776 128.852 76.7992L132.116 74.8835C133.984 73.6773 135.451 72.9915 136.515 72.8259L143.22 72.4002C146.791 71.9035 149.937 70.4845 152.656 68.1431C155.589 65.6598 157.505 61.8875 158.404 56.8263C159.066 53.1368 159.172 48.8915 158.723 44.0904C158.51 41.749 156.701 37.1726 153.295 30.3612C150.386 24.5431 149.369 21.1729 150.244 20.2505L156.169 13.1553C159.054 9.27662 161.029 5.90641 162.093 3.04468C162.637 3.32849 163.098 3.63594 163.477 3.96705C164.304 4.70022 164.718 5.53982 164.718 6.48585Z" fill="#C82E19"/>
<path d="M122.182 100.391C125.517 98.8061 128.343 98.2503 130.661 98.7233C132.411 99.0781 133.854 100.012 134.989 101.526C136.408 103.418 137.106 105.984 137.082 109.224C137.035 112.417 136.243 117.1 134.705 123.273C133.452 128.239 132.068 132.91 130.555 137.286L129.987 138.563C126.581 146.722 122.726 152.883 118.422 157.046C110.688 164.59 100.211 168.445 86.9903 168.611C64.1674 168.895 46.997 165.335 35.4792 157.933L34.8761 157.543C26.6456 152.245 20.4846 147.243 16.3931 142.536C9.03772 134.069 5.06441 124.207 4.47315 112.949C4.30759 109.804 4.61505 105.44 5.39552 99.8586C5.86853 96.5475 6.40067 93.4256 6.99194 90.4929L7.91432 90.6703C6.70813 97.5763 7.52408 104.955 10.3622 112.807C13.2002 120.636 17.4692 127.293 23.169 132.78C28.5613 137.983 34.1784 141.566 40.0201 143.529C46.2402 145.658 52.8269 145.977 59.7802 144.487C69.9973 142.311 79.9069 137.546 89.5091 130.191C95.8711 125.319 102.233 119.134 108.595 111.637C113.136 106.292 117.665 102.543 122.182 100.391Z" fill="#0D131A"/>
<path d="M135.096 104.045C136.066 105.89 136.48 107.841 136.338 109.898C136.172 112.192 135.51 115.917 134.351 121.073C132.932 127.293 131.383 132.579 129.704 136.931L129.136 138.208C125.778 146.226 122.005 152.268 117.819 156.336C110.227 163.739 99.9511 167.523 86.9906 167.689C64.3333 167.925 47.3284 164.413 35.9761 157.152L35.373 156.762C27.2609 151.559 21.1826 146.628 17.1384 141.969C9.87762 133.644 5.96344 123.947 5.39583 112.878L5.36035 111.246C5.36035 108.101 5.76241 103.808 6.56654 98.3687C6.47193 104.731 7.84367 111.14 10.6817 117.597C13.4725 123.911 17.2803 129.398 22.105 134.057C27.521 139.261 33.5401 142.903 40.1623 144.984C46.9973 147.089 54.0334 147.385 61.2705 145.871C71.4403 143.695 81.409 138.705 91.1767 130.9C96.2143 126.856 102.683 120.529 110.582 111.92C114.177 107.994 116.554 105.594 117.713 104.719C122.254 101.29 126.345 99.8232 129.987 100.32C132.211 100.604 133.913 101.845 135.096 104.045Z" fill="#FFF3C2"/>
<path d="M35.9764 157.152L35.3733 156.762L28.6329 152.221C25.7948 150.187 23.2642 148.118 21.041 146.013C25.1799 149.087 30.4067 151.985 36.7214 154.704C44.668 158.157 52.8393 160.582 61.2353 161.977C84.0109 165.832 104.682 161.741 123.247 149.702C115.443 161.504 103.357 167.499 86.9909 167.689C64.3335 167.925 47.3287 164.413 35.9764 157.152Z" fill="#DBD2A9"/>
<path d="M144.355 68.7463L135.203 68.356L126.688 67.8948C125.695 68.1077 124.359 68.7936 122.679 69.9524C121.048 71.064 119.569 72.282 118.245 73.6065C117.819 74.0322 117.855 74.6589 118.351 75.4867C118.801 76.2435 119.357 76.7638 120.019 77.0476C121.13 77.5443 122.668 77.6744 124.631 77.4379C126.404 77.225 128.095 76.7756 129.704 76.0898C130.673 75.6641 131.158 75.5813 131.158 75.8414C131.158 76.078 130.78 76.3736 130.023 76.7283C128.06 77.6507 126.026 78.2538 123.921 78.5376L119.487 78.3248C118.446 77.8281 117.642 77.0713 117.074 76.0543L116.542 74.5998L114.981 74.0322C114.106 73.6774 114.047 73.5828 114.804 73.7484C115.821 73.9612 116.779 73.6774 117.677 72.8969L121.083 69.6686C122.999 68.0604 124.82 67.1144 126.546 66.8306L135.841 67.3272L144.036 67.8239C145.621 67.3272 146.91 66.6532 147.903 65.8017C148.589 65.2341 149.014 65.0331 149.18 65.1987C149.322 65.3406 149.109 65.7308 148.541 66.3694C147.383 67.6465 145.987 68.4388 144.355 68.7463Z" fill="#0D131A"/>
<path d="M126.511 77.5088L127.043 77.3314L127.681 77.2605L129.845 78.8214C130.342 79.1525 130.567 79.3772 130.52 79.4955L129.739 79.4245C129.337 79.2826 128.781 78.9988 128.072 78.5731L126.511 77.5088Z" fill="#0D131A"/>
<path d="M112.393 41.4297C112.203 41.0513 112.192 40.7557 112.357 40.5428C112.523 40.3063 112.771 40.4009 113.102 40.8266C114.072 41.9619 114.568 43.3573 114.592 45.0128C114.616 45.8406 114.497 46.219 114.237 46.148C113.977 46.0771 113.788 45.7342 113.67 45.1192C113.528 44.1259 113.102 42.8961 112.393 41.4297Z" fill="#0D131A"/>
<path d="M124.595 44.0549C124.359 43.4164 124.276 42.5886 124.347 41.5716C124.418 40.2945 124.725 39.2184 125.269 38.3433C126.168 36.9952 126.428 37.1844 126.05 38.9109C125.79 39.9042 125.612 41.5834 125.518 43.9485C125.47 44.729 125.34 45.0837 125.127 45.0128C124.962 44.9418 124.784 44.6225 124.595 44.0549Z" fill="#0D131A"/>
<path d="M115.939 65.5534C116.176 64.8676 116.459 64.3827 116.791 64.0989C117.098 63.8151 117.417 63.7678 117.748 63.957C118.103 64.1462 118.091 64.43 117.713 64.8085C117.406 65.1159 117.169 65.5653 117.003 66.1565L116.613 67.3982L116.117 67.9658C115.951 67.9895 115.809 67.7766 115.691 67.3272C115.573 66.8779 115.655 66.2866 115.939 65.5534Z" fill="#0D131A"/>
<path d="M136.374 54.4494C133.465 54.2602 131.064 53.6334 129.172 52.5692L128.179 52.6756C128.037 52.581 128.025 52.38 128.143 52.0725L128.391 51.6823C129.669 49.2699 132.247 46.621 136.125 43.7356C139.72 41.0631 142.913 39.2539 145.704 38.3078C147.028 37.8348 147.726 37.6929 147.797 37.8821L147.123 38.6981L146.058 39.5495L145.526 39.8688C146.614 40.9094 147.56 42.4585 148.364 44.5161C148.885 45.9115 149.133 47.3187 149.109 48.7378C149.062 50.1332 148.778 51.2802 148.258 52.1789L148.755 52.5692C148.897 52.8766 148.542 53.125 147.69 53.3142C143.457 54.3075 139.685 54.6859 136.374 54.4494Z" fill="#0D131A"/>
<path d="M144.356 40.4364C144.734 40.602 145.16 41.0277 145.633 41.7135C146.177 42.494 146.65 43.4282 147.052 44.5161C147.69 46.148 148.01 47.6853 148.01 49.128C148.01 50.3342 147.773 51.3748 147.3 52.2499C143.54 53.3378 139.886 53.7399 136.338 53.4561C133.618 53.2196 131.336 52.652 129.491 51.7532C130.816 49.8375 133.382 47.4843 137.19 44.6935C140.761 42.0683 143.149 40.6493 144.356 40.4364Z" fill="white"/>
<path d="M139.85 42.0328L140.098 41.8909C141.376 43.0734 142.262 44.7999 142.759 47.0704C143.327 49.53 143.185 51.7532 142.333 53.7398L142.121 54.0946H141.943L133.11 53.7398H133.074L133.039 53.7044L130.733 52.7465C129.929 52.4154 129.373 51.9069 129.065 51.2211L130.591 49.1989L130.697 49.0925C132.14 47.5789 134.931 45.4148 139.07 42.6004L139.85 42.0328Z" fill="#0D131A"/>
<path d="M139.922 42.7423C141.459 44.8945 142.228 47.2951 142.228 49.9439C142.228 51.1028 142.039 52.2853 141.66 53.4915C139.579 53.728 137.569 53.7753 135.629 53.6334C133.714 53.4915 132.33 53.2196 131.479 52.8175L130.202 52.2499C129.776 51.9897 129.634 51.765 129.776 51.5758C130.533 50.4169 132.153 48.7969 134.636 46.7156C136.859 44.8236 138.621 43.4991 139.922 42.7423Z" fill="#3D62AC"/>
<path d="M136.268 44.516C137.663 45.9587 138.148 47.8034 137.722 50.0502C137.32 52.2498 136.457 53.3495 135.133 53.3495C133.288 53.3495 132.07 51.7531 131.479 48.5603L134.565 45.8996L136.268 44.516Z" fill="#0D131A"/>
<path d="M44.2781 14.3261C39.7608 19.1036 38.4127 22.1545 40.2338 23.4789L40.8015 23.408L41.2981 22.8404C41.8894 21.6342 42.4688 20.8774 43.0364 20.5699L45.9455 20.428L46.3357 20.6409L46.0519 20.9956C45.2241 21.5396 44.3491 22.4856 43.4267 23.8337L41.0853 27.807L40.4467 28.9068C38.8385 31.8158 38.2708 33.6605 38.7439 34.441C39.075 35.0559 39.5953 35.0914 40.3048 34.5474C40.8961 34.0981 41.3336 33.5186 41.6174 32.8091C41.9249 31.9577 42.1732 31.5556 42.3624 31.6029C42.528 31.6266 42.6107 32.0523 42.6107 32.8801C42.6107 35.387 42.185 37.3264 41.3336 38.6981C40.5531 39.9753 39.075 41.2169 36.8991 42.4231C36.0004 42.8961 35.3618 44.0786 34.9834 45.9707C34.8888 46.491 34.9243 46.7866 35.0898 46.8576C35.279 46.9758 35.6101 46.7748 36.0832 46.2545C36.9582 45.3321 37.6914 44.6817 38.2827 44.3033C39.3706 43.6175 40.7305 43.1917 42.3624 43.0262C42.7172 43.0262 42.8591 43.0971 42.7881 43.239L41.7238 44.6226C40.494 46.0653 39.4652 47.6972 38.6374 49.5183C37.6441 51.6705 37.0765 53.8345 36.9346 56.0104C36.4852 62.4197 34.6641 66.7005 31.4713 68.8527C29.9813 69.8697 27.4388 70.5082 23.8439 70.7684C22.3067 70.8867 21.1714 71.2059 20.4383 71.7263C19.2557 72.5777 18.0141 72.8851 16.7133 72.6486C15.7436 72.4358 14.975 71.9509 14.4073 71.1941C14.0999 70.5555 13.5323 69.7632 12.7045 68.8172C11.6402 67.5637 9.74816 66.2393 7.02833 64.8439C5.25453 63.9215 3.83549 62.4552 2.77122 60.4449C1.82519 58.6711 1.24575 56.6844 1.03289 54.4849C0.796386 51.978 1.1275 49.6484 2.02622 47.4962C2.90129 45.3676 4.22573 43.5938 5.99953 42.1748C9.21602 39.6205 11.451 37.2436 12.7045 35.0441C13.6505 33.3886 14.1708 31.5083 14.2654 29.4034C14.3127 28.7175 14.3955 28.3391 14.5138 28.2682L14.8685 28.5875C15.8382 30.0065 16.323 31.9222 16.323 34.3346C16.7488 32.7973 17.4819 31.0944 18.5225 29.226C20.6038 25.5129 23.1817 22.9704 26.2563 21.5987C26.7057 21.3622 26.9658 21.2794 27.0368 21.3504C27.1314 21.3977 27.0013 21.6342 26.6465 22.0599C25.8188 23.0296 25.0974 24.3422 24.4825 25.9977C23.8912 27.5823 23.7375 28.4929 24.0213 28.7294L24.3406 28.9777C24.5771 29.025 24.8846 28.8476 25.263 28.4456C26.5874 27.1211 27.6517 25.371 28.4558 23.1951C29.4255 20.6172 30.4543 18.6897 31.5422 17.4125C32.7721 15.9462 34.2266 15.1421 35.9058 15.0002L36.4734 15.0711L36.1186 15.5323C35.4091 16.1945 34.9479 17.0341 34.7351 18.0511C34.5695 18.9262 34.605 19.6948 34.8415 20.357C34.9597 20.6882 35.1844 20.8182 35.5155 20.7473C35.8703 20.7 36.1423 20.428 36.3315 19.9313C37.3248 17.4007 38.6019 15.3549 40.1629 13.794C41.6765 12.2803 44.5146 10.1636 48.6771 7.44379C49.5049 6.89982 49.9897 6.65149 50.1316 6.69879C50.2735 6.76974 50.0962 7.25458 49.5995 8.15331C49.0319 9.17028 47.8021 10.6485 45.91 12.5878L44.2781 14.3261Z" fill="#0D131A"/>
<path d="M49.0666 7.79858C48.5227 8.79191 47.3283 10.2464 45.4836 12.1621L43.8162 13.865C42.4681 15.3313 41.4748 16.5257 40.8362 17.4481C39.63 19.1745 39.0269 20.6409 39.0269 21.8471C39.0269 22.6275 39.2753 23.3016 39.7719 23.8692C40.0794 24.2003 40.3632 24.354 40.6234 24.3304C40.9072 24.3067 41.3092 23.9283 41.8295 23.1952C42.3026 22.462 42.7164 21.9535 43.0712 21.6697C43.6625 21.173 44.3602 20.9365 45.1643 20.9602C44.3838 21.5987 43.5679 22.5566 42.7164 23.8337L40.5169 27.4878L39.9138 28.623C38.4002 31.4374 37.6434 33.4595 37.6434 34.6894C37.6434 35.0205 37.7025 35.3043 37.8208 35.5408C38.01 35.8483 38.2819 36.002 38.6367 36.002C39.3462 36.002 40.0557 35.6591 40.7653 34.9732C41.2856 34.4529 41.6995 33.8261 42.0069 33.093C41.9596 34.5829 41.6049 36.002 40.9426 37.3501C40.0203 39.2185 38.5658 40.7321 36.5791 41.891C35.8223 42.3167 35.1719 43.109 34.6279 44.2679C34.1313 45.3085 33.8829 46.2427 33.8829 47.0705V47.1414C33.9302 47.6381 34.0721 47.9574 34.3086 48.0993L35.1955 47.9574L36.5436 46.6803C37.2531 45.8761 37.8681 45.2967 38.3884 44.9419C39.2871 44.3507 40.375 43.9604 41.6522 43.7712L41.2619 44.2324C39.7246 45.9826 38.6249 47.4253 37.9627 48.5605C36.8511 50.4998 36.2125 52.5456 36.047 54.6978C35.6212 60.9179 33.9184 65.1987 30.9384 67.5401C29.2829 68.8409 26.835 69.6096 23.5949 69.8461C21.8684 69.9407 20.8159 70.1535 20.4375 70.4846C19.4679 71.2888 18.4745 71.608 17.4575 71.4425C16.5825 71.3242 15.8966 70.934 15.3999 70.2718L12.6683 67.0435C11.4385 65.6954 9.48728 64.2882 6.81475 62.8218C5.82142 62.2779 4.94635 61.2491 4.18953 59.7354C3.40906 58.1745 2.92422 56.4361 2.73501 54.5204L2.66406 52.924C2.66406 50.8428 3.06612 48.9271 3.87025 47.1769C4.65072 45.4031 5.78595 43.925 7.27594 42.7424C10.3742 40.2828 12.4791 37.9059 13.5907 35.6117C14.3238 34.0981 14.7495 32.1942 14.8678 29.9001C15.4118 31.1063 15.6837 32.5845 15.6837 34.3346C15.6837 35.5408 15.5891 36.6287 15.3999 37.5984L15.329 38.6982C15.3526 39.2185 15.5773 38.8992 16.003 37.7403C16.3814 36.0138 17.0437 34.1099 17.9897 32.0287C19.9054 27.9135 22.3414 24.8744 25.2977 22.9114C24.6355 23.9283 24.1034 24.969 23.7013 26.0332C23.2993 27.0975 23.0982 27.9844 23.0982 28.6939C23.0982 29.2142 23.2165 29.5808 23.453 29.7937C23.9497 30.2431 24.7065 29.9356 25.7234 28.8713L27.4263 26.4944L28.9872 23.479C30.1225 21.2322 31.0212 19.6357 31.6834 18.6897C32.7713 17.1524 33.9066 16.1946 35.0891 15.8162C34.3796 16.7858 34.0248 17.8738 34.0248 19.0799C34.0248 19.7185 34.1076 20.2152 34.2732 20.5699C34.5097 21.2795 34.8762 21.6342 35.3729 21.6342C35.9169 21.6579 36.4254 21.173 36.8984 20.1797C38.1046 17.4599 39.5118 15.2958 41.12 13.6876C42.1843 12.6233 44.2064 11.086 47.1864 9.07572L49.0666 7.79858Z" fill="#E50020"/>
<path d="M31.2935 26.6007C32.003 26.0331 32.4878 25.8084 32.748 25.9267C32.9135 25.974 32.7835 26.2696 32.3577 26.8136C31.2225 28.4928 30.5839 29.7818 30.442 30.6805C30.3947 31.0352 30.4657 32.2887 30.6549 34.4409C30.8205 36.4749 30.4302 38.3788 29.4842 40.1526C28.7747 41.4297 27.6749 42.766 26.1849 44.1614C24.6949 45.604 23.7962 46.9403 23.4887 48.1701C23.134 49.5419 23.2168 50.4406 23.7371 50.8663C24.2337 51.292 24.5767 51.1619 24.7659 50.4761C25.1916 49.0097 25.7237 47.8272 26.3623 46.9285C26.9063 46.1244 27.6513 45.3912 28.5973 44.729C28.9994 44.4688 29.2359 44.3387 29.3068 44.3387C29.4251 44.3387 29.4132 44.5279 29.2713 44.9063C27.9705 48.383 27.6513 50.346 28.3135 50.7954C28.5263 50.89 28.8693 50.7244 29.3423 50.2987C29.8863 49.8257 30.3711 49.2226 30.7968 48.4894C31.9793 46.5737 32.5706 44.9063 32.5706 43.4873C32.5706 42.3994 32.7716 42.293 33.1737 43.168C33.3629 43.5701 33.4812 44.1732 33.5285 44.9773C33.5758 45.9706 33.493 46.9048 33.2801 47.7799C32.7362 49.8612 31.0215 52.4627 28.1361 55.5846C26.0312 57.8551 25.0733 59.7235 25.2625 61.1898C25.4045 62.2304 25.8302 62.7744 26.5397 62.8217C27.1309 62.8217 27.7813 62.5143 28.4909 61.8993C29.3423 61.1425 30.0282 60.0664 30.5485 58.671C30.6904 58.269 30.8205 58.0561 30.9387 58.0325C31.057 57.9852 31.187 58.1625 31.3289 58.5646C32.0148 60.4567 31.9557 62.2541 31.1516 63.9569C30.2528 65.7544 28.8574 66.7477 26.9654 66.9369C26.2322 67.0079 25.4518 67.2562 24.624 67.6819C23.7962 68.084 23.0749 68.5688 22.4599 69.1364L19.8347 70.9812C19.3617 71.3833 18.8059 71.6316 18.1674 71.7262L16.5 71.6198C15.956 71.4779 15.3056 70.8275 14.5488 69.6686L13.6264 68.5333L12.4912 67.0434L11.4979 65.0212C9.32201 59.2505 9.40479 54.4967 11.7462 50.7599C12.503 49.601 12.8341 49.4827 12.7395 50.4051C12.6922 51.2802 12.8223 52.0252 13.1298 52.6401C13.4609 53.2787 13.8629 53.5507 14.3359 53.4561C14.6907 53.3851 14.9982 52.9239 15.2583 52.0725C15.5185 51.1738 15.6486 50.1095 15.6486 48.8797C15.6722 45.9233 16.7956 43.1799 19.0188 40.6492C20.7689 38.6626 22.1761 37.5865 23.2404 37.4209C23.6425 37.3973 23.6898 37.5746 23.3823 37.9531C21.8923 39.7269 20.97 41.2405 20.6152 42.494C20.3077 43.5346 20.4142 44.1022 20.9345 44.1968C21.6676 44.2914 22.4718 43.7711 23.3468 42.6359C24.2692 41.4297 25.3572 39.4312 26.6106 36.6404L27.7459 34.0152C28.0297 33.1874 28.1952 32.336 28.2425 31.461C28.3371 29.6635 29.3541 28.0434 31.2935 26.6007Z" fill="#EFE908"/>
<path d="M47.0448 134.128C47.849 131.29 50.5097 130.084 55.0269 130.51C58.8583 130.865 63.5885 132.331 69.2173 134.909C74.3022 137.25 78.8431 139.887 82.8401 142.82C86.9317 145.8 89.0602 148.082 89.2258 149.667C89.5096 152.576 87.2036 158.323 82.308 166.908C77.767 174.902 74.4559 179.727 72.3747 181.382C76.4189 186.184 78.2282 189.672 77.8025 191.848C77.637 192.723 77.0693 193.563 76.0997 194.367L73.0133 196.566C70.9083 198.009 66.0008 198.789 58.2907 198.908C50.8881 199.002 46.5009 198.565 45.1291 197.595C42.7168 195.869 41.3805 194.804 41.1203 194.402C39.8905 192.652 40.0442 190.287 41.5815 187.307C43.8993 182.766 45.1764 179.112 45.4129 176.345C45.6021 173.791 44.9281 171.236 43.3908 168.682C42.3029 166.861 41.4396 164.851 40.8011 162.651C39.6895 158.772 39.725 155.355 40.9075 152.399L43.4618 145.906L47.0448 134.128Z" fill="#E73820"/>
<path d="M76.9516 165.631C82.4149 158.418 85.2057 151.453 85.324 144.736C87.7836 146.817 89.0844 148.461 89.2263 149.667C89.5101 152.576 87.2042 158.323 82.3085 166.908C77.7676 174.902 74.4565 179.727 72.3752 181.382C75.5681 185.167 77.3655 188.087 77.7676 190.145C78.0987 191.777 77.5311 193.196 76.0647 194.402C73.274 191.233 70.7197 188.773 68.4019 187.023C66.9119 185.888 64.6297 184.457 61.5551 182.73C59.3556 181.477 58.8944 180.294 60.1715 179.183C60.6209 178.804 62.4656 177.87 65.7058 176.38C68.8986 174.89 72.6472 171.307 76.9516 165.631Z" fill="#C82E19"/>
<path d="M46.4421 133.987C47.0333 132.615 47.4709 132.012 47.7547 132.177C48.0385 132.343 48.003 133.041 47.6482 134.27L44.9521 142.785L41.4754 152.611C40.3165 155.497 40.3165 158.867 41.4754 162.722C42.0903 164.803 42.9063 166.684 43.9233 168.363C45.5788 171.106 46.2765 173.862 46.0163 176.629C45.7562 179.396 44.4672 183.05 42.1495 187.591C40.8723 190.05 40.5767 192.013 41.2626 193.48C41.6646 194.331 42.7171 195.301 44.4199 196.389L45.4842 197.098C46.714 197.973 50.9357 198.375 58.1491 198.304C65.741 198.234 70.5775 197.477 72.6588 196.034L73.6521 195.36C74.8347 194.58 75.6388 193.988 76.0645 193.586C76.7267 192.948 77.1051 192.274 77.1997 191.564C77.3653 190.547 77.0578 189.294 76.2774 187.804C75.4732 186.266 74.1015 184.351 72.1621 182.056C70.4829 182.955 69.5014 183.227 69.2176 182.872C69.0048 182.612 69.0048 182.388 69.2176 182.198L70.8495 180.886C73.8295 178.473 77.4599 173.944 81.7407 167.298C86.8019 159.446 89.0842 153.593 88.5875 149.738L89.8292 149.596L89.9001 150.731C89.9001 155.059 88.0435 160.381 84.3304 166.695C81.0903 172.182 77.3889 176.983 73.2264 181.099C75.2367 183.558 76.6794 185.486 77.5545 186.881C78.6661 188.608 79.2219 190.003 79.2219 191.067L78.9026 192.38C78.7607 193.279 78.2167 194.047 77.2707 194.686L74.3616 196.389L73.3683 197.063C71.1452 198.6 66.143 199.428 58.362 199.546C50.8411 199.688 46.312 199.203 44.7747 198.092L42.9299 197.489C41.1088 196.353 39.9736 195.313 39.5242 194.367C38.6728 192.64 38.9803 190.334 40.4466 187.449C42.7171 183.026 43.8287 179.065 43.7814 175.564C43.7577 172.774 42.9772 170.113 41.4399 167.582C40.2101 165.572 39.3469 163.739 38.8502 162.084C37.8096 158.631 37.9042 155.367 39.134 152.292L46.4421 133.987Z" fill="#0D131A"/>
<path d="M49.3156 189.116C50.5218 188.217 51.3969 188.005 51.9408 188.478C52.6977 189.069 53.4663 190.074 54.2468 191.493C55.2165 193.196 55.7604 194.816 55.8787 196.353C55.9969 197.701 55.8195 199.132 55.3465 200.646C54.8499 202.301 54.1167 203.661 53.147 204.726C52.9342 204.986 52.6149 205.069 52.1892 204.974C51.3141 204.808 49.9305 203.59 48.0385 201.32C46.3593 199.286 45.3305 197.808 44.9521 196.885C44.6919 196.2 45.0822 194.934 46.1228 193.089C47.1634 191.245 48.2277 189.92 49.3156 189.116Z" fill="#0D131A"/>
<path d="M51.4791 189.932C52.2123 190.523 52.8982 191.328 53.5367 192.345C54.3645 193.693 54.8375 195.053 54.9558 196.424V197.027C54.9558 199.085 54.128 201.024 52.4724 202.845C52.0231 202.94 50.8879 202.124 49.0668 200.398C47.2457 198.647 46.1695 197.37 45.8384 196.566C45.6729 196.188 46.0395 195.289 46.9382 193.87C47.8842 192.333 48.8894 191.174 49.9536 190.393C50.6632 189.873 51.1717 189.719 51.4791 189.932Z" fill="#FFF3C2"/>
<path d="M51.9056 200.717C52.1894 200.717 52.6151 200.492 53.1827 200.043C53.8213 199.546 54.3771 198.955 54.8501 198.269C54.5663 199.877 53.774 201.403 52.4732 202.845C52.0238 202.94 50.8886 202.124 49.0675 200.398C47.2464 198.647 46.1703 197.37 45.8392 196.566C45.6973 196.259 45.9929 195.478 46.7261 194.225C47.5775 196.235 48.63 197.902 49.8835 199.227C50.8295 200.22 51.5035 200.717 51.9056 200.717Z" fill="#DBD2A9"/>
<path d="M64.4639 189.01C65.0552 188.655 65.9539 188.963 67.1601 189.932C68.248 190.807 69.1941 191.872 69.9982 193.125C70.8969 194.568 71.5591 196.767 71.9848 199.724C72.3869 202.538 72.3751 204.111 71.9494 204.442C71.5709 204.773 70.9206 204.844 69.9982 204.655L67.9406 204.052C66.2614 203.46 64.4876 202.479 62.6192 201.107C60.9163 199.877 59.9466 198.955 59.7101 198.34C59.4263 197.678 59.852 196.141 60.9873 193.728C62.1698 191.221 63.3287 189.648 64.4639 189.01Z" fill="#0D131A"/>
<path d="M66.911 191.458C67.9044 192.214 68.6375 192.971 69.1105 193.728C70.0329 195.194 70.6597 196.862 70.9908 198.73C71.2982 200.504 71.2273 201.793 70.7779 202.597C70.6833 202.786 70.4468 202.893 70.0684 202.916C68.8622 202.94 67.1357 202.29 64.8889 200.965C62.8076 199.783 61.5542 198.848 61.1285 198.163C60.7737 197.619 61.1166 196.318 62.1573 194.26C63.1742 192.274 64.0257 191.056 64.7115 190.606C65.1372 190.37 65.8704 190.653 66.911 191.458Z" fill="#FFF3C2"/>
<path d="M61.9445 194.686C63.7183 196.838 65.4093 198.494 67.0175 199.652C68.744 200.882 70.1158 201.355 71.1328 201.071C71.0854 201.734 70.9672 202.242 70.778 202.597C70.6834 202.786 70.4469 202.893 70.0685 202.916C68.8623 202.94 67.1358 202.289 64.889 200.965C62.8077 199.783 61.5542 198.848 61.1285 198.162C60.7974 197.666 61.0694 196.507 61.9445 194.686Z" fill="#DBD2A9"/>
<path d="M76.3844 187.413C77.5905 187.342 79.3289 188.679 81.5993 191.422C83.9171 194.237 85.1588 196.59 85.3243 198.482C85.348 198.742 85.1706 198.884 84.7922 198.908L84.0472 198.872C82.9119 198.99 80.8425 198.73 77.8389 198.092C74.8589 197.477 73.2152 196.968 72.9077 196.566C72.6949 196.282 72.6121 195.644 72.6594 194.65C72.7067 193.704 72.8604 192.806 73.1206 191.954C73.428 190.866 73.8064 189.932 74.2558 189.152C74.918 188.04 75.6275 187.461 76.3844 187.413Z" fill="#0D131A"/>
<path d="M76.6324 188.655C77.0581 188.726 77.9331 189.506 79.2576 190.996C80.7003 192.581 81.8237 194.107 82.6278 195.573C83.1008 196.472 83.3373 197.11 83.3373 197.489L83.3018 197.701C82.8761 197.962 81.3152 197.784 78.619 197.169C75.9701 196.554 74.4092 196.058 73.9362 195.679L73.8652 195.041C73.8652 193.787 74.1254 192.498 74.6457 191.174C75.166 189.849 75.8282 189.01 76.6324 188.655Z" fill="#FFF3C2"/>
<path d="M74.2197 192.486L74.6454 191.174C75.1658 189.849 75.828 189.01 76.6321 188.655C77.0578 188.726 77.9329 189.506 79.2573 190.996C80.7 192.581 81.8234 194.107 82.6275 195.573C83.1005 196.472 83.3371 197.11 83.3371 197.489L83.3016 197.701C82.7813 197.985 81.0429 197.761 78.0866 197.027C77.9211 196.554 77.4835 195.916 76.774 195.112L74.2197 192.486Z" fill="#DBD2A9"/>
<path d="M71.2752 157.933C71.3462 157.034 72.7297 156.668 75.4259 156.833C76.9869 156.904 78.2758 157.413 79.2928 158.359C80.499 159.47 81.1139 161.055 81.1376 163.112C81.1612 164.91 81.3504 168.032 81.7052 172.478L82.3437 178.225C82.4856 179.857 82.3674 180.768 81.989 180.957C81.7761 181.075 81.4332 180.898 80.9602 180.425L80.0023 179.431C78.2285 177.776 76.3246 174.879 74.2907 170.74C71.902 165.844 70.8613 161.871 71.1688 158.82L71.2752 157.933Z" fill="#0D131A"/>
<path d="M75.355 157.755C76.4193 157.779 77.3653 158.087 78.1931 158.678C79.5175 159.6 80.1915 161.078 80.2152 163.112C80.2388 165.667 80.428 168.812 80.7828 172.549L81.1021 177.125L80.9247 178.332L80.428 177.977C78.8908 176.534 77.2234 173.968 75.4259 170.279C73.392 166.092 72.375 162.557 72.375 159.671L72.446 158.607C72.4696 158.418 72.7416 158.229 73.2619 158.039L75.355 157.755Z" fill="#FFF3C2"/>
<path d="M73.2619 158.039L75.355 157.755C76.4193 157.779 77.3653 158.087 78.1931 158.678C79.5175 159.6 80.1915 161.078 80.2152 163.112C80.2388 165.667 80.428 168.812 80.7828 172.549L81.1021 177.125L80.9957 178.19C80.6646 175.777 80.227 173.365 79.683 170.953C79.0681 168.233 78.5242 166.459 78.0512 165.631C77.6964 165.04 77.0105 164.413 75.9935 163.751C75.0002 163.089 73.865 162.509 72.5879 162.013C72.4459 161.208 72.375 160.428 72.375 159.671L72.446 158.607C72.4696 158.418 72.7416 158.229 73.2619 158.039Z" fill="#DBD2A9"/>
<path d="M109.945 100.391C105.995 102.779 102.601 104.872 99.7631 106.67C94.3471 110.123 91.0479 112.535 89.8653 113.907C89.345 116.083 90.433 121.724 93.1291 130.829C95.9909 140.455 97.4217 145.528 97.4217 146.048C97.4217 149.62 96.251 153.274 93.9096 157.01C90.5039 162.403 85.7501 164.318 79.6483 162.757L75.5685 161.48C73.8657 160.889 72.5176 160.026 71.5243 158.891C68.6862 155.698 67.6692 149.087 68.4733 139.06C68.9936 132.697 69.5613 127.648 70.1762 123.911C70.9803 119.039 72.0446 115.149 73.369 112.24C74.5989 109.496 76.8693 107.072 80.1804 104.967C81.6704 104.021 84.272 102.72 87.9851 101.065C89.8535 100.261 92.1595 98.3686 94.9029 95.3886C96.9842 93.1418 98.6279 91.096 99.8341 89.2512C100.638 88.0214 102.613 87.0517 105.759 86.3422L113.102 86.0939C114.781 86.5905 115.101 88.8492 114.06 92.8698C113.043 96.7958 111.671 99.3028 109.945 100.391Z" fill="#E73820"/>
<path d="M92.028 137.605L92.2764 127.849L95.6821 139.202C96.8173 143.009 97.3967 145.292 97.4204 146.048C97.4204 148.886 96.5453 152.02 94.7952 155.45C92.3119 160.322 88.8352 162.911 84.3652 163.219C88.0311 159.766 90.3488 154.456 91.3185 147.29C91.6733 144.759 91.9098 141.531 92.028 137.605Z" fill="#C82E19"/>
<path d="M104.304 85.5618C106.906 84.876 109.862 84.8523 113.173 85.4909C114.072 85.6564 114.474 85.9048 114.379 86.2359C114.261 86.567 113.622 86.6734 112.464 86.5552C109.957 86.295 107.556 86.496 105.262 87.1582C102.873 87.8441 101.159 88.8611 100.118 90.2092C97.7765 93.2365 95.9081 95.4714 94.5127 96.9141C92.3369 99.1846 90.2438 100.757 88.2335 101.632L87.3821 102.023C84.0946 103.489 81.635 104.754 80.0031 105.819C77.094 107.782 75.0719 110.005 73.9367 112.488C71.5243 117.786 69.9161 126.655 69.1119 139.095C68.97 141.129 68.8991 142.962 68.8991 144.594C68.8991 150.814 69.8451 155.225 71.7372 157.826C72.8487 159.34 74.8354 160.546 77.6971 161.445L79.7902 162.154C83.8345 163.171 87.2756 162.58 90.1137 160.381C92.3369 158.654 94.087 156.064 95.3642 152.611C96.3102 150.01 96.7832 147.822 96.7832 146.048C96.7832 145.386 95.9199 142.181 94.1935 136.434C90.5749 124.609 88.9312 117.053 89.2623 113.765C89.4515 112.062 89.7471 111.341 90.1492 111.601C90.362 111.743 90.5513 112.051 90.7168 112.524C91.9703 111.105 95.1395 108.787 100.224 105.57C104.411 102.898 107.355 101.136 109.058 100.284C110.099 99.764 110.702 99.5867 110.867 99.7522C111.033 99.9178 110.642 100.45 109.696 101.349L100.721 107.238C95.3523 110.62 92.0885 112.937 90.9297 114.191C90.906 116.036 91.4145 119.335 92.4551 124.089C93.4248 128.417 94.5009 132.508 95.6834 136.363L97.6701 143.033C98.285 145.138 98.5925 146.474 98.5925 147.042C98.5925 148.816 98.013 151.027 96.8541 153.676C95.3642 157.01 93.413 159.624 91.0006 161.516C87.9024 163.928 84.0592 164.543 79.4709 163.361L75.9943 162.651C72.7068 161.634 70.5073 160.156 69.3957 158.217C67.5037 154.858 66.8533 148.697 67.4446 139.734C67.9176 132.662 68.4734 127.104 69.1119 123.06C69.8451 118.377 70.8148 114.711 72.021 112.062C73.2272 109.414 75.4858 107.037 78.7969 104.932C80.4051 103.891 83.1013 102.543 86.8854 100.887L87.7368 100.533C90.2911 99.2556 92.6325 97.2334 94.7611 94.4663L98.557 89.0385C99.9997 87.3593 101.915 86.2004 104.304 85.5618Z" fill="#0D131A"/>
<path d="M94.5831 148.354C95.8839 146.249 96.9127 145.362 97.6695 145.694C98.5682 146.072 99.3723 146.935 100.082 148.283C100.673 149.419 101.122 150.743 101.43 152.257C102.731 158.926 102.814 163.857 101.678 167.05L100.614 169.321C100.165 170.006 99.8099 170.326 99.5497 170.278C99.2423 170.231 98.8875 169.699 98.4854 168.682L97.4921 166.092C96.0967 162.734 94.2993 159.872 92.0998 157.507L91.7805 157.33C91.1892 156.833 91.3193 155.461 92.1707 153.215C92.8329 151.441 93.637 149.821 94.5831 148.354Z" fill="#0D131A"/>
<path d="M92.668 156.124C92.668 155.32 92.9873 154.078 93.6258 152.399C94.3117 150.578 95.0685 149.111 95.8963 148C96.5349 147.172 96.9842 146.829 97.2444 146.971C97.8356 147.231 98.3914 147.893 98.9117 148.958C99.4321 150.069 99.8578 151.476 100.189 153.179C100.733 155.946 100.958 158.784 100.863 161.693C100.768 164.508 100.449 166.187 99.9051 166.731L99.5503 166.979C99.3611 166.956 99.0182 166.317 98.5215 165.064L96.6058 161.09C95.5652 159.364 94.288 157.85 92.7744 156.549C92.7034 156.478 92.668 156.337 92.668 156.124Z" fill="#FFF3C2"/>
<path d="M97.2798 150.128L98.486 154.172C98.8408 155.875 99.0773 157.862 99.1955 160.132C99.3375 162.426 99.3256 164.531 99.1601 166.447L98.5215 165.063L96.6058 161.09C95.5652 159.364 94.288 157.85 92.7744 156.549C92.7034 156.478 92.668 156.336 92.668 156.123C92.668 155.319 92.9873 154.078 93.6258 152.399C94.3117 150.577 95.0685 149.111 95.8963 148L96.4284 147.432C96.4994 147.834 96.7832 148.733 97.2798 150.128Z" fill="#DBD2A9"/>
<path d="M87.7003 155.237C89.4978 156.419 90.5857 158.335 90.9641 160.984L92.3122 169.214L93.8377 177.054C94.1215 178.97 94.015 180.011 93.5184 180.176C92.6197 180.484 90.2191 178.213 86.3168 173.365C82.58 168.729 80.4159 165.607 79.8247 163.999C78.0036 159.127 77.7789 155.887 79.1506 154.279C79.4344 153.924 79.9074 153.699 80.5696 153.605L82.3789 153.64L83.1594 153.747C85.0987 154.007 86.6124 154.503 87.7003 155.237Z" fill="#0D131A"/>
<path d="M91.3894 169.392C92.1935 173.578 92.5956 176.096 92.5956 176.948L92.4891 177.586C91.6377 177.255 89.6511 175.15 86.5292 171.272C83.36 167.322 81.4798 164.543 80.8885 162.935C80.179 160.854 79.8242 159.021 79.8242 157.436C79.8242 156.325 80.0252 155.52 80.4273 155.024C80.8057 154.574 81.397 154.421 82.2011 154.563L83.0525 154.669C84.9209 154.929 86.3045 155.379 87.2032 156.017C88.7169 157.105 89.6629 159.009 90.0413 161.729L91.3894 169.392Z" fill="#FFF3C2"/>
<path d="M88.9781 165.099C88.4578 163.018 88.4105 160.605 88.8362 157.862C89.4038 158.903 89.8059 160.192 90.0424 161.729L91.3905 169.392C92.1946 173.578 92.5966 176.097 92.5966 176.948L92.4902 177.587L92.2419 177.445L90.4326 170.598L88.9781 165.099Z" fill="#DBD2A9"/>
<path d="M138.289 43.8776C138.715 43.9958 139.058 44.3624 139.318 44.9773C139.555 45.5449 139.673 46.219 139.673 46.9994C139.673 47.8272 139.484 48.5367 139.105 49.128C138.751 49.7193 138.313 50.0149 137.793 50.0149C137.272 50.0149 136.823 49.7193 136.445 49.128C136.066 48.5367 135.877 47.8272 135.877 46.9994C135.877 46.4555 135.972 45.9352 136.161 45.4385L138.289 43.8776Z" fill="white"/>
</svg>
