<svg width="227" height="232" viewBox="0 0 227 232" fill="none" xmlns="http://www.w3.org/2000/svg">
<path d="M171.395 142.909C172.568 142.518 173.393 142.685 173.867 143.411L174.747 141.234C176.787 144.164 177.625 150.764 177.262 161.033C176.843 172.725 174.678 183.162 170.767 192.343C165.682 204.174 161.129 210.188 157.106 210.383L155.179 210.593L146.84 210.09C142.538 209.56 139.856 208.96 138.794 208.29L128.696 192.929C128.64 191.561 130.525 188.185 134.353 182.799C137.733 177.999 141.825 172.739 146.63 167.019C151.659 161.019 156.31 155.884 160.584 151.615C165.612 146.564 169.216 143.662 171.395 142.909Z" fill="#0D131A"/>
<path d="M136.74 201.593C140.819 196.514 146.308 192.245 153.208 188.785C160.471 185.157 166.408 183.971 171.017 185.227C170.207 188.324 169.243 191.268 168.126 194.059C165.64 200.365 163.251 204.607 160.96 206.784C159.619 208.039 158.013 208.709 156.141 208.793L155.22 208.876L147.006 208.249C142.816 207.607 140.26 207.007 139.338 206.449C138.919 206.198 138.151 204.802 137.033 202.263L136.74 201.593H136.698V201.551L136.74 201.593Z" fill="#5DC1CF"/>
<path d="M172.903 144.081C174.272 146.062 174.886 151.057 174.747 159.066C174.579 168.051 173.336 176.771 171.017 185.227C166.408 183.971 160.472 185.157 153.208 188.785C146.308 192.245 140.805 196.514 136.698 201.593V201.551C135.553 199.096 134.575 197.282 133.765 196.11C132.508 194.296 131.209 193.208 129.868 192.845V192.761C129.868 191.784 131.321 189.203 134.226 185.017C137.383 180.413 141.42 175.139 146.336 169.195C151.728 162.693 156.672 157.182 161.17 152.661C165.64 148.169 168.95 145.392 171.101 144.332C172.079 143.802 172.679 143.718 172.903 144.081Z" fill="#50A8B4"/>
<path d="M171.981 156.345C173.099 157.656 173.657 158.717 173.657 159.526L173.615 159.861C172.554 164.437 170.906 168.553 168.671 172.209C166.771 175.306 163.894 178.864 160.039 182.883C157.608 185.422 153.753 187.947 148.473 190.459C142.607 193.249 136.601 195.203 130.455 196.319L131.921 207.286C132.508 212.699 132.801 216.732 132.801 219.383C132.801 220.136 132.578 220.945 132.131 221.81C131.852 222.787 131.321 223.485 130.539 223.903C128.444 225.047 124.574 225.94 118.931 226.582C113.344 227.196 109.95 227.154 108.749 226.457C103.888 223.582 98.5524 217.806 92.7418 209.128C86.8195 200.309 82.9224 192.189 81.0507 184.766C78.2292 183.65 75.2401 182.115 72.0834 180.162C69.0105 178.264 66.608 176.492 64.876 174.846C64.1218 178.055 62.7389 180.999 60.7276 183.678C59.7498 184.99 58.828 185.994 57.962 186.692C56.8166 188.087 52.738 188.729 45.7262 188.617L35.5436 187.989C33.5881 187.654 32.1215 187.027 31.1438 186.106C30.0822 185.073 29.4537 183.552 29.2581 181.543C28.9229 178.306 29.0207 175.111 29.5514 171.958L30.2638 166.809L30.7247 163.084C30.8924 162.191 30.8784 160.879 30.6828 159.149L30.3476 156.805C29.314 148.852 29.1045 142.964 29.7191 139.141C30.4733 134.509 32.8758 128.593 36.9264 121.394C41.5358 113.217 48.3381 107.274 57.3334 103.562C62.697 101.358 68.2702 100.102 74.0529 99.795C78.4388 99.5718 86.9731 102.641 99.6559 109.004C107.31 112.827 115.607 117.389 124.546 122.691C135.805 129.361 145.847 135.835 154.675 142.113C163.503 148.392 169.271 153.136 171.981 156.345Z" fill="#0D131A"/>
<path d="M58.4634 104.818C63.6594 102.53 68.8694 101.246 74.0933 100.967C80.4906 100.632 98.6767 110.315 128.652 130.016C143.653 139.895 157.998 149.829 171.686 159.819C170.457 163.893 168.893 167.549 166.993 170.786C164.703 174.665 161.741 178.32 158.11 181.753C154.031 185.576 148.304 188.771 140.929 191.338C135.622 193.208 132.088 194.142 130.328 194.142C129.937 194.142 129.643 193.473 129.448 192.133L129.029 188.492C128.945 187.348 128.596 186.971 127.981 187.361C127.394 187.752 127.213 188.659 127.436 190.082C128.135 193.822 128.945 199.319 129.867 206.574C130.956 215.309 131.333 220.29 130.998 221.517C130.998 221.713 130.677 221.992 130.034 222.355C128.051 223.415 124.433 224.294 119.181 224.992L109.921 225.368C109.055 225.117 107.365 223.736 104.85 221.224C101.778 218.211 98.8443 214.75 96.0507 210.844C87.9215 199.542 83.2702 188.003 82.0969 176.227C81.8455 173.66 81.5103 171.93 81.0912 171.037C80.6442 170.2 80.337 170.507 80.1693 171.958C79.9179 173.855 80.0995 177.344 80.7141 182.422C74.7917 180.162 68.604 175.809 62.1509 169.363C52.5969 159.847 47.2472 149.159 46.1019 137.3C45.9622 135.821 45.7527 134.788 45.4733 134.202C45.194 133.644 44.9565 133.672 44.761 134.286C44.2581 135.932 44.4816 139.448 45.4314 144.834C46.1298 148.629 47.2752 152.131 48.8675 155.34C51.8566 161.256 56.6476 167.367 63.2404 173.674C62.961 175.32 62.3744 177.092 61.4804 178.99C60.5027 181.083 59.3294 182.939 57.9605 184.557C57.4298 185.255 56.2285 185.869 54.3568 186.399C50.6414 187.487 45.4174 187.668 38.685 186.943L36.925 186.608C34.9695 186.273 33.5029 185.603 32.5252 184.599C31.6312 183.678 31.1004 182.394 30.9328 180.748C30.7652 178.711 30.9049 176.297 31.3519 173.507L32.3156 167.102C32.595 164.675 32.6648 162.707 32.5252 161.2C31.6871 152.55 31.3658 146.871 31.5614 144.164C32.0922 136.853 34.5365 129.542 38.8945 122.231C43.5597 114.334 50.0827 108.529 58.4634 104.818Z" fill="#5DC1CF"/>
<path d="M68.3531 168.191C72.739 170.2 76.6779 171.456 80.1698 171.958C79.9184 173.855 80.1 177.344 80.7146 182.422C76.217 180.692 71.1885 177.413 65.6294 172.586C57.6118 165.637 51.9968 157.81 48.7842 149.103C53.0583 157.782 59.5813 164.144 68.3531 168.191Z" fill="#50A8B4"/>
<path d="M63.2411 173.674C62.9618 175.32 62.3751 177.092 61.4812 178.99C60.5034 181.083 59.3301 182.938 57.9613 184.557L56.1175 185.771C54.2459 186.608 51.6898 187.11 48.4492 187.278C52.6116 185.631 54.4554 181.278 53.9805 174.218C53.5614 168.358 51.7456 161.828 48.533 154.629C51.4942 160.824 56.3969 167.172 63.2411 173.674Z" fill="#50A8B4"/>
<path d="M53.9814 106.911C57.641 104.818 61.6218 103.241 65.9239 102.181C68.7734 101.511 71.4971 101.107 74.0951 100.967C80.4923 100.632 98.6784 110.315 128.653 130.016C143.655 139.895 158 149.829 171.688 159.819C170.459 163.893 168.895 167.549 166.995 170.786C164.704 174.665 161.743 178.32 158.111 181.753C154.033 185.576 148.306 188.771 140.931 191.338C135.623 193.208 132.089 194.142 130.329 194.142C129.938 194.142 129.645 193.473 129.45 192.133L129.03 188.492C128.947 187.348 128.597 186.971 127.983 187.362C127.396 187.752 127.215 188.659 127.438 190.082C128.137 193.822 128.947 199.319 129.869 206.574C130.958 215.309 131.335 220.29 131 221.517C131 221.713 130.679 221.992 130.036 222.355L128.276 223.066C128.416 215.113 127.494 208.43 125.511 203.016C122.27 194.142 116.236 187.948 107.408 184.431C105.565 166.461 102.184 152.229 97.2677 141.737C88.3842 122.873 73.9554 111.264 53.9814 106.911Z" fill="#50A8B4"/>
<path d="M39.3975 182.632C39.9283 182.687 40.6546 183.259 41.5765 184.348C42.5542 185.492 43.0152 186.51 42.9593 187.403C42.9034 188.352 42.4984 189.385 41.7441 190.501C40.9898 191.617 40.3613 192.175 39.8584 192.175C39.3556 192.175 38.5315 191.45 37.3861 189.999C36.2408 188.575 35.6681 187.599 35.6681 187.069C35.6402 186.566 36.143 185.701 37.1766 184.473C38.2102 183.218 38.9505 182.604 39.3975 182.632Z" fill="#0D131A"/>
<path d="M41.367 185.52C41.8699 186.301 42.1073 186.887 42.0794 187.278C42.0794 187.696 41.7861 188.408 41.1994 189.413C40.5849 190.389 40.1658 190.878 39.9423 190.878C39.663 190.878 39.0624 190.403 38.1405 189.454C37.1907 188.478 36.7437 187.766 36.7996 187.32C36.8275 186.901 37.4002 185.91 38.5176 184.348C38.8249 183.901 39.0903 183.65 39.3138 183.594C39.5093 183.566 39.7747 183.692 40.1099 183.971L41.367 185.52Z" fill="white"/>
<path d="M46.1463 188.324C46.0904 187.878 46.5374 186.915 47.4872 185.436C48.4649 183.901 49.2052 183.106 49.708 183.05C50.2388 183.022 51.0071 183.664 52.0127 184.976C53.0184 186.315 53.4514 187.278 53.3117 187.864L52.5575 190.333C52.0826 191.422 51.5658 192.119 51.0071 192.426C50.4483 192.733 49.4985 192.231 48.1576 190.919C46.9005 189.691 46.2301 188.826 46.1463 188.324Z" fill="#0D131A"/>
<path d="M49.7078 184.264C49.9592 184.18 50.462 184.641 51.2163 185.645C51.9705 186.678 52.3896 187.487 52.4734 188.073L51.8029 189.915C51.328 190.891 50.9649 191.422 50.7134 191.505C50.4341 191.589 49.7636 191.17 48.7021 190.25C47.6685 189.329 47.1237 188.687 47.0679 188.324C47.0399 187.961 47.417 187.208 48.1992 186.064C48.9535 184.976 49.4563 184.376 49.7078 184.264Z" fill="white"/>
<path d="M55.1539 187.068C55.1539 186.427 55.4192 185.534 55.95 184.39C56.6205 182.994 57.3747 182.101 58.2128 181.711C59.1067 181.264 60.0286 182.157 60.9784 184.39C61.9003 186.566 62.1936 188.282 61.8584 189.538C61.6908 190.236 60.5175 190.124 58.3385 189.203C56.1875 188.254 55.1259 187.543 55.1539 187.068Z" fill="#0D131A"/>
<path d="M58.1293 182.673C58.5204 182.534 59.0931 183.427 59.8474 185.352C60.6016 187.222 60.9368 188.282 60.853 188.534C60.7972 188.701 60.0708 188.52 58.6741 187.989C57.2214 187.459 56.4392 187.027 56.3275 186.692C56.2157 186.301 56.3833 185.576 56.8303 184.515C57.3052 183.455 57.7382 182.841 58.1293 182.673Z" fill="white"/>
<path d="M109.21 225.703C109.321 224.894 109.754 224.043 110.509 223.15C111.263 222.285 111.905 221.824 112.436 221.769C113.107 221.741 113.847 222.145 114.657 222.983C115.383 223.764 115.844 224.531 116.04 225.285C116.152 225.731 115.858 226.833 115.16 228.591C114.434 230.377 113.889 231.228 113.526 231.145C113.051 231.033 112.213 230.224 111.011 228.717C109.754 227.182 109.154 226.178 109.21 225.703Z" fill="#0D131A"/>
<path d="M110.466 225.954C110.522 225.396 110.731 224.81 111.095 224.196C111.486 223.499 111.891 223.094 112.31 222.982C112.757 222.843 113.343 223.178 114.07 223.987C114.74 224.713 115.089 225.285 115.117 225.703L114.489 227.796C114.07 228.801 113.749 229.359 113.525 229.47C113.274 229.582 112.701 229.149 111.807 228.173C110.885 227.14 110.438 226.401 110.466 225.954Z" fill="white"/>
<path d="M121.697 220.555C122.284 220.499 123.206 220.89 124.463 221.727C125.832 222.62 126.502 223.429 126.474 224.154L125.929 227.629C125.566 229.163 125.203 229.973 124.84 230.056C124.197 230.224 123.038 229.722 121.362 228.55C119.658 227.378 118.75 226.429 118.638 225.703C118.582 225.173 118.959 224.196 119.77 222.773C120.608 221.322 121.25 220.583 121.697 220.555Z" fill="#0D131A"/>
<path d="M122.157 221.852C122.409 221.796 122.968 222.062 123.834 222.648C124.727 223.234 125.202 223.68 125.258 223.987L125.049 226.457C124.825 227.796 124.616 228.522 124.42 228.633C124.169 228.773 123.359 228.34 121.99 227.336C120.621 226.303 119.937 225.592 119.937 225.201C119.937 224.81 120.244 224.154 120.858 223.234C121.473 222.368 121.906 221.908 122.157 221.852Z" fill="white"/>
<path d="M130.16 217.583C131.166 217.192 132.395 218.294 133.848 220.89C135.301 223.485 135.72 225.229 135.105 226.122C134.937 226.373 133.918 226.247 132.046 225.745L128.4 224.531L127.395 223.82C127.255 223.569 127.255 223.108 127.395 222.438C127.534 221.685 127.912 220.75 128.526 219.634C129.169 218.434 129.713 217.75 130.16 217.583Z" fill="#0D131A"/>
<path d="M130.664 218.797C131.641 219.355 132.507 220.443 133.262 222.062C133.904 223.485 134.17 224.406 134.058 224.824C133.974 225.075 133.108 224.922 131.46 224.364C129.84 223.806 128.932 223.415 128.736 223.192C128.541 222.941 128.708 222.09 129.239 220.638C129.77 219.159 130.245 218.546 130.664 218.797Z" fill="white"/>
<path d="M136.865 204.984C136.921 204.733 137.41 204.384 138.332 203.937C139.338 203.435 140.078 203.295 140.553 203.519C141.111 203.77 141.67 204.481 142.229 205.653C142.816 206.825 142.983 207.593 142.732 207.956L140.762 209.839C139.645 210.704 138.835 211.095 138.332 211.011C137.829 210.9 137.424 209.993 137.117 208.29C136.809 206.728 136.726 205.626 136.865 204.984Z" fill="#0D131A"/>
<path d="M140.051 204.272C140.33 204.328 140.68 204.774 141.099 205.611C141.49 206.449 141.615 206.993 141.476 207.244L140.093 208.793C139.283 209.574 138.766 209.965 138.542 209.965C138.347 209.965 138.165 209.295 137.998 207.956L137.83 205.611C137.858 205.388 138.165 205.095 138.752 204.732C139.367 204.37 139.8 204.216 140.051 204.272Z" fill="white"/>
<path d="M147.468 206.825C148.389 206.016 149.144 205.57 149.73 205.486C150.345 205.374 151.127 205.877 152.077 206.993C152.971 208.053 153.418 208.807 153.418 209.253C153.418 209.644 152.873 210.537 151.784 211.932C150.61 213.439 149.702 214.164 149.06 214.109C148.39 214.053 147.635 213.188 146.797 211.513C145.987 209.895 145.722 208.862 146.001 208.416C146.224 208.053 146.713 207.523 147.468 206.825Z" fill="#0D131A"/>
<path d="M149.856 206.365C150.191 206.477 150.652 206.839 151.238 207.453C151.937 208.151 152.244 208.681 152.16 209.044L150.694 211.472C149.772 212.672 149.199 213.258 148.976 213.23C148.696 213.23 148.277 212.574 147.719 211.262C147.132 209.951 146.922 209.086 147.09 208.667C147.258 208.221 147.705 207.704 148.431 207.118C149.157 206.505 149.632 206.253 149.856 206.365Z" fill="white"/>
<path d="M158.277 206.993C159.311 205.765 160.191 205.179 160.917 205.235C161.839 205.318 162.384 206.351 162.552 208.332C162.747 210.341 162.328 211.918 161.294 213.062C160.652 213.76 159.744 213.425 158.571 212.058C157.481 210.774 156.937 209.741 156.937 208.96C156.937 208.737 157.383 208.081 158.277 206.993Z" fill="#0D131A"/>
<path d="M159.41 207.286C160.137 206.56 160.612 206.295 160.835 206.491C161.059 206.686 161.282 207.104 161.505 207.746L161.799 209.337L161.422 210.676C161.17 211.486 160.919 212.002 160.667 212.225C160.416 212.448 159.927 212.03 159.201 210.969C158.558 210.021 158.195 209.337 158.111 208.918C158.363 208.472 158.796 207.928 159.41 207.286Z" fill="white"/>
<path d="M69.4431 48.31L79.1228 53.7934L102.212 78.9917L69.0241 84.5588L55.8664 79.5359C47.1226 76.1315 42.8065 74.3037 42.9183 74.0525C43.03 73.8572 44.7341 72.8945 48.0305 71.1643L56.2436 66.6437C54.0925 67.3692 51.1174 68.5971 47.3181 70.3272L42.2897 72.5456C41.9824 72.5177 40.3901 71.3318 37.5127 68.9877C34.6074 66.6158 33.2526 65.3461 33.4481 65.1787L38.0156 62.7091C41.1444 60.9789 43.3652 59.5 44.6782 58.2721C42.2478 58.9419 39.2587 60.0441 35.7109 61.5789L30.9758 63.5881C30.6406 63.5602 29.2997 62.5416 26.9531 60.5325C24.6065 58.4954 23.517 57.3792 23.6846 57.1838C23.8243 57.0164 25.0255 56.4164 27.2883 55.384L33.3643 52.5376L25.696 53.9608L20.4161 54.7979C19.9412 54.77 19.2009 54.4352 18.1953 53.7934C17.2175 53.1236 16.7147 52.6632 16.6867 52.412C16.6588 52.2167 17.6086 51.6447 19.5362 50.6959L24.2293 48.3937L18.6562 48.3518C16.3096 48.2402 15.248 47.9751 15.4715 47.5565C15.695 47.1659 16.7985 46.259 18.7819 44.8358L21.8409 42.7429L24.0198 43.2033L22.5113 42.701C21.7012 42.3941 21.4078 42.1848 21.6313 42.0732L25.0255 40.943C27.0089 40.3291 28.0984 40.0361 28.294 40.064L34.5376 43.5801L32.4843 41.1942L30.9339 39.185C30.7383 38.7385 32.4005 38.3897 35.9204 38.1385L41.6193 38.3478L44.8458 43.8731L44.2592 40.7337C44.0636 39.5896 44.0217 38.9618 44.1335 38.8501L46.2286 39.0176C47.4578 39.2687 48.1981 39.478 48.4495 39.6454C48.6451 39.8129 49.4552 41.1384 50.8799 43.6219L49.7066 40.6082C49.2597 39.492 49.092 38.8501 49.2038 38.6827C49.3155 38.4874 51.3688 39.2269 55.3636 40.9012C59.3025 42.5755 61.3558 43.5522 61.5234 43.8312L63.1157 48.017L62.6967 46.0915L62.4872 44.8358C62.571 44.7242 64.8896 45.8822 69.4431 48.31Z" fill="#0D131A"/>
<path d="M100.158 78.2801L69.1492 83.4705L45.3899 73.9269C53.4354 69.5737 58.1844 66.825 59.6371 65.6809L61.3551 64.3415L59.218 64.7601C57.7933 65.1228 54.8321 66.1972 50.3345 67.9831C46.2559 69.6295 43.63 70.7457 42.4567 71.3317L35.3331 65.3879L40.9482 62.2486C43.7976 60.4906 45.8648 58.9418 47.1499 57.6024L48.5746 56.2211C48.6025 56.0815 47.7784 56.2769 46.1023 56.8071L37.8054 59.7371L31.1428 62.3323L25.5696 57.4768L31.2266 54.756L36.9673 51.8679L38.5597 51.0726C39.2581 50.6261 38.6155 50.5703 36.6321 50.9051L20.625 53.7096L18.7393 52.4957L26.701 48.3099L28 47.8077C28.5587 47.4449 28.0279 47.2775 26.4077 47.3054L21.3374 47.4309L16.9375 47.3891C18.0829 46.2171 19.8149 45.0171 22.1335 43.7893L29.6342 45.7566L31.7713 46.5938C32.8608 46.9007 32.5116 46.5101 30.7237 45.4218C28.9638 44.3335 27.6229 43.58 26.701 43.1614L24.5639 42.2824L28.1676 41.1941L36.6321 45.9241C36.8556 45.9799 36.7997 45.7148 36.4645 45.1288C35.2633 43.008 34.0341 41.1802 32.777 39.6454L41.2834 39.3524C42.9036 42.5615 44.2725 45.0311 45.3899 46.7612C46.0045 47.6821 46.3677 47.989 46.4794 47.6821V46.9705C45.809 43.3986 45.4039 41.0546 45.2642 39.9384L47.9041 40.5663L53.6449 50.361C54.1757 50.9749 54.1757 50.3331 53.6449 48.4355L52.0526 43.4544L50.9212 40.5663L60.6847 44.6265L64.7912 55.3839L65.2102 53.6259L63.8693 46.3426C65.294 46.9565 67.6546 48.1983 70.951 50.068C74.1077 51.8818 76.6219 53.4026 78.4936 54.6305L100.158 78.2801Z" fill="#00A63C"/>
<path d="M75.3932 76.9407L71.7476 68.9877L87.7966 76.271L125.761 90.4189L125.258 91.0468C122.269 94.7303 119.126 98.3579 115.83 101.93C109.321 108.99 104.6 113.12 101.667 114.32L101.457 114.403L101.248 114.32C98.2864 113.231 91.7914 112.729 81.7625 112.813H67.5572C67.3058 112.422 66.8449 111.306 66.1744 109.464L64.205 103.688L64.9592 112.897L64.8754 114.11C64.7916 114.362 64.5821 114.529 64.2469 114.613C53.2123 116.064 47.6112 116.594 47.4436 116.203C47.3319 115.952 47.29 114.557 47.3179 112.018L47.4436 106.199C46.8011 107.762 46.382 110.05 46.1865 113.064L45.9351 117.459C45.7675 117.738 42.8622 118.673 37.2192 120.264C31.5762 121.826 28.6988 122.524 28.5871 122.356C28.5033 122.189 28.4474 121.031 28.4195 118.882L28.5033 114.613L26.4081 120.556C25.7097 122.594 25.2627 123.668 25.0672 123.78L18.2369 125.203L11.7419 126.082L14.0047 121.687L17.4827 115.115C16.5608 115.729 13.5717 118.352 8.51533 122.984C3.85009 127.254 1.41969 129.361 1.22414 129.305C0.944782 129.221 0.916847 127.77 1.14033 124.952C1.33588 122.189 1.53143 120.668 1.72698 120.389C2.00634 119.998 4.99545 117.906 10.6943 114.11C9.68863 114.417 7.53759 115.227 4.24118 116.538C1.50349 117.626 0.0927462 118.115 0.0089394 118.003C-0.102803 117.808 0.83304 115.924 2.81647 112.352C4.77196 108.753 5.93129 106.827 6.29445 106.576C6.54587 106.381 7.90075 105.878 10.3591 105.069L17.1055 102.809L11.5324 103.311L8.43153 103.395C8.31978 103.116 9.28356 101.525 11.3229 98.623C13.4739 95.5256 15.0243 93.8094 15.9741 93.4745C17.1474 93.0001 21.9384 92.442 30.347 91.8002C29.6486 91.5212 27.8468 91.0049 24.9415 90.2515C22.5949 89.6655 21.4216 89.2748 21.4216 89.0795C21.4216 88.8283 23.1815 87.3354 26.7014 84.6007C30.1934 81.8939 32.1349 80.5126 32.526 80.4568L35.7945 80.8753L41.4514 81.9636L37.4706 80.373C36.0459 79.8149 35.4313 79.508 35.6268 79.4522L41.3257 76.4384C44.9573 74.485 46.9128 73.4665 47.1922 73.3828C47.4715 73.2712 48.8264 73.6479 51.2568 74.513L58.2547 76.9826L54.4415 75.0571C53.0168 74.3595 52.486 73.913 52.8491 73.7177C53.2961 73.4665 55.6567 72.9503 59.9308 72.1689L66.8868 71.0806C67.4176 71.1643 70.253 73.1177 75.3932 76.9407Z" fill="#0D131A"/>
<path d="M74.0927 71.3317L87.3342 77.3593L123.832 90.9212C120.396 95.079 117.072 98.8741 113.859 102.306C108.132 108.39 103.97 112.004 101.372 113.148C98.1872 112.059 92.1251 111.473 83.1857 111.39C78.0456 111.334 72.9613 111.418 67.9329 111.641L63.7006 98.4556C63.3096 97.2556 63.0023 96.6696 62.7788 96.6975C62.5274 96.6975 62.4575 97.3533 62.5693 98.6649C63.1838 104.441 63.533 109.38 63.6168 113.483L48.5735 114.906C48.9926 108.571 48.9926 104.413 48.5735 102.432C48.3221 101.121 47.5958 102.837 46.3945 107.581C45.2212 112.157 44.6206 115.087 44.5927 116.371L29.5075 120.64L29.4656 119.008C29.4656 117.808 29.5633 116.399 29.7589 114.78C29.9824 113.106 30.0941 111.599 30.0941 110.259C30.122 108.334 30.0662 107.385 29.9265 107.413C29.8427 107.441 29.5214 108.292 28.9627 109.966L24.2276 122.733L13.9194 124.533L19.283 113.985L20.4982 112.603C20.9731 111.906 20.3306 112.101 18.5707 113.19C16.6152 114.417 14.6318 115.882 12.6204 117.585L5.53871 123.947L2.39595 126.835C2.45182 125.468 2.60547 123.445 2.85689 120.766L14.4222 112.98L15.6793 112.143C16.1822 111.641 15.6095 111.571 13.9613 111.934C10.7208 112.631 6.78184 113.887 2.14453 115.701C3.31783 113.413 4.95206 110.706 7.04723 107.581C14.6737 104.818 19.4925 103.13 21.5039 102.516C23.0683 102.041 23.8645 101.72 23.8924 101.553L21.2525 101.386L10.5671 102.097C11.6287 100.311 12.6623 98.7346 13.668 97.3673C14.8971 95.7209 15.7911 94.786 16.3498 94.5628L24.4791 93.5163L32.9016 92.8048L34.7873 92.5536C34.899 92.4699 34.3264 92.1769 33.0693 91.6746C28.851 89.9166 25.7501 88.7864 23.7667 88.2841L28.8789 84.3914L32.9854 81.545L38.7262 82.6752L46.3526 84.0565L48.8249 84.2239C48.9087 84.1123 48.1964 83.6937 46.6879 82.9682L38.3072 79.3266L47.2745 74.6385L65.1673 80.3311C66.2847 80.5265 65.6282 79.9544 63.1978 78.615L58.1275 75.6849L56.0323 74.3036L66.6339 72.2945L78.1573 80.2893L74.0927 71.3317Z" fill="#00A63C"/>
<path d="M78.1594 80.2893L74.0948 71.3317L87.3363 77.3593L123.834 90.9212C120.398 95.079 117.074 98.8742 113.861 102.306C108.134 108.39 103.972 112.004 101.374 113.148C99.3626 112.45 96.1919 111.962 91.8619 111.683C92.1692 106.213 91.4708 101.776 89.7667 98.3719C87.6436 94.0466 83.8443 91.0467 78.369 89.3724C78.369 87.0005 77.6287 84.5448 76.1481 82.0055C75.0586 80.1916 73.3126 77.9453 70.9102 75.2664L78.1594 80.2893Z" fill="#009233"/>
<path d="M222.096 56.3885C225.309 58.0349 226.943 58.9698 226.999 59.193C227.055 59.3604 225.462 60.0441 222.222 61.244L214.553 64.0485L221.928 64.0066L225.616 64.3415C225.7 64.481 224.554 65.7228 222.18 68.0668L218.199 71.7503L213.045 71.0806L204.748 69.7412L212.039 72.7549C214.833 73.899 216.243 74.5269 216.271 74.6385L210.824 79.1592C207.136 82.0055 205.167 83.4007 204.916 83.3449L199.007 79.6196C194.901 77.0802 191.842 75.4617 189.83 74.7641C197.205 79.7312 200.823 82.3962 200.683 82.7589C200.6 83.0101 198.602 83.9868 194.691 85.689C190.864 87.3354 188.783 88.1725 188.448 88.2004L182.036 84.0565C177.427 81.0707 173.991 79.215 171.728 78.4894C173.348 79.8568 175.807 82.2985 179.103 85.8145C182.372 89.3027 183.936 91.1444 183.796 91.3398C183.629 91.5351 182.791 91.8979 181.282 92.4281L178.6 93.1397L175.667 90.4189C173.684 88.5493 172.189 87.3912 171.183 86.9447L174.745 91.0468C176.449 92.9722 177.273 93.9908 177.217 94.1024C177.106 94.3256 175.849 95.2186 173.446 96.7813C170.96 98.3998 169.605 99.1532 169.381 99.0416L165.987 95.7767C163.641 93.5722 161.713 92.149 160.205 91.5072L164.06 96.4883C166.183 99.0277 167.189 100.339 167.077 100.423L150.986 105.571L121.276 95.6093L132.842 67.5646L132.926 67.4808C134.462 65.9461 138.359 63.4346 144.617 59.9464C150.707 56.5699 153.891 55.0212 154.171 55.3002C154.366 55.4956 154.031 56.835 153.165 59.3186L151.237 64.9275L154.212 58.2303C155.106 56.1095 155.665 54.9654 155.889 54.7979C156.308 54.5189 158.626 53.7794 162.845 52.5795C167.091 51.3795 169.228 50.9052 169.256 51.1563L167.622 54.6724C166.309 57.1838 165.471 58.9419 165.107 59.9464L168.837 54.2538C170.206 52.1888 171.002 51.0865 171.225 50.947C171.533 50.7517 173.083 50.4587 175.877 50.068L180.151 49.6494L176.882 57.142L180.947 52.4958L183.629 49.6076L188.699 49.3146C191.828 49.2029 193.448 49.2169 193.56 49.3564C193.671 49.4959 193.476 50.3471 192.973 51.9097L191.506 55.7188C196.144 51.8679 199.175 49.5936 200.6 48.896L200.683 48.8541H200.809C202.01 48.8541 204.469 49.3285 208.184 50.2773C211.76 51.1703 213.548 51.7144 213.548 51.9097L211.494 54.5049L208.058 58.4396L213.212 55.6351C215.28 54.5189 216.453 53.9468 216.732 53.9189C217.096 53.891 218.883 54.7142 222.096 56.3885Z" fill="#0D131A"/>
<path d="M208.855 56.0955C207.235 58.1047 206.132 59.3464 205.545 59.8208C204.763 60.4627 204.372 60.8533 204.372 60.9929C204.4 61.1882 205.014 61.0626 206.216 60.6161C207.892 59.9464 211.398 58.1047 216.733 55.0909L224.444 59.0674L218.326 61.4951C214.945 62.8067 212.739 63.588 211.705 63.8392L208.814 64.4671C208.339 64.6066 208.73 64.7182 209.987 64.8019L223.27 65.2205L217.865 70.3271L211.034 69.49L200.894 68.1087C198.882 67.8575 198.226 67.9412 198.924 68.3598L200.601 69.0714C209.456 72.6991 213.968 74.6385 214.135 74.8896C214.247 75.0571 212.78 76.257 209.735 78.4894L204.958 81.7125C194.483 76.0198 188.49 73.1037 186.982 72.9642L185.012 72.8386C184.929 72.9223 185.487 73.2851 186.689 73.9269L193.561 78.4475C196.829 80.7358 198.477 82.0194 198.505 82.2985C198.533 82.4938 197.081 83.2472 194.147 84.5588L188.532 86.9865C179.984 80.7916 173.81 77.443 170.011 76.9407C167.553 76.6337 166.561 76.6337 167.036 76.9407L169.466 78.029C170.221 78.5034 171.994 80.1079 174.788 82.8426C177.917 85.9122 180.291 88.4934 181.912 90.5863C180.99 90.8374 179.97 91.2421 178.853 91.8002C178.266 91.1584 176.911 90.084 174.788 88.5771C172.637 87.0423 171.059 86.0238 170.053 85.5215C169.131 85.075 168.684 84.9216 168.712 85.0611L169.508 86.2331L172.316 89.8747L175.626 93.8931L169.592 97.7021L165.276 93.9768C162.873 92.0792 160.988 90.8095 159.619 90.1677C158.669 89.7212 158.18 89.5817 158.152 89.7491L158.781 91.1305C159.116 91.8281 160.024 93.1954 161.505 95.2325L165.234 99.9206L150.987 104.483L122.66 94.9814L133.723 68.1505C135.706 66.2251 141.95 62.6114 152.453 57.3094L150.777 63.4206L149.185 68.8621C148.738 70.1179 148.556 70.8573 148.64 71.0806C148.752 71.3317 149.255 70.676 150.149 69.1133L154.004 61.537L156.77 55.4258L167.12 52.4539C165.946 54.5747 164.522 58.2023 162.846 63.3369C162.259 65.0391 161.993 65.946 162.049 66.0576L163.767 63.7555C165.22 61.4393 167.916 57.4908 171.855 51.9097L178.936 50.9051C177.568 52.8306 176.227 55.6769 174.914 59.4441C174.495 60.6719 174.341 61.2998 174.453 61.3277L175.794 59.9883L184.132 50.654L192.555 50.4028L191.214 53.5422L189.328 57.5605L188.574 59.4441L190.125 58.2302L195.321 54.0026C198.003 51.826 199.874 50.4586 200.936 49.9005C202.416 49.9564 206.006 50.8075 211.705 52.4539L208.855 56.0955Z" fill="#00A63C"/>
<path d="M140.721 63.5043C143.933 68.4715 146.21 72.6433 147.551 76.0198C156.434 76.2989 163.348 78.0011 168.293 81.1265C169.913 82.1311 171.911 83.6798 174.285 85.7727L180.613 91.0468L178.853 91.8002C178.266 91.1584 176.911 90.084 174.788 88.5771C172.637 87.0424 171.059 86.0238 170.053 85.5215C169.131 85.0751 168.684 84.9216 168.712 85.0611L169.508 86.2331L172.316 89.8747L175.626 93.8931L169.592 97.7021L165.276 93.9768C162.873 92.0793 160.988 90.8096 159.619 90.1677C158.669 89.7213 158.18 89.5817 158.152 89.7492L158.781 91.1305C159.116 91.8281 160.024 93.1955 161.505 95.2325L165.234 99.9206L150.987 104.483L122.66 94.9814L133.723 68.1506C134.672 67.2576 137.005 65.7088 140.721 63.5043Z" fill="#009233"/>
<path d="M95.675 96.0278L87.2943 95.8604C82.5452 95.7488 80.3523 95.5395 80.7155 95.2325L88.7609 89.0794L75.8547 85.0192L74.0947 84.3076L76.0223 83.9728L95.675 85.0192L113.568 95.7348L101.751 99.2509C93.929 101.511 90.1437 102.446 90.3952 102.055L93.0351 99.0834L95.675 96.0278Z" fill="#0D131A"/>
<path d="M90.1847 89.2887L91.2322 88.6609L90.1847 87.9911C89.598 87.7121 87.7263 87.1958 84.5696 86.4424L80.0859 85.2704L87.6286 85.5215L95.3807 86.0657L110.885 95.3581C100.633 98.4556 95.2689 99.8648 94.794 99.5857C94.5705 99.4462 94.9756 98.7207 96.0092 97.4091C97.0708 96.0418 97.5457 95.2604 97.4339 95.0651L90.5199 94.5628L83.6058 94.3117C83.4661 94.228 84.3741 93.4606 86.3295 92.0095L90.1847 89.2887Z" fill="#00A63C"/>
<path d="M121.193 3.56398C122.757 2.95007 123.651 2.93612 123.875 3.52213C123.959 3.80118 123.833 4.41509 123.498 5.36387C122.911 7.26142 122.604 8.82411 122.576 10.0519L125.174 7.54047C126.235 6.53589 127.046 5.93593 127.604 5.74059L129.239 5.65687C129.574 5.88012 129.574 6.3545 129.239 7.08004C128.512 8.64273 128.107 10.7356 128.023 13.3587C127.912 17.2096 128.875 20.3629 130.915 22.8186L131.334 23.3627L130.747 23.6976C127.115 25.7068 123.4 27.4787 119.601 29.0135L114.949 30.6878L114.489 30.8134L105.396 14.1959L107.994 9.04735C109.893 5.41968 111.22 3.06169 111.974 1.97339C112.896 0.68975 113.637 0.0618831 114.195 0.0897883C114.754 0.145599 114.963 0.801371 114.824 2.0571C114.6 4.68019 114.558 6.45217 114.698 7.37304L117.464 5.5313C118.805 4.66624 120.048 4.01047 121.193 3.56398Z" fill="#0D131A"/>
<path d="M126.641 13.2331C126.641 17.0841 127.619 20.349 129.575 23.0279C124.379 25.9021 119.546 28.0368 115.076 29.4321L106.737 14.2377C110.844 6.5638 112.911 3.0896 112.939 3.81514L112.897 6.3266C112.897 7.55443 112.981 8.36368 113.149 8.75435L113.526 9.59151L114.573 8.79621C115.244 8.2102 116.613 7.37305 118.68 6.28475C120.803 5.16854 121.837 4.77787 121.781 5.11273L121.32 7.79163L120.984 10.9728C120.984 12.5913 121.445 12.8704 122.367 11.81C122.898 11.1961 123.904 10.2752 125.384 9.04736C126.865 7.81953 127.521 7.3591 127.354 7.66605C127.186 8.00091 127.033 8.72645 126.893 9.84266C126.725 11.0426 126.641 12.1727 126.641 13.2331Z" fill="#C94772"/>
<path d="M106.654 13.568C107.296 13.3448 107.757 13.4424 108.036 13.861L110.299 16.9585C111.696 19.4421 112.394 22.0372 112.394 24.744C112.394 27.0323 111.919 29.2507 110.97 31.3994C110.299 32.9342 109.517 35.6968 108.623 39.6873L106.067 52.0353C103.972 62.8067 102.324 70.369 101.122 74.7222C99.1389 81.9218 97.1554 86.0378 95.172 87.0703L92.9511 87.1121L90.9398 86.1913C86.051 83.9868 82.601 81.8102 80.5896 79.6615C77.2653 76.0059 75.2819 70.6341 74.6393 63.5462C73.9968 56.3746 78.4945 46.231 88.1322 33.1156C91.7639 28.1485 95.4514 23.7115 99.1947 19.8048C102.77 16.0934 105.257 14.0145 106.654 13.568Z" fill="#0D131A"/>
<path d="M107.532 39.185L104.934 51.826C102.951 61.9277 101.386 69.1691 100.241 73.5502C98.2577 80.973 96.386 85.1309 94.6261 86.0238C94.235 86.2192 93.8439 86.2192 93.4528 86.0238L91.3995 85.1029C86.7063 83.038 83.4099 80.959 81.5103 78.8661C78.3256 75.378 76.426 70.2295 75.8114 63.4206L75.7695 62.2486C75.7695 56.528 78.9263 48.8402 85.2397 39.185C90.4078 31.3157 95.8971 24.5487 101.708 18.8839C103.216 17.405 104.501 16.2888 105.563 15.5353L107.155 14.6144L107.197 14.6563L109.292 17.5026C110.605 19.7629 111.262 22.1488 111.262 24.6603C111.262 26.7253 110.801 28.8182 109.879 30.939C109.181 32.5017 108.398 35.2503 107.532 39.185Z" fill="#0D131A"/>
<path d="M141.852 34.2457C154.283 51.8539 153.361 68.2761 139.086 83.5123C135.315 87.5586 130.58 90.4328 124.881 92.135C120.188 93.5582 115.397 94.0744 110.508 93.6838C106.15 93.321 101.666 92.2327 97.0569 90.4189C93.1738 88.912 90.7434 87.6144 89.7657 86.5261C82.1672 83.3449 76.0772 78.7824 71.4958 72.8386C67.5848 67.7598 65.336 62.5555 64.7493 57.2256C63.7995 48.8262 67.4591 40.2314 75.728 31.4412C80.3095 26.502 85.4217 22.2883 91.0647 18.8002C93.8303 17.098 95.9674 15.2283 97.4759 13.1912C98.7889 11.3774 99.4454 9.68915 99.4454 8.12646L99.3615 5.82428C99.2498 5.29408 98.9984 4.76388 98.6073 4.23368C98.1603 3.61977 98.0765 3.21515 98.3559 3.01981C98.6632 2.82447 99.2917 2.95005 100.242 3.39653C101.638 4.03835 102.77 4.98712 103.636 6.24286L105.396 9.42405L106.066 6.87072C106.457 5.75452 106.904 5.46151 107.407 5.99171C108.301 6.94049 109.279 10.5682 110.34 16.8747L110.969 14.0703C111.108 13.6796 111.653 14.2237 112.603 15.7027C114.307 18.4095 115.452 20.4326 116.039 21.7721C116.793 19.5397 117.995 17.1119 119.643 14.4888C120.313 13.4284 120.858 12.8703 121.277 12.8145C121.668 12.7866 121.836 13.2471 121.78 14.1958C121.724 15.619 122.003 17.3491 122.618 19.3862C123.065 18.1863 123.819 16.8468 124.881 15.3679C125.886 13.9726 126.878 12.8424 127.856 11.9774C128.834 11.1123 129.755 10.6379 130.621 10.5542C131.487 10.4426 131.739 10.7775 131.376 11.5588L130.37 13.9865C130.063 15.019 129.867 16.2608 129.783 17.7119C130.733 16.4003 131.543 15.4376 132.214 14.8237C132.689 14.3772 133.485 13.7773 134.602 13.0238C137.144 11.2937 138.038 11.3356 137.284 13.1494C135.552 17.1119 134.868 20.1257 135.231 22.1907C135.706 24.6742 137.913 28.6926 141.852 34.2457Z" fill="#0D131A"/>
<path d="M102.295 27.3392C96.6801 32.5296 92.8669 36.1154 90.8556 38.0967C82.5587 46.2171 78.4941 54.9793 78.6617 64.3834C78.7455 69.2947 79.7512 73.5781 81.6787 77.2337C82.5447 78.7964 83.9136 80.6242 85.7852 82.7171C73.298 74.5408 67.0125 65.4856 66.9287 55.5514V55.3839C66.9287 48.017 70.3508 40.4407 77.195 32.6552C82.0558 27.1299 87.2798 22.7209 92.8669 19.4281C97.7836 16.526 100.549 13.2052 101.164 9.46595L101.248 6.57776C101.248 5.88013 101.359 5.65689 101.583 5.90804C102.672 7.13587 103.566 8.34974 104.265 9.54967C104.544 9.99615 104.851 10.8054 105.187 11.9774C105.382 12.675 105.55 12.8285 105.689 12.4379L106.192 9.84267C106.416 8.72646 106.639 8.27998 106.863 8.50322C107.505 9.14504 108.245 11.3496 109.084 15.1168L109.209 16.4143C109.209 19.0095 106.905 22.6511 102.295 27.3392Z" fill="#E85382"/>
<path d="M102.84 32.7389C96.2475 39.7152 92.155 44.3335 90.5626 46.5938C85.8695 53.2352 83.5229 59.9046 83.5229 66.6018C83.5229 70.6481 85.0314 76.1593 88.0484 83.1356C86.0929 81.7125 84.1375 78.6848 82.182 74.0525C81.0645 71.4015 80.5617 68.5273 80.6734 65.4298C80.869 60.6859 81.9026 56.1513 83.7743 51.826C85.5063 47.8077 87.8669 44.1521 90.856 40.8593C92.7835 38.7664 96.3872 35.2503 101.667 30.3111C106.193 25.6789 108.944 21.6466 109.922 18.2142C110.173 19.3025 110.062 20.6559 109.587 22.2744C108.637 25.4835 106.388 28.9717 102.84 32.7389Z" fill="#C94772"/>
<path d="M137.745 82.5915C134.17 86.3866 129.616 88.9678 124.085 90.3352C119.895 91.3956 115.285 91.7165 110.257 91.2979C105.564 90.9072 101.024 89.9864 96.6382 88.5353C93.0904 87.3354 91.079 86.4006 90.6041 85.7308L90.7299 85.7727L89.9337 84.3077C86.8887 78.6987 85.3662 73.1316 85.3662 67.6064C85.3662 60.965 87.5592 54.2677 91.945 47.5147C94.4034 43.7196 98.3144 39.0594 103.678 33.5342C105.131 31.9994 106.905 29.5158 109 26.0835C111.486 21.9256 112.478 19.1909 111.975 17.8794C112.45 18.3538 113.036 19.2049 113.735 20.4327C114.517 21.8 115.215 22.8325 115.83 23.5302C116.64 24.451 117.129 24.772 117.297 24.4929L117.422 22.693C117.45 21.9396 117.827 20.8792 118.554 19.5118C119.168 18.2561 119.909 17.0283 120.775 15.8283C121.026 18.284 121.515 20.1676 122.241 21.4791L122.954 22.3582L123.331 21.1861C123.75 20.0978 124.378 18.8142 125.216 17.3352C126.446 15.2423 127.577 13.7494 128.611 12.8564L129.7 12.103C129.365 12.8843 129.099 13.9726 128.904 15.3679C128.68 16.6794 128.569 17.9212 128.569 19.0932C128.597 20.1257 128.708 20.6141 128.904 20.5583L129.574 19.5118C129.854 18.9537 130.706 18.0608 132.13 16.8329C133.555 15.6051 134.198 15.2284 134.058 15.7028C133.527 17.8236 133.262 19.4142 133.262 20.4746C133.262 22.1768 133.765 24.0743 134.77 26.1672C135.804 28.2601 137.634 31.1483 140.26 34.8318C142.55 38.0409 144.338 41.5848 145.623 45.4636C146.964 49.5378 147.635 53.6678 147.635 57.8536C147.635 62.2626 146.866 66.4902 145.33 70.5365C143.654 74.9455 141.126 78.9638 137.745 82.5915Z" fill="#E85382"/>
<path d="M85.7862 82.717C80.8137 79.4242 76.8329 76.0198 73.8438 72.5037C75.2685 73.006 77.4335 73.5641 80.3388 74.178C81.093 76.243 82.0848 78.1266 83.3139 79.8288L85.7862 82.717Z" fill="#C94772"/>
<path d="M146.714 49.6075C147.329 52.426 147.636 55.1746 147.636 57.8535C147.636 62.2625 146.868 66.4902 145.331 70.5364C143.655 74.9454 141.127 78.9638 137.747 82.5915C134.171 86.3866 129.618 88.9678 124.086 90.3352C119.896 91.3956 115.287 91.7165 110.258 91.2979C105.565 90.9072 101.025 89.9863 96.6396 88.5353C93.0917 87.3354 91.0804 86.4005 90.6055 85.7308L90.7312 85.7727L89.935 84.3076C88.3427 81.3497 87.1834 78.4894 86.457 75.7268C99.1677 79.2428 111.431 78.6987 123.248 74.0943C135.847 69.1551 143.669 60.9929 146.714 49.6075Z" fill="#C94772"/>
<path d="M179.02 108.292C179.663 108.739 179.635 111.822 178.936 117.543C178.182 123.654 176.939 130.03 175.207 136.672C175.821 139.741 175.766 143.997 175.039 149.438C174.285 154.964 173.112 159.61 171.519 163.377C170.011 166.977 167.748 170.2 164.731 173.046C162.245 175.418 158.278 178.376 152.83 181.92C147.271 185.52 139.575 187.459 129.742 187.738C118.707 188.045 108.888 185.883 100.284 181.25C88.9697 175.167 82.1534 167.186 79.8347 157.308C78.5218 155.522 78.0469 153.666 78.41 151.741C78.6894 150.345 79.3878 149.02 80.5052 147.764C80.0862 145.671 80.4354 142.504 81.5528 138.262L83.3127 132.528L82.2651 130.644C81.5667 129.193 81.2874 127.993 81.4271 127.044C80.8125 125.51 80.1839 122.301 79.5414 117.417C78.843 112.143 78.7592 108.92 79.29 107.748C80.5192 106.827 84.0251 106.409 89.8077 106.492L100.284 107.246C101.066 106.576 103.203 105.516 106.695 104.065C110.829 102.334 114.182 101.316 116.752 101.009C122.87 100.283 128.415 100.576 133.387 101.888C138.025 103.144 142.313 105.334 146.252 108.46C152.872 105.948 160.136 105.069 168.041 105.823C173.88 106.381 177.54 107.204 179.02 108.292Z" fill="#5DC1CF"/>
<path d="M106.696 104.064C110.831 102.334 114.183 101.316 116.753 101.009C126.559 99.8648 134.939 101.358 141.895 105.488C137.984 107.943 134.213 110.915 130.581 114.403C128.207 116.664 124.952 120.138 120.818 124.826C112.158 113.943 102.981 110.259 93.2872 113.776C93.1755 111.934 92.5329 110.301 91.3596 108.878C90.1863 107.455 88.8454 106.674 87.3369 106.534L95.1729 106.743L100.285 107.246C101.067 106.576 103.204 105.516 106.696 104.064Z" fill="#50A8B4"/>
<path d="M82.0146 159.61C82.0146 159.387 83.0762 159.387 85.1993 159.61C87.3783 159.833 88.8449 160.21 89.5992 160.74L89.0963 163.503L88.2583 166.098C87.8951 167.074 87.504 167.591 87.085 167.647C86.3866 167.73 85.3949 166.795 84.1098 164.842C82.8248 162.805 82.1264 161.061 82.0146 159.61Z" fill="#0D131A"/>
<path d="M88.6772 161.2L87.9229 163.168C87.3642 164.814 86.9592 165.651 86.7077 165.679C86.5122 165.679 86.1909 165.414 85.744 164.884L84.1516 162.665C83.3136 161.27 82.8945 160.266 82.8945 159.652V159.526L85.283 159.777C86.596 160.168 87.7274 160.642 88.6772 161.2Z" fill="white"/>
<path d="M179.02 108.292C179.662 108.739 179.634 111.822 178.936 117.543C178.182 123.654 176.939 130.03 175.207 136.672C175.821 139.741 175.765 143.997 175.039 149.438C174.285 154.964 173.111 159.61 171.519 163.377C169.927 167.144 167.119 171.009 163.096 174.972C159.13 178.878 155.707 181.194 152.83 181.92C156.154 180.19 159.088 177.525 161.63 173.925C164.34 170.13 166.267 165.777 167.412 160.866C170.15 149.173 168.097 137.09 161.253 124.617C159.381 121.156 158.445 119.161 158.445 118.631C158.445 118.324 159.227 117.626 160.792 116.538C164.87 113.664 169.047 111.418 173.321 109.799C176.729 108.487 178.629 107.985 179.02 108.292Z" fill="#50A8B4"/>
<path d="M154.633 170.032L153.208 171.623C152.677 172.209 152.216 172.432 151.825 172.293C151.518 172.181 151.127 171.762 150.652 171.037L148.054 166.726L148.557 166.056L157.817 165.302L154.633 170.032Z" fill="#0D131A"/>
<path d="M149.354 166.768C152.343 165.986 154.577 165.665 156.058 165.805C153.739 169.321 152.44 171.023 152.161 170.911L150.904 169.195L149.354 166.768Z" fill="white"/>
<path d="M180.277 106.869C181.031 107.427 181.101 110.832 180.487 117.082C179.732 124.338 178.168 131.16 175.793 137.551C177.302 143.746 177.106 150.248 175.207 157.056C173.307 163.893 170.192 169.195 165.862 172.962C168.823 167.409 170.961 162.791 172.273 159.108C173.782 154.838 174.606 150.736 174.746 146.801C174.802 144.736 174.62 142.378 174.201 139.727C173.838 137.523 173.503 136.058 173.195 135.332C172.972 134.774 172.93 134.411 173.07 134.244C173.209 134.077 173.461 134.146 173.824 134.453L174.955 135.625C176.771 128.649 177.986 122.398 178.601 116.873C179.132 112.241 179.146 109.52 178.643 108.711C176.995 107.706 173.433 106.939 167.957 106.409C160.163 105.655 152.998 106.52 146.461 109.004L146.126 109.087L145.874 108.92C141.935 105.795 137.577 103.744 132.8 102.767C128.275 101.846 122.995 101.818 116.961 102.683C113.218 103.241 109.195 104.567 104.893 106.66C101.96 108.083 99.4034 109.59 97.2245 111.18C95.9394 112.101 95.1852 112.478 94.9617 112.311C94.7382 112.199 94.9477 111.78 95.5902 111.055L97.7692 108.962L99.1101 107.79L89.2209 107.036C83.969 106.925 80.7425 107.26 79.5412 108.041C79.0384 108.515 78.9406 110.232 79.2479 113.19C79.6111 116.65 80.4631 120.64 81.804 125.161L82.223 124.784C80.9101 116.999 80.3095 112.185 80.4212 110.343C80.4491 109.869 80.6726 109.576 81.0917 109.464C81.9018 109.436 83.2287 111.013 85.0725 114.194C86.8604 117.292 87.866 119.65 88.0895 121.268L88.5505 121.017L90.2266 120.766C91.0367 120.766 91.4278 120.947 91.3999 121.31C91.344 121.673 90.911 121.952 90.1009 122.147C89.2349 122.37 87.9219 122.984 86.162 123.989C84.1506 125.133 82.7259 126.193 81.8878 127.17C81.357 127.812 81.3151 129.165 81.7621 131.23L82.6002 134.118C81.6224 136.211 81.0079 139.183 80.7564 143.034C80.6168 144.932 80.5748 146.634 80.6307 148.141C79.0105 150.15 78.5216 152.299 79.1641 154.587C79.8066 156.875 81.2453 158.187 83.4802 158.521C85.2401 158.773 87.9917 159.638 91.7351 161.117C96.4842 162.958 100.255 164.94 103.049 167.06L103.175 167.144L103.217 167.228C104.139 168.874 105.577 170.437 107.533 171.916C109.572 173.451 111.234 174.148 112.519 174.009C114.028 173.869 117.282 172.669 122.283 170.409H122.325C130.063 168.372 139.533 166.698 150.735 165.386L157.356 164.549C158.306 164.465 159.242 164.116 160.163 163.503L161.965 162.079C162.468 161.689 162.817 161.591 163.013 161.786C163.236 161.982 163.166 162.358 162.803 162.917L161.462 164.465C160.764 165.023 159.702 165.498 158.278 165.888L156.183 166.181L152.327 166.6C139.477 168.107 129.867 169.698 123.498 171.372C117.939 174.218 114.349 175.725 112.729 175.892C111.192 176.06 109.265 175.167 106.946 173.214C104.879 171.511 103.328 169.753 102.295 167.939C99.613 165.958 96.0791 164.172 91.6932 162.582C88.4806 161.41 85.9385 160.684 84.0668 160.405C82.7818 160.182 81.7621 159.833 81.0079 159.359C83.6897 168.065 90.1987 175.195 100.535 180.748C108.329 184.934 116.612 186.985 125.384 186.901C133.597 186.817 142.759 184.85 152.872 180.999C154.492 180.385 155.456 180.162 155.764 180.329C156.071 180.497 155.219 181.055 153.207 182.004C143.821 186.413 134.602 188.645 125.551 188.701C116.5 188.757 107.994 186.65 100.032 182.38C88.7181 176.297 81.8739 168.26 79.4993 158.27C77.8232 157.377 76.9851 155.773 76.9851 153.457C76.9572 151.224 77.7115 149.257 79.2479 147.555C79.1641 142.364 79.8625 137.927 81.3431 134.244C80.5888 133.044 80.1558 131.663 80.0441 130.1C79.9044 128.565 80.1279 127.379 80.7145 126.542C78.9267 121.715 77.8791 117.124 77.5718 112.771C77.3204 109.004 77.6137 106.841 78.4517 106.283C80.0999 105.25 83.8154 104.944 89.5981 105.362L100.158 106.618C101.415 105.753 103.706 104.651 107.03 103.311C110.997 101.693 114.223 100.73 116.71 100.423C122.772 99.6974 128.191 99.8927 132.968 101.009C137.857 102.153 142.34 104.316 146.419 107.497C153.068 105.041 160.443 104.078 168.544 104.609C174.802 105.027 178.713 105.781 180.277 106.869Z" fill="#0D131A"/>
<path d="M81.3008 110.72V110.511C81.9712 111.18 82.9769 112.869 84.3178 115.575C85.7425 118.422 86.6085 120.626 86.9158 122.189C85.7146 122.552 84.4435 123.291 83.1026 124.407L82.0131 117.668C81.5382 114.264 81.3008 111.948 81.3008 110.72Z" fill="#431E37"/>
<path d="M85.9942 131.314C86.7485 131.593 87.3072 131.872 87.6703 132.151C89.8214 133.825 92.3635 137.439 95.2968 142.992C97.8948 148.015 99.7246 152.34 100.786 155.968L101.331 158.145C101.359 158.675 101.233 158.926 100.954 158.898L100.283 158.438L100.074 158.019C98.0903 158.521 95.0593 157.712 90.9807 155.591C87.6843 153.917 84.9466 152.145 82.7676 150.275C82.2648 150.108 81.9575 149.815 81.8458 149.396C81.7899 149.145 81.8597 148.922 82.0553 148.727L82.3905 148.517C81.8318 145.336 81.9296 142.113 82.6838 138.848C83.4102 135.862 84.346 133.951 85.4914 133.114L84.4019 131.984C84.2063 131.593 84.2063 131.314 84.4019 131.146L85.9942 131.314Z" fill="#0D131A"/>
<path d="M83.3125 145.671C83.3125 142.936 83.7455 140.244 84.6115 137.593C85.3658 135.304 86.0362 134.007 86.6229 133.7C87.9638 134.118 90.1009 137.09 93.0341 142.616C95.9115 148.001 97.9647 152.787 99.1939 156.973C97.406 157.112 94.7661 156.275 91.2741 154.461C88.313 152.899 85.7708 151.252 83.6477 149.522C83.4242 148.127 83.3125 146.843 83.3125 145.671Z" fill="white"/>
<path d="M90.5616 137.551L91.3159 137.509C93.0479 140.244 94.8078 143.564 96.5957 147.471C98.3836 151.406 99.6407 154.698 100.367 157.349L100.493 157.768L96.6376 157.349C93.7323 156.847 91.4695 156.01 89.8492 154.838L89.7235 154.796L89.6397 154.629C88.3547 151.113 87.6982 148.183 87.6703 145.839C87.6144 142.713 88.5782 139.951 90.5616 137.551Z" fill="#0D131A"/>
<path d="M89.0957 146.76C89.0957 143.829 89.7243 141.137 90.9814 138.681C92.6016 141.304 94.2219 144.388 95.8421 147.932C97.4624 151.503 98.6357 154.559 99.362 157.098C97.3786 157.322 94.4035 156.345 90.4366 154.168C89.5427 151.768 89.0957 149.299 89.0957 146.76Z" fill="#91308C"/>
<path d="M159.787 131.984C160.597 131.872 160.988 132.039 160.96 132.486C160.932 132.905 160.708 133.225 160.289 133.449L158.613 134.16C160.345 135.444 161.365 138.36 161.672 142.909C161.924 147.039 161.588 150.206 160.667 152.41C161.84 152.466 162.371 152.689 162.259 153.08L161.547 153.708L159.326 154.252L133.848 159.568L132.885 159.945C132.298 160 132.102 159.582 132.298 158.689C133.024 155.173 134.365 151.894 136.321 148.852C138.192 145.867 140.86 142.783 144.324 139.602C149.017 135.332 154.172 132.793 159.787 131.984Z" fill="#0D131A"/>
<path d="M144.952 141.988C147.243 139.895 149.547 138.137 151.866 136.714C153.989 135.43 155.777 134.635 157.23 134.328C158.068 135.332 158.724 137.188 159.199 139.895C159.646 142.323 159.87 144.876 159.87 147.555C159.87 149.955 159.688 151.699 159.325 152.787C156.364 153.206 149.017 154.796 137.284 157.559L134.267 158.27C134.546 156.01 135.621 153.457 137.493 150.61C139.365 147.736 141.851 144.862 144.952 141.988Z" fill="white"/>
<path d="M150.318 136.421L150.821 136.086L150.989 136.672C153.614 142.364 154.117 148.434 152.497 154.88L152.413 155.173L152.162 155.215L137.538 158.563L133.138 159.568V159.024C133.277 155.48 135.303 151.336 139.214 146.592C142.538 142.574 146.239 139.183 150.318 136.421Z" fill="#0D131A"/>
<path d="M150.315 137.509C151.572 142.253 152.201 146.271 152.201 149.564C152.201 151.322 152.019 152.94 151.656 154.419L137.325 157.726L134.099 158.48C134.406 155.159 136.361 151.336 139.965 147.011C143.038 143.327 146.488 140.16 150.315 137.509Z" fill="#91308C"/>
<path d="M177.22 110.846L176.591 111.473L176.256 111.683C176.983 112.743 176.857 115.994 175.879 121.436C175.041 126.04 174.315 129.151 173.7 130.77L173.03 132.235L172.569 131.523C172.289 130.826 171.074 129.305 168.923 126.961C166.465 124.338 164.244 122.356 162.26 121.017L161.339 121.645C160.975 121.896 160.738 121.896 160.626 121.645C160.514 121.366 160.71 120.933 161.213 120.347C161.967 119.454 164.034 117.724 167.415 115.157C171.158 112.283 173.644 110.72 174.873 110.469L177.262 110.218C177.457 110.301 177.443 110.511 177.22 110.846Z" fill="#0D131A"/>
<path d="M174.369 121.603C173.866 125.035 173.335 127.882 172.777 130.142C171.855 128.607 170.64 126.975 169.131 125.245C167.315 123.124 165.513 121.435 163.726 120.18C165.513 118.422 167.357 116.831 169.257 115.408C171.631 113.594 173.573 112.464 175.081 112.017L175.207 113.19C175.207 115.059 174.928 117.864 174.369 121.603Z" fill="#431E37"/>
<path d="M100.201 136.337C99.7539 135.388 99.6422 134.802 99.8656 134.579C100.089 134.356 100.494 134.76 101.081 135.793C101.919 137.188 102.659 138.709 103.302 140.355C104.14 142.56 104.615 144.569 104.726 146.383C104.838 148.197 104.768 148.824 104.517 148.266L103.637 145.42L102.128 140.941L100.201 136.337Z" fill="#0D131A"/>
<path d="M137.788 133.281C138.374 132.863 138.738 132.751 138.877 132.946C139.017 133.17 138.863 133.477 138.416 133.867C137.215 134.956 136.084 136.686 135.022 139.058C133.877 141.625 132.983 144.583 132.34 147.931C132.145 149.048 131.921 149.689 131.67 149.857C131.418 150.052 131.321 149.48 131.377 148.141C131.712 140.941 133.849 135.988 137.788 133.281Z" fill="#0D131A"/>
<path d="M104.809 165.219L105.73 165.261C106.233 165.595 106.638 166.028 106.946 166.558L107.616 168.149C107.784 168.651 107.784 168.902 107.616 168.902L106.862 168.4L105.144 166.349C104.809 165.902 104.697 165.526 104.809 165.219Z" fill="#0D131A"/>
<path d="M115.118 169.404C115.369 168.539 116.361 167.716 118.093 166.935C118.596 166.684 118.931 166.726 119.098 167.06C119.294 167.395 119.168 167.716 118.721 168.023L115.872 169.865L114.866 170.284L115.118 169.404Z" fill="#0D131A"/>
<path d="M93.7052 143.118L95.2137 146.132L96.6384 149.229C96.5267 150.513 96.3032 151.573 95.968 152.41C95.6048 153.275 95.1997 153.708 94.7528 153.708C94.222 153.708 93.761 153.15 93.3699 152.034C93.0068 150.889 92.8252 149.522 92.8252 147.932C92.8252 145.839 93.1185 144.234 93.7052 143.118Z" fill="#0D131A"/>
<path d="M142.521 151.406C142.298 152.857 141.879 154.071 141.264 155.047C140.678 155.996 140.077 156.415 139.463 156.303C138.876 156.219 138.443 155.633 138.164 154.545C137.912 153.429 137.898 152.145 138.122 150.694C138.345 149.243 138.764 148.043 139.379 147.094C139.965 146.118 140.566 145.685 141.181 145.797C141.795 145.908 142.228 146.508 142.48 147.597C142.731 148.685 142.745 149.955 142.521 151.406Z" fill="#0D131A"/>
<path d="M141.392 79.4521C145.498 77.4709 151.407 75.071 159.117 72.2526C167.051 69.3225 172.987 67.425 176.926 66.5599L178.057 66.6437C178.113 66.8669 177.792 67.0622 177.093 67.2297C173.546 68.1226 167.498 70.2295 158.949 73.5502C150.848 76.7035 144.548 79.3405 140.051 81.4613L141.392 79.4521Z" fill="#0D131A"/>
<path d="M194.191 65.2205C187.877 66.6995 178.84 69.5319 167.079 73.7177C153.726 78.4615 143.432 82.7171 136.196 86.4843L136.657 85.0193C143.669 81.3358 153.544 77.2477 166.283 72.7549C178.407 68.5134 187.654 65.7786 194.023 64.5508C194.721 64.4392 195.099 64.4811 195.154 64.6764C195.21 64.8996 194.889 65.081 194.191 65.2205Z" fill="#0D131A"/>
<path d="M165.276 70.4946C165.695 67.7319 166.38 65.1507 167.33 62.7509C167.469 62.3323 167.623 62.1509 167.791 62.2067C167.986 62.2625 168.014 62.4997 167.874 62.9183C167.232 64.8996 166.673 67.3552 166.198 70.2853L165.276 70.4946Z" fill="#0D131A"/>
<path d="M153.503 74.9734C154.09 71.9596 154.704 69.3784 155.347 67.2297C155.486 66.8111 155.64 66.6437 155.808 66.7274C155.975 66.8111 156.003 67.0622 155.891 67.4808C155.389 69.3505 154.956 71.6666 154.592 74.4292L153.503 74.9734Z" fill="#0D131A"/>
<path d="M168.167 69.3225C168.363 67.8436 168.628 66.532 168.963 65.3879C169.047 65.053 169.187 64.9135 169.382 64.9693C169.55 65.0251 169.606 65.2205 169.55 65.5553L168.963 69.1132L168.167 69.3225Z" fill="#0D131A"/>
<path d="M175.668 70.369L178.685 73.006C178.936 73.2293 178.992 73.4107 178.852 73.5502L178.266 73.4246L174.62 70.5783L175.668 70.369Z" fill="#0D131A"/>
<path d="M153.796 78.1546L154.676 77.6942C155.654 78.336 156.897 79.3266 158.405 80.6661L161.799 84.0984C162.051 84.4054 162.107 84.6286 161.967 84.7681C161.799 84.9077 161.59 84.8239 161.339 84.517L157.609 81.1684L153.796 78.1546Z" fill="#0D131A"/>
<path d="M160.29 75.6012L161.254 75.1826C163.517 76.8849 165.514 78.7824 167.246 80.8753C167.525 81.1823 167.581 81.3916 167.414 81.5032C167.246 81.6148 167.023 81.5171 166.743 81.2102C164.732 79.1452 162.581 77.2755 160.29 75.6012Z" fill="#0D131A"/>
<path d="M81.8472 81.2939L83.6071 82.3822C78.5228 83.4705 72.1675 84.9913 64.541 86.9447C55.5178 89.2887 49.3999 91.0886 46.1874 92.3443L45.056 92.3862C44.9722 92.1909 45.2655 91.9537 45.9359 91.6746C49.4838 90.2235 55.4061 88.312 63.703 85.9401C71.1339 83.8472 77.1819 82.2985 81.8472 81.2939Z" fill="#0D131A"/>
<path d="M31.0591 100.548L29.9696 100.632C29.8858 100.437 30.1651 100.2 30.8077 99.9206C36.283 97.4929 43.8955 94.8558 53.645 92.0095C63.3107 89.1632 71.9568 87.0284 79.5832 85.6053L81.9298 86.4006C74.471 87.8516 65.3919 90.0701 54.6926 93.0559C44.1888 95.986 36.311 98.4835 31.0591 100.548Z" fill="#0D131A"/>
<path d="M54.6929 82.5078C54.3298 82.2566 54.2041 82.0613 54.3158 81.9218L55.0282 82.0474C57.0954 83.4147 59.1347 85.1309 61.1461 87.1959L60.2661 87.5726C58.2827 85.5076 56.4249 83.8193 54.6929 82.5078Z" fill="#0D131A"/>
<path d="M64.2471 86.1075L63.4509 86.4005L60.9367 83.8472C60.6015 83.5403 60.4897 83.317 60.6015 83.1775C60.7132 83.038 60.9507 83.1077 61.3138 83.3868L64.2471 86.1075Z" fill="#0D131A"/>
<path d="M38.1824 97.4928L38.9786 97.1998C38.7551 98.4556 38.6154 99.7252 38.5596 101.009C38.5316 101.427 38.4199 101.651 38.2243 101.679C38.0567 101.679 37.959 101.469 37.931 101.051C37.9031 100.13 37.9869 98.9439 38.1824 97.4928Z" fill="#0D131A"/>
<path d="M56.9561 91.7165C56.8723 93.1675 56.8304 94.8139 56.8304 96.6557C56.8584 98.8881 56.9422 100.479 57.0819 101.427C57.1377 101.818 57.0679 102.027 56.8723 102.055C56.6768 102.111 56.5371 101.944 56.4533 101.553C56.2298 100.353 56.0622 98.7486 55.9505 96.7394C55.8667 94.6744 55.8946 93.0699 56.0343 91.9258L56.9561 91.7165Z" fill="#0D131A"/>
<path d="M53.1851 92.7629C52.794 95.693 52.6543 98.5114 52.7661 101.218C52.794 101.637 52.7102 101.874 52.5147 101.93C52.347 101.958 52.2353 101.776 52.1794 101.386C51.8721 98.7626 51.8861 95.9999 52.2213 93.0978L53.1851 92.7629Z" fill="#0D131A"/>
<path d="M115.998 112.729C117.674 111.111 122.66 111.236 130.957 113.106C139.31 114.975 143.57 117.054 143.738 119.343C143.877 121.38 141.14 124.979 135.525 130.142C129.882 135.332 125.943 137.774 123.708 137.467C121.557 137.16 119.364 133.309 117.129 125.914C114.922 118.547 114.545 114.152 115.998 112.729Z" fill="#008982"/>
<path d="M115.58 119.175C115.049 115.687 115.189 113.538 115.999 112.729C116.809 111.948 118.806 111.641 121.991 111.808C124.952 111.948 128.207 112.45 131.755 113.315C129.184 115.687 125.539 119.524 120.818 124.826C118.862 122.454 117.116 120.57 115.58 119.175Z" fill="#00736D"/>
<path d="M115.118 136.462C115.76 137.607 115.676 139.839 114.866 143.16C114.084 146.369 113.316 148.001 112.561 148.057C112.003 148.113 111.011 146.843 109.586 144.248C108.134 141.569 107.547 139.755 107.826 138.806C108.106 137.858 109.335 137.118 111.514 136.588L115.118 136.462Z" fill="#008982"/>
<path d="M66.6774 150.82L62.9061 150.694C62.4312 150.415 61.7049 149.522 60.7271 148.015C59.6935 146.369 59.2186 145.239 59.3024 144.625C59.3862 143.871 59.903 142.504 60.8528 140.523C61.8306 138.402 62.6826 136.951 63.4089 136.169C64.1911 135.36 65.8533 134.788 68.3954 134.453C70.8817 134.118 72.2366 134.23 72.4601 134.788C72.8512 135.737 72.8512 138.234 72.4601 142.281C72.0969 146.466 71.5801 148.88 70.9096 149.522C70.2671 150.164 68.8564 150.596 66.6774 150.82Z" fill="#008982"/>
<path d="M59.6803 130.351C59.5965 130.937 58.954 131.607 57.7528 132.36C56.6074 133.058 55.8113 133.379 55.3643 133.323C54.8894 133.239 54.2189 132.402 53.3529 130.812C52.459 129.137 52.2355 128.105 52.6825 127.714C53.2132 127.24 54.5262 127.379 56.6214 128.133C58.7724 128.914 59.7921 129.654 59.6803 130.351Z" fill="#008982"/>
<path d="M32.4851 165.386L32.527 161.2L31.8565 155.131C31.6051 152.647 31.4654 150.471 31.4375 148.601C33.7003 147.959 35.1669 147.68 35.8374 147.764C36.2843 147.82 37.304 149.257 38.8963 152.075C40.4886 154.922 41.2848 156.791 41.2848 157.684C41.2848 158.605 40.6842 160.196 39.483 162.456C38.2817 164.689 37.4018 165.916 36.843 166.14C36.1726 166.447 34.7199 166.195 32.4851 165.386Z" fill="#008982"/>
<path d="M108.497 190.543C109.056 190.431 111.039 191.771 114.447 194.561C117.856 197.324 119.657 199.068 119.853 199.793C120.048 200.519 119.755 201.956 118.973 204.105C118.219 206.253 117.618 207.439 117.171 207.663C116.752 207.83 115.704 207.83 114.028 207.663L110.969 207.077C110.55 206.853 109.824 206.016 108.79 204.565C107.757 203.086 107.142 202.012 106.947 201.342C106.723 200.617 106.821 198.677 107.24 195.524C107.631 192.287 108.05 190.626 108.497 190.543Z" fill="#008982"/>
<path d="M106.234 209.839C106.708 209.672 107.812 209.979 109.544 210.76C111.304 211.541 112.24 212.211 112.351 212.769C112.463 213.327 112.016 214.234 111.011 215.49C110.061 216.718 109.362 217.387 108.915 217.499L106.946 217.248C106.052 216.969 105.521 216.62 105.354 216.201C105.102 215.532 105.102 214.332 105.354 212.602C105.605 210.872 105.898 209.951 106.234 209.839Z" fill="#008982"/>
<path d="M160.708 196.445C160.457 196.947 159.228 197.338 157.021 197.617C154.814 197.896 153.64 197.77 153.501 197.24C153.361 196.682 153.85 195.566 154.967 193.891C156.085 192.217 156.909 191.394 157.44 191.422C157.971 191.478 158.711 192.217 159.661 193.64C160.583 195.091 160.932 196.026 160.708 196.445Z" fill="#008982"/>
<path d="M168.124 194.059L167.998 194.393L164.646 194.268C164.143 193.766 163.822 192.342 163.682 189.998C163.543 187.822 163.598 186.301 163.85 185.436L163.934 185.101C166.671 184.655 169.032 184.696 171.015 185.227C170.205 188.324 169.241 191.268 168.124 194.059Z" fill="#008982"/>
<path d="M172.441 179.367L171.016 185.227C169.033 184.697 166.672 184.655 163.935 185.101C164.27 184.152 164.801 183.064 165.527 181.836C166.337 180.469 166.952 179.702 167.371 179.534L169.55 179.283L172.441 179.367Z" fill="#00736D"/>
<path d="M130.664 114.027C122.395 112.241 117.729 112.059 116.668 113.482C115.662 114.878 116.123 118.924 118.051 125.621C119.978 132.402 121.864 136.058 123.708 136.588C125.607 137.174 129.267 134.774 134.686 129.388C139.826 124.31 142.508 121.031 142.732 119.552C143.011 117.654 138.988 115.813 130.664 114.027ZM144.659 119.719C144.408 121.728 141.489 125.44 135.901 130.853C130.007 136.574 125.817 139.058 123.33 138.304C120.621 137.523 118.218 133.323 116.123 125.705C114.084 118.282 113.763 113.706 115.159 111.976C115.914 111.055 117.925 110.636 121.193 110.72C124.238 110.804 127.633 111.278 131.376 112.143C140.623 114.32 145.05 116.845 144.659 119.719Z" fill="#0D131A"/>
<path d="M108.456 138.848C108.316 139.518 108.847 141.081 110.048 143.536C111.249 145.992 112.059 147.164 112.478 147.052C113.009 146.913 113.582 145.322 114.197 142.281C114.811 139.239 114.881 137.481 114.406 137.007C114.015 136.616 112.939 136.7 111.179 137.258C109.447 137.844 108.54 138.374 108.456 138.848ZM115.496 135.751C116.445 136.616 116.543 138.904 115.789 142.616C115.035 146.299 114.057 148.35 112.856 148.769C111.794 149.159 110.425 147.792 108.749 144.667C107.129 141.653 106.43 139.602 106.654 138.513C106.849 137.593 108.176 136.728 110.635 135.918L115.496 135.751Z" fill="#0D131A"/>
<path d="M57.6259 131.816C58.6875 131.174 59.1484 130.7 59.0087 130.393C58.8132 129.891 57.9053 129.333 56.285 128.719C54.6647 128.133 53.6451 127.951 53.2261 128.175C52.8908 128.342 53.0724 129.095 53.7708 130.435C54.4692 131.746 55.0279 132.472 55.4469 132.611C55.866 132.723 56.5923 132.458 57.6259 131.816ZM55.1536 133.993C54.4273 133.77 53.6032 132.737 52.6813 130.895C51.7594 128.97 51.5779 127.714 52.1366 127.128C52.7232 126.486 54.2178 126.612 56.6202 127.505C59.0227 128.398 60.2658 129.305 60.3496 130.226C60.4334 130.951 59.763 131.816 58.3383 132.821C56.9136 133.825 55.852 134.216 55.1536 133.993Z" fill="#0D131A"/>
<path d="M60.3497 139.895C61.7465 137.076 62.6404 135.542 63.0315 135.29C63.9534 134.704 65.6016 134.202 67.9761 133.784C70.5183 133.309 72.1106 133.337 72.7531 133.867C73.4794 134.453 73.6471 137.048 73.256 141.653C72.8928 146.118 72.376 148.838 71.7055 149.815C71.1748 150.596 69.7361 151.141 67.3895 151.448C65.3781 151.699 63.8975 151.713 62.9477 151.489C62.3052 151.35 61.4113 150.401 60.2659 148.643C59.1205 146.913 58.492 145.601 58.3802 144.708C58.3244 144.29 58.9809 142.685 60.3497 139.895ZM61.6487 140.481C60.5313 142.881 59.9865 144.248 60.0145 144.583C60.0424 145.253 60.4754 146.285 61.3135 147.68C62.1795 149.104 62.8779 149.913 63.4087 150.108C63.9674 150.303 65.1826 150.289 67.0542 150.066C69.0377 149.815 70.197 149.438 70.5322 148.936C71.063 148.155 71.496 145.755 71.8312 141.737C72.1385 137.718 72.0966 135.556 71.7055 135.249L68.3533 135.123C66.4536 135.402 64.9172 135.89 63.7439 136.588C63.4645 136.783 62.7661 138.081 61.6487 140.481Z" fill="#0D131A"/>
<path d="M33.5735 148.81C32.5678 149.034 31.7158 149.313 31.0174 149.648L30.9336 147.973C31.6879 147.666 32.6237 147.387 33.7411 147.136L36.1715 146.843C36.9258 147.011 38.141 148.741 39.8171 152.034C41.4653 155.215 42.2475 157.168 42.1637 157.894C42.052 158.926 41.4094 160.6 40.2362 162.917C38.8952 165.512 37.7778 166.865 36.8839 166.977L34.1602 166.684C33.0148 166.405 32.1628 166.098 31.604 165.763V163.963C32.1069 164.382 32.8612 164.744 33.8668 165.051L36.3391 165.386C36.8978 165.302 37.708 164.2 38.7695 162.079C39.7752 160.014 40.2781 158.633 40.2781 157.935C40.2781 157.182 39.6216 155.48 38.3086 152.829C36.9677 150.178 36.0598 148.769 35.5849 148.601L33.5735 148.81Z" fill="#0D131A"/>
<path d="M108.748 191.422C108.329 191.589 108.022 192.929 107.826 195.44C107.659 197.477 107.603 199.43 107.659 201.3C107.687 201.635 108.203 202.5 109.209 203.895C110.215 205.235 110.871 206.002 111.179 206.197L114.07 206.867C115.718 207.09 116.682 207.104 116.961 206.909C117.38 206.602 117.897 205.514 118.512 203.644C119.126 201.691 119.294 200.435 119.015 199.877C118.568 198.984 116.863 197.31 113.902 194.854C110.913 192.37 109.195 191.226 108.748 191.422ZM106.485 195.105C106.821 191.896 107.337 190.152 108.036 189.873C108.902 189.538 111.067 190.766 114.531 193.556C117.827 196.235 119.769 198.147 120.355 199.291C120.774 200.156 120.607 201.719 119.853 203.979C119.182 206.016 118.54 207.342 117.925 207.956C117.506 208.402 116.305 208.542 114.321 208.374C112.533 208.235 111.262 207.997 110.508 207.663C110.117 207.523 109.307 206.546 108.078 204.732C106.849 202.919 106.22 201.775 106.192 201.3C106.108 199.654 106.206 197.589 106.485 195.105Z" fill="#0D131A"/>
<path d="M110.759 214.653C111.317 213.676 111.541 213.076 111.429 212.853C111.233 212.49 110.479 212.002 109.166 211.388C107.825 210.774 106.945 210.481 106.526 210.509C106.303 210.509 106.107 211.179 105.94 212.518C105.744 213.913 105.758 214.988 105.982 215.741C106.065 216.02 106.512 216.299 107.322 216.578L108.957 216.787C109.543 216.425 110.144 215.713 110.759 214.653ZM113.021 212.518C112.993 213.327 112.546 214.374 111.68 215.657C110.87 216.857 110.172 217.639 109.585 218.001L106.903 217.834C105.563 217.415 104.836 216.955 104.724 216.453C104.445 215.504 104.431 214.081 104.683 212.183C104.906 210.174 105.297 209.086 105.856 208.918C106.526 208.695 107.895 209.086 109.962 210.09C112.03 211.095 113.049 211.904 113.021 212.518Z" fill="#0D131A"/>
<path d="M157.439 192.092C157.16 192.092 156.518 192.831 155.512 194.31C154.506 195.817 154.087 196.682 154.255 196.905L157.146 196.821C158.906 196.515 159.842 196.194 159.954 195.859C160.065 195.608 159.744 194.924 158.99 193.808C158.236 192.692 157.719 192.119 157.439 192.092ZM157.565 190.71C158.236 190.822 159.129 191.715 160.247 193.389C161.336 195.063 161.769 196.152 161.546 196.654C161.239 197.352 159.828 197.896 157.314 198.287C154.772 198.677 153.235 198.58 152.704 197.993C152.257 197.491 152.774 196.124 154.255 193.891C155.735 191.659 156.839 190.599 157.565 190.71Z" fill="#0D131A"/>
<path d="M170.556 178.488L173.866 178.864L173.363 180.581L170.598 180.162C169.285 180.078 168.307 180.078 167.664 180.162C167.301 180.19 166.701 180.999 165.862 182.59C165.08 184.124 164.605 185.283 164.438 186.064C164.214 187.124 164.172 188.589 164.312 190.459C164.48 192.384 164.731 193.445 165.066 193.64L166.407 193.849L169.508 193.263L168.712 195.063C166.449 195.621 164.899 195.621 164.061 195.063C163.418 194.645 163.013 193.082 162.845 190.375C162.678 188.143 162.678 186.608 162.845 185.771C162.957 185.073 163.488 183.804 164.438 181.962C165.527 179.757 166.435 178.613 167.161 178.529C167.888 178.446 169.019 178.432 170.556 178.488Z" fill="#0D131A"/>
<path d="M158.111 91.1305L159.074 92.6792L160.206 94.6046C160.681 95.4976 160.834 95.9999 160.667 96.1115L159.368 96.1534L157.608 95.9441L159.326 96.572C159.857 96.7673 160.206 96.9766 160.373 97.1998C160.681 97.5905 160.834 98.8881 160.834 101.093C160.862 103.325 160.597 104.302 160.038 104.023L154.8 102.055L149.437 100.214C152.426 102.223 154.87 104.023 156.77 105.613L158.069 106.743C158.46 107.162 158.558 107.539 158.362 107.874C154.423 115.101 152.258 118.729 151.867 118.757C151.644 118.757 150.791 117.905 149.311 116.203L145.875 112.101L148.431 121.017C148.71 122.273 148.543 123.361 147.928 124.282C147.565 124.84 146.014 126.263 143.277 128.551C140.539 130.84 139.114 131.914 139.003 131.774L138.626 127.672L138.29 121.938L136.656 125.245C136.014 126.556 135.553 127.24 135.273 127.296C134.91 127.379 132.927 126.542 129.323 124.784C125.719 123.026 123.945 121.966 124.001 121.603C124.057 121.296 125.007 119.859 126.851 117.292L130.119 112.813C129.644 113.315 128.583 114.613 126.934 116.706L124.672 119.343L121.026 117.25L117.59 114.906C117.59 114.655 118.568 113.469 120.523 111.348C122.59 109.087 124.42 107.26 126.013 105.864C124.867 106.395 123.093 107.79 120.691 110.05L117.129 113.19C116.794 113.217 115.174 112.004 112.268 109.548C109.391 107.12 107.938 105.725 107.91 105.362C107.882 105.027 108.846 103.716 110.802 101.427C112.673 99.1951 114.461 97.2417 116.165 95.5674C115.02 96.2092 112.645 98.2742 109.042 101.762C105.689 105.027 103.902 106.66 103.678 106.66C103.287 106.66 102.505 105.641 101.331 103.604C100.186 101.595 99.6414 100.367 99.6973 99.9206C99.7531 99.4741 100.465 98.3718 101.834 96.6138C103.594 94.3256 105.578 92.3722 107.785 90.7537C114.601 85.7029 121.808 84.8936 129.407 88.326L130.161 88.033C140.358 83.4844 149.632 84.489 157.985 91.0467L158.111 91.1305Z" fill="#0D131A"/>
<path d="M154.005 101.009L146.421 98.3719C144.661 97.8975 143.781 97.744 143.781 97.9114C143.781 98.051 144.563 98.5253 146.127 99.3346C147.608 100.116 149.578 101.427 152.036 103.269L157.274 107.664L154.215 113.106C152.762 115.673 151.924 116.971 151.701 116.999C151.393 116.999 149.228 114.599 145.206 109.799L144.032 108.627L144.326 110.301L146.127 116.999C147.189 120.682 147.678 122.621 147.594 122.817L144.326 125.831L139.884 129.598L139.8 123.738C139.772 120.612 139.674 118.91 139.507 118.631C139.227 118.185 137.691 120.598 134.897 125.872C130.344 123.166 127.355 121.519 125.93 120.933L129.659 115.743L133.347 110.594L134.52 109.087C134.66 108.697 134.073 108.85 132.76 109.548C130.637 110.664 127.858 113.469 124.422 117.961L119.184 114.655L123.751 109.673C126.181 107.162 127.816 105.683 128.654 105.237L130.33 104.316L128.486 104.274C125.413 104.469 121.6 106.967 117.047 111.766L109.336 105.237C110.314 103.925 111.781 102.139 113.736 99.8787C116.139 97.0882 117.703 95.4418 118.429 94.9395L119.812 93.9349L118.262 94.0187C115.608 94.4372 112.744 96.0278 109.672 98.7904C108.023 100.297 106.068 102.348 103.805 104.944L100.746 100.172C103.176 95.986 106.347 92.6932 110.258 90.2933C116.348 86.5261 122.927 86.1633 129.995 89.205L130.539 88.9957C134.339 87.4888 137.831 86.6517 141.015 86.4843C146.938 86.2052 152.357 87.9772 157.274 91.8002L158.824 94.9814L157.651 94.8558L154.885 94.7721L152.748 95.0232C152.832 95.1628 153.461 95.4139 154.634 95.7767C155.975 96.1953 157.623 96.9347 159.578 97.9951L159.746 100.297C159.802 101.72 159.76 102.613 159.62 102.976L154.005 101.009Z" fill="#00A63C"/>
<path d="M66.0901 57.8954L66.1739 58.9418C60.2795 56.5141 55.5584 54.8119 52.0105 53.8352C51.3121 53.6398 51.0049 53.4306 51.0887 53.2073L52.2201 53.1236C56.0193 54.184 60.6426 55.7746 66.0901 57.8954Z" fill="#0D131A"/>
<path d="M66.6351 61.0348L66.8446 62.2068C57.4582 57.6303 49.0775 54.2678 41.7025 52.1191C41.0321 51.9237 40.7388 51.7144 40.8226 51.4912L41.912 51.4493C49.315 53.5422 57.556 56.7374 66.6351 61.0348Z" fill="#0D131A"/>
<path d="M61.3974 56.5141L60.4755 56.2629C60.1962 53.3608 59.7771 50.8912 59.2184 48.8541C59.1067 48.4355 59.1346 48.1983 59.3022 48.1425C59.4698 48.0867 59.6235 48.2681 59.7632 48.6867C60.5454 51.1144 61.0901 53.7236 61.3974 56.5141Z" fill="#0D131A"/>
<path d="M58.7574 55.5514L57.9194 55.3002C57.9194 53.8492 57.7657 52.4679 57.4585 51.1563C57.4026 50.8215 57.4584 50.6261 57.6261 50.5703L58.0451 50.9889C58.52 52.2167 58.7574 53.7376 58.7574 55.5514Z" fill="#0D131A"/>
<path d="M58.4653 57.8954L59.3453 58.2721L55.993 61.2021L52.2636 63.7136C51.9004 63.881 51.677 63.881 51.5931 63.7136C51.4814 63.5462 51.6071 63.3648 51.9703 63.1695C53.2553 62.416 55.4203 60.658 58.4653 57.8954Z" fill="#0D131A"/>
<path d="M137.536 100.004C136.083 94.8698 133.569 91.27 129.993 89.205L130.999 88.4934C134.742 90.7538 137.312 94.6186 138.709 100.088C139.994 105.083 140.092 110.441 139.002 116.161C138.835 116.971 138.639 117.347 138.416 117.292C138.192 117.236 138.136 116.803 138.248 115.994C139.142 110.134 138.905 104.804 137.536 100.004Z" fill="#0D131A"/>
<path d="M140.51 109.38C141.236 99.5299 138.499 92.2885 132.297 87.6563L133.47 87.2795C139.867 92.0234 142.451 99.4322 141.222 109.506C141.111 110.343 140.957 110.748 140.761 110.72C140.538 110.664 140.454 110.218 140.51 109.38Z" fill="#0D131A"/>
<path d="M135.567 94.3116L136.53 95.5674C134.407 95.4558 132.382 95.7627 130.454 96.4882C128.583 97.2138 126.641 98.3997 124.63 100.046C124.099 100.465 123.764 100.604 123.624 100.465C123.457 100.353 123.61 100.06 124.085 99.5857C127.521 96.1255 131.348 94.3675 135.567 94.3116Z" fill="#0D131A"/>
</svg>
