<svg width="212" height="204" viewBox="0 0 212 204" fill="none" xmlns="http://www.w3.org/2000/svg">
<g clip-path="url(#clip0_2621_443)">
<path d="M97.3893 105.28C95.394 104.172 91.9023 99.6124 86.9142 91.601C82.628 84.6972 79.7829 79.6393 78.3789 76.4274C77.0856 73.5477 75.6816 69.5974 74.1666 64.5764C72.3561 58.817 71.7649 55.6974 72.3931 55.2174C73.3538 54.516 76.2358 54.0914 81.0392 53.9437L82.7019 48.3505C83.9952 44.5848 85.0852 42.7019 85.972 42.7019C86.8587 42.7019 91.6067 46.1907 100.216 53.1684L112.853 63.6349L115.513 69.0066C118.136 73.3631 121.517 77.3688 125.656 81.0238L124.99 88.666C123.845 94.3146 121.443 98.5603 117.785 101.403C113.573 104.689 109.786 106.59 106.423 107.107C103.467 107.55 100.456 106.941 97.3893 105.28Z" fill="#AFCEE5"/>
<path d="M184.294 13.6837C193.051 19.923 197.43 26.9561 197.43 34.7829C197.43 36.2597 197.023 37.478 196.211 38.4379L194.382 35.9458C191.684 41.336 190.336 46.0801 190.336 50.1781C190.336 56.1959 191.278 59.2048 193.162 59.2048C194.012 59.2048 194.788 58.7987 195.49 57.9865L196.321 56.7127L197.873 58.651C198.871 60.3493 199.37 62.1583 199.37 64.0781C199.37 66.0348 198.723 67.733 197.43 69.1729L195.49 70.7789C194.308 76.2429 190.354 81.3008 183.629 85.9525C176.239 91.0474 168.018 93.5948 158.966 93.5948C145.22 93.5948 133.249 88.6661 123.051 78.8087C113.148 69.2836 108.197 58.5402 108.197 46.5785C108.197 33.9153 113.148 23.5226 123.051 15.4005C132.14 7.97976 142.689 4.26941 154.698 4.26941C165.635 4.26941 175.5 7.40752 184.294 13.6837Z" fill="#AFCEE5"/>
<path d="M182.909 88.1675C184.683 88.9428 186.438 89.792 188.174 90.715C190.982 92.2286 194.844 94.6468 199.758 97.9695H203.305C205.707 98.0803 206.945 98.3941 207.018 98.911C207.203 99.6863 206.908 101.569 206.132 104.56L208.182 105.446C209.586 106.11 210.344 106.701 210.455 107.218C210.64 107.993 209.235 109.876 206.243 112.866C207.203 114.269 207.425 115.543 206.908 116.687C206.427 117.721 204.081 118.976 199.869 120.453C195.102 122.078 190.539 122.89 186.179 122.89C182.189 122.89 178.383 122.336 174.762 121.228L170.494 119.567C171.048 114.915 171.233 110.3 171.048 105.723C170.937 102.88 170.383 99.8155 169.386 96.5297L167.889 92.4317L174.983 90.2166C176.24 89.7735 178.18 88.7952 180.803 87.2815L182.909 88.1675Z" fill="#AFCEE5"/>
<path d="M84.1434 134.741C86.1387 134.741 88.448 135.904 91.0714 138.23C94.1382 140.925 96.5769 144.451 98.3874 148.807C102.71 159.292 104.115 166.196 102.6 169.518C102.045 170.811 100.586 173.044 98.2211 176.219C95.1174 180.391 93.0112 183.345 91.9028 185.08L84.8085 195.325C82.1112 199.017 80.5224 200.955 80.042 201.14C79.4508 201.398 76.8644 199.201 72.2827 194.55C64.6342 197.614 60.6252 199.054 60.2557 198.869C59.9231 198.721 59.5352 196.1 59.0918 191.005C53.106 187.83 50.0761 185.763 50.0022 184.803C49.9653 184.212 51.277 182.717 53.9373 180.317L57.9279 176.884C58.1865 173.856 58.6853 170.46 59.4243 166.694C60.9392 159.126 62.9899 153.44 65.5764 149.638C72.2642 139.706 78.4532 134.741 84.1434 134.741Z" fill="#AFCEE5"/>
<path d="M147.327 160.436C150.393 158.443 153.7 155.212 157.247 150.745L161.681 144.598L167.445 149.97C171.251 154.474 173.154 159.052 173.154 163.704C173.154 166.989 172.896 169.666 172.378 171.734L171.547 173.838L176.092 176.108C179.048 177.733 180.433 178.877 180.248 179.542C180.101 180.28 178.66 181.572 175.925 183.418C175.704 183.566 175.87 183.861 176.424 184.304C176.978 184.784 177.108 185.117 176.812 185.301C173.006 187.59 167.87 189.879 161.404 192.168C155.271 194.383 151.446 195.399 149.932 195.214C148.971 195.103 147.013 193.183 144.057 189.455C141.433 186.132 139.844 183.861 139.29 182.643C138.958 181.942 136.556 179.69 132.085 175.887L125.434 170.404C135.078 166.897 142.375 163.574 147.327 160.436Z" fill="#AFCEE5"/>
<path d="M3.33496 105.778C3.33496 95.7359 6.64193 87.4476 13.2559 80.9129C19.5372 74.6736 27.0749 71.554 35.8688 71.554C43.776 71.554 50.0943 74.3413 54.8239 79.9161C59.7381 85.6754 62.1952 93.6499 62.1952 103.84L61.1422 114.528C60.4401 120.545 60.0891 125.659 60.0891 129.867C60.0891 134.482 61.1237 139.005 63.1929 143.435C64.1905 145.613 65.2066 147.349 66.2412 148.641L63.8025 153.735L61.1422 160.602C58.5557 160.566 55.415 160.104 51.7201 159.218C44.3302 157.372 37.8641 154.252 32.3217 149.859C24.2298 143.398 17.5605 136.457 12.3136 129.037C6.32786 120.545 3.33496 112.792 3.33496 105.778Z" fill="#AFCEE5"/>
<path d="M125.656 81.0237L131.309 84.6787C135.965 87.4476 140.528 89.6812 144.999 91.3794C149.47 93.0777 154.624 93.7607 160.462 93.4284L167.889 92.4316L169.663 98.0802C170.808 102.621 171.381 106.941 171.381 111.039C171.381 127.578 165.635 141.885 154.144 153.957C142.468 166.214 128.409 172.343 111.966 172.343C109.195 172.343 106.756 172.029 104.65 171.401L102.322 170.404C102.729 168.743 102.821 166.491 102.6 163.648C102.119 157.963 100.253 152.148 97.0018 146.204C93.7872 140.26 90.4433 136.55 86.97 135.073C85.8985 134.593 84.8824 134.372 83.9217 134.408L82.7578 134.575L86.0278 131.64C88.5773 128.908 90.8312 125.677 92.7896 121.948C94.7848 118.22 96.1519 114.398 96.8909 110.485L97.3897 105.778L98.9416 106.498C100.272 106.978 101.676 107.273 103.154 107.384C107.92 107.679 112.613 105.926 117.232 102.123C121.148 98.9109 123.716 94.4253 124.935 88.6659L125.656 81.0237Z" fill="#F2E100"/>
<path d="M92.7342 100.96C93.658 102.252 95.3022 103.84 97.667 105.722L96.8356 110.873C95.9488 114.934 94.6556 118.533 92.9559 121.671C91.2932 124.846 89.0393 127.966 86.1942 131.03L82.4254 134.685L80.7072 135.295L77.1601 136.79C76.1625 137.307 74.9246 138.322 73.4467 139.836L71.5068 141.995C71.8394 139.891 72.2828 137.62 72.837 135.184C73.9085 130.347 74.9431 127.135 75.9408 125.548C76.6058 124.514 78.1762 122.65 80.6518 119.955C83.0166 117.333 84.7901 115.008 85.9725 112.977C87.3027 110.688 88.1895 107.181 88.6329 102.455L88.9654 96.0312L92.7342 100.96Z" fill="#EEEEEF"/>
<path d="M88.5773 102.289C88.2448 107.384 87.3764 111.076 85.9724 113.365C84.79 115.358 82.8502 117.795 80.1529 120.675C77.5294 123.444 75.9222 125.363 75.331 126.434C74.0008 128.797 72.6706 133.763 71.3404 141.331L66.2414 148.641C65.2068 147.644 64.1907 146.057 63.1931 143.878C61.1239 139.485 60.0894 134.279 60.0894 128.262C60.0894 114.159 63.0823 101.052 69.068 88.9429C72.0609 82.8882 75.0538 78.2549 78.0467 75.043L83.0903 84.7896L88.6327 95.3115L88.5773 102.289Z" fill="#CF7100"/>
<path d="M101.546 54.3867L107.643 50.178L110.968 62.915L101.546 54.3867Z" fill="#EEEEEF"/>
<path d="M136.353 48.4058C135.983 47.7413 135.909 46.0061 136.131 43.2003C136.427 40.0991 137.018 37.0533 137.905 34.0628C140.491 25.6822 144.482 21.4919 149.876 21.4919C152.056 21.4919 153.664 23.0056 154.698 26.033C155.954 29.6141 155.677 34.1551 153.867 39.6561C152.906 42.5357 151.687 45.1754 150.209 47.5752C148.768 49.9011 147.548 51.2671 146.551 51.6732C145.664 52.0054 143.78 51.6547 140.898 50.621C138.126 49.6242 136.611 48.8858 136.353 48.4058Z" fill="#C6000B"/>
<path d="M194.382 35.9457C194.936 35.9457 195.619 36.7394 196.432 38.327C197.541 40.4682 198.095 43.0895 198.095 46.1907C198.095 49.698 197.485 52.8361 196.266 55.605C195.121 58.1893 193.938 59.4815 192.719 59.4815C190.945 59.4815 190.059 56.9895 190.059 52.0054C190.059 48.0182 190.779 44.1417 192.22 40.376L194.382 35.9457Z" fill="#C6000B"/>
<path d="M146.938 51.8393C148.897 49.9934 150.467 47.9998 151.65 45.8585C152.832 43.6802 153.885 41.4282 154.809 39.1023L154.144 45.1385C153.515 49.2365 152.776 51.5071 151.927 51.9501L148.657 52.2823L146.938 51.8393Z" fill="white"/>
<path d="M147.604 27.1406C148.528 27.3252 149.23 28.2851 149.71 30.0202C150.19 31.8662 150.209 34.0075 149.765 36.4441C149.359 38.6224 148.601 40.4314 147.493 41.8712C146.348 43.3849 145.165 44.0125 143.946 43.7541C142.763 43.4957 141.969 42.4435 141.563 40.5975C141.156 38.8992 141.193 36.961 141.673 34.7828C142.228 32.2723 143.133 30.2787 144.389 28.8019C145.535 27.5098 146.606 26.956 147.604 27.1406Z" fill="#0D131A"/>
<path d="M191.555 53.113C191.001 52.9285 190.687 52.1716 190.613 50.8425C190.539 49.698 190.65 48.4243 190.946 47.0214C191.241 45.6185 191.703 44.3448 192.331 43.2003C193.07 41.9082 193.754 41.4098 194.382 41.7051C195.047 42.0005 195.398 42.868 195.435 44.3079C195.509 45.4893 195.361 46.8922 194.991 48.5166C194.696 49.8088 194.142 50.9533 193.329 51.9501C192.59 52.8362 191.999 53.2238 191.555 53.113Z" fill="#0D131A"/>
<path d="M149.156 22.0457C149.858 22.4518 150.449 23.3194 150.929 24.6485C151.447 26.2729 151.465 27.8604 150.985 29.411C150.468 31.1093 149.525 32.3645 148.158 33.1767C146.939 33.952 145.794 34.1551 144.722 33.7859C143.392 33.3798 142.505 32.4568 142.062 31.017C141.618 29.5402 141.748 27.8604 142.45 25.9776C143.041 24.427 144.149 23.2456 145.775 22.4333C147.253 21.695 148.38 21.5657 149.156 22.0457Z" fill="white"/>
<path d="M194.271 37.884C194.604 37.9948 194.862 38.4378 195.047 39.2131C195.232 40.0253 195.232 40.856 195.047 41.7051C194.493 44.2525 193.791 45.4524 192.941 45.3047C192.424 45.194 192.091 44.7509 191.943 43.9756C191.796 43.2003 191.851 42.2774 192.11 41.2067C192.775 38.7701 193.495 37.6625 194.271 37.884Z" fill="white"/>
<path d="M125.656 81.0237L132.528 85.0109C138.292 87.9275 144.02 90.1242 149.71 91.601C153.294 92.487 157.414 92.8193 162.069 92.5978L167.944 91.9886L168.776 94.0376C167.889 94.8129 166.596 95.6067 164.896 96.4189C161.497 97.9695 157.746 98.7448 153.645 98.7448C149.137 98.7448 143.595 96.4558 137.018 91.8778C131.106 87.7429 127.318 84.1249 125.656 81.0237Z" fill="#CBBD00"/>
<path d="M144.833 161.987C134.782 168.891 124.012 172.343 112.52 172.343L105.315 171.401L102.322 170.404L102.932 167.746C103.228 165.642 103.191 163.778 102.821 162.153L101.824 156.781L101.436 154.289C108.899 156.984 118.247 158.221 129.48 158C141.821 157.778 150.818 155.655 156.472 151.631C153.737 155.102 149.858 158.554 144.833 161.987Z" fill="#CBBD00"/>
<path d="M92.18 66.1269C91.8105 67.3083 91.3671 68.0467 90.8499 68.3421C90.3695 68.6374 90.0185 68.3051 89.7968 67.3453C89.4642 65.647 89.3349 63.4688 89.4088 60.8106L89.6305 57.3218C89.6305 56.0665 89.8153 55.162 90.1848 54.6082C90.5912 53.9068 91.1085 54.4052 91.7366 56.1034C93.0299 59.5738 93.1777 62.915 92.18 66.1269Z" fill="#88A3D4"/>
<path d="M97.0019 105.446C94.6741 103.673 91.3672 99.4093 87.081 92.6532C83.2753 86.5985 80.5595 81.6698 78.9337 77.8671C77.6405 74.9136 76.3473 71.4248 75.054 67.4006C73.9455 64.0041 73.1881 61.4013 72.7816 59.5923C72.3013 57.5986 72.3937 56.3803 73.0588 55.9373C73.8347 55.3835 75.2018 56.6018 77.1601 59.5923L97.7779 84.5126C108.974 97.988 113.943 105.076 112.687 105.778C110.655 106.922 108.29 107.568 105.593 107.716C102.156 107.938 99.2928 107.181 97.0019 105.446Z" fill="#88A3D4"/>
<path d="M185.292 122.834C181.19 122.834 177.496 122.299 174.207 121.228L170.494 119.567L171.38 111.039C173.856 112.516 178.438 113.937 185.126 115.303C193.365 117.001 200.626 117.463 206.907 116.687C206.205 117.721 204.783 118.755 202.64 119.789C198.316 121.819 192.534 122.834 185.292 122.834Z" fill="#88A3D4"/>
<path d="M145.553 161.821C143.706 163.15 143.133 165.07 143.835 167.58C144.463 169.98 146.108 172.38 148.768 174.779C155.271 180.649 162.975 183.031 171.88 181.923L170.217 181.203C168.961 180.723 168.406 180.465 168.554 180.428L174.54 179.874L180.581 178.6C179.805 180.151 178.29 181.72 176.036 183.308C175.889 183.381 175.981 183.695 176.314 184.249C176.646 184.766 176.72 185.08 176.535 185.19C174.983 186.187 171.769 187.886 166.891 190.285C162.051 192.611 157.857 194.125 154.31 194.826L149.267 195.048C148.417 194.789 145.276 190.599 139.845 182.477L125.157 170.958L129.48 169.408L136.907 166.417C139.752 165.125 142.634 163.593 145.553 161.821Z" fill="#88A3D4"/>
<path d="M50.4456 185.191C50.2978 184.489 51.9605 184.895 55.4337 186.409C58.7592 187.849 60.2002 189.252 59.7568 190.618L54.6578 188.901L50.4456 185.191Z" fill="#88A3D4"/>
<path d="M71.8947 194.328L64.6896 197.651L61.6413 198.315L59.7568 198.537L60.2557 196.765C60.4773 197.097 61.9923 196.506 64.8004 194.992C68.052 193.294 70.0103 192.371 70.6754 192.224C71.7099 191.965 72.3381 192.187 72.5598 192.888C72.7445 193.516 72.5228 193.996 71.8947 194.328Z" fill="#88A3D4"/>
<path d="M77.3262 199.423C77.6957 199.607 78.8411 198.555 80.7625 196.266C82.6838 193.977 84.1248 191.928 85.0855 190.119L94.0642 172.786C98.9785 162.744 101.251 156.8 100.881 154.954L102.433 160.547C103.32 164.719 103.283 168.005 102.322 170.404C101.473 172.546 100.216 174.576 98.5536 176.496C96.078 179.302 94.212 181.665 92.9557 183.584C85.1225 195.546 80.9103 201.527 80.3191 201.527L78.4901 200.475L77.3262 199.423Z" fill="#88A3D4"/>
<path d="M64.2463 152.407L61.1426 160.603C58.667 160.713 55.5263 160.289 51.7205 159.329C44.1089 157.409 36.9962 153.791 30.3823 148.475C23.4727 142.937 17.6532 136.753 12.9237 129.923L7.93555 121.339C15.0668 125.253 19.1497 127.265 20.1842 127.375C21.2558 127.523 24.8029 126.748 30.8257 125.05C34.5206 132.655 40.0999 139.263 47.5637 144.875C54.2515 149.896 59.8124 152.407 64.2463 152.407Z" fill="#88A3D4"/>
<path d="M4.55468 94.8683C5.36757 92.2471 6.49452 89.7366 7.93555 87.3369L9.81996 84.5126C8.63759 91.0103 9.0625 96.862 11.0947 102.068C12.8683 106.609 15.6395 110.19 19.4083 112.811C22.8816 115.248 26.5026 116.411 30.2714 116.3C34.1141 116.152 37.0886 114.694 39.1947 111.925L38.4742 114.638C37.846 116.669 37.0886 118.349 36.2018 119.678C35.0194 121.487 33.1165 123.167 30.4931 124.717C27.5002 126.489 24.6551 127.375 21.9578 127.375C19.1127 127.375 16.3046 126.526 13.5334 124.828C10.8361 123.204 8.78538 121.192 7.38131 118.792C2.91044 111.223 1.96823 103.249 4.55468 94.8683Z" fill="#88A3D4"/>
<path d="M67.2948 93.2071C68.588 90.1059 69.9736 87.3555 71.4516 84.9557L73.2806 82.2422C70.6572 89.2199 69.6965 98.265 70.3986 109.378C71.0636 119.752 72.5601 126.176 74.8879 128.649L71.3408 141.331L66.2418 148.641C65.1333 147.903 64.0433 146.463 62.9717 144.321C60.8287 140.039 59.9234 134.335 60.256 127.209C60.8472 114.399 63.1934 103.064 67.2948 93.2071Z" fill="#A95B00"/>
<path d="M88.4109 128.428L83.3119 134.575L80.8733 135.295C79.0627 135.922 77.6402 136.568 76.6056 137.233L71.3403 141.331C72.0424 137.676 72.5781 135.147 72.9476 133.744L74.1115 130.366L74.8875 128.649C75.22 129.683 76.5871 130.311 78.9888 130.532C81.9078 130.791 85.0485 130.089 88.4109 128.428Z" fill="#C8C9CA"/>
<path d="M192.774 20.7167C195.582 24.3717 197.393 27.9528 198.206 31.4601C199.019 34.9305 198.668 37.5148 197.153 39.2131C197.005 39.3977 196.802 39.0839 196.543 38.2717C196.284 37.4225 196.21 36.8872 196.321 36.6657C197.208 35.2258 197.042 32.9922 195.823 29.9649C194.566 26.8637 192.534 23.7071 189.726 20.4952C182.632 12.4099 174.263 7.64739 164.619 6.20755C150.911 4.14009 138.865 6.42907 128.482 13.0745C118.1 19.7199 111.948 29.0973 110.026 41.2067C108.179 52.9469 111.375 63.6534 119.615 73.3262C127.817 82.9251 138.736 88.8506 152.37 91.1027C161.94 92.6902 170.993 91.2688 179.528 86.8385C187.583 82.6298 192.571 77.2027 194.492 70.5573L195.49 70.6126C196.044 70.8711 196.284 71.1295 196.211 71.3879C194.215 78.4025 188.987 84.125 180.526 88.5553C171.621 93.1701 162.125 94.6469 152.038 92.9855C137.849 90.6227 126.376 84.3834 117.619 74.2676C108.751 64.0411 105.297 52.8362 107.255 40.6529C109.324 27.6205 115.661 17.7447 126.265 11.0255C136.907 4.26931 149.802 2.03571 164.951 4.32469C176.516 6.05988 185.791 11.5239 192.774 20.7167Z" fill="#0D131A"/>
<path d="M195.712 56.8234C195.601 56.7126 195.731 56.4911 196.1 56.1588C196.469 55.8635 196.747 55.7897 196.931 55.9373C199.185 58.0786 200.238 60.866 200.091 64.2995C199.906 67.696 198.649 70.2434 196.322 71.9417L195.102 71.8309C194.659 71.3879 194.123 70.9818 193.495 70.6126C192.608 70.0957 191.814 69.8373 191.112 69.8373L185.126 72.3293C181.246 73.9538 178.217 74.7291 176.037 74.6552C175.113 74.6183 172.822 73.5107 169.164 71.3325C165.063 68.8959 162.532 67.5114 161.571 67.1791C160.019 66.6623 156.971 65.9793 152.426 65.1301L142.228 63.5795C139.641 63.3211 137.147 62.2689 134.746 60.423C132.455 58.6878 130.718 56.6388 129.536 54.276C128.982 53.1315 128.908 52.4669 129.314 52.2824C129.684 52.0978 130.145 52.5777 130.7 53.7222C131.697 55.7527 133.305 57.5248 135.522 59.0385C137.775 60.5522 140.085 61.4383 142.45 61.6967L152.814 63.2473C157.506 64.1333 160.647 64.8717 162.236 65.4624C163.197 65.8316 165.672 67.1791 169.663 69.505C173.247 71.6094 175.427 72.6985 176.203 72.7724C178.198 72.92 181.117 72.1817 184.96 70.5572L191.001 67.9544C192.59 67.8806 194.197 68.5451 195.823 69.9481C197.153 68.7667 197.892 66.81 198.04 64.078C198.188 61.0875 197.412 58.6693 195.712 56.8234Z" fill="#0D131A"/>
<path d="M170.439 61.5305C170.882 61.309 171.547 61.8812 172.434 63.2472C173.357 64.6132 173.524 65.4254 172.933 65.6839C172.341 65.9423 171.676 65.3701 170.937 63.9671C170.198 62.5273 170.032 61.7151 170.439 61.5305Z" fill="#0D131A"/>
<path d="M185.237 65.1301C185.458 65.5731 185.033 66.2008 183.962 67.013C182.927 67.7883 182.299 68.0282 182.078 67.7329C181.856 67.4375 182.281 66.8099 183.352 65.85C184.387 64.8901 185.015 64.6502 185.237 65.1301Z" fill="#0D131A"/>
<path d="M192.719 30.3524L193.994 30.1863C194.142 30.4078 193.883 30.7401 193.218 31.1831L191.888 32.5676L190.558 34.6719C190.225 35.3734 189.856 35.6134 189.449 35.3918C189.043 35.1703 188.987 34.7088 189.283 34.0074C190.133 32.1984 191.278 30.98 192.719 30.3524Z" fill="#0D131A"/>
<path d="M153.645 18.2801C152.943 17.9109 152.648 17.5601 152.759 17.2279C152.906 16.9325 153.331 16.9325 154.033 17.2279C155.363 17.8186 156.472 18.6677 157.359 19.7753C158.319 20.9936 158.874 22.3411 159.021 23.8179C159.095 24.9993 158.929 25.6085 158.523 25.6454C158.079 25.6454 157.765 25.0916 157.58 23.984C157.063 21.3997 155.751 19.4984 153.645 18.2801Z" fill="#0D131A"/>
<path d="M154.976 47.4644C154.015 50.7871 153.147 52.6146 152.371 52.9469C150.856 53.6114 147.771 53.353 143.115 52.1716C138.275 50.9532 135.67 49.6242 135.3 48.1843C134.968 46.8552 134.968 44.7139 135.3 41.7604C135.633 38.4377 136.298 35.2812 137.295 32.2907C140.03 24.1316 144.076 20.2367 149.433 20.6059C154.939 20.9751 157.377 26.3099 156.749 36.6102C156.528 40.376 155.936 43.994 154.976 47.4644ZM149.322 22.4887C147.179 22.3411 145.221 23.3379 143.448 25.4792C141.674 27.6574 140.177 30.9063 138.958 35.2258C138.33 37.4409 137.831 40.0437 137.462 43.0341C137.129 45.6185 137.018 47.1875 137.129 47.7413L137.406 48.0736L138.459 48.7935C140.122 49.6426 142.598 50.3441 145.886 50.8979L151.539 51.2855C152.02 50.7687 152.592 49.1258 153.258 46.3568C154.033 43.2557 154.514 40.2283 154.699 37.2748L154.809 33.8967C154.809 29.5403 154.2 26.4391 152.98 24.5931C152.094 23.301 150.874 22.5995 149.322 22.4887Z" fill="#0D131A"/>
<path d="M154.255 27.916C154.218 27.6575 154.476 27.4914 155.031 27.4176C155.585 27.3437 155.88 27.436 155.917 27.6944C156.472 31.3125 156.102 35.392 154.809 39.9331C153.331 45.1756 151.04 49.089 147.936 51.6733L147.05 51.5625C146.606 51.4149 146.477 51.2672 146.662 51.1195C149.618 48.5352 151.798 44.7141 153.202 39.6562C154.458 35.2259 154.809 31.3125 154.255 27.916Z" fill="#0D131A"/>
<path d="M196.266 40.3206C195.786 38.7331 195.195 37.5702 194.493 36.8318C193.458 38.8254 192.627 41.299 191.999 44.2525C191.445 47.0214 191.167 49.6796 191.167 52.227C191.167 54.479 191.408 56.2696 191.888 57.5987C192.147 58.2263 192.387 58.5401 192.608 58.5401C193.089 58.577 193.551 58.4109 193.994 58.0417C194.807 57.3772 195.49 56.1219 196.045 54.276C196.562 52.43 196.895 50.2149 197.042 47.6306L197.098 46.2461C197.098 44.1048 196.821 42.1297 196.266 40.3206ZM195.102 33.9521C195.546 33.4722 195.749 33.4537 195.712 33.8967L195.102 35.6688C196.359 36.6287 197.356 38.3455 198.095 40.819C198.797 43.1449 199.075 45.4524 198.927 47.7413C198.668 52.2824 197.837 55.6789 196.433 57.931C195.287 59.74 193.957 60.5707 192.442 60.423C191.481 60.3492 190.724 59.6292 190.17 58.2632C189.098 55.642 189.043 51.7101 190.003 46.4676C191.038 40.8929 192.738 36.721 195.102 33.9521Z" fill="#0D131A"/>
<path d="M101.436 55.3282L100.105 53.9437C102.175 51.3963 104.743 49.8457 107.809 49.2919C108.179 49.2181 108.382 49.5319 108.419 50.2334C108.456 50.9348 108.308 51.3225 107.976 51.3963C105.315 52.1347 103.135 53.4453 101.436 55.3282Z" fill="#0D131A"/>
<path d="M77.5477 73.7139L78.9333 76.4274C75.0536 81.633 71.6912 87.2816 68.8461 93.3732C64.7448 102.012 62.2876 111.685 61.4747 122.391C60.551 134.39 62.3615 142.937 66.9063 148.032C67.0911 148.216 66.9617 148.512 66.5183 148.918C66.0749 149.324 65.7609 149.435 65.5761 149.25C60.7358 143.86 58.5742 134.907 59.0915 122.391C59.5349 110.91 61.8258 100.831 65.9641 92.1549C69.1417 85.4725 73.0029 79.3255 77.5477 73.7139Z" fill="#0D131A"/>
<path d="M87.1919 104.781C87.857 100.388 87.9124 96.6774 87.3582 93.65C87.2843 93.4285 87.6353 93.6316 88.4112 94.2592C89.1502 94.8868 89.5382 95.3298 89.5752 95.5883C90.2033 98.9479 90.1479 102.584 89.4089 106.498C88.7068 110.227 87.6168 113.143 86.1389 115.248L80.3748 121.838C78.3056 123.979 76.9754 125.659 76.3842 126.877C75.4605 128.871 74.5737 131.289 73.7239 134.132C72.911 136.974 72.4122 139.208 72.2274 140.832L71.2298 142.383L70.2876 143.214C70.5832 140.74 71.1559 137.824 72.0057 134.464C72.9295 130.957 73.8532 128.188 74.7769 126.157C75.442 124.717 76.9385 122.724 79.2663 120.176L84.3653 114.029C85.5846 112.11 86.5268 109.027 87.1919 104.781Z" fill="#0D131A"/>
<path d="M65.909 95.4222C65.946 95.1638 66.26 95.1084 66.8512 95.2561C67.4424 95.3668 67.7195 95.533 67.6826 95.7545C66.8697 99.8894 67.0914 104.966 68.3477 110.984C69.7518 117.518 72.0611 123.296 75.2757 128.317C75.4235 128.539 75.2387 128.815 74.7214 129.148L73.7792 129.258C69.9365 123.314 67.387 117.223 66.1307 110.984C64.9853 105.52 64.9114 100.332 65.909 95.4222Z" fill="#0D131A"/>
<path d="M96.2816 105.446C96.2816 105.224 96.6326 105.28 97.3347 105.612L98.3877 106.276C98.166 116.946 93.3072 126.416 83.8112 134.685C83.6265 134.833 83.1461 134.833 82.3702 134.685C81.6312 134.538 81.3541 134.39 81.5388 134.242C84.9751 131.621 88.1897 127.652 91.1826 122.336C94.5819 116.281 96.2816 110.651 96.2816 105.446Z" fill="#0D131A"/>
<path d="M166.891 92.8193C166.781 92.5608 167.002 92.3209 167.556 92.0993C168.111 91.8409 168.425 91.8409 168.499 92.0993C171.122 98.0433 172.434 103.71 172.434 109.101C172.434 134.722 162.476 153.256 142.56 164.7C135.133 168.983 127.282 171.66 119.005 172.73C111.615 173.653 105.98 173.155 102.101 171.235C101.879 171.124 101.898 170.811 102.156 170.294C102.415 169.74 102.655 169.518 102.877 169.629C106.719 171.549 112.225 171.955 119.393 170.847C127.263 169.666 134.745 166.916 141.84 162.596C150.227 157.501 156.823 150.856 161.626 142.66C167.316 133.061 170.161 121.874 170.161 109.101C170.161 103.341 169.071 97.9141 166.891 92.8193Z" fill="#0D131A"/>
<path d="M122.164 96.419C122.091 96.2344 122.238 95.8468 122.608 95.2561C123.014 94.7023 123.254 94.5361 123.328 94.7577C124.843 98.3757 127.578 101.625 131.531 104.504C135.522 107.347 140.27 109.47 145.775 110.873C150.763 112.165 155.511 112.645 160.019 112.313C164.527 111.943 167.963 110.817 170.328 108.935C170.513 108.787 170.79 108.953 171.159 109.433C171.529 109.913 171.621 110.227 171.436 110.374C168.776 112.479 165.081 113.789 160.352 114.306C155.474 114.86 150.431 114.472 145.221 113.143C139.789 111.74 135.004 109.507 130.866 106.442C126.876 103.526 123.975 100.185 122.164 96.419Z" fill="#0D131A"/>
<path d="M156.472 113.42C155.844 120.656 152.777 130.44 147.272 142.771C141.619 155.434 136.593 163.316 132.196 166.417L131.365 165.919C131.033 165.439 130.959 165.125 131.143 164.977C134.727 162.43 139.457 154.585 145.332 141.442C151.059 128.594 154.181 119.198 154.699 113.254C154.699 112.996 154.994 112.903 155.585 112.977C156.214 113.014 156.509 113.162 156.472 113.42Z" fill="#0D131A"/>
<path d="M115.236 102.455L115.902 102.677L116.179 103.286L117.121 117.795L117.786 130.92L117.564 131.529L111.301 137.62C106.535 141.903 102.083 145.078 97.9442 147.146L97.2791 147.201L96.7249 146.758L96.6694 146.37C96.6694 146.001 96.8357 145.724 97.1682 145.54C102.858 142.697 109.14 137.713 116.012 130.587L115.292 117.574L114.405 103.397V103.341C114.405 102.751 114.682 102.455 115.236 102.455Z" fill="#0D131A"/>
<path d="M144.223 144.93L152.925 145.318C156.472 145.207 159.299 144.875 161.405 144.321C161.663 144.284 161.7 144.543 161.516 145.097L160.906 145.983C158.837 146.684 156.139 147.164 152.814 147.422C149.378 147.718 146.274 147.681 143.503 147.312C137.997 146.61 132.843 144.894 128.04 142.162C123.347 139.466 119.671 136.181 117.01 132.304C116.862 132.083 116.881 131.658 117.066 131.03C117.213 130.403 117.361 130.181 117.509 130.366C119.874 133.873 123.624 136.974 128.76 139.669C133.527 142.143 138.681 143.897 144.223 144.93Z" fill="#0D131A"/>
<path d="M102.877 164.645C102.618 164.608 102.544 164.35 102.655 163.87C102.729 163.39 102.895 163.168 103.154 163.205L117.231 164.534C123.956 164.941 128.741 165.033 131.586 164.811L132.196 164.977L132.528 165.531L132.806 168.3C132.879 168.559 132.658 168.743 132.14 168.854L131.309 168.688L130.921 166.639L116.289 166.196L102.877 164.645Z" fill="#0D131A"/>
<path d="M87.9119 136.568C86.36 135.498 84.5126 135.202 82.3695 135.682C80.3003 136.088 78.1388 137.214 75.8849 139.06C72.6703 141.682 69.5481 145.558 66.5182 150.69C64.2274 154.529 62.2321 160.03 60.5325 167.193C59.7196 170.774 59.1099 174.004 58.7035 176.884L58.3709 177.438L53.3273 181.868C51.8863 183.345 51.1658 184.304 51.1658 184.747C51.2397 185.19 52.1265 185.929 53.8262 186.963C55.4889 188.033 57.4102 189.049 59.5902 190.008C59.9597 190.119 60.1445 190.378 60.1445 190.784C60.1445 194.439 60.3847 196.709 60.865 197.595C62.343 197.3 66.0749 195.934 72.0606 193.497L73.1137 193.719L76.8825 197.817C78.2497 199.109 79.1549 199.81 79.5983 199.921C80.3003 199.552 82 197.503 84.6973 193.774L90.4614 185.246C91.7177 183.215 94.415 179.505 98.5533 174.115L100.715 171.291C101.639 170.109 102.1 168.245 102.1 165.697L101.823 161.987C101.047 157.114 99.3108 152.185 96.6135 147.201C93.8792 142.254 90.9787 138.71 87.9119 136.568ZM58.8143 164.922C60.2553 157.907 62.0843 152.536 64.3013 148.807C68.3657 141.977 72.8735 137.399 77.8247 135.073C82.1848 132.969 85.8797 132.969 88.9095 135.073C95.0431 139.356 99.514 145.946 102.322 154.843C104.982 163.334 104.909 169.371 102.1 172.952C97.5187 178.674 94.1563 183.086 92.0133 186.187L86.0275 195.712C83.1824 200.217 81.2795 202.561 80.3188 202.745C78.8778 203.078 76.162 200.623 72.1715 195.38C69.622 197.005 67.0725 198.334 64.523 199.367C62.0474 200.364 60.4586 200.733 59.7565 200.475C59.1653 200.253 58.7774 199.497 58.5926 198.204C58.4818 197.208 58.4079 194.937 58.3709 191.393L52.108 188.735C49.4477 187.443 48.0621 186.317 47.9512 185.357C47.8773 184.544 48.5609 183.363 50.0019 181.812C51.6277 180.04 53.9555 178.194 56.9853 176.275L58.8143 164.922Z" fill="#0D131A"/>
<path d="M170.826 158.72C168.905 153.182 165.524 148.733 160.684 145.373C160.536 145.263 160.776 144.875 161.404 144.211C161.996 143.509 162.402 143.232 162.624 143.38C168.018 147.146 171.602 152.277 173.376 158.775C174.965 164.571 174.78 169.482 172.822 173.506C178.771 176.053 181.745 178.047 181.745 179.487C181.745 180.373 179.99 181.979 176.48 184.304L174.762 182.865C177.754 181.056 179.251 179.893 179.251 179.376C179.251 178.97 178.401 178.305 176.701 177.382C175.15 176.496 173.321 175.629 171.214 174.779L170.605 174.226L170.826 173.395C172.711 169.002 172.711 164.11 170.826 158.72Z" fill="#0D131A"/>
<path d="M181.191 87.1154C181.745 86.5616 182.096 86.3216 182.244 86.3955C184.793 87.3184 188.267 89.2013 192.664 92.0441C197.43 95.0714 200.682 97.6558 202.418 99.7971C202.825 100.314 202.88 100.738 202.585 101.071C202.252 101.366 201.882 101.255 201.476 100.738C199.813 98.671 196.34 96.1052 191.056 93.0409C186.253 90.272 182.78 88.6106 180.637 88.0568C180.415 87.983 180.6 87.6692 181.191 87.1154Z" fill="#0D131A"/>
<path d="M199.702 97.8588C199.259 97.4527 199.148 97.2312 199.37 97.1943L204.358 96.9728C206.353 97.1205 207.573 97.4896 208.016 98.0803C208.275 98.4495 208.293 99.2617 208.071 100.517L207.074 104.006C209.993 104.892 211.545 105.926 211.729 107.107C211.766 107.513 211.415 108.233 210.676 109.267C209.79 110.522 208.552 111.814 206.963 113.143C207.702 114.066 208.071 115.063 208.071 116.134C208.071 117.204 206.944 118.404 204.691 119.733C202.326 121.099 199.407 122.17 195.934 122.945C186.881 124.976 178.327 124.164 170.272 120.509C170.014 120.398 169.977 119.992 170.161 119.29C170.309 118.552 170.494 118.238 170.716 118.349C172.785 119.272 175.334 120.047 178.364 120.675L189.837 121.782C193.606 121.782 197.356 120.97 201.088 119.346C204.339 117.906 205.965 116.798 205.965 116.023C205.965 115.395 205.67 114.528 205.078 113.42C204.857 113.051 204.894 112.7 205.189 112.368C207.739 109.821 209.106 108.141 209.291 107.329C208.958 106.775 207.776 106.129 205.744 105.39L205.134 105.003V104.338C205.799 102.012 206.132 100.314 206.132 99.2433V99.1325L203.915 98.6895L200.589 98.5234L199.702 97.8588Z" fill="#0D131A"/>
<path d="M31.1025 96.585C29.9201 96.2527 28.8117 96.2527 27.7771 96.585C26.7425 96.9542 25.9296 97.6003 25.3384 98.5233C24.895 99.2616 24.5071 99.5385 24.1745 99.3539C23.842 99.1693 23.8604 98.7079 24.2299 97.9695C25.0059 96.4189 26.0405 95.4036 27.3337 94.9237C28.4791 94.5176 29.9017 94.4991 31.6013 94.8683C34.4834 95.4959 36.8481 97.1757 38.6956 99.9077C40.5431 102.566 41.4668 105.575 41.4668 108.934C41.4668 114.103 39.4531 118.663 35.4256 122.613C31.4351 126.489 26.8903 128.428 21.7913 128.428C16.4706 128.428 11.7965 126.083 7.76901 121.395C3.63069 116.632 1.56152 111.02 1.56152 104.559C1.56152 94.4068 5.21951 85.9708 12.5355 79.2516C19.2972 73.0492 27.075 69.948 35.869 69.948C44.8846 69.948 51.7202 73.123 56.3759 79.4731C61.0684 85.8231 63.2854 94.979 63.0267 106.941C62.9898 107.975 62.6572 108.861 62.0291 109.599C61.401 110.3 61.1054 110.282 61.1423 109.544C61.8444 97.3972 59.7382 88.0198 54.824 81.4113C50.2792 75.3197 43.9609 72.2739 35.869 72.2739C28.4791 72.2739 21.6989 75.0244 15.5284 80.5253C8.47105 86.8015 4.94239 94.8129 4.94239 104.559C4.94239 110.614 6.56816 115.727 9.8197 119.899C13.0712 124.071 17.0618 126.157 21.7913 126.157C26.3361 126.157 30.2342 124.477 33.4857 121.118C36.7003 117.758 38.3076 113.697 38.3076 108.934C38.3076 105.427 37.5317 102.529 35.9798 100.24C34.6496 98.3571 33.0239 97.1388 31.1025 96.585Z" fill="#0D131A"/>
<path d="M2.83628 111.98C2.76238 111.759 3.05798 111.703 3.72306 111.814C4.38815 111.925 4.73917 112.054 4.77612 112.202C9.13614 124.939 16.914 135.959 28.1096 145.263C39.3422 154.64 50.4824 159.329 61.5303 159.329C61.7889 159.329 61.8259 159.716 61.6411 160.492C61.4564 161.267 61.2347 161.655 60.9761 161.655C49.8174 161.655 38.4924 156.818 27.0011 147.146C15.2882 137.288 7.23325 125.566 2.83628 111.98Z" fill="#0D131A"/>
<path d="M123.993 171.512C123.809 171.401 124.141 171.143 124.991 170.737C125.804 170.331 126.284 170.164 126.432 170.238C131.79 172.97 137.277 177.862 142.893 184.914L147.937 191.559C149.378 193.405 150.357 194.309 150.874 194.272C154.421 194.051 159.539 192.574 166.226 189.842C172.619 187.221 175.833 185.467 175.87 184.581C175.907 184.212 175.39 183.732 174.318 183.141C173.247 182.551 171.972 182.052 170.494 181.646C169.053 181.203 168.406 180.797 168.554 180.428L170.937 180.262C173.044 180.668 174.854 181.369 176.369 182.366C177.773 183.326 178.364 184.12 178.143 184.747C177.367 187.073 173.302 189.676 165.949 192.556C158.707 195.362 153.423 196.543 150.098 196.1C149.285 195.989 146.181 192.796 140.787 186.519C134.727 179.394 129.129 174.392 123.993 171.512Z" fill="#0D131A"/>
<path d="M112.077 61.5305C112.336 61.6782 112.557 62.2689 112.742 63.3026C112.964 64.2995 112.964 64.724 112.742 64.5763C110.599 63.2473 105.519 59.2969 97.5005 52.7254C90.3323 46.8553 86.545 43.9571 86.1386 44.031C85.6213 44.1048 84.8823 45.5446 83.9216 48.3505C83.0348 51.0456 82.4806 53.353 82.2589 55.2728C82.1111 56.7495 81.8155 57.4694 81.3721 57.4325C80.9287 57.4325 80.707 56.6942 80.707 55.2174C80.744 52.3377 81.2428 49.4211 82.2035 46.4676C83.2381 43.4033 84.3465 41.742 85.5289 41.4835C86.6374 41.262 90.6833 44.0494 97.6668 49.8457C106.165 56.9341 110.969 60.8291 112.077 61.5305Z" fill="#0D131A"/>
<path d="M125.711 80.9684L126.654 81.5222C126.875 83.885 126.58 86.7462 125.767 90.1058C124.917 93.6501 123.79 96.4005 122.386 98.3572C119.024 103.009 114.848 106.092 109.86 107.605C104.946 109.119 100.697 108.713 97.1127 106.387C92.494 103.397 86.656 94.7576 79.5987 80.47C72.6153 66.4039 69.6963 57.7833 70.8417 54.6083C71.2112 53.5746 72.7261 52.9839 75.3865 52.8362L81.4277 53.2238C81.6494 53.2608 81.7418 53.5746 81.7048 54.1653C81.7048 54.756 81.5755 55.0329 81.3168 54.9959C79.765 54.8852 78.1392 54.8852 76.4395 54.9959C74.666 55.1436 73.6499 55.3467 73.3912 55.6051C72.4305 58.3371 75.1278 66.3854 81.4831 79.7501C88.0601 93.5578 93.6025 101.92 98.1103 104.837C101.251 106.904 104.983 107.162 109.306 105.612C113.629 104.061 117.342 101.126 120.446 96.8066C121.887 94.813 123.07 92.1733 123.993 88.8875C124.88 85.6017 125.157 82.9805 124.825 81.0238L125.711 80.9684Z" fill="#0D131A"/>
<path d="M94.7848 53.8884C96.5953 55.0698 97.8331 56.1589 98.4982 57.1557C99.2002 58.2633 99.2926 58.9832 98.7753 59.3155C98.258 59.6108 97.6483 59.2232 96.9463 58.1525C96.5029 57.4511 95.5422 56.6942 94.0642 55.882C92.6602 55.1067 91.7364 54.7744 91.293 54.8852C90.9235 55.2544 90.6464 56.3989 90.4617 58.3187C90.2769 60.4969 90.3139 63.0258 90.5725 65.9055C90.7203 67.3453 90.4802 68.0837 89.852 68.1206C89.2608 68.1576 88.9098 67.4561 88.799 66.0163C88.0969 57.7833 88.5773 53.2792 90.24 52.5039C91.2007 52.0609 92.7156 52.5224 94.7848 53.8884Z" fill="#0D131A"/>
</g>
<defs>
<clipPath id="clip0_2621_443">
<rect width="211.11" height="203.165" fill="white" transform="translate(0.674805 0.484985)"/>
</clipPath>
</defs>
</svg>
