<svg width="209" height="190" viewBox="0 0 209 190" fill="none" xmlns="http://www.w3.org/2000/svg">
<path d="M21.0467 91.2187C14.1291 96.779 8.84938 102.95 5.2077 109.733C2.28217 115.171 0.819397 120.013 0.819397 124.259C0.819397 129.804 2.94498 135.456 7.19614 141.215C11.2949 146.775 16.4756 151.274 22.7381 154.711C21.321 156.223 20.3077 157.43 19.6982 158.331C18.8754 159.553 18.464 160.622 18.464 161.539C18.464 161.845 18.6012 162.226 18.8754 162.685L19.5382 163.739C21.1229 166.901 26.494 168.856 35.6515 169.604C42.8892 170.2 49.7916 170.025 56.3589 169.077C61.1586 168.375 65.265 167.237 68.6781 165.663C69.44 165.327 71.6265 164.075 75.2377 161.906C76.8224 160.943 77.9651 160.34 78.6661 160.095C79.7479 159.698 80.8526 159.622 81.9801 159.866C97.5982 163.212 109.514 164.342 117.727 163.257C121.962 162.692 125.932 161.531 129.634 159.775C133.002 158.171 136.567 155.857 140.331 152.832C151.865 144.843 160.002 136.243 164.741 127.032C169.495 117.806 170.432 108.801 167.552 100.017C165.952 95.1292 163.217 90.5925 159.347 86.407C155.477 82.2063 150.715 78.6242 145.062 75.6608C139.165 72.5599 132.651 70.2685 125.52 68.7868C118.359 67.2898 110.847 66.6559 102.985 66.885C83.801 67.435 66.903 70.1005 52.2905 74.8817C39.9484 78.9297 29.5338 84.3754 21.0467 91.2187Z" fill="#0D131A"/>
<path d="M23.8349 155.627C22.9816 156.147 22.1512 157.262 21.3436 158.973C20.4599 160.806 20.2541 162.196 20.7265 163.143C22.0826 165.862 26.9052 167.527 35.1942 168.138C41.9595 168.627 48.5572 168.405 54.9873 167.473C59.8022 166.786 63.9772 165.74 67.5122 164.334C69.5692 163.525 71.9081 162.326 74.5289 160.737C76.2507 159.714 77.5002 159.064 78.2773 158.789C79.5724 158.346 80.898 158.262 82.2542 158.537C96.0895 161.394 107.136 162.333 115.395 161.356C123.669 160.363 131.729 157.147 139.576 151.709C150.837 143.904 158.79 135.533 163.438 126.597C168.1 117.645 169.045 108.923 166.272 100.43C163.026 90.5008 155.514 82.5423 143.736 76.5544C131.958 70.5664 118.381 67.7939 103.007 68.2369C75.7784 69.0312 54.4006 73.2167 38.874 80.7933C23.3473 88.3851 11.988 100.201 4.79604 116.24C1.48958 123.587 2.9371 131.584 9.13863 140.23C11.409 143.392 14.1136 146.34 17.2524 149.074C19.8884 151.366 22.174 152.985 24.1091 153.932C26.8214 155.276 27.7965 156.002 27.0347 156.109C26.5319 156.185 25.4653 156.025 23.8349 155.627Z" fill="#5DC1CF"/>
<path d="M139.576 151.709L142.502 149.601C134.061 149.616 124.354 148.555 113.384 146.416L84.5169 139.932C82.9323 146.271 80.8905 152.549 78.3916 158.766C79.6563 158.339 80.9438 158.262 82.2542 158.537C96.0896 161.394 107.137 162.333 115.395 161.356C123.669 160.363 131.729 157.147 139.576 151.709Z" fill="#50A8B4"/>
<path d="M21.4801 133.539C20.962 131.171 21.4877 128.643 23.0571 125.955C24.4742 123.526 26.4626 121.403 29.0225 119.585C31.5519 117.767 33.9593 116.729 36.2449 116.469C38.7286 116.179 40.5342 116.904 41.6617 118.646C41.3418 118.111 41.4789 117.24 42.0731 116.034C42.6979 114.766 43.7187 113.391 45.1358 111.909C48.6861 108.228 53.2115 105.303 58.7121 103.134C65.645 100.384 73.0274 99.3987 80.8593 100.178C90.4435 101.14 100.18 104.73 110.069 110.947C114.015 113.421 118.168 114.101 122.525 112.986C126.03 112.07 130.014 109.847 134.479 106.318C135.744 105.31 139.652 101.858 146.204 95.9617C150.958 91.6693 154.881 88.6448 157.975 86.8881C152.169 80.8085 144.452 76.1113 134.822 72.7966C125.024 69.436 114.419 67.9161 103.007 68.2369C75.7777 69.0312 54.4 73.2167 38.8733 80.7933C23.3466 88.3851 11.9874 100.201 4.79539 116.24C1.48894 123.587 2.93646 131.584 9.138 140.23C11.4083 143.392 14.1129 146.34 17.2518 149.074C19.8878 151.366 22.1734 152.985 24.1085 153.932C26.8207 155.276 27.7959 156.002 27.0341 156.109C26.5312 156.185 25.4646 156.025 23.8342 155.627C22.981 156.147 22.1505 157.262 21.343 158.973C20.4592 160.806 20.2535 162.196 20.7259 163.143C21.4115 164.533 23.0724 165.656 25.7084 166.511C28.0245 167.275 30.9957 167.802 34.6221 168.092C34.6983 165.526 35.2774 163.242 36.3592 161.241C37.2582 159.607 38.2715 158.469 39.399 157.827C28.9158 148.295 22.9429 140.199 21.4801 133.539Z" fill="#50A8B4"/>
<path d="M28.1549 164.014C26.6464 165.786 25.9684 167.053 26.1207 167.817C26.3493 168.871 26.7226 169.994 27.2407 171.185C27.9263 172.713 28.5511 173.469 29.1148 173.454C30.6233 173.423 32.2689 173.026 34.0517 172.262C35.6516 171.59 37.1829 170.704 38.6457 169.604C38.8742 169.452 39.0114 169.276 39.0571 169.077C39.1485 168.711 38.9276 168.169 38.3943 167.451C34.8135 162.776 32.5356 160.622 31.5604 160.989C30.7224 161.31 29.5872 162.318 28.1549 164.014Z" fill="#0D131A"/>
<path d="M28.6339 164.999C27.4454 166.481 26.9045 167.504 27.0111 168.069C27.1483 168.772 27.4911 169.559 28.0396 170.429C28.6187 171.3 29.0834 171.735 29.4338 171.735C30.15 171.735 31.5366 171.422 33.5936 170.796C35.8335 170.093 37.1743 169.482 37.6162 168.963C37.54 168.52 36.9534 167.596 35.8563 166.19C34.6373 164.648 33.525 163.54 32.5194 162.868C32.0013 162.517 31.6509 162.364 31.468 162.41C30.7519 162.685 29.8072 163.548 28.6339 164.999Z" fill="white"/>
<path d="M31.4453 162.433C30.7292 162.723 29.7845 163.586 28.6112 165.022C27.4379 166.503 26.9046 167.519 27.0113 168.069C27.1484 168.695 27.4456 169.391 27.9027 170.154C28.5731 167.542 29.754 164.968 31.4453 162.433Z" fill="#DBDCDC"/>
<path d="M16.7494 159.912C14.6009 162.051 13.6791 163.502 13.9838 164.266C14.5781 165.732 16.4141 166.694 19.492 167.153C20.6958 167.336 21.7319 167.359 22.6004 167.221C23.4994 167.084 23.9184 166.817 23.8575 166.419C23.7051 165.396 23.2937 163.609 22.6233 161.058C21.9681 158.522 21.5795 157.231 21.4576 157.185C20.4824 156.819 18.913 157.728 16.7494 159.912Z" fill="#0D131A"/>
<path d="M22.4406 165.48L22.4863 165.068C22.4863 164.319 22.2197 163.082 21.6864 161.356C21.214 159.798 20.8255 158.751 20.5207 158.217C19.957 158.553 19.0427 159.469 17.7781 160.966C16.4524 162.54 15.7896 163.571 15.7896 164.059V164.082C15.8201 164.388 16.2924 164.754 17.2067 165.182C18.1971 165.656 19.218 165.954 20.2693 166.076C21.5492 166.229 22.273 166.03 22.4406 165.48Z" fill="#DBDCDC"/>
<path d="M41.2277 156.865L31.9026 156.086C31.0036 155.963 30.5693 156.055 30.5998 156.361C30.6303 156.636 30.9731 156.918 31.6283 157.208C32.4664 157.59 35.4681 157.858 40.6335 158.01C46.3169 158.194 50.0729 157.919 51.9014 157.186L51.6957 156.567C50.2177 157.056 46.7283 157.155 41.2277 156.865Z" fill="#0D131A"/>
<path d="M40.4979 108.037C40.3303 107.013 40.117 106.502 39.8579 106.502C39.5837 106.502 39.4618 107.013 39.4922 108.037C39.7817 115.293 41.4045 121.265 44.3605 125.955C47.5146 130.95 52.4134 134.838 59.0568 137.618L59.4453 136.678C53.4876 134.188 48.8859 130.011 45.6404 124.145C43.2634 119.852 41.5493 114.483 40.4979 108.037Z" fill="#0D131A"/>
<path d="M113.224 60.7672L112.744 61.2025L134.16 76.2564C134.526 76.4856 138.244 77.7382 145.314 80.0142C152.46 82.2902 156.193 83.3977 156.513 83.3366C156.787 83.2755 157.488 81.2515 158.616 77.2646L160.924 68.993L163.644 85.3759C170.044 87.3158 173.381 88.1789 173.655 87.965C173.807 87.8428 173.883 86.4222 173.883 83.7032L173.929 76.3481L176.877 89.9126L180.077 90.9437C182.256 91.6006 183.468 91.8297 183.711 91.6311C183.955 91.4325 184.283 90.18 184.694 87.8734L185.654 82.5346L188.602 92.9601C191.376 94.3502 192.937 94.9077 193.288 94.6327C193.486 94.48 193.638 93.6246 193.745 92.0665L194.042 88.1254L196.145 95.618C200.03 96.5193 202.049 96.8324 202.202 96.5574C202.308 96.3741 201.798 94.8313 200.67 91.929L198.156 85.4217L207.116 94.4036C207.679 94.9383 207.992 95.0146 208.053 94.6327L207.961 93.8766L203.733 81.5723L195.436 77.1501L202.362 79.0289L196.488 71.3072L186.5 66.8621L191.962 67.9619C194.05 68.3896 195.147 68.5271 195.254 68.3743C195.375 68.2063 193.616 66.5871 189.974 63.5168C186.347 60.477 184.328 58.8883 183.917 58.7508L179.689 58.4301L173.541 58.1322C175.293 57.5212 176.756 56.9025 177.929 56.2762L178.752 55.9325C178.782 55.8867 178.493 55.7034 177.883 55.3826C165.892 49.135 154.266 46.3854 143.005 47.1339C131.227 47.913 121.3 52.4574 113.224 60.7672Z" fill="#0D131A"/>
<path d="M176.512 55.8867C164.337 50.3265 152.986 47.9894 142.457 48.8753C131.913 49.746 122.557 53.8169 114.39 61.088L135.646 75.4316C148.796 79.9837 155.53 82.191 155.85 82.0535C156.079 81.9466 156.902 79.6171 158.319 75.065C159.736 70.4977 160.498 67.6946 160.604 66.6559C160.726 65.5866 160.894 65.1971 161.107 65.4873C161.351 65.7776 161.686 66.8698 162.113 68.7639C162.707 71.3454 163.515 76.6078 164.536 84.551L172.672 86.6819L173.015 72.0863C173.061 70.8643 173.137 70.2227 173.244 70.1616C173.365 70.07 173.624 70.681 174.021 71.9947C174.584 73.843 175.819 79.5407 177.723 89.0878L182.957 90.3939C184.1 85.7654 184.816 82.4048 185.106 80.3121C185.304 78.922 185.479 78.311 185.631 78.4791L186.088 80.2892L189.403 92.0894L192.351 92.6852L192.831 89.7294C193.105 87.988 193.296 86.6285 193.402 85.6508C193.524 84.4746 193.631 83.8865 193.722 83.8865C193.814 83.9018 194.035 84.467 194.385 85.5821C194.827 87.0485 195.68 90.096 196.945 94.7244L200.67 95.2973L196.442 83.6116C196.046 82.5881 196.061 82.191 196.488 82.4201L197.265 83.0846L206.293 92.1353L202.91 82.2826C196.617 78.7998 192.656 76.6918 191.025 75.9586C188.42 74.7671 188.542 74.454 191.391 75.0192C192.625 75.2636 194.134 75.6455 195.916 76.1648L199.756 77.2876L195.848 72.1321L189.905 69.4971L182.386 66.1289C181.136 65.5637 180.504 65.2353 180.489 65.1436C180.474 65.0062 181.197 65.0138 182.66 65.1665L187.414 65.9227L191.78 66.7475L183.506 59.7361L177.678 59.4154L170.867 59.0029C170.059 58.9266 169.648 58.8349 169.632 58.728C169.632 58.621 169.998 58.3843 170.729 58.0177C171.187 57.7885 172.063 57.4678 173.358 57.0553C174.714 56.6276 175.765 56.2381 176.512 55.8867Z" fill="#00A63C"/>
<path d="M159.188 61.2484C159.599 61.2484 160.208 60.7978 161.016 59.8965L163.622 57.0324C166.273 54.3592 168.939 53.2823 171.621 53.8016C160.452 49.4329 150.03 47.8671 140.354 49.1045C130.664 50.3265 122.009 54.321 114.39 61.088L134.96 74.9733C137.536 71.3378 141.071 68.2216 145.566 65.6248C150.213 62.921 154.754 61.4622 159.188 61.2484Z" fill="#009233"/>
<path d="M124.628 56.2763L120.354 60.034L122.023 60.4694C123.303 60.0417 125.04 59.6445 127.234 59.2779C131.577 58.5752 136.163 58.3766 140.993 58.6821C156.337 59.6445 171.186 65.4415 185.539 76.0732L186.705 76.921C187.268 77.2417 187.017 76.7911 185.95 75.5691C179.337 67.9467 170.789 62.3406 160.306 58.7509C148.955 54.8709 137.062 54.0461 124.628 56.2763Z" fill="#0D131A"/>
<path d="M122.617 59.4154C131.379 57.5823 139.249 57.1241 146.227 58.0406C157.153 59.4765 168.649 64.1126 180.717 71.9488C174.104 65.747 165.967 61.3324 156.307 58.7051C146.296 55.9708 135.737 55.4667 124.629 57.1928L124.24 57.926C123.875 58.4759 123.334 58.9724 122.617 59.4154Z" fill="#00A63C"/>
<path d="M124.628 57.1928L124.239 57.926C123.874 58.4759 123.333 58.9724 122.617 59.4153C128.468 58.178 133.641 57.5518 138.136 57.5365C144.84 57.4907 151.636 58.6134 158.523 60.9047L159.963 59.8049C154.66 58.0176 149.061 56.8949 143.164 56.4366C137.1 55.9631 130.921 56.2152 124.628 57.1928Z" fill="#009233"/>
<path d="M74.0257 43.5137L73.8657 43.5824L73.7743 43.7428C72.6163 45.4537 72.0068 47.2638 71.9459 49.1732C71.8697 51.0979 72.3496 52.9539 73.3858 54.7411C75.458 58.3155 79.2902 61.1109 84.8822 63.1273C91.5408 65.5102 99.7308 66.3351 109.452 65.6019C110.747 65.495 111.562 64.9374 111.898 63.9292C112.34 62.6003 111.806 60.7061 110.298 58.2468C108.789 55.8027 106.648 53.351 103.875 50.8917C100.295 47.7144 96.4701 45.2933 92.4017 43.6282C85.7126 40.8787 79.5873 40.8405 74.0257 43.5137Z" fill="#00A63C"/>
<path d="M74.7813 44.6593C73.7756 46.2022 73.2728 47.8214 73.2728 49.5169C73.2728 51.075 73.6994 52.5873 74.5527 54.0537C76.5031 57.4296 80.1752 60.0646 85.5692 61.9587C91.984 64.1889 99.915 64.9527 109.362 64.25C110.063 64.2042 110.482 63.9522 110.619 63.4939C110.954 62.5468 110.444 60.9964 109.088 58.8425C107.625 56.536 105.591 54.2217 102.985 51.8999C99.5874 48.8906 95.9609 46.5764 92.1059 44.9572C85.7673 42.3146 79.9924 42.2153 74.7813 44.6593Z" fill="#009233"/>
<path d="M93.6131 25.8019C91.556 26.8712 90.1999 28.2307 89.5448 29.8804C87.183 35.8989 85.8878 41.3217 85.6593 46.1487C85.4002 51.3881 86.3068 57.1928 88.3791 63.5626C88.8667 65.0749 90.0323 66.4802 91.876 67.7786C93.7959 69.1534 96.1577 70.1845 98.9613 70.8719C102.877 71.8343 106.671 72.0328 110.343 71.4676C114.793 70.7803 118.175 68.993 120.491 66.106C124.956 60.4999 126.487 53.1906 125.085 44.1782C124.598 41.0314 123.775 37.9076 122.617 34.8067C121.748 32.4238 120.926 30.6213 120.149 29.3992C118.808 27.2454 116.187 25.6491 112.286 24.6104C108.782 23.6786 105.14 23.3884 101.361 23.7397C98.2528 24.0452 95.6701 24.7326 93.6131 25.8019Z" fill="#0D131A"/>
<path d="M90.8021 30.3845C88.5317 36.1433 87.2975 41.5737 87.0994 46.6757C86.8709 52.0068 87.7394 57.5365 89.705 63.2647C90.1316 64.502 91.183 65.6935 92.8591 66.8392C94.6266 68.0307 96.775 68.9395 99.3044 69.5658C103.098 70.5129 106.702 70.742 110.115 70.2532C114.382 69.6575 117.498 67.9848 119.463 65.2353C123.303 59.8583 124.613 52.8546 123.394 44.224C122.952 41.1842 122.229 38.1902 121.223 35.242C120.431 32.9049 119.699 31.1941 119.029 30.1095C117.81 28.1695 115.387 26.7413 111.761 25.8248C108.47 24.9999 105.041 24.7555 101.476 25.0915C98.6721 25.3512 96.3332 25.947 94.459 26.8788C92.5696 27.8258 91.3506 28.9944 90.8021 30.3845Z" fill="#C28600"/>
<path d="M90.8027 30.3845C88.8829 35.2879 87.702 39.9239 87.2601 44.2927C86.8182 48.86 87.1382 53.4809 88.22 58.1551C94.2235 53.5878 100.326 49.6238 106.527 46.2632C114.634 41.8945 120.096 40.2906 122.915 41.4515C122.412 38.9616 121.734 36.5634 120.881 34.2568C120.195 32.3932 119.578 31.0108 119.03 30.1095C117.811 28.1695 115.388 26.7413 111.761 25.8248C108.47 24.9999 105.042 24.7555 101.476 25.0915C98.6727 25.3512 96.3338 25.947 94.4597 26.8788C92.5703 27.8258 91.3513 28.9944 90.8027 30.3845Z" fill="#986A00"/>
<path d="M96.3321 37.35C96.1492 37.2889 95.4178 38.045 94.1379 39.6184L91.9438 42.3451C90.4962 40.344 89.262 38.7783 88.2411 37.6479L87.784 37.1438L87.6698 37.8312C87.2431 40.1989 86.7936 42.2687 86.3213 44.0406C86.1384 45.1099 86.2298 46.836 86.5955 49.219L86.4812 51.3957L87.0755 52.2893L88.2869 55.1764L90.1382 59.4153L90.5039 60.1256L93.3151 51.8082L97.292 59.759L100.698 53.6183L104.674 59.6215L108.674 54.2828L112.103 61.1567L115.554 53.5954L119.234 57.9031L119.873 58.5217L120.491 57.7656L124.467 51.9227V51.8082C124.544 47.1186 123.911 42.2 122.57 37.0521L122.388 36.3877L119.416 40.3516L117.634 38.404C116.613 37.3042 115.98 36.7848 115.737 36.8459C115.493 36.907 115.059 38.236 114.434 40.8328L113.337 45.4842L110.754 41.1994C109.322 38.7859 108.514 37.5715 108.331 37.5562C108.148 37.541 107.6 38.4498 106.686 40.2829L105.063 43.5365L103.303 40.3975C102.328 38.6255 101.749 37.7243 101.566 37.6937C101.368 37.6632 100.842 38.6942 99.989 40.787L98.3662 44.7739L97.3834 40.6495C96.8806 38.5109 96.5302 37.4111 96.3321 37.35Z" fill="#0D131A"/>
<path d="M88.2193 38.6561C87.5793 42.2764 87.2593 45.1481 87.2593 47.2714L87.3279 49.1274L87.6707 51.3041C87.7621 51.4416 88.1431 52.4651 88.8135 54.3745L90.3677 58.3843L91.8305 53.3663C92.6228 50.6473 93.0647 49.2954 93.1561 49.3107C93.2628 49.3107 93.9256 50.6855 95.1446 53.435L97.3158 58.3155L99.1215 54.4432C100.081 52.3199 100.615 51.2889 100.721 51.35C100.813 51.4111 101.453 52.5262 102.641 54.6953L104.721 58.453L106.984 54.9015C108.294 52.8851 109.003 51.9151 109.109 51.9915C109.216 52.0679 109.681 53.2365 110.504 55.4972L112.081 59.5987L113.772 55.1764C114.701 52.7324 115.227 51.4722 115.349 51.3958C115.471 51.3194 116.141 52.1901 117.36 54.0079L119.486 57.147L123.783 51.6937L123.806 51.0979C123.806 46.9736 123.234 42.5819 122.091 37.9229L121.017 39.6414L120.103 41.1536L119.646 41.7494C119.554 41.8105 119.379 41.7112 119.12 41.4515C117.749 40.0767 116.797 39.1831 116.263 38.7707L115.029 43.0554C114.282 45.5453 113.787 46.8437 113.543 46.9506C113.315 47.0576 112.431 45.9654 110.892 43.6741L108.264 39.6643L106.687 42.5055C105.803 44.033 105.27 44.7892 105.087 44.7739C104.904 44.7586 104.348 44.0407 103.418 42.6201L101.727 39.9163L99.7843 43.4908L98.2072 46.5153L96.0131 39.2518L91.8762 43.3762L91.6476 43.0554L90.4591 41.4744L88.2193 38.6561Z" fill="#C28600"/>
<path d="M118.596 40.9474C117.407 39.7712 116.63 39.0456 116.264 38.7706L115.396 41.8639L118.596 40.9474Z" fill="#986A00"/>
<path d="M122.091 37.9229C121.755 38.3811 121.23 39.2595 120.513 40.5579L122.616 40.26L122.091 37.9229Z" fill="#986A00"/>
<path d="M96.0139 39.2518L91.877 43.3762L91.6484 43.0554L90.46 41.4744L88.2201 38.6561C87.5801 42.2764 87.2601 45.1481 87.2601 47.2714L87.3287 49.1274L87.6715 51.3041L88.5629 53.6413L89.8886 57.2844L90.9171 56.5741C92.3036 51.7166 93.0503 49.2954 93.1569 49.3107C93.2636 49.3107 93.9416 50.7084 95.1911 53.5038C98.4823 51.1208 101.019 49.3489 102.802 48.1879C105.682 46.3243 108.371 44.8121 110.87 43.6512L108.265 39.6643L106.688 42.5055C105.804 44.033 105.27 44.7892 105.088 44.7739C104.905 44.7586 104.349 44.0407 103.419 42.6201L101.728 39.9163L99.7851 43.4908L98.208 46.5153L96.0139 39.2518Z" fill="#986A00"/>
<path d="M90.3665 58.3843L90.915 56.5741L89.8865 57.2844L90.3665 58.3843Z" fill="#C28600"/>
<path d="M53.044 16.4762L52.3583 17.3927L103.029 25.1374L152.146 12.8789L148.307 8.61702C145.595 5.94382 143.629 4.69888 142.41 4.88218C142.044 4.94329 141.366 5.18769 140.376 5.6154L137.77 6.71523L139.347 4.97384C139.881 4.34755 139.987 3.96566 139.667 3.82818C138.067 3.06441 135.82 2.30828 132.925 1.55979C128.186 0.307205 124.087 -0.0975928 120.628 0.345394C116.072 0.941134 110.023 5.56194 102.481 14.2078C100.5 10.8472 99.0678 8.533 98.1841 7.26515C95.7766 3.84346 93.6891 1.80419 91.9216 1.14735C89.8036 0.353031 86.8552 -0.0288535 83.0764 0.00169727C79.6633 0.032248 77.8425 0.230828 77.6139 0.597438C77.492 0.811293 77.7891 1.53687 78.5053 2.77418L80.0366 5.4321C75.9683 3.12552 73.477 1.99514 72.5628 2.04096C69.7591 2.25482 65.7213 4.66069 60.4492 9.25858C56.7771 12.4511 54.3087 14.857 53.044 16.4762Z" fill="#0D131A"/>
<path d="M63.5357 8.61699C59.3607 11.8706 56.4657 14.4675 54.8505 16.4074L102.962 23.7625L150.113 12.3289C149.153 11.0916 148.148 9.99941 147.096 9.05234C145.527 7.61645 144.095 6.72284 142.799 6.37151C141.611 6.70757 139.363 7.5248 136.057 8.82321L133.817 9.71682L137.931 4.28642C135.554 3.46154 133.192 2.81234 130.846 2.3388C126.96 1.52921 123.616 1.30771 120.812 1.67432C117.765 2.07148 113.917 4.40862 109.27 8.68573C106.939 10.8243 104.897 12.9476 103.145 15.0556L102.505 15.8117L102.025 14.9639L98.3679 9.25856C95.5947 5.37861 93.2863 3.09493 91.4426 2.40754C89.6141 1.70487 87.3667 1.30008 84.7001 1.19315C82.4451 1.1015 80.5861 1.21606 79.1233 1.53684C79.9309 2.51447 80.6699 3.6754 81.3404 5.01963L82.1403 6.82977L82.7346 8.57116L81.1575 7.65464L77.6149 5.4779C75.1769 4.04201 73.6837 3.29351 73.1351 3.23241C71.5352 3.07966 68.3354 4.87452 63.5357 8.61699Z" fill="#E85382"/>
<path d="M59.2378 12.1686C57.1046 14.0474 55.6418 15.4604 54.8495 16.4075L102.961 23.7626L147.118 13.0622C140.216 12.9247 134.829 12.9858 130.959 13.2455C125.001 13.6121 119.607 14.4904 114.777 15.8805C116.149 12.0311 118 8.77742 120.331 6.1195C122.358 3.79764 124.377 2.30829 126.388 1.65145C124.346 1.45286 122.487 1.4605 120.811 1.67436C117.764 2.07152 113.916 4.40865 109.269 8.68576C106.938 10.8243 104.896 12.9476 103.144 15.0556L102.504 15.8117L102.481 15.7659C101.658 16.9116 100.828 17.6219 99.9896 17.8968C97.5974 18.5689 95.2128 18.4926 92.8358 17.6677C91.3578 17.1636 89.095 15.9798 86.0476 14.1162C82.6802 12.0693 79.907 10.5876 77.7281 9.67103C74.056 8.12821 70.1476 7.15822 66.0031 6.76106C63.8394 8.30388 61.5843 10.1064 59.2378 12.1686Z" fill="#C94772"/>
<path d="M94.2994 7.70052C93.5223 8.12823 92.8367 8.69342 92.2424 9.39608C91.831 9.85435 91.5034 10.3202 91.2596 10.7938C91.0006 11.3131 90.9168 11.695 91.0082 11.9394C91.1301 12.2449 91.831 12.6039 93.1109 13.0164C94.5585 13.4593 95.9831 13.6732 97.385 13.6579C99.0458 13.6274 100.387 13.2684 101.408 12.581L101.613 12.4435L101.476 12.2373C100.44 10.557 99.3048 8.91491 98.0706 7.31099L98.0021 7.24225L97.9335 7.21934C96.6993 6.91383 95.4879 7.07423 94.2994 7.70052Z" fill="#0D131A"/>
<path d="M93.0191 9.28146C92.5467 9.755 92.1582 10.2515 91.8534 10.7708C91.6096 11.2138 91.4877 11.5269 91.4877 11.7103V11.7332C91.5639 11.8554 91.8687 12.0234 92.402 12.2373L94.5047 12.833L97.3845 13.1309C98.8168 13.1003 99.9901 12.8177 100.904 12.2831C99.7767 10.5264 98.7178 8.99887 97.7273 7.70046C96.7674 7.47133 95.8151 7.57062 94.8704 7.99833C94.1999 8.28856 93.5828 8.71627 93.0191 9.28146Z" fill="#FCEEF4"/>
<path d="M75.2154 8.2504C74.9564 8.09765 74.4002 8.22749 73.5469 8.63993C71.8861 9.43425 70.2024 10.6334 68.4958 12.2373C66.3169 14.33 64.9608 16.4304 64.4275 18.5384L64.3589 18.7904L73.0212 20.1194L73.1127 20.0965C74.9259 19.2258 76.3277 18.0954 77.3181 16.7053C78.0647 15.7277 78.24 14.3988 77.8438 12.7185C77.5848 11.7256 77.1657 10.7556 76.5867 9.80849C76.0534 8.95307 75.5963 8.43371 75.2154 8.2504Z" fill="#0D131A"/>
<path d="M75.0089 8.70867C74.8261 8.61702 74.2928 8.80033 73.409 9.25859C71.7329 10.1293 70.1254 11.3208 68.5865 12.833C66.7275 14.6814 65.5314 16.5297 64.9981 18.378L72.9519 19.6153C74.6737 18.7599 75.9993 17.6906 76.9288 16.4075C77.3402 15.8576 77.5459 15.1625 77.5459 14.3224C77.5459 13.8641 77.4773 13.3753 77.3402 12.8559C77.0964 11.8936 76.7002 10.9618 76.1517 10.0605C75.6793 9.2815 75.2984 8.83088 75.0089 8.70867Z" fill="#D9CED4"/>
<path d="M77.8885 4.81346L77.9571 5.34046C78.1247 6.31809 78.4675 7.25752 78.9856 8.15877C79.595 9.21277 80.3036 9.93072 81.1111 10.3126L84.6538 10.4043C85.8575 10.114 86.8174 9.70922 87.5336 9.18986C87.9145 8.89963 88.0974 8.62467 88.0821 8.36499C87.9907 7.6776 87.8383 6.99784 87.625 6.32572C87.2288 4.98149 86.7565 4.2941 86.208 4.26355L84.8823 4.14898L80.3569 3.87402H79.9226L80.1512 4.26355C80.6845 5.13424 81.1264 6.00494 81.4768 6.87564L77.8885 4.81346Z" fill="#0D131A"/>
<path d="M86.1859 4.76764L84.8374 4.65308L81.0205 4.40103C81.31 4.93567 81.5766 5.49322 81.8204 6.07369L82.1404 6.82982L82.7347 8.57121L78.7121 6.11951C78.9406 6.89856 79.2758 7.59359 79.7177 8.2046C80.1901 8.892 80.731 9.37317 81.3405 9.64813C82.0871 9.99946 83.0775 10.0682 84.3117 9.85435C85.4393 9.67104 86.3611 9.34262 87.0772 8.86908L87.5801 8.41082C87.5039 7.70815 87.3287 6.95202 87.0544 6.14243C86.7344 5.24118 86.4449 4.78292 86.1859 4.76764Z" fill="#FCEEF4"/>
<path d="M113.91 4.2177L113.613 4.42391L113.887 4.65304C115.075 5.55429 116.767 6.61593 118.961 7.83796C121.566 9.3044 123.128 9.93069 123.646 9.71684C124.18 9.50298 124.637 8.85378 125.018 7.76923C125.444 6.54719 125.399 5.5161 124.88 4.67596C124.439 3.97329 123.799 3.31645 122.961 2.70543C121.985 2.00276 120.942 1.53686 119.829 1.30773L119.784 1.28482L119.715 1.30773C118.009 1.78127 116.073 2.75126 113.91 4.2177Z" fill="#0D131A"/>
<path d="M123.371 8.89198C123.707 8.76977 124.011 8.31915 124.286 7.5401C124.453 6.97492 124.537 6.47846 124.537 6.05075C124.537 5.62304 124.453 5.25643 124.286 4.95093C123.905 4.32463 123.318 3.73653 122.526 3.18662C121.657 2.5756 120.743 2.16317 119.783 1.94931C118.275 2.36175 116.568 3.20189 114.663 4.46975C115.867 5.34045 117.52 6.31807 119.623 7.40263C121.802 8.533 123.051 9.02945 123.371 8.89198Z" fill="#FCEEF4"/>
<path d="M117.589 6.3028C119.296 5.12659 121.002 4.13369 122.709 3.3241C121.764 2.62143 120.789 2.16317 119.783 1.94931C118.275 2.36175 116.568 3.20189 114.664 4.46975C115.456 5.05022 116.431 5.66123 117.589 6.3028Z" fill="#D9CED4"/>
<path d="M133.59 4.44683C131.746 4.32463 130.58 4.47738 130.093 4.90509C129.697 5.25643 129.567 5.91327 129.704 6.87562C129.841 7.80742 130.192 8.74686 130.756 9.69393C132.173 12.1074 133.841 12.9934 135.761 12.3518C137.559 11.8936 138.892 10.114 139.761 7.0131L139.601 6.4861L136.538 7.65467L138.001 5.72997L137.795 5.56957C136.927 4.92801 135.525 4.55376 133.59 4.44683Z" fill="#0D131A"/>
<path d="M133.063 4.95093C131.601 4.92038 130.717 5.03494 130.412 5.29463C130.26 5.46266 130.306 6.01257 130.549 6.94437C130.824 7.99837 131.243 8.95308 131.806 9.80851C132.903 11.4735 134.153 12.0693 135.555 11.5957H135.578C136.934 11.2597 137.962 9.99945 138.663 7.81507L133.818 9.71685L136.88 5.66124C135.936 5.23352 134.663 4.99676 133.063 4.95093Z" fill="#FCEEF4"/>
<path d="M106.459 20.8297L106.093 21.013V30.2012L106.893 30.0408C114.39 29.3687 123.098 29.552 133.017 30.5907C152.795 32.6834 169.168 37.9534 182.134 46.4007L184.306 47.8213C184.748 48.0046 184.9 47.6227 184.763 46.6757C184.199 42.9179 183.094 38.5263 181.449 33.5006C179.986 29.0402 179.034 26.6191 178.592 26.2372C178.333 26.0233 177.342 25.504 175.621 24.6791L170.341 22.1128L175.872 23.5335C177.853 24.0375 178.797 24.175 178.706 23.9459C178.493 23.4265 177.472 21.8913 175.643 19.3404C173.617 16.5144 172.284 14.941 171.644 14.6203C162.197 9.73213 149.832 8.72396 134.549 11.5957C128.957 12.6497 123.342 14.162 117.704 16.1325C113.209 17.7059 109.461 19.2716 106.459 20.8297Z" fill="#0D131A"/>
<path d="M107.442 21.8379V28.5743C115.533 27.2301 124.622 27.0926 134.709 28.1619C152.658 30.0866 168.817 35.8225 183.186 45.3696C182.683 42.8339 181.669 39.2747 180.146 34.6921C179.186 31.7592 178.31 29.2693 177.517 27.2224L172.352 24.4041L165.975 20.8068L164.192 19.6382C164.086 19.5007 164.482 19.5007 165.381 19.6382L170.409 20.6922L175.826 21.9295C173.86 18.9661 172.207 16.9039 170.866 15.743C158.478 11.7408 145.58 10.9694 132.172 13.4287C123.441 15.0479 115.197 17.851 107.442 21.8379Z" fill="#E85382"/>
<path d="M120.468 16.4533C115.866 17.9503 111.523 19.7452 107.44 21.8379V28.5743C113.078 27.6578 119.5 27.3294 126.707 27.5891C127.774 24.366 129.511 21.4102 131.918 18.7217C134.219 16.1402 136.924 14.0245 140.032 12.3748C133.48 12.9705 126.959 14.33 120.468 16.4533Z" fill="#C94772"/>
<path d="M139.348 11.5957L139.233 11.6186L139.165 11.6874L136.262 15.3764C135.561 16.3693 135.241 17.0337 135.302 17.3698L135.462 17.6677C145.9 21.1963 151.568 22.7926 152.467 22.4565C153.183 22.2121 154.783 21.1734 157.266 19.3403C160.055 17.3087 161.365 15.9721 161.198 15.3305C161.106 15.0097 160.672 14.6584 159.895 14.2765L157.449 13.2225C155.728 12.5351 154.501 11.9394 153.77 11.4353L153.724 11.3895H153.655C148.947 11.0381 144.178 11.1069 139.348 11.5957Z" fill="#0D131A"/>
<path d="M139.669 12.3977C137.368 15.1931 136.217 16.8046 136.217 17.2323C136.781 17.5531 139.432 18.378 144.171 19.7069C149.001 21.0817 151.63 21.708 152.056 21.5858C152.818 21.2956 154.311 20.3256 156.536 18.6758C158.837 16.965 159.987 15.9034 159.987 15.4909V15.468C159.942 15.2542 159.606 14.9868 158.982 14.6661L157.016 13.7954C155.614 13.1996 154.586 12.7108 153.931 12.3289C149.314 11.9318 144.56 11.9547 139.669 12.3977Z" fill="#FCEEF4"/>
<path d="M159.096 25.229C157.557 25.5803 156.376 25.8858 155.553 26.1455C154.791 26.3746 154.281 26.894 154.022 27.7036C153.915 28.0397 153.862 28.4368 153.862 28.8951C153.862 29.5672 153.984 30.2622 154.228 30.9802C154.456 31.6676 154.761 32.248 155.142 32.7216L155.187 32.7903L155.279 32.8132C158.723 33.852 162.052 35.0358 165.267 36.3648L165.724 36.6168L168.924 33.0194C171.027 30.5601 172.009 29.2006 171.872 28.9409C171.598 28.4674 170.28 27.6043 167.918 26.3517C165.419 25.0228 163.743 24.4041 162.89 24.4958L159.096 25.229Z" fill="#0D131A"/>
<path d="M155.667 32.4237C159.035 33.4625 162.196 34.5852 165.153 35.792L167.552 33.1111C169.64 30.8656 170.684 29.5672 170.684 29.2159V29.193C170.47 28.8111 169.32 28.0626 167.232 26.9475C165.038 25.7713 163.583 25.2214 162.867 25.2978L159.256 25.9852C157.778 26.3365 156.643 26.6344 155.85 26.8788C155.271 27.0621 154.89 27.4592 154.707 28.0702C154.601 28.3757 154.547 28.7118 154.547 29.0784C154.547 29.6589 154.654 30.2623 154.867 30.8886C155.081 31.4843 155.347 31.996 155.667 32.4237Z" fill="#FCEEF4"/>
<path d="M34.1652 27.5662C33.4643 31.5225 33.2738 33.8673 33.5938 34.6005C33.7309 34.9213 34.5537 34.6845 36.0622 33.8902L40.1991 31.7135L35.2394 36.5939C33.289 38.5186 32.2377 39.7025 32.0853 40.1455C31.9025 40.6648 32.1082 42.0396 32.7024 44.2698C33.2662 46.4542 33.7005 47.6686 34.0052 47.913C34.4014 48.2491 35.9936 47.4929 38.782 45.6446L36.2679 49.0128C35.4146 50.1585 34.9804 50.823 34.9651 51.0063C34.9651 51.2965 36.1765 52.1825 38.5992 53.6642C44.0846 48.0428 50.8042 42.8645 58.758 38.1291C74.6199 28.6889 89.0494 25.863 102.047 29.6513L102.618 29.8117L102.847 29.2618C103.35 28.1008 103.578 26.5733 103.532 24.6791L103.281 22.067L103.235 21.8379L103.052 21.6775C100.934 19.7834 97.8108 17.8587 93.6815 15.9034C88.5771 13.4899 83.2822 11.7485 77.7968 10.6792C62.6358 7.70054 49.25 10.3355 37.6393 18.5843C36.1308 20.0507 34.9728 23.0447 34.1652 27.5662Z" fill="#0D131A"/>
<path d="M41.9825 43.4907L36.7257 50.8458L38.1199 52.2435C44.6262 45.8279 52.0391 40.3058 60.3586 35.6774C75.4281 27.2606 89.233 24.7631 101.773 28.1848C102.047 27.253 102.185 26.2677 102.185 25.229C102.185 24.2514 102.124 23.3578 102.002 22.5482C99.8533 20.6999 96.7144 18.8439 92.5852 16.9803C87.5417 14.689 82.3305 13.0622 76.9518 12.0998C62.1718 9.44189 49.3878 12.2144 38.5999 20.4173C37.6247 21.6546 36.8019 23.6938 36.1315 26.5351C35.7048 28.3375 35.3696 30.3081 35.1258 32.4466L42.7596 29.1242C44.0243 28.5896 44.6795 28.4292 44.7252 28.6431C44.7557 28.8111 44.3519 29.3381 43.5139 30.2241L33.5945 40.5349L35.1258 46.4465C35.6134 46.1257 36.4972 45.6446 37.7771 45.003L40.6798 43.5366C41.6549 42.9255 42.2416 42.5742 42.4397 42.4826C42.7292 42.3451 42.5768 42.6811 41.9825 43.4907Z" fill="#E85382"/>
<path d="M66.5753 11.1604C69.6989 12.9781 72.434 15.3687 74.7805 18.3322C77.0966 21.265 78.8031 24.4729 79.9002 27.9557C87.6407 26.2448 94.9317 26.3212 101.773 28.1848C102.047 27.253 102.185 26.2677 102.185 25.229C102.185 24.2514 102.124 23.3578 102.002 22.5482C99.0305 19.9819 94.6041 17.5913 88.7225 15.3764C81.2563 12.5504 73.8739 11.1451 66.5753 11.1604Z" fill="#C94772"/>
<path d="M42.7593 29.1242C44.024 28.5896 44.6792 28.4292 44.7249 28.6431C44.7554 28.8111 44.3516 29.3381 43.5135 30.2241L41.0908 32.7445C45.7839 29.1701 50.4007 26.0233 54.9414 23.3043C48.618 22.785 42.4622 23.4189 36.474 25.2061C35.895 27.2988 35.4455 29.7123 35.1255 32.4466L42.7593 29.1242Z" fill="#C94772"/>
<path d="M49.4333 13.5892L49.2962 13.635L49.2733 13.7725C49.06 14.6126 49.1743 15.9416 49.6161 17.7593L50.3932 20.3485C50.5761 20.8679 51.9703 21.4407 54.5758 22.067C57.5014 22.7697 59.8783 22.7926 61.7068 22.1357C62.3925 21.8913 63.4438 21.0894 64.8609 19.7299C66.2932 18.3551 67.0703 17.3927 67.1922 16.8428C67.2379 16.6137 67.2607 16.3846 67.2607 16.1554C67.2607 14.4904 65.9808 12.6726 63.421 10.7021L63.3524 10.6563H63.2381C58.3927 10.9771 53.7911 11.9547 49.4333 13.5892Z" fill="#0D131A"/>
<path d="M54.8498 21.265C57.5163 21.8302 59.6952 21.8149 61.3866 21.2192C62.0265 20.9901 63.0093 20.2798 64.335 19.0883C65.6453 17.9121 66.3463 17.1254 66.4377 16.7282L66.4834 16.1783C66.4834 14.7272 65.3406 13.1156 63.055 11.3437C58.4686 11.6644 54.1184 12.581 50.0044 14.0932L49.9358 14.8035C49.9358 15.5215 50.073 16.4456 50.3472 17.576L51.1015 20.0506C51.5281 20.4172 52.7776 20.822 54.8498 21.265Z" fill="#FCEEF4"/>
<path d="M48.2453 33.2715C46.5844 33.0882 45.5406 33.1646 45.114 33.5006C44.6264 33.8978 44.0626 35.1351 43.4227 37.2125C42.7522 39.4275 42.417 41.3445 42.417 42.9637V43.2845L42.737 43.2158C44.6264 42.8492 46.6149 43.231 48.7024 44.3614L48.8395 44.4302L52.6336 41.6806L52.6107 41.5202C52.4888 40.9703 52.5117 39.9927 52.6793 38.5873C52.8012 37.625 52.8545 36.9376 52.8393 36.5251C52.8088 35.8377 52.6259 35.3107 52.2907 34.9441C51.4832 34.0429 50.1347 33.4853 48.2453 33.2715Z" fill="#0D131A"/>
<path d="M51.8568 40.4891L52.0396 38.5415L52.1768 36.8459C52.1768 36.1891 52.0472 35.7079 51.7882 35.4024C51.0873 34.6234 49.914 34.1727 48.2684 34.0505C46.8818 33.9436 46.0133 34.02 45.6629 34.2797C45.2515 34.6004 44.7486 35.6392 44.1544 37.3958C43.4992 39.3358 43.1487 41.0619 43.103 42.5742C44.9162 42.284 46.798 42.6582 48.7484 43.6969L51.9482 41.3827L51.8568 40.4891Z" fill="#FCEEF4"/>
<path d="M73.3862 17.7594C72.9596 18.126 72.2891 18.9814 71.3749 20.3256C70.3083 21.8684 69.8283 22.8919 69.935 23.396C70.0569 24.0223 71.1083 24.5264 73.0891 24.9082C74.9937 25.2901 76.9517 25.4123 78.963 25.2749H79.0773L81.8657 22.2962C83.7094 20.2493 84.5931 19.0501 84.5169 18.6988C84.4865 18.4849 84.3646 18.3398 84.1512 18.2634L78.8487 17.7135C75.527 17.4844 73.7062 17.4997 73.3862 17.7594Z" fill="#0D131A"/>
<path d="M71.947 20.6693C71.0176 22.0594 70.5833 22.9224 70.6443 23.2585C70.7052 23.5945 71.5433 23.9153 73.1584 24.2208L78.7809 24.5645L80.198 23.1668L82.5293 20.8068C83.3978 19.8597 83.832 19.2334 83.832 18.9279L83.8092 18.8821L83.7635 18.8133L78.7581 18.3092C75.7563 18.1259 74.1031 18.1107 73.7984 18.2634C73.4174 18.5995 72.8003 19.4014 71.947 20.6693Z" fill="#FCEEF4"/>
<path d="M74.2783 18.1947L76.4039 21.3796C77.3486 22.7239 78.0343 23.7855 78.4609 24.5645H78.7809L80.198 23.1668L82.5293 20.8068C83.3978 19.8597 83.832 19.2334 83.832 18.9279L83.8092 18.8821L83.7635 18.8134L79.5351 18.3551L74.2783 18.1947Z" fill="#D9CED4"/>
<path d="M84.0368 9.00655L84.5168 11.0458C86.1167 16.9268 87.6252 22.1281 89.0422 26.6496C89.545 28.2688 91.6173 29.4985 95.259 30.3386C97.7731 30.9038 101.24 31.3086 105.658 31.553L116.629 31.2093C120.56 30.6289 122.884 29.5061 123.6 27.8411C124.911 24.8319 126.099 21.3414 127.166 17.3698C128.217 13.3829 128.476 11.443 127.943 11.5499L123.714 12.0998L119.372 12.6956C119.158 11.4277 118.869 9.93835 118.503 8.2275C118 5.78344 117.642 4.37047 117.429 3.98858C117.216 3.62197 116.134 4.43921 114.184 6.44028L110.618 10.2209C110.207 9.67103 109.231 8.49482 107.693 6.69233L105.041 3.69071C104.874 3.56851 104.356 4.27881 103.487 5.82163L101.727 9.00655L98.7788 5.89037C97.255 4.30173 96.4322 3.52268 96.3103 3.55323C96.1732 3.58378 95.8228 4.47739 95.259 6.23406L94.0476 9.94598L91.6021 6.96728C90.4288 5.57722 89.7279 4.92038 89.4993 4.99676C89.2708 5.08841 88.966 5.86745 88.5851 7.33389L87.8537 10.3126L86.2538 9.64811C85.4767 9.34261 84.9282 9.0982 84.6082 8.9149C84.2273 8.70104 84.0368 8.73159 84.0368 9.00655Z" fill="#0D131A"/>
<path d="M86.6656 11.275L90.8024 25.3894C91.1834 26.5656 92.7757 27.612 95.5793 28.5285C98.3829 29.4298 101.766 29.9873 105.727 30.2012C109.811 30.4303 113.346 30.2241 116.332 29.5825C119.319 28.9562 121.079 28.0397 121.612 26.8329C123.227 23.1668 124.873 18.3933 126.549 12.5123L118.298 14.2995L117.681 10.473C117.254 7.8609 116.988 6.41738 116.881 6.14242C116.774 5.85219 116.012 6.44029 114.595 7.90673L111.67 11.1375L110.778 12.2602L110.001 11.6416C109.392 10.9847 107.838 8.97601 105.339 5.61542C105.217 5.43212 104.615 6.23407 103.533 8.0213L101.956 10.748L96.8592 6.02786C96.7526 5.92093 96.3412 6.96729 95.625 9.16695L94.5736 12.5123L92.4938 10.1293C91.0767 8.52538 90.2768 7.69287 90.0939 7.63177C89.9111 7.57067 89.6216 8.30389 89.2254 9.83143L88.6997 12.1457L86.6656 11.275Z" fill="#D7A400"/>
<path d="M86.1633 10.8625L85.272 10.0147L85.6148 11.2062L89.8431 25.6873C90.3307 27.2301 92.2049 28.5132 95.4656 29.5367C98.3454 30.4379 101.743 30.9955 105.659 31.2093C109.697 31.4384 113.247 31.2399 116.31 30.6136C119.784 29.9109 121.864 28.7882 122.55 27.2454C124.089 23.7167 125.749 18.8821 127.532 12.7414L126.549 12.1456C125.711 13.0774 124.508 14.2231 122.938 15.5826L119.967 17.9885L117.407 14.9181C115.853 13.0392 115 12.0769 114.847 12.0311C114.695 12.0005 113.499 13.1996 111.259 15.6284L107.511 19.7757L105.865 15.6513C104.89 13.2836 104.28 12.0769 104.037 12.0311C103.793 12.0005 103.244 12.8254 102.391 14.5057L100.608 18.0114L98.0483 14.5744C96.5398 12.6039 95.6637 11.6568 95.4199 11.7332C95.1761 11.8096 94.6733 12.7872 93.9114 14.6661L92.5401 17.9885C89.6145 14.521 87.489 12.1456 86.1633 10.8625Z" fill="#0D131A"/>
<path d="M92.3336 18.7904C91.4498 18.0267 89.469 16.0409 86.3911 12.833L88.2881 18.8134L90.4823 25.504C90.9394 26.9399 92.5164 28.3605 95.2134 29.7658C98.2761 31.3697 101.697 32.271 105.476 32.4695C109.407 32.6834 113.064 32.1488 116.446 30.8656C119.479 29.7047 121.307 28.4063 121.932 26.9704C123.364 23.6862 124.888 19.3022 126.503 13.8183C124.903 15.3153 122.899 16.9727 120.492 18.7904C120.157 19.0807 119.882 19.2029 119.669 19.157C119.486 19.1265 119.265 18.905 119.006 18.4926C118.793 18.1565 118.054 17.2935 116.789 15.9034L114.618 13.5892L111.03 17.4386C108.79 19.7757 107.548 20.9366 107.304 20.9214C107.06 20.9061 106.489 19.8368 105.59 17.7135L103.967 13.8183L102.344 16.797C101.476 18.3551 100.927 19.1418 100.699 19.157C100.485 19.1723 99.6703 18.3093 98.2532 16.5679L95.8077 13.4746L94.5277 15.9034L93.3392 18.4009C93.1716 18.8439 93.0497 19.0807 92.9735 19.1112C92.8669 19.1723 92.6536 19.0654 92.3336 18.7904Z" fill="#F9BE00"/>
<path d="M59.5355 57.5365C52.2522 59.6292 47.6353 61.1033 45.685 61.9587C44.5422 62.4475 44.0698 62.7912 44.2679 62.9898L45.9135 63.5168L53.0445 65.6935L45.9592 64.525L41.7538 63.998C41.2052 64.0591 39.7044 65.0978 37.2512 67.1142C34.8589 69.0694 33.6781 70.154 33.7085 70.3678C33.7238 70.5206 34.8209 70.9712 36.9998 71.7197L42.4394 73.5986L35.6056 73.6902L30.9202 73.9193C30.6306 74.0568 29.9602 74.9733 28.9088 76.6689C27.8727 78.3492 27.3775 79.3039 27.4232 79.5331C27.4689 79.7011 28.2765 79.9149 29.8459 80.1746L34.5314 80.9308L29.3888 80.9537L26.6233 81.0453C26.349 81.137 25.4881 82.0306 24.0406 83.7261C22.5626 85.437 21.8693 86.4222 21.9607 86.6819C22.0216 86.8958 22.6921 87.0638 23.972 87.186L27.6289 87.5755L23.2635 87.9192L20.8865 88.24C20.6732 88.4081 20.4217 89.8898 20.1322 92.6852C16.3991 99.3758 14.6011 102.851 14.7383 103.111C14.8145 103.263 16.3687 102.736 19.4008 101.53L25.3662 99.1237L21.2979 106.525C19.1342 110.496 18.1209 112.536 18.2581 112.642L22.075 112.368C24.4977 112.016 25.8462 111.688 26.1204 111.382C26.349 111.138 26.8899 109.809 27.7432 107.395L29.6859 101.919L29.0231 106.868C28.7946 108.686 28.7412 109.679 28.8631 109.847C29.0003 110.061 30.4783 109.755 33.2971 108.931C36.0855 108.121 37.5712 107.579 37.754 107.304L38.7597 104.715L40.3824 100.178L39.811 104.302C39.5977 105.738 39.5672 106.502 39.7196 106.593C39.9634 106.761 43.1403 105.211 49.2504 101.942L49.2962 101.713L51.5589 92.7997L51.3532 98.6655C51.277 100.88 51.3456 102.026 51.5589 102.102C51.8027 102.164 52.7017 101.728 54.2559 100.796L56.7014 99.2841L59.7412 99.307C61.6916 99.2459 62.7963 99.0397 63.0553 98.6884C63.2839 98.3523 63.6648 96.7179 64.1981 93.785L65.638 85.9945L65.6152 93.4413C65.6152 96.1603 65.7218 97.5351 65.9351 97.5656C66.057 97.5809 67.7712 97.0234 71.0777 95.893L80.6314 92.6622L80.6771 92.0665L84.494 90.623L87.9224 89.4315C88.4709 89.3093 88.7985 89.0725 88.9052 88.7212C89.0423 88.2935 89.0575 87.3235 88.9509 85.8112C88.8595 84.5128 88.8366 83.1533 88.8823 81.7327L89.0423 77.7917L91.0079 83.7032C91.785 85.9182 92.3335 87.018 92.6535 87.0027C93.1716 86.9874 96.6152 85.269 102.984 81.8473L101.042 72.3154C103.937 75.0039 106.428 77.1272 108.515 78.6853C111.578 80.9307 113.521 81.7633 114.344 81.1828C117.559 79.0442 119.661 76.8675 120.652 74.6526C121.398 72.9723 121.475 71.3302 120.88 69.7262C119.661 66.442 116.149 63.7459 110.344 61.6379C104.996 59.698 100.066 58.98 95.5562 59.4841L93.4535 58.2239C92.0669 57.4143 90.6879 56.7116 89.3166 56.1159C84.974 54.2217 80.8142 53.3969 76.8373 53.6413C73.6832 53.8398 67.916 55.1383 59.5355 57.5365Z" fill="#0D131A"/>
<path d="M42.0274 65.0748L35.7421 70.047C40.4808 71.712 43.6425 72.8806 45.2272 73.5527C46.4157 74.0568 47.0023 74.3394 46.9871 74.4005L45.0672 74.538C43.3606 74.5532 38.8352 74.6831 31.4909 74.9275L29.0682 78.8227L34.1422 79.7163C37.0372 80.2204 38.7971 80.6023 39.4218 80.862L40.9075 81.5264C41.0294 81.6792 40.5037 81.7938 39.3304 81.8701C37.5934 81.9923 33.5174 82.0535 27.1026 82.0535L23.8571 85.9487L31.6966 87.2089C32.7632 87.438 33.327 87.6213 33.3879 87.7588C33.4641 87.9116 32.8851 88.0643 31.6509 88.2171L21.7543 89.1565L21.0915 93.0288L25.0684 92.456C27.7045 92.1199 28.9387 92.1123 28.7711 92.4331C28.6187 92.7386 27.2169 93.0823 24.5656 93.4642L20.5658 94.0141L16.8404 101.255L27.4911 97.2677L20.0859 111.336L25.3656 110.489C27.4988 104.684 28.893 101.064 29.5482 99.6278C30.0053 98.6043 30.3938 98.1308 30.7138 98.2072C30.8205 98.2377 30.7595 99.7042 30.531 102.606L30.0053 108.472L36.9763 106.479C38.9419 100.995 40.2218 97.5198 40.816 96.0533C41.3036 94.8619 41.616 94.2509 41.7531 94.2203C41.936 94.1745 41.9512 94.8619 41.7988 96.2825L40.9075 104.898L48.3813 101.232C50.8497 91.2569 52.0992 87.1554 52.1296 88.9274L52.3582 94.564L52.5868 100.338L56.7694 97.9093C57.0741 91.9825 57.4322 88.9732 57.8436 88.8815C58.0874 88.8357 58.1636 90.3174 58.0721 93.3267L57.9807 97.8635L62.209 97.7031L63.4204 90.875C64.2584 86.3229 64.9593 83.1838 65.5231 81.4577C66.1478 79.5483 66.5668 78.7234 66.7802 78.9831C66.9173 79.1664 67.0163 80.1517 67.0773 81.9389C67.123 83.1456 67.1001 85.7272 67.0087 89.6835L66.8944 96.0992L80.0822 90.9896L80.3336 85.605C80.486 81.9083 80.6612 79.8385 80.8593 79.3955C81.0574 78.9525 81.126 80.6863 81.065 84.5968L81.0422 90.6229L87.7846 88.0109C88.0436 81.641 88.1655 77.1042 88.1503 74.4005V74.263H88.1732C88.2493 73.6367 88.3484 73.2243 88.4703 73.0257C88.6684 72.6744 88.8969 73.0944 89.1559 74.2859V74.3776C89.1559 74.9428 89.6131 76.4703 90.5273 78.9602C91.2587 80.946 92.1424 83.1686 93.1786 85.6279L101.841 81.2744L99.4182 69.3825L106.275 75.1108C110.907 78.8685 113.406 80.6176 113.772 80.3579C119.089 76.8293 121.139 73.4076 119.92 70.0928C118.929 67.3891 114.533 64.9832 106.732 62.8752C102.847 61.8212 99.0525 61.0345 95.3498 60.5151L88.676 57.4219C83.6629 55.4055 79.7318 54.4814 76.8824 54.6494C73.7436 54.848 68.9058 55.8943 62.369 57.7885C56.3199 59.5452 51.3678 61.256 47.5128 62.921C53.4705 64.6471 57.3179 65.8768 59.0549 66.61C60.2434 67.0988 60.7843 67.4273 60.6777 67.5953C60.5863 67.748 59.9692 67.748 58.8264 67.5953L42.0274 65.0748Z" fill="#00A63C"/>
<path d="M47.5128 62.921C53.4705 64.6471 57.3179 65.8768 59.0549 66.61C60.2434 67.0988 60.7843 67.4273 60.6777 67.5953C60.5863 67.748 59.9692 67.748 58.8264 67.5953L42.0274 65.0748L39.4675 67.0912C43.7339 67.3814 46.9414 67.7175 49.0898 68.0994C52.8839 68.7562 55.8323 70.1921 57.935 72.407C74.3454 65.9761 88.0589 69.3978 99.0753 82.6721L101.841 81.2744L99.4182 69.3825L106.275 75.1108C110.907 78.8685 113.406 80.6176 113.772 80.3579C119.089 76.8293 121.139 73.4076 119.92 70.0928C118.929 67.3891 114.533 64.9832 106.732 62.8752C102.847 61.8212 99.0525 61.0345 95.3498 60.5151L88.676 57.4219C83.6629 55.4055 79.7318 54.4814 76.8824 54.6494C73.7435 54.848 68.9058 55.8943 62.369 57.7885C56.3199 59.5452 51.3678 61.256 47.5128 62.921Z" fill="#009233"/>
<path d="M36.2681 89.0878C34.9882 90.6306 34.5235 91.4478 34.8739 91.5395C35.1939 91.6311 35.9024 91.1576 36.9995 90.1189C50.2558 77.5167 64.7464 69.2145 80.4711 65.2124C85.4232 63.9598 90.2001 63.2113 94.8017 62.9669L100.356 62.9898L100.516 62.3482L99.4186 61.1567C98.3672 60.3319 97.0644 59.8813 95.5102 59.8049L93.0875 59.6216L93.1789 59.5987C82.8938 59.8736 73.0354 62.3482 63.6036 67.0225C53.3795 72.0787 44.2676 79.4337 36.2681 89.0878Z" fill="#0D131A"/>
<path d="M100.426 61.4317C99.2984 60.7137 97.4394 60.393 94.8491 60.4693C84.4726 60.8054 74.6751 63.1043 65.4566 67.3662C56.4057 71.5516 48.4138 77.3792 41.4809 84.8488C51.7051 75.5767 63.4453 69.0312 76.7016 65.2123C81.3185 63.8834 85.8439 62.9745 90.278 62.4857L98.0032 62.1878L100.517 62.0962C100.883 61.9434 100.853 61.7219 100.426 61.4317Z" fill="#00A63C"/>
<path d="M58.2342 71.1927L59.2399 71.3301C59.636 71.376 59.9103 71.5593 60.0627 71.88C67.7879 67.8626 75.8484 65.0443 84.244 63.4251C90.0189 62.31 94.6053 61.8976 98.0032 62.1878L100.517 62.0962C100.883 61.9434 100.853 61.7219 100.426 61.4317C99.2984 60.7137 97.4394 60.393 94.8491 60.4693C88.2362 60.6832 81.8137 61.7143 75.5817 63.5626C69.4716 65.3651 63.6891 67.9084 58.2342 71.1927Z" fill="#009233"/>
<path d="M204.601 133.7C202.895 131.424 201.211 129.736 199.55 128.636C197.051 126.955 193.204 127.108 188.008 129.094C181.852 131.446 175.46 135.487 168.832 141.215C162.204 146.928 158.394 151.686 157.404 155.49L156.375 156.773L155.027 162.318C154.737 163.8 154.715 164.953 154.958 165.778C155.202 166.649 155.819 167.42 156.81 168.092C157.678 168.688 159.156 169.421 161.244 170.292C163.011 171.025 165.891 171.491 169.883 171.689C173.799 171.873 177.921 171.766 182.248 171.369C192.823 170.376 199.116 168.367 201.127 165.343C201.493 164.777 201.676 164.197 201.676 163.601C201.356 162.669 201.127 161.791 200.99 160.966C200.716 159.378 201.028 157.85 201.927 156.384C204.03 153.252 205.47 150.991 206.247 149.601C207.542 147.279 208.189 144.988 208.189 142.727C208.189 139.856 206.993 136.846 204.601 133.7Z" fill="#0D131A"/>
<path d="M198.795 129.758C196.677 128.338 193.241 128.536 188.487 130.354C182.591 132.615 176.382 136.533 169.86 142.109C163.354 147.684 159.636 152.259 158.706 155.834L158.455 156.888C157.267 161.455 156.825 164.25 157.129 165.274C157.343 165.961 157.853 166.587 158.661 167.153C159.209 167.534 160.367 168.168 162.135 169.054C163.476 169.727 166.051 170.131 169.86 170.269L181.791 169.879C192.243 168.902 198.315 167.137 200.007 164.586C200.692 163.593 200.266 162.433 198.727 161.104C198.285 160.722 198.254 160.088 198.635 159.202C198.894 158.621 199.618 157.43 200.807 155.627C203.062 152.236 204.7 149.387 205.721 147.081C206.97 144.27 206.414 140.734 204.052 136.472C203.214 134.929 202.224 133.47 201.081 132.096C200.121 130.919 199.359 130.14 198.795 129.758Z" fill="#5DC1CF"/>
<path d="M195.367 128.865C193.493 128.85 191.2 129.346 188.488 130.354C182.591 132.615 176.382 136.533 169.86 142.109C163.354 147.684 159.636 152.259 158.707 155.834L158.455 156.888C157.267 161.455 156.825 164.25 157.13 165.274C157.343 165.961 157.853 166.587 158.661 167.153C159.209 167.535 160.367 168.168 162.135 169.054C163.262 169.62 165.327 170.001 168.329 170.2C171.178 170.383 174.416 170.376 178.043 170.177C180.618 169.994 182.675 169.23 184.214 167.886C186.438 165.931 185.745 163.418 182.134 160.347C178.553 157.308 178.934 152.167 183.276 144.927C184.755 142.468 186.827 139.542 189.493 136.151L195.367 128.865Z" fill="#50A8B4"/>
<path d="M189.312 158.721C189.464 158.446 189.22 158.4 188.58 158.583C187.087 159.011 184.458 159.523 180.695 160.118C175.819 160.882 172.254 161.157 169.998 160.943C169.115 160.867 168.818 160.958 169.107 161.218L169.816 161.608C171.903 162.158 175.385 162.043 180.261 161.264C184.542 160.577 187.414 159.889 188.877 159.202L189.312 158.721Z" fill="#0D131A"/>
<path d="M195.436 165.343C195.345 166.473 195.482 167.42 195.848 168.184L199.482 169.238C201.676 169.834 203.253 170.154 204.213 170.2C205.402 170.246 206.133 170.116 206.407 169.811C206.697 169.49 206.742 168.703 206.544 167.451C206.331 166.167 205.638 164.686 204.464 163.005C203.291 161.295 202.141 160.126 201.013 159.5C200.617 159.286 200.206 159.164 199.779 159.133L198.956 159.294C196.762 161.066 195.589 163.082 195.436 165.343Z" fill="#0D131A"/>
<path d="M205.264 168.573C205.736 168.115 205.347 166.786 204.098 164.586C202.864 162.372 201.736 160.989 200.715 160.439C200.258 160.21 199.893 160.172 199.618 160.325C198.506 161.302 197.676 162.646 197.127 164.357C196.655 165.854 196.563 166.817 196.853 167.244C197.112 167.626 198.453 168.046 200.875 168.505C203.359 168.978 204.822 169.001 205.264 168.573Z" fill="white"/>
<path d="M198.796 161.195C197.958 162.219 197.356 163.433 196.99 164.838C196.655 166.091 196.609 166.893 196.853 167.244C197.021 167.489 197.836 167.794 199.299 168.161C200.807 168.543 202.148 168.764 203.321 168.825C202.742 167.389 202.064 165.999 201.287 164.655C200.403 163.143 199.573 161.99 198.796 161.195Z" fill="#DBDCDC"/>
<path d="M189.882 175.585C191.177 174.79 191.482 173.064 190.796 170.406C190.156 167.962 189.105 165.961 187.642 164.403C186.591 163.288 185.692 162.639 184.945 162.455C184.183 162.272 183.444 162.532 182.728 163.234C180.656 165.266 179.285 167.267 178.614 169.238C178.264 170.215 178.127 170.994 178.203 171.575C178.736 172.171 180.626 173.072 183.871 174.279C187.254 175.546 189.257 175.982 189.882 175.585Z" fill="#0D131A"/>
<path d="M184.213 163.624C183.589 163.746 182.659 164.678 181.425 166.419C180.13 168.237 179.452 169.681 179.391 170.75C179.909 171.239 181.516 172.026 184.213 173.11C187.017 174.225 188.678 174.691 189.196 174.508C189.485 174.401 189.6 173.79 189.539 172.675C189.478 171.529 189.249 170.315 188.853 169.032C187.787 165.579 186.24 163.777 184.213 163.624Z" fill="white"/>
<path d="M184.122 163.647C183.452 163.876 182.522 164.839 181.334 166.534C180.099 168.306 179.452 169.711 179.391 170.75C179.757 171.086 180.838 171.644 182.636 172.423C184.48 173.232 186.05 173.828 187.345 174.21C187.253 172.148 187.002 170.353 186.59 168.825C186.072 166.977 185.25 165.251 184.122 163.647Z" fill="#DBDCDC"/>
<path d="M168.191 164.289C167.841 163.968 167.445 163.754 167.003 163.647C166.637 163.555 166.294 163.555 165.974 163.647C164.999 163.937 163.719 164.754 162.135 166.099C160.489 167.473 159.59 168.558 159.438 169.352C159.285 170.131 159.758 171.483 160.855 173.408C161.815 175.134 162.698 176.394 163.506 177.189C163.917 177.601 164.329 177.823 164.74 177.853C165.121 177.868 165.639 177.731 166.294 177.441C168.23 176.585 169.814 175.31 171.048 173.614L172.306 171.346C172.412 170.735 171.978 169.604 171.003 167.955C170.043 166.335 169.106 165.113 168.191 164.289Z" fill="#0D131A"/>
<path d="M167.689 165.343C167.125 164.823 166.675 164.609 166.34 164.701C165.456 164.961 164.352 165.709 163.026 166.946C161.685 168.168 160.954 169.108 160.832 169.765C160.725 170.33 161.251 171.506 162.409 173.293C163.506 174.958 164.298 175.951 164.786 176.272C165.03 176.333 165.624 176.089 166.569 175.539C167.605 174.928 168.565 174.218 169.448 173.408C170.408 172.537 170.934 171.858 171.025 171.369C171.117 170.91 170.805 170.002 170.088 168.642C169.327 167.221 168.527 166.122 167.689 165.343Z" fill="white"/>
<path d="M160.833 169.765C160.726 170.299 161.191 171.376 162.227 172.996C163.156 174.462 163.941 175.501 164.581 176.112C164.642 173.943 164.794 172.041 165.038 170.406C165.328 168.359 165.777 166.458 166.387 164.701H166.341C165.457 164.961 164.353 165.709 163.027 166.946C161.686 168.168 160.955 169.108 160.833 169.765Z" fill="#DBDCDC"/>
<path d="M196.213 146.05C196.213 146.172 196.411 146.432 196.807 146.829C197.539 147.577 197.95 148.188 198.041 148.662C198.239 149.624 197.531 150.48 195.916 151.228C195.443 151.442 195.306 151.618 195.504 151.755C195.596 151.831 195.741 151.877 195.939 151.893C197.813 151.816 198.872 151.152 199.116 149.899C199.238 149.196 199.085 148.471 198.659 147.722C198.232 146.989 197.706 146.485 197.081 146.21C196.502 145.966 196.213 145.912 196.213 146.05Z" fill="#0D131A"/>
<path d="M55.993 161.035C55.8559 160.867 55.7187 160.806 55.5816 160.852C54.3474 161.096 53.1437 161.768 51.9704 162.868C50.5076 164.243 49.3496 166.106 48.4963 168.459C49.7762 169.375 51.1323 170.2 52.5646 170.933C55.4292 172.415 57.2348 172.728 57.9815 171.873C58.4233 171.369 58.2862 169.513 57.5701 166.305C56.8996 163.311 56.3739 161.554 55.993 161.035Z" fill="#0D131A"/>
<path d="M57.2274 171.369C57.2731 171.277 57.0065 169.803 56.4275 166.946C55.818 164.014 55.3989 162.287 55.1704 161.768L52.5648 163.83C51.2392 165.129 50.4545 166.503 50.2107 167.955C50.1193 168.398 51.2468 169.116 53.5933 170.108C55.9246 171.086 57.136 171.506 57.2274 171.369Z" fill="#DBDCDC"/>
<path d="M52.0845 126.047C50.7589 129.881 49.9361 133.608 49.6161 137.228C48.7476 147.31 51.5817 158.247 58.1184 170.04C58.286 170.345 58.5222 171.483 58.8269 173.454C59.1012 175.195 59.6878 176.616 60.5868 177.716C63.4667 181.214 70.5596 183.192 81.8655 183.65C88.6004 183.925 94.1391 182.833 98.4817 180.374C102.55 178.067 104.683 175.126 104.881 171.552C104.957 170.238 105.392 168.298 106.184 165.732C107.312 162.051 107.99 159.729 108.218 158.767C109.681 152.702 109.193 147.638 106.755 143.575C105.277 141.101 101.948 137.862 96.7675 133.86C91.7087 129.965 86.231 126.36 80.3342 123.045C73.9803 119.455 68.6397 117.088 64.3123 115.942C59.345 114.628 56.3966 115.14 55.4671 117.477L52.0845 126.047Z" fill="#5DC1CF"/>
<path d="M55.4672 117.477L52.0846 126.047C50.7589 129.881 49.9361 133.608 49.6161 137.228C48.7476 147.31 51.5817 158.247 58.1185 170.04C58.3318 170.437 58.5451 171.43 58.7584 173.018C58.9718 174.577 59.3679 175.837 59.9469 176.799C61.8516 179.992 66.6361 182.077 74.3003 183.054L76.7916 182.986C78.1782 183.352 78.9248 183.345 79.0315 182.963C78.7115 180.61 78.6125 178.449 78.7343 176.478C78.8715 174.386 79.2677 172.377 79.9229 170.452C69.8358 169.322 63.6953 163.12 61.5011 151.847C59.825 143.201 60.5107 132.783 63.5581 120.593C64.8838 115.247 64.0457 112.864 61.044 113.444C59.9622 113.658 58.8118 114.223 57.5928 115.14C56.45 116.011 55.7415 116.79 55.4672 117.477Z" fill="#50A8B4"/>
<path d="M56.061 117.798C56.7771 116.27 56.9295 115.445 56.5181 115.323C56.1372 115.216 55.5886 115.827 54.8725 117.156C50.8346 124.702 48.8843 132.989 49.0214 142.017C49.189 152.099 52.0231 161.547 57.5238 170.361C57.859 170.91 58.0266 171.651 58.0266 172.583C58.0418 174.218 58.2399 175.531 58.6208 176.524C59.1541 177.945 60.1293 179.144 61.5464 180.121C65.0509 182.52 71.8162 183.925 81.8423 184.338C89.3237 184.628 95.2281 183.597 99.5555 181.244C103.822 178.922 105.818 175.707 105.544 171.598C105.498 170.804 105.795 169.604 106.435 168L107.966 164.105C109.292 159.843 109.94 156.216 109.909 153.222C109.879 149.922 109.041 146.63 107.395 143.346L106.138 143.804C107.616 147.776 108.187 151.686 107.852 155.536C107.654 157.797 106.961 160.852 105.772 164.701L104.767 168.184C104.447 169.436 104.264 170.544 104.218 171.506C104.035 174.821 102.047 177.571 98.2527 179.755C94.0625 182.184 88.6076 183.261 81.888 182.986C72.5781 182.604 66.2242 181.214 62.8263 178.815C61.5464 177.914 60.6321 176.83 60.0836 175.562C59.7789 174.829 59.5351 173.775 59.3522 172.4C59.1998 171.132 58.9789 170.238 58.6894 169.719C52.5945 158.705 50.1642 147.188 51.3984 135.166C52.0536 128.934 53.6078 123.144 56.061 117.798Z" fill="#0D131A"/>
<path d="M92.9738 167.428C93.7814 166.954 94.1928 166.641 94.208 166.488C94.208 166.305 93.6899 166.419 92.6538 166.832C91.0692 167.458 88.6464 168.107 85.3857 168.78C81.2107 169.635 77.5538 170.04 74.4149 169.994C71.5808 169.948 70.5218 170.101 71.238 170.452C71.9541 170.804 73.2264 170.964 75.0549 170.933C79.3061 170.888 83.3287 170.399 87.1227 169.467C89.8502 168.795 91.8005 168.115 92.9738 167.428Z" fill="#0D131A"/>
<path d="M105.338 169.467L104.744 169.398C102.916 170.559 101.575 172.514 100.721 175.264C100.188 176.96 99.9215 178.411 99.9215 179.617C99.9215 180.152 100.6 180.534 101.956 180.763L107.258 181.313C110.839 181.512 112.82 181.237 113.201 180.488C113.566 179.755 112.797 177.975 110.892 175.149C109.064 172.461 107.563 170.697 106.39 169.856C106.131 169.673 105.78 169.543 105.338 169.467Z" fill="#0D131A"/>
<path d="M111.601 179.778C111.601 179.029 110.907 177.593 109.521 175.47C108.104 173.27 106.862 171.796 105.795 171.048C105.46 170.803 105.254 170.719 105.178 170.796C104.157 171.59 103.19 173.08 102.275 175.264C101.559 176.959 101.156 178.235 101.064 179.09C101.628 179.365 103.395 179.61 106.367 179.824C109.353 180.037 111.098 180.045 111.601 179.846V179.778Z" fill="white"/>
<path d="M103.258 173.225C102.679 174.248 102.161 175.424 101.704 176.753C101.323 177.838 101.11 178.617 101.064 179.09C101.628 179.365 103.395 179.61 106.367 179.824C109.353 180.037 111.098 180.045 111.601 179.847V179.778C111.601 179.564 111.547 179.32 111.441 179.045C109.597 176.784 106.869 174.844 103.258 173.225Z" fill="#DBDCDC"/>
<path d="M84.1057 179.663C82.1858 177.387 80.9516 176.249 80.4031 176.249C79.8546 176.249 78.5899 177.173 76.6091 179.022C74.5977 180.885 73.5692 182.138 73.5235 182.779C73.4778 183.436 74.1482 184.781 75.5348 186.812C76.9366 188.874 77.9499 189.936 78.5747 189.997C79.0318 190.043 80.1441 189.554 81.9116 188.531C83.6181 187.553 84.8828 186.69 85.7056 185.941C86.5132 185.208 86.917 184.49 86.917 183.788C86.917 183.284 85.9799 181.909 84.1057 179.663Z" fill="#0D131A"/>
<path d="M80.2883 177.991C79.8769 178.021 78.917 178.731 77.4085 180.121C75.8848 181.527 75.1077 182.459 75.0772 182.917C75.0315 183.467 75.5648 184.536 76.6771 186.125C77.759 187.683 78.4903 188.477 78.8713 188.508C79.1608 188.538 79.915 188.172 81.134 187.408C82.4291 186.614 83.5034 185.827 84.3567 185.048L85.2252 184.108L85.3623 183.81C85.3166 183.398 84.5547 182.344 83.0767 180.648C81.5987 178.953 80.6693 178.067 80.2883 177.991Z" fill="white"/>
<path d="M57.8669 175.974C56.2975 178.372 55.7033 180.091 56.0842 181.13C56.2061 181.45 56.4804 181.741 56.907 182C57.4098 182.291 58.0193 182.466 58.7355 182.527C60.2592 182.65 61.8972 182.627 63.6494 182.459C65.935 182.23 67.1997 181.787 67.4435 181.13L67.832 180.122C67.832 179.113 66.9635 177.548 65.2265 175.424C63.9008 173.79 62.8723 172.69 62.141 172.125C61.8819 171.911 61.6458 171.827 61.4324 171.873L61.021 172.125C60.2439 172.675 59.1926 173.958 57.8669 175.974Z" fill="#0D131A"/>
<path d="M57.2494 181.084L62.0263 181.244C64.5861 181.015 66.0565 180.679 66.4375 180.236C66.7879 179.824 66.186 178.594 64.6319 176.547C63.1234 174.531 62.1177 173.484 61.6149 173.408C61.1273 173.332 60.1369 174.508 58.6437 176.937C57.1352 179.381 56.6704 180.763 57.2494 181.084Z" fill="white"/>
<path d="M60.0843 177.486C59.6729 178.021 58.9339 179.274 57.8673 181.244C58.9644 181.427 60.5719 181.405 62.6899 181.175C64.8688 180.946 66.1182 180.633 66.4382 180.236C66.6668 179.976 66.4459 179.289 65.7754 178.174C65.1812 177.196 64.4345 176.196 63.5355 175.172C62.2099 175.478 61.0595 176.249 60.0843 177.486Z" fill="#DBDCDC"/>
<path d="M62.7817 147.195C62.0655 147.18 61.4027 147.463 60.7932 148.043C60.1685 148.639 59.8257 149.334 59.7647 150.128C59.719 150.785 59.9781 151.434 60.5418 152.076C61.2732 152.916 62.3093 153.283 63.6502 153.176L64.1302 152.855C64.3587 152.641 64.2216 152.526 63.7188 152.511C62.8807 152.481 62.1798 151.893 61.616 150.747C61.0066 149.51 61.3875 148.555 62.7588 147.883C63.2769 147.623 63.4369 147.432 63.2388 147.31L62.7817 147.195Z" fill="#0D131A"/>
<path d="M33.8228 128.475C33.7314 128.399 33.5943 128.353 33.4114 128.338C32.7562 128.307 32.1544 128.628 31.6058 129.3C31.0421 129.988 30.7297 130.797 30.6687 131.729C30.6383 132.508 30.8745 133.264 31.3773 133.997C32.0477 134.96 32.9848 135.388 34.1885 135.281L34.6228 134.914C34.8361 134.654 34.7142 134.517 34.2571 134.502C33.5105 134.471 32.8781 133.791 32.3601 132.462C31.7963 131.011 32.1391 129.896 33.3886 129.117C33.8609 128.827 34.0057 128.613 33.8228 128.475Z" fill="#0D131A"/>
<path d="M15.6986 112.413C15.0587 112.383 14.4644 112.665 13.9159 113.261C13.3673 113.857 13.0626 114.559 13.0016 115.369C12.9559 116.041 13.1845 116.706 13.6873 117.363C14.3425 118.203 15.272 118.577 16.4757 118.485L16.91 118.164C17.1081 117.935 16.9862 117.813 16.5443 117.798C15.7977 117.767 15.1729 117.164 14.6701 115.988C14.1216 114.735 14.4568 113.765 15.6758 113.078C16.1329 112.833 16.27 112.65 16.0872 112.528C16.011 112.467 15.8815 112.429 15.6986 112.413Z" fill="#0D131A"/>
<path d="M16.5209 131.66C15.8048 131.63 15.142 132.004 14.5325 132.783C13.9078 133.562 13.5649 134.479 13.504 135.533C13.4583 136.403 13.7173 137.259 14.2811 138.099C15.0125 139.214 16.0486 139.703 17.3895 139.565L17.8694 139.153C18.098 138.863 17.9609 138.702 17.458 138.672C17.138 138.656 16.7724 138.427 16.361 137.984C15.9343 137.511 15.5991 136.961 15.3553 136.335C14.7458 134.7 15.1267 133.44 16.4981 132.554C17.0161 132.218 17.1761 131.966 16.9781 131.798L16.5209 131.66Z" fill="#0D131A"/>
<path d="M77.5466 146.943C76.9981 147.447 76.8 148.28 76.9524 149.441C77.0438 150.189 77.44 150.816 78.1409 151.32C78.8418 151.824 79.657 152.076 80.5864 152.076L81.0207 151.87C81.2188 151.702 81.074 151.549 80.5864 151.411C79.3827 151.091 78.6513 150.434 78.3923 149.441C78.1028 148.341 78.7656 147.478 80.3807 146.852L81.1807 146.393C81.1807 146.271 80.8607 146.21 80.2207 146.21C78.956 146.195 78.0647 146.439 77.5466 146.943Z" fill="#0D131A"/>
<path d="M62.9175 127.948C62.5061 128.346 62.2623 128.873 62.1861 129.529C62.1252 130.11 62.369 130.675 62.9175 131.225C63.4965 131.805 64.1593 132.103 64.9059 132.119C65.2869 132.134 65.5078 132.073 65.5688 131.935C65.6297 131.798 65.4469 131.637 65.0202 131.454C63.5422 130.843 62.9861 130.125 63.3518 129.3C63.6565 128.628 64.2812 128.162 65.2259 127.903C65.7745 127.765 65.9421 127.612 65.7288 127.444L65.2488 127.238C64.2279 127.192 63.4508 127.429 62.9175 127.948Z" fill="#0D131A"/>
<path d="M106.365 88.0338C98.2288 87.0867 92.8425 87.2929 90.2065 88.6524C89.3989 89.0801 88.8885 89.8592 88.6751 90.9896L88.5609 93.4642C88.5609 97.451 89.9779 103.271 92.812 110.924C88.5913 114.773 85.5668 117.958 83.7383 120.479C81.5899 123.442 80.5156 126.192 80.5156 128.727C80.5156 129.537 80.5994 130.499 80.7671 131.614C80.9651 132.882 81.1937 133.814 81.4527 134.41C83.1898 138.412 84.9116 141.276 86.6181 143.002C88.538 144.958 91.235 146.37 94.7091 147.241C97.6651 147.99 103.981 150.678 113.656 155.307L122.844 159.798C126.166 161.401 128.787 162.593 130.707 163.372C134.867 165.068 141.304 165.457 150.02 164.541C159.025 163.578 165.09 161.676 168.213 158.835C169.249 157.873 173.874 155.161 182.087 150.701C188.562 147.172 193.24 144.683 196.12 143.231C197.948 142.315 199.586 139.573 201.034 135.006C202.497 130.408 202.71 127.269 201.674 125.588C200.303 123.373 198.23 120.601 195.457 117.271C192.547 113.773 190.2 111.291 188.418 109.824C189.484 108.297 190.566 105.761 191.663 102.217C192.821 98.4745 193.4 95.4194 193.4 93.0517C193.4 92.5782 193.377 92.1581 193.332 91.7915C193.134 90.4167 192.676 89.5842 191.96 89.294C189.218 88.1178 184.265 88.1178 177.104 89.294C173.386 89.905 169.318 90.7528 164.899 91.8373C160.785 90.2792 154.462 89.6377 145.929 89.9126C138.661 90.1418 131.781 90.9055 125.29 92.2039C120.384 90.3098 114.075 88.9197 106.365 88.0338Z" fill="#0D131A"/>
<path d="M91.396 90.073C90.8627 90.3022 90.5351 90.5618 90.4132 90.8521C89.2704 94.0294 90.4894 100.384 94.0701 109.916C94.3901 109.656 95.0072 109.458 95.9214 109.32C96.4852 109.244 96.4014 109.595 95.67 110.374L94.3901 111.543C88.92 116.477 85.3697 120.968 83.7393 125.015C82.5051 128.101 82.4061 130.843 83.4422 133.241C85.0269 136.877 86.6572 139.542 88.3333 141.238C90.0094 142.918 92.3255 144.224 95.2815 145.156C96.7443 145.614 99.2279 146.645 102.732 148.249L113.429 153.29C121.977 157.415 127.889 160.141 131.165 161.47C135.706 163.334 142.265 163.678 150.844 162.501C154.364 162.012 157.594 161.333 160.535 160.462C163.46 159.591 165.517 158.698 166.706 157.781C167.894 156.865 172.45 154.276 180.373 150.014C188.937 145.401 193.691 142.796 194.635 142.2C196.19 141.238 197.561 138.886 198.749 135.143C199.877 131.63 200.25 129.018 199.869 127.307C199.565 125.917 197.706 122.992 194.293 118.531C190.986 114.208 188.739 111.642 187.55 110.832C185.981 109.778 185.219 108.961 185.265 108.381C185.295 107.8 185.973 107.999 187.299 108.976C188.807 106.471 190.026 103.622 190.956 100.43C191.961 96.9928 192.312 94.1745 192.007 91.9748C191.87 91.1652 191.634 90.6611 191.298 90.4625C190.247 89.8668 186.735 89.9356 180.762 90.6688C175.917 91.2492 170.652 92.0894 164.969 93.1892L164.786 93.2121L164.603 93.1434C160.626 91.5853 154.386 90.9514 145.884 91.2416C138.662 91.486 131.828 92.2574 125.383 93.5558L125.177 93.6016L124.994 93.5329C120.255 91.6693 114.092 90.348 106.504 89.5689C98.9156 88.7899 93.8797 88.9579 91.396 90.073Z" fill="#5DC1CF"/>
<path d="M184.052 143.987C186.109 143.728 187.74 142.559 188.944 140.482L190.521 137.709C191.084 136.823 191.686 136.067 192.326 135.441C191.153 136.357 189.248 137.052 186.612 137.526L184.052 137.916C183.153 137.916 180.677 139.55 176.624 142.819L170.819 147.722L175.687 146.095C179.298 144.965 182.087 144.262 184.052 143.987Z" fill="#50A8B4"/>
<path d="M164.969 93.1892L164.787 93.2121L164.604 93.1434C160.627 91.5853 154.387 90.9514 145.885 91.2416C138.662 91.486 131.829 92.2574 125.383 93.5558L125.178 93.6017L124.995 93.5329C122.313 92.4789 118.938 91.5624 114.87 90.7834C110.999 90.0349 107.16 89.5384 103.35 89.294C110.039 90.3633 115.875 92.647 120.858 96.145C124.225 98.528 126.686 100.987 128.24 103.523C134.274 105.555 140.918 108.51 148.17 112.39C157.8 117.538 163.933 122.228 166.569 126.459C166.813 126.459 167.796 125.955 169.518 124.947C171.727 123.633 173.213 122.785 173.975 122.403C173.106 121.243 172.367 119.73 171.758 117.867L170.432 112.894C169.381 108.785 167.872 106.112 165.907 104.875C168.497 101.759 171.697 98.9099 175.506 96.3283C178.599 94.2356 182.347 92.1658 186.751 90.1189C184.1 90.2411 180.595 90.623 176.237 91.2645C172.428 91.8297 168.672 92.4713 164.969 93.1892Z" fill="#50A8B4"/>
<path d="M150.662 147.31C147.112 146.363 143.371 144.728 139.44 142.407C135.189 139.901 132.34 138.404 130.892 137.916L121.636 136.22C117.156 135.349 113.468 134.838 110.573 134.685C108.669 134.685 106.642 133.814 104.494 132.073C102.315 130.27 101.317 128.567 101.5 126.963C102.216 125.1 104.189 123.045 107.419 120.8C109.705 119.196 112.006 116.858 114.322 113.788C116.592 110.779 119.121 108.342 121.91 106.479C120.218 105.929 117.91 104.676 114.984 102.721C111.16 100.185 108.989 98.7724 108.471 98.4821L99.4197 93.4871C96.159 91.8832 93.2106 90.9285 90.5746 90.623L90.4146 90.8521C89.2718 94.0294 90.4907 100.384 94.0715 109.916C94.3915 109.656 95.0086 109.458 95.9228 109.32C96.4866 109.244 96.4028 109.595 95.6714 110.374L94.3915 111.543C88.9213 116.477 85.3711 120.968 83.7407 125.016C82.5065 128.101 82.4074 130.843 83.4436 133.241C85.0282 136.877 86.6586 139.542 88.3347 141.238C90.0108 142.918 92.3268 144.224 95.2828 145.156C96.7456 145.614 99.2293 146.645 102.734 148.249L113.43 153.29C121.978 157.415 127.89 160.141 131.166 161.47C135.707 163.334 142.267 163.678 150.845 162.501C154.365 162.013 157.595 161.333 160.536 160.462C163.462 159.591 165.519 158.698 166.707 157.781C164.452 157.797 161.275 156.223 157.176 153.061C154.921 151.32 152.75 149.403 150.662 147.31Z" fill="#50A8B4"/>
<path d="M93.0655 92.7768C92.6694 92.9143 92.4713 93.2045 92.4713 93.6475C92.4713 94.7626 93.0427 96.9775 94.1855 100.292L96.2653 105.952C96.4939 106.654 96.8215 107.036 97.2481 107.097C97.69 107.174 98.4062 106.952 99.3966 106.433C104.486 103.699 107.648 102.057 108.882 101.507C109.476 101.247 109.819 101.026 109.91 100.842C110.032 100.644 109.925 100.369 109.59 100.017C108.295 98.6426 105.789 97.0081 102.071 95.1139C97.7891 92.9143 94.7873 92.1352 93.0655 92.7768Z" fill="#0D131A"/>
<path d="M93.1555 93.6475C93.1555 95.2209 94.603 99.3529 97.4981 106.043L102.161 103.477C104.766 102.102 106.717 101.178 108.012 100.705C106.092 98.887 103.364 97.115 99.8294 95.3889C96.3705 93.6933 94.1992 93.0289 93.3155 93.3955C93.2088 93.4413 93.1555 93.5253 93.1555 93.6475Z" fill="#C6000B"/>
<path d="M93.3155 93.3955C93.2088 93.4413 93.1555 93.5253 93.1555 93.6475C93.1555 94.6862 93.8259 96.9317 95.1668 100.384C96.8734 99.9104 98.3742 99.7271 99.6694 99.834C101.345 99.9868 103.319 100.628 105.589 101.759C106.488 101.316 107.296 100.964 108.012 100.705C106.092 98.887 103.364 97.115 99.8294 95.3889C96.3705 93.6933 94.1992 93.0289 93.3155 93.3955Z" fill="#A30000"/>
<path d="M175.071 101.255C175.026 101.377 175.27 101.614 175.803 101.965L182.797 107.006C183.711 107.663 184.29 107.854 184.534 107.579L185.677 105.379C186.53 103.913 187.238 102.248 187.802 100.384C188.503 98.0469 188.556 96.4811 187.962 95.6868C187.718 95.3813 186.568 95.5341 184.511 96.1451C181.844 96.9394 179.071 98.3524 176.191 100.384L175.071 101.255Z" fill="#0D131A"/>
<path d="M181.106 98.8487C178.912 99.9333 177.373 100.842 176.489 101.575C177.754 102.171 179.079 102.958 180.466 103.935C181.289 104.516 182.34 105.326 183.62 106.364L184.008 106.662C184.557 105.898 185.212 104.539 185.974 102.584C186.827 100.414 187.254 98.8335 187.254 97.8406C187.254 97.4892 187.193 97.2448 187.071 97.1073C186.98 97.0004 186.782 96.9546 186.477 96.9699C185.38 97.0004 183.589 97.6267 181.106 98.8487Z" fill="#C6000B"/>
<path d="M186.477 96.9699C185.456 96.9852 183.719 97.5885 181.266 98.78C182.439 99.4674 183.224 100.613 183.62 102.217C183.833 103.133 184.016 104.531 184.168 106.41C184.763 105.432 185.403 104.05 186.088 102.263C186.865 100.246 187.254 98.7724 187.254 97.8406C187.254 97.4892 187.193 97.2448 187.071 97.1073C186.98 97.0004 186.782 96.9546 186.477 96.9699Z" fill="#A30000"/>
<path d="M186.385 137.389C183.018 137.19 178.683 137.671 173.38 138.832L160.078 142.2C157.442 142.872 154.951 143.407 152.604 143.804C150.197 144.217 148.658 144.354 147.988 144.217L146.365 143.873C125.536 139.55 111.327 137.389 103.739 137.389H102.916L103.305 138.122C105.011 141.513 110.199 145.79 118.869 150.953C122.45 153.076 125.878 154.879 129.154 156.361C132.507 157.873 134.983 158.721 136.583 158.904C139.782 159.286 144.384 159.202 150.387 158.652C156.376 158.087 160.071 157.399 161.472 156.59L166.615 153.176L175.232 147.402C180.778 143.781 184.458 141.276 186.271 139.886C187.505 138.939 188.084 138.305 188.008 137.984C187.978 137.908 187.772 137.793 187.391 137.641L186.385 137.389Z" fill="#0D131A"/>
<path d="M172.442 139.772C170.065 140.245 165.669 141.307 159.255 142.956L151.964 144.767C149.891 145.194 148.497 145.339 147.781 145.202L146.158 144.858L120.217 139.474C112.324 137.931 106.724 137.121 103.418 137.045C105.643 140.344 111.258 144.599 120.263 149.807C128.811 154.741 134.677 157.399 137.862 157.781C140.985 158.148 145.335 157.987 150.912 157.3C156.23 156.658 159.536 155.971 160.832 155.238C163.529 153.695 167.826 150.938 173.722 146.966C180.503 142.414 184.373 139.542 185.333 138.351C181.996 138.213 177.699 138.687 172.442 139.772Z" fill="#922F00"/>
<path d="M175.14 142.773C175.567 141.994 175.719 141.162 175.597 140.276C175.521 139.665 175.33 139.107 175.026 138.603C157.914 142.529 149.442 144.553 149.61 144.675L114.572 138.603C113.81 139.275 113.688 140.192 114.207 141.352C114.633 142.315 115.486 143.407 116.766 144.629C119.844 147.562 124.339 150.059 130.251 152.122C136.666 154.352 142.799 155.314 148.65 155.009L149.313 154.963C155.073 154.657 160.588 153.153 165.861 150.449C170.615 148.02 173.708 145.462 175.14 142.773Z" fill="#0D131A"/>
<path d="M174.25 139.451C171.065 140.062 166.441 141.154 160.376 142.727L152.285 144.698C150.015 145.187 148.514 145.355 147.783 145.202L145.383 144.698C132.523 141.964 122.55 140.085 115.465 139.061C115.693 140.589 116.722 142.231 118.55 143.988C121.582 146.875 125.788 149.288 131.167 151.228C137.124 153.367 142.937 154.291 148.605 154.001C154.091 153.695 159.47 152.152 164.742 149.372C169.465 146.867 172.505 144.339 173.861 141.788C174.211 141.146 174.387 140.566 174.387 140.047L174.25 139.451Z" fill="#ED8599"/>
<path d="M167.301 124.832C166.143 126.192 165.808 126.818 166.295 126.711L167.392 126.161C167.758 127.597 168.817 128.842 170.569 129.896C172.337 130.965 174.059 131.385 175.735 131.156C177.594 130.897 179.224 129.957 180.626 128.338C182.759 125.848 183.902 122.106 184.054 117.111C185.426 116.836 186.225 116.507 186.454 116.125C186.698 115.713 185.677 115.652 183.391 115.942C180.313 116.354 177.655 117.118 175.415 118.233C172.55 119.669 169.846 121.869 167.301 124.832Z" fill="#0D131A"/>
<path d="M170.981 128.407C172.489 129.338 174.044 129.713 175.644 129.529C177.762 129.316 179.445 128.155 180.695 126.047C181.975 123.923 182.721 121.006 182.935 117.294C176.916 118.669 172.025 121.334 168.261 125.29C168.673 126.512 169.579 127.551 170.981 128.407Z" fill="white"/>
<path d="M170.158 122.38L169.975 122.541L169.929 123.068C170.401 124.29 171.133 125.229 172.123 125.886C173.114 126.543 174.104 126.749 175.095 126.505C176.192 126.26 177.106 125.443 177.837 124.053C178.69 122.419 179.018 120.387 178.82 117.958L178.477 117.569L178.066 117.729C175.201 118.89 172.565 120.44 170.158 122.38Z" fill="#0D131A"/>
<path d="M174.818 125.474C175.839 125.245 176.632 124.389 177.195 122.907C177.683 121.655 177.912 120.311 177.881 118.875C175.336 119.898 173.005 121.242 170.887 122.907C171.329 123.855 171.901 124.565 172.601 125.038C173.318 125.512 174.057 125.657 174.818 125.474Z" fill="#C6000B"/>
<path d="M172.58 121.67C172.945 122.633 173.448 123.106 174.088 123.091C174.88 123.076 175.406 121.999 175.665 119.86C174.614 120.379 173.585 120.983 172.58 121.67Z" fill="white"/>
<path d="M181.289 112.94C180.634 112.283 179.438 111.466 177.701 110.489C175.811 109.435 174.402 108.854 173.473 108.747C171.431 108.533 171.362 108.755 173.267 109.412C174.074 109.671 175.263 110.328 176.832 111.382L180.261 113.696C181.114 114.246 181.647 114.407 181.861 114.178C182.089 113.949 181.899 113.536 181.289 112.94Z" fill="#0D131A"/>
<path d="M167.505 113.055C167.612 111.65 167.543 111.077 167.299 111.336C167.056 111.581 166.812 112.314 166.568 113.536C166.324 114.651 166.134 115.965 165.997 117.477C165.859 118.989 165.821 120.181 165.882 121.052C165.943 121.892 166.172 122.319 166.568 122.335C166.964 122.35 167.17 121.983 167.185 121.235L167.276 117.729L167.505 113.055Z" fill="#0D131A"/>
<path d="M122.755 106.273C122.084 105.86 121.246 105.715 120.241 105.837C119.768 105.898 119.517 106.043 119.487 106.273C119.441 106.502 119.654 106.67 120.127 106.777L121.361 106.983C121.803 107.029 122.123 107.113 122.321 107.235C123.326 107.831 124.37 109.931 125.452 113.536L127.212 120.525C127.486 121.579 127.677 122.022 127.783 121.854C127.844 121.747 127.882 121.273 127.897 120.433C127.897 119.073 127.448 116.79 126.549 113.582C125.421 109.534 124.157 107.097 122.755 106.273Z" fill="#0D131A"/>
<path d="M114.321 106.548C113.194 107.021 112.104 107.617 111.053 108.335C109.956 109.083 109.026 109.878 108.264 110.718C107.503 111.558 107.16 111.993 107.236 112.024L108.813 111.084C111.845 109.068 113.841 107.854 114.801 107.441C115.472 107.166 115.815 106.838 115.83 106.456C115.845 106.089 115.342 106.12 114.321 106.548Z" fill="#0D131A"/>
<path d="M107.692 112.849C106.793 112.803 106.169 112.956 105.818 113.307C105.483 113.674 105.917 113.895 107.121 113.971C106.862 119.241 107.624 123.381 109.407 126.39C110.671 128.514 112.271 129.873 114.206 130.469C116.096 131.034 118.138 130.82 120.332 129.827C122.45 128.88 124.08 127.505 125.223 125.703C126.244 126.864 126.792 127.307 126.868 127.032C126.945 126.757 126.51 125.84 125.566 124.282C123.859 121.502 121.314 118.982 117.932 116.721C114.321 114.307 110.907 113.017 107.692 112.849Z" fill="#0D131A"/>
<path d="M124.4 124.763C122.054 121.861 118.961 119.249 115.121 116.927C111.647 114.85 109.369 113.948 108.287 114.223V114.819C108.287 118.791 108.843 122.022 109.956 124.511C111.068 127.017 112.645 128.575 114.687 129.186C116.363 129.674 118.092 129.522 119.875 128.727C121.688 127.903 123.197 126.581 124.4 124.763Z" fill="white"/>
<path d="M119.029 123.503C120.263 122.816 121.025 121.8 121.314 120.456L120.789 119.562C118.686 117.867 116.408 116.438 113.955 115.277L113.635 115.117L113.224 115.071C112.416 117.011 112.241 118.837 112.698 120.547C113.155 122.197 114.054 123.289 115.395 123.824C116.599 124.298 117.81 124.191 119.029 123.503Z" fill="#0D131A"/>
<path d="M117.795 122.839C118.237 122.717 118.671 122.434 119.098 121.991C119.509 121.563 119.844 121.059 120.104 120.479C118.077 118.798 115.974 117.363 113.795 116.171C113.582 117.026 113.475 117.851 113.475 118.646C113.475 119.852 113.826 120.861 114.527 121.67C114.953 122.159 115.464 122.51 116.058 122.724L117.795 122.839Z" fill="#C6000B"/>
<path d="M116.149 117.569C115.997 119.387 116.294 120.41 117.04 120.639C117.741 120.853 118.32 120.448 118.777 119.425L116.149 117.569Z" fill="white"/>
<path d="M184.305 143.575C184.716 143.438 185.57 142.361 186.865 140.344L188.693 137.366L184.511 137.389C181.738 137.45 180.412 137.61 180.534 137.87L182.202 141.192C183.178 142.934 183.878 143.728 184.305 143.575Z" fill="#0D131A"/>
<path d="M187.254 138.03L184.168 138.122C182.568 138.168 181.799 138.252 181.86 138.374C182.134 139 182.584 139.817 183.208 140.826C183.879 141.91 184.29 142.422 184.443 142.361C184.732 142.269 185.669 140.826 187.254 138.03Z" fill="white"/>
<path d="M100.973 137.022C100.912 137.618 101.361 138.817 102.321 140.619C103.327 142.468 104.104 143.384 104.652 143.369C105.14 143.354 105.925 142.345 107.007 140.344L108.492 137.366L104.767 136.793C102.268 136.503 101.003 136.579 100.973 137.022Z" fill="#0D131A"/>
<path d="M101.704 137.045C101.978 138.022 102.489 139.107 103.235 140.299C103.982 141.505 104.5 142.063 104.79 141.971C105.079 141.88 105.513 141.375 106.092 140.459C106.671 139.573 107.151 138.656 107.532 137.709L101.704 137.045Z" fill="white"/>
<path d="M165.815 145.202C165.617 145.217 165.426 146.088 165.243 147.814C165.061 149.494 165.022 150.434 165.129 150.632C165.236 150.892 165.563 151.083 166.112 151.205C166.721 151.327 167.262 151.259 167.735 150.999C168.009 150.831 168.245 150.48 168.443 149.945C168.641 149.426 168.695 149.067 168.603 148.868C168.39 148.44 167.925 147.738 167.209 146.76C166.447 145.706 165.982 145.187 165.815 145.202Z" fill="#0D131A"/>
<path d="M166.021 146.073C165.929 146.18 165.83 146.867 165.724 148.135C165.617 149.433 165.632 150.113 165.769 150.174C165.967 150.281 166.226 150.357 166.546 150.403L167.461 150.289C167.781 150.121 167.956 149.67 167.986 148.937L167.004 147.402C166.409 146.455 166.082 146.012 166.021 146.073Z" fill="white"/>
<path d="M160.078 147.929C159.895 147.99 159.681 148.998 159.438 150.953C159.209 152.863 159.141 153.886 159.232 154.023C159.323 154.207 159.735 154.329 160.466 154.39C161.274 154.451 161.899 154.321 162.34 154.001C162.721 153.726 163.003 153.351 163.186 152.878C163.369 152.42 163.392 152.038 163.255 151.732C163.117 151.457 162.622 150.77 161.769 149.67C160.824 148.448 160.261 147.867 160.078 147.929Z" fill="#0D131A"/>
<path d="M160.444 148.96C160.383 149.036 160.291 149.807 160.169 151.274C160.063 152.756 160.055 153.535 160.147 153.611L160.901 153.726C161.358 153.71 161.708 153.619 161.952 153.451C162.333 153.16 162.539 152.618 162.569 151.824L161.518 150.266C160.863 149.334 160.505 148.899 160.444 148.96Z" fill="white"/>
<path d="M126.754 150.816C126.846 150.556 126.747 149.632 126.457 148.043C126.183 146.424 125.947 145.607 125.749 145.591C125.505 145.561 125.01 146.096 124.263 147.195L123.052 149.12C122.853 149.395 122.869 149.769 123.097 150.243C123.326 150.716 123.676 151.068 124.149 151.297C124.636 151.541 125.185 151.587 125.794 151.434C126.328 151.282 126.648 151.075 126.754 150.816Z" fill="#0D131A"/>
<path d="M123.76 149.349C123.821 150.006 124.027 150.426 124.378 150.609L125.292 150.678L126.023 150.449C126.16 150.373 126.137 149.693 125.955 148.41C125.787 147.142 125.657 146.462 125.566 146.371C125.505 146.309 125.193 146.768 124.629 147.745L123.76 149.349Z" fill="white"/>
<path d="M132.354 154.046C132.72 153.833 132.788 152.779 132.56 150.884C132.331 148.99 132.019 147.959 131.622 147.791C131.424 147.73 130.952 148.204 130.205 149.212C129.474 150.235 128.964 151.098 128.674 151.801C128.567 152.061 128.598 152.404 128.765 152.832C128.964 153.321 129.276 153.71 129.703 154.001C130.16 154.291 130.701 154.398 131.325 154.321C131.782 154.276 132.125 154.184 132.354 154.046Z" fill="#0D131A"/>
<path d="M129.36 151.847C129.421 152.565 129.68 153.069 130.137 153.359L131.143 153.611L131.897 153.474C131.989 153.397 131.928 152.626 131.714 151.159C131.516 149.708 131.379 148.944 131.303 148.868C131.257 148.807 130.93 149.265 130.32 150.243L129.36 151.847Z" fill="white"/>
<path d="M193.196 135.143C193.379 134.67 193.463 134.188 193.447 133.7C193.417 132.905 193.28 132.531 193.036 132.577C192.823 132.623 192.648 132.928 192.51 133.493C192.404 133.86 192.251 134.234 192.053 134.616L191.619 135.258C190.781 136.098 189.775 136.64 188.602 136.884L182.5 137.182C178.766 137.136 174.972 137.534 171.117 138.374C168.786 138.878 165.662 139.771 161.747 141.055L155.644 142.934C153.374 143.545 151.461 143.873 149.907 143.919C149.161 143.934 147.21 143.621 144.056 142.979L133.063 140.688C121.33 138.32 111.266 136.823 102.87 136.197C100.082 135.998 97.7352 135.494 95.8306 134.685C94.1088 133.952 92.9431 133.073 92.3336 132.05C91.8004 131.149 91.3509 130.851 90.9852 131.156C90.6195 131.462 90.6576 131.935 91.0994 132.577C92.3489 134.349 93.7964 135.571 95.442 136.243C96.8743 136.808 99.3047 137.243 102.733 137.549C107.685 137.977 116.774 139.435 130 141.925C142.19 144.201 148.757 145.316 149.702 145.271C152.429 145.103 156.581 144.125 162.158 142.338C166.074 141.07 169.137 140.192 171.346 139.703C175.125 138.878 178.835 138.488 182.477 138.534C185.936 138.58 188.343 138.412 189.699 138.03C190.644 137.77 191.596 137.167 192.556 136.22C192.83 135.945 193.044 135.586 193.196 135.143Z" fill="#0D131A"/>
<path d="M158.432 138.695C158.828 138.481 158.981 138.191 158.889 137.824C158.783 137.457 158.463 137.327 157.929 137.434C157.396 137.541 156.977 137.709 156.672 137.939L155.461 139.176C155.019 139.68 154.973 140.001 155.324 140.138L156.01 140.184C156.756 139.604 157.564 139.107 158.432 138.695Z" fill="#0D131A"/>
<path d="M146.89 139.749C146.402 139.153 145.945 138.733 145.519 138.488C145.138 138.29 144.574 138.122 143.827 137.984C143.126 137.862 142.753 138.023 142.707 138.466C142.677 138.908 142.989 139.191 143.644 139.313C144.193 139.435 144.757 139.642 145.336 139.932C145.823 140.176 146.067 140.321 146.067 140.367L146.844 140.528C147.286 140.528 147.301 140.268 146.89 139.749Z" fill="#0D131A"/>
<path d="M108.286 58.6363C103.426 58.5294 99.7383 59.148 97.2241 60.4922L96.8584 60.6985L99.144 67.1829C102.009 66.6941 104.721 66.4191 107.281 66.358C105.483 67.0454 104.088 67.8092 103.098 68.6493C102.793 68.9243 102.45 69.1458 102.07 69.3138C101.841 69.4971 101.78 69.9095 101.887 70.5511L102.252 74.8588C102.45 77.089 102.664 78.4943 102.892 79.0748C103.167 79.7316 103.365 80.0524 103.487 80.0371C103.548 80.0218 103.654 79.7698 103.807 79.281C104.005 78.6241 104.759 77.7153 106.069 76.5543C107.73 75.0726 109.536 74.0492 111.486 73.484C109.063 75.5767 106.496 77.9826 103.784 80.7016L108.949 85.1696C112.469 88.1178 114.435 89.5537 114.846 89.4773C115.227 89.4009 116.103 88.7059 117.474 87.3922L121.131 83.8865L118.274 88.7441C117.177 90.623 116.644 91.7151 116.674 92.0207C116.735 92.5247 118.213 93.3649 121.108 94.5411L124.582 97.3365C126.959 99.139 128.331 99.9333 128.697 99.7195C129.062 99.5056 129.885 98.5738 131.165 96.9241L134.388 92.7768L132.513 98.4363C131.736 100.758 131.371 102.087 131.416 102.423C131.462 102.775 132.14 103.424 133.45 104.371L136.399 106.364C137.1 106.823 137.595 107.075 137.885 107.12C138.189 107.151 138.441 106.983 138.639 106.616L141.313 101.392C140.978 102.767 140.437 104.661 139.69 107.075C143.088 109.778 144.856 111.046 144.993 110.878C145.069 110.786 145.396 109.908 145.975 108.243L147.598 103.592L147.164 111.84C147.164 111.947 148.109 112.398 149.998 113.192C151.933 114.002 153.007 114.33 153.221 114.178C153.404 114.04 153.586 113.36 153.769 112.138L154.318 108.495L154.021 113.009C153.929 114.445 153.952 115.201 154.089 115.277C159.148 116.744 161.845 117.317 162.18 116.996C162.378 116.797 162.058 115.018 161.22 111.657L159.437 104.737C160.047 105.348 161.586 107.013 164.054 109.732C166.294 112.115 167.574 113.253 167.894 113.147C168.214 113.055 168.755 111.573 169.517 108.701L170.545 104.417L167.414 101.209L170.111 103.294C171.894 104.623 172.869 105.196 173.037 105.012C173.204 104.829 173.105 103.729 172.74 101.713L172.145 98.7342L164.626 93.2809L169.997 95.7097C171.962 96.6109 173.037 96.9546 173.219 96.7408C173.402 96.5269 172.877 94.9994 171.642 92.1581L169.745 87.965L163.14 82.1909L166.751 84.0927C168.184 84.8412 168.938 85.1467 169.014 85.0093C169.151 84.7648 166.82 81.4883 162.02 75.1795L153.564 72.957L156.489 72.5445L158.683 72.0634C159.003 71.9717 159.133 71.8037 159.072 71.5593L158.866 71.2156C157.022 69.52 155.148 67.9848 153.244 66.61L153.129 66.5184L149.769 66.2205L144.17 65.6477L149.084 64.7999L149.427 64.5708C149.518 64.3416 149.267 64.0361 148.672 63.6542L143.141 59.6445C140.063 57.399 138.311 56.2075 137.885 56.07C135.767 55.7187 133.009 56.0013 129.611 56.9178C126.213 57.8343 122.937 59.1862 119.783 60.9734C116.964 59.5223 113.132 58.7432 108.286 58.6363Z" fill="#0D131A"/>
<path d="M108.539 66.8621C106.634 67.4578 104.752 68.5424 102.893 70.1158L103.191 73.3465L103.693 77.7916C104.592 76.6918 105.865 75.6073 107.51 74.538C109.522 73.209 111.434 72.4071 113.247 72.1321L114.618 72.0405C114.71 72.1474 114.367 72.4758 113.59 73.0257C112.874 73.5451 111.464 74.8053 109.362 76.8064L105.522 80.5183L108.996 83.3824C109.072 83.4435 110.139 82.7332 112.196 81.2515C114.268 79.7698 115.434 79.0901 115.693 79.2123C115.952 79.3497 115.114 80.2433 113.179 81.8931L110.253 84.4135L114.824 88.1484L122.641 81.1828C123.631 80.3121 124.195 79.8997 124.332 79.9455C124.5 79.976 124.195 80.5947 123.418 81.8014C122.336 83.4817 120.553 86.7354 118.07 91.5624L121.452 93.2122L123.144 90.6688C124.317 89.0038 125.003 88.2171 125.201 88.3088C125.368 88.3851 124.926 89.3246 123.875 91.1271L122.344 93.8537L128.538 98.3447C132.301 93.5177 134.533 90.791 135.234 90.1647L136.377 89.2024C136.575 89.1718 136.484 89.6454 136.103 90.623C135.554 92.1047 134.389 95.9006 132.606 102.011L137.931 105.677L139.76 101.644L142.114 96.672C142.662 95.618 142.982 95.091 143.074 95.091C143.181 95.1063 143.196 95.6333 143.12 96.672C143.059 97.6344 142.754 99.2994 142.205 101.667C141.703 103.836 141.261 105.509 140.88 106.685L144.491 109.274L145.977 104.921C146.86 102.416 147.47 100.781 147.805 100.017C148.293 98.9481 148.59 98.3829 148.696 98.3218C148.879 98.2301 148.91 98.8641 148.788 100.224L148.216 111.153L152.445 112.78C153.511 106.807 154.205 103.24 154.525 102.08C154.753 101.194 154.982 100.743 155.21 100.728C155.439 100.728 155.538 101.216 155.507 102.194L155.119 114.453L160.856 115.69C158.601 106.754 157.549 102.057 157.702 101.598C157.793 101.323 159.309 102.721 162.25 105.791L167.415 111.268L169.404 104.737L166.227 101.598L162.844 98.0468C162.219 97.3289 161.96 96.8935 162.067 96.7408C162.158 96.6033 162.57 96.7408 163.301 97.1532C163.834 97.4587 165.29 98.4898 167.667 100.246L171.758 103.225L171.209 99.307C165.145 95.0758 161.64 92.54 160.696 91.6999C160.01 91.0889 159.713 90.7223 159.804 90.6001C159.896 90.4779 160.353 90.5542 161.176 90.8292C161.831 91.0431 163.515 91.7075 166.227 92.8226L171.415 94.9306L168.901 88.5608C164.025 84.2379 160.955 81.5647 159.69 80.5412L157.93 79.029C157.854 78.8762 158.623 79.0977 160.239 79.6934C161.671 80.2281 162.814 80.7245 163.667 81.1828L165.93 82.3972L161.404 76.0732L156.376 74.8129L150.342 73.1403C149.504 72.8348 149.1 72.5751 149.131 72.3612C149.146 72.1627 149.588 72.0939 150.456 72.155L153.633 72.0405L157.496 71.3531C155.759 69.8255 154.182 68.55 152.765 67.5266L146.159 66.9079L140.948 66.2664C140.141 66.1594 139.737 65.999 139.737 65.7852C139.737 65.5713 140.133 65.4033 140.925 65.2811L144.605 64.5021L147.142 63.8834C146.411 63.4251 144.643 62.142 141.84 60.034C139.341 58.1399 137.947 57.147 137.657 57.0553C134.351 56.6887 130.343 57.399 125.635 59.1862C123.288 60.0875 121.269 61.0193 119.578 61.9816C116.988 60.5763 113.392 59.7972 108.79 59.6445C104.204 59.4917 100.638 60.0187 98.0937 61.2255L99.4651 65.5561L104.813 65.2582C108.333 65.1054 110.824 65.0825 112.287 65.1895C113.872 65.3117 114.542 65.495 114.298 65.7394C114.1 65.9379 113.438 66.0907 112.31 66.1976C110.649 66.3657 109.392 66.5871 108.539 66.8621Z" fill="#00A63C"/>
<path d="M112.287 65.1894C113.871 65.3116 114.542 65.495 114.298 65.7394C114.1 65.9379 113.437 66.0907 112.31 66.1976C110.649 66.3656 109.392 66.5871 108.538 66.8621C106.634 67.4578 104.752 68.5424 102.893 70.1158L103.19 73.3465L103.693 77.7916C104.592 76.6918 105.864 75.6073 107.51 74.538C109.521 73.209 111.433 72.4071 113.247 72.1321L114.618 72.0405C114.709 72.1474 114.367 72.4758 113.59 73.0257C112.873 73.5451 111.464 74.8053 109.361 76.8064L105.521 80.5183L108.996 83.3824C109.072 83.4435 110.138 82.7332 112.195 81.2515C114.268 79.7698 115.433 79.09 115.692 79.2123C115.951 79.3497 115.113 80.2433 113.178 81.8931L110.253 84.4135L113.681 87.2318C117.125 81.641 121.688 77.8069 127.372 75.7295C133.558 73.484 139.508 74.0492 145.222 77.425C147.34 72.0786 150.502 69.268 154.707 68.993L152.764 67.5266L146.159 66.9079L140.948 66.2664C140.14 66.1594 139.737 65.999 139.737 65.7852C139.737 65.5713 140.133 65.4033 140.925 65.2811L144.605 64.5021L147.142 63.8834C146.41 63.4251 144.643 62.142 141.839 60.034C139.34 58.1399 137.946 57.147 137.657 57.0553C134.35 56.6887 130.343 57.399 125.635 59.1862C123.288 60.0875 121.269 61.0193 119.578 61.9816C116.987 60.5763 113.391 59.7972 108.79 59.6445C104.203 59.4917 100.638 60.0187 98.0934 61.2255L99.4647 65.5561L104.813 65.2582C108.333 65.1054 110.824 65.0825 112.287 65.1894Z" fill="#009233"/>
<path d="M121.657 60.8359H121.589L118.732 61.2713L117.886 61.0422C117.581 61.0422 118.092 61.424 119.417 62.1878C124.126 64.1125 128.75 66.6559 133.291 69.8179C142.083 75.9128 149.404 83.9247 155.255 93.8537L155.735 94.7244C155.796 94.7702 155.849 94.4342 155.895 93.7162C156.017 91.7762 155.293 89.1794 153.724 85.9258C152.048 82.443 149.777 79.0442 146.913 75.7294C139.584 67.2516 131.165 62.2871 121.657 60.8359Z" fill="#0D131A"/>
<path d="M120.537 61.8899C125.565 63.3105 130.875 66.1059 136.467 70.2761C144.177 76.0197 150.295 83.138 154.82 91.6311C154.287 89.3398 153.152 86.7048 151.415 83.7261C149.495 80.4419 147.179 77.3486 144.467 74.4463C137.579 67.1294 129.969 62.8217 121.634 61.5233L120.674 61.615C120.171 61.6761 120.125 61.7677 120.537 61.8899Z" fill="#00A63C"/>
<path d="M121.636 61.5233L120.676 61.615C120.174 61.6761 120.128 61.7677 120.539 61.8899C123.175 62.6384 126.108 63.8986 129.339 65.6706C133.422 67.9313 137.27 70.6733 140.881 73.8964C141.49 73.4687 142.168 73.125 142.915 72.8653C139.913 69.9324 136.729 67.5265 133.361 65.6477C129.552 63.5091 125.644 62.1343 121.636 61.5233Z" fill="#009233"/>
<path d="M37.9822 50.5021C37.906 51.1132 38.9117 52.3505 40.9991 54.2141C43.0714 56.0624 44.2828 56.8109 44.6332 56.4595L47.9473 52.5185L47.1016 55.0848C46.7207 56.3679 46.5988 57.2233 46.7359 57.651C46.9035 58.1704 48.0997 58.8425 50.3243 59.6674C52.5337 60.4923 53.7146 60.7214 53.8669 60.3548C53.9736 60.0798 54.4079 59.4612 55.1697 58.4988L57.181 56.0242L57.2267 59.507C57.242 60.8665 57.3181 61.6074 57.4553 61.7296C57.7753 62.0198 60.038 62.1573 64.2434 62.142C69.1193 62.1267 73.1572 61.7066 76.357 60.8818C77.1798 60.6832 77.6674 60.5228 77.8198 60.4006C78.1854 60.1104 78.5435 59.3924 78.894 58.2468C79.732 55.5583 81.271 52.6483 83.5108 49.5169C85.6136 46.5993 88.0439 43.8803 90.8018 41.3598C93.5445 38.8394 96.1577 36.9376 98.6413 35.6545C101.277 34.295 103.372 33.8596 104.927 34.3484L105.704 34.2339C110.991 31.6676 118.023 35.6774 126.8 46.2632C131.188 51.5485 135.051 57.0935 138.387 62.8981H147.644L148.33 58.4072L149.495 59.7819L150.25 61.1796L150.912 62.394C151.232 62.5468 152.07 62.3559 153.427 61.8212L159.186 59.8049L163.735 58.3613C164.496 58.1322 164.953 57.842 165.106 57.4906C165.289 57.0629 165.182 56.3144 164.786 55.2452L163.894 52.5643L163.026 49.7002C163.62 50.2043 164.687 51.5027 166.226 53.5954C167.643 55.5201 168.519 56.5665 168.854 56.7345C169.357 56.9636 171.071 56.2151 173.997 54.489C176.922 52.7782 178.507 51.6173 178.751 51.0062C178.888 50.6702 178.012 49.5398 176.122 47.6151C174.035 45.4765 171.505 43.2311 168.534 40.8787C160.291 34.3255 152.337 29.7429 144.673 27.1308C136.46 24.3201 129.215 23.289 122.937 24.0375C116.949 24.7402 111.128 27.1537 105.475 31.2781C99.7765 27.2606 92.9579 25.4047 85.0193 25.7102C77.4312 26.0004 69.5307 28.2077 61.3179 32.3321C55.5887 35.2344 50.0805 38.931 44.7932 43.422C40.3744 47.195 38.1041 49.5551 37.9822 50.5021Z" fill="#0D131A"/>
<path d="M44.7032 55.016L46.0746 52.9997C46.9431 51.7929 47.9106 50.6931 48.9772 49.7002C50.1505 48.5851 50.7828 48.1726 50.8743 48.4629C50.9352 48.6767 50.6838 49.3107 50.12 50.3647C49.7239 51.1132 49.3582 52.0297 49.0229 53.1142L47.9487 56.8491C49.1068 57.6434 50.8895 58.3231 53.297 58.8883L55.8797 55.1077C57.4034 52.9386 58.2262 51.9991 58.3481 52.2894C58.4852 52.5796 58.5843 53.9162 58.6452 56.2991L58.7595 60.5381L66.3019 60.8818C70.5835 60.8359 73.9586 60.3624 76.427 59.4612C77.2193 56.5588 78.7049 53.4656 80.8839 50.1814C82.9866 46.9888 85.4626 44.0406 88.312 41.3369C91.2527 38.5568 94.1859 36.4182 97.1114 34.9212C100.266 33.302 103.084 32.6147 105.568 32.8591C111.648 30.4761 118.794 34.0811 127.007 43.674C131.502 48.8982 135.57 54.8633 139.212 61.5692H146.503C146.884 59.9041 147.12 58.5294 147.211 57.4448L147.28 55.8409C147.356 55.6729 147.706 55.8867 148.331 56.4825L150.251 58.4759C150.861 59.2091 151.272 59.9194 151.485 60.6068C153.497 60.2402 157.618 58.9418 163.85 56.7116C162.631 52.6636 161.74 49.8147 161.176 48.165C160.78 47.0041 160.635 46.4007 160.742 46.3549L162.09 47.2256C163.065 47.8977 164.216 48.8982 165.542 50.2272C167.157 51.8616 168.406 53.4121 169.29 54.8785C170.829 54.4814 172.353 53.8322 173.861 52.9309C174.958 52.2894 175.888 51.6249 176.649 50.9375C173.267 47.5158 169.442 44.1705 165.176 40.9016C157.679 35.1733 150.586 31.1635 143.897 28.8722C135.593 26.0462 128.569 24.8471 122.824 25.2748C116.958 25.7178 111.351 27.9251 106.002 31.8967L105.294 32.2175C100.144 29.2082 94.5211 27.5814 88.4262 27.337C80.3963 27.0009 71.8939 29.0937 62.9192 33.6152C57.5862 36.3037 52.4056 39.6566 47.3773 43.674C43.9795 46.3931 41.2901 48.8371 39.3092 51.0062C39.7359 51.7242 40.5663 52.5032 41.8005 53.3434L44.7032 55.016Z" fill="#E85382"/>
<path d="M82.0481 27.5661C87.5792 29.0479 92.1504 31.744 95.7616 35.6545C99.449 33.5006 102.717 32.5688 105.567 32.8591C107.578 32.08 109.742 31.9654 112.058 32.5154C113.551 29.9338 115.471 27.7953 117.817 26.0997C113.84 27.0773 109.902 29.0097 106.001 31.8967L105.292 32.2175C98.329 28.1542 90.5809 26.6038 82.0481 27.5661Z" fill="#C94772"/>
<path d="M59.2383 35.5857C54.7128 38.1673 50.355 41.1918 46.1648 44.6593C43.2697 47.0423 40.9842 49.1579 39.3081 51.0062C39.7347 51.7395 40.5728 52.5261 41.8222 53.3663C46.3781 47.3325 52.1835 41.4056 59.2383 35.5857Z" fill="#C94772"/>
<path d="M135.622 55.4972C136.993 57.6816 138.189 59.7056 139.21 61.5692H145.633C141.016 54.9397 135.333 49.6085 128.582 45.5758C130.959 48.524 133.306 51.8311 135.622 55.4972Z" fill="#C94772"/>
<path d="M86.4596 32.1259C88.3795 30.8274 89.3394 29.9644 89.3394 29.5367C89.4004 28.9715 89.3395 28.4216 89.1566 27.8869C88.9738 27.3065 88.669 26.8864 88.2424 26.6267L88.1967 26.5809H88.1281C83.0846 26.4892 77.8049 27.3217 72.2891 29.0784L72.0148 29.1701L72.3348 29.9262C73.0814 31.6218 73.6985 32.8438 74.1861 33.5923C75.2679 35.2268 76.4641 36.2349 77.7745 36.6168C78.7801 36.9071 81.6752 35.4101 86.4596 32.1259Z" fill="#0D131A"/>
<path d="M87.8084 27.2224C83.1154 27.1613 78.1633 27.9404 72.9522 29.5596L73.0436 29.7658C73.6684 31.1864 74.2474 32.2786 74.7807 33.0424C75.7558 34.4477 76.8377 35.326 78.0262 35.6774C78.2852 35.7538 78.8414 35.6163 79.6947 35.2649C80.6851 34.8525 81.8812 34.2339 83.283 33.409C84.761 32.5383 86.0333 31.7058 87.0999 30.9115C88.0446 30.1935 88.5398 29.7352 88.5855 29.5367L88.6084 29.193C88.6084 28.2612 88.3417 27.6043 87.8084 27.2224Z" fill="#FCEEF4"/>
<path d="M87.8085 27.2224L81.2717 27.6578L84.7001 28.3452C86.041 28.6507 87.2904 29.1242 88.4484 29.7658L88.5855 29.5367L88.6084 29.193C88.6084 28.2612 88.3417 27.6043 87.8085 27.2224Z" fill="#D9CED4"/>
<path d="M75.7184 43.5595C72.9148 42.3986 70.8883 41.9709 69.6388 42.2764C68.2217 42.6124 67.1018 44.3386 66.279 47.4547C65.5324 50.296 65.38 52.3199 65.8219 53.5267C66.2028 54.596 67.6427 55.4438 70.1416 56.0701L73.7986 56.6658C75.0023 56.9255 77.166 55.7875 80.2896 53.2517L80.3353 53.2059L82.6895 48.5546C81.2267 46.5382 78.903 44.8732 75.7184 43.5595Z" fill="#0D131A"/>
<path d="M75.0785 44.0864C72.5186 43.0477 70.7207 42.6506 69.6845 42.895C69.4103 42.9713 68.9684 43.5671 68.3589 44.6822C67.8104 45.6904 67.3761 46.7444 67.0561 47.8442C66.6904 49.0509 66.5076 50.1508 66.5076 51.1437C66.5076 51.8769 66.6066 52.5185 66.8047 53.0684C67.338 54.5348 69.4712 55.4513 73.2043 55.8179L73.7071 55.8867C74.6518 56.1005 76.4651 55.1382 79.1468 52.9996L81.0895 49.8605L81.7295 48.692C80.3124 46.8131 78.0954 45.2779 75.0785 44.0864Z" fill="#FCEEF4"/>
<path d="M56.6783 40.008C53.2652 41.8105 51.3834 42.9943 51.0329 43.5595C50.9415 43.7275 50.9415 43.8956 51.0329 44.0636C51.3377 44.6135 52.77 45.4307 55.3298 46.5153C57.783 47.554 59.3067 48.0734 59.901 48.0734C60.5104 48.0734 61.6227 47.2409 63.2379 45.5759C64.8225 43.9414 65.7139 42.7499 65.912 42.0014C66.1101 41.1765 65.9272 40.2982 65.3635 39.3664C65.1197 38.9692 64.7311 38.5721 64.1978 38.1749C63.6798 37.793 63.2455 37.5639 62.8951 37.4875C62.2246 37.3348 60.1524 38.1749 56.6783 40.008Z" fill="#0D131A"/>
<path d="M52.1081 43.8344C52.23 44.1858 53.4033 44.8426 55.6279 45.805C57.822 46.7368 59.2086 47.2027 59.7876 47.2027C60.199 47.2027 61.1437 46.4618 62.6217 44.9801C64.115 43.4831 64.953 42.3909 65.1358 41.7035C65.3187 41.0467 65.1587 40.3211 64.6559 39.5268C64.214 38.8241 63.7188 38.4117 63.1703 38.2895C62.6065 38.1673 60.6942 38.954 57.4335 40.6495C54.2489 42.284 52.4738 43.3456 52.1081 43.8344Z" fill="#FCEEF4"/>
<path d="M128.241 24.8166L127.83 24.7936L127.967 25.1603L128.995 29.1013C129.559 31.2093 129.978 32.3397 130.252 32.4924C130.74 32.7216 132.485 32.7674 135.486 32.6299C138.549 32.4772 140.362 32.2175 140.926 31.8509L141.269 31.5759L141.475 31.3239C141.475 31.0642 140.812 30.14 139.486 28.5514L137.498 26.2372L136.835 25.8018L132.378 25.1144L128.241 24.8166Z" fill="#0D131A"/>
<path d="M128.719 25.3436L129.45 28.3681L129.953 30.4761C130.151 31.1482 130.349 31.5377 130.547 31.6447C130.974 31.8585 132.566 31.8814 135.324 31.7134C138.082 31.5454 139.651 31.3315 140.032 31.0718C139.956 30.6747 139.194 29.5978 137.747 27.8411L136.901 26.7871C133.991 26.0539 131.263 25.5727 128.719 25.3436Z" fill="#FCEEF4"/>
<path d="M148.627 38.5186C144.346 36.3037 141.961 35.2344 141.473 35.3108C140.955 35.4024 139.957 37.2737 138.479 40.9245C137.017 44.5295 136.293 46.8055 136.308 47.7526C136.323 48.8371 138.578 49.7995 143.073 50.6396C147.523 51.4645 149.938 51.5791 150.319 50.9833L153.13 47.3172C154.882 44.9495 155.705 43.5442 155.598 43.1012C155.4 42.3222 153.076 40.7946 148.627 38.5186Z" fill="#0D131A"/>
<path d="M154.594 43.3304C154.457 42.811 152.43 41.5202 148.514 39.458C144.674 37.4417 142.419 36.4106 141.749 36.3648C141.337 36.6397 140.484 38.3429 139.189 41.4744C137.879 44.6517 137.223 46.6757 137.223 47.5464V47.5693L137.566 48.0046C137.978 48.3101 138.656 48.6156 139.6 48.9212C141.459 49.5322 143.562 49.9599 145.909 50.2043C148.118 50.4487 149.329 50.4258 149.543 50.1355L151.051 48.3483C153.413 45.7362 154.594 44.1018 154.594 43.4449V43.3304Z" fill="#FCEEF4"/>
<path d="M130.16 36.0898C129.551 35.2038 129.117 34.6921 128.858 34.5546C127.806 34.0353 126.069 33.7069 123.647 33.5694C120.477 33.4013 118.451 34.0582 117.567 35.5399L117.43 35.769L117.635 35.9065C119.906 37.3882 122.23 39.374 124.606 41.8639L124.698 41.9556L124.835 41.9326L128.446 41.4515L131.76 41.0161C132.355 40.8939 132.69 40.7335 132.766 40.5349C132.827 40.428 132.819 40.3135 132.743 40.1913L132.035 39.0685L130.16 36.0898Z" fill="#0D131A"/>
<path d="M128.194 34.99C127.417 34.5928 125.939 34.3102 123.76 34.1422C120.987 33.9436 119.136 34.3713 118.206 35.4253C120.248 36.8307 122.434 38.7401 124.766 41.1536L127.988 40.7412L131.714 40.1683L131.097 39.1831C129.512 36.5557 128.545 35.158 128.194 34.99Z" fill="#FCEEF4"/>
<path d="M79.7412 178.266C78.9489 178.754 77.9966 179.541 76.8842 180.626C75.6957 181.771 75.0939 182.535 75.0786 182.917C75.0329 183.36 75.4062 184.192 76.1986 185.414C76.93 186.56 77.6156 187.446 78.2556 188.072C78.1642 185.995 78.1946 184.307 78.347 183.009C78.5603 181.191 79.0251 179.61 79.7412 178.266Z" fill="#DBDCDC"/>
</svg>
