<svg width="207" height="226" viewBox="0 0 207 226" fill="none" xmlns="http://www.w3.org/2000/svg">
<g clip-path="url(#clip0_2621_689)">
<path d="M190.164 21.368C190.657 10.8985 189.506 4.80035 186.709 3.07369C184.597 1.75814 182.253 2.78591 179.675 6.15701C176.495 10.2407 173.944 15.7084 172.025 22.5602C169.694 30.9195 168.597 40.4298 168.734 51.0912C168.625 53.5853 168.734 56.1204 169.063 58.6967L170.421 66.7956L172.148 76.4155C172.669 79.6222 173.944 81.3625 175.974 81.6366C178.496 81.9655 181.554 80.1018 185.146 76.0455C188.244 72.5374 191.041 68.2893 193.537 63.3011C195.456 59.4915 196.045 56.4356 195.305 54.1334C194.51 51.6393 192.371 51.5297 188.889 53.8045C191.274 49.9127 192.878 44.5957 193.701 37.8535C194.661 30.0698 193.468 25.301 190.123 23.5469L190.164 21.368Z" fill="#0D131A"/>
<path d="M181.692 7.26694C174.946 12.6114 171.052 27.2331 170.01 51.1323C169.901 53.5715 170.01 56.0656 170.34 58.6144L171.697 66.5899L173.424 76.2099C173.836 78.8136 174.741 80.1977 176.139 80.3621C178.168 80.6088 180.855 78.9095 184.201 75.2643C187.299 71.8658 189.644 68.3714 191.234 64.7811C193.592 59.3544 194.223 56.1204 193.126 55.0789L190.247 55.2433L186.504 56.23C185.572 56.5315 184.982 56.4356 184.735 55.9422C184.461 55.4215 185.01 54.9145 186.381 54.4211C187.834 53.9004 189.219 50.5293 190.535 44.3079C191.851 38.1412 192.221 33.3587 191.645 29.9602C191.179 27.055 190.343 25.1776 189.136 24.328L188.849 24.1635V23.7935C189.068 13.2143 187.971 7.32176 185.558 6.11584C184.626 5.62251 183.337 6.00621 181.692 7.26694Z" fill="#AFCEE5"/>
<path d="M185.433 13.3103C185.131 12.4058 184.651 12.4058 183.993 13.3103L182.718 15.0369C181.621 16.928 180.483 20.0114 179.304 24.2869C177.824 29.6313 176.576 35.6335 175.561 42.2935C174.547 48.926 174.094 54.0238 174.204 57.5867C174.341 61.5882 175.191 62.5337 176.754 60.4234C179.496 56.7234 180.963 51.1323 181.155 43.6501L181.361 35.5924C181.553 32.8243 182.019 30.7413 182.759 29.3435C184.459 26.2191 185.447 22.2725 185.721 17.5036C185.83 15.5577 185.734 14.1599 185.433 13.3103Z" fill="#93AEC1"/>
<path d="M183.09 15.2014C184.05 13.2554 184.379 12.214 184.077 12.0769C183.776 11.9673 183.118 12.7347 182.103 14.3791C180.677 16.6813 179.169 21.2447 177.579 28.0691C175.659 36.3735 175.015 43.4308 175.645 49.2412L177.291 51.2556C176.687 45.6645 177.236 38.5797 178.936 30.0013C180.334 22.9302 181.719 17.9969 183.09 15.2014Z" fill="#0D131A"/>
<path d="M156.437 94.2164C152.927 95.9979 149.869 101.096 147.265 109.51C144.742 117.65 143.878 124.625 144.673 130.435C145.249 134.656 146.812 137.04 149.362 137.588C154.133 138.493 160.564 136.561 168.653 131.792C175.508 127.708 182.089 122.569 188.396 116.375C196.896 107.989 201.174 100.506 201.229 93.9287C201.229 92.2842 200.913 90.6946 200.283 89.1598C199.652 87.625 198.774 86.2957 197.65 85.172C194.552 82.075 187.463 82.3354 176.385 85.9532C170.188 87.9539 163.539 90.7083 156.437 94.2164Z" fill="#0D131A"/>
<path d="M148.374 110.126C145.989 118.047 145.18 124.762 145.948 130.271C146.414 133.916 147.634 135.93 149.608 136.314C153.941 137.136 159.754 135.382 167.048 131.052C173.519 127.242 179.949 122.199 186.338 115.923C190.424 111.922 193.55 108.016 195.716 104.206C197.91 100.397 199.02 96.9435 199.048 93.8465C199.048 90.9139 198.047 88.4199 196.045 86.3643C193.577 83.8977 187.86 83.9662 178.894 86.5699C172.121 88.5432 164.827 91.4758 157.012 95.3676C153.749 97.012 150.87 101.932 148.374 110.126Z" fill="#88A3D4"/>
<path d="M163.43 116.91C161.73 115.43 159.646 113.114 157.178 109.962C154.299 106.262 152.311 103.85 151.214 102.726C149.267 106.783 147.786 111.456 146.772 116.745C145.702 122.144 145.428 126.653 145.949 130.271C146.415 133.916 147.635 135.93 149.61 136.314C153.503 137.081 158.645 135.725 165.034 132.244C170.655 129.202 176.496 124.954 182.556 119.5C175.125 122.35 168.749 121.487 163.43 116.91Z" fill="#778DB8"/>
<path d="M198.843 83.2399C195.826 82.6095 193.729 82.7192 192.55 83.5688C192.275 83.7606 192.221 84.1991 192.385 84.8843L193.084 87.0632C193.359 87.9402 193.742 88.7899 194.236 89.6121C194.812 90.5987 195.292 91.0921 195.676 91.0921C196.306 91.0921 197.869 90.6124 200.365 89.6532C203.161 88.5843 204.752 87.6662 205.136 86.8988C205.355 86.4328 205.177 85.9532 204.601 85.4599C203.504 84.5554 201.585 83.8154 198.843 83.2399Z" fill="#0D131A"/>
<path d="M195.675 90.4343C196.224 90.4343 197.608 89.9683 199.83 89.0365C202.215 88.0498 203.559 87.2413 203.86 86.6109V86.5287L203.49 85.9532C202.53 85.131 200.954 84.528 198.76 84.1443C196.374 83.7058 194.661 83.8565 193.619 84.5965C193.454 84.6787 193.372 84.9254 193.372 85.3365L193.413 85.871C193.55 86.748 193.92 87.7346 194.524 88.8309L195.675 90.4343Z" fill="white"/>
<path d="M205.876 90.0642C205.053 89.5983 203.559 89.2694 201.393 89.0775C199.473 88.9131 197.951 88.8994 196.827 89.0364C196.553 89.0638 196.334 89.2283 196.169 89.5298C195.785 90.3246 195.895 91.6675 196.498 93.5586C197.184 95.6416 198.184 97.0805 199.501 97.8753C200.049 98.2316 202.147 96.3405 205.794 92.202C206.205 91.6812 206.397 91.229 206.369 90.8453C206.369 90.489 206.205 90.2286 205.876 90.0642Z" fill="#0D131A"/>
<path d="M204.848 91.051C204.876 90.6124 203.765 90.2287 201.517 89.8999L196.91 89.6532L196.745 89.8176L196.663 90.3932C196.663 91.1332 197.006 92.3528 197.691 94.0521C198.404 95.8061 198.966 96.6831 199.378 96.6831C199.844 96.6831 200.858 95.8746 202.421 94.2576C204.012 92.6406 204.821 91.5717 204.848 91.051Z" fill="white"/>
<path d="M204.766 91.3798C202.188 92.9146 199.953 94.1068 198.061 94.9564C198.637 96.1075 199.076 96.6831 199.377 96.6831C199.816 96.6831 200.735 95.9842 202.133 94.5864C203.559 93.1886 204.437 92.1198 204.766 91.3798Z" fill="#DBDCDC"/>
<path d="M202.462 85.2954L196.498 85.5832L191.768 86.6932C191.274 86.8028 190.932 87.1591 190.74 87.7621C190.273 89.3243 190.932 91.1057 192.714 93.1065C194.414 95.0524 195.62 95.7924 196.333 95.3265C197.567 94.5591 198.993 92.9557 200.611 90.5165C202.174 88.1321 202.901 86.5698 202.791 85.8299C202.791 85.6106 202.681 85.4324 202.462 85.2954Z" fill="#0D131A"/>
<path d="M201.146 86.6933C201.393 86.2548 199.871 86.2685 196.58 86.7344C193.317 87.2003 191.645 87.6663 191.563 88.1322C191.371 89.2011 191.864 90.5166 193.043 92.0788C194.195 93.5862 195.168 94.3262 195.964 94.2988C196.567 94.2714 197.554 93.0929 198.925 90.7633L201.146 86.6933Z" fill="white"/>
<path d="M195.964 94.2987C196.512 94.2713 197.376 93.2984 198.555 91.3799L200.858 87.2277L193.373 92.4488C194.415 93.6821 195.278 94.2987 195.964 94.2987Z" fill="#DBDCDC"/>
<path d="M153.434 158.802C151.213 157.075 147.744 157.198 143.028 159.172C137.653 161.419 131.662 165.462 125.053 171.299C118.747 176.836 115.47 180.659 115.223 182.769V182.975L114.812 184.167L114.524 184.989C122.476 190.58 126.548 193.869 126.74 194.856C125.862 199.433 125.602 202.503 125.958 204.065C126.123 204.723 128.55 206.12 133.238 208.258L140.354 211.259C141.615 211.725 142.795 211.163 143.891 209.574L145.742 206.038L150.514 208.423C153.009 209.656 154.654 210.3 155.449 210.355C156.382 210.464 157.204 209.765 157.917 208.258L159.11 205.01L162.894 205.75L167.048 206.367C167.542 206.367 167.898 206.175 168.118 205.791C168.255 205.572 168.323 205.298 168.323 204.969C168.323 203.654 167.802 201.941 166.76 199.83C166.623 199.529 166.171 198.844 165.403 197.775L164.21 195.925C166.184 193.047 167.569 190.704 168.364 188.895C169.379 186.62 169.941 184.236 170.051 181.742V181.577C169.749 177.685 167.199 172.985 162.4 167.476C159.302 163.913 156.313 161.022 153.434 158.802Z" fill="#0D131A"/>
<path d="M146.565 159.295C143.878 160.008 140.67 161.542 136.941 163.899C131.868 167.106 127.056 170.929 122.504 175.369C118.5 179.316 116.499 181.838 116.499 182.934V182.975C118.171 184.181 120.365 186.003 123.08 188.443C126.672 191.704 128.468 193.814 128.468 194.774L127.851 199.008C127.522 201.557 127.494 202.955 127.768 203.201C128.125 203.53 129.852 204.421 132.951 205.874C136.104 207.326 138.531 208.354 140.231 208.957C141.246 209.313 142.233 208.888 143.193 207.683L144.879 204.928C145.153 204.462 146.716 204.764 149.568 205.833C151.679 206.6 153.448 207.34 154.874 208.053C155.916 208.573 156.999 207.258 158.123 204.106C158.26 203.695 159.576 203.667 162.072 204.024L166.349 204.188C166.678 203.804 166.445 202.845 165.65 201.31L163.223 197.035C162.319 197.884 161.345 198.57 160.303 199.09C159.234 199.584 158.932 199.488 159.398 198.803L160.632 197.24L162.936 194.322C165.76 190.622 167.268 186.415 167.46 181.7V181.536C167.46 179.152 165.335 175.123 161.085 169.449C157.438 164.544 154.627 161.323 152.653 159.788C151.309 158.747 149.28 158.582 146.565 159.295Z" fill="#88A3D4"/>
<path d="M151.418 159.172C148.374 158.13 143.548 159.706 136.94 163.899C131.867 167.106 127.055 170.929 122.503 175.369C118.499 179.316 116.498 181.837 116.498 182.934V182.975C118.17 184.181 120.364 186.003 123.079 188.443C126.671 191.704 128.467 193.814 128.467 194.774L127.85 199.008C127.521 201.557 127.493 202.955 127.768 203.201C128.179 203.585 130.208 204.654 133.855 206.408C137.639 208.19 139.764 209.039 140.23 208.957C139.737 207.422 139.463 205.202 139.408 202.297C139.38 200.378 138.599 198.433 137.063 196.459C134.76 193.472 135.884 187.237 140.436 177.754C143.507 171.368 147.168 165.174 151.418 159.172Z" fill="#778DB8"/>
<path d="M69.6488 62.109C66.8793 57.7238 63.2049 53.9553 58.6257 50.8035C54.1012 47.6791 49.4808 45.6783 44.7645 44.8013C37.5803 43.4858 30.6839 44.3217 24.0755 47.3091C16.8091 50.5979 12.079 55.682 9.88532 62.5612C7.69166 69.3856 7.91102 74.963 10.5434 79.2933C12.3806 82.3081 14.9993 84.3637 18.3995 85.46C14.9719 89.6259 13.3266 94.4222 13.4637 99.8488C13.5186 101.575 13.9984 104.207 14.9033 107.742C9.3369 110.483 5.51171 114.635 3.42773 120.199C1.5357 125.214 1.20666 130.888 2.44059 137.219C3.59226 143.193 5.93674 148.839 9.47401 154.156C13.0661 159.556 17.2478 163.639 22.019 166.407C31.5066 171.889 40.1852 174.355 48.055 173.807C51.7842 173.533 56.4046 172.149 61.9162 169.655C63.4791 168.97 64.6719 166.243 65.4946 161.474C66.0704 158.103 66.7148 151.594 67.4277 141.946C68.1681 132.217 68.8262 124.885 69.402 119.952C70.444 111.182 71.7739 103.686 73.3917 97.4644C75.3386 90.037 75.791 82.9796 74.7491 76.2922C73.9264 70.8656 72.2263 66.1379 69.6488 62.109Z" fill="#0D131A"/>
<path d="M44.3541 46.8157C37.5537 45.555 31.0139 46.432 24.7345 49.4468C17.9068 52.7082 13.4509 57.6416 11.3669 64.2467C9.66685 69.6185 9.81766 74.1818 11.8194 77.9366C12.7243 79.6633 13.9719 81.1433 15.5623 82.3766C16.9059 83.3907 18.2632 84.1033 19.6343 84.5144L19.9222 85.5832C16.7962 89.0366 15.2607 93.8328 15.3155 99.9721C15.3429 103.042 15.6857 105.796 16.3438 108.235L16.0148 108.646L14.6574 109.345C13.5606 109.976 12.4912 110.798 11.4492 111.812C8.21355 114.964 5.93763 119.239 4.62144 124.639C3.19556 130.531 4.21012 137.52 7.66513 145.605C11.3121 154.211 16.4535 160.638 23.0893 164.886C31.0687 169.984 39.0619 172.382 47.0687 172.081C51.7303 171.889 56.5152 170.696 61.4235 168.504C62.7123 167.928 63.7405 165.037 64.5083 159.83C64.9745 156.678 65.5366 150.689 66.1947 141.864C66.8802 132.272 67.5246 124.913 68.1278 119.788C69.1698 110.99 70.5135 103.453 72.1587 97.1765C74.0233 90.0232 74.3386 83.2399 73.1047 76.8266C72.1998 71.9207 70.4312 67.4122 67.7988 63.3012C65.0841 59.053 61.6291 55.4627 57.4338 52.5301C53.2384 49.5701 48.8785 47.6653 44.3541 46.8157Z" fill="#AFCEE5"/>
<path d="M58.7084 161.309C56.076 163.201 53.0871 164.242 49.7418 164.434C46.8626 164.626 43.2157 164.174 38.8009 163.077C31.2054 160.967 23.8018 157.445 16.5901 152.512C12.9432 150.018 9.91318 147.592 7.50015 145.235C9.17282 149.264 11.2979 152.937 13.8755 156.253C16.645 159.843 19.7161 162.721 23.0888 164.886C31.0683 169.984 39.0614 172.382 47.0683 172.081C51.7298 171.889 56.5147 170.696 61.423 168.504C61.7247 168.367 61.7521 168.134 61.5053 167.805L60.3536 166.572C58.9826 165.009 58.4342 163.255 58.7084 161.309Z" fill="#93AEC1"/>
<path d="M41.5567 119.13C41.2003 120.582 40.2817 122.213 38.801 124.022C37.1557 126.077 35.4556 127.393 33.7007 127.968C30.6296 128.9 28.2577 128.53 26.585 126.858C25.0495 125.324 24.3639 122.98 24.5285 119.828C22.1703 121.61 21.3614 123.953 22.1017 126.858C22.7873 129.627 24.4873 131.6 27.202 132.778C32.4668 135.053 36.7581 133.779 40.076 128.955C41.3648 127.119 42.16 125.173 42.4616 123.117C42.7632 121.062 42.5028 119.582 41.6801 118.677L41.5979 118.965L41.5567 119.13Z" fill="#93AEC1"/>
<path d="M28.2308 85.5421C25.2693 86.145 22.4998 86.1587 19.9223 85.5832C17.948 87.7758 16.6181 90.4754 15.9326 93.682C18.3456 95.3539 21.1014 96.2035 24.1999 96.2309C27.3807 96.2583 30.4107 95.4087 33.2899 93.682C35.8949 92.1198 37.8006 89.0776 39.0071 84.5554C39.9943 80.828 40.2685 77.7036 39.8297 75.1821C38.02 80.9102 34.1536 84.3636 28.2308 85.5421Z" fill="#93AEC1"/>
<path d="M40.6925 75.5522C40.9119 73.7981 40.7611 72.0989 40.2401 70.4544C39.6917 68.7826 38.8142 67.3026 37.6077 66.0144C36.5109 64.8633 35.1673 64.137 33.5769 63.8356C32.4252 63.6163 31.2872 63.6026 30.163 63.7945C28.7645 64.0411 27.5306 64.5893 26.4612 65.4389C25.5837 66.1515 24.9805 66.9463 24.6514 67.8233C24.1853 69.1389 23.9659 69.9748 23.9933 70.3311C24.0756 70.797 24.5691 70.2352 25.474 68.6455C26.4612 66.9189 28.0653 65.9048 30.2864 65.6033C32.4526 65.3019 34.4132 65.7952 36.1681 67.0833C37.0182 67.7137 37.7448 68.7963 38.3481 70.3311C38.9787 71.9755 39.1981 73.5377 39.0062 75.0177C38.8142 76.6073 38.2658 78.101 37.3609 79.4988C36.456 80.8692 35.3044 81.9929 33.9059 82.8699C31.7945 84.1581 29.4226 84.9529 26.7902 85.2543C24.2675 85.501 21.8956 85.268 19.6745 84.5555L17.2889 84.4321C17.1793 84.8432 17.8236 85.2818 19.2221 85.7477C22.5949 86.844 25.6934 87.1591 28.5177 86.6932C30.6566 86.3095 32.9188 85.3777 35.3044 83.8977C38.4303 81.9518 40.2264 79.1699 40.6925 75.5522Z" fill="#0D131A"/>
<path d="M25.1868 123.117C24.9949 122.049 25.0497 121.076 25.3513 120.199L25.7626 119.253C25.982 118.869 26.3522 118.472 26.8732 118.061C27.3942 117.622 27.641 117.321 27.6135 117.156L26.9966 117.115C26.2288 117.334 25.557 117.718 24.9811 118.266C24.3779 118.842 23.9529 119.5 23.7061 120.24C23.3496 121.281 23.3085 122.391 23.5827 123.57C23.8843 124.858 24.515 125.995 25.4747 126.982C26.5167 128.051 27.7918 128.777 29.2999 129.161C31.0274 129.599 32.892 129.558 34.8937 129.037C36.2922 128.681 37.6084 127.873 38.8423 126.612C40.1859 125.269 41.0908 123.72 41.557 121.966C42.8183 117.389 41.0223 113.004 36.1688 108.811C33.7558 106.7 30.4242 105.563 26.1739 105.399C22.1157 105.262 18.4961 106.002 15.3153 107.619C13.4782 108.55 12.6555 109.208 12.8475 109.592C13.0668 109.976 14.0677 109.702 15.8501 108.77C17.934 107.673 20.9914 107.139 25.0223 107.166C29.5741 107.194 32.9194 108.112 35.0583 109.921C38.6504 112.936 39.9803 116.457 39.048 120.486C38.2254 124.104 36.4841 126.256 33.8243 126.941C30.5064 127.79 28.1208 127.475 26.6675 125.995C25.8997 125.228 25.4062 124.269 25.1868 123.117Z" fill="#0D131A"/>
<path d="M30.041 85.6654L29.3418 85.0487C27.8062 86.3368 26.9562 88.2828 26.7917 90.8865C26.682 93.1064 27.0522 95.4361 27.9022 97.8753L28.8071 100.301C28.8893 100.328 28.7934 99.4786 28.5192 97.752C27.6143 92.1335 28.1216 88.1046 30.041 85.6654Z" fill="#0D131A"/>
<path d="M36.6636 82.2533L35.7587 81.9244C34.7716 84.9118 35.0732 89.7492 36.6636 96.4366C38.4459 104.028 41.2154 109.866 44.9721 113.95L48.2625 117.28C48.4545 117.335 47.6044 116.019 45.7124 113.333C42.1477 108.29 39.4879 102.247 37.733 95.2033C36.1974 88.9818 35.841 84.6652 36.6636 82.2533Z" fill="#0D131A"/>
<path d="M55.2543 160.652L55.46 159.706C48.5225 158.144 42.298 153.896 36.7864 146.962C34.9218 144.605 33.304 142.152 31.933 139.603C30.8636 137.575 30.274 136.204 30.1643 135.492C29.9724 134.341 29.7256 133.656 29.424 133.436C29.1224 133.244 29.0538 133.998 29.2183 135.697C29.4925 138.931 31.6039 142.974 35.5525 147.825C40.8173 154.348 47.3846 158.624 55.2543 160.652Z" fill="#0D131A"/>
<path d="M55.4593 163.612C53.1559 164.215 49.7146 164.201 45.1354 163.571C40.2545 162.913 36.1276 161.789 32.7549 160.199C30.8629 159.322 29.9169 159.021 29.9169 159.295C29.8894 159.569 30.6709 160.145 32.2613 161.022C36.6761 163.461 41.269 164.872 46.0402 165.256C49.4404 165.558 52.6624 165.325 55.7061 164.557L55.4593 163.612Z" fill="#0D131A"/>
<path d="M71.1715 92.7365C62.3146 99.6431 56.2409 109.469 52.9505 122.213C51.1681 129.147 50.414 136.026 50.6882 142.851C50.935 149.565 52.1416 155.458 54.3078 160.528L54.6368 161.351L55.2949 160.775C59.7097 157.075 63.5623 153.306 66.8528 149.469C68.8545 147.195 70.3352 143.837 71.2949 139.397C71.8982 136.684 72.4466 132.436 72.9402 126.653C73.3789 121.911 73.7628 118.554 74.0918 116.581C74.6951 113.155 75.5451 110.469 76.642 108.523C77.9856 106.166 79.8776 103.973 82.3181 101.945C83.7439 100.739 86.061 99.1223 89.2692 97.0942C93.1355 94.655 95.8913 92.6679 97.5366 91.1331C100.279 88.502 102.116 85.4735 103.048 82.0476L103.295 81.1432L102.349 81.2254C89.7079 82.541 79.3155 86.378 71.1715 92.7365Z" fill="#0D131A"/>
<path d="M65.907 148.606C67.799 146.468 69.1974 143.248 70.1023 138.945C70.6507 136.369 71.1717 132.23 71.6653 126.53L72.8581 116.252C73.4888 112.744 74.38 109.962 75.5316 107.906C76.9301 105.412 78.8907 103.11 81.4134 101C82.9215 99.739 85.3208 98.0809 88.6113 96.0253C92.176 93.7779 94.7398 91.9417 96.3028 90.5165C98.7707 88.2143 100.498 85.5969 101.485 82.6643C89.9412 84.0621 80.0423 88.4609 71.7887 95.8609C63.5076 103.288 57.8041 112.895 54.6782 124.68C52.9781 131.093 52.128 137.068 52.128 142.604C52.128 148.634 53.1426 154.17 55.1717 159.213C59.23 155.732 62.8084 152.197 65.907 148.606Z" fill="#B94100"/>
<path d="M54.6782 124.68C52.9781 131.093 52.1281 137.068 52.1281 142.604C52.1281 148.634 53.1426 154.17 55.1718 159.213C57.53 157.157 59.6277 155.211 61.4648 153.375C58.6405 149.84 56.6525 145.263 55.5008 139.644C54.4863 134.766 54.2121 129.777 54.6782 124.68Z" fill="#922F00"/>
<path d="M73.6807 94.2165C80.8924 91.7772 87.6242 91.2017 93.8761 92.4898C95.7407 91.092 97.2488 89.6943 98.4005 88.2965C99.799 86.5972 100.827 84.7199 101.485 82.6643C90.9009 83.925 81.6327 87.7758 73.6807 94.2165Z" fill="#922F00"/>
<path d="M71.7056 139.891C70.554 144.002 68.991 147.167 67.0167 149.387L61.7519 154.691L55.9936 159.706L54.4717 160.939L54.6774 161.392C57.6937 168.463 61.7793 173.972 66.9344 177.918C72.5283 182.221 80.3843 185.551 90.5026 187.908C96.919 190.43 103.843 191.307 111.274 190.539C119.363 189.662 126.245 186.949 131.922 182.399C139.298 179.522 145.687 174.807 151.089 168.257C156.244 162.008 160.014 154.691 162.4 146.304C165.142 137.369 165.731 128.996 164.168 121.185C162.852 114.553 159.918 108.194 155.366 102.11C151.747 97.286 147.113 93.1475 141.464 89.6942C135.815 86.2135 129.358 83.5413 122.091 81.6776C119.102 80.9102 116.114 80.4717 113.125 80.3621L104.199 80.7732L103.788 80.8143L103.665 81.2665C102.787 84.5006 101.101 87.5291 98.6054 90.352C97.1247 92.0513 94.5608 94.4083 90.9139 97.4231L84.3329 103.261C81.9747 105.59 80.1101 107.989 78.7391 110.455C77.56 112.566 76.5728 115.306 75.7776 118.677C75.284 120.788 74.7082 123.94 74.0501 128.133C73.2001 133.505 72.4186 137.424 71.7056 139.891Z" fill="#0D131A"/>
<path d="M56.0352 161.31C58.887 167.805 63.5074 173.218 69.8964 177.548C76.258 181.906 84.5117 185.263 94.6573 187.62C100.854 189.073 107.381 189.1 114.236 187.703C121.064 186.332 127.631 183.674 133.938 179.727C140.902 175.369 146.757 169.957 151.501 163.488C156.244 157.02 159.453 150.073 161.125 142.645C164.443 127.982 162.633 115.361 155.696 104.782C148.731 94.2303 137.434 86.9399 121.804 82.9111C118.952 82.1711 116.087 81.76 113.207 81.6777L104.734 82.0066C103.747 85.3229 102.006 88.4062 99.5108 91.2566C97.9478 93.038 95.3429 95.4225 91.6959 98.4099L85.2794 104.083C83.0035 106.385 81.1938 108.715 79.8501 111.072C78.7259 113.1 77.7799 115.731 77.0121 118.965L75.2846 128.339C74.4346 133.793 73.6393 137.808 72.899 140.384C71.6925 144.632 70.0609 147.921 68.0044 150.251C66.5785 151.895 64.7687 153.704 62.5751 155.677L56.8167 160.652L56.0352 161.31Z" fill="#FFF8B0"/>
<path d="M56.816 160.652L56.0345 161.31C58.8863 167.805 63.5066 173.218 69.8957 177.548C76.2573 181.906 84.5109 185.263 94.6566 187.62C98.8794 188.58 103.376 188.895 108.148 188.566C103.212 188.566 98.0568 185.949 92.6823 180.714C87.9934 176.164 84.1133 170.697 81.0422 164.311C79.8631 161.954 79.5066 159.144 79.9728 155.883C80.5486 151.964 82.331 149.017 85.3198 147.044C87.3216 144.249 88.8434 140.343 89.8854 135.327L91.8597 123.2C92.6275 119.061 93.7517 116.348 95.2324 115.06C97.1245 113.415 100.031 113.498 103.952 115.306C112.041 119.089 120.048 121.391 127.973 122.213C140.998 123.611 151.651 120.61 159.932 113.21C157.217 105.892 152.638 99.6569 146.194 94.5043C139.695 89.297 131.565 85.4325 121.803 82.9111C118.951 82.1711 116.086 81.76 113.207 81.6777L104.734 82.0066C103.747 85.3229 102.005 88.4062 99.5101 91.2566C97.9471 93.038 95.3421 95.4225 91.6952 98.4099L85.2787 104.083C83.0028 106.385 81.193 108.715 79.8494 111.072C78.7251 113.1 77.7791 115.731 77.0114 118.965L75.2839 128.339C74.4338 133.793 73.6386 137.808 72.8982 140.384C71.6917 144.632 70.0602 147.921 68.0036 150.251C66.5778 151.895 64.768 153.704 62.5743 155.677L56.816 160.652Z" fill="#DDD698"/>
<path d="M146.483 122.46L153.105 117.691L154.257 116.005L153.681 115.224L151.583 116.91C145.825 121.514 142.233 124.118 140.807 124.721C138.147 123.296 134.075 120.377 128.591 115.964C123.326 111.716 119.35 108.18 116.663 105.358L115.964 106.015C120.516 110.784 123.696 113.963 125.506 115.553C130.058 119.555 135.076 122.939 140.56 125.707L140.725 125.79L140.93 125.707C141.918 125.351 143.768 124.269 146.483 122.46Z" fill="#0D131A"/>
<path d="M141.381 134.752C141.601 132.395 141.655 130.106 141.546 127.886L141.34 125.214L140.394 125.337C140.559 126.05 140.504 127.955 140.23 131.052C139.873 135.327 139.146 139.617 138.05 143.92C137.062 147.811 135.719 151.758 134.019 155.76C130.29 164.42 125.422 171.601 119.417 177.302L120.445 177.713C124.065 174.78 127.191 171.395 129.823 167.558C132.593 163.529 134.444 159.555 135.376 155.636C138.749 149.278 140.751 142.316 141.381 134.752Z" fill="#0D131A"/>
<path d="M102.103 180.549L92.7658 181.413L92.848 182.358C95.2336 182.523 98.1402 182.468 101.568 182.194C108.396 181.618 114.497 180.248 119.871 178.083C122.97 180.275 125.725 181.646 128.139 182.194L130.935 182.358L134.061 180.673C135.789 179.686 135.816 179.535 134.144 180.22C132.169 181.015 130.209 181.18 128.262 180.714C126.452 180.303 123.751 179.11 120.159 177.137L119.995 177.055L119.789 177.096C115.073 178.521 109.177 179.672 102.103 180.549Z" fill="#0D131A"/>
<path d="M160.015 149.593L159.644 148.729L158.657 149.223C149.115 154.101 140.642 156.061 133.238 155.102L133.115 156.088C139.422 157.048 145.262 156.609 150.637 154.773C154.229 153.539 157.053 151.964 159.11 150.045L160.015 149.593Z" fill="#0D131A"/>
<path d="M65.331 101.904L64.5084 102.562C63.9051 105.44 64.3164 109.482 65.7423 114.69C67.4698 120.939 70.0336 124.68 73.4338 125.913L74.0508 125.173C70.5683 122.268 68.0319 118.033 66.4415 112.47C65.1802 108.03 64.81 104.508 65.331 101.904Z" fill="#0D131A"/>
<path d="M64.2197 149.387C60.8744 147.907 58.0364 144.468 55.7056 139.068C54.0055 135.177 53.0732 132.038 52.9087 129.654L52.4562 130.887C52.703 133.82 53.5942 137.123 55.1298 140.795C57.4057 146.359 60.3123 149.511 63.8495 150.251L64.2197 149.387Z" fill="#0D131A"/>
<path d="M71.9118 108.605C71.473 109.893 71.0617 112.059 70.6778 115.101L69.6496 123.2C68.8818 128.517 68.0592 132.888 67.1817 136.314C66.0574 140.864 64.7138 144.331 63.1508 146.715L62.2871 148.072L59.3668 152.676C57.8586 154.567 55.8432 156.294 53.3205 157.856C52.3059 158.486 51.9221 159.692 52.1688 161.474C52.3882 162.926 52.8818 164.242 53.6496 165.421C54.1157 166.161 54.8972 166.599 55.994 166.736C57.4199 166.9 59.024 166.421 60.8064 165.297L66.2768 161.844C68.4979 160.227 70.3351 158.418 71.7884 156.417C75.7918 150.881 77.8209 142.604 77.8758 131.586C77.9032 122.706 79.3839 116.17 82.3179 111.976C83.9632 109.647 87.1577 107.207 91.9015 104.659L94.6573 104.124C99.0994 101.685 102.075 98.4646 103.583 94.4631C104.076 93.2024 104.556 90.5439 105.022 86.4876L105.146 85.4598C105.31 84.3361 105.201 83.1302 104.817 81.8421C104.405 80.4169 103.761 79.3206 102.883 78.5532C101.101 77.0458 99.7301 76.4428 98.7704 76.7443C97.0429 77.2925 95.7541 78.3065 94.904 79.7865C94.5202 80.4443 93.9717 81.8969 93.2588 84.1443L92.1894 87.8443C91.6684 89.3517 90.9966 90.5302 90.174 91.3798L86.2665 94.5042L78.0814 100.589C74.8458 103.302 72.7892 105.974 71.9118 108.605Z" fill="#0D131A"/>
<path d="M70.9249 123.364C70.02 129.613 69.2385 134.19 68.5804 137.095C67.4835 142.028 66.1536 145.687 64.5907 148.072L63.7269 149.428C62.5478 151.374 61.4784 152.882 60.5187 153.951C58.9283 155.759 56.8306 157.555 54.2256 159.336C54.0063 159.528 53.9377 160.062 54.02 160.939C54.1296 161.953 54.4587 162.858 55.0071 163.653C56.1862 165.434 57.9 165.626 60.1485 164.228C64.5632 161.46 68.0045 158.048 70.4724 153.992C73.9548 148.264 75.9977 140.768 76.6009 131.504C77.1768 122.213 78.8906 115.443 81.7423 111.195C83.4973 108.592 86.6781 106.043 91.2847 103.549L92.6421 102.809C96.8923 100.452 99.9223 97.4779 101.732 93.8876C102.719 91.8868 103.391 89.3791 103.747 86.3643L103.871 85.2543C104.035 84.3498 103.953 83.3358 103.624 82.2121C103.268 81.0062 102.747 80.1017 102.061 79.4988C101.321 78.8958 100.498 78.7314 99.5932 79.0054C98.1125 79.4988 97.002 80.321 96.2616 81.4721C95.7955 82.1847 95.2745 83.4591 94.6986 85.2954C94.2599 86.8028 93.8486 87.9676 93.4647 88.7898C92.834 90.1328 92.0388 91.2839 91.0791 92.2431C90.6129 92.7365 89.2693 93.8328 87.0482 95.532C83.5384 98.1357 80.9334 100.26 79.2333 101.904C76.217 104.782 74.2839 107.495 73.4339 110.044C72.9677 111.415 72.5152 113.36 72.0765 115.882L70.9249 123.364Z" fill="#EEEEEF"/>
<path d="M103.624 82.2121C103.268 81.0062 102.747 80.1017 102.061 79.4988C101.321 78.8958 100.498 78.7314 99.5932 79.0054C98.1125 79.4988 97.002 80.321 96.2616 81.4721C95.7955 82.1847 95.2745 83.4591 94.6986 85.2954C94.2599 86.8028 93.8486 87.9676 93.4647 88.7898C92.834 90.1328 92.0388 91.2839 91.0791 92.2431L90.8323 92.5309C94.1228 93.6272 96.2616 95.9842 97.2488 99.602C99.6618 97.4916 101.403 95.0387 102.472 92.2431C103.048 90.7083 103.473 88.7487 103.747 86.3643L103.871 85.2543C104.035 84.3498 103.953 83.3358 103.624 82.2121Z" fill="#C8C9CA"/>
<path d="M54.225 159.336C54.0056 159.528 53.9371 160.062 54.0194 160.939C54.129 161.954 54.4581 162.858 55.0065 163.653C56.1856 165.434 57.8994 165.626 60.1479 164.228C62.3416 162.831 64.261 161.337 65.9062 159.747C64.3981 159.994 63.3698 159.117 62.8214 157.116C62.2456 155.061 62.4512 152.662 63.4384 149.922C62.3964 151.648 61.3407 153.087 60.2713 154.238C58.7357 155.91 56.7203 157.609 54.225 159.336Z" fill="#C8C9CA"/>
<path d="M127.111 144.248L126.658 143.961L126.247 150.703L126.411 150.826L133.856 153.992C134.432 152.868 133.966 151.278 132.458 149.223C131.032 147.277 129.249 145.619 127.111 144.248Z" fill="#0D131A"/>
<path d="M132.746 152.8L132.869 152.758L132.951 152.471C132.951 151.758 132.43 150.675 131.388 149.223C130.209 147.606 128.824 146.236 127.234 145.112L126.905 150.374L130.195 152.101C131.512 152.676 132.362 152.909 132.746 152.8Z" fill="white"/>
<path d="M124.724 155.061L124.601 155.02L124.477 155.061C118.829 157.555 116.032 159.473 116.087 160.816C116.087 161.31 116.429 161.666 117.115 161.885C119.117 162.598 121.694 162.502 124.848 161.597C128.028 160.72 130.181 159.473 131.305 157.856C131.662 157.363 131.703 156.856 131.429 156.335C131.237 155.979 130.716 155.732 129.866 155.595L127.315 155.39L124.724 155.061Z" fill="#0D131A"/>
<path d="M130.154 157.486L130.442 156.787L130.401 156.664C130.237 156.362 129.195 156.143 127.275 156.006L124.684 155.677C122.737 156.499 120.982 157.39 119.419 158.349C117.609 159.446 116.705 160.254 116.705 160.775V160.816L117.322 161.309L124.314 161.022C127.166 160.172 129.112 158.994 130.154 157.486Z" fill="white"/>
<path d="M120.035 158.021C117.814 159.281 116.704 160.199 116.704 160.775V160.816L117.321 161.309L122.339 161.474C124.313 161.118 126.082 160.501 127.645 159.624L122.832 159.089L120.035 158.021Z" fill="#DBDCDC"/>
<path d="M127.521 148.483C126.78 147.852 125.779 147.907 124.518 148.647C123.531 149.223 122.708 150.031 122.05 151.073C121.337 152.169 121.063 153.169 121.228 154.074L121.762 155.677C122.201 156.335 122.873 156.746 123.778 156.911L131.305 157.815C133.416 157.842 134.76 157.596 135.336 157.075C135.665 156.746 135.788 156.362 135.706 155.924C135.624 155.156 134.815 154.129 133.279 152.841L129.125 149.716L127.521 148.483Z" fill="#0D131A"/>
<path d="M134.268 155.636C134.158 154.622 132.321 152.813 128.756 150.209L127.111 148.976C126.562 148.538 125.808 148.606 124.849 149.182C123.971 149.702 123.231 150.415 122.627 151.319C121.969 152.306 121.709 153.183 121.846 153.951C122.011 154.91 122.806 155.513 124.232 155.759C130.017 156.773 133.294 156.938 134.062 156.253L134.268 155.759V155.636Z" fill="white"/>
<path d="M134.062 156.212C129.044 155.746 124.972 154.745 121.846 153.211V153.951C122.01 154.91 122.805 155.513 124.231 155.759C130.017 156.774 133.294 156.938 134.062 156.253V156.212Z" fill="#DBDCDC"/>
<path d="M103.954 111.442C100.389 105.44 95.179 102.274 88.3238 101.945C85.0607 101.754 81.9896 103.316 79.1105 106.632C75.9022 110.332 73.7908 115.375 72.7763 121.761C71.652 128.805 73.3795 135.821 77.9588 142.81C82.3187 149.47 88.4472 154.924 96.3444 159.172C102.267 162.351 108.314 163.694 114.483 163.201C120.077 162.762 124.314 161.035 127.193 158.021C129.853 155.28 131.128 152.649 131.018 150.127C130.908 148.702 130.223 147.209 128.961 145.646C127.919 144.358 126.302 142.81 124.108 141.001C122.682 139.85 119.734 135.958 115.265 129.325C111.069 123.104 107.299 117.143 103.954 111.442Z" fill="#0D131A"/>
<path d="M74.832 122.213C73.7901 128.763 75.6958 135.519 80.5493 142.481C84.9091 148.702 90.5304 153.718 97.413 157.527C103.062 160.652 108.614 162.118 114.071 161.926C119.062 161.734 122.887 160.254 125.547 157.486C127.932 154.965 129.07 152.58 128.961 150.333C128.796 147.729 126.904 144.947 123.284 141.987C121.667 140.672 118.596 136.862 114.071 130.558C109.739 124.501 106.023 118.91 102.925 113.785C98.6195 106.632 93.3822 103.453 87.2125 104.248C84.4704 104.576 82.0711 106.043 80.0146 108.646C77.5193 111.771 75.7918 116.293 74.832 122.213Z" fill="#88A3D4"/>
<path d="M77.4233 112.963C76.2716 115.622 75.4079 118.705 74.832 122.213C73.79 128.763 75.6958 135.519 80.5492 142.481C84.9091 148.702 90.5304 153.718 97.413 157.527C102.212 160.186 106.997 161.638 111.768 161.885C116.1 162.132 119.788 161.364 122.832 159.583C109.643 158.267 98.6195 153.553 89.7626 145.441C80.0283 136.479 75.9151 125.653 77.4233 112.963Z" fill="#778DB8"/>
<path d="M105.351 46.199C103.98 48.0079 102.499 50.7761 100.909 54.5034C98.304 60.5604 96.7547 66.6586 96.2611 72.7978C95.5756 81.2118 97.5499 89.1188 102.184 96.5188C106.818 103.919 113.564 110.003 122.42 114.772C129.468 118.554 137.927 119.938 147.798 118.924C156.82 118.02 165.389 115.361 173.505 110.949C177.92 108.564 180.648 106.002 181.69 103.261C182.705 100.602 182.774 96.0665 181.896 89.6533C181.759 88.694 181.882 87.5155 182.266 86.1177L183.418 82.7055C184.35 79.7729 184.885 77.4022 185.022 75.5933C185.351 72.0852 184.953 67.8508 183.829 62.8901C181.937 54.476 177.207 47.309 169.639 41.3891C162.126 35.5239 153.488 32.2076 143.726 31.4402C135.116 30.7825 126.876 32.3173 119.007 36.0447C112.81 38.9772 108.258 42.362 105.351 46.199Z" fill="#0D131A"/>
<path d="M98.6882 72.921C98.0301 81.0884 99.881 88.6939 104.241 95.7375C108.628 102.754 115.141 108.578 123.778 113.21C131.1 117.156 139.847 118.444 150.02 117.074C157.807 116.033 164.964 113.813 171.49 110.414C175.85 108.167 178.688 105.549 180.004 102.562C181.238 99.7938 181.485 95.7786 180.745 90.5165L180.621 89.8176C180.484 88.6665 180.512 87.5154 180.704 86.3643L181.567 83.1987C182.417 80.595 182.925 78.2654 183.089 76.2099C183.336 72.784 182.911 68.6318 181.814 63.7533C179.977 55.5859 175.494 48.6793 168.364 43.0334C161.235 37.4149 152.954 34.2494 143.521 33.5368C135.185 32.9064 127.507 34.2768 120.488 37.6479C115.141 40.2241 111.069 43.3897 108.272 47.1445C106.654 49.3096 105.091 51.9819 103.583 55.1611C100.786 61.0537 99.1544 66.9736 98.6882 72.921Z" fill="#88A3D4"/>
<path d="M127.397 35.0167C122.955 36.2775 118.911 38.1549 115.264 40.6489C112.302 42.7045 109.972 44.8696 108.271 47.1444C106.654 49.3096 105.091 51.9818 103.583 55.1611C100.786 61.0536 99.1541 66.9736 98.688 72.921C98.0573 80.8143 99.7711 88.1731 103.829 94.9975C107.915 101.849 113.989 107.605 122.05 112.264C120.049 110.647 118.253 108.907 116.662 107.043C108.326 96.6831 105.433 84.2813 107.984 69.8377C110.424 56.0792 116.895 44.4722 127.397 35.0167Z" fill="#778DB8"/>
<path d="M176.549 72.7155C171.86 78.471 168.611 82.1847 166.801 83.8565C166.171 86.1587 165.855 88.7076 165.855 91.5031C165.855 92.3802 166.047 93.6957 166.431 95.4498C166.541 95.8883 166.842 96.3953 167.336 96.9709L168.364 97.7931C170.037 97.6286 171.668 96.8201 173.259 95.3675C174.685 94.052 175.631 92.709 176.097 91.3387C176.673 89.5846 177.153 87.488 177.536 85.0487C177.92 82.6369 178.112 80.5539 178.112 78.7999C178.112 77.8406 177.893 76.6758 177.454 75.3054L176.549 72.7155Z" fill="white"/>
<path d="M138.174 81.3488C130.99 75.2095 126.739 71.907 125.423 71.441C124.738 71.8521 124.148 72.7703 123.655 74.1955C123.161 75.7303 122.914 77.4295 122.914 79.2932C122.914 83.4043 123.161 86.5424 123.655 88.7076C124.23 91.2839 125.314 93.4765 126.904 95.2853C127.864 96.7105 129.632 97.2861 132.21 97.012C134.76 96.7379 136.666 95.8198 137.927 94.2576C138.695 93.4902 139.284 91.9005 139.696 89.4887C140.052 87.5154 140.23 85.5421 140.23 83.5687L139.531 82.6643L138.174 81.3488Z" fill="white"/>
<path d="M163.387 83.5688L164.416 80.8966C164.553 80.5128 164.443 80.2799 164.086 80.1977C163.73 80.1154 163.497 80.2662 163.387 80.6499L162.77 82.9932C162.661 83.3769 162.702 83.651 162.894 83.8154C163.058 84.0073 163.223 83.925 163.387 83.5688Z" fill="#0D131A"/>
<path d="M146.482 80.8966C146.482 80.3484 146.345 80.047 146.071 79.9922C145.797 79.9647 145.632 80.1977 145.578 80.691C145.523 81.3488 145.29 82.3903 144.878 83.8155V84.4732C144.961 84.5829 145.139 84.4732 145.413 84.1443C146.071 83.4592 146.428 82.3766 146.482 80.8966Z" fill="#0D131A"/>
<path d="M172.806 104.577L170.256 105.44C168.529 106.043 167.377 106.564 166.801 107.002L166.595 107.166L166.143 107.454L167.418 109.304C168.104 110.099 168.625 110.455 168.981 110.373C169.255 110.346 169.831 109.88 170.708 108.975C171.778 107.852 172.765 106.564 173.67 105.111L173.588 104.33L172.806 104.577Z" fill="#0D131A"/>
<path d="M172.148 105.44C169.873 106.18 168.296 106.824 167.418 107.372C168.241 108.77 168.789 109.51 169.064 109.592L170.298 108.112L172.148 105.44Z" fill="white"/>
<path d="M127.315 105.851L124.313 105.275L124.189 105.44L123.819 105.645C123.655 105.7 123.586 105.796 123.614 105.933C123.86 106.865 124.409 108.03 125.259 109.427C126.246 111.072 127.055 111.894 127.686 111.894C128.371 111.894 129.509 111.182 131.1 109.756C132.662 108.359 133.362 107.454 133.197 107.043L132.169 106.673H131.963L127.315 105.851Z" fill="#0D131A"/>
<path d="M127.193 106.509L124.684 106.015C124.739 106.481 125.205 107.386 126.082 108.729C126.932 110.017 127.536 110.757 127.892 110.949C128.166 110.921 128.797 110.428 129.784 109.469C130.744 108.482 131.333 107.756 131.553 107.29L127.193 106.509Z" fill="white"/>
<path d="M163.47 104.371C163.525 104.097 163.442 103.877 163.223 103.713C163.004 103.549 162.825 103.617 162.688 103.919L162.154 104.782L161.66 105.604C161.496 105.933 161.509 106.125 161.701 106.18L162.359 106.015L163.1 105.275L163.47 104.371Z" fill="#0D131A"/>
<path d="M154.832 106.426C154.585 105.495 154.037 104.796 153.187 104.33C152.611 104.028 152.309 104.028 152.282 104.33C152.254 104.604 152.392 104.892 152.693 105.193L153.351 105.974L154.009 106.714C154.311 106.961 154.544 107.043 154.709 106.961C154.846 106.879 154.887 106.7 154.832 106.426Z" fill="#0D131A"/>
<path d="M125.424 71.4411C124.903 71.2218 124.395 70.9889 123.902 70.7422C122.339 73.6199 121.557 77.3747 121.557 82.0066C121.557 85.7065 122.394 89.0913 124.066 92.161C125.657 95.1209 127.316 96.6009 129.043 96.6009C130.771 96.6009 132.279 95.3676 133.568 92.901C134.884 90.4343 135.542 87.5839 135.542 84.3499C135.542 81.6092 135.186 79.4714 134.473 77.9366L133.403 77.361L129.907 74.4422C128.344 73.2088 126.85 72.2085 125.424 71.4411Z" fill="#0D131A"/>
<path d="M125.424 71.441C124.875 72.1536 124.395 73.524 123.984 75.5521C123.6 77.5803 123.408 79.7317 123.408 82.0065C123.408 84.9939 123.97 87.995 125.095 91.0098C126.274 94.1069 127.494 95.6554 128.755 95.6554C130.126 95.6554 131.36 94.4905 132.457 92.1609C133.609 89.7491 134.185 86.9124 134.185 83.651C134.185 82.1984 133.883 80.2388 133.28 77.7721L129.784 74.6477C128.166 73.2225 126.712 72.1536 125.424 71.441Z" fill="#BA5400"/>
<path d="M172.683 77.5665L172.066 77.6076L170.627 79.1287L166.472 83.7743L166.061 84.0621L165.609 85.4187C165.334 86.7343 165.197 88.502 165.197 90.722C165.197 92.6131 165.472 94.2439 166.02 95.6142C166.596 96.9846 167.295 97.7246 168.118 97.8342C170.256 98.1083 171.915 95.532 173.095 90.1054C174.274 84.7061 174.137 80.5265 172.683 77.5665Z" fill="#0D131A"/>
<path d="M171.079 79.581C169.351 81.3625 168.008 82.8699 167.048 84.1032L166.513 86.7343L166.266 90.5576C166.266 92.4761 166.458 94.0657 166.842 95.3265C167.199 96.5324 167.651 97.1627 168.2 97.2175C168.94 97.2998 169.708 96.4364 170.503 94.6276C171.38 92.7091 171.997 90.3246 172.354 87.4743C172.518 86.1587 172.601 84.9117 172.601 83.7332C172.601 81.6228 172.354 79.951 171.86 78.7177L171.079 79.581Z" fill="#BA5400"/>
<path d="M168.899 81.8422L168.035 82.0888C167.569 82.4451 167.158 83.1303 166.801 84.1444C166.417 85.1584 166.143 86.337 165.979 87.6799C165.787 89.3243 165.8 90.7495 166.02 91.9554C166.266 93.2984 166.719 94.0247 167.377 94.1343C167.624 94.1891 167.912 94.1069 168.241 93.8877C168.707 93.5314 169.118 92.8599 169.475 91.8732C169.859 90.8591 170.133 89.6806 170.297 88.3377C170.489 86.6932 170.476 85.2681 170.256 84.0621C170.009 82.6918 169.557 81.9518 168.899 81.8422Z" fill="#0D131A"/>
<path d="M131.593 83.8566C131.593 81.8833 131.332 80.1704 130.811 78.7178C130.235 77.1007 129.495 76.2922 128.59 76.2922C127.685 76.2922 126.945 77.1007 126.369 78.7178C125.876 80.1704 125.629 81.8833 125.629 83.8566C125.629 85.8574 125.876 87.584 126.369 89.0366C126.945 90.6536 127.685 91.4621 128.59 91.4621C129.495 91.4621 130.235 90.6536 130.811 89.0366C131.332 87.584 131.593 85.8574 131.593 83.8566Z" fill="#0D131A"/>
<path d="M72.6116 11.0081C70.555 12.1318 69.8558 14.5848 70.5139 18.367C71.3365 22.9988 72.4882 27.4251 73.9689 31.6458C71.9398 35.2361 72.8447 40.3476 76.6836 46.9801C79.837 52.4342 83.621 57.0249 88.0358 60.7523C87.7616 61.3278 87.789 62.7804 88.118 65.11C88.5567 68.0426 89.4479 70.3174 90.7915 71.9344C91.8884 73.2774 93.2731 74.4422 94.9458 75.4289C96.9201 76.6074 98.9081 77.2789 100.91 77.4433C104.173 77.69 107.683 75.7715 111.439 71.6878C115.443 67.3574 116.402 60.6838 114.319 51.6668C112.372 43.3624 108.601 35.702 103.007 28.6858C99.8541 24.7391 96.2208 21.1899 92.1077 18.0381C88.1317 14.9959 84.3888 12.8307 80.8789 11.5426C77.232 10.1722 74.4762 9.99404 72.6116 11.0081Z" fill="#0D131A"/>
<path d="M74.5441 35.1402C74.8458 38.6209 76.3265 42.8005 78.9863 47.679C81.7558 52.7493 84.7721 56.6137 88.0351 59.2722C88.0351 58.0115 88.2408 56.6823 88.6521 55.2845C88.9811 54.243 89.3376 53.8319 89.7215 54.0512C90.1054 54.2704 90.2425 54.9556 90.1328 56.1067C89.557 62.6844 90.2151 67.3848 92.1071 70.2077C92.9023 71.4411 94.0403 72.5237 95.521 73.4555C97.2211 74.497 98.976 75.0862 100.786 75.2233C104.323 75.4973 107.572 74.0311 110.534 70.8244C114.263 66.7407 115.045 60.3685 112.878 51.7078C110.822 43.5405 107.024 36.3324 101.485 30.0835C96.1928 24.1361 90.6127 19.5591 84.7446 16.3525C79.5073 13.4473 75.7643 12.4469 73.5158 13.3514C72.3093 13.8447 72.0077 16.284 72.611 20.6691C73.132 24.561 74.0231 28.1787 75.2845 31.5224L75.4079 31.8513L75.1611 32.1391C74.6675 32.7146 74.4619 33.715 74.5441 35.1402Z" fill="#AFCEE5"/>
<path d="M74.5441 35.1402C74.8458 38.6209 76.3265 42.8005 78.9863 47.679C81.7558 52.7493 84.7721 56.6137 88.0351 59.2722C88.0351 58.0115 88.2408 56.6823 88.6521 55.2845C88.9811 54.243 89.3376 53.8319 89.7215 54.0512C90.1054 54.2704 90.2425 54.9556 90.1328 56.1067C89.557 62.6844 90.2151 67.3848 92.1071 70.2077C92.9023 71.4411 94.0403 72.5237 95.521 73.4555C97.2211 74.497 98.976 75.0862 100.786 75.2233C104.323 75.4973 107.572 74.0311 110.534 70.8244C114.263 66.7407 115.045 60.3685 112.878 51.7078C110.822 43.5405 107.024 36.3324 101.485 30.0835C96.1928 24.1361 90.6127 19.5591 84.7446 16.3525C79.5073 13.4473 75.7643 12.4469 73.5158 13.3514C72.3093 13.8447 72.0077 16.284 72.611 20.6691C73.132 24.561 74.0231 28.1787 75.2845 31.5224L75.4079 31.8513L75.1611 32.1391C74.6675 32.7146 74.4619 33.715 74.5441 35.1402Z" fill="#AFCEE5"/>
<path d="M96.8368 36.3735C94.6706 33.1121 92.2439 29.9465 89.5566 26.8769C86.5678 23.451 83.7297 20.6829 81.0425 18.5725C79.3973 18.6821 80.2336 21.1077 83.5515 25.8491C87.8017 31.9335 90.1462 35.8528 90.5849 37.6068C91.6269 42.1016 93.5875 47.4049 96.4667 53.5168C99.9217 60.8345 102.554 63.9726 104.364 62.9312C106.256 61.8349 106.283 58.1623 104.446 51.9134C102.636 45.8016 100.1 40.6216 96.8368 36.3735Z" fill="#93AEC1"/>
<path d="M96.5907 34.3178C94.0955 30.8097 91.4082 27.4797 88.529 24.3279C86.0612 21.6694 84.2514 19.9564 83.0997 19.189C81.3448 18.0105 80.5222 17.6816 80.6319 18.2024C80.7416 18.6957 81.3448 19.3809 82.4416 20.2579C85.1563 22.4231 88.9952 27.0412 93.9584 34.1123C100.841 43.8967 104.529 52.2559 105.023 59.1899C105.187 61.6018 105.448 62.3418 105.804 61.4099L106.298 59.2722C106.791 52.53 103.556 44.2119 96.5907 34.3178Z" fill="#0D131A"/>
<path d="M68.5794 156.952C64.7131 157.39 60.504 159.651 55.9522 163.735C51.3729 167.846 47.3284 173.012 43.8185 179.234C41.1861 183.838 39.4038 188.566 38.4715 193.417C38.115 195.336 37.786 198.666 37.4843 203.407L37.4021 205.709L37.3198 207.313L35.7157 211.136L34.3173 215.124C34.0156 215.973 33.8374 216.96 33.7825 218.084C33.6729 219.865 34.5092 220.468 36.2915 219.893L40.1579 218.577C42.4886 217.727 44.5178 216.878 46.2453 216.028L49.0422 219.317L52.4561 223.058C54.019 224.456 57.8991 222.825 64.0962 218.166L73.474 219.029C75.0919 219.029 76.175 218.714 76.7234 218.084C77.217 217.59 77.5049 216.974 77.5872 216.234C77.6694 215.658 77.642 214.74 77.5049 213.479L77.0525 210.889C76.9154 210.122 76.8879 209.45 76.9702 208.875C77.1347 207.395 77.9985 205.778 79.5615 204.024L85.1964 198.145L91.8596 191.115C93.5872 189.142 94.3687 186.428 94.2041 182.975C94.0396 179.604 93.0113 176.109 91.1193 172.492C88.7885 168.079 85.5255 164.338 81.3301 161.268C76.8057 157.952 72.5555 156.513 68.5794 156.952Z" fill="#0D131A"/>
<path d="M89.3516 173.602C87.1305 169.326 84.1691 165.75 80.4673 162.872C76.3816 159.665 72.4878 158.267 68.786 158.678C65.0568 159.117 60.7518 161.913 55.8709 167.065C51.7303 171.423 48.4947 175.863 46.1639 180.385C41.9137 188.662 39.4047 197.405 38.637 206.614C38.5821 207.189 37.9789 209.259 36.8272 212.821C35.8126 215.973 35.4424 217.7 35.7166 218.001C36.1828 218.522 39.4596 217.536 45.547 215.041L45.6292 214.425C45.8212 214.123 46.2325 214.26 46.8632 214.836L49.8246 217.919L53.3207 221.331C53.8417 221.797 55.3636 221.427 57.8863 220.221C60.08 219.153 61.7252 218.166 62.822 217.261C63.4527 216.741 64.6729 216.604 66.4827 216.85L72.858 217.467C74.0371 217.467 74.8323 217.248 75.2436 216.809C75.4904 216.563 75.6138 215.329 75.6138 213.109L75.6961 208.71C75.9154 206.929 76.6832 205.12 77.9994 203.284C78.8769 202.05 80.6866 199.981 83.4287 197.076L89.9274 189.923C91.4904 188.141 92.2171 185.798 92.1074 182.893C92.0251 180.015 91.1065 176.918 89.3516 173.602Z" fill="#88A3D4"/>
<path d="M77.9998 203.284C78.8772 202.05 80.687 199.981 83.4291 197.076L89.9278 189.923C91.765 187.84 92.4642 185.017 92.0255 181.454C87.5833 185.455 83.4291 189.854 79.5628 194.65C75.4771 199.748 73.2971 203.366 73.0229 205.504L72.4471 211.999C72.2003 213.945 71.6245 214.959 70.7196 215.041L66.6065 214.918L63.1103 215.041L58.6682 216.932C56.31 217.919 54.843 218.412 54.2671 218.412C53.7736 218.412 52.4299 217.59 50.2363 215.946C48.0426 214.301 46.7676 213.479 46.4111 213.479C46.2192 213.479 44.7933 214.027 42.1335 215.124C39.3091 216.275 37.1429 216.96 35.6347 217.179L35.717 218.001C36.1832 218.522 39.4599 217.535 45.5473 215.041L45.6296 214.425C45.8216 214.123 46.2329 214.26 46.8635 214.836L49.825 217.919L53.3211 221.331C53.8421 221.797 55.364 221.427 57.8867 220.221C60.0803 219.152 61.7256 218.166 62.8224 217.261C63.4531 216.741 64.6733 216.604 66.4831 216.85L72.8584 217.467C74.0375 217.467 74.8327 217.248 75.244 216.809C75.4908 216.562 75.6142 215.329 75.6142 213.109L75.6964 208.71C75.9158 206.929 76.6836 205.12 77.9998 203.284Z" fill="#778DB8"/>
<path d="M156.889 112.305C157.383 112.525 158.15 112.237 159.192 111.442L161.249 109.674C161.66 109.318 163.086 108.701 165.527 107.824C167.94 106.947 169.859 106.344 171.285 106.015C172.683 105.686 173.712 105.303 174.37 104.864C174.918 104.508 175.343 103.987 175.645 103.302C175.947 102.672 175.947 102.329 175.645 102.274C175.316 102.192 174.905 102.452 174.411 103.055C174 103.576 173.424 104.015 172.683 104.371L170.709 105.111C164.869 107.057 161.619 108.276 160.961 108.77L159.357 110.003C158.699 110.469 158.178 110.702 157.794 110.702L155.162 109.674C153.626 108.962 152.488 108.592 151.748 108.564L139.573 107.29L126.329 105.522C124.848 105.22 123.34 104.604 121.804 103.672C120.461 102.822 119.474 102 118.843 101.205C118.294 100.52 117.842 100.26 117.486 100.424C117.156 100.589 117.198 100.986 117.609 101.616C118.623 103.206 119.912 104.412 121.475 105.234C122.627 105.865 124.149 106.372 126.041 106.755L139.12 108.441L150.966 109.756C151.487 109.839 152.488 110.222 153.969 110.907L156.889 112.305Z" fill="#0D131A"/>
<path d="M173.669 97.0122C173.121 97.4233 172.888 97.8481 172.97 98.2866C173.053 98.7251 173.423 99.0403 174.081 99.2322L176.384 99.2733C177.262 99.1088 177.975 98.821 178.523 98.4099C179.071 98.0262 179.304 97.6151 179.222 97.1766C179.14 96.7381 178.77 96.4366 178.112 96.2722L175.808 96.1899C174.931 96.327 174.218 96.6011 173.669 97.0122Z" fill="#5084C4"/>
<path d="M114.648 94.9977C114.483 95.5184 114.84 96.1077 115.717 96.7654C116.595 97.4232 117.733 97.9576 119.131 98.3688L122.833 98.8621C123.93 98.8073 124.547 98.5195 124.684 97.9988C124.848 97.478 124.492 96.8888 123.614 96.231C122.737 95.5732 121.613 95.0388 120.242 94.6277C118.843 94.2165 117.595 94.0521 116.499 94.1343C115.402 94.1891 114.785 94.4769 114.648 94.9977Z" fill="#5084C4"/>
<path d="M124.766 79.3342C124.766 80.3209 125.067 81.1705 125.671 81.8831C126.274 82.5683 127.001 82.9109 127.851 82.9109C128.701 82.9109 129.441 82.5683 130.072 81.8831C130.675 81.1705 130.977 80.3209 130.977 79.3342C130.977 78.3476 130.675 77.5117 130.072 76.8265C129.468 76.1413 128.728 75.7987 127.851 75.7987C127.001 75.7987 126.274 76.1413 125.671 76.8265C125.067 77.5117 124.766 78.3476 124.766 79.3342Z" fill="white"/>
<path d="M169.434 82.7877C169.077 83.2262 168.899 83.7469 168.899 84.3499C168.899 84.9802 169.077 85.501 169.434 85.9121C169.79 86.3506 170.229 86.5699 170.75 86.5699C171.243 86.5699 171.668 86.3506 172.025 85.9121C172.381 85.4736 172.56 84.9528 172.56 84.3499C172.56 83.7469 172.381 83.2262 172.025 82.7877C171.668 82.3491 171.243 82.1299 170.75 82.1299C170.229 82.1299 169.79 82.3491 169.434 82.7877Z" fill="white"/>
<path d="M151.212 118.02L148.086 118.225L141.34 118.39C138.16 118.39 133.978 117.91 128.795 116.951C136.117 122.487 140.134 125.255 140.847 125.255C141.532 125.255 144.987 122.843 151.212 118.02Z" fill="#0D131A"/>
<path d="M176.304 73.99C176.989 75.2233 177.318 77.1007 177.291 79.6222C177.291 82.774 176.756 86.707 175.687 91.421C175.522 92.1062 175.563 92.4625 175.81 92.4899C176.029 92.5173 176.235 92.2843 176.427 91.791C177.908 88.0088 178.676 84.0347 178.73 79.8688C178.785 76.1415 178.346 73.8118 177.414 72.88L178.689 70.7011C178.963 70.2352 179.018 69.8926 178.854 69.6733C178.689 69.4267 178.333 69.6048 177.784 70.2078L165.651 83.8566C165.02 84.5966 164.746 85.0899 164.828 85.3366C164.883 85.5558 165.239 85.4599 165.897 85.0488C170.394 80.6911 173.863 77.0048 176.304 73.99Z" fill="#0D131A"/>
<path d="M139.079 81.02C136.583 78.9096 133.553 76.5389 129.989 73.9078C126.753 71.4959 124.559 69.9611 123.408 69.3034C122.558 68.8374 122.064 68.7141 121.927 68.9334C121.79 69.1526 122.009 69.55 122.585 70.1256L131.305 76.9911L139.613 83.5277C139.805 85.0351 139.682 86.8577 139.243 88.9955C138.859 90.9688 138.324 92.6681 137.639 94.0932C137.502 94.3947 137.529 94.5592 137.721 94.5866C137.941 94.614 138.16 94.4769 138.379 94.1755C139.421 92.9147 140.189 91.284 140.683 89.2833C141.149 87.3922 141.258 85.6655 141.012 84.1033L142.657 84.3088C142.876 84.2266 142.767 84.0074 142.328 83.6511L139.079 81.02Z" fill="#0D131A"/>
</g>
<defs>
<clipPath id="clip0_2621_689">
<rect width="205.82" height="224.645" fill="white" transform="matrix(-1 0 0 1 206.41 0.805054)"/>
</clipPath>
</defs>
</svg>
